<?xml version="1.0" encoding="utf-8"?>
<!-- Generator: Adobe Illustrator 24.0.1, SVG Export Plug-In . SVG Version: 6.00 Build 0)  -->
<svg version="1.1" id="Capa_1" xmlns="http://www.w3.org/2000/svg" xmlns:xlink="http://www.w3.org/1999/xlink" x="0px" y="0px"
	 viewBox="0 0 1366.8 1056.3" style="enable-background:new 0 0 1366.8 1056.3;" xml:space="preserve">
<style type="text/css">
	.st0{fill:none;}
	.st1{clip-path:url(#SVGID_2_);}
	.st2{fill:#003366;}
	.st3{font-family:'Arial-BoldMT';}
	.st4{font-size:24.5186px;}
	.st5{clip-path:url(#SVGID_4_);}
	.st6{fill:#EEEEEE;}
	.st7{clip-path:url(#SVGID_6_);}
	.st8{font-size:23.8px;}
	.st9{fill:#8D8D8D;}
	.st10{fill:#012E68;}
	.st11{font-family:'OpenSans-Regular';}
	.st12{font-size:22px;}
	.st13{fill:#00CCCC;}
	.st14{fill:#FFFFFF;}
	.st15{font-family:'OpenSans-SemiBold';}
	.st16{font-size:35px;}
	.st17{font-size:26px;}
	.st18{font-size:25px;}
	.st19{font-size:83px;}
	.st20{font-family:'OpenSans-Light';}
	.st21{fill:#898989;}
	.st22{font-family:'OpenSans-Bold';}
	.st23{font-size:16px;}
	.st24{font-family:'ArialMT';}
	.st25{font-size:29.9151px;}
	.st26{font-size:29.9677px;}
</style>
<title>LABTurisme-Sintesi-Viatgers-Pernoctacions-desembre-2020</title>
<rect x="37.8" y="401.4" class="st0" width="1220" height="426.6"/>
<image style="overflow:visible;enable-background:new    ;" width="264" height="86" xlink:href="CBC1D0D5.png"  transform="matrix(0.7065 0 0 0.7065 389.4941 358.4111)">
</image>
<image style="overflow:visible;enable-background:new    ;" width="176" height="236" xlink:href="305CA650.png"  transform="matrix(1.2834 0 0 1.2834 50.0526 149.2386)">
</image>
<g>
	<g>
		<g>
			<g>
				<g>
					<g>
						<defs>
							<rect id="SVGID_1_" x="99.3" y="526.3" width="460.6" height="303.9"/>
						</defs>
						<clipPath id="SVGID_2_">
							<use xlink:href="#SVGID_1_"  style="overflow:visible;"/>
						</clipPath>
						<g class="st1">
							<text transform="matrix(1 0 0 1 285.0466 600.1179)" class="st2 st3 st4">V</text>
							<text transform="matrix(1 0 0 1 300.9572 600.1179)" class="st2 st3 st4">iatgers</text>
						</g>
					</g>
				</g>
			</g>
		</g>
	</g>
</g>
<g>
	<g>
		<g>
			<g>
				<g>
					<g>
						<defs>
							<rect id="SVGID_3_" x="764.5" y="526.3" width="447.1" height="294.9"/>
						</defs>
						<clipPath id="SVGID_4_">
							<use xlink:href="#SVGID_3_"  style="overflow:visible;"/>
						</clipPath>
						<g class="st5">
							<rect x="907.2" y="571.6" class="st6" width="0" height="35.7"/>
						</g>
					</g>
				</g>
			</g>
		</g>
	</g>
</g>
<g>
	<g>
		<g>
			<g>
				<g>
					<g>
						<defs>
							<rect id="SVGID_5_" x="816.2" y="530.8" width="447.1" height="294.9"/>
						</defs>
						<clipPath id="SVGID_6_">
							<use xlink:href="#SVGID_5_"  style="overflow:visible;"/>
						</clipPath>
						<g class="st7">
							<text transform="matrix(1 0 0 1 964.8737 602.4823)" class="st2 st3 st8">Pernoctacions</text>
						</g>
					</g>
				</g>
			</g>
		</g>
	</g>
</g>
<g>
	<path class="st9" d="M25.2,1015.9h-5.1v4.7h5.7v1.4h-7.4v-13.1h7.1v1.4h-5.4v4.1h5.1V1015.9z"/>
	<path class="st9" d="M27.9,1008.2h1.7v13.8h-1.7V1008.2z"/>
	<path class="st9" d="M37.7,1022l-0.1-1.2h-0.1c-0.7,0.9-1.7,1.4-2.9,1.4c-1.5,0.1-2.8-1-2.9-2.5c0-0.1,0-0.1,0-0.2
		c0-2.3,2-3.5,5.6-3.5v-0.2c0.1-1.1-0.6-2-1.7-2.2c-0.2,0-0.3,0-0.5,0c-0.9,0-1.7,0.2-2.4,0.7l-0.4-1.1c0.9-0.6,2-0.8,3.1-0.8
		c2.9,0,3.6,2,3.6,3.8v3.5c0,0.8,0,1.5,0.2,2.3H37.7z M37.4,1017.2c-1.9,0-4,0.3-4,2.1c-0.1,0.8,0.6,1.6,1.4,1.6c0.1,0,0.2,0,0.2,0
		c1,0,1.9-0.6,2.3-1.6c0.1-0.2,0.1-0.4,0.1-0.5V1017.2z"/>
	<path class="st9" d="M41.7,1022c0-0.6,0.1-1.6,0.1-2.4v-11.4h1.7v5.9l0,0c0.7-1.1,1.9-1.8,3.2-1.7c2.3,0,4,1.9,4,4.8
		c0,3.4-2.1,5-4.2,5c-1.3,0.1-2.5-0.6-3.1-1.8h-0.1l-0.1,1.6L41.7,1022z M43.5,1018.2c0,0.2,0,0.4,0.1,0.6c0.3,1.2,1.3,2,2.6,2
		c1.8,0,2.9-1.5,2.9-3.6c0-1.9-1-3.5-2.8-3.5c-1.2,0-2.3,0.9-2.6,2.1c-0.1,0.2-0.1,0.5-0.1,0.7L43.5,1018.2L43.5,1018.2z"/>
	<path class="st9" d="M61.4,1017.2c0.2,2.5-1.7,4.8-4.2,5c-0.2,0-0.3,0-0.5,0c-2.5,0-4.5-1.9-4.5-4.8c0-3.1,2.1-5,4.7-5
		C59.5,1012.4,61.4,1014.4,61.4,1017.2z M53.9,1017.3c0,2.1,1.2,3.6,2.9,3.6c1.6,0,2.9-1.5,2.9-3.6c0-1.6-0.8-3.6-2.8-3.6
		S53.9,1015.5,53.9,1017.3L53.9,1017.3z"/>
	<path class="st9" d="M63.5,1015.5c0-1.1,0-2.1-0.1-2.9h1.5l0.1,1.8h0.1c0.3-1.2,1.4-2,2.6-2.1c0.2,0,0.3,0,0.5,0.1v1.6
		c-0.2,0-0.4-0.1-0.6-0.1c-1.2,0-2.2,1-2.3,2.2c0,0.3-0.1,0.5-0.1,0.8v5h-1.7C63.5,1021.9,63.5,1015.5,63.5,1015.5z"/>
	<path class="st9" d="M75,1022l-0.1-1.2h-0.1c-0.7,0.9-1.7,1.4-2.9,1.4c-1.5,0.1-2.8-1-2.9-2.5c0-0.1,0-0.1,0-0.2
		c0-2.3,2-3.5,5.6-3.5v-0.2c0.1-1.1-0.6-2-1.7-2.2c-0.2,0-0.3,0-0.5,0c-0.9,0-1.7,0.2-2.4,0.7l-0.4-1.1c0.9-0.6,2-0.8,3.1-0.8
		c2.9,0,3.6,2,3.6,3.8v3.5c0,0.8,0,1.5,0.2,2.3H75z M74.7,1017.2c-1.9,0-4,0.3-4,2.1c-0.1,0.8,0.6,1.6,1.4,1.6c0.1,0,0.2,0,0.2,0
		c1,0,1.9-0.6,2.3-1.6c0.1-0.2,0.1-0.4,0.1-0.5V1017.2z"/>
	<path class="st9" d="M85.8,1021.6c-0.8,0.4-1.8,0.6-2.7,0.5c-2.5,0.1-4.6-1.8-4.7-4.2c0-0.2,0-0.4,0-0.6c-0.1-2.6,1.9-4.9,4.5-5
		c0.2,0,0.3,0,0.5,0c0.8,0,1.6,0.2,2.4,0.5l-0.4,1.3c-0.6-0.3-1.3-0.5-2-0.4c-2,0.1-3.4,1.8-3.3,3.8c0.1,1.8,1.5,3.2,3.3,3.3
		c0.7,0,1.4-0.2,2.1-0.5L85.8,1021.6z"/>
	<path class="st9" d="M89.7,1010c0,0.6-0.5,1.1-1.1,1.1s-1.1-0.5-1.1-1.1s0.4-1.1,1-1.1c0,0,0,0,0.1,0
		C89.2,1008.9,89.7,1009.3,89.7,1010C89.7,1009.9,89.7,1009.9,89.7,1010z M87.8,1022v-9.4h1.7v9.4H87.8z"/>
	<path class="st9" d="M100.9,1017.2c0.2,2.5-1.7,4.8-4.2,5c-0.2,0-0.3,0-0.5,0c-2.5,0-4.5-1.9-4.5-4.8c0-3.1,2.1-5,4.7-5
		S100.9,1014.4,100.9,1017.2z M93.4,1017.3c0,2.1,1.2,3.6,2.9,3.6c1.6,0,2.9-1.5,2.9-3.6c0-1.6-0.8-3.6-2.8-3.6
		C94.3,1013.7,93.4,1015.5,93.4,1017.3L93.4,1017.3z M98.8,1008.5l-2.4,2.8h-1.2l1.7-2.8H98.8z"/>
	<path class="st9" d="M112.7,1015.7c0-1.2,0-2.2-0.1-3.1h1.5l0.1,1.6l0,0c0.7-1.2,2-1.9,3.3-1.8c2.3,0,4,1.9,4,4.8
		c0,3.4-2.1,5-4.3,5c-1.2,0.1-2.3-0.5-2.9-1.5l0,0v5.1h-1.7L112.7,1015.7z M114.4,1018.2c0,0.2,0,0.5,0.1,0.7c0.3,1.2,1.3,2,2.6,2
		c1.8,0,2.9-1.5,2.9-3.6c0-1.9-1-3.5-2.8-3.5c-1.2,0-2.3,0.9-2.6,2.1c-0.1,0.2-0.1,0.5-0.1,0.7L114.4,1018.2z"/>
	<path class="st9" d="M123.8,1015.5c0-1.1,0-2.1-0.1-2.9h1.5l0.1,1.8h0.1c0.3-1.2,1.4-2,2.6-2.1c0.2,0,0.3,0,0.5,0.1v1.6
		c-0.2,0-0.4-0.1-0.6-0.1c-1.2,0-2.2,1-2.3,2.2c0,0.3-0.1,0.5-0.1,0.8v5h-1.7V1015.5z"/>
	<path class="st9" d="M138.4,1017.2c0.2,2.5-1.7,4.8-4.2,5c-0.2,0-0.3,0-0.5,0c-2.5,0-4.5-1.9-4.5-4.8c0-3.1,2.1-5,4.7-5
		C136.6,1012.4,138.4,1014.4,138.4,1017.2z M131,1017.3c0,2.1,1.2,3.6,2.9,3.6c1.6,0,2.9-1.5,2.9-3.6c0-1.6-0.8-3.6-2.8-3.6
		S131,1015.5,131,1017.3L131,1017.3z M133.2,1008.5l1.7,2.8h-1.2l-2.4-2.8H133.2z"/>
	<path class="st9" d="M140.6,1015.7c0-1.2,0-2.2-0.1-3.1h1.5l0.1,1.6l0,0c0.7-1.2,2-1.9,3.3-1.8c2.3,0,4,1.9,4,4.8
		c0,3.4-2.1,5-4.3,5c-1.2,0.1-2.3-0.5-2.9-1.5l0,0v5.1h-1.7L140.6,1015.7z M142.2,1018.2c0,0.2,0,0.5,0.1,0.7c0.3,1.2,1.3,2,2.6,2
		c1.8,0,2.9-1.5,2.9-3.6c0-1.9-1-3.5-2.8-3.5c-1.2,0-2.3,0.9-2.6,2.1c-0.1,0.2-0.1,0.5-0.1,0.7L142.2,1018.2z"/>
	<path class="st9" d="M153.5,1010c0,0.6-0.5,1.1-1.1,1c-0.6,0-1-0.5-1-1c0-0.6,0.4-1.1,1-1.1c0,0,0,0,0.1,0
		C153,1008.9,153.5,1009.3,153.5,1010C153.5,1009.9,153.5,1009.9,153.5,1010z M151.6,1022v-9.4h1.7v9.4H151.6z"/>
	<path class="st9" d="M161.3,1022l-0.1-1.2h-0.1c-0.7,0.9-1.7,1.4-2.9,1.4c-1.5,0.1-2.8-1-2.9-2.5c0-0.1,0-0.1,0-0.2
		c0-2.3,2-3.5,5.6-3.5v-0.2c0.1-1.1-0.6-2-1.7-2.2c-0.2,0-0.3,0-0.5,0c-0.9,0-1.7,0.2-2.4,0.7l-0.4-1.1c0.9-0.6,2-0.8,3.1-0.8
		c2.9,0,3.6,2,3.6,3.8v3.5c0,0.8,0,1.5,0.2,2.3H161.3z M161.1,1017.2c-1.9,0-4,0.3-4,2.1c-0.1,0.8,0.6,1.6,1.4,1.6
		c0.1,0,0.2,0,0.2,0c1,0,1.9-0.6,2.3-1.6c0.1-0.2,0.1-0.4,0.1-0.5V1017.2z"/>
	<path class="st9" d="M183.3,1008.2v11.4c0,0.8,0,1.8,0.1,2.4h-1.5l-0.1-1.6l0,0c-0.6,1.2-1.9,1.9-3.2,1.8c-2.3,0-4-1.9-4-4.8
		c0-3.1,1.9-5,4.2-5c1.1-0.1,2.2,0.5,2.8,1.4l0,0v-5.6L183.3,1008.2L183.3,1008.2z M181.6,1016.4c0-0.2,0-0.5-0.1-0.7
		c-0.3-1.2-1.3-2-2.5-2c-1.8,0-2.8,1.6-2.8,3.6c0,1.9,0.9,3.5,2.8,3.5c1.2,0,2.3-0.9,2.5-2c0.1-0.2,0.1-0.5,0.1-0.7V1016.4z"/>
	<path class="st9" d="M187.1,1017.6c-0.1,1.7,1.1,3.1,2.7,3.3c0.2,0,0.3,0,0.5,0c0.9,0,1.8-0.1,2.6-0.5l0.3,1.2
		c-1,0.4-2.1,0.6-3.1,0.6c-2.4,0.2-4.5-1.7-4.6-4.1c0-0.2,0-0.4,0-0.7c0-2.8,1.7-5.1,4.4-5.1c3.1,0,3.9,2.7,3.9,4.4
		c0,0.3,0,0.5-0.1,0.8L187.1,1017.6z M192.1,1016.4c0-1.1-0.4-2.8-2.4-2.8c-1.5,0.1-2.6,1.3-2.6,2.8H192.1z"/>
	<path class="st9" d="M195.9,1008.2h1.7v13.8h-1.7V1008.2z"/>
	<path class="st9" d="M210.2,1008.9h1.7v11.7h5.6v1.4h-7.3V1008.9z"/>
	<path class="st9" d="M221.5,1017.9l-1.4,4.1h-1.7l4.4-13.1h2l4.5,13.1h-1.8l-1.4-4.1H221.5z M225.8,1016.6l-1.3-3.8
		c-0.3-0.9-0.5-1.6-0.7-2.4l0,0c-0.2,0.8-0.4,1.6-0.7,2.4l-1.3,3.8H225.8z"/>
	<path class="st9" d="M231.2,1009.1c1-0.2,2.1-0.3,3.1-0.3c1.3-0.1,2.5,0.2,3.6,1c0.7,0.5,1.1,1.4,1.1,2.3c0,1.3-0.9,2.5-2.2,2.9
		l0,0c1.6,0.3,2.7,1.7,2.7,3.3c0,1-0.4,1.9-1.1,2.6c-0.9,0.8-2.4,1.2-4.5,1.2c-0.9,0-1.8,0-2.6-0.2L231.2,1009.1z M232.9,1014.4h1.5
		c1.8,0,2.8-0.9,2.8-2.2c0-1.5-1.2-2.1-2.9-2.1c-0.5,0-1,0-1.5,0.1L232.9,1014.4L232.9,1014.4z M232.9,1020.7
		c0.5,0.1,0.9,0.1,1.4,0.1c1.7,0,3.4-0.6,3.4-2.5c0-1.8-1.5-2.5-3.4-2.5h-1.4V1020.7z"/>
	<path class="st9" d="M243.8,1009.9v2.7h2.4v1.3h-2.4v5.1c0,1.2,0.3,1.8,1.3,1.8c0.3,0,0.7,0,1-0.1l0.1,1.3c-0.5,0.2-1,0.2-1.5,0.2
		c-0.7,0-1.4-0.2-1.8-0.7c-0.5-0.7-0.8-1.6-0.7-2.4v-5.1h-1.5v-1.3h1.5v-2.3L243.8,1009.9z"/>
	<path class="st9" d="M256,1019.4c0,1,0,1.8,0.1,2.6h-1.5l-0.1-1.5l0,0c-0.6,1.1-1.8,1.8-3.1,1.7c-1.5,0-3.2-0.8-3.2-4.1v-5.5h1.7
		v5.2c0,1.8,0.5,3,2.1,3c1,0,1.9-0.6,2.3-1.6c0.1-0.3,0.2-0.6,0.2-0.9v-5.8h1.7L256,1019.4z"/>
	<path class="st9" d="M258.8,1015.5c0-1.1,0-2.1-0.1-2.9h1.5l0.1,1.8h0.1c0.3-1.2,1.4-2,2.6-2.1c0.2,0,0.3,0,0.5,0.1v1.6
		c-0.2,0-0.4-0.1-0.6-0.1c-1.2,0-2.2,1-2.3,2.2c0,0.3-0.1,0.5-0.1,0.8v5h-1.7V1015.5z"/>
	<path class="st9" d="M267.1,1010c0,0.6-0.5,1.1-1.1,1.1s-1.1-0.5-1.1-1.1s0.4-1.1,1-1.1c0,0,0,0,0.1,0
		C266.6,1008.9,267.1,1009.3,267.1,1010C267.1,1009.9,267.1,1009.9,267.1,1010z M265.2,1022v-9.4h1.7v9.4H265.2z"/>
	<path class="st9" d="M269.5,1020.3c0.7,0.4,1.5,0.7,2.3,0.7c1.2,0,1.8-0.6,1.8-1.4c0-0.8-0.5-1.3-1.7-1.7c-1.7-0.6-2.5-1.5-2.5-2.7
		c0-1.5,1.2-2.8,3.2-2.8c0.8,0,1.6,0.2,2.3,0.6l-0.4,1.2c-0.6-0.4-1.2-0.5-1.9-0.5c-1,0-1.6,0.6-1.6,1.3c0,0.8,0.6,1.1,1.8,1.6
		c1.6,0.6,2.5,1.4,2.5,2.8c0,1.6-1.3,2.8-3.5,2.8c-0.9,0-1.8-0.2-2.6-0.6L269.5,1020.3z"/>
	<path class="st9" d="M277.5,1015.1c0-1,0-1.8-0.1-2.5h1.5l0.1,1.5h0.1c0.6-1.1,1.7-1.8,3-1.7c1.2,0,2.3,0.7,2.7,1.9l0,0
		c0.3-0.5,0.6-0.9,1-1.2c0.6-0.5,1.3-0.7,2.1-0.7c1.2,0,3.1,0.8,3.1,4.1v5.5h-1.7v-5.3c0-1.8-0.7-2.9-2-2.9c-0.9,0-1.7,0.7-2,1.6
		c-0.1,0.3-0.1,0.6-0.1,0.9v5.8h-1.7v-5.6c0-1.5-0.7-2.6-2-2.6c-1.3,0.2-2.3,1.2-2.3,2.5v5.7h-1.7V1015.1z"/>
	<path class="st9" d="M294.6,1017.6c-0.1,1.7,1.1,3.1,2.7,3.3c0.2,0,0.3,0,0.5,0c0.9,0,1.8-0.1,2.6-0.5l0.3,1.2
		c-1,0.4-2.1,0.6-3.1,0.6c-2.4,0.2-4.5-1.7-4.6-4.1c0-0.2,0-0.4,0-0.7c0-2.8,1.7-5.1,4.4-5.1c3.1,0,3.9,2.7,3.9,4.4
		c0,0.3,0,0.5-0.1,0.8L294.6,1017.6z M299.6,1016.4c0-1.1-0.4-2.8-2.4-2.8c-1.5,0.1-2.6,1.3-2.6,2.8H299.6z"/>
	<path class="st9" d="M303,1025.2v-0.4c0.5-0.2,1-0.5,1.4-0.9s0.6-1,0.6-1.5l-0.1-0.3l-0.1-0.1l-0.8,0.3c-0.7,0-1-0.4-1-1.1
		c0-0.3,0.1-0.6,0.4-0.8c0.2-0.2,0.5-0.3,0.9-0.3c0.5,0,0.9,0.3,1.2,0.7c0.3,0.4,0.4,0.9,0.4,1.3
		C305.8,1023.6,304.9,1024.6,303,1025.2z"/>
	<path class="st9" d="M318.9,1017.6c-0.1,1.7,1.1,3.1,2.7,3.3c0.2,0,0.3,0,0.5,0c0.9,0,1.8-0.1,2.6-0.5l0.3,1.2
		c-1,0.4-2.1,0.6-3.1,0.6c-2.4,0.2-4.5-1.7-4.6-4.1c0-0.2,0-0.4,0-0.7c0-2.8,1.7-5.1,4.4-5.1c3.1,0,3.9,2.7,3.9,4.4
		c0,0.3,0,0.5-0.1,0.8L318.9,1017.6z M323.9,1016.4c0-1.1-0.4-2.8-2.4-2.8c-1.5,0.1-2.6,1.3-2.6,2.8H323.9z"/>
	<path class="st9" d="M327.6,1015.1c0-1,0-1.8-0.1-2.5h1.5l0.1,1.6l0,0c0.6-1.1,1.8-1.8,3.1-1.8c1.3,0,3.3,0.8,3.3,4v5.6h-1.7v-5.4
		c0-1.5-0.6-2.8-2.2-2.8c-1.1,0-2,0.7-2.3,1.7c-0.1,0.3-0.1,0.5-0.1,0.8v5.6h-1.7v-6.8L327.6,1015.1L327.6,1015.1z"/>
	<path class="st9" d="M348,1022c0-0.6,0.1-1.6,0.1-2.4v-11.4h1.7v5.9l0,0c0.7-1.1,1.9-1.8,3.2-1.7c2.3,0,4,1.9,4,4.8
		c0,3.4-2.1,5-4.2,5c-1.3,0.1-2.5-0.6-3.1-1.8h-0.1l-0.1,1.6L348,1022z M349.8,1018.2c0,0.2,0,0.4,0.1,0.6c0.3,1.2,1.3,2,2.6,2
		c1.8,0,2.9-1.5,2.9-3.6c0-1.9-1-3.5-2.8-3.5c-1.2,0-2.3,0.9-2.6,2.1c-0.1,0.2-0.1,0.5-0.1,0.7L349.8,1018.2z"/>
	<path class="st9" d="M364.4,1022l-0.1-1.2h-0.1c-0.7,0.9-1.7,1.4-2.9,1.4c-1.5,0.1-2.8-1-2.9-2.5c0-0.1,0-0.1,0-0.2
		c0-2.3,2-3.5,5.6-3.5v-0.2c0.1-1.1-0.6-2-1.7-2.2c-0.2,0-0.3,0-0.5,0c-0.9,0-1.7,0.2-2.4,0.7l-0.4-1.1c0.9-0.6,2-0.8,3.1-0.8
		c2.9,0,3.6,2,3.6,3.8v3.5c0,0.8,0,1.5,0.2,2.3H364.4z M364.1,1017.2c-1.9,0-4,0.3-4,2.1c-0.1,0.8,0.6,1.6,1.4,1.6
		c0.1,0,0.2,0,0.2,0c1,0,1.9-0.6,2.3-1.6c0.1-0.2,0.1-0.4,0.1-0.5V1017.2z"/>
	<path class="st9" d="M368.3,1020.3c0.7,0.4,1.5,0.7,2.3,0.7c1.2,0,1.8-0.6,1.8-1.4c0-0.8-0.5-1.3-1.7-1.7c-1.7-0.6-2.5-1.5-2.5-2.7
		c0-1.5,1.2-2.8,3.2-2.8c0.8,0,1.6,0.2,2.3,0.6l-0.4,1.2c-0.6-0.4-1.2-0.5-1.9-0.5c-1,0-1.6,0.6-1.6,1.3c0,0.8,0.6,1.1,1.8,1.6
		c1.6,0.6,2.5,1.4,2.5,2.8c0,1.6-1.3,2.8-3.5,2.8c-0.9,0-1.8-0.2-2.6-0.6L368.3,1020.3z"/>
	<path class="st9" d="M377.1,1017.6c-0.1,1.7,1.1,3.1,2.7,3.3c0.2,0,0.3,0,0.5,0c0.9,0,1.8-0.1,2.6-0.5l0.3,1.2
		c-1,0.4-2.1,0.6-3.1,0.6c-2.4,0.2-4.5-1.7-4.6-4.1c0-0.2,0-0.4,0-0.7c0-2.8,1.7-5.1,4.4-5.1c3.1,0,3.9,2.7,3.9,4.4
		c0,0.3,0,0.5-0.1,0.8L377.1,1017.6z M382.2,1016.4c0-1.1-0.4-2.8-2.4-2.8c-1.5,0.1-2.6,1.3-2.6,2.8H382.2z"/>
	<path class="st9" d="M400.8,1022l-0.1-1.2h-0.1c-0.7,0.9-1.7,1.4-2.9,1.4c-1.5,0.1-2.8-1-2.9-2.5c0-0.1,0-0.1,0-0.2
		c0-2.3,2-3.5,5.6-3.5v-0.2c0.1-1.1-0.6-2-1.7-2.2c-0.2,0-0.3,0-0.5,0c-0.9,0-1.7,0.2-2.4,0.7l-0.4-1.1c0.9-0.6,2-0.8,3.1-0.8
		c2.9,0,3.6,2,3.6,3.8v3.5c0,0.8,0,1.5,0.2,2.3H400.8z M400.6,1017.2c-1.9,0-4,0.3-4,2.1c-0.1,0.8,0.6,1.6,1.4,1.6
		c0.1,0,0.2,0,0.2,0c1,0,1.9-0.6,2.3-1.6c0.1-0.2,0.1-0.4,0.1-0.5V1017.2z"/>
	<path class="st9" d="M422.8,1008.2v11.4c0,0.8,0,1.8,0.1,2.4h-1.5l-0.1-1.6l0,0c-0.6,1.2-1.9,1.9-3.2,1.8c-2.3,0-4-1.9-4-4.8
		c0-3.1,1.9-5,4.2-5c1.1-0.1,2.2,0.5,2.8,1.4l0,0v-5.6L422.8,1008.2L422.8,1008.2z M421.1,1016.4c0-0.2,0-0.5-0.1-0.7
		c-0.3-1.2-1.3-2-2.5-2c-1.8,0-2.8,1.6-2.8,3.6c0,1.9,0.9,3.5,2.8,3.5c1.2,0,2.3-0.9,2.5-2c0.1-0.2,0.1-0.5,0.1-0.7V1016.4z"/>
	<path class="st9" d="M430.8,1022l-0.1-1.2h-0.1c-0.7,0.9-1.7,1.4-2.9,1.4c-1.5,0.1-2.8-1-2.9-2.5c0-0.1,0-0.1,0-0.2
		c0-2.3,2-3.5,5.6-3.5v-0.2c0.1-1.1-0.6-2-1.7-2.2c-0.2,0-0.3,0-0.5,0c-0.9,0-1.7,0.2-2.4,0.7l-0.4-1.1c0.9-0.6,2-0.8,3.1-0.8
		c2.9,0,3.6,2,3.6,3.8v3.5c0,0.8,0,1.5,0.2,2.3H430.8z M430.6,1017.2c-1.9,0-4,0.3-4,2.1c-0.1,0.8,0.6,1.6,1.4,1.6
		c0.1,0,0.2,0,0.2,0c1,0,1.9-0.6,2.3-1.6c0.1-0.2,0.1-0.4,0.1-0.5V1017.2z"/>
	<path class="st9" d="M443.1,1008.2v11.4c0,0.8,0,1.8,0.1,2.4h-1.5l-0.1-1.6l0,0c-0.6,1.2-1.9,1.9-3.2,1.8c-2.3,0-4-1.9-4-4.8
		c0-3.1,1.9-5,4.2-5c1.1-0.1,2.2,0.5,2.8,1.4l0,0v-5.6L443.1,1008.2L443.1,1008.2z M441.4,1016.4c0-0.2,0-0.5-0.1-0.7
		c-0.3-1.2-1.3-2-2.5-2c-1.8,0-2.8,1.6-2.8,3.6c0,1.9,0.9,3.5,2.8,3.5c1.2,0,2.3-0.9,2.5-2c0.1-0.2,0.1-0.5,0.1-0.7V1016.4z"/>
	<path class="st9" d="M446.9,1017.6c-0.1,1.7,1.1,3.1,2.7,3.3c0.2,0,0.3,0,0.5,0c0.9,0,1.8-0.1,2.6-0.5l0.3,1.2
		c-1,0.4-2.1,0.6-3.1,0.6c-2.4,0.2-4.5-1.7-4.6-4.1c0-0.2,0-0.4,0-0.7c0-2.8,1.7-5.1,4.4-5.1c3.1,0,3.9,2.7,3.9,4.4
		c0,0.3,0,0.5-0.1,0.8L446.9,1017.6z M451.9,1016.4c0-1.1-0.4-2.8-2.4-2.8c-1.5,0.1-2.6,1.3-2.6,2.8H451.9z"/>
	<path class="st9" d="M455.4,1020.3c0.7,0.4,1.5,0.7,2.3,0.7c1.2,0,1.8-0.6,1.8-1.4c0-0.8-0.5-1.3-1.7-1.7c-1.7-0.6-2.5-1.5-2.5-2.7
		c0-1.5,1.2-2.8,3.2-2.8c0.8,0,1.6,0.2,2.3,0.6l-0.4,1.2c-0.6-0.4-1.2-0.5-1.9-0.5c-1,0-1.6,0.6-1.6,1.3c0,0.8,0.6,1.1,1.8,1.6
		c1.6,0.6,2.5,1.4,2.5,2.8c0,1.6-1.3,2.8-3.5,2.8c-0.9,0-1.8-0.2-2.6-0.6L455.4,1020.3z"/>
	<path class="st9" d="M481.1,1008.2v11.4c0,0.8,0,1.8,0.1,2.4h-1.5l-0.1-1.6l0,0c-0.6,1.2-1.9,1.9-3.2,1.8c-2.3,0-4-1.9-4-4.8
		c0-3.1,1.9-5,4.2-5c1.1-0.1,2.2,0.5,2.8,1.4l0,0v-5.6L481.1,1008.2L481.1,1008.2z M479.4,1016.4c0-0.2,0-0.5-0.1-0.7
		c-0.3-1.2-1.3-2-2.5-2c-1.8,0-2.8,1.6-2.8,3.6c0,1.9,0.9,3.5,2.8,3.5c1.2,0,2.3-0.9,2.5-2c0.1-0.2,0.1-0.5,0.1-0.7V1016.4z"/>
	<path class="st9" d="M484.9,1017.6c-0.1,1.7,1.1,3.1,2.7,3.3c0.2,0,0.3,0,0.5,0c0.9,0,1.8-0.1,2.6-0.5l0.3,1.2
		c-1,0.4-2.1,0.6-3.1,0.6c-2.4,0.2-4.5-1.7-4.6-4.1c0-0.2,0-0.4,0-0.7c0-2.8,1.7-5.1,4.4-5.1c3.1,0,3.9,2.7,3.9,4.4
		c0,0.3,0,0.5-0.1,0.8L484.9,1017.6z M489.9,1016.4c0-1.1-0.4-2.8-2.4-2.8c-1.5,0.1-2.6,1.3-2.6,2.8H489.9z"/>
	<path class="st9" d="M503.4,1008.2h1.7v13.8h-1.7V1008.2z"/>
	<path class="st9" d="M509.2,1008.7l-0.3,4.7h-1l-0.3-4.7H509.2z"/>
	<path class="st9" d="M518.5,1015.9h-5.1v4.7h5.7v1.4h-7.4v-13.1h7.1v1.4h-5.4v4.1h5.1V1015.9z"/>
	<path class="st9" d="M521.2,1015.1c0-1,0-1.8-0.1-2.5h1.5l0.1,1.6l0,0c0.6-1.1,1.8-1.8,3.1-1.8s3.3,0.8,3.3,4v5.6h-1.7v-5.4
		c0-1.5-0.6-2.8-2.2-2.8c-1.1,0-2,0.7-2.3,1.7c-0.1,0.3-0.1,0.5-0.1,0.8v5.6h-1.7L521.2,1015.1z"/>
	<path class="st9" d="M538.3,1020.5L538.3,1020.5c-0.7,1.1-1.9,1.7-3.1,1.7c-2.2,0-4-1.9-4-4.8c0-3.5,2.3-5.1,4.3-5.1
		c1.2-0.1,2.3,0.6,2.9,1.6l0,0l0.1-1.4h1.6c0,0.8-0.1,1.6-0.1,2.6v10.7h-1.7V1020.5z M538.3,1016.4c0-0.2,0-0.5-0.1-0.7
		c-0.3-1.1-1.3-1.9-2.4-1.9c-1.8,0-2.8,1.5-2.8,3.6c0,1.9,0.9,3.5,2.8,3.5c1.1,0,2.1-0.8,2.4-1.9c0.1-0.3,0.1-0.5,0.1-0.8V1016.4z"
		/>
	<path class="st9" d="M550.7,1019.4c0,1,0,1.8,0.1,2.6h-1.5l-0.1-1.5l0,0c-0.6,1.1-1.8,1.8-3.1,1.7c-1.5,0-3.2-0.8-3.2-4.1v-5.5h1.7
		v5.2c0,1.8,0.5,3,2.1,3c1,0,1.9-0.6,2.3-1.6c0.1-0.3,0.2-0.6,0.2-0.9v-5.8h1.7L550.7,1019.4z"/>
	<path class="st9" d="M554.5,1017.6c-0.1,1.7,1.1,3.1,2.7,3.3c0.2,0,0.3,0,0.5,0c0.9,0,1.8-0.1,2.6-0.5l0.3,1.2
		c-1,0.4-2.1,0.6-3.1,0.6c-2.4,0.2-4.5-1.7-4.6-4.1c0-0.2,0-0.4,0-0.7c0-2.8,1.7-5.1,4.4-5.1c3.1,0,3.9,2.7,3.9,4.4
		c0,0.3,0,0.5-0.1,0.8L554.5,1017.6z M559.5,1016.4c0-1.1-0.4-2.8-2.4-2.8c-1.5,0.1-2.6,1.3-2.6,2.8H559.5z"/>
	<path class="st9" d="M563,1020.3c0.7,0.4,1.5,0.7,2.3,0.7c1.2,0,1.8-0.6,1.8-1.4c0-0.8-0.5-1.3-1.7-1.7c-1.7-0.6-2.5-1.5-2.5-2.7
		c0-1.5,1.2-2.8,3.2-2.8c0.8,0,1.6,0.2,2.3,0.6l-0.4,1.2c-0.6-0.4-1.2-0.5-1.9-0.5c-1,0-1.6,0.6-1.6,1.3c0,0.8,0.6,1.1,1.8,1.6
		c1.6,0.6,2.5,1.4,2.5,2.8c0,1.6-1.3,2.8-3.5,2.8c-0.9,0-1.8-0.2-2.6-0.6L563,1020.3z"/>
	<path class="st9" d="M573,1009.9v2.7h2.4v1.3H573v5.1c0,1.2,0.3,1.8,1.3,1.8c0.3,0,0.7,0,1-0.1l0.1,1.3c-0.5,0.2-1,0.2-1.5,0.2
		c-0.7,0-1.4-0.2-1.8-0.7c-0.5-0.7-0.8-1.6-0.7-2.4v-5.1h-1.5v-1.3h1.5v-2.3L573,1009.9z"/>
	<path class="st9" d="M582.6,1022l-0.1-1.2h-0.1c-0.7,0.9-1.7,1.4-2.9,1.4c-1.5,0.1-2.8-1-2.9-2.5c0-0.1,0-0.1,0-0.2
		c0-2.3,2-3.5,5.6-3.5v-0.2c0.1-1.1-0.6-2-1.7-2.2c-0.2,0-0.3,0-0.5,0c-0.9,0-1.7,0.2-2.4,0.7l-0.4-1.1c0.9-0.6,2-0.8,3.1-0.8
		c2.9,0,3.6,2,3.6,3.8v3.5c0,0.8,0,1.5,0.2,2.3H582.6z M582.3,1017.2c-1.9,0-4,0.3-4,2.1c-0.1,0.8,0.6,1.6,1.4,1.6
		c0.1,0,0.2,0,0.2,0c1,0,1.9-0.6,2.3-1.6c0.1-0.2,0.1-0.4,0.1-0.5V1017.2z"/>
	<path class="st9" d="M604.6,1008.2v11.4c0,0.8,0,1.8,0.1,2.4h-1.5l-0.1-1.6l0,0c-0.6,1.2-1.9,1.9-3.2,1.8c-2.3,0-4-1.9-4-4.8
		c0-3.1,1.9-5,4.2-5c1.1-0.1,2.2,0.5,2.8,1.4l0,0v-5.6L604.6,1008.2L604.6,1008.2z M602.8,1016.4c0-0.2,0-0.5-0.1-0.7
		c-0.3-1.2-1.3-2-2.5-2c-1.8,0-2.8,1.6-2.8,3.6c0,1.9,0.9,3.5,2.8,3.5c1.2,0,2.3-0.9,2.5-2c0.1-0.2,0.1-0.5,0.1-0.7V1016.4z"/>
	<path class="st9" d="M608.7,1008.7l-0.3,4.7h-1l-0.3-4.7H608.7z"/>
	<path class="st9" d="M619.4,1017.2c0.2,2.5-1.7,4.8-4.2,5c-0.2,0-0.3,0-0.5,0c-2.5,0-4.5-1.9-4.5-4.8c0-3.1,2.1-5,4.7-5
		C617.6,1012.4,619.4,1014.4,619.4,1017.2z M611.9,1017.3c0,2.1,1.2,3.6,2.9,3.6c1.6,0,2.9-1.5,2.9-3.6c0-1.6-0.8-3.6-2.8-3.6
		S611.9,1015.5,611.9,1017.3L611.9,1017.3z"/>
	<path class="st9" d="M628.2,1021.6c-0.8,0.4-1.8,0.6-2.7,0.5c-2.5,0.1-4.6-1.8-4.7-4.2c0-0.2,0-0.4,0-0.6c-0.1-2.6,1.9-4.9,4.5-5
		c0.2,0,0.3,0,0.5,0c0.8,0,1.6,0.2,2.4,0.5l-0.4,1.3c-0.6-0.3-1.3-0.5-2-0.4c-2,0.1-3.4,1.8-3.3,3.8c0.1,1.8,1.5,3.2,3.3,3.3
		c0.7,0,1.4-0.2,2.1-0.5L628.2,1021.6z"/>
	<path class="st9" d="M638.1,1019.4c0,1,0,1.8,0.1,2.6h-1.5l-0.1-1.5l0,0c-0.6,1.1-1.8,1.8-3.1,1.7c-1.5,0-3.2-0.8-3.2-4.1v-5.5h1.7
		v5.2c0,1.8,0.5,3,2.1,3c1,0,1.9-0.6,2.3-1.6c0.1-0.3,0.2-0.6,0.2-0.9v-5.8h1.7L638.1,1019.4z"/>
	<path class="st9" d="M640.9,1015.7c0-1.2,0-2.2-0.1-3.1h1.5l0.1,1.6l0,0c0.7-1.2,2-1.9,3.3-1.8c2.3,0,4,1.9,4,4.8
		c0,3.4-2.1,5-4.3,5c-1.2,0.1-2.3-0.5-2.9-1.5l0,0v5.1h-1.7L640.9,1015.7z M642.6,1018.2c0,0.2,0,0.5,0.1,0.7c0.3,1.2,1.3,2,2.6,2
		c1.8,0,2.9-1.5,2.9-3.6c0-1.9-1-3.5-2.8-3.5c-1.2,0-2.3,0.9-2.6,2.1c-0.1,0.2-0.1,0.5-0.1,0.7v1.6H642.6z"/>
	<path class="st9" d="M657.2,1022l-0.1-1.2H657c-0.7,0.9-1.7,1.4-2.9,1.4c-1.5,0.1-2.8-1-2.9-2.5c0-0.1,0-0.1,0-0.2
		c0-2.3,2-3.5,5.6-3.5v-0.2c0.1-1.1-0.6-2-1.7-2.2c-0.2,0-0.3,0-0.5,0c-0.9,0-1.7,0.2-2.4,0.7l-0.4-1.1c0.9-0.6,2-0.8,3.1-0.8
		c2.9,0,3.6,2,3.6,3.8v3.5c0,0.8,0,1.5,0.2,2.3H657.2z M656.9,1017.2c-1.9,0-4,0.3-4,2.1c-0.1,0.8,0.6,1.6,1.4,1.6
		c0.1,0,0.2,0,0.2,0c1,0,1.9-0.6,2.3-1.6c0.1-0.2,0.1-0.4,0.1-0.5V1017.2z"/>
	<path class="st9" d="M668,1021.6c-0.8,0.4-1.8,0.6-2.7,0.5c-2.5,0.1-4.6-1.8-4.7-4.2c0-0.2,0-0.4,0-0.6c-0.1-2.6,1.9-4.9,4.5-5
		c0.2,0,0.3,0,0.5,0c0.8,0,1.6,0.2,2.4,0.5l-0.4,1.3c-0.6-0.3-1.3-0.5-2-0.4c-2,0.1-3.4,1.8-3.3,3.8c0.1,1.8,1.5,3.2,3.3,3.3
		c0.7,0,1.4-0.2,2.1-0.5L668,1021.6z"/>
	<path class="st9" d="M671.9,1010c0,0.6-0.5,1.1-1.1,1.1s-1.1-0.5-1.1-1.1l0,0c0-0.6,0.4-1.1,1-1.1c0,0,0,0,0.1,0
		C671.4,1008.9,671.9,1009.3,671.9,1010C671.9,1009.9,671.9,1009.9,671.9,1010z M670,1022v-9.4h1.7v9.4H670z"/>
	<path class="st9" d="M683.1,1017.2c0.2,2.5-1.6,4.8-4.2,5c-0.2,0-0.3,0-0.5,0c-2.5,0-4.5-1.9-4.5-4.8c0-3.1,2.1-5,4.7-5
		S683.1,1014.4,683.1,1017.2z M675.6,1017.3c0,2.1,1.2,3.6,2.9,3.6c1.6,0,2.9-1.5,2.9-3.6c0-1.6-0.8-3.6-2.8-3.6
		C676.5,1013.7,675.6,1015.5,675.6,1017.3L675.6,1017.3z M681,1008.5l-2.4,2.8h-1.2l1.7-2.8H681z"/>
	<path class="st9" d="M695.9,1017.6c-0.1,1.7,1.1,3.1,2.7,3.3c0.2,0,0.3,0,0.5,0c0.9,0,1.8-0.1,2.6-0.5l0.3,1.2
		c-1,0.4-2.1,0.6-3.1,0.6c-2.4,0.2-4.5-1.7-4.6-4.1c0-0.2,0-0.4,0-0.7c0-2.8,1.7-5.1,4.4-5.1c3.1,0,3.9,2.7,3.9,4.4
		c0,0.3,0,0.5-0.1,0.8L695.9,1017.6z M700.9,1016.4c0-1.1-0.4-2.8-2.4-2.8c-1.5,0.1-2.6,1.3-2.6,2.8H700.9z"/>
	<path class="st9" d="M704.6,1015.1c0-1,0-1.8-0.1-2.5h1.5l0.1,1.6l0,0c0.6-1.1,1.8-1.8,3.1-1.8s3.3,0.8,3.3,4v5.6h-1.7v-5.4
		c0-1.5-0.6-2.8-2.2-2.8c-1.1,0-2,0.7-2.3,1.7c-0.1,0.3-0.1,0.5-0.1,0.8v5.6h-1.7L704.6,1015.1z"/>
	<path class="st9" d="M730.3,1022l-0.1-1.2h-0.1c-0.7,0.9-1.7,1.4-2.9,1.4c-1.5,0.1-2.8-1-2.9-2.5c0-0.1,0-0.2,0-0.2
		c0-2.3,2-3.5,5.6-3.5v-0.2c0.1-1.1-0.6-2-1.7-2.2c-0.2,0-0.3,0-0.5,0c-0.9,0-1.7,0.2-2.4,0.7l-0.4-1.1c0.9-0.6,2-0.8,3.1-0.8
		c2.9,0,3.6,2,3.6,3.8v3.5c0,0.8,0,1.5,0.2,2.3H730.3z M730.1,1017.2c-1.9,0-4,0.3-4,2.1c-0.1,0.8,0.6,1.6,1.4,1.6
		c0.1,0,0.2,0,0.2,0c1,0,1.9-0.6,2.3-1.6c0.1-0.2,0.1-0.4,0.1-0.5V1017.2z"/>
	<path class="st9" d="M734.5,1008.2h1.7v13.8h-1.7V1008.2z"/>
	<path class="st9" d="M739,1008.2h1.7v13.8H739V1008.2z"/>
	<path class="st9" d="M752.1,1017.2c0.2,2.5-1.6,4.8-4.2,5c-0.2,0-0.3,0-0.5,0c-2.5,0-4.5-1.9-4.5-4.8c0-3.1,2.1-5,4.7-5
		C750.3,1012.4,752.1,1014.4,752.1,1017.2z M744.7,1017.3c0,2.1,1.2,3.6,2.9,3.6c1.6,0,2.9-1.5,2.9-3.6c0-1.6-0.8-3.6-2.8-3.6
		C745.5,1013.7,744.7,1015.5,744.7,1017.3L744.7,1017.3z"/>
	<path class="st9" d="M756.3,1009.9v2.7h2.4v1.3h-2.4v5.1c0,1.2,0.3,1.8,1.3,1.8c0.3,0,0.7,0,1-0.1l0.1,1.3c-0.5,0.2-1,0.2-1.5,0.2
		c-0.7,0-1.4-0.2-1.8-0.7c-0.5-0.7-0.8-1.6-0.7-2.4v-5.1h-1.5v-1.3h1.5v-2.3L756.3,1009.9z"/>
	<path class="st9" d="M758.4,1024.7c0.7,0,1.4-0.3,1.9-0.7c0.5-0.5,0.6-1.3,0.6-3.5v-7.9h1.7v8.5c0,1.8-0.3,3-1.1,3.9
		c-0.8,0.7-1.8,1.1-2.9,1.1L758.4,1024.7z M762.8,1010c0,0.6-0.4,1-1,1h-0.1c-0.6,0-1-0.4-1-1c0,0,0,0,0-0.1c0-0.6,0.4-1.1,1-1.1
		c0,0,0,0,0.1,0C762.3,1008.9,762.8,1009.3,762.8,1010C762.8,1009.9,762.8,1009.9,762.8,1010L762.8,1010z"/>
	<path class="st9" d="M770.6,1022l-0.1-1.2h-0.1c-0.7,0.9-1.7,1.4-2.9,1.4c-1.5,0.1-2.8-1-2.9-2.5c0-0.1,0-0.2,0-0.2
		c0-2.3,2-3.5,5.6-3.5v-0.2c0.1-1.1-0.6-2-1.7-2.2c-0.2,0-0.3,0-0.5,0c-0.9,0-1.7,0.2-2.4,0.7l-0.4-1.1c0.9-0.6,2-0.8,3.1-0.8
		c2.9,0,3.6,2,3.6,3.8v3.5c0,0.8,0,1.5,0.2,2.3H770.6z M770.4,1017.2c-1.9,0-4,0.3-4,2.1c-0.1,0.8,0.6,1.6,1.4,1.6
		c0.1,0,0.2,0,0.2,0c1,0,1.9-0.6,2.3-1.6c0.1-0.2,0.1-0.4,0.1-0.5V1017.2z"/>
	<path class="st9" d="M774.8,1015.1c0-1,0-1.8-0.1-2.5h1.5l0.1,1.5h0.1c0.6-1.1,1.7-1.8,3-1.7c1.2,0,2.3,0.7,2.7,1.9l0,0
		c0.3-0.5,0.6-0.9,1-1.2c0.6-0.5,1.3-0.7,2.1-0.7c1.2,0,3.1,0.8,3.1,4.1v5.5h-1.7v-5.3c0-1.8-0.7-2.9-2-2.9c-0.9,0-1.7,0.7-2,1.6
		c-0.1,0.3-0.1,0.6-0.1,0.9v5.8h-1.7v-5.6c0-1.5-0.7-2.6-2-2.6c-1,0.1-1.8,0.7-2.1,1.7c-0.1,0.3-0.1,0.6-0.1,0.8v5.7h-1.7
		L774.8,1015.1z"/>
	<path class="st9" d="M791.9,1017.6c-0.1,1.7,1.1,3.1,2.7,3.3c0.2,0,0.3,0,0.5,0c0.9,0,1.8-0.1,2.6-0.5l0.3,1.2
		c-1,0.4-2.1,0.6-3.1,0.6c-2.4,0.2-4.5-1.7-4.6-4.1c0-0.2,0-0.4,0-0.7c0-2.8,1.7-5.1,4.4-5.1c3.1,0,3.9,2.7,3.9,4.4
		c0,0.3,0,0.5-0.1,0.8L791.9,1017.6z M796.9,1016.4c0-1.1-0.4-2.8-2.4-2.8c-1.5,0.1-2.6,1.3-2.6,2.8H796.9z"/>
	<path class="st9" d="M800.7,1015.1c0-1,0-1.8-0.1-2.5h1.5l0.1,1.6l0,0c0.6-1.1,1.8-1.8,3.1-1.8s3.3,0.8,3.3,4v5.6h-1.7v-5.4
		c0-1.5-0.6-2.8-2.2-2.8c-1.1,0-2,0.7-2.3,1.7c-0.1,0.3-0.1,0.5-0.1,0.8v5.6h-1.7L800.7,1015.1z"/>
	<path class="st9" d="M813.4,1009.9v2.7h2.4v1.3h-2.4v5.1c0,1.2,0.3,1.8,1.3,1.8c0.3,0,0.7,0,1-0.1l0.1,1.3c-0.5,0.2-1,0.2-1.5,0.2
		c-0.7,0-1.4-0.2-1.8-0.7c-0.5-0.7-0.8-1.6-0.7-2.4v-5.1h-1.5v-1.3h1.5v-2.3L813.4,1009.9z"/>
	<path class="st9" d="M817.5,1020.3c0.7,0.4,1.5,0.7,2.3,0.7c1.2,0,1.8-0.6,1.8-1.4c0-0.8-0.5-1.3-1.7-1.7c-1.7-0.6-2.5-1.5-2.5-2.7
		c0-1.5,1.2-2.8,3.2-2.8c0.8,0,1.6,0.2,2.3,0.6l-0.4,1.2c-0.6-0.4-1.2-0.5-1.9-0.5c-1,0-1.6,0.6-1.6,1.3c0,0.8,0.6,1.1,1.8,1.6
		c1.6,0.6,2.5,1.4,2.5,2.8c0,1.6-1.3,2.8-3.5,2.8c-0.9,0-1.8-0.2-2.6-0.6L817.5,1020.3z"/>
	<path class="st9" d="M843.3,1008.2v11.4c0,0.8,0,1.8,0.1,2.4h-1.5l-0.1-1.6l0,0c-0.6,1.2-1.9,1.9-3.2,1.8c-2.3,0-4-1.9-4-4.8
		c0-3.1,1.9-5,4.2-5c1.1-0.1,2.2,0.5,2.8,1.4l0,0v-5.6L843.3,1008.2L843.3,1008.2z M841.6,1016.4c0-0.2,0-0.5-0.1-0.7
		c-0.3-1.2-1.3-2-2.5-2c-1.8,0-2.8,1.6-2.8,3.6c0,1.9,0.9,3.5,2.8,3.5c1.2,0,2.3-0.9,2.5-2c0.1-0.2,0.1-0.5,0.1-0.7V1016.4z"/>
	<path class="st9" d="M847.1,1017.6c-0.1,1.7,1.1,3.1,2.7,3.3c0.2,0,0.3,0,0.5,0c0.9,0,1.8-0.1,2.6-0.5l0.3,1.2
		c-1,0.4-2.1,0.6-3.1,0.6c-2.4,0.2-4.5-1.7-4.6-4.1c0-0.2,0-0.4,0-0.7c0-2.8,1.7-5.1,4.4-5.1c3.1,0,3.9,2.7,3.9,4.4
		c0,0.3,0,0.5-0.1,0.8L847.1,1017.6z M852.1,1016.4c0-1.1-0.4-2.8-2.4-2.8c-1.5,0.1-2.6,1.3-2.6,2.8H852.1z"/>
	<path class="st9" d="M865.5,1008.2h1.7v13.8h-1.7V1008.2z"/>
	<path class="st9" d="M871.4,1008.7l-0.3,4.7h-1l-0.3-4.7H871.4z"/>
	<path class="st9" d="M875.5,1008.9v13.1h-1.7v-13.1H875.5z"/>
	<path class="st9" d="M878.5,1022v-13.1h1.8l4.2,6.6c0.9,1.4,1.7,2.8,2.3,4.3l0,0c-0.2-1.7-0.2-3.3-0.2-5.4v-5.5h1.6v13.1h-1.7
		l-4.2-6.6c-0.9-1.4-1.7-2.9-2.4-4.4h-0.1c0.1,1.6,0.1,3.2,0.1,5.4v5.6L878.5,1022z"/>
	<path class="st9" d="M898,1015.9h-5.1v4.7h5.7v1.4h-7.4v-13.1h7.1v1.4h-5.4v4.1h5.1L898,1015.9L898,1015.9z"/>
	<path class="st9" d="M901,1020.5c0.4-0.4,1.1-0.4,1.5,0c0.2,0.2,0.3,0.5,0.3,0.7c0,0.3-0.1,0.6-0.3,0.8c-0.4,0.4-1,0.4-1.4,0l0,0
		c-0.2-0.2-0.3-0.5-0.3-0.7C900.7,1020.9,900.8,1020.7,901,1020.5z"/>
</g>
<text transform="matrix(1 0 0 1 559.8112 616.8639)" class="st10 st11 st12">Estrangers</text>
<text transform="matrix(1 0 0 1 559.8112 653.15)" class="st10 st11 st12">Domèstics</text>
<path class="st13" d="M698.1,634.6h32.3c5.8,0,10.4,4.7,10.4,10.4l0,0c0,5.8-4.7,10.4-10.4,10.4h-32.3c-5.8,0-10.4-4.7-10.4-10.4
	l0,0C687.6,639.3,692.3,634.6,698.1,634.6z"/>
<path class="st10" d="M698.1,600.8h32.3c5.8,0,10.4,4.7,10.4,10.4l0,0c0,5.8-4.7,10.4-10.4,10.4h-32.3c-5.8,0-10.4-4.7-10.4-10.4
	l0,0C687.6,605.5,692.3,600.8,698.1,600.8z"/>
<rect x="85.8" y="358.4" class="st14" width="1154" height="110"/>
<text transform="matrix(1 0 0 1 132.0908 401.3918)" class="st2 st15 st16">nc</text>
<text transform="matrix(1 0 0 1 100.6001 473.2187)" class="st2 st15 st17">Viatgers</text>
<text transform="matrix(1 0 0 1 85.8002 513.2241)" class="st2 st15 st16">264.410</text>
<text transform="matrix(1 0 0 1 621.7583 401.392)" class="st2 st15 st16">nc</text>
<text transform="matrix(1 0 0 1 565.2195 473.2187)" class="st2 st15 st18">Pernoctacions</text>
<text transform="matrix(1 0 0 1 586.2351 509.9861)" class="st2 st15 st16">654.441</text>
<text transform="matrix(1 0 0 1 1122.7468 401.3917)" class="st2 st15 st16">nc</text>
<text transform="matrix(1 0 0 1 943.2298 475.07)" class="st2 st15 st18">Establiments allotjaments oberts</text>
<text transform="matrix(1 0 0 1 1114.7722 511.7172)" class="st2 st15 st16">985</text>
<text transform="matrix(1 0 0 1 510.5226 111.9305)" class="st2 st15 st19">Síntesi</text>
<text transform="matrix(1 0 0 1 85.8001 429.3853)" class="st2 st20 st12">-54,7% (2019)</text>
<text transform="matrix(1 0 0 1 576.0101 429.3855)" class="st2 st20 st12">-64,9% (2019)</text>
<text transform="matrix(1 0 0 1 1075.3259 429.3851)" class="st2 st20 st12">-17,4% (2019)</text>
<image style="overflow:visible;enable-background:new    ;" width="170" height="139" xlink:href="305CA657.png"  transform="matrix(1.2752 0 0 1.2752 537.8019 181.2534)">
</image>
<image style="overflow:visible;enable-background:new    ;" width="170" height="139" xlink:href="305CA651.png"  transform="matrix(1.2752 0 0 1.2752 1039.8074 181.2534)">
</image>
<rect x="14.7" y="1031.1" class="st0" width="1225.2" height="17.3"/>
<text transform="matrix(1 0 0 1 14.7119 1043.2827)" class="st21 st22 st23">Nota: Les variacions 21/20 no són calculables (nc) degut a que les dades de 2020 són “0” pel tancament forçós arrel de la crisi sanitària de la COVID-19.</text>
<g transform="translate(10,45.7)">
	<path id="point-0-0_1_" class="st13" d="M321.5,588.8c94.6,0,171.2,76.6,171.2,171.2s-76.6,171.2-171.2,171.2
		S150.3,854.6,150.3,760c0-16.2,2.3-32.2,6.8-47.8l106.9,31c-9.2,31.8,9,65,40.8,74.3c31.8,9.2,65-9,74.3-40.8
		c9.2-31.8-9-65-40.8-74.3c-5.4-1.6-11.1-2.4-16.7-2.4L321.5,588.8L321.5,588.8z"/>
	<path id="point-0-1_1_" class="st2" d="M157.1,712.2c21.2-73.1,88.2-123.4,164.4-123.4v111.3c-26.7,0-50.1,17.6-57.5,43.2
		L157.1,712.2z"/>
	<g transform="translate(121.54234557957983,97.45152787509568)" pointer-events="none">
		<g>
			<text transform="matrix(1 0 0 1 220.9578 758.5596)" class="st14 st24 st25">79,5%</text>
		</g>
	</g>
	<g transform="translate(70.24238342432642,29.126393267482456)" pointer-events="none">
		<g>
			<text transform="matrix(1 0 0 1 138.1577 645.3739)" class="st14 st24 st25">20,5%</text>
		</g>
	</g>
</g>
<g transform="translate(425.78472900390625,45.7)">
	<path id="point-1-0_1_" class="st13" d="M614,599.3c94.6,0,171.2,76.6,171.2,171.2S708.6,941.7,614,941.7s-171.2-76.6-171.2-171.2
		c0-12.9,1.5-25.8,4.4-38.4l108.4,25c-7.4,32.2,12.7,64.4,45,71.8s64.4-12.7,71.8-45c7.4-32.2-12.7-64.4-45-71.8
		c-4.4-1-8.9-1.5-13.4-1.5L614,599.3L614,599.3z"/>
	<path id="point-1-1_1_" class="st2" d="M447.2,732.1c17.9-77.7,87.1-132.8,166.8-132.8v111.3c-27.9,0-52.1,19.3-58.4,46.5
		L447.2,732.1z"/>
	<g transform="translate(122.49788861837825,96.71273385558544)" pointer-events="none">
		<g>
			<text transform="matrix(1 0 0 1 510.1969 775.7206)" class="st14 st24 st26">78,6%</text>
		</g>
	</g>
	<g transform="translate(69.286840385528,29.865187286992672)" pointer-events="none">
		<g>
			<text transform="matrix(1 0 0 1 434.4445 659.4379)" class="st14 st24 st26">21,4%</text>
		</g>
	</g>
</g>
</svg>
