<?xml version="1.0" encoding="utf-8"?>
<!-- Generator: Adobe Illustrator 24.0.1, SVG Export Plug-In . SVG Version: 6.00 Build 0)  -->
<svg version="1.1" id="graphic" xmlns="http://www.w3.org/2000/svg" xmlns:xlink="http://www.w3.org/1999/xlink" x="0px" y="0px"
	 viewBox="0 0 562.5 668.4" style="enable-background:new 0 0 562.5 668.4;" xml:space="preserve">
<style type="text/css">
	.st0{fill:#003366;}
	.st1{font-family:'OpenSans-Bold';}
	.st2{font-size:11px;}
	.st3{fill:#E3F1F3;}
	.st4{fill:#E0F3F4;}
	.st5{fill:#E5F8F8;}
	.st6{fill:#E9F9F9;}
	.st7{fill:#CBF4F4;}
	.st8{font-family:'OpenSans-SemiBold';}
	.st9{font-size:8px;}
	.st10{fill:#6685A3;}
	.st11{font-size:9px;}
	.st12{font-size:14px;}
	.st13{fill:#FFFFFF;stroke:#82B0D9;stroke-width:2;stroke-dasharray:2,2,2,2,2,2;}
	.st14{font-family:'OpenSans-Light';}
	.st15{font-size:7px;}
	.st16{fill:#3D849F;stroke:#FFFFFF;stroke-width:0.2589;}
	.st17{fill:#003366;stroke:#FFFFFF;stroke-width:0.2589;}
	.st18{fill:#83E2E2;stroke:#FFFFFF;stroke-width:0.2589;}
	.st19{fill:#58A9BA;stroke:#FFFFFF;stroke-width:0.2589;}
	.st20{fill:#3F88A2;stroke:#FFFFFF;stroke-width:0.2589;}
	.st21{fill:url(#SVGID_1_);stroke:#FFFFFF;stroke-width:0.2147;}
</style>
<g>
	<text transform="matrix(1 0 0 1 345.2759 161.0653)" class="st0 st1 st2">GIRONA</text>
</g>
<text transform="matrix(1 0 0 1 47.6 205.0958)" class="st0 st1 st2">LLEIDA</text>
<path class="st3" d="M208.3,364.1c1.4,1.6,0.3,1.8-1,1.9C206.4,364.9,208.2,364.9,208.3,364.1z"/>
<path class="st4" d="M250.9,450.3c-0.1-0.9-0.5-1.8,0.5-2.4c0.5,0.3,0.9-1.6,1.3,0c0.1,0.5,1.1,1.6-0.4,1.6
	C251.5,449.3,251.4,450,250.9,450.3z"/>
<path class="st5" d="M355.8,264.5c0-0.2,0-0.5-0.1-0.7c0.8-1.7,2.2-1,3.5-1.2C358.4,263.8,356.7,263.3,355.8,264.5z"/>
<path class="st6" d="M364.9,262.5c0.9,0.5,1,1.4,1.2,2.2C364.6,264.8,364.4,263.8,364.9,262.5z"/>
<path class="st7" d="M351.1,259.7V259c0.9,0.4,2.1-0.5,2.8,0.7H351.1z"/>
<text transform="matrix(1 0 0 1 47.6001 220.8411)" class="st0 st8 st9">Ocupació:  </text>
<text transform="matrix(1 0 0 1 47.6001 230.4411)" class="st0 st8 st9">28,6% (+3,4 pp)</text>
<text transform="matrix(1 0 0 1 74.614 227.4455)" class="st10 st8 st9">  </text>
<text transform="matrix(1 0 0 1 165.4442 101.354)" class="st10 st8 st11">Entre parèntesi, variació interanual respecte a l’any 2019 </text>
<g>
	<text transform="matrix(1 0 0 1 47.6005 244.6703)" class="st0 st8 st9">Viatgers: </text>
	<text transform="matrix(1 0 0 1 47.6005 254.2703)" class="st0 st8 st9">52.758 (-38,5%) </text>
</g>
<g>
	<text transform="matrix(1 0 0 1 47.6001 266.8463)" class="st0 st8 st9">Pernoctacions: </text>
	<text transform="matrix(1 0 0 1 47.6001 276.4463)" class="st0 st8 st9">102.476 (-30,2%) </text>
	<text transform="matrix(1 0 0 1 104.6001 276.4463)" class="st10 st8 st9"> </text>
</g>
<text transform="matrix(1 0 0 1 345.2757 175.6582)" class="st0 st8 st9">Ocupació:  33,7% (-26,5 pp)   </text>
<text transform="matrix(1 0 0 1 345.2758 189.3174)" class="st0 st8 st9">Viatgers: 288.825 (-42,9%)</text>
<text transform="matrix(1 0 0 1 345.2764 201.1968)" class="st0 st8 st9">Pernoctacions: 612.332 (-62,5%)</text>
<g>
	<text transform="matrix(1 0 0 1 394.4001 425.3027)" class="st0 st1 st2">ENTORN DE BARCELONA</text>
</g>
<text transform="matrix(1 0 0 1 394.3996 441.8717)" class="st0 st8 st9">Ocupació: 31,7% (-38,0 pp) </text>
<text transform="matrix(1 0 0 1 394.3997 455.5309)" class="st0 st8 st9">Viatgers: 176.423 (-60,8%)</text>
<text transform="matrix(1 0 0 1 394.3998 469.7142)" class="st0 st8 st9">Pernoctacions: 317.441 (-78,0%)</text>
<g>
	<text transform="matrix(1 0 0 1 175.812 535.6613)" class="st0 st1 st2">TARRAGONA</text>
</g>
<text transform="matrix(1 0 0 1 175.9 551.9716)" class="st0 st8 st9">Ocupació: 38,1% (-13,1 pp) </text>
<text transform="matrix(1 0 0 1 175.9 565.6306)" class="st0 st8 st9">Viatgers: 232.330 (-46,5%) </text>
<text transform="matrix(1 0 0 1 175.9003 579.814)" class="st0 st8 st9">Pernoctacions: 498.414 (-68,8%) </text>
<text transform="matrix(1 0 0 1 208.9619 32.3976)" class="st0 st8 st12">Establiments hotelers</text>
<g>
	<text transform="matrix(1 0 0 1 394.3999 516.8963)" class="st0 st1 st2">BARCELONÈS</text>
</g>
<text transform="matrix(1 0 0 1 394.4005 532.9103)" class="st0 st8 st9">Ocupació: 33,5% (-42,9 pp) </text>
<text transform="matrix(1 0 0 1 394.4006 546.5694)" class="st0 st8 st9">Viatgers: 242.508 (-70,6%) </text>
<text transform="matrix(1 0 0 1 394.4006 560.7527)" class="st0 st8 st9">Pernoctacions: 576.488 (-71,7%) </text>
<polyline class="st13" points="352.8,441 352.8,522.5 385,522.5 "/>
<text transform="matrix(1 0 0 1 58.1856 49.2039)" class="st10 st14 st11">Girona és la província que rep un major numero de turistes en hotels, seguida de la comarca del Barcelonès.  </text>
<text transform="matrix(1 0 0 1 47.8856 60.0039)" class="st10 st14 st11">Tot i que totes les províncies catalanes presenten resultats negatius respecte al juny de 2019, la província de Lleida  </text>
<text transform="matrix(1 0 0 1 47.0856 70.8039)" class="st10 st14 st11">és qui obté resultats menys negatius en els tres indicadors, sobretot en ocupació, tal i com passava al mes anterior.  </text>
<text transform="matrix(1 0 0 1 96.4856 81.6039)" class="st10 st14 st11">L’Entorn de Barcelona junt amb el Barcelonès registren els decreixements més significatius.</text>
<text transform="matrix(1 0 0 1 20.5957 640.1839)" class="st10 st8 st15">Font: Elaboració pròpia del LABTurisme en base a dades de l’Enquesta d’ocupació en allotjaments de l’INE</text>
<text transform="matrix(1 0 0 1 20.5959 649.8676)" class="st10 st8 st15">Nota: Les variacions 21/20 no s’han calculat (nc) per la manca de dades representatives de 2020 arrel de la crisi sanitària de la COVID-19.</text>
<g id="regions-layer">
	<path class="st16" d="M323.5,286.5v-0.3l0.3-1l2.8-1.3l1.4,1.6l-1.7,0.6l-0.3,2.4l-1.7,0.3L323.5,286.5z M318.6,212.2l1-2.7h2.1
		l1,1.6l-1.7,3.3l4.1,4.3l-8.3-1l0.3-5.3L318.6,212.2z M520.9,251.3l-0.3-0.3l0.3-0.3h0.3v0.6H520.9z M510.3,301.8l-0.3-0.3
		l-0.3-0.3v-0.3l1-0.3L510.3,301.8z M373.9,340.4l-0.6-7.5l1.7-1.6l4.8,1l1,2.3l1.4-0.3l3.4-4.2l3.8,0.9l0.4-0.1l1.4-0.2l5.4-4.6
		l-0.1-1.1l-2.4-1.6l-0.3-0.3l-3.1-0.3l0.3-2.7l-2.1-2l0.8-3.5l6.2,0.6l2.1-2.9l-2.8-1.7l4.5-1.8l-0.9-2.3l0.2-1.6l-2.3-4.7l0.2-1.4
		l0.8-1.9h-0.3v0.3h-0.3l-0.7-1.6l-2.8-0.3l-1.7,0.3l-3.4,2.7l-3.1-2.4l-2.1-4l0.7-2.4h-3l-0.7-2.4l-2.8-0.6v-0.3h-1.7l-3.8,1.3
		h-0.3l-3.4,2.4l1-3.7V286l-1-2l-2.4-1.6l-1-0.3v-0.3l-2.8,1l-2.8-1.3l-2.1,0.3l-1,0.3l-0.3,0.3h-0.3l-0.7,1.6l-2.4,1.6l-0.7-2.4
		l-6.5,0.6l-2.4,3.3l-4.1-2l-1.4-4l-4.8,1.6l-3.4-1.3l-1-2l-4.1,0.6v-1l-2.1-5.7l-3.8,0.6l-0.4-4.3l6.5,1.3l-1.4,0.3l1,1.6l-1.4,2.4
		l1.4,2l2.4-0.3l1.7-2.7l4.5-0.3l0.3-3l-1.7-0.3l-0.7-5.3V265l-2.8,1.3l-1.7-3l1.4-2V261l0.3-2.4l1-1v-0.3l2.7-4V253l2.4-2.4l-7.9-4
		l-5.2,2.7l-4.8-3.6l-1.4,1.3l-0.3-1.3l-5.9-1.6l-9.3,3.6l-1-10l3.1-3l-4.1-2.7l-3.1,2.7l-1.4-1.6l1.4-8.3l-2.1-2.7l-3.8,0.3
		l-5.8-2.4l-1.4-9.6l1-1l14.4,1l10,7.9l4.8,0.3l2.4-1.6l0.7,5.3l2.8,1l0.7,8.6l3.8,4.6l4.1,2.4l2.4-2l8.3-1l1-2.7l3.4-1.3v-2.7
		l3.4-4.3l2.7-1.3l7.9,1l7.6-4.3l6.2,3.3l2.4-1.3l8.3,5.7l10.3,1.6l0.4,4l2.8,0.6l3.8,6l3.4-0.3l3.4,2h2.8l1.7-4.3l2.7-0.6l15.2,3.6
		l1-3l-2.1-1.6l-1.7-5.3h3.1l0.7-3.6l10.3-4l5.2,2.7l3.4-1.6l2.4-4l1.7,0.3l2-4.3l3.1,1l1-2.7l2.8,1.6l5.8,0.3l1-3.3l2.7-1.3l2.8,3
		l4.5-1.6l2.8,1.6l4.1-1.6l2.4,5.7l4.5,4.3l5.5-2.4l7.9,0.3l-0.3,0.6l-1.7,0.6l1,0.6l0.3,0.3v0.3v0.3v0.3v0.3l-0.3,0.6h-0.3v0.3v0.3
		h-0.3l-1,1.3l1.4,0.6v0.3l-0.3,0.3h-0.3l-1,1.3h0.3v0.3h1.4h0.3v0.3l-1.7,2l0.4,1h0.3l1,0.6v0.3v0.3v0.3H501l-0.3,0.3l0.3,0.3
		l1,1.3l0.7,0.3l0.3,0.3h0.7l0.7,0.6l-0.3,1l0.7,0.6l0.3,0.6l1.4,0.6l0.7-2.7l1,0.3l0.7-0.6h0.3h2.4l0.7,1v1h0.3v0.3l1.4,1.3
		l1.4-0.6h0.3v-0.3v-0.6l1.4,0.3l1,0.3h0.3v0.6l0.7,0.3h0.3l1.7,0.6v0.3h0.3h0.7h0.3l0.7,1.3v-1l0.3,0.3l1,0.3l0.3,0.3v0.3L524,244
		v0.3h-0.3l-0.3-0.3l-0.3,0.6h-0.3l-1.4,1.3v0.3l-1-0.3h-0.3l-0.3,0.3l0.3,0.3h0.3v0.3v0.3l-0.3,0.3l-0.7,1.3h1l0.3,0.3h0.3v0.3v0.6
		v0.3l-1,0.3h-0.3h-0.3l-1.4-1.3l0.4,2.4l0.3,0.6l-0.3,4.3l-3.8,0.3l1.4,2.7v0.3l-3.1-2.7h-2.4l0.4,1l-0.3,0.3l-1,2l-3.5-2l-2.8-0.6
		l-1.1-3.6h-2.4l-5.1,5.7l-2,6.3l1.8,14.3h0.3v0.6v0.3v0.3l1.7,0.6v0.3l0.4,2l2.8-0.3l1,0.3l0.7,0.3l1.4,0.3l-0.7,1.6l1,0.3l1,0.3
		v0.3h0.3l1.4,3l1.4,2.4l0.7,1.6v0.3v0.3l0.3,0.6v0.6v0.3h-0.3v0.3l-1.7,0.3l-0.6,7l2.5,9h1.4v0.6h0.3l0.7,0.3v0.3v0.3h0.3h0.3v0.3
		v1l0.4,1v-0.6h0.3l-0.3,0.6v0.3h-0.3v0.3v0.3l-0.3,1v0.3h-0.2v0.3l-0.3,0.3h-0.3l-0.3,0.3v0.6h-0.3v0.3l-0.3,0.3h0.3l0.3,0.3
		l-0.3,1l0.3,0.6v0.3h-0.3l0.3,0.6h-0.3v0.6l-1.4,1l0.4,1h-0.3v0.3h0.3v0.3v0.3v0.3l-0.7,0.3v0.3v0.3v0.3h-0.3l-0.7,0.6h-0.7h-0.4
		l0.3,0.3l-0.3,0.3l-0.3,0.3h-0.3h-0.7v0.3v0.3v0.3v0.3h-0.3l-0.3,0.3v0.3l0.3,0.3l-0.3,0.6v0.3v0.3v0.3l-1,1h-0.3h-0.3l-0.3,0.3
		h-0.3v0.3l-1.4-0.3h-0.3l-0.7,0.6l-0.7,0.6v1.3h-0.3h-0.3l-1.4,1.6l-2.4-1.6l-3.1,2.4v0.3v0.3v0.3h-0.3l-0.7,1h-0.3v0.3h-0.3v0.3
		h-0.3v0.3h-0.3l-2.7,6v0.3l-0.3,1h-0.3h-1.4v0.3v0.3l0.3,0.3l-0.7,0.6l-0.3,0.3h-1.7l0.4,1v0.3h-0.7l-3.8,0.6v0.3l-0.3,0.3l-2.8,1
		l-0.3,0.3l-0.7,0.3v0.3v0.3h-0.7l-0.7,1.3l-0.3,0.3l-0.7,1h-0.3l-0.7,2l-0.7,0.3l-0.7,0.6h-0.3l-0.3,1l-4.1,2.7l-2.4,1h-0.3
		l-1.4,0.3l-2.4,0.3v0.3h-0.7h-0.7l-2.4,0.6l-0.3,0.3h-0.3l-0.3,0.3l-1.7,0.3h-1.4l-0.3,0.3h-0.3l-0.7,1.3h-0.3l-1,1v0.3l-0.7,0.3
		l-1.7,0.6l-2.1,4l-3.1-5.7l2.4-4.3l-0.7-5.3v1.2l0.6-1.3l-12.3-1.3l-2.1-0.6v1.3l-3.8-1.6l-2.4,0.6l-1.7,2.6l-14.1,1.9l-3.1-7.8
		l-7.3-3.6l0.3-2.3l-2.4,1l-2.2-1.2l-0.9-2.6l-12.3-0.7L373.9,340.4z"/>
	<path class="st17" d="M94.4,606.7l-12.1-5.3l-0.7-3.6l1.7-2.6l-5.9-3l-0.3-2l-10.1-1l-8.7-3.9l-2.4-3.9l0.4-2.6l3.8-5.2l-4.8-4.3
		l-3.8,1l-1.7-6.2l-4.2,1.6l-4.2-1.6l-1-2l-0.7-1.3l2.4,1.6v-2.9l2.1,1l3.5-3.6l2.4,0.3l1.4-4.6l6.3-6.9l-2.8-3.9l-0.3-1l-0.3-5.6
		l-2.4-2l8.4-18h-1.7v-2.9l-2.1-2.6l1-1l-2.4-1.3l0.4-1.6l2.8-0.3l-2.8-1l-2.1-2.9l-2.4,1.3v-2.6l-2.4,0.3l2.1-1.3l-1.7-1.6l0.4-2.3
		l-0.7-2.6h-2.4l1.4-6.5l-1.4-1.3l3.1-2l-1-0.7l5.2,1.3l0.7-4.2l3.5,0.3l4.5-2.9l2.1-11.1l3.5-2.6l2.8,1.3l0.7-2.3h2.8l-1-2.6
		l1.8-5.9l7.3,0.7l0.4-9.1l4.2-2.9l6.5,9.1H97l4.2-7.5l4.1,1.3l3.4,5.5l3.5,0.3l5.9-2.9l0.7-0.7h0.3h0.7l11.8-1.6l1.7-3.6l2.4,0.7h1
		h1v0.3l3.8,0.7l0.7-1.3l0.3-1l0.7-3.9l1.7-1l3.8,4.9l13.5-2.9l2.1-0.7l-0.3-2.3l2.8-4.9l1.7,0.7l1.4-3.3l4.2-1l2.8-5.5l1.4-1.3
		l0.3-0.3l2.1-2l0.7-1l-2.1-1.3l-3.8-2.9l1.4-0.7l-1-3.6l10.4,5.5v1.3l11.1-3.9l-2.4-5.2l1.7-3.6l-1.7-1l1.4,0.7l-0.7-1.6l6.9-2
		l0.4-3.6l4.8-0.3l8.6-0.3l15.5,2.6l-1.7-3.6l4.5-1.3l4.8,2.6l-3.5,2.6l0.3,1.3l2.1-0.6l0.3,3.3l-6.2,0.3l-1.7,4.6l7.6,3.6l0.7,1.6
		h3.5l1.7,3.3h0.3l-2.8,5.2l0.7,1.6l2.8,0.3l-2.4,1.3l1,1.6l1,4.2l-2.4,3.6l5.2-2.6l4.8,2l2.1,3.3h2.8l1,2.3h0.3l-3.1,2.6l2.1,5.5
		l3.5,1.3l-0.7,3.3l3.5,2l0.3-1.6l3.5-0.7l-1.4,0.3l-1,8.1l-8-1.3l1,3.6l7.3,3.9l2.4-2.3l1,4.6l-0.3,3.3l-20.4,3.6l-6.9,2.3
		l-11.1,7.2l-5.2,0.3l-10,0.3l-7.3,3.9l-3.5,4.2l3.5-4.2l-2.8,1.6l-2.8-0.7l-3.5,3.3l-2.8,6.5h-1.7l-2.4-3.3l-3.8-0.7l-5.9,2.6
		l-5.5-0.3l-10.1,5.2l-6.6,6.5l-0.7,2.6l-5.6,3.3l-5.9,6.2l-10.1,15.7l-6.6,4.3l-1.4,4.6l-6.6,3.9l1,3.6l4.5,4.3l6.9-0.3v-1.3
		l-7.6-2.3l0.7-1.3l3.8-0.3l3.1,2l8.3,10.8l3.8-1l3.1,2l-1.4,6.2l-6.6,5.2l-10.1,4.9L120,598.1l-10.1,2.3l-3.1-3l-0.3-2.3l3.1,0.3
		h0.3h-0.3l0.4-1.6l2.4,0.7v0.3v0.3l0.3,0.3l1,0.3l0.7,0.3h0.3l0.3-0.3v-0.3v-0.7h0.7v-0.3v-0.3l0.7-1.6l8.3-0.3l4.2-6.6l0.7-2.3h-1
		l-0.3-0.3H128l-20.5,3.3l-9.8,11.2L94.4,606.7z"/>
	<path class="st18" d="M278.4,330.9v-1.6l2.8,1l-0.7,1.3L278.4,330.9z M176.8,421.8l-2.8,5.5l-4.2,1l-1.4,3.3l-1.7-0.7l-2.8,4.9
		l0.3,2.3l-2.1,0.7l-13.5,2.9l-3.8-4.9l-1.7,1l-0.7,3.9l-0.3,1l-0.7,1.3l-3.8-0.7V443h-1h-1l-2.4-0.7l-1.7,3.6l-11.8,1.6H119h-0.3
		l-0.7,0.7l-5.9,2.9l-3.5-0.3l-3.4-5.5l-4.1-1.3l-4.2,7.5h-3.5l-6.5-9.1l-4.2,2.9l-0.4,9.1l-7.3-0.7l-3.1-5.2l0.7-2.9l-3.1-1.6
		l3.8-5.2l-1.7-3.3l-6.5-5.2l2.4-2.6l3.2-9.1L69,417l-0.3-4.6l6.6-0.3l2.8-2l6.6-10.7l-2.4-3.2l-0.3-7.5l-3.8,1.6l-8.3-1.3l-0.3-4.5
		l1.7-1.9l-4.8-5.8v-3.2l6.6-7.5l2.4-5.2l1.4,1.6l0.7-5.2l11.1-1.6l1.8-6.8l5.2-4.5l4.1,0.6l1.8-6.5l4.1,0.3v-2.6l4.1-1.6l-2.4-2.6
		l1.4-4.9l-1-1.3l2.1-0.6l-6.9-2.9V321l4.5-5.8l1.7,1.6l3.1-6.5l2.4-0.3l0.3,2.3l0.7-2.9l1.7-0.6l1-2.9l-1.4-0.6v-3.6l2.4-1.9
		l-0.3-2.9l4.9-9.1l-0.7-9.4l2.8-1.9l-1.7-1.3V271l1.7-6.8l3.1-4.8l1.8-10.6l3.1-4.2l-3.4-1v-1.9l4.5-2.9l-7.6-2.9l3.5-3.9
		l-8.2-19.7l1.4-2.3l2.1,1.3l4.1-3.2l-3.1-1.6v-2.3l0.7-1.6l3.8-0.6l-1.4-1.6l4.2-12.2v-1.3l-3.4-0.6l-5.8-1.3l-1.7-7.4l-3.1-3.5
		l-2.4-2.9h2.4l1-2.9l-3.1-9.3l-3.1-0.3l3.8-4.5l-3.1-1.6l3.8-3.5l-1.7-7.4l3.1-1.9l-0.3-1.3l4.5-1.3l10.6,5.1l3.1-1l9.3,2.9
		l10.3,7.4l5.8-3.2l2.7,3.5h7.9l1.7,1.3l4.5-0.3l0.7-1.3l7.9,6.7l0.7,5.5l4.8,3.9l10.3-3.9l3.1,2.6l11-1.9l4.8,1l-0.7,3.9l5.8,2.6
		l-0.3,3.9l3.8,2.2l1,6.4l3.4,4.2l-2.4,4.5l2.7,2.6l-2.7,1.6l-2.1,4.8l4.8-1.6l3.8,6.8l-7.6,4.5l3.1,1.9l0.3,6.8l2.1,1.6l14.8,0.6
		l1-5.2l3.4,1.6l1.4-2.9l10.3-0.6l1.7-7.4l2.1,2.3l3.4,0.6l3.1-2.9l0.7,2.6l-1,1l1.4,9.3l5.8,2.3l3.8-0.3l2.1,2.6l-1.4,8.1l1.4,1.6
		l3.1-2.6l4.1,2.6l-3.1,2.9l1,9.7l-1.7,1h-4.1l-3.8,1.9l-6.2,0.3l-0.7,1.3l-2.8-1l-7.2,1.3l3.1,1l0.7,2.6l-1.4,1.6l3.1,3.2l-0.7,1.9
		l-3.1,1.3l0.7,3.6l3.4,3.2l1.7-1.3l3.1,1.3l-0.3,1v1.6v0.3l0.3,2.6l-1.4,0.6l-3.4,1.9l-1.4,4.2l1.4,1l-0.3,3.6l2.8,2.3l-1,1.9
		l-3.8-0.6l-2.8,6.1l-0.7,2.6l1.4,1l0.7-1.9l2.4,4.2l-3.8,1.6l-1,3.2l-0.3-3.6h-1.4l-1.4,4.2l1,1.6l1-2.3v2.3l3.8-0.3l1.7,1.9v-6.1
		l3.4,3.2l-0.7,1.6l0.3,1.6l-5.2,3.2l-2.1-1.3l1-1.9l-3.8,1l-0.3,6.5l-1,1l1.7,2.6h-1.7H268l-8.3,8.1l-1.4-1l-1.4,2.6l2.4,1.3
		l2.4-2.3l2.8,0.6l0.7,1.6l1.4,5.8l-3.1,1.3v3.9l-3.4,2.6l1.7,3.2l-1,2.3l-2.8-1l-2.1,1v1.6l-2.1-0.3l-0.3,2.9l-2.4,1v-2.6l-1-0.3
		l-1.7-1l-0.3-0.3v-0.3l-0.3-0.3l-0.3-2.6h-2.8l-1,3.6v-0.3l-1.4,0.3v-5.8l-1.7,0.3H239l-3.8-0.6l-1.4,1.3l-2.1,10.1l3.1,2.6
		l-6.2,5.2l2.4,0.3l-0.7,1.9l1.4,1.9l3.1,0.3l-1.4,1.9l3.8,5.2v0.3h1.7v1.3l-3.1,2.3l-5.5-1.3l-5.2,4.2l7.3,2.9l-2.4,4.9l1.7,3.6
		l-15.5-2.6l-8.6,0.3l-4.8,0.3l-0.4,3.6l-6.9,2l0.7,1.6l-1.4-0.7l1.7,1l-1.7,3.6l2.4,5.2l-11.1,3.9v-1.3l-10.4-5.5l1,3.6l-1.4,0.7
		l3.8,2.9l2.1,1.3l-0.7,1l-2.1,2l-0.3,0.3L176.8,421.8z M275.9,286.2l-3.1-0.6l-4.1,0.3l4.1,1.9h3.1V286.2z"/>
	<path class="st19" d="M272.8,286.2l3.1,0.6v1.6h-3.1l-4.1-1.9L272.8,286.2z M268.8,470.3l0.3-3.3l-1-4.6l-2.4,2.3l-7.3-3.9l-1-3.6
		l8,1.3l1-8.1l1.4-0.3l-3.5,0.7l-0.3,1.6l-3.5-2l0.7-3.3l-3.5-1.3l-2.1-5.5l3.1-2.6h-0.3l-1-2.3h-2.8l-2.1-3.3l-4.8-2l-5.2,2.6
		l2.4-3.6l-1-4.2l-1-1.6l2.4-1.3l-2.8-0.3l-0.7-1.6l2.8-5.2h-0.3l-1.7-3.3H239l-0.7-1.6l-7.6-3.6l1.7-4.6l6.2-0.3l-0.3-3.3l-2.1,0.6
		l-0.3-1.3l3.5-2.6l-4.8-2.6l-4.5,1.3l2.4-4.9l-7.3-2.9l5.2-4.2l5.5,1.3l3.1-2.3v-1.3h-1.7V379l-3.8-5.2l1.4-1.9l-3.1-0.3l-1.4-1.9
		l0.7-1.9l-2.4-0.3l6.2-5.2l-3.1-2.6l2.1-10.1l1.4-1.3l3.8,0.6h1.4l1.7-0.3v5.8l1.4-0.3v0.3l1-3.6h2.8l0.3,2.6l0.3,0.3v0.3l0.3,0.3
		l1.7,1l1,0.3v2.6l2.4-1l0.3-2.9l2.1,0.3V353l2.1-1l2.8,1l1-2.3l-1.7-3.2l3.4-2.6V341l3.1-1.3l-1.4-5.8l-0.7-1.6l-2.8-0.6l-2.4,2.3
		l-2.4-1.3l1.4-2.6l1.4,1l8.3-8.1h0.3h1.7l-1.7-2.6l1-1l0.3-6.5l3.8-1l-1,1.9l2.1,1.3l5.2-3.2l-0.3-1.6l0.7-1.6l-3.4-3.2v6.1
		l-1.7-1.9l-3.8,0.3v-2.3l-1,2.3l-1-1.6l1.4-4.2h1.4l0.3,3.6l1-3.2l3.8-1.6l-2.4-4.2l-0.7,1.9l-1.4-1l0.7-2.6l2.8-6.1l3.8,0.6l1-1.9
		L278,288l0.3-3.6l-1.4-1l1.4-4.2l3.4-1.9l1.4-0.6l-0.3-2.6v-0.3v-1.6l0.3-1L280,270l-1.7,1.3l-3.4-3.2l-0.7-3.6l3.1-1.3l0.7-1.9
		l-3.1-3.2l1.4-1.6l-0.7-2.6l-3.1-1l7.2-1.3l2.8,1l0.7-1.3l6.2-0.3l3.8-1.9h4.1l1.7-1l9.3-3.5l5.9,1.6l0.3,1.3l1.4-1.3l4.8,3.5
		l5.2-2.6l7.9,3.9l-2.4,2.3v0.3l-2.7,3.9v0.3l-1,1l-0.3,2.3v0.3l-1.4,1.9l1.7,2.9l2.8-1.3v0.3l0.7,5.2l1.7,0.3l-0.3,2.9l-4.5,0.3
		l-1.7,2.6l-2.4,0.3l-1.4-1.9l1.4-2.3l-1-1.6l1.4-0.3l-6.5-1.3l0.4,4.2l3.8-0.6l2.1,5.5v1l4.1-0.6l1,1.9l3.4,1.3l4.8-1.6l1.4,3.9
		l4.1,1.9l2.4-3.2l6.5-0.6l0.7,2.3l2.4-1.6l0.7-1.6h0.3l0.3-0.3l1-0.3l2.1-0.3l2.8,1.3l2.8-1v0.3l1,0.3l2.4,1.6l1,1.9v0.3l-1,3.6
		l3.4-2.3h0.3l3.8-1.3h1.7v0.3l2.8,0.6l0.7,2.3h3.1l-0.7,2.3l2.1,3.9l3.1,2.3l3.4-2.6l1.7-0.3l2.8,0.3l0.7,1.6h0.3v-0.3h0.3l1.4,1.9
		l-2.4,1.3l3.5,4.2L399,305l0.7,3.9l-4.8,1.6l3.1,1.9l-2.1,2.9l-6.2-0.6l-0.7,1.6l2.1,1.9l-0.3,2.6l3.1,0.3l0.3,0.3l2.4,1.6l0.4,2.9
		l-5.5,4.9l-2.1,0.3v-0.3l-3.8-0.6l-3.4,4.2l-1.4,0.3l-1-2.3l-4.8-1l-1.7,1.6l0.7,4.9l3.5,10l12.8,0.6l1,2.9l2.1,1l2.4-1l-0.3,2.3
		l7.3,3.6l3.1,7.8L420,363l1.7-2.6l2.4-0.6l3.8,1.6v-1.3l2.1,0.6l12.4,1.3l-1,1.6v0.3l0.7,5.2l-2.4,4.2l3.1,5.5v0.3l-21,9.1h-0.3
		l-26.2,11.7L380,411.2l-15.9,6.2l-12.7,20.1l-1,1.3l1.7-5.5l-2.4,5.5l-3.1,1.3l-0.7,3.3l2.1-2.6l-1,4.2l-5.5,6.5l-14.2,4.9
		l-13.2,0.3l-12.8,5.9l-6.6-0.3l-3.8,2.6L268.8,470.3z M278.4,331.4l2.1,0.6l0.7-1.3l-2.8-1L278.4,331.4z M326.2,285.2l1.7-0.6
		l-1.4-1.6l-2.8,1.3l-0.3,1v0.3l0.7,2.3l1.7-0.3L326.2,285.2z"/>
	<path class="st20" d="M355.8,414.9L355.8,414.9L355.8,414.9L355.8,414.9L355.8,414.9l0.1-0.1l0,0l0,0l0,0v-0.1v-0.1l0,0l0,0l0,0
		h0.1h0.1h0.1l0,0l0,0l0,0v-0.1l0.1-0.1l0.1-0.1l0,0v-0.1l0,0l0,0v-0.1V414v-0.1v-0.1l0,0l0,0l0,0l0,0l0,0l0,0l0,0l0,0l0,0h-0.1
		h-0.1l0,0l0,0l0,0l0,0l0,0l0,0l0,0l0,0l0,0l0,0h-0.1l0,0l0,0l0,0H356l-0.1-0.1l0,0l0,0l0,0l0,0l-0.1-0.4l0,0l0.1-0.1l0.2-0.2
		l0.2-0.2l0.2-0.3v-0.1v-0.1l-0.1-0.3v-0.1v-0.1l0,0l0,0h0.2h0.1l0.5-0.3l0.1-0.1l0.1-0.1v-0.1v-0.1l0.1-0.2h0.1h0.1l0.2,0.1
		l0.2-0.1l0.1-0.1l0.2-0.1h0.2h0.2l0.2,0.1l0.3,0.1l0.2,0.1h0.2h0.1h0.1l0,0h0.1l0.2,0.1h0.1h0.2h0.2h0.1l0,0v0.1v0.1v0.1v0.1l0,0
		l0,0h0.1v0.1v0.1l0,0l0,0l0,0l0,0l0,0l0,0l0,0l0,0l0,0v0.1l0,0v0.1l0,0l0,0l0,0l0,0l0,0l0,0l0,0l0,0l2,2.8v0.1l0.1,0.2l0.2,0.3
		l0.2,0.4l0.1,0.2l0.2,0.2l0.2,0.3l0.2,0.4H364l0,0l0,0l0,0l0,0l0,0l0,0l0,0l0,0l0,0l0,0l0,0l0,0l0,0l0,0l0,0l0,0l0,0h-0.1l-0.1,0.1
		l0,0l0,0l0,0l0,0h-0.1l0,0l0,0l0,0l0,0l0,0l0,0l-0.1,0.1l0,0l0,0l0,0l0,0l0,0l0,0l0,0h-0.1l0,0l0,0l0,0l0,0l0,0l0,0l0,0l0,0l0,0
		l0,0l0,0l0,0l0,0l0,0l0,0l0,0l0,0l0,0l0,0l0,0l0,0l0,0l0,0l0,0l0,0l0,0l0,0l0,0l0,0l0,0l0,0l0,0l0,0l0,0l-0.1,0.1l0,0l0,0l0,0l0,0
		l0,0l0,0l0,0l0,0l0,0l0,0l0,0l0,0l0,0l0,0l0,0v0.1l-0.2,0.2v0.1l0,0v0.1l0,0l-0.1,0.1l0,0l0,0l0,0l0,0l0,0l0,0l0,0l0,0l-0.1,0.1
		v0.1v0.1l-0.1,0.1l-0.1,0.1v0.1v0.1v0.1l0,0v0.1v0.1v0.1l-0.1,0.1v0.1v0.1l0,0l0,0l0,0v0.1l0,0v0.1l0,0l0,0l0,0l0,0l0,0l0,0l0,0
		l0,0l0,0l-0.1,0.2v0.1v0.1l0,0v0.1l0,0v0.1l0,0l0,0l0,0l0,0l0,0l0,0l0,0l0,0l0,0l0,0l0,0l0,0l0,0h-0.1l0,0h-0.1l0,0l0,0l0,0l0,0
		l0,0l0,0h0.1l0,0l0,0l0,0l0,0l0,0l0,0l0,0l0,0l0,0l0,0l0,0l0,0v0.1l0,0l0,0l0,0l0,0l0,0l0,0l0,0l0,0l0,0v0.1l0,0l0,0l0,0l0,0l0,0
		l0,0l0,0l0,0l0,0l0,0v0.1l0,0v0.1l0,0l0,0l0,0l0,0v0.1l0,0l0,0l0,0l0,0l0,0l0,0l0,0l0,0l0,0l0,0l0,0l0,0l0,0l0,0l0,0l0,0l0.2-0.9
		l-0.4-0.1l-0.1,0.2l-0.1,0.3l0.4,0.1v0.1l-0.4-0.1v0.1h0.1l0,0l0,0l0,0l0,0v0.2l0.2,0.1v-0.2l0,0l-0.1,0.2h-0.1l0,0l0,0l0,0l0,0
		l0,0l0,0l0,0l0,0l0,0l0,0l0.1,0.1l0,0l0,0l0,0l0,0l0,0l0,0l-0.1-0.1l0,0l0.2,0.1l0,0l0,0l0,0l0,0l0,0l0,0l-0.1-0.1l0,0l0,0l0,0l0,0
		l0,0l0,0v0.1v0.1l0,0v0.1v0.1v0.1l0,0l0,0l0,0l0,0l0,0l0,0l0,0l0,0l0,0l0,0l0,0l0,0l0,0l0,0l0,0l0,0l0,0l0,0l0,0l0,0l0,0l0,0l0,0
		v0.1l0,0l0,0l0,0l0,0l0,0l0,0l0,0l0,0l0,0v0.1l0,0v0.1l0,0l0,0l0,0l0,0l0,0l0,0l0,0l0,0l0,0l0,0l0,0l0,0v0.1l0,0l0,0l0,0l0,0v0.1
		v0.1v0.1v0.1v0.1v0.1l0,0v0.1l0,0l0,0l0,0l0,0l0,0l0,0l0,0l0,0l0,0l0,0l0,0l0,0l0,0l0,0l0,0l0.1,0.1l0,0l0,0l0,0l0,0l0,0l0,0
		l-0.1-0.1l0,0l0,0l0,0l0,0v0.1l0,0l0,0l0,0l0,0v0.1l0,0l0,0v0.1v0.1v0.1l0,0l0,0l0,0l0,0h0.1l0,0l0,0v-0.1l0,0l0,0l0,0l0,0l0,0l0,0
		l-0.4,0.8l-0.2,0.4l0,0l0,0l0,0l0,0l0,0l0,0l0,0l0,0l0,0l0,0l0,0l0,0l0,0l0,0l0,0l0,0l0,0l0,0l0,0l0,0l0,0l0.2-0.4l0.3-0.7l0,0
		l-0.4,0.2l0.1,0.2l0,0l0,0l0,0l-0.1-0.1l-0.2,0.1l0,0l0.1-0.1l-0.2-0.4l0,0l-0.1,0.2v0.1l0,0v0.1l0,0l0,0l0,0l0,0l0,0l-0.1,0.1
		l0.1,0.1l0.1-0.2h0.2l0,0l0,0l0.1,0.1l0,0l0,0l0,0l0.2,0.2l0,0H362l0,0h0.1l0,0l-0.1,0.3l0,0l0,0l0,0l0,0l0,0l0,0l0,0l0,0l0,0l0,0
		l0,0l0,0l0,0l0,0l0,0l0,0l0,0l0,0l0,0l0,0l0,0l0,0l0,0l0,0l0,0v-0.1h-0.1l-0.1,0.1h-0.1l0,0l-0.1,0.1l0,0l0,0l0,0l0,0v0.1v0.1l0,0
		l0,0l0,0l0,0l0,0l0,0l0,0l0,0l0,0v0.1l0,0v0.1l0,0l0,0l0,0l0,0l0,0l-0.1,0.1l0,0l0,0l0,0l0,0l0,0l0,0l0,0l0,0l0,0l0,0l0,0l0,0l0,0
		l0,0l0,0l0,0l0,0l0,0l0,0l0,0l0,0l0,0l0,0l0,0l0,0l0,0l0,0l0,0l-0.1-0.1v0.1l0.1,0.1l0,0l0,0l0.1,0.1l0,0l0,0l0,0l0,0l0,0l0,0l0,0
		l0,0l0,0l0,0l0,0l0,0l0,0l0,0l0,0l0,0l0,0l0,0h-0.1l0,0l0,0l-0.1,0.1l0,0l0,0l-0.1,0.1l0,0l0,0l0,0l0,0l0,0l0,0l0,0l0,0l0,0
		l-0.1-0.1l-0.1,0.1l0.1,0.1l0,0l0,0l0,0l0.1,0.1l0,0l0,0l0,0l0,0l0,0l0,0l-0.3-0.3l0,0l0,0l-0.2,0.1l0,0l0,0l-0.1,0.2v0.1l0,0
		l0.2,0.2l0,0l0,0l0,0l0,0l0,0l-0.2-0.2l0,0l0,0l-0.1,0.1v0.1v0.1l-0.1,0.1l-0.1,0.2l0,0l0.2,0.2l0,0l0,0l0,0l0,0l0,0l0,0l0,0
		l-0.1-0.1l-0.1-0.1h-0.1l-0.1,0.1l-0.1,0.1l-0.1,0.1l-0.1,0.1l-0.1,0.1v0.1v0.1l0.2,0.2l0,0l-0.1-0.1l0,0l0.1,0.1l0,0l-0.2-0.2
		h-0.1l-0.1,0.1l-0.1,0.1l-0.1,0.1l-0.1,0.1l-0.1,0.1l-0.1,0.1v0.1l0.2,0.2l0,0l-0.2-0.2l0,0l0.2,0.2l0,0l-0.2-0.2l0,0l0,0l0,0H359
		l-0.1,0.1l-0.1,0.1l0,0v0.1v0.1v0.1l0,0l0,0l0,0l0.2,0.2l0,0l0,0l0,0l0,0l0,0l0,0l0,0l0,0l0,0l0,0l0,0l0,0l-0.1,0.1l0.1,0.1v0.1
		l-0.1,0.1l-0.1,0.1l-0.1,0.1l-0.1,0.1l-0.1,0.1h-0.1h-0.1l0,0h-0.1l0,0l0,0l0,0l0,0l0,0l0,0l0,0l0,0l0,0l0,0l0,0l0,0l0,0l0,0l0,0
		l0,0l0,0l0,0l0,0l0,0l0,0l0,0l0,0l0,0l0,0l0,0l0,0l0,0l0,0l0,0l0,0l0,0l0,0l0,0l0,0l0,0l0,0l0,0l0,0l0,0l0,0l0,0l0,0l0,0l0,0l0,0
		l0,0l0,0l0,0l0,0l0,0l0,0l0,0l0,0l0,0l0,0l0,0l0,0l0,0l0,0l0,0l0,0l0,0l0,0h0.1l0,0l0,0l0,0l0.1-0.1l0.1-0.1l0,0l0.1-0.1l-0.1-0.1
		l-0.2,0.2l0,0l-0.1,0.1l-0.1-0.1l0.3-0.3l-0.2-0.2l-0.3,0.3l0,0l0,0l0.2,0.2l0,0l0,0l0,0v0.1l0,0l0,0l0,0l0,0l0,0l-0.1,0.1h-0.1
		l-0.1-0.1v0.1l0,0v0.1l0,0l0,0h-0.1l0,0l0,0h-0.1l0,0l0,0l-0.1,0.1l0,0v0.1l0,0v0.1v0.1v0.1l0,0l0,0l0,0l0,0l0.2,0.1l0,0l-0.2-0.1
		l0,0l0,0l0,0v0.1l0,0l0,0l0,0l0.2,0.1l0,0l-0.3-0.1l0,0l-0.1,0.1l-0.1,0.1l0,0l-0.1,0.2v0.1v0.1l0,0v0.1v0.1l0,0l0,0l-0.1,0.1
		l-0.1,0.1l-0.1,0.2l-0.1,0.3v0.1v0.1v0.1v0.1l0,0v0.1v0.1v0.1l0,0v0.1l0,0l0,0l0,0h0.1l0.1-0.1l0,0l0,0l0,0l0,0l0,0l0,0l0,0l0,0
		l0,0l-0.6,1.3l0,0l0,0l0,0l0,0l0,0l0,0v0.1l0,0l0,0v0.1l0,0l0,0l0,0l-0.2,0.8H356l0,0h0.1l0,0l0,0l0.2-0.7l0,0l0,0l0,0l0.1-0.3l0,0
		l0,0l0,0l0,0l0,0l0,0l0,0l0,0l0,0h0.1l0,0l0,0l0,0l0,0l0,0l0.3-0.6l0,0l0,0l0,0l-0.2-0.1l0,0l0,0v0.1l0,0v0.1v0.1v0.1l0,0v0.1
		l-0.1,0.1l0,0l0,0l0,0l0,0l0,0l0,0h0.1l0,0l0,0l0,0l0,0l0,0h-0.1l0,0l0,0l0,0v-0.1l0,0l0,0l0,0l0,0v-0.1l0,0l0,0V432l0,0l0,0l0,0
		v0.1l0.2-0.3v-0.1v-0.2l0,0v-0.3h-0.2v0.3l0,0l0,0l0,0l0,0l0,0l0,0l0,0h-0.1l0,0l0,0v-0.1h-0.1l0,0l0,0V431l0,0l0,0v-0.1l0,0
		l0.4,0.1v-0.1h-0.2v-0.1v-0.2h0.2v-0.2h-0.1h-0.1l0.1-0.3l-0.1-0.1l-0.1,0.1v0.4h-0.1l0.1-0.5l0,0l0.2-0.1l0,0v-0.1v-0.2h-0.1l0,0
		h0.1l-0.1-0.4l0,0v-0.1l-0.2-0.1h-0.2l0.2,0.7l0,0l0,0l0,0l-0.3,0.5l0,0l-0.2-0.1V430l0.3-0.4l0,0l-0.1-0.4l0,0l-0.7,1.1l0,0l0,0
		l0.7,0.4l0,0l0,0l0,0l-0.1,0.2l0,0l0,0l0,0l-0.7-0.4l0,0l0,0l0,0v0.5h0.1v0.1h-0.1v0.4l0,0v0.1l0.5,0.2l0,0l0.1,0.1l0,0l0,0
		l-0.2,0.4h-0.1v-0.1L355,432l-0.4,0.7h0.1l0,0l0.5,0.2l-0.2,0.4l-0.7-0.3l-0.2,0.3l0.5,0.4l-0.9,1.9l-0.5-0.3l0,0l0,0l0,0h-0.1H353
		l0,0l0,0l0,0l-1.4,1l-0.1,0.1h-0.1l0,0l0,0v-0.3h-0.1v-0.2h-0.1v-0.1h-0.1v0.1l0,0v-0.1H351l-0.2,2h-0.6l0,0l0,0l0,0l-0.2,0.3
		l0.3,0.1l0.2,0.1l-0.2,0.5l0,0v0.1l0.4,0.2l0,0l0,0l0,0l0,0l0,0l0.1-0.1l0,0l0,0l0,0l0,0l0,0l0,0l0,0l0,0l0,0l0,0l0,0v-0.1l0,0l0,0
		l0,0l0,0l0,0v-0.1l0,0l0,0v-0.1l0,0l0,0l0,0l0,0l0,0l0,0l0,0l0,0l0,0l0,0l0,0l0,0l0,0l0,0l0,0v-0.1l0,0l0,0l0,0l0,0l0,0l0,0l0,0
		l0,0l0,0l0,0l0,0l0,0l0,0l0,0l0,0l0,0l0,0l0,0l0,0l0,0l0,0l0,0l0,0v-0.1l0,0l0,0l0,0l0,0l0,0l0,0l0,0l0,0l0,0l0,0l0,0l0,0l0,0l0,0
		l0,0v-0.1l0,0l0,0v-0.1l0,0l0,0l0,0l0,0l0,0l0,0l0,0l0,0l0,0l0,0l0,0l0,0l0,0l0,0v-0.1l0,0l0,0l0,0l0,0l0,0l0,0l0,0l0,0l0,0l0,0
		l0,0l0,0l0,0l0,0l0,0l0,0l0,0l0,0l0,0l0,0l0,0l0,0l0,0l0,0l0,0l0,0l0,0l0,0l0,0l0,0l0,0l0,0l0,0l0,0l0,0l0,0l0,0l0,0l0,0l0,0l0,0
		l0,0l0,0l0,0l0,0l0,0l0,0l0,0l0,0l0,0l0,0l0,0l0,0v-0.1l0,0l0,0l0,0V438l0,0v-0.1l0,0l0,0l0.1-0.1l0,0v-0.1l0,0l0,0l0,0l0,0l0,0
		l0,0l0,0l0,0l0,0l0,0l0,0l0,0l0,0l0,0l0,0l0,0l0,0l0,0l0,0l0,0l0,0l0,0l0,0l0,0l0,0l0,0l0,0l0,0l0,0l0,0l0,0l0,0l0.1-0.1l0,0l0,0
		l0,0l0,0l0,0l0,0l0.3,0.1l0,0v0.1l0,0l0,0l0,0l0,0l0,0l0,0l0,0l0,0l0,0l0,0l0,0l0,0l0,0l0,0l0,0l0,0l0,0l0,0l0,0l0,0l0,0l0,0l0,0
		l0.3,0.1l0,0l0,0l0,0l0,0l0,0l0,0l0,0l0,0l0,0l0,0l0,0l0,0l0,0l0,0l0,0h0.1l0,0l0,0l0,0l0,0l0,0l0,0l0,0l0,0l0,0l0,0l0,0l0,0l0,0
		l0,0l0,0l0,0h-0.1l0,0l0,0v0.1l0,0l0,0l0,0l0,0l0,0l0,0l0,0v0.1h0.1V438l0,0v0.1h-0.1l0,0l0,0l0,0l0,0l0,0l0,0l-0.1,0.2l0,0l0,0
		v0.1v0.1l0,0l0,0h0.1l0,0l0,0l0,0h-0.1l0,0h-0.1v0.1v0.1v0.1v0.1l0,0v0.1l0,0l0,0v0.1l0,0v0.1l0,0l0,0v0.1l0,0l0,0l0,0l0,0v0.1l0,0
		v0.1l0,0l0,0l0,0v0.1l-0.1,0.1v0.1v0.1v0.1l0,0v0.1l0,0l0,0l0,0l0,0l0,0l0,0l0,0l0,0v0.1l0,0l0,0l0,0l0,0l0,0l0,0l0,0l0,0v-0.1l0,0
		l0,0l0,0h-0.1h-0.1h-0.4h-0.1l0,0l0,0l0,0l0,0l0,0l0,0l0,0l0,0l0,0l0,0l0,0l0,0l0,0l0,0l0,0l0,0l0,0l0,0l0,0l0,0l0,0l0,0l0,0l0,0
		l0,0l0,0l0,0v0.1l0,0l0,0l0,0l0,0l0,0l0,0v0.1v0.1v0.1v0.1v0.1v0.1v0.1v0.1l0,0v0.1l0,0l-0.1,0.3h-0.1h-0.2H350h-0.2h-0.2h-0.7
		h-0.2h-0.3H348h-0.2h-0.1h-0.2h-0.2H347h-0.1h-0.2l-0.3-0.1l-0.3-0.1l-0.3-0.1l-0.2-0.1l-0.2-0.1l-0.2-0.1l-0.2-0.1l-0.1-0.1h-0.1
		l-0.1-0.1l-0.2-0.1l-0.1-0.1l-0.2-0.4l-0.2-0.3l-0.1-0.2l0,0v-0.1L340,443l-0.2-0.2l-0.1-0.1l-0.1-0.1l-0.1-0.1l-0.1-0.1l0,0l0,0
		l0,0l0,0l0,0l0,0l-0.2-0.1l0,0l0,0v-0.1l0,0l0,0l0,0v-0.1V442v-0.1l0,0l0,0l0,0l0,0l0,0h-0.1l0,0l0,0H339l0,0l0,0l0,0l0,0l0,0
		l-0.2-0.1h-0.1h-0.1h-0.1l0,0l0,0l0,0l0,0l0,0h-0.1l0,0l0,0l0,0l0.5-0.5l0,0l-0.4-0.2l-0.6-0.4l0.1-0.1l0.2-0.2l0.1-0.1l0.5-0.3
		l0.7-0.4l-0.4-0.9v-0.1l-0.2-0.3l-0.1-0.2h-0.1l0,0l0,0l0,0l-0.1-0.2l-0.1-0.1l-0.1-0.1l0,0l-0.1-0.2l-0.1-0.2v-0.1l-0.3-0.2
		l-0.1-0.1v-0.1v-0.2v-0.1l0.2-0.4h0.1h0.3l0.2,0.1v0.2l0.2,0.1l0.7-0.3l-0.1-0.3l0.4-0.8V435l-0.2-0.4l0.3-0.1l0.1-0.1v-0.1l0,0
		l0.2-0.2l0,0V434l-0.1-0.3l0.1-0.2l-0.3-0.3l0.2-0.2v-0.1v-0.1v-0.1v-0.1l-0.2-0.2v-0.1l0.1-0.1l-0.1-0.1l-0.1-0.1l-0.1-0.1
		l-0.1-0.2v-0.1v-0.1v-0.1v-0.2l-0.1-0.1l-0.1-0.1v-0.1v-0.1v-0.1v-0.1l0.1-0.2l0.1-0.1l0.2-0.3l0.1-0.2l0.1-0.1l0.1-0.1l0.1-0.2
		v-0.2l0.1-0.2l0.1-0.2v-0.2l-0.1-0.1h-0.2v-0.2v-0.1v-0.1L340,428l-0.1-0.1l-0.2-0.1l-0.2-0.1h-0.1l0,0v0.1l-0.1,0.1h-0.2h-0.2
		h-0.4h-0.2l-0.3-0.1l-0.1-0.1h-0.1h-0.1h-0.2l-0.1,0.1v0.1v0.1v0.1l-0.1,0.1l-0.3,0.2l-0.1,0.1l-0.1,0.2l-0.1,0.1l-0.1,0.1
		l-0.1,0.1l-0.1,0.1h-0.1h-0.1h-0.1l-0.3-0.1h-0.2h-0.1l-0.2-0.4l-0.2-0.3v-0.1l0,0h0.2v-0.1v-0.2l0.1-0.2l0.1-0.1l0.1-0.1l0.2,0.1
		h0.2h0.2h0.2l0.1-0.1l0.1-0.1v-0.1l0.1-0.2V427h0.1v-0.1l-0.1-0.1v-0.1l-0.2-0.1v-0.1l-0.1-0.1l0.1-0.1h-0.1l0,0l0,0v-0.1l0,0V426
		l-0.1-0.2v-0.1v-0.1l-0.1-0.1h0.2h0.2l0.1-0.1h0.2v-0.2v-0.1l-0.1,0.1l-0.4-0.2h-0.1h-0.2h-0.2h-0.1h-0.1v-0.2v-0.1l0.1-0.2h0.1
		h0.1l0.1-0.1l0,0l0.1-0.1l-0.1-0.1l-0.2-0.2h-0.1h-0.1h-0.1l-0.1-0.3v-0.1l-0.1-0.1l-0.1-0.1v-0.1v-0.1v-0.1V423l0.1-0.1h0.1h0.2
		l0,0v0.1v0.1l0,0l0,0l0,0h0.1h0.1h0.1l0,0l0,0v0.1v0.2v0.1l0,0l0,0l0.2,0.1l0.2,0.1h0.1h0.2l0,0l0,0v0.1v0.1l0,0l0,0l0,0l0,0v-0.1
		v-0.1h0.1l0,0l0,0l0.1,0.1v0.1l0.1,0.1v0.1h0.1h0.1l0.2,0.1h0.1l0.4,0.1h0.2l0.1-0.2h0.1h0.1l0,0V424l0.1-0.1l0.1-0.1l0.1-0.2
		l0.1-0.1v-0.1l0,0h0.1l0.1,0.1l0.1,0.1h0.1l0.1,0.1v0.1v0.1l0.1,0.2h0.1h0.1h0.1l0.1,0.1l0.1,0.1v0.1l0,0h0.1h0.3h0.1h0.2h0.3h0.2
		h0.1h0.2h0.2h0.1l0.2,0.1l0.1,0.1l0.1,0.1l0.3,0.2h0.2h0.1l0.1-0.1l0.1-0.2v-0.1v-0.1l0.1-0.1l0.1-0.1l0.3-0.3l0.2-0.2l0.1-0.2
		l0.1-0.2l0.1-0.2v-0.3v-0.2l0.1-0.2v-0.2v-0.3l-0.1-0.3v-0.2l0.2-0.1l0.3-0.2v-0.2l0.1-0.1l0.1-0.1l0.1-0.1h0.1h0.1h0.1h0.1h0.2
		l0.2,0.1h0.1h0.1h0.1h0.2l0.2-0.1h0.1h0.2h0.1l0.1,0.1l0.1,0.1h0.1h0.1h0.1h0.1h0.2h0.1l0,0l0,0l0.1-0.1l0.1-0.2l0.1-0.1l0.1-0.1
		h0.1h0.1h0.2h0.1l0.2-0.1h0.2h0.1l0.1,0.1l0.1,0.1h0.1h0.1v-0.1v-0.1l0.1-0.1h0.1V420l-0.1-0.2v-0.1v-0.1v-0.1v-0.1l0.1-0.1
		l0.1-0.2l-0.1-0.1v-0.1l0,0l0.1-0.2l0.1-0.2l0.1-0.1l0.3-0.2l0,0h0.1l0,0h0.1l0.1-0.1h0.1l0.1-0.1l0,0h0.1l0.1-0.1l0.1-0.1l0.1-0.1
		l0.2-0.1h0.1h0.1h0.1l0.1-0.1h0.4h0.1l-0.1-0.1v-0.1h-0.1l-0.1-0.1V417v-0.1l0.1,0.1h0.2l0.5-0.1h0.1l0.2,0.1l0.1-0.1l0.3-0.6
		l0.1,0.1h0.1h0.1l0.1-0.1l0.1-0.1l0.1-0.1l0.3-0.1h0.3l0.4-0.2l0.1,0.1l0.9,0.5h0.1h0.1h0.1h0.1h0.1L355.8,414.9z M332.5,422.1
		L332.5,422.1l0.2,0.2l0.1,0.1h0.1h0.2v0.1v0.1v0.2v0.1l0.1,0.1l0.1,0.1h0.3h0.1l0.1,0.1v0.1v0.1l-0.1,0.2v0.1l0,0l0.4,0.3v0.2v0.2
		v0.2l0.1,0.2v0.2v0.2l-0.1,0.1H334h-0.1l-0.3,0.1h-0.1h-0.2l0,0l0.1,0.1v0.1v0.3l-0.1,0.3l-0.1,0.1l-0.3,0.1l0,0l0,0h-0.2h-0.2l0,0
		v0.1v0.1v0.1l-0.1,0.1h-0.2h-0.1H332l-0.1-0.1l-0.1-0.2v-0.1v-0.1v-0.2l0.3-0.3l0.1-0.2v-0.3v-0.1v-0.1V425v-0.1v-0.1l-0.1-0.3
		v-0.1l-0.1-0.1l-0.1-0.1l-0.1-0.1l-0.2-0.1l0,0l0.1-0.1l0.3-0.2l0.2-0.1l0.1-0.1v-0.1v-0.2l0.1-0.3v-0.2v-0.2l-0.1-0.3V422v-0.2
		v-0.1v-0.1l0,0L332.5,422.1z M334.7,425.7L334.7,425.7L334.7,425.7l0.2,0.2l-0.1,0.1l-0.1,0.1l-0.1,0.1l-0.1,0.1v0.1v0.1l-0.1,0.1
		l-0.1,0.1l-0.1,0.1h-0.1l0,0l0,0v-0.1l0.1-0.2v-0.1v-0.1v-0.1v-0.1l0,0l0.2-0.1l0.1-0.1h0.1h0.1l0,0l0,0l0,0V425.7z M358.3,427.5
		L358.3,427.5L358.3,427.5v-0.2l0,0v-0.1l0,0l0,0l0,0l0,0l0,0l0,0l0,0l0,0l0,0l0,0l0,0V427.5l0.1-0.1l0,0l0,0l0,0l0,0l0,0l0,0l0,0
		L358.3,427.5L358.3,427.5L358.3,427.5L358.3,427.5L358.3,427.5L358.3,427.5L358.3,427.5L358.3,427.5L358.3,427.5L358.3,427.5
		L358.3,427.5z M358.3,427.5L358.3,427.5L358.3,427.5L358.3,427.5L358.3,427.5L358.3,427.5v0.1l0,0l0,0l0,0V427.5L358.3,427.5z
		 M358.2,427.6L358.2,427.6L358.2,427.6L358.2,427.6L358.2,427.6L358.2,427.6v0.1l0,0l0,0l0,0V427.6L358.2,427.6z M357.6,428.3
		l0.1-0.1l0,0l0,0l0,0l0,0l0,0l0,0l0,0l0,0l0,0l0,0v0.1l0,0H357.6L357.6,428.3L357.6,428.3L357.6,428.3v0.1l0,0l0,0l0,0l0,0l0,0l0,0
		V428.3L357.6,428.3L357.6,428.3L357.6,428.3L357.6,428.3z M353.2,434L353.2,434L353.2,434L353.2,434L353.2,434L353.2,434l0.1-0.2
		l0,0l0,0l0,0l0,0l0,0L353.2,434z M349.7,441.6L349.7,441.6h0.1l0,0l0,0l0,0l0,0v-0.1v-0.1v-0.1l0,0h-0.1v-0.1V441v-0.1v-0.1v-0.1
		v-0.1v-0.1l0,0l-0.1-0.1l0,0l0,0l0,0l0,0l0.1-0.8l0,0h-0.1l0,0v-0.1h0.1l1.5-3.1h0.1v-0.1l0,0l0,0l0,0v0.1l0,0v0.1v0.2l0,0l0,0l0,0
		l0,0l0,0l0,0l0,0l0,0l0,0l0,0v0.1l0,0l0,0l0,0v0.1v0.1v0.1l0,0l0,0l0,0v0.1l-0.1,0.1v0.1v0.1l0,0l0,0l0,0l0,0l0,0l0,0l0,0v0.1l0,0
		l0,0l0,0l-0.1,0.1l0,0v0.1v0.1v0.1l0,0l0,0l0,0l0,0v0.1v0.1l0,0v0.1v0.1v0.1l0,0l0,0v0.1v0.1v0.1v0.1l0,0l0,0l0,0l0,0l0,0l0,0l0,0
		l0,0l0,0l0,0l0,0l0,0l0,0l0,0l0,0l0,0l0,0l0,0l0,0v0.1l0,0l0,0l0,0l0,0v0.1l0,0l0,0l0,0l0,0l0,0l0,0l0,0l0,0v0.1l0,0l0,0l0,0l0,0
		l0,0l0,0l0,0l0,0l0,0v0.1l0,0l0,0v0.1v0.1l0,0l0,0l0,0l0,0l0,0l0,0l0,0l0,0l0,0l0,0l0,0l0,0l0,0l0,0l0,0l0,0l0,0l0,0l0,0l0,0v0.1
		l0,0l0,0l0,0l0,0l0,0v0.1l0,0l0,0l0,0l0,0l0,0l0,0v0.1l0,0v0.1l0,0v0.1l0,0l0,0l0,0l0,0v0.1v0.1l0,0l0,0l0,0l0,0v0.1v0.1v0.1l0,0
		l0,0l0,0l0,0l0,0l0,0l0,0l0,0v0.1l0,0v0.1v0.1v0.1l0,0v0.1l0,0v0.1l0,0l0,0l0,0l0,0l0,0l0,0l0,0l0,0l0,0l0,0l0,0l0,0l0,0l0,0l0,0
		l0,0l0,0v0.1l0,0l0,0l0,0l0,0l0,0v0.1l0,0l0,0l0,0l0,0v0.1l0,0l0,0l0,0l0,0l0,0l0,0l0,0l0,0l0,0l0,0l0,0l0,0l0,0v0.1v0.1v0.1l0,0
		l0,0l0,0l0,0l0,0l0,0l0,0l0,0l0,0l0,0l0,0l0,0l0,0l0,0l0,0v0.1l0,0l0,0v0.1v0.1l0,0l0,0l0,0l0,0v0.1v0.1v0.1l0,0v0.2v0.1l0,0l0,0
		l0,0l0,0l0,0l0,0v0.1v0.1l0,0l0,0v0.1l0,0l0,0l0,0l0,0l0,0l0,0l0,0l0,0l0,0l0,0l0,0l0,0l0,0l0,0v-0.1v-0.1l-0.1-0.3l-0.1-0.3
		l-0.1-0.5l-0.1-0.2l-0.1-0.2l0,0l0,0l0.2-0.9l0.1-0.6h-0.1l0,0h-0.1l0,0l0,0l0,0l0,0l0,0l0,0l0,0l0,0v0.1h0.1v-0.2l0,0l0,0l0,0l0,0
		l0,0l0,0l0,0v-0.1v-0.1v-0.1v-0.1v-0.1L349.7,441.6L349.7,441.6L349.7,441.6L349.7,441.6z M347.1,441.5L347.1,441.5L347.1,441.5
		L347.1,441.5L347.1,441.5z"/>
</g>
<linearGradient id="SVGID_1_" gradientUnits="userSpaceOnUse" x1="275.3" y1="549.3" x2="353.9" y2="549.3" gradientTransform="matrix(1 0 0 -1 0 668)">
	<stop  offset="0" style="stop-color:#83E2E2"/>
	<stop  offset="0.9637" style="stop-color:#003366"/>
	<stop  offset="1" style="stop-color:#000000"/>
</linearGradient>
<rect x="275.3" y="114.5" class="st21" width="78.6" height="8.4"/>
<text transform="matrix(1 0 0 1 219.7497 121.2025)" class="st0 st14 st15">% d’ocupació:</text>
<text transform="matrix(1 0 0 1 262.5497 121.2025)" class="st0 st14 st9">  </text>
<text transform="matrix(1 0 0 1 271.6351 131.1438)" class="st0 st14 st15">20</text>
<text transform="matrix(1 0 0 1 349.7503 131.1437)" class="st0 st14 st15">40</text>
</svg>
