<?xml version="1.0" encoding="utf-8"?>
<!-- Generator: Adobe Illustrator 24.0.1, SVG Export Plug-In . SVG Version: 6.00 Build 0)  -->
<svg version="1.1" id="Capa_1" xmlns="http://www.w3.org/2000/svg" xmlns:xlink="http://www.w3.org/1999/xlink" x="0px" y="0px"
	 viewBox="0 0 1366.8 1056.3" style="enable-background:new 0 0 1366.8 1056.3;" xml:space="preserve">
<style type="text/css">
	.st0{fill:#FFFFFF;}
	.st1{clip-path:url(#SVGID_2_);}
	.st2{fill:#003366;}
	.st3{font-family:'Arial-BoldMT';}
	.st4{font-size:24.5186px;}
	.st5{clip-path:url(#SVGID_4_);}
	.st6{font-size:23.8px;}
	.st7{fill:#8D8D8D;}
	.st8{fill:#012E68;}
	.st9{font-family:'OpenSans-Regular';}
	.st10{font-size:22px;}
	.st11{fill:#00CCCC;}
	.st12{font-family:'OpenSans-SemiBold';}
	.st13{font-size:35px;}
	.st14{font-size:26px;}
	.st15{font-size:25px;}
	.st16{font-family:'OpenSans-Light';}
	.st17{font-size:83px;}
	.st18{fill:none;stroke:#003366;stroke-width:19.1633;stroke-miterlimit:496.0637;}
	.st19{fill:none;stroke:#003366;stroke-width:19.3241;stroke-miterlimit:496.0637;}
	.st20{font-family:'ArialMT';}
	.st21{font-size:29.9151px;}
</style>
<title>LABTurisme-Sintesi-Viatgers-Pernoctacions-agost-2021</title>
<rect x="-16.4" y="-10.2" class="st0" width="1400.8" height="1080.6"/>
<g>
	<defs>
		<rect id="SVGID_1_" x="99.3" y="526.3" width="460.6" height="303.9"/>
	</defs>
	<clipPath id="SVGID_2_">
		<use xlink:href="#SVGID_1_"  style="overflow:visible;"/>
	</clipPath>
	<g class="st1">
		<text transform="matrix(1 0 0 1 285.0464 600.1183)" class="st2 st3 st4">V</text>
		<text transform="matrix(1 0 0 1 300.957 600.1183)" class="st2 st3 st4">iatgers</text>
	</g>
</g>
<g>
	<defs>
		<rect id="SVGID_3_" x="816.2" y="530.8" width="447.1" height="294.9"/>
	</defs>
	<clipPath id="SVGID_4_">
		<use xlink:href="#SVGID_3_"  style="overflow:visible;"/>
	</clipPath>
	<g class="st5">
		<text transform="matrix(1 0 0 1 964.8735 602.4826)" class="st2 st3 st6">Pernoctacions</text>
	</g>
</g>
<path class="st7" d="M37,1024.8h-5.1v4.7h5.7v1.4h-7.4v-13.1h7.1v1.4h-5.4v4.1H37V1024.8z"/>
<path class="st7" d="M39.7,1017.1h1.7v13.8h-1.7V1017.1z"/>
<path class="st7" d="M49.5,1030.9l-0.1-1.2h-0.1c-0.7,0.9-1.8,1.4-2.9,1.4c-1.5,0.1-2.8-1-2.9-2.5c0,0,0,0,0,0v-0.2
	c0-2.3,2-3.5,5.6-3.5v-0.2c0.1-1.1-0.6-2-1.7-2.2h-0.5c-0.9,0-1.7,0.2-2.4,0.7l-0.4-1.1c0.9-0.6,2-0.8,3.1-0.8c2.9,0,3.6,2,3.6,3.8
	v3.5c0,0.8,0,1.5,0.2,2.3L49.5,1030.9L49.5,1030.9z M49.2,1026.1c-1.9,0-4,0.3-4,2.1c-0.1,0.8,0.5,1.5,1.3,1.6c0,0,0,0,0.1,0h0.2
	c1,0,1.9-0.6,2.3-1.6c0.1-0.2,0.1-0.3,0.1-0.5V1026.1z"/>
<path class="st7" d="M53.5,1030.9c0-0.6,0.1-1.6,0.1-2.4v-11.4h1.7v5.9l0,0c0.7-1.1,1.9-1.8,3.2-1.7c2.3,0,4,1.9,4,4.8
	c0,3.4-2.1,5-4.2,5c-1.3,0.1-2.5-0.6-3.1-1.8h-0.1l-0.1,1.6L53.5,1030.9z M55.3,1027.1c0,0.2,0,0.4,0.1,0.6c0.3,1.2,1.4,2,2.6,2
	c1.8,0,2.9-1.5,2.9-3.6c0-1.9-1-3.5-2.8-3.5c-1.2,0-2.3,0.9-2.6,2.1c-0.1,0.2-0.1,0.5-0.1,0.7L55.3,1027.1L55.3,1027.1z"/>
<path class="st7" d="M73.2,1026.1c0.2,2.5-1.7,4.8-4.2,5h-0.5c-2.5,0-4.5-2-4.5-4.5c0-0.1,0-0.2,0-0.3c-0.2-2.6,1.7-4.8,4.3-5
	c0.1,0,0.3,0,0.4,0c2.5,0,4.5,2,4.5,4.5C73.2,1025.9,73.2,1026,73.2,1026.1z M65.7,1026.2c0,2.1,1.2,3.6,2.9,3.6
	c1.6,0,2.9-1.5,2.9-3.6c0-1.6-0.8-3.6-2.8-3.6S65.7,1024.4,65.7,1026.2z"/>
<path class="st7" d="M75.3,1024.4c0-1,0-1.9-0.1-2.9h1.5l0.1,1.8h0.1c0.3-1.2,1.4-2,2.6-2.1c0.2,0,0.3,0,0.5,0.1v1.6
	c-0.2,0-0.4-0.1-0.6-0.1c-1.2,0-2.2,1-2.3,2.2c0,0.3-0.1,0.5-0.1,0.8v5h-1.7V1024.4z"/>
<path class="st7" d="M86.8,1030.9l-0.1-1.2h-0.1c-0.7,0.9-1.8,1.4-2.9,1.4c-1.5,0.1-2.8-1-2.9-2.5c0,0,0,0,0,0v-0.2
	c0-2.3,2-3.5,5.6-3.5v-0.2c0.1-1.1-0.6-2-1.7-2.2h-0.5c-0.9,0-1.7,0.2-2.4,0.7l-0.4-1.1c0.9-0.6,2-0.8,3.1-0.8c2.9,0,3.6,2,3.6,3.8
	v3.5c0,0.8,0,1.5,0.2,2.3L86.8,1030.9L86.8,1030.9z M86.5,1026.1c-1.9,0-4,0.3-4,2.1c-0.1,0.8,0.5,1.5,1.3,1.6c0,0,0,0,0.1,0h0.2
	c1,0,1.9-0.6,2.3-1.6c0.1-0.2,0.1-0.3,0.1-0.5V1026.1z"/>
<path class="st7" d="M97.6,1030.5c-0.8,0.4-1.8,0.6-2.7,0.5c-2.5,0.1-4.6-1.7-4.7-4.2v-0.6c-0.1-2.6,1.9-4.8,4.5-5h0.5
	c0.8,0,1.6,0.2,2.4,0.5l-0.4,1.3c-0.6-0.3-1.3-0.5-2-0.4c-1.9,0.1-3.4,1.8-3.3,3.7c0,0,0,0.1,0,0.1c0.1,1.8,1.5,3.2,3.3,3.3
	c0.7,0,1.4-0.2,2.1-0.5L97.6,1030.5z"/>
<path class="st7" d="M101.5,1018.9c0,0.6-0.5,1.1-1.1,1.1c-0.6,0-1.1-0.5-1.1-1.1c0,0,0,0,0,0c0-0.6,0.4-1.1,1-1.1c0,0,0,0,0,0h0.1
	c0.6,0,1.1,0.4,1.1,1C101.5,1018.8,101.5,1018.9,101.5,1018.9z M99.6,1030.9v-9.4h1.7v9.4H99.6z"/>
<path class="st7" d="M112.7,1026.1c0.2,2.5-1.7,4.8-4.2,5H108c-2.5,0-4.5-2-4.5-4.5c0-0.1,0-0.2,0-0.3c-0.2-2.6,1.7-4.8,4.3-5
	c0.1,0,0.3,0,0.4,0c2.5,0,4.5,2,4.5,4.5C112.7,1025.9,112.7,1026,112.7,1026.1z M105.2,1026.2c0,2.1,1.2,3.6,2.9,3.6
	c1.6,0,2.9-1.5,2.9-3.6c0-1.6-0.8-3.6-2.8-3.6C106.1,1022.6,105.2,1024.4,105.2,1026.2z M110.6,1017.4l-2.4,2.8H107l1.7-2.8H110.6z"
	/>
<path class="st7" d="M124.5,1024.6c0-1,0-2.1-0.1-3.1h1.5l0.1,1.6l0,0c0.7-1.2,1.9-1.9,3.3-1.8c2.3,0,4,1.9,4,4.8c0,3.4-2.1,5-4.3,5
	c-1.2,0.1-2.3-0.5-2.9-1.5l0,0v5.1h-1.7L124.5,1024.6z M126.2,1027.1c0,0.2,0,0.5,0.1,0.7c0.3,1.2,1.4,2,2.6,2
	c1.8,0,2.9-1.5,2.9-3.6c0-1.9-1-3.5-2.8-3.5c-1.2,0-2.3,0.9-2.6,2.1c-0.1,0.2-0.1,0.5-0.1,0.7L126.2,1027.1z"/>
<path class="st7" d="M135.6,1024.4c0-1,0-1.9-0.1-2.9h1.5l0.1,1.8h0.1c0.3-1.2,1.4-2,2.6-2.1c0.2,0,0.3,0,0.5,0.1v1.6
	c-0.2,0-0.4-0.1-0.6-0.1c-1.2,0-2.2,1-2.3,2.2c0,0.3-0.1,0.5-0.1,0.8v5h-1.7V1024.4z"/>
<path class="st7" d="M150.2,1026.1c0.2,2.5-1.7,4.8-4.2,5h-0.5c-2.5,0-4.5-2-4.5-4.5c0-0.1,0-0.2,0-0.3c-0.2-2.6,1.7-4.8,4.3-5
	c0.1,0,0.3,0,0.4,0C148.4,1021.3,150.2,1023.3,150.2,1026.1z M142.8,1026.2c0,2.1,1.2,3.6,2.9,3.6c1.6,0,2.9-1.5,2.9-3.6
	c0-1.6-0.8-3.6-2.8-3.6S142.8,1024.4,142.8,1026.2L142.8,1026.2z M145,1017.4l1.7,2.8h-1.2l-2.4-2.8H145z"/>
<path class="st7" d="M152.4,1024.6c0-1,0-2.1-0.1-3.1h1.5l0.1,1.6l0,0c0.7-1.2,1.9-1.9,3.3-1.8c2.3,0,4,1.9,4,4.8c0,3.4-2.1,5-4.3,5
	c-1.2,0.1-2.3-0.5-2.9-1.5l0,0v5.1h-1.7L152.4,1024.6z M154,1027.1c0,0.2,0,0.5,0.1,0.7c0.3,1.2,1.4,2,2.6,2c1.8,0,2.9-1.5,2.9-3.6
	c0-1.9-1-3.5-2.8-3.5c-1.2,0-2.3,0.9-2.6,2.1c-0.1,0.2-0.1,0.5-0.1,0.7L154,1027.1z"/>
<path class="st7" d="M165.3,1018.9c0,0.5-0.4,1-0.9,1c-0.1,0-0.1,0-0.2,0c-0.6,0-1-0.4-1-1c0-0.6,0.4-1.1,1-1.1c0,0,0,0,0,0h0.1
	C164.9,1017.8,165.3,1018.3,165.3,1018.9C165.3,1018.9,165.3,1018.9,165.3,1018.9z M163.4,1030.9v-9.4h1.7v9.4H163.4z"/>
<path class="st7" d="M173.1,1030.9l-0.1-1.2h-0.1c-0.7,0.9-1.8,1.4-2.9,1.4c-1.5,0.1-2.8-1-2.9-2.5c0,0,0,0,0,0v-0.2
	c0-2.3,2-3.5,5.6-3.5v-0.2c0.1-1.1-0.6-2-1.7-2.2h-0.5c-0.9,0-1.7,0.2-2.4,0.7l-0.4-1.1c0.9-0.6,2-0.8,3.1-0.8c2.9,0,3.6,2,3.6,3.8
	v3.5c0,0.8,0,1.5,0.2,2.3L173.1,1030.9L173.1,1030.9z M172.9,1026.1c-1.9,0-4,0.3-4,2.1c-0.1,0.8,0.5,1.5,1.3,1.6c0,0,0,0,0.1,0h0.2
	c1,0,1.9-0.6,2.3-1.6c0.1-0.2,0.1-0.3,0.1-0.5V1026.1z"/>
<path class="st7" d="M195.1,1017.1v11.4c0,0.8,0,1.6,0.1,2.4h-1.5l-0.1-1.6l0,0c-0.6,1.2-1.9,1.9-3.2,1.8c-2.3,0-4-1.9-4-4.8
	c0-3.1,1.9-5,4.2-5c1.1-0.1,2.2,0.5,2.8,1.4l0,0v-5.6L195.1,1017.1z M193.4,1025.3c0-0.2,0-0.5-0.1-0.7c-0.3-1.2-1.3-2-2.5-2
	c-1.8,0-2.8,1.6-2.8,3.6c0,1.9,0.9,3.5,2.8,3.5c1.2,0,2.2-0.8,2.5-2c0.1-0.2,0.1-0.5,0.1-0.7V1025.3z"/>
<path class="st7" d="M198.9,1026.5c-0.1,1.6,1.1,3.1,2.7,3.3h0.5c0.9,0,1.8-0.1,2.6-0.5l0.3,1.2c-1,0.4-2,0.6-3.1,0.6
	c-2.4,0.2-4.4-1.6-4.6-4c0,0,0-0.1,0-0.1v-0.7c0-2.8,1.7-5.1,4.4-5.1c3.1,0,3.9,2.7,3.9,4.4c0,0.3,0,0.5-0.1,0.8L198.9,1026.5z
	 M203.9,1025.3c0-1.1-0.4-2.8-2.4-2.8c-1.5,0.1-2.6,1.3-2.6,2.8H203.9z"/>
<path class="st7" d="M207.7,1017.1h1.7v13.8h-1.7V1017.1z"/>
<path class="st7" d="M222,1017.8h1.7v11.7h5.6v1.4H222V1017.8z"/>
<path class="st7" d="M233.3,1026.8l-1.4,4.1h-1.7l4.4-13.1h2l4.5,13.1h-1.8l-1.4-4.1H233.3z M237.6,1025.5l-1.3-3.8
	c-0.3-0.9-0.5-1.6-0.7-2.4l0,0c-0.2,0.8-0.4,1.6-0.7,2.4l-1.3,3.8H237.6z"/>
<path class="st7" d="M243,1018c1-0.2,2.1-0.3,3.1-0.3c1.3-0.1,2.6,0.2,3.6,1c0.7,0.6,1.1,1.4,1.1,2.3c0,1.3-0.9,2.5-2.2,2.9l0,0
	c1.6,0.3,2.7,1.7,2.7,3.3c0,1-0.4,1.9-1.1,2.6c-0.9,0.8-2.4,1.2-4.5,1.2c-0.9,0-1.7,0-2.6-0.2L243,1018z M244.7,1023.3h1.5
	c1.8,0,2.8-0.9,2.8-2.2c0-1.5-1.2-2.1-2.9-2.1c-0.5,0-1,0-1.5,0.1L244.7,1023.3L244.7,1023.3z M244.7,1029.6
	c0.5,0.1,0.9,0.1,1.4,0.1c1.7,0,3.4-0.6,3.4-2.5c0-1.8-1.5-2.5-3.4-2.5h-1.4V1029.6z"/>
<path class="st7" d="M255.6,1018.8v2.7h2.4v1.3h-2.4v5.1c0,1.2,0.3,1.8,1.3,1.8c0.3,0,0.7,0,1-0.1l0.1,1.3c-0.5,0.2-1,0.2-1.5,0.2
	c-0.7,0-1.3-0.2-1.8-0.7c-0.5-0.7-0.8-1.5-0.7-2.4v-5.1h-1.5v-1.3h1.5v-2.3L255.6,1018.8z"/>
<path class="st7" d="M267.8,1028.3c0,0.9,0,1.7,0.1,2.6h-1.5l-0.1-1.5l0,0c-0.6,1.1-1.8,1.8-3.1,1.7c-1.5,0-3.2-0.8-3.2-4.1v-5.5
	h1.7v5.2c0,1.8,0.5,3,2.1,3c1,0,1.9-0.6,2.3-1.6c0.1-0.3,0.2-0.6,0.2-0.9v-5.8h1.7L267.8,1028.3z"/>
<path class="st7" d="M270.6,1024.4c0-1,0-1.9-0.1-2.9h1.5l0.1,1.8h0.1c0.3-1.2,1.4-2,2.6-2.1c0.2,0,0.3,0,0.5,0.1v1.6
	c-0.2,0-0.4-0.1-0.6-0.1c-1.2,0-2.2,1-2.3,2.2c0,0.3-0.1,0.5-0.1,0.8v5h-1.7V1024.4z"/>
<path class="st7" d="M278.9,1018.9c0,0.6-0.5,1.1-1.1,1.1s-1.1-0.5-1.1-1.1c0-0.6,0.4-1.1,1-1.1c0,0,0,0,0,0h0.1
	c0.6,0,1.1,0.4,1.1,1C278.9,1018.8,278.9,1018.9,278.9,1018.9z M277,1030.9v-9.4h1.7v9.4H277z"/>
<path class="st7" d="M281.3,1029.2c0.7,0.4,1.5,0.7,2.3,0.7c1.2,0,1.8-0.6,1.8-1.4s-0.5-1.3-1.7-1.7c-1.7-0.6-2.5-1.5-2.5-2.7
	c0.1-1.6,1.4-2.9,3-2.8c0.1,0,0.1,0,0.2,0c0.8,0,1.6,0.2,2.3,0.6l-0.4,1.2c-0.6-0.4-1.2-0.5-1.9-0.5c-1,0-1.6,0.6-1.6,1.3
	c0,0.8,0.6,1.1,1.8,1.6c1.6,0.6,2.5,1.4,2.5,2.8c0,1.6-1.3,2.8-3.5,2.8c-0.9,0-1.8-0.2-2.6-0.6L281.3,1029.2z"/>
<path class="st7" d="M289.3,1024c0-0.8,0-1.7-0.1-2.5h1.5l0.1,1.5h0.1c0.6-1.1,1.7-1.8,3-1.7c1.2,0,2.3,0.7,2.7,1.9l0,0
	c0.3-0.5,0.6-0.9,1-1.2c0.6-0.5,1.3-0.7,2.1-0.7c1.2,0,3.1,0.8,3.1,4.1v5.5h-1.7v-5.3c0-1.8-0.7-2.9-2-2.9c-0.9,0.1-1.7,0.7-2,1.6
	c-0.1,0.3-0.1,0.6-0.1,0.9v5.8h-1.7v-5.6c0-1.5-0.7-2.6-2-2.6c-1.3,0.1-2.3,1.2-2.3,2.5v5.7h-1.7V1024z"/>
<path class="st7" d="M306.4,1026.5c-0.1,1.6,1.1,3.1,2.7,3.3h0.5c0.9,0,1.8-0.1,2.6-0.5l0.3,1.2c-1,0.4-2,0.6-3.1,0.6
	c-2.4,0.2-4.4-1.6-4.6-4c0,0,0-0.1,0-0.1v-0.7c0-2.8,1.7-5.1,4.4-5.1c3.1,0,3.9,2.7,3.9,4.4c0,0.3,0,0.5-0.1,0.8L306.4,1026.5z
	 M311.4,1025.3c0-1.1-0.4-2.8-2.4-2.8c-1.5,0.1-2.6,1.3-2.6,2.8H311.4z"/>
<path class="st7" d="M314.8,1034.1v-0.4c0.5-0.2,1-0.5,1.4-0.9c0.4-0.4,0.6-0.9,0.6-1.5l-0.1-0.3l-0.1-0.1l-0.8,0.3
	c-0.7,0-1-0.4-1-1.1c0-0.3,0.1-0.6,0.4-0.8c0.2-0.2,0.6-0.3,0.9-0.3c0.5,0,0.9,0.3,1.2,0.7c0.3,0.4,0.4,0.8,0.4,1.3
	C317.6,1032.5,316.7,1033.5,314.8,1034.1z"/>
<path class="st7" d="M330.7,1026.5c-0.1,1.6,1.1,3.1,2.7,3.3h0.5c0.9,0,1.8-0.1,2.6-0.5l0.3,1.2c-1,0.4-2,0.6-3.1,0.6
	c-2.4,0.2-4.4-1.6-4.6-4c0,0,0-0.1,0-0.1v-0.7c0-2.8,1.7-5.1,4.4-5.1c3.1,0,3.9,2.7,3.9,4.4c0,0.3,0,0.5-0.1,0.8L330.7,1026.5z
	 M335.7,1025.3c0-1.1-0.4-2.8-2.4-2.8c-1.5,0.1-2.6,1.3-2.6,2.8H335.7z"/>
<path class="st7" d="M339.4,1024c0-0.8,0-1.7-0.1-2.5h1.5l0.1,1.6l0,0c0.6-1.1,1.8-1.8,3.1-1.8c1.3,0,3.3,0.8,3.3,4v5.6h-1.7v-5.4
	c0-1.5-0.6-2.8-2.2-2.8c-1.1,0-2,0.7-2.3,1.7c-0.1,0.3-0.1,0.5-0.1,0.8v5.6h-1.7v-6.8H339.4z"/>
<path class="st7" d="M359.8,1030.9c0-0.6,0.1-1.6,0.1-2.4v-11.4h1.7v5.9l0,0c0.7-1.1,1.9-1.8,3.2-1.7c2.3,0,4,1.9,4,4.8
	c0,3.4-2.1,5-4.2,5c-1.3,0.1-2.5-0.6-3.1-1.8h-0.1l-0.1,1.6L359.8,1030.9z M361.6,1027.1c0,0.2,0,0.4,0.1,0.6c0.3,1.2,1.4,2,2.6,2
	c1.8,0,2.9-1.5,2.9-3.6c0-1.9-1-3.5-2.8-3.5c-1.2,0-2.3,0.9-2.6,2.1c-0.1,0.2-0.1,0.5-0.1,0.7L361.6,1027.1z"/>
<path class="st7" d="M376.2,1030.9l-0.1-1.2H376c-0.7,0.9-1.8,1.4-2.9,1.4c-1.5,0.1-2.8-1-2.9-2.5c0,0,0,0,0,0v-0.2
	c0-2.3,2-3.5,5.6-3.5v-0.2c0.1-1.1-0.6-2-1.7-2.2h-0.5c-0.9,0-1.7,0.2-2.4,0.7l-0.4-1.1c0.9-0.6,2-0.8,3.1-0.8c2.9,0,3.6,2,3.6,3.8
	v3.5c0,0.8,0,1.5,0.2,2.3L376.2,1030.9L376.2,1030.9z M375.9,1026.1c-1.9,0-4,0.3-4,2.1c-0.1,0.8,0.5,1.5,1.3,1.6c0,0,0,0,0.1,0h0.2
	c1,0,1.9-0.6,2.3-1.6c0.1-0.2,0.1-0.3,0.1-0.5V1026.1z"/>
<path class="st7" d="M380.1,1029.2c0.7,0.4,1.5,0.7,2.3,0.7c1.2,0,1.8-0.6,1.8-1.4s-0.5-1.3-1.7-1.7c-1.7-0.6-2.5-1.5-2.5-2.7
	c0.1-1.6,1.4-2.9,3-2.8c0.1,0,0.1,0,0.2,0c0.8,0,1.6,0.2,2.3,0.6l-0.4,1.2c-0.6-0.4-1.2-0.5-1.9-0.5c-1,0-1.6,0.6-1.6,1.3
	c0,0.8,0.6,1.1,1.8,1.6c1.6,0.6,2.5,1.4,2.5,2.8c0,1.6-1.3,2.8-3.5,2.8c-0.9,0-1.8-0.2-2.6-0.6L380.1,1029.2z"/>
<path class="st7" d="M388.9,1026.5c-0.1,1.6,1.1,3.1,2.7,3.3h0.5c0.9,0,1.8-0.1,2.6-0.5l0.3,1.2c-1,0.4-2,0.6-3.1,0.6
	c-2.4,0.2-4.4-1.6-4.6-4c0,0,0-0.1,0-0.1v-0.7c0-2.8,1.7-5.1,4.4-5.1c3.1,0,3.9,2.7,3.9,4.4c0,0.3,0,0.5-0.1,0.8L388.9,1026.5z
	 M394,1025.3c0-1.1-0.4-2.8-2.4-2.8c-1.5,0.1-2.6,1.3-2.6,2.8H394z"/>
<path class="st7" d="M412.6,1030.9l-0.1-1.2h-0.1c-0.7,0.9-1.8,1.4-2.9,1.4c-1.5,0.1-2.8-1-2.9-2.5c0,0,0,0,0,0v-0.2
	c0-2.3,2-3.5,5.6-3.5v-0.2c0.1-1.1-0.6-2-1.7-2.2H410c-0.9,0-1.7,0.2-2.4,0.7l-0.4-1.1c0.9-0.6,2-0.8,3.1-0.8c2.9,0,3.6,2,3.6,3.8
	v3.5c0,0.8,0,1.5,0.2,2.3L412.6,1030.9L412.6,1030.9z M412.4,1026.1c-1.9,0-4,0.3-4,2.1c-0.1,0.8,0.5,1.5,1.3,1.6c0,0,0,0,0.1,0h0.2
	c1,0,1.9-0.6,2.3-1.6c0.1-0.2,0.1-0.3,0.1-0.5V1026.1z"/>
<path class="st7" d="M434.6,1017.1v11.4c0,0.8,0,1.6,0.1,2.4h-1.5l-0.1-1.6l0,0c-0.6,1.2-1.9,1.9-3.2,1.8c-2.3,0-4-1.9-4-4.8
	c0-3.1,1.9-5,4.2-5c1.1-0.1,2.2,0.5,2.8,1.4l0,0v-5.6L434.6,1017.1z M432.9,1025.3c0-0.2,0-0.5-0.1-0.7c-0.3-1.2-1.3-2-2.5-2
	c-1.8,0-2.8,1.6-2.8,3.6c0,1.9,0.9,3.5,2.8,3.5c1.2,0,2.2-0.8,2.5-2c0.1-0.2,0.1-0.5,0.1-0.7V1025.3z"/>
<path class="st7" d="M442.6,1030.9l-0.1-1.2h-0.1c-0.7,0.9-1.8,1.4-2.9,1.4c-1.5,0.1-2.8-1-2.9-2.5c0,0,0,0,0,0v-0.2
	c0-2.3,2-3.5,5.6-3.5v-0.2c0.1-1.1-0.6-2-1.7-2.2H440c-0.9,0-1.7,0.2-2.4,0.7l-0.4-1.1c0.9-0.6,2-0.8,3.1-0.8c2.9,0,3.6,2,3.6,3.8
	v3.5c0,0.8,0,1.5,0.2,2.3L442.6,1030.9L442.6,1030.9z M442.4,1026.1c-1.9,0-4,0.3-4,2.1c-0.1,0.8,0.5,1.5,1.3,1.6c0,0,0,0,0.1,0h0.2
	c1,0,1.9-0.6,2.3-1.6c0.1-0.2,0.1-0.3,0.1-0.5V1026.1z"/>
<path class="st7" d="M454.9,1017.1v11.4c0,0.8,0,1.6,0.1,2.4h-1.5l-0.1-1.6l0,0c-0.6,1.2-1.9,1.9-3.2,1.8c-2.3,0-4-1.9-4-4.8
	c0-3.1,1.9-5,4.2-5c1.1-0.1,2.2,0.5,2.8,1.4l0,0v-5.6L454.9,1017.1z M453.2,1025.3c0-0.2,0-0.5-0.1-0.7c-0.3-1.2-1.3-2-2.5-2
	c-1.8,0-2.8,1.6-2.8,3.6c0,1.9,0.9,3.5,2.8,3.5c1.2,0,2.2-0.8,2.5-2c0.1-0.2,0.1-0.5,0.1-0.7V1025.3z"/>
<path class="st7" d="M458.7,1026.5c-0.1,1.6,1.1,3.1,2.7,3.3h0.5c0.9,0,1.8-0.1,2.6-0.5l0.3,1.2c-1,0.4-2,0.6-3.1,0.6
	c-2.4,0.2-4.4-1.6-4.6-4c0,0,0-0.1,0-0.1v-0.7c0-2.8,1.7-5.1,4.4-5.1c3.1,0,3.9,2.7,3.9,4.4c0,0.3,0,0.5-0.1,0.8L458.7,1026.5z
	 M463.7,1025.3c0-1.1-0.4-2.8-2.4-2.8c-1.5,0.1-2.6,1.3-2.6,2.8H463.7z"/>
<path class="st7" d="M467.2,1029.2c0.7,0.4,1.5,0.7,2.3,0.7c1.2,0,1.8-0.6,1.8-1.4s-0.5-1.3-1.7-1.7c-1.7-0.6-2.5-1.5-2.5-2.7
	c0.1-1.6,1.4-2.9,3-2.8c0.1,0,0.1,0,0.2,0c0.8,0,1.6,0.2,2.3,0.6l-0.4,1.2c-0.6-0.4-1.2-0.5-1.9-0.5c-1,0-1.6,0.6-1.6,1.3
	c0,0.8,0.6,1.1,1.8,1.6c1.6,0.6,2.5,1.4,2.5,2.8c0,1.6-1.3,2.8-3.5,2.8c-0.9,0-1.8-0.2-2.6-0.6L467.2,1029.2z"/>
<path class="st7" d="M492.9,1017.1v11.4c0,0.8,0,1.6,0.1,2.4h-1.5l-0.1-1.6l0,0c-0.6,1.2-1.9,1.9-3.2,1.8c-2.3,0-4-1.9-4-4.8
	c0-3.1,1.9-5,4.2-5c1.1-0.1,2.2,0.5,2.8,1.4l0,0v-5.6L492.9,1017.1z M491.2,1025.3c0-0.2,0-0.5-0.1-0.7c-0.3-1.2-1.3-2-2.5-2
	c-1.8,0-2.8,1.6-2.8,3.6c0,1.9,0.9,3.5,2.8,3.5c1.2,0,2.2-0.8,2.5-2c0.1-0.2,0.1-0.5,0.1-0.7V1025.3z"/>
<path class="st7" d="M496.7,1026.5c-0.1,1.6,1.1,3.1,2.7,3.3h0.5c0.9,0,1.8-0.1,2.6-0.5l0.3,1.2c-1,0.4-2,0.6-3.1,0.6
	c-2.4,0.2-4.4-1.6-4.6-4c0,0,0-0.1,0-0.1v-0.7c0-2.8,1.7-5.1,4.4-5.1c3.1,0,3.9,2.7,3.9,4.4c0,0.3,0,0.5-0.1,0.8L496.7,1026.5z
	 M501.7,1025.3c0-1.1-0.4-2.8-2.4-2.8c-1.5,0.1-2.6,1.3-2.6,2.8H501.7z"/>
<path class="st7" d="M515.2,1017.1h1.7v13.8h-1.7V1017.1z"/>
<path class="st7" d="M521,1017.6l-0.3,4.7h-1l-0.3-4.7H521z"/>
<path class="st7" d="M530.3,1024.8h-5.1v4.7h5.7v1.4h-7.4v-13.1h7.1v1.4h-5.4v4.1h5.1L530.3,1024.8L530.3,1024.8z"/>
<path class="st7" d="M533,1024c0-0.8,0-1.7-0.1-2.5h1.5l0.1,1.6l0,0c0.6-1.1,1.8-1.8,3.1-1.8c1.3,0,3.3,0.8,3.3,4v5.6h-1.7v-5.4
	c0-1.5-0.6-2.8-2.2-2.8c-1.1,0-2,0.7-2.3,1.7c-0.1,0.3-0.1,0.5-0.1,0.8v5.6h-1.7L533,1024z"/>
<path class="st7" d="M550.1,1029.4L550.1,1029.4c-0.7,1.1-1.8,1.7-3.1,1.7c-2.2,0-4-1.9-4-4.8c0-3.5,2.3-5.1,4.3-5.1
	c1.2-0.1,2.3,0.6,2.9,1.6l0,0l0.1-1.4h1.6c0,0.8-0.1,1.6-0.1,2.6v10.7h-1.7V1029.4z M550.1,1025.3c0-0.2,0-0.5-0.1-0.7
	c-0.3-1.1-1.3-1.9-2.4-1.9c-1.8,0-2.8,1.5-2.8,3.6c0,1.9,0.9,3.5,2.8,3.5c1.1,0,2.1-0.8,2.4-1.9c0.1-0.3,0.1-0.5,0.1-0.8V1025.3z"/>
<path class="st7" d="M562.5,1028.3c0,0.9,0,1.7,0.1,2.6h-1.5l-0.1-1.5l0,0c-0.6,1.1-1.8,1.8-3.1,1.7c-1.5,0-3.2-0.8-3.2-4.1v-5.5
	h1.7v5.2c0,1.8,0.5,3,2.1,3c1,0,1.9-0.6,2.3-1.6c0.1-0.3,0.2-0.6,0.2-0.9v-5.8h1.7L562.5,1028.3z"/>
<path class="st7" d="M566.3,1026.5c-0.1,1.6,1.1,3.1,2.7,3.3h0.5c0.9,0,1.8-0.1,2.6-0.5l0.3,1.2c-1,0.4-2,0.6-3.1,0.6
	c-2.4,0.2-4.4-1.6-4.6-4c0,0,0-0.1,0-0.1v-0.7c0-2.8,1.7-5.1,4.4-5.1c3.1,0,3.9,2.7,3.9,4.4c0,0.3,0,0.5-0.1,0.8L566.3,1026.5z
	 M571.3,1025.3c0-1.1-0.4-2.8-2.4-2.8c-1.5,0.1-2.6,1.3-2.6,2.8H571.3z"/>
<path class="st7" d="M574.8,1029.2c0.7,0.4,1.5,0.7,2.3,0.7c1.2,0,1.8-0.6,1.8-1.4s-0.5-1.3-1.7-1.7c-1.7-0.6-2.5-1.5-2.5-2.7
	c0.1-1.6,1.4-2.9,3-2.8c0.1,0,0.1,0,0.2,0c0.8,0,1.6,0.2,2.3,0.6l-0.4,1.2c-0.6-0.4-1.2-0.5-1.9-0.5c-1,0-1.6,0.6-1.6,1.3
	c0,0.8,0.6,1.1,1.8,1.6c1.6,0.6,2.5,1.4,2.5,2.8c0,1.6-1.3,2.8-3.5,2.8c-0.9,0-1.8-0.2-2.6-0.6L574.8,1029.2z"/>
<path class="st7" d="M584.8,1018.8v2.7h2.4v1.3h-2.4v5.1c0,1.2,0.3,1.8,1.3,1.8c0.3,0,0.7,0,1-0.1l0.1,1.3c-0.5,0.2-1,0.2-1.5,0.2
	c-0.7,0-1.3-0.2-1.8-0.7c-0.5-0.7-0.8-1.5-0.7-2.4v-5.1h-1.5v-1.3h1.5v-2.3L584.8,1018.8z"/>
<path class="st7" d="M594.4,1030.9l-0.1-1.2h-0.1c-0.7,0.9-1.8,1.4-2.9,1.4c-1.5,0.1-2.8-1-2.9-2.5c0,0,0,0,0,0v-0.2
	c0-2.3,2-3.5,5.6-3.5v-0.2c0.1-1.1-0.6-2-1.7-2.2h-0.5c-0.9,0-1.7,0.2-2.4,0.7l-0.4-1.1c0.9-0.6,2-0.8,3.1-0.8c2.9,0,3.6,2,3.6,3.8
	v3.5c0,0.8,0,1.5,0.2,2.3L594.4,1030.9L594.4,1030.9z M594.1,1026.1c-1.9,0-4,0.3-4,2.1c-0.1,0.8,0.5,1.5,1.3,1.6c0,0,0,0,0.1,0h0.2
	c1,0,1.9-0.6,2.3-1.6c0.1-0.2,0.1-0.3,0.1-0.5V1026.1z"/>
<path class="st7" d="M616.4,1017.1v11.4c0,0.8,0,1.6,0.1,2.4H615l-0.1-1.6l0,0c-0.6,1.2-1.9,1.9-3.2,1.8c-2.3,0-4-1.9-4-4.8
	c0-3.1,1.9-5,4.2-5c1.1-0.1,2.2,0.5,2.8,1.4l0,0v-5.6L616.4,1017.1z M614.6,1025.3c0-0.2,0-0.5-0.1-0.7c-0.3-1.2-1.3-2-2.5-2
	c-1.8,0-2.8,1.6-2.8,3.6c0,1.9,0.9,3.5,2.8,3.5c1.2,0,2.2-0.8,2.5-2c0.1-0.2,0.1-0.5,0.1-0.7V1025.3z"/>
<path class="st7" d="M620.5,1017.6l-0.3,4.7h-1l-0.3-4.7H620.5z"/>
<path class="st7" d="M631.2,1026.1c0.2,2.5-1.7,4.8-4.2,5h-0.5c-2.5,0-4.5-2-4.5-4.5c0-0.1,0-0.2,0-0.3c-0.2-2.6,1.7-4.8,4.3-5
	c0.1,0,0.3,0,0.4,0C629.4,1021.3,631.2,1023.3,631.2,1026.1z M623.7,1026.2c0,2.1,1.2,3.6,2.9,3.6c1.6,0,2.9-1.5,2.9-3.6
	c0-1.6-0.8-3.6-2.8-3.6S623.7,1024.4,623.7,1026.2L623.7,1026.2z"/>
<path class="st7" d="M640,1030.5c-0.8,0.4-1.8,0.6-2.7,0.5c-2.5,0.1-4.6-1.7-4.7-4.2v-0.6c-0.1-2.6,1.9-4.8,4.5-5h0.5
	c0.8,0,1.6,0.2,2.4,0.5l-0.4,1.3c-0.6-0.3-1.3-0.5-2-0.4c-1.9,0.1-3.4,1.8-3.3,3.7c0,0,0,0.1,0,0.1c0.1,1.8,1.5,3.2,3.3,3.3
	c0.7,0,1.4-0.2,2.1-0.5L640,1030.5z"/>
<path class="st7" d="M649.9,1028.3c0,0.9,0,1.7,0.1,2.6h-1.5l-0.1-1.5l0,0c-0.6,1.1-1.8,1.8-3.1,1.7c-1.5,0-3.2-0.8-3.2-4.1v-5.5
	h1.7v5.2c0,1.8,0.5,3,2.1,3c1,0,1.9-0.6,2.3-1.6c0.1-0.3,0.2-0.6,0.2-0.9v-5.8h1.7L649.9,1028.3z"/>
<path class="st7" d="M652.7,1024.6c0-1,0-2.1-0.1-3.1h1.5l0.1,1.6l0,0c0.7-1.2,1.9-1.9,3.3-1.8c2.3,0,4,1.9,4,4.8c0,3.4-2.1,5-4.3,5
	c-1.2,0.1-2.3-0.5-2.9-1.5l0,0v5.1h-1.7L652.7,1024.6z M654.4,1027.1c0,0.2,0,0.5,0.1,0.7c0.3,1.2,1.4,2,2.6,2
	c1.8,0,2.9-1.5,2.9-3.6c0-1.9-1-3.5-2.8-3.5c-1.2,0-2.3,0.9-2.6,2.1c-0.1,0.2-0.1,0.5-0.1,0.7v1.6L654.4,1027.1L654.4,1027.1z"/>
<path class="st7" d="M669,1030.9l-0.1-1.2h-0.1c-0.7,0.9-1.8,1.4-2.9,1.4c-1.5,0.1-2.8-1-2.9-2.5c0,0,0,0,0,0v-0.2
	c0-2.3,2-3.5,5.6-3.5v-0.2c0.1-1.1-0.6-2-1.7-2.2h-0.5c-0.9,0-1.7,0.2-2.4,0.7l-0.4-1.1c0.9-0.6,2-0.8,3.1-0.8c2.9,0,3.6,2,3.6,3.8
	v3.5c0,0.8,0,1.5,0.2,2.3L669,1030.9L669,1030.9z M668.7,1026.1c-1.9,0-4,0.3-4,2.1c-0.1,0.8,0.5,1.5,1.3,1.6c0,0,0,0,0.1,0h0.2
	c1,0,1.9-0.6,2.3-1.6c0.1-0.2,0.1-0.3,0.1-0.5V1026.1z"/>
<path class="st7" d="M679.8,1030.5c-0.8,0.4-1.8,0.6-2.7,0.5c-2.5,0.1-4.6-1.7-4.7-4.2v-0.6c-0.1-2.6,1.9-4.8,4.5-5h0.5
	c0.8,0,1.6,0.2,2.4,0.5l-0.4,1.3c-0.6-0.3-1.3-0.5-2-0.4c-1.9,0.1-3.4,1.8-3.3,3.7c0,0,0,0.1,0,0.1c0.1,1.8,1.5,3.2,3.3,3.3
	c0.7,0,1.4-0.2,2.1-0.5L679.8,1030.5z"/>
<path class="st7" d="M683.7,1018.9c0,0.6-0.5,1.1-1.1,1.1c-0.6,0-1.1-0.5-1.1-1.1l0,0c0-0.6,0.4-1.1,1-1.1c0,0,0,0,0,0h0.1
	c0.6,0,1.1,0.4,1.1,1C683.7,1018.8,683.7,1018.9,683.7,1018.9L683.7,1018.9z M681.8,1030.9v-9.4h1.7v9.4H681.8z"/>
<path class="st7" d="M694.9,1026.1c0.2,2.5-1.6,4.8-4.2,5c0,0,0,0,0,0h-0.5c-2.5,0-4.5-2-4.5-4.5c0-0.1,0-0.2,0-0.3
	c-0.2-2.6,1.7-4.8,4.3-5c0.1,0,0.3,0,0.4,0c2.5,0,4.5,2,4.5,4.5C694.9,1025.9,694.9,1026,694.9,1026.1z M687.4,1026.2
	c0,2.1,1.2,3.6,2.9,3.6c1.6,0,2.9-1.5,2.9-3.6c0-1.6-0.8-3.6-2.8-3.6C688.3,1022.6,687.4,1024.4,687.4,1026.2L687.4,1026.2z
	 M692.8,1017.4l-2.4,2.8h-1.2l1.7-2.8H692.8z"/>
<path class="st7" d="M707.7,1026.5c-0.1,1.6,1.1,3.1,2.7,3.3h0.5c0.9,0,1.8-0.1,2.6-0.5l0.3,1.2c-1,0.4-2,0.6-3.1,0.6
	c-2.4,0.2-4.4-1.6-4.6-4c0,0,0-0.1,0-0.1v-0.7c0-2.8,1.7-5.1,4.4-5.1c3.1,0,3.9,2.7,3.9,4.4c0,0.3,0,0.5-0.1,0.8L707.7,1026.5z
	 M712.7,1025.3c0-1.1-0.4-2.8-2.4-2.8c-1.5,0.1-2.6,1.3-2.6,2.8H712.7z"/>
<path class="st7" d="M716.4,1024c0-0.8,0-1.7-0.1-2.5h1.5l0.1,1.6l0,0c0.6-1.1,1.8-1.8,3.1-1.8c1.3,0,3.3,0.8,3.3,4v5.6h-1.7v-5.4
	c0-1.5-0.6-2.8-2.2-2.8c-1.1,0-2,0.7-2.3,1.7c-0.1,0.3-0.1,0.5-0.1,0.8v5.6h-1.7L716.4,1024z"/>
<path class="st7" d="M742.1,1030.9l-0.1-1.2h-0.1c-0.7,0.9-1.8,1.4-2.9,1.4c-1.5,0.1-2.8-1-2.9-2.5c0,0,0,0,0,0v-0.2
	c0-2.3,2-3.5,5.6-3.5v-0.2c0.1-1.1-0.6-2-1.7-2.2h-0.5c-0.9,0-1.7,0.2-2.4,0.7l-0.4-1.1c0.9-0.6,2-0.8,3.1-0.8c2.9,0,3.6,2,3.6,3.8
	v3.5c0,0.8,0,1.5,0.2,2.3L742.1,1030.9L742.1,1030.9z M741.9,1026.1c-1.9,0-4,0.3-4,2.1c-0.1,0.8,0.5,1.5,1.3,1.6c0,0,0,0,0.1,0h0.2
	c1,0,1.9-0.6,2.3-1.6c0.1-0.2,0.1-0.3,0.1-0.5V1026.1z"/>
<path class="st7" d="M746.3,1017.1h1.7v13.8h-1.7V1017.1z"/>
<path class="st7" d="M750.8,1017.1h1.7v13.8h-1.7V1017.1z"/>
<path class="st7" d="M763.9,1026.1c0.2,2.5-1.6,4.8-4.2,5c0,0,0,0,0,0h-0.5c-2.5,0-4.5-2-4.5-4.5c0-0.1,0-0.2,0-0.3
	c-0.2-2.6,1.7-4.8,4.3-5c0.1,0,0.3,0,0.4,0C762.1,1021.3,763.9,1023.3,763.9,1026.1z M756.5,1026.2c0,2.1,1.2,3.6,2.9,3.6
	c1.6,0,2.9-1.5,2.9-3.6c0-1.6-0.8-3.6-2.8-3.6C757.3,1022.6,756.5,1024.4,756.5,1026.2L756.5,1026.2z"/>
<path class="st7" d="M768.1,1018.8v2.7h2.4v1.3h-2.4v5.1c0,1.2,0.3,1.8,1.3,1.8c0.3,0,0.7,0,1-0.1l0.1,1.3c-0.5,0.2-1,0.2-1.5,0.2
	c-0.7,0-1.3-0.2-1.8-0.7c-0.5-0.7-0.8-1.5-0.7-2.4v-5.1H765v-1.3h1.5v-2.3L768.1,1018.8z"/>
<path class="st7" d="M770.2,1033.6c0.7,0,1.4-0.3,1.9-0.7c0.5-0.5,0.6-1.3,0.6-3.5v-7.9h1.7v8.5c0.1,1.4-0.3,2.8-1.1,3.9
	c-0.8,0.7-1.8,1.1-2.9,1.1L770.2,1033.6z M774.6,1018.9c0,0.5-0.4,1-0.9,1c0,0-0.1,0-0.1,0h-0.1c-0.5,0-1-0.4-1-0.9c0,0,0-0.1,0-0.1
	v-0.1c0-0.6,0.4-1.1,1-1.1c0,0,0,0,0,0h0.1C774.2,1017.8,774.6,1018.3,774.6,1018.9L774.6,1018.9z"/>
<path class="st7" d="M782.4,1030.9l-0.1-1.2h-0.1c-0.7,0.9-1.8,1.4-2.9,1.4c-1.5,0.1-2.8-1-2.9-2.5c0,0,0,0,0,0v-0.2
	c0-2.3,2-3.5,5.6-3.5v-0.2c0.1-1.1-0.6-2-1.7-2.2h-0.5c-0.9,0-1.7,0.2-2.4,0.7l-0.4-1.1c0.9-0.6,2-0.8,3.1-0.8c2.9,0,3.6,2,3.6,3.8
	v3.5c0,0.8,0,1.5,0.2,2.3L782.4,1030.9L782.4,1030.9z M782.2,1026.1c-1.9,0-4,0.3-4,2.1c-0.1,0.8,0.5,1.5,1.3,1.6c0,0,0,0,0.1,0h0.2
	c1,0,1.9-0.6,2.3-1.6c0.1-0.2,0.1-0.3,0.1-0.5V1026.1z"/>
<path class="st7" d="M786.6,1024c0-0.8,0-1.7-0.1-2.5h1.5l0.1,1.5h0.1c0.6-1.1,1.7-1.8,3-1.7c1.2,0,2.3,0.7,2.7,1.9l0,0
	c0.3-0.5,0.6-0.9,1-1.2c0.6-0.5,1.3-0.7,2.1-0.7c1.2,0,3.1,0.8,3.1,4.1v5.5h-1.7v-5.3c0-1.8-0.7-2.9-2-2.9c-0.9,0.1-1.7,0.7-2,1.6
	c-0.1,0.3-0.1,0.6-0.1,0.9v5.8h-1.7v-5.6c0-1.5-0.7-2.6-2-2.6c-1,0.1-1.8,0.7-2.1,1.7c-0.1,0.3-0.1,0.5-0.1,0.8v5.7h-1.7L786.6,1024
	z"/>
<path class="st7" d="M803.7,1026.5c-0.1,1.6,1.1,3.1,2.7,3.3h0.5c0.9,0,1.8-0.1,2.6-0.5l0.3,1.2c-1,0.4-2,0.6-3.1,0.6
	c-2.4,0.2-4.4-1.6-4.6-4c0,0,0-0.1,0-0.1v-0.7c0-2.8,1.7-5.1,4.4-5.1c3.1,0,3.9,2.7,3.9,4.4c0,0.3,0,0.5-0.1,0.8L803.7,1026.5z
	 M808.7,1025.3c0-1.1-0.4-2.8-2.4-2.8c-1.5,0.1-2.6,1.3-2.6,2.8H808.7z"/>
<path class="st7" d="M812.5,1024c0-0.8,0-1.7-0.1-2.5h1.5l0.1,1.6l0,0c0.6-1.1,1.8-1.8,3.1-1.8c1.3,0,3.3,0.8,3.3,4v5.6h-1.7v-5.4
	c0-1.5-0.6-2.8-2.2-2.8c-1.1,0-2,0.7-2.3,1.7c-0.1,0.3-0.1,0.5-0.1,0.8v5.6h-1.7L812.5,1024z"/>
<path class="st7" d="M825.2,1018.8v2.7h2.4v1.3h-2.4v5.1c0,1.2,0.3,1.8,1.3,1.8c0.3,0,0.7,0,1-0.1l0.1,1.3c-0.5,0.2-1,0.2-1.5,0.2
	c-0.7,0-1.3-0.2-1.8-0.7c-0.5-0.7-0.8-1.5-0.7-2.4v-5.1h-1.5v-1.3h1.5v-2.3L825.2,1018.8z"/>
<path class="st7" d="M829.3,1029.2c0.7,0.4,1.5,0.7,2.3,0.7c1.2,0,1.8-0.6,1.8-1.4s-0.5-1.3-1.7-1.7c-1.7-0.6-2.5-1.5-2.5-2.7
	c0.1-1.6,1.4-2.9,3-2.8c0.1,0,0.1,0,0.2,0c0.8,0,1.6,0.2,2.3,0.6l-0.4,1.2c-0.6-0.4-1.2-0.5-1.9-0.5c-1,0-1.6,0.6-1.6,1.3
	c0,0.8,0.6,1.1,1.8,1.6c1.6,0.6,2.5,1.4,2.5,2.8c0,1.6-1.3,2.8-3.5,2.8c-0.9,0-1.8-0.2-2.6-0.6L829.3,1029.2z"/>
<path class="st7" d="M855.1,1017.1v11.4c0,0.8,0,1.6,0.1,2.4h-1.5l-0.1-1.6l0,0c-0.6,1.2-1.9,1.9-3.2,1.8c-2.3,0-4-1.9-4-4.8
	c0-3.1,1.9-5,4.2-5c1.1-0.1,2.2,0.5,2.8,1.4l0,0v-5.6L855.1,1017.1z M853.4,1025.3c0-0.2,0-0.5-0.1-0.7c-0.3-1.2-1.3-2-2.5-2
	c-1.8,0-2.8,1.6-2.8,3.6c0,1.9,0.9,3.5,2.8,3.5c1.2,0,2.2-0.8,2.5-2c0.1-0.2,0.1-0.5,0.1-0.7V1025.3z"/>
<path class="st7" d="M858.9,1026.5c-0.1,1.6,1.1,3.1,2.7,3.3h0.5c0.9,0,1.8-0.1,2.6-0.5l0.3,1.2c-1,0.4-2,0.6-3.1,0.6
	c-2.4,0.2-4.4-1.6-4.6-4c0,0,0-0.1,0-0.1v-0.7c0-2.8,1.7-5.1,4.4-5.1c3.1,0,3.9,2.7,3.9,4.4c0,0.3,0,0.5-0.1,0.8L858.9,1026.5z
	 M863.9,1025.3c0-1.1-0.4-2.8-2.4-2.8c-1.5,0.1-2.6,1.3-2.6,2.8H863.9z"/>
<path class="st7" d="M877.3,1017.1h1.7v13.8h-1.7V1017.1z"/>
<path class="st7" d="M883.2,1017.6l-0.3,4.7h-1l-0.3-4.7H883.2z"/>
<path class="st7" d="M887.3,1017.8v13.1h-1.7v-13.1L887.3,1017.8z"/>
<path class="st7" d="M890.3,1030.9v-13.1h1.8l4.2,6.6c0.9,1.4,1.7,2.8,2.3,4.3l0,0c-0.2-1.8-0.2-3.6-0.2-5.4v-5.5h1.6v13.1h-1.7
	l-4.2-6.6c-0.9-1.4-1.7-2.9-2.4-4.4h-0.1c0.1,1.6,0.1,3.2,0.1,5.4v5.6H890.3z"/>
<path class="st7" d="M909.8,1024.8h-5.1v4.7h5.7v1.4H903v-13.1h7.1v1.4h-5.4v4.1h5.1L909.8,1024.8L909.8,1024.8z"/>
<path class="st7" d="M912.8,1029.4c0.4-0.4,1.1-0.4,1.5,0c0.2,0.2,0.3,0.4,0.3,0.7c0,0.3-0.1,0.6-0.3,0.8c-0.4,0.4-1,0.4-1.4,0
	c0,0,0,0,0,0l0,0c-0.2-0.2-0.3-0.4-0.3-0.7C912.5,1029.9,912.6,1029.6,912.8,1029.4z"/>
<text transform="matrix(1 0 0 1 559.811 616.864)" class="st8 st9 st10">Estrangers</text>
<text transform="matrix(1 0 0 1 559.811 653.1501)" class="st8 st9 st10">Domèstics</text>
<path class="st11" d="M698.1,634.6h32.3c5.7,0,10.4,4.6,10.4,10.4c0,0,0,0,0,0l0,0c0,5.7-4.6,10.4-10.4,10.4c0,0,0,0,0,0h-32.3
	c-5.7,0-10.4-4.6-10.4-10.4c0,0,0,0,0,0l0,0c0-5.7,4.6-10.4,10.3-10.4C698,634.6,698.1,634.6,698.1,634.6z"/>
<path class="st8" d="M698.1,600.8h32.3c5.7,0,10.4,4.6,10.4,10.4c0,0,0,0,0,0l0,0c0,5.7-4.6,10.4-10.4,10.4c0,0,0,0,0,0h-32.3
	c-5.7,0-10.4-4.6-10.4-10.4c0,0,0,0,0,0l0,0c0-5.7,4.6-10.4,10.3-10.4C698,600.8,698.1,600.8,698.1,600.8z"/>
<text transform="matrix(1 0 0 1 93.9248 401.3923)" class="st2 st12 st13">+64,9%</text>
<text transform="matrix(1 0 0 1 102.6206 473.2189)" class="st2 st12 st14">Viatgers</text>
<text transform="matrix(1 0 0 1 88.8921 509.9865)" class="st2 st12 st13">272.270</text>
<text transform="matrix(1 0 0 1 587.187 401.3918)" class="st2 st12 st13">+97,5%</text>
<text transform="matrix(1 0 0 1 561.3638 473.2189)" class="st2 st12 st15">Pernoctacions</text>
<text transform="matrix(1 0 0 1 582.354 509.9865)" class="st2 st12 st13">812.915</text>
<text transform="matrix(1 0 0 1 1079.2153 401.4001)" class="st2 st12 st13">+14,2%</text>
<text transform="matrix(1 0 0 1 939.7573 475.07)" class="st2 st12 st15">Establiments allotjaments oberts</text>
<text transform="matrix(1 0 0 1 1094.1602 511.7175)" class="st2 st12 st13">1.076</text>
<text transform="matrix(1 0 0 1 86.063 429.3854)" class="st2 st16 st10">-44,4% (2019)</text>
<text transform="matrix(1 0 0 1 579.3252 429.3859)" class="st2 st16 st10">-53,3% (2019)</text>
<text transform="matrix(1 0 0 1 1071.3525 429.3854)" class="st2 st16 st10">-8,4% (2019)</text>
<rect x="552" y="58.3" class="st0" width="212.5" height="115.8"/>
<text transform="matrix(1 0 0 1 510.5225 111.9309)" class="st2 st12 st17">Síntesi</text>
<path class="st18" d="M150.7,187.9v170.5"/>
<path class="st2" d="M72.5,251.3l14,13l64.2-69.1l64.2,69.1l14-13l-78.2-84.1L72.5,251.3z"/>
<path class="st19" d="M644.7,188.1V360"/>
<path class="st2" d="M565.8,252l14.1,13.2l64.7-69.6l64.7,69.6l14.1-13.2l-78.9-84.8L565.8,252z"/>
<path class="st19" d="M1138.9,188.1V360"/>
<path class="st2" d="M1060.1,252l14.1,13.2l64.7-69.6l64.7,69.6l14.1-13.2l-78.9-84.8L1060.1,252z"/>
<g transform="translate(10,45.7)">
	<path id="point-0-0" class="st11" d="M327.4,586.8c94,0,170.3,76.2,170.3,170.3s-76.2,170.3-170.3,170.3
		c-57.2,0-110.5-28.7-142-76.3l92.3-61.1c18.2,27.5,55.1,35,82.6,16.8c27.5-18.2,35-55.1,16.8-82.6c-11-16.7-29.7-26.7-49.7-26.7
		V586.8z"/>
	<path id="point-0-1" class="st2" d="M185.4,851c-51.9-78.4-30.3-184.1,48.1-236c27.9-18.4,60.5-28.3,93.9-28.3v110.7
		c-32.9,0-59.6,26.7-59.6,59.6c0,11.7,3.4,23.1,9.9,32.9L185.4,851z"/>
	<g transform="translate(133.670401459027,83.60951055990579)" pointer-events="none">
		<g>
			<text transform="matrix(1 0 0 1 245.1796 740.0857)" class="st0 st20 st21">65,7%</text>
		</g>
	</g>
	<g transform="translate(58.329598540973,43.110489440094184)" pointer-events="none">
		<g>
			<text transform="matrix(1 0 0 1 131.0743 660.5256)" class="st0 st20 st21">34,3%</text>
		</g>
	</g>
</g>
<g transform="translate(426,45.7)">
	<path id="point-1-0" class="st11" d="M634.8,586.8c94,0,170.3,76.2,170.3,170.3s-76.2,170.3-170.3,170.3c-18.6,0-37-3-54.6-9
		l35.5-104.8c31.2,10.6,65-6.1,75.6-37.3c10.6-31.2-6.1-65-37.3-75.6c-6.2-2.1-12.6-3.2-19.1-3.2V586.8z"/>
	<path id="point-1-1" class="st2" d="M580.2,918.4c-89.1-30.2-136.8-126.8-106.6-215.9c23.4-69.1,88.3-115.6,161.3-115.6v110.7
		c-32.9,0-59.6,26.7-59.6,59.6c0,25.5,16.3,48.2,40.5,56.4L580.2,918.4z"/>
	<g transform="translate(138.1985844618821,70.31566628105479)" pointer-events="none">
		<g>
			<text transform="matrix(1 0 0 1 554.4557 753.3795)" class="st0 st20 st21">55,2%</text>
		</g>
	</g>
	<g transform="translate(53.8014155381179,56.4043337189452)" pointer-events="none">
		<g>
			<text transform="matrix(1 0 0 1 448.1513 647.2318)" class="st0 st20 st21">44,8%</text>
		</g>
	</g>
</g>
</svg>
