<?xml version="1.0" encoding="utf-8"?>
<!-- Generator: Adobe Illustrator 24.0.1, SVG Export Plug-In . SVG Version: 6.00 Build 0)  -->
<svg version="1.1" id="graphic" xmlns="http://www.w3.org/2000/svg" xmlns:xlink="http://www.w3.org/1999/xlink" x="0px" y="0px"
	 viewBox="0 0 590.1 709.2" style="enable-background:new 0 0 590.1 709.2;" xml:space="preserve">
<style type="text/css">
	.st0{fill:#FFFFFF;stroke:#000000;stroke-miterlimit:10;}
	.st1{fill:#003366;}
	.st2{font-family:'OpenSans-Bold';}
	.st3{font-size:11px;}
	.st4{fill:#E3F1F3;}
	.st5{fill:#E0F3F4;}
	.st6{fill:#E5F8F8;}
	.st7{fill:#E9F9F9;}
	.st8{fill:#CBF4F4;}
	.st9{font-family:'OpenSans-SemiBold';}
	.st10{font-size:8px;}
	.st11{font-family:'OpenSans-Light';}
	.st12{fill:#6685A3;}
	.st13{font-size:9px;}
	.st14{font-size:14px;}
	.st15{fill:#FFFFFF;stroke:#82B0D9;stroke-width:2;stroke-dasharray:2,2,2,2,2,2;}
	.st16{enable-background:new    ;}
	.st17{font-size:7px;}
	.st18{fill:#4C99AE;stroke:#FFFFFF;stroke-width:0.3867;}
	.st19{fill:#54A4B6;stroke:#FFFFFF;stroke-width:0.3867;}
	.st20{fill:#64B9C5;stroke:#FFFFFF;stroke-width:0.6167;}
	.st21{fill:#83E2E2;stroke:#FFFFFF;stroke-width:0.6167;}
	.st22{fill:#003366;stroke:#FFFFFF;stroke-width:0.3867;}
	.st23{fill:url(#SVGID_1_);stroke:#FFFFFF;stroke-width:0.2147;}
	.st24{fill:#0B4170;stroke:#FFFFFF;stroke-width:0.3592;}
</style>
<rect x="-7" y="-5.1" class="st0" width="602" height="719"/>
<g>
	<text transform="matrix(1 0 0 1 372.9487 177.0412)" class="st1 st2 st3">GIRONA</text>
</g>
<text transform="matrix(1 0 0 1 26.6992 253.3273)" class="st1 st2 st3">LLEIDA</text>
<path class="st4" d="M223.8,412.3c1.4,1.6,0.3,1.8-1,1.9C221.9,413.1,223.7,413.1,223.8,412.3z"/>
<path class="st5" d="M266.4,498.5c-0.1-0.9-0.5-1.8,0.5-2.4c0.5,0.3,0.9-1.6,1.3,0c0.1,0.5,1.1,1.6-0.4,1.6
	C267,497.5,266.9,498.2,266.4,498.5z"/>
<path class="st6" d="M371.3,312.7c0-0.2,0-0.5-0.1-0.7c0.8-1.7,2.2-1,3.5-1.2C373.9,312,372.2,311.5,371.3,312.7z"/>
<path class="st7" d="M380.4,310.7c0.9,0.5,1,1.4,1.2,2.2C380.1,313,379.9,312,380.4,310.7z"/>
<path class="st8" d="M366.6,307.9v-0.7c0.9,0.4,2.1-0.5,2.8,0.7H366.6z"/>
<text transform="matrix(1 0 0 1 26.6987 282.6677)" class="st1 st9 st10">Ocupació:  </text>
<text transform="matrix(1 0 0 1 26.6987 292.2673)" class="st1 st9 st10">33,4%  (+4,9 pp) </text>
<text transform="matrix(1 0 0 1 88.0991 292.2673)" class="st1 st11 st10">|+0,1 pp</text>
<text transform="matrix(1 0 0 1 90.1133 275.6774)" class="st12 st9 st10">  </text>
<text transform="matrix(1 0 0 1 180.2114 101.3532)" class="st12 st9 st13">Entre parèntesi, variació interanual respecte a l’any 2020 i 2019 </text>
<g>
	<text transform="matrix(1 0 0 1 26.6992 306.4968)" class="st1 st9 st10">Viatgers: </text>
	<text transform="matrix(1 0 0 1 26.6992 316.0969)" class="st1 st9 st10">71.811 (+29,6%) </text>
	<text transform="matrix(1 0 0 1 92.2993 316.0969)" class="st1 st11 st10">|</text>
	<text transform="matrix(1 0 0 1 92.5991 316.0969)" class="st1 st9 st10"> </text>
	<text transform="matrix(1 0 0 1 97.5474 316.0964)" class="st1 st11 st10">-8,0%</text>
</g>
<g>
	<text transform="matrix(1 0 0 1 26.6987 328.6725)" class="st1 st9 st10">Pernoctacions: </text>
	<text transform="matrix(1 0 0 1 26.6987 338.2726)" class="st1 st9 st10">136.650 (+22,4%)</text>
	<text transform="matrix(1 0 0 1 91.0991 338.2726)" class="st1 st11 st10">|-4,2%</text>
	<text transform="matrix(1 0 0 1 83.6987 338.2726)" class="st12 st9 st10"> </text>
</g>
<text transform="matrix(1 0 0 1 372.9487 205.4582)" class="st1 st9 st10">Ocupació:  44,0% (+13,94 pp) | </text>
<text transform="matrix(1 0 0 1 490.8486 205.4582)" class="st1 st11 st10">-16,9 pp</text>
<text transform="matrix(1 0 0 1 524.9487 205.4582)" class="st1 st9 st10"> </text>
<text transform="matrix(1 0 0 1 372.9487 219.1174)" class="st1 st9 st10">Viatgers: 339.925 (+45,1%) </text>
<text transform="matrix(1 0 0 1 474.7485 219.1174)" class="st1 st11 st10">|-25,1%</text>
<text transform="matrix(1 0 0 1 372.9492 230.9968)" class="st1 st9 st10">Pernoctacions:  934.369 (+92,0%)</text>
<text transform="matrix(1 0 0 1 500.8491 230.9968)" class="st1 st11 st10">|-39,4%</text>
<g>
	<text transform="matrix(1 0 0 1 407.9795 465.4089)" class="st1 st2 st3">ENTORN DE BARCELONA</text>
</g>
<text transform="matrix(1 0 0 1 407.979 497.7141)" class="st1 st9 st10">Ocupació: 36,3% (+13,1 pp)  </text>
<text transform="matrix(1 0 0 1 513.6792 497.7141)" class="st1 st11 st10">| -32,4 pp </text>
<text transform="matrix(1 0 0 1 407.9795 511.6345)" class="st1 st9 st10">Viatgers: 195.523 (+94,3%) </text>
<text transform="matrix(1 0 0 1 508.3794 511.6345)" class="st1 st11 st10">|-51,0%</text>
<text transform="matrix(1 0 0 1 545.1792 511.6345)" class="st1 st9 st10"> </text>
<text transform="matrix(1 0 0 1 407.9795 525.5563)" class="st1 st9 st10">Pernoctacions: 539.845 (+149,6%)</text>
<text transform="matrix(1 0 0 1 536.6792 525.5563)" class="st1 st11 st10">| -61,6%</text>
<g>
	<text transform="matrix(1 0 0 1 190.2471 571.383)" class="st1 st2 st3">TARRAGONA</text>
</g>
<text transform="matrix(1 0 0 1 190.2471 602.072)" class="st1 st9 st10">Ocupació: 42,4% (+11,2 pp) </text>
<text transform="matrix(1 0 0 1 293.3154 602.9919)" class="st1 st11 st10">| -27,6 pp</text>
<text transform="matrix(1 0 0 1 190.2471 615.7311)" class="st1 st9 st10">Viatgers: 262.217 (+79,6%) </text>
<text transform="matrix(1 0 0 1 290.647 615.7311)" class="st1 st11 st10">| -27,9%</text>
<text transform="matrix(1 0 0 1 190.2476 629.9142)" class="st1 st9 st10">Pernoctacions: 749.150 (+143,5%) </text>
<text transform="matrix(1 0 0 1 321.7476 629.9142)" class="st1 st11 st10">| -51,5%</text>
<text transform="matrix(1 0 0 1 223.729 32.3967)" class="st1 st9 st14">Establiments hotelers</text>
<g>
	<text transform="matrix(1 0 0 1 409.8989 565.1281)" class="st1 st2 st3">BARCELONÈS</text>
</g>
<text transform="matrix(1 0 0 1 409.8999 595.0632)" class="st1 st9 st10">Ocupació: 58,7% (+38,3 pp) </text>
<text transform="matrix(1 0 0 1 514.5996 595.0632)" class="st1 st11 st10">| -13,7 pp</text>
<text transform="matrix(1 0 0 1 409.8999 608.7224)" class="st1 st9 st10">Viatgers: 436.394 (+377,7%) </text>
<text transform="matrix(1 0 0 1 516.2998 608.7224)" class="st1 st11 st10">|-43,3%</text>
<text transform="matrix(1 0 0 1 409.8999 622.9055)" class="st1 st9 st10">Pernoctacions: 1.110.120 (+521,9%) </text>
<text transform="matrix(1 0 0 1 544.5996 622.9055)" class="st1 st11 st10">|-42,5% </text>
<polyline class="st15" points="368.3,489.2 368.3,570.7 400.5,570.7 "/>
<text transform="matrix(1 0 0 1 69.1426 48.3391)" class="st16"><tspan x="0" y="0" class="st12 st11 st13">Girona segueix líder a Catalunya i és la província catalana amb un major comportament del turisme en hotels, tot </tspan><tspan x="-13.3" y="10.8" class="st12 st11 st13"> i que per darrera de la marca Barcelona que ha registrat una recuperació molt i molt important. L’Entorn de Barcelona  </tspan><tspan x="16.3" y="21.6" class="st12 st11 st13">dobla el nombre de viatgers i pernoctacions respecte el 2020, i es queda en el 50% de les xifres de 2019.</tspan></text>
<text transform="matrix(1 0 0 1 26.6992 699.6476)" class="st12 st9 st17">Font: Elaboració pròpia del LABTurisme en base a dades de l’Enquesta d’ocupació en allotjaments de l’INE</text>
<g id="regions-layer">
	<path class="st18" d="M339,334.7v-0.3l0.3-1l2.8-1.3l1.4,1.6l-1.7,0.6l-0.3,2.4l-1.7,0.3L339,334.7z M334.1,260.4l1-2.7h2.1l1,1.6
		l-1.7,3.3l4.1,4.3l-8.3-1l0.3-5.3L334.1,260.4z M536.4,299.5l-0.3-0.3l0.3-0.3h0.3v0.6L536.4,299.5L536.4,299.5z M525.8,350
		l-0.3-0.3l-0.3-0.3v-0.3l1-0.3L525.8,350z M389.4,388.6l-0.6-7.5l1.7-1.6l4.8,1l1,2.3l1.4-0.3l3.4-4.2l3.8,0.9l0.4-0.1l1.4-0.2
		l5.4-4.6l-0.1-1.1l-2.4-1.6l-0.3-0.3l-3.1-0.3l0.3-2.7l-2.1-2l0.8-3.5l6.2,0.6l2.1-2.9l-2.8-1.7l4.5-1.8l-0.9-2.3l0.2-1.6l-2.3-4.7
		l0.2-1.4l0.8-1.9h-0.3v0.3h-0.3l-0.7-1.6l-2.8-0.3l-1.7,0.3l-3.4,2.7l-3.1-2.4l-2.1-4l0.7-2.4h-3l-0.7-2.4l-2.8-0.6v-0.3h-1.7
		l-3.8,1.3h-0.3l-3.4,2.4l1-3.7v-0.2l-1-2l-2.4-1.6l-1-0.3V330l-2.8,1l-2.8-1.3l-2.1,0.3l-1,0.3l-0.3,0.3h-0.3l-0.7,1.6l-2.4,1.6
		l-0.7-2.4l-6.5,0.6l-2.4,3.3l-4.1-2l-1.4-4l-4.8,1.6l-3.4-1.3l-1-2l-4.1,0.6v-1l-2.1-5.7l-3.8,0.6l-0.4-4.3l6.5,1.3l-1.4,0.3l1,1.6
		l-1.4,2.4l1.4,2l2.4-0.3l1.7-2.7l4.5-0.3l0.3-3l-1.7-0.3l-0.7-5.3v-0.3l-2.8,1.3l-1.7-3l1.4-2v-0.3l0.3-2.4l1-1v-0.3l2.7-4v-0.3
		l2.4-2.4l-7.9-4l-5.2,2.7l-4.8-3.6l-1.4,1.3l-0.3-1.3l-5.9-1.6l-9.3,3.6l-1-10l3.1-3l-4.1-2.7l-3.1,2.7l-1.4-1.6l1.4-8.3l-2.1-2.7
		l-3.8,0.3l-5.8-2.4l-1.4-9.6l1-1l14.4,1l10,7.9l4.8,0.3l2.4-1.6l0.7,5.3l2.8,1l0.7,8.6l3.8,4.6l4.1,2.4l2.4-2l8.3-1l1-2.7l3.4-1.3
		v-2.7l3.4-4.3l2.7-1.3l7.9,1l7.6-4.3l6.2,3.3l2.4-1.3l8.3,5.7l10.3,1.6l0.4,4l2.8,0.6l3.8,6l3.4-0.3l3.4,2h2.8l1.7-4.3l2.7-0.6
		l15.2,3.6l1-3l-2.1-1.6l-1.7-5.3h3.1l0.7-3.6l10.3-4l5.2,2.7l3.4-1.6l2.4-4l1.7,0.3l2-4.3l3.1,1l1-2.7l2.8,1.6l5.8,0.3l1-3.3
		l2.7-1.3l2.8,3l4.5-1.6l2.8,1.6l4.1-1.6l2.4,5.7l4.5,4.3l5.5-2.4l7.9,0.3l-0.3,0.6l-1.7,0.6l1,0.6l0.3,0.3v0.3v0.3v0.3v0.3
		l-0.3,0.6h-0.3v0.3v0.3h-0.3l-1,1.3l1.4,0.6v0.3l-0.3,0.3h-0.3l-1,1.3h0.3v0.3h1.4h0.3v0.3l-1.7,2l0.4,1h0.3l1,0.6v0.3v0.3v0.3
		h-0.6l-0.3,0.3l0.3,0.3l1,1.3l0.7,0.3l0.3,0.3h0.7l0.7,0.6l-0.3,1l0.7,0.6l0.3,0.6l1.4,0.6l0.7-2.7l1,0.3l0.7-0.6h0.3h2.4l0.7,1v1
		h0.3v0.3l1.4,1.3l1.4-0.6h0.3v-0.3v-0.6l1.4,0.3l1,0.3h0.3v0.6l0.7,0.3h0.3l1.7,0.6v0.3h0.3h0.7h0.3l0.7,1.3v-1l0.3,0.3l1,0.3
		l0.3,0.3v0.3l-0.7,0.6v0.3h-0.3l-0.3-0.3l-0.3,0.6h-0.3l-1.4,1.3v0.3l-1-0.3h-0.3l-0.3,0.3l0.3,0.3h0.3v0.3v0.3l-0.3,0.3l-0.7,1.3
		h1l0.3,0.3h0.3v0.3v0.6v0.3l-1,0.3h-0.3h-0.3l-1.4-1.3l0.4,2.4l0.3,0.6l-0.3,4.3l-3.8,0.3l1.4,2.7v0.3l-3.1-2.7H526l0.4,1l-0.3,0.3
		l-1,2l-3.5-2l-2.8-0.6l-1.1-3.6h-2.4l-5.1,5.7l-2,6.3l1.8,14.3h0.3v0.6v0.3v0.3l1.7,0.6v0.3l0.4,2l2.8-0.3l1,0.3l0.7,0.3l1.4,0.3
		l-0.7,1.6l1,0.3l1,0.3v0.3h0.3l1.4,3l1.4,2.4l0.7,1.6v0.3v0.3l0.3,0.6v0.6v0.3h-0.3v0.3l-1.7,0.3l-0.6,7l2.5,9h1.4v0.6h0.3l0.7,0.3
		v0.3v0.3h0.3h0.3v0.3v1l0.4,1v-0.6h0.3l-0.3,0.6v0.3h-0.3v0.3v0.3l-0.3,1v0.3h-0.2v0.3l-0.3,0.3h-0.3l-0.3,0.3v0.6H525v0.3
		l-0.3,0.3h0.3l0.3,0.3l-0.3,1l0.3,0.6v0.3H525l0.3,0.6H525v0.6l-1.4,1l0.4,1h-0.3v0.3h0.3v0.3v0.3v0.3l-0.7,0.3v0.3v0.3v0.3H523
		l-0.7,0.6h-0.7h-0.4l0.3,0.3l-0.3,0.3l-0.3,0.3h-0.3h-0.7v0.3v0.3v0.3v0.3h-0.3l-0.3,0.3v0.3l0.3,0.3l-0.3,0.6v0.3v0.3v0.3l-1,1
		H518h-0.3l-0.3,0.3h-0.3v0.3l-1.4-0.3h-0.3l-0.7,0.6l-0.7,0.6v1.3h-0.3h-0.3L512,388l-2.4-1.6l-3.1,2.4v0.3v0.3v0.3h-0.3l-0.7,1
		h-0.3v0.3h-0.3v0.3h-0.3v0.3h-0.3l-2.7,6v0.3l-0.3,1H501h-1.4v0.3v0.3l0.3,0.3l-0.7,0.6l-0.3,0.3h-1.7l0.4,1v0.3h-0.7l-3.8,0.6v0.3
		l-0.3,0.3l-2.8,1l-0.3,0.3l-0.7,0.3v0.3v0.3h-0.7l-0.7,1.3l-0.3,0.3l-0.7,1h-0.3l-0.7,2l-0.7,0.3l-0.7,0.6h-0.3l-0.3,1l-4.1,2.7
		l-2.4,1h-0.3l-1.4,0.3l-2.4,0.3v0.3h-0.7h-0.7l-2.4,0.6l-0.3,0.3h-0.3l-0.3,0.3l-1.7,0.3h-1.4l-0.3,0.3h-0.3l-0.7,1.3h-0.3l-1,1
		v0.3l-0.7,0.3l-1.7,0.6l-2.1,4l-3.1-5.7l2.4-4.3l-0.7-5.3v1.2l0.6-1.3l-12.3-1.3l-2.1-0.6v1.3l-3.8-1.6l-2.4,0.6l-1.7,2.6
		l-14.1,1.9l-3.1-7.8l-7.3-3.6l0.3-2.3l-2.4,1l-2.2-1.2l-0.9-2.6l-12.3-0.7L389.4,388.6z"/>
	<path class="st19" d="M109.9,654.9l-12.1-5.3l-0.7-3.6l1.7-2.6l-5.9-3l-0.3-2l-10.1-1l-8.7-3.9l-2.4-3.9l0.4-2.6l3.8-5.2l-4.8-4.3
		l-3.8,1l-1.7-6.2l-4.2,1.6l-4.2-1.6l-1-2l-0.7-1.3l2.4,1.6v-2.9l2.1,1l3.5-3.6l2.4,0.3l1.4-4.6l6.3-6.9l-2.8-3.9l-0.3-1l-0.3-5.6
		l-2.4-2l8.4-18h-1.7v-2.9l-2.1-2.6l1-1l-2.4-1.3l0.4-1.6l2.8-0.3l-2.8-1l-2.1-2.9l-2.4,1.3v-2.6l-2.4,0.3l2.1-1.3l-1.7-1.6l0.4-2.3
		l-0.7-2.6h-2.4l1.4-6.5l-1.4-1.3l3.1-2l-1-0.7l5.2,1.3l0.7-4.2l3.5,0.3l4.5-2.9l2.1-11.1l3.5-2.6l2.8,1.3l0.7-2.3h2.8l-1-2.6
		l1.8-5.9l7.3,0.7l0.4-9.1l4.2-2.9l6.5,9.1h3.5l4.2-7.5l4.1,1.3l3.4,5.5l3.5,0.3l5.9-2.9l0.7-0.7h0.3h0.7l11.8-1.6l1.7-3.6l2.4,0.7
		h1h1v0.3l3.8,0.7l0.7-1.3l0.3-1l0.7-3.9l1.7-1l3.8,4.9l13.5-2.9l2.1-0.7l-0.3-2.3l2.8-4.9l1.7,0.7l1.4-3.3l4.2-1l2.8-5.5l1.4-1.3
		l0.3-0.3l2.1-2l0.7-1l-2.1-1.3l-3.8-2.9l1.4-0.7l-1-3.6l10.4,5.5v1.3l11.1-3.9l-2.4-5.2l1.7-3.6l-1.7-1l1.4,0.7l-0.7-1.6l6.9-2
		l0.4-3.6l4.8-0.3l8.6-0.3l15.5,2.6l-1.7-3.6l4.5-1.3l4.8,2.6l-3.5,2.6l0.3,1.3l2.1-0.6l0.3,3.3L248,450l-1.7,4.6l7.6,3.6l0.7,1.6
		h3.5l1.7,3.3h0.3l-2.8,5.2l0.7,1.6l2.8,0.3l-2.4,1.3l1,1.6l1,4.2l-2.4,3.6l5.2-2.6l4.8,2l2.1,3.3h2.8l1,2.3h0.3l-3.1,2.6l2.1,5.5
		l3.5,1.3l-0.7,3.3l3.5,2l0.3-1.6l3.5-0.7l-1.4,0.3l-1,8.1l-8-1.3l1,3.6l7.3,3.9l2.4-2.3l1,4.6l-0.3,3.3l-20.4,3.6l-6.9,2.3
		l-11.1,7.2l-5.2,0.3l-10,0.3l-7.3,3.9l-3.5,4.2l3.5-4.2l-2.8,1.6l-2.8-0.7l-3.5,3.3l-2.8,6.5h-1.7l-2.4-3.3l-3.8-0.7l-5.9,2.6
		l-5.5-0.3l-10.1,5.2l-6.6,6.5l-0.7,2.6l-5.6,3.3l-5.9,6.2l-10.1,15.7l-6.6,4.3l-1.4,4.6l-6.6,3.9l1,3.6l4.5,4.3l6.9-0.3v-1.3
		l-7.6-2.3l0.7-1.3l3.8-0.3l3.1,2l8.3,10.8l3.8-1l3.1,2l-1.4,6.2l-6.6,5.2l-10.1,4.9l-12.6,16.4l-10.1,2.3l-3.1-3l-0.3-2.3l3.1,0.3
		h0.3h-0.3l0.4-1.6l2.4,0.7v0.3v0.3l0.3,0.3l1,0.3l0.7,0.3h0.3l0.3-0.3v-0.3v-0.7h0.7v-0.3v-0.3l0.7-1.6l8.3-0.3l4.2-6.6l0.7-2.3h-1
		l-0.3-0.3h-0.3l-20.5,3.3l-9.8,11.2L109.9,654.9z"/>
	<path class="st20" d="M293.9,379.1v-1.6l2.8,1l-0.7,1.3L293.9,379.1z M192.3,470l-2.8,5.5l-4.2,1l-1.4,3.3l-1.7-0.7l-2.8,4.9
		l0.3,2.3l-2.1,0.7l-13.5,2.9l-3.8-4.9l-1.7,1l-0.7,3.9l-0.3,1l-0.7,1.3l-3.8-0.7v-0.3h-1h-1l-2.4-0.7l-1.7,3.6l-11.8,1.6h-0.7h-0.3
		l-0.7,0.7l-5.9,2.9l-3.5-0.3l-3.4-5.5l-4.1-1.3l-4.2,7.5h-3.5l-6.5-9.1l-4.2,2.9l-0.4,9.1l-7.3-0.7l-3.1-5.2l0.7-2.9l-3.1-1.6
		l3.8-5.2l-1.7-3.3l-6.5-5.2l2.4-2.6l3.2-9.1l-1.7-1.6l-0.3-4.6l6.6-0.3l2.8-2l6.6-10.7l-2.4-3.2l-0.3-7.5l-3.8,1.6l-8.3-1.3
		l-0.3-4.5l1.7-1.9L82,425v-3.2l6.6-7.5l2.4-5.2l1.4,1.6l0.7-5.2l11.1-1.6l1.8-6.8l5.2-4.5l4.1,0.6l1.8-6.5l4.1,0.3v-2.6l4.1-1.6
		l-2.4-2.6l1.4-4.9l-1-1.3l2.1-0.6l-6.9-2.9v-1.3l4.5-5.8l1.7,1.6l3.1-6.5l2.4-0.3l0.3,2.3l0.7-2.9l1.7-0.6l1-2.9l-1.4-0.6v-3.6
		l2.4-1.9l-0.3-2.9l4.9-9.1l-0.7-9.4l2.8-1.9l-1.7-1.3v-4.2l1.7-6.8l3.1-4.8l1.8-10.6l3.1-4.2l-3.4-1v-1.9l4.5-2.9l-7.6-2.9l3.5-3.9
		l-8.2-19.7l1.4-2.3l2.1,1.3l4.1-3.2l-3.1-1.6v-2.3l0.7-1.6l3.8-0.6l-1.4-1.6l4.2-12.2v-1.3l-3.4-0.6l-5.8-1.3l-1.7-7.4l-3.1-3.5
		l-2.4-2.9h2.4l1-2.9l-3.1-9.3l-3.1-0.3l3.8-4.5l-3.1-1.6l3.8-3.5l-1.7-7.4l3.1-1.9l-0.3-1.3l4.5-1.3l10.6,5.1l3.1-1l9.3,2.9
		l10.3,7.4l5.8-3.2l2.7,3.5h7.9l1.7,1.3l4.5-0.3l0.7-1.3l7.9,6.7l0.7,5.5l4.8,3.9l10.3-3.9l3.1,2.6l11-1.9l4.8,1l-0.7,3.9l5.8,2.6
		l-0.3,3.9l3.8,2.2l1,6.4l3.4,4.2l-2.4,4.5l2.7,2.6l-2.7,1.6l-2.1,4.8l4.8-1.6l3.8,6.8l-7.6,4.5l3.1,1.9l0.3,6.8l2.1,1.6l14.8,0.6
		l1-5.2l3.4,1.6l1.4-2.9l10.3-0.6l1.7-7.4l2.1,2.3l3.4,0.6l3.1-2.9l0.7,2.6l-1,1l1.4,9.3l5.8,2.3l3.8-0.3l2.1,2.6l-1.4,8.1l1.4,1.6
		l3.1-2.6l4.1,2.6l-3.1,2.9l1,9.7l-1.7,1h-4.1l-3.8,1.9l-6.2,0.3l-0.7,1.3l-2.8-1l-7.2,1.3l3.1,1l0.7,2.6l-1.4,1.6l3.1,3.2l-0.7,1.9
		l-3.1,1.3l0.7,3.6l3.4,3.2l1.7-1.3l3.1,1.3l-0.3,1v1.6v0.3l0.3,2.6l-1.4,0.6l-3.4,1.9l-1.4,4.2l1.4,1l-0.3,3.6l2.8,2.3l-1,1.9
		l-3.8-0.6l-2.8,6.1l-0.7,2.6l1.4,1l0.7-1.9l2.4,4.2l-3.8,1.6l-1,3.2l-0.3-3.6h-1.4l-1.4,4.2l1,1.6l1-2.3v2.3l3.8-0.3l1.7,1.9v-6.1
		l3.4,3.2l-0.7,1.6l0.3,1.6l-5.2,3.2l-2.1-1.3l1-1.9l-3.8,1l-0.3,6.5l-1,1l1.7,2.6h-1.7h-0.1l-8.3,8.1l-1.4-1l-1.4,2.6l2.4,1.3
		l2.4-2.3l2.8,0.6l0.7,1.6l1.4,5.8l-3.1,1.3v3.9l-3.4,2.6l1.7,3.2l-1,2.3l-2.8-1l-2.1,1v1.6l-2.1-0.3l-0.3,2.9l-2.4,1v-2.6l-1-0.3
		l-1.7-1l-0.3-0.3v-0.3l-0.3-0.3l-0.3-2.6h-2.8l-1,3.6V403l-1.4,0.3v-5.8l-1.7,0.3h-1.6l-3.8-0.6l-1.4,1.3l-2.1,10.1l3.1,2.6
		l-6.2,5.2l2.4,0.3l-0.7,1.9l1.4,1.9l3.1,0.3l-1.4,1.9l3.8,5.2v0.3h1.7v1.3l-3.1,2.3l-5.5-1.3l-5.2,4.2l7.3,2.9l-2.4,4.9l1.7,3.6
		l-15.5-2.6l-8.6,0.3l-4.8,0.3l-0.4,3.6l-6.9,2l0.7,1.6l-1.4-0.7l1.7,1l-1.7,3.6l2.4,5.2l-11.1,3.9V463l-10.4-5.5l1,3.6l-1.4,0.7
		l3.8,2.9l2.1,1.3l-0.7,1l-2.1,2l-0.3,0.3L192.3,470z M291.4,334.4l-3.1-0.6l-4.1,0.3l4.1,1.9h3.1V334.4z"/>
	<path class="st21" d="M288.3,334.4l3.1,0.6v1.6h-3.1l-4.1-1.9L288.3,334.4z M284.3,518.5l0.3-3.3l-1-4.6l-2.4,2.3l-7.3-3.9l-1-3.6
		l8,1.3l1-8.1l1.4-0.3l-3.5,0.7l-0.3,1.6l-3.5-2l0.7-3.3l-3.5-1.3l-2.1-5.5l3.1-2.6h-0.3l-1-2.3h-2.8l-2.1-3.3l-4.8-2l-5.2,2.6
		l2.4-3.6l-1-4.2l-1-1.6l2.4-1.3l-2.8-0.3l-0.7-1.6l2.8-5.2h-0.3l-1.7-3.3h-3.6l-0.7-1.6l-7.6-3.6l1.7-4.6l6.2-0.3l-0.3-3.3
		l-2.1,0.6l-0.3-1.3l3.5-2.6l-4.8-2.6l-4.5,1.3l2.4-4.9l-7.3-2.9l5.2-4.2l5.5,1.3l3.1-2.3v-1.3h-1.7v-0.3L249,422l1.4-1.9l-3.1-0.3
		l-1.4-1.9l0.7-1.9l-2.4-0.3l6.2-5.2l-3.1-2.6l2.1-10.1l1.4-1.3l3.8,0.6h1.4l1.7-0.3v5.8l1.4-0.3v0.3l1-3.6h2.8l0.3,2.6l0.3,0.3v0.3
		l0.3,0.3l1.7,1l1,0.3v2.6l2.4-1l0.3-2.9l2.1,0.3v-1.6l2.1-1l2.8,1l1-2.3l-1.7-3.2l3.4-2.6v-3.9l3.1-1.3l-1.4-5.8l-0.7-1.6l-2.8-0.6
		l-2.4,2.3l-2.4-1.3l1.4-2.6l1.4,1l8.3-8.1h0.3h1.7l-1.7-2.6l1-1l0.3-6.5l3.8-1l-1,1.9l2.1,1.3l5.2-3.2l-0.3-1.6l0.7-1.6l-3.4-3.2
		v6.1l-1.7-1.9l-3.8,0.3v-2.3l-1,2.3l-1-1.6l1.4-4.2h1.4l0.3,3.6l1-3.2l3.8-1.6l-2.4-4.2l-0.7,1.9l-1.4-1l0.7-2.6l2.8-6.1l3.8,0.6
		l1-1.9l-2.8-1.7l0.3-3.6l-1.4-1l1.4-4.2l3.4-1.9l1.4-0.6l-0.3-2.6V322v-1.6l0.3-1l-3.1-1.2l-1.7,1.3l-3.4-3.2l-0.7-3.6l3.1-1.3
		l0.7-1.9l-3.1-3.2l1.4-1.6l-0.7-2.6l-3.1-1l7.2-1.3l2.8,1l0.7-1.3l6.2-0.3l3.8-1.9h4.1l1.7-1l9.3-3.5l5.9,1.6l0.3,1.3l1.4-1.3
		l4.8,3.5l5.2-2.6l7.9,3.9l-2.4,2.3v0.3l-2.7,3.9v0.3l-1,1l-0.3,2.3v0.3l-1.4,1.9l1.7,2.9l2.8-1.3v0.3l0.7,5.2l1.7,0.3l-0.3,2.9
		l-4.5,0.3l-1.7,2.6l-2.4,0.3l-1.4-1.9l1.4-2.3l-1-1.6l1.4-0.3l-6.5-1.3l0.4,4.2l3.8-0.6l2.1,5.5v1l4.1-0.6l1,1.9l3.4,1.3l4.8-1.6
		l1.4,3.9l4.1,1.9l2.4-3.2l6.5-0.6l0.7,2.3l2.4-1.6l0.7-1.6h0.3l0.3-0.3l1-0.3l2.1-0.3l2.8,1.3l2.8-1v0.3l1,0.3l2.4,1.6l1,1.9v0.3
		l-1,3.6l3.4-2.3h0.3l3.8-1.3h1.7v0.3l2.8,0.6l0.7,2.3h3.1l-0.7,2.3l2.1,3.9l3.1,2.3l3.4-2.6l1.7-0.3l2.8,0.3l0.7,1.6h0.3V344h0.3
		l1.4,1.9l-2.4,1.3l3.5,4.2l-1.4,1.8l0.7,3.9l-4.8,1.6l3.1,1.9l-2.1,2.9l-6.2-0.6l-0.7,1.6l2.1,1.9l-0.3,2.6l3.1,0.3l0.3,0.3
		l2.4,1.6l0.4,2.9L407,379l-2.1,0.3V379l-3.8-0.6l-3.4,4.2l-1.4,0.3l-1-2.3l-4.8-1l-1.7,1.6l0.7,4.9l3.5,10l12.8,0.6l1,2.9l2.1,1
		l2.4-1l-0.3,2.3l7.3,3.6l3.1,7.8l14.1-2.1l1.7-2.6l2.4-0.6l3.8,1.6v-1.3l2.1,0.6l12.4,1.3l-1,1.6v0.3l0.7,5.2l-2.4,4.2l3.1,5.5v0.3
		l-21,9.1H437l-26.2,11.7l-15.3,11.3l-15.9,6.2l-12.7,20.1l-1,1.3l1.7-5.5l-2.4,5.5l-3.1,1.3l-0.7,3.3l2.1-2.6l-1,4.2l-5.5,6.5
		l-14.2,4.9l-13.2,0.3l-12.8,5.9l-6.6-0.3l-3.8,2.6L284.3,518.5z M293.9,379.6l2.1,0.6l0.7-1.3l-2.8-1L293.9,379.6z M341.7,333.4
		l1.7-0.6l-1.4-1.6l-2.8,1.3l-0.3,1v0.3l0.7,2.3l1.7-0.3L341.7,333.4z"/>
	<path class="st22" d="M371.3,463.1L371.3,463.1L371.3,463.1L371.3,463.1L371.3,463.1l0.1-0.1l0,0l0,0l0,0v-0.1v-0.1l0,0l0,0l0,0
		h0.1h0.1h0.1l0,0l0,0l0,0v-0.1l0.1-0.1l0.1-0.1l0,0v-0.1l0,0l0,0v-0.1v-0.1v-0.1V462l0,0l0,0l0,0l0,0l0,0l0,0l0,0l0,0l0,0h-0.1
		h-0.1l0,0l0,0l0,0l0,0l0,0l0,0l0,0l0,0l0,0l0,0h-0.1l0,0l0,0l0,0h-0.1l-0.1-0.1l0,0l0,0l0,0l0,0l-0.1-0.4l0,0l0.1-0.1l0.2-0.2
		l0.2-0.2l0.2-0.3v-0.1v-0.1l-0.1-0.3v-0.1V460l0,0l0,0h0.2h0.1l0.5-0.3l0.1-0.1l0.1-0.1v-0.1v-0.1l0.1-0.2h0.1h0.1l0.2,0.1l0.2-0.1
		l0.1-0.1l0.2-0.1h0.2h0.2l0.2,0.1l0.3,0.1l0.2,0.1h0.2h0.1h0.1l0,0h0.1l0.2,0.1h0.1h0.2h0.2h0.1l0,0v0.1v0.1v0.1v0.1l0,0l0,0h0.1
		v0.1v0.1l0,0l0,0l0,0l0,0l0,0l0,0l0,0l0,0l0,0v0.1l0,0v0.1l0,0l0,0l0,0l0,0l0,0l0,0l0,0l0,0l2,2.8v0.1l0.1,0.2l0.2,0.3l0.2,0.4
		l0.1,0.2l0.2,0.2l0.2,0.3l0.2,0.4h-0.1l0,0l0,0l0,0l0,0l0,0l0,0l0,0l0,0l0,0l0,0l0,0l0,0l0,0l0,0l0,0l0,0l0,0h-0.1l-0.1,0.1l0,0
		l0,0l0,0l0,0h-0.1l0,0l0,0l0,0l0,0l0,0l0,0l-0.1,0.1l0,0l0,0l0,0l0,0l0,0l0,0l0,0H379l0,0l0,0l0,0l0,0l0,0l0,0l0,0l0,0l0,0l0,0l0,0
		l0,0l0,0l0,0l0,0l0,0l0,0l0,0l0,0l0,0l0,0l0,0l0,0l0,0l0,0l0,0l0,0l0,0l0,0l0,0l0,0l0,0l0,0l0,0l-0.1,0.1l0,0l0,0l0,0l0,0l0,0l0,0
		l0,0l0,0l0,0l0,0l0,0l0,0l0,0l0,0l0,0v0.1l-0.2,0.2v0.1l0,0v0.1l0,0l-0.1,0.1l0,0l0,0l0,0l0,0l0,0l0,0l0,0l0,0l-0.1,0.1v0.1v0.1
		l-0.1,0.1l-0.1,0.1v0.1v0.1v0.1l0,0v0.1v0.1v0.1l-0.1,0.1v0.1v0.1l0,0l0,0l0,0v0.1l0,0v0.1l0,0l0,0l0,0l0,0l0,0l0,0l0,0l0,0l0,0
		l-0.1,0.2v0.1v0.1l0,0v0.1l0,0v0.1l0,0l0,0l0,0l0,0l0,0l0,0l0,0l0,0l0,0l0,0l0,0l0,0l0,0H378l0,0h-0.1l0,0l0,0l0,0l0,0l0,0l0,0h0.1
		l0,0l0,0l0,0l0,0l0,0l0,0l0,0l0,0l0,0l0,0l0,0l0,0v0.1l0,0l0,0l0,0l0,0l0,0l0,0l0,0l0,0l0,0v0.1l0,0l0,0l0,0l0,0l0,0l0,0l0,0l0,0
		l0,0l0,0v0.1l0,0v0.1l0,0l0,0l0,0l0,0v0.1l0,0l0,0l0,0l0,0l0,0l0,0l0,0l0,0l0,0l0,0l0,0l0,0l0,0l0,0l0,0l0,0l0.2-0.9l-0.4-0.1
		l-0.1,0.2l-0.1,0.3l0.4,0.1v0.1l-0.4-0.1v0.1h0.1l0,0l0,0l0,0l0,0v0.2l0.2,0.1v-0.2l0,0l-0.1,0.2h-0.1l0,0l0,0l0,0l0,0l0,0l0,0l0,0
		l0,0l0,0l0,0l0.1,0.1l0,0l0,0l0,0l0,0l0,0l0,0l-0.1-0.1l0,0l0.2,0.1l0,0l0,0l0,0l0,0l0,0l0,0l-0.1-0.1l0,0l0,0l0,0l0,0l0,0l0,0v0.1
		v0.1l0,0v0.1v0.1v0.1l0,0l0,0l0,0l0,0l0,0l0,0l0,0l0,0l0,0l0,0l0,0l0,0l0,0l0,0l0,0l0,0l0,0l0,0l0,0l0,0l0,0l0,0l0,0v0.1l0,0l0,0
		l0,0l0,0l0,0l0,0l0,0l0,0l0,0v0.1l0,0v0.1l0,0l0,0l0,0l0,0l0,0l0,0l0,0l0,0l0,0l0,0l0,0l0,0v0.1l0,0l0,0l0,0l0,0v0.1v0.1v0.1v0.1
		v0.1v0.1l0,0v0.1l0,0l0,0l0,0l0,0l0,0l0,0l0,0l0,0l0,0l0,0l0,0l0,0l0,0l0,0l0,0l0.1,0.1l0,0l0,0l0,0l0,0l0,0l0,0l-0.1-0.1l0,0l0,0
		l0,0l0,0v0.1l0,0l0,0l0,0l0,0v0.1l0,0l0,0v0.1v0.1v0.1l0,0l0,0l0,0l0,0h0.1l0,0l0,0v-0.1l0,0l0,0l0,0l0,0l0,0l0,0l-0.4,0.8
		l-0.2,0.4l0,0l0,0l0,0l0,0l0,0l0,0l0,0l0,0l0,0l0,0l0,0l0,0l0,0l0,0l0,0l0,0l0,0l0,0l0,0l0,0l0,0l0.2-0.4l0.3-0.7l0,0l-0.4,0.2
		l0.1,0.2l0,0l0,0l0,0l-0.1-0.1l-0.2,0.1l0,0l0.1-0.1l-0.2-0.4l0,0l-0.1,0.2v0.1l0,0v0.1l0,0l0,0l0,0l0,0l0,0l-0.1,0.1l0.1,0.1
		l0.1-0.2h0.2l0,0l0,0l0.1,0.1l0,0l0,0l0,0l0.2,0.2l0,0h-0.1l0,0h0.1l0,0l-0.1,0.3l0,0l0,0l0,0l0,0l0,0l0,0l0,0l0,0l0,0l0,0l0,0l0,0
		l0,0l0,0l0,0l0,0l0,0l0,0l0,0l0,0l0,0l0,0l0,0l0,0l0,0v-0.1h-0.1l-0.1,0.1h-0.1l0,0l-0.1,0.1l0,0l0,0l0,0l0,0v0.1v0.1l0,0l0,0l0,0
		l0,0l0,0l0,0l0,0l0,0l0,0v0.1l0,0v0.1l0,0l0,0l0,0l0,0l0,0l-0.1,0.1l0,0l0,0l0,0l0,0l0,0l0,0l0,0l0,0l0,0l0,0l0,0l0,0l0,0l0,0l0,0
		l0,0l0,0l0,0l0,0l0,0l0,0l0,0l0,0l0,0l0,0l0,0l0,0l0,0l-0.1-0.1v0.1l0.1,0.1l0,0l0,0l0.1,0.1l0,0l0,0l0,0l0,0l0,0l0,0l0,0l0,0l0,0
		l0,0l0,0l0,0l0,0l0,0l0,0l0,0l0,0l0,0H377l0,0l0,0l-0.1,0.1l0,0l0,0l-0.1,0.1l0,0l0,0l0,0l0,0l0,0l0,0l0,0l0,0l0,0l-0.1-0.1
		l-0.1,0.1l0.1,0.1l0,0l0,0l0,0l0.1,0.1l0,0l0,0l0,0l0,0l0,0l0,0l-0.3-0.3l0,0l0,0l-0.2,0.1l0,0l0,0l-0.1,0.2v0.1l0,0l0.2,0.2l0,0
		l0,0l0,0l0,0l0,0l-0.2-0.2l0,0l0,0l-0.1,0.1v0.1v0.1l-0.1,0.1l-0.1,0.2l0,0l0.2,0.2l0,0l0,0l0,0l0,0l0,0l0,0l0,0l-0.1-0.1l-0.1-0.1
		h-0.1l-0.1,0.1l-0.1,0.1l-0.1,0.1l-0.1,0.1l-0.1,0.1v0.1v0.1l0.2,0.2l0,0l-0.1-0.1l0,0l0.1,0.1l0,0l-0.2-0.2h-0.1l-0.1,0.1
		l-0.1,0.1l-0.1,0.1l-0.1,0.1l-0.1,0.1l-0.1,0.1v0.1l0.2,0.2l0,0l-0.2-0.2l0,0l0.2,0.2l0,0l-0.2-0.2l0,0l0,0l0,0h-0.1l-0.1,0.1
		l-0.1,0.1l0,0v0.1v0.1v0.1l0,0l0,0l0,0l0.2,0.2l0,0l0,0l0,0l0,0l0,0l0,0l0,0l0,0l0,0l0,0l0,0l0,0l-0.1,0.1l0.1,0.1v0.1l-0.1,0.1
		l-0.1,0.1l-0.1,0.1l-0.1,0.1l-0.1,0.1h-0.1h-0.1l0,0h-0.1l0,0l0,0l0,0l0,0l0,0l0,0l0,0l0,0l0,0l0,0l0,0l0,0l0,0l0,0l0,0l0,0l0,0
		l0,0l0,0l0,0l0,0l0,0l0,0l0,0l0,0l0,0l0,0l0,0l0,0l0,0l0,0l0,0l0,0l0,0l0,0l0,0l0,0l0,0l0,0l0,0l0,0l0,0l0,0l0,0l0,0l0,0l0,0l0,0
		l0,0l0,0l0,0l0,0l0,0l0,0l0,0l0,0l0,0l0,0l0,0l0,0l0,0l0,0l0,0l0,0h0.1l0,0l0,0l0,0l0.1-0.1l0.1-0.1l0,0l0.1-0.1L374,476l-0.2,0.2
		l0,0l-0.1,0.1l-0.1-0.1l0.3-0.3l-0.2-0.2l-0.3,0.3l0,0l0,0l0.2,0.2l0,0l0,0l0,0v0.1l0,0l0,0l0,0l0,0l0,0l-0.1,0.1h-0.1l-0.1-0.1
		v0.1l0,0v0.1l0,0l0,0h-0.1l0,0l0,0h-0.1l0,0l0,0l-0.1,0.1l0,0v0.1l0,0v0.1v0.1v0.1l0,0l0,0l0,0l0,0l0.2,0.1l0,0L373,477l0,0l0,0
		l0,0v0.1l0,0l0,0l0,0l0.2,0.1l0,0l-0.3-0.1l0,0l-0.1,0.1l-0.1,0.1l0,0l-0.1,0.2v0.1v0.1l0,0v0.1v0.1l0,0l0,0l-0.1,0.1l-0.1,0.1
		l-0.1,0.2l-0.1,0.3v0.1v0.1v0.1v0.1l0,0v0.1v0.1v0.1l0,0v0.1l0,0l0,0l0,0h0.1l0.1-0.1l0,0l0,0l0,0l0,0l0,0l0,0l0,0l0,0l0,0
		l-0.6,1.3l0,0l0,0l0,0l0,0l0,0l0,0v0.1l0,0l0,0v0.1l0,0l0,0l0,0l-0.2,0.8h-0.1l0,0h0.1l0,0l0,0l0.2-0.7l0,0l0,0l0,0l0.1-0.3l0,0
		l0,0l0,0l0,0l0,0l0,0l0,0l0,0l0,0h0.1l0,0l0,0l0,0l0,0l0,0l0.3-0.6l0,0l0,0l0,0l-0.2-0.1l0,0l0,0v0.1l0,0v0.1v0.1v0.1l0,0v0.1
		l-0.1,0.1l0,0l0,0l0,0l0,0l0,0l0,0h0.1l0,0l0,0l0,0l0,0l0,0H372l0,0l0,0l0,0v-0.1l0,0l0,0l0,0l0,0v-0.1l0,0l0,0v-0.1l0,0l0,0l0,0
		v0.1l0.2-0.3v-0.1v-0.2l0,0v-0.3H372v0.3l0,0l0,0l0,0l0,0l0,0l0,0l0,0h-0.1l0,0l0,0v-0.1h-0.1l0,0l0,0v-0.4l0,0l0,0v-0.1l0,0
		l0.4,0.1v-0.1H372V479v-0.2h0.2v-0.2h-0.1H372l0.1-0.3l-0.1-0.1l-0.1,0.1v0.4h-0.1l0.1-0.5l0,0l0.2-0.1l0,0V478v-0.2H372l0,0h0.1
		l-0.1-0.4l0,0v-0.1l-0.2-0.1h-0.2l0.2,0.7l0,0l0,0l0,0l-0.3,0.5l0,0l-0.2-0.1v-0.1l0.3-0.4l0,0l-0.1-0.4l0,0l-0.7,1.1l0,0l0,0
		l0.7,0.4l0,0l0,0l0,0l-0.1,0.2l0,0l0,0l0,0l-0.7-0.4l0,0l0,0l0,0v0.5h0.1v0.1h-0.1v0.4l0,0v0.1l0.5,0.2l0,0l0.1,0.1l0,0l0,0
		l-0.2,0.4H371v-0.1l-0.5-0.2l-0.4,0.7h0.1l0,0l0.5,0.2l-0.2,0.4l-0.7-0.3l-0.2,0.3l0.5,0.4l-0.9,1.9l-0.5-0.3l0,0l0,0l0,0h-0.1
		h-0.1l0,0l0,0l0,0l-1.4,1l-0.1,0.1h-0.1l0,0l0,0v-0.3h-0.1v-0.2h-0.1V484h-0.1v0.1l0,0V484h-0.1l-0.2,2h-0.6l0,0l0,0l0,0l-0.2,0.3
		l0.3,0.1l0.2,0.1l-0.2,0.5l0,0v0.1l0.4,0.2l0,0l0,0l0,0l0,0l0,0l0.1-0.1l0,0l0,0l0,0l0,0l0,0l0,0l0,0l0,0l0,0l0,0l0,0v-0.1l0,0l0,0
		l0,0l0,0l0,0V487l0,0l0,0v-0.1l0,0l0,0l0,0l0,0l0,0l0,0l0,0l0,0l0,0l0,0l0,0l0,0l0,0l0,0l0,0v-0.1l0,0l0,0l0,0l0,0l0,0l0,0l0,0l0,0
		l0,0l0,0l0,0l0,0l0,0l0,0l0,0l0,0l0,0l0,0l0,0l0,0l0,0l0,0l0,0v-0.1l0,0l0,0l0,0l0,0l0,0l0,0l0,0l0,0l0,0l0,0l0,0l0,0l0,0l0,0l0,0
		v-0.1l0,0l0,0v-0.1l0,0l0,0l0,0l0,0l0,0l0,0l0,0l0,0l0,0l0,0l0,0l0,0l0,0l0,0v-0.1l0,0l0,0l0,0l0,0l0,0l0,0l0,0l0,0l0,0l0,0l0,0
		l0,0l0,0l0,0l0,0l0,0l0,0l0,0l0,0l0,0l0,0l0,0l0,0l0,0l0,0l0,0l0,0l0,0l0,0l0,0l0,0l0,0l0,0l0,0l0,0l0,0l0,0l0,0l0,0l0,0l0,0l0,0
		l0,0l0,0l0,0l0,0l0,0l0,0l0,0l0,0l0,0l0,0l0,0v-0.1l0,0l0,0l0,0v-0.1l0,0v-0.1l0,0l0,0l0.1-0.1l0,0v-0.1l0,0l0,0l0,0l0,0l0,0l0,0
		l0,0l0,0l0,0l0,0l0,0l0,0l0,0l0,0l0,0l0,0l0,0l0,0l0,0l0,0l0,0l0,0l0,0l0,0l0,0l0,0l0,0l0,0l0,0l0,0l0,0l0,0l0.1-0.1l0,0l0,0l0,0
		l0,0l0,0l0,0l0.3,0.1l0,0v0.1l0,0l0,0l0,0l0,0l0,0l0,0l0,0l0,0l0,0l0,0l0,0l0,0l0,0l0,0l0,0l0,0l0,0l0,0l0,0l0,0l0,0l0,0l0,0
		l0.3,0.1l0,0l0,0l0,0l0,0l0,0l0,0l0,0l0,0l0,0l0,0l0,0l0,0l0,0l0,0l0,0h0.1l0,0l0,0l0,0l0,0l0,0l0,0l0,0l0,0l0,0l0,0l0,0l0,0l0,0
		l0,0l0,0l0,0h-0.1l0,0l0,0v0.1l0,0l0,0l0,0l0,0l0,0l0,0l0,0v0.1h0.1v-0.1l0,0v0.1h-0.1l0,0l0,0l0,0l0,0l0,0l0,0l-0.1,0.2l0,0l0,0
		v0.1v0.1l0,0l0,0h0.1l0,0l0,0l0,0H367l0,0h-0.1v0.1v0.1v0.1v0.1l0,0v0.1l0,0l0,0v0.1l0,0v0.1l0,0l0,0v0.1l0,0l0,0l0,0l0,0v0.1l0,0
		v0.1l0,0l0,0l0,0v0.1l-0.1,0.1v0.1v0.1v0.1l0,0v0.1l0,0l0,0l0,0l0,0l0,0l0,0l0,0l0,0v0.1l0,0l0,0l0,0l0,0l0,0l0,0l0,0l0,0v-0.1l0,0
		l0,0l0,0h-0.1h-0.1h-0.4h-0.1l0,0l0,0l0,0l0,0l0,0l0,0l0,0l0,0l0,0l0,0l0,0l0,0l0,0l0,0l0,0l0,0l0,0l0,0l0,0l0,0l0,0l0,0l0,0l0,0
		l0,0l0,0l0,0v0.1l0,0l0,0l0,0l0,0l0,0l0,0v0.1v0.1v0.1v0.1v0.1v0.1v0.1v0.1l0,0v0.1l0,0l-0.1,0.3h-0.1h-0.2h-0.2h-0.2h-0.2h-0.7
		h-0.2h-0.3h-0.4h-0.2h-0.1H363h-0.2h-0.3h-0.1h-0.2l-0.3-0.1l-0.3-0.1l-0.3-0.1l-0.2-0.1l-0.2-0.1l-0.2-0.1l-0.2-0.1l-0.1-0.1h-0.1
		l-0.1-0.1l-0.2-0.1l-0.1-0.1l-0.2-0.4l-0.2-0.3l-0.1-0.2l0,0v-0.1l-3.9,3.7l-0.2-0.2l-0.1-0.1l-0.1-0.1l-0.1-0.1l-0.1-0.1l0,0l0,0
		l0,0l0,0l0,0l0,0l-0.2-0.1l0,0l0,0v-0.1l0,0l0,0l0,0v-0.1v-0.1v-0.1l0,0l0,0l0,0l0,0l0,0h-0.1l0,0l0,0h-0.1l0,0l0,0l0,0l0,0l0,0
		l-0.2-0.1h-0.1h-0.1H354l0,0l0,0l0,0l0,0l0,0h-0.1l0,0l0,0l0,0l0.5-0.5l0,0l-0.4-0.2l-0.6-0.4l0.1-0.1l0.2-0.2l0.1-0.1l0.5-0.3
		l0.7-0.4l-0.4-0.9v-0.1l-0.2-0.3l-0.1-0.2h-0.1l0,0l0,0l0,0l-0.1-0.2L354,486l-0.1-0.1l0,0l-0.1-0.2l-0.1-0.2v-0.1l-0.3-0.2
		l-0.1-0.1V485v-0.2v-0.1l0.2-0.4h0.1h0.3l0.2,0.1v0.2l0.2,0.1l0.7-0.3l-0.1-0.3l0.4-0.8v-0.1l-0.2-0.4l0.3-0.1l0.1-0.1v-0.1l0,0
		l0.2-0.2l0,0v-0.1l-0.1-0.3l0.1-0.2l-0.3-0.3l0.2-0.2v-0.1V481v-0.1v-0.1l-0.2-0.2v-0.1l0.1-0.1l-0.1-0.1l-0.1-0.1l-0.1-0.1
		l-0.1-0.2v-0.1v-0.1v-0.1v-0.2l-0.1-0.1l-0.1-0.1v-0.1V479v-0.1v-0.1l0.1-0.2l0.1-0.1l0.2-0.3l0.1-0.2l0.1-0.1l0.1-0.1l0.1-0.2
		v-0.2l0.1-0.2l0.1-0.2v-0.2l-0.1-0.1h-0.2v-0.2v-0.1v-0.1l-0.1-0.1l-0.1-0.1l-0.2-0.1l-0.2-0.1h-0.1l0,0v0.1l-0.1,0.1h-0.2h-0.2
		H354h-0.2l-0.3-0.1l-0.1-0.1h-0.1h-0.1H353l-0.1,0.1v0.1v0.1v0.1l-0.1,0.1l-0.3,0.2l-0.1,0.1l-0.1,0.2l-0.1,0.1l-0.1,0.1l-0.1,0.1
		l-0.1,0.1h-0.1h-0.1h-0.1l-0.3-0.1h-0.2H351l-0.2-0.4l-0.2-0.3v-0.1l0,0h0.2v-0.1v-0.2l0.1-0.2l0.1-0.1l0.1-0.1l0.2,0.1h0.2h0.2
		h0.2l0.1-0.1l0.1-0.1v-0.1l0.1-0.2v-0.1h0.1v-0.1l-0.1-0.1v-0.1l-0.2-0.1v-0.1l-0.1-0.1l0.1-0.1h-0.1l0,0l0,0v-0.1l0,0v-0.2
		l-0.1-0.2v-0.1v-0.1l-0.1-0.1h0.2h0.2l0.1-0.1h0.2v-0.2v-0.1l-0.1,0.1l-0.4-0.2h-0.1h-0.2h-0.2h-0.1h-0.1V473v-0.1l0.1-0.2h0.1h0.1
		l0.1-0.1l0,0l0.1-0.1l-0.1-0.1l-0.2-0.2h-0.1h-0.1h-0.1l-0.1-0.3v-0.1l-0.1-0.1l-0.1-0.1v-0.1v-0.1v-0.1v-0.1l0.1-0.1h0.1h0.2l0,0
		v0.1v0.1l0,0l0,0l0,0h0.1h0.1h0.1l0,0l0,0v0.1v0.2v0.1l0,0l0,0l0.2,0.1l0.2,0.1h0.1h0.2l0,0l0,0v0.1v0.1l0,0l0,0l0,0l0,0V472v-0.1
		h0.1l0,0l0,0l0.1,0.1v0.1l0.1,0.1v0.1h0.1h0.1l0.2,0.1h0.1l0.4,0.1h0.2l0.1-0.2h0.1h0.1l0,0v-0.1l0.1-0.1l0.1-0.1l0.1-0.2l0.1-0.1
		v-0.1l0,0h0.1l0.1,0.1l0.1,0.1h0.1l0.1,0.1v0.1v0.1l0.1,0.2h0.1h0.1h0.1l0.1,0.1l0.1,0.1v0.1l0,0h0.1h0.3h0.1h0.2h0.3h0.2h0.1h0.2
		h0.2h0.1l0.2,0.1l0.1,0.1l0.1,0.1l0.3,0.2h0.2h0.1l0.1-0.1l0.1-0.2v-0.1v-0.1l0.1-0.1l0.1-0.1l0.3-0.3l0.2-0.2l0.1-0.2l0.1-0.2
		l0.1-0.2V471v-0.2l0.1-0.2v-0.2v-0.3l-0.1-0.3v-0.2l0.2-0.1l0.3-0.2v-0.2l0.1-0.1l0.1-0.1l0.1-0.1h0.1h0.1h0.1h0.1h0.2l0.2,0.1h0.1
		h0.1h0.1h0.2l0.2-0.1h0.1h0.2h0.1l0.1,0.1l0.1,0.1h0.1h0.1h0.1h0.1h0.2h0.1l0,0l0,0l0.1-0.1l0.1-0.2l0.1-0.1l0.1-0.1h0.1h0.1h0.2
		h0.1l0.2-0.1h0.2h0.1l0.1,0.1l0.1,0.1h0.1h0.1v-0.1v-0.1l0.1-0.1h0.1v-0.1l-0.1-0.2v-0.1v-0.1v-0.1v-0.1l0.1-0.1l0.1-0.2l-0.1-0.1
		v-0.1l0,0l0.1-0.2l0.1-0.2l0.1-0.1l0.3-0.2l0,0h0.1l0,0h0.1l0.1-0.1h0.1l0.1-0.1l0,0h0.1l0.1-0.1l0.1-0.1l0.1-0.1l0.2-0.1h0.1h0.1
		h0.1l0.1-0.1h0.4h0.1l-0.1-0.1v-0.1h-0.1l-0.1-0.1v-0.2v-0.1l0.1,0.1h0.2l0.5-0.1h0.1l0.2,0.1l0.1-0.1l0.3-0.6l0.1,0.1h0.1h0.1
		l0.1-0.1l0.1-0.1l0.1-0.1l0.3-0.1h0.3l0.4-0.2l0.1,0.1l0.9,0.5h0.1h0.1h0.1h0.1h0.1L371.3,463.1z M348,470.3L348,470.3l0.2,0.2
		l0.1,0.1h0.1h0.2v0.1v0.1v0.2v0.1l0.1,0.1l0.1,0.1h0.3h0.1l0.1,0.1v0.1v0.1l-0.1,0.2v0.1l0,0l0.4,0.3v0.2v0.2v0.2l0.1,0.2v0.2v0.2
		l-0.1,0.1h-0.1h-0.1l-0.3,0.1H349h-0.2l0,0l0.1,0.1v0.1v0.3l-0.1,0.3l-0.1,0.1l-0.3,0.1l0,0l0,0h-0.2H348l0,0v0.1v0.1v0.1l-0.1,0.1
		h-0.2h-0.1h-0.1l-0.1-0.1l-0.1-0.2v-0.1v-0.1v-0.2l0.3-0.3l0.1-0.2v-0.3v-0.1v-0.1v-0.1v-0.1V473l-0.1-0.3v-0.1l-0.1-0.1l-0.1-0.1
		l-0.1-0.1l-0.2-0.1l0,0l0.1-0.1l0.3-0.2l0.2-0.1l0.1-0.1v-0.1v-0.2l0.1-0.3v-0.2v-0.2l-0.1-0.3v-0.2V470v-0.1v-0.1l0,0L348,470.3z
		 M350.2,473.9L350.2,473.9L350.2,473.9l0.2,0.2l-0.1,0.1l-0.1,0.1l-0.1,0.1l-0.1,0.1v0.1v0.1l-0.1,0.1l-0.1,0.1l-0.1,0.1h-0.1l0,0
		l0,0v-0.1l0.1-0.2v-0.1v-0.1v-0.1v-0.1l0,0l0.2-0.1l0.1-0.1h0.1h0.1l0,0l0,0l0,0V473.9z M373.8,475.7L373.8,475.7L373.8,475.7v-0.2
		l0,0v-0.1l0,0l0,0l0,0l0,0l0,0l0,0l0,0l0,0l0,0l0,0l0,0V475.7l0.1-0.1l0,0l0,0l0,0l0,0l0,0l0,0l0,0L373.8,475.7L373.8,475.7
		L373.8,475.7L373.8,475.7L373.8,475.7L373.8,475.7L373.8,475.7L373.8,475.7L373.8,475.7L373.8,475.7L373.8,475.7z M373.8,475.7
		L373.8,475.7L373.8,475.7L373.8,475.7L373.8,475.7L373.8,475.7v0.1l0,0l0,0l0,0V475.7L373.8,475.7z M373.7,475.8L373.7,475.8
		L373.7,475.8L373.7,475.8L373.7,475.8L373.7,475.8v0.1l0,0l0,0l0,0V475.8L373.7,475.8z M373.1,476.5l0.1-0.1l0,0l0,0l0,0l0,0l0,0
		l0,0l0,0l0,0l0,0l0,0v0.1l0,0H373.1L373.1,476.5L373.1,476.5L373.1,476.5v0.1l0,0l0,0l0,0l0,0l0,0l0,0V476.5L373.1,476.5
		L373.1,476.5L373.1,476.5L373.1,476.5z M368.7,482.2L368.7,482.2L368.7,482.2L368.7,482.2L368.7,482.2L368.7,482.2l0.1-0.2l0,0l0,0
		l0,0l0,0l0,0L368.7,482.2z M365.2,489.8L365.2,489.8h0.1l0,0l0,0l0,0l0,0v-0.1v-0.1v-0.1l0,0h-0.1v-0.1v-0.2v-0.1V489v-0.1v-0.1
		v-0.1l0,0l-0.1-0.1l0,0l0,0l0,0l0,0l0.1-0.8l0,0h-0.1l0,0v-0.1h0.1l1.5-3.1h0.1v-0.1l0,0l0,0l0,0v0.1l0,0v0.1v0.2l0,0l0,0l0,0l0,0
		l0,0l0,0l0,0l0,0l0,0l0,0v0.1l0,0l0,0l0,0v0.1v0.1v0.1l0,0l0,0l0,0v0.1l-0.1,0.1v0.1v0.1l0,0l0,0l0,0l0,0l0,0l0,0l0,0v0.1l0,0l0,0
		l0,0l-0.1,0.1l0,0v0.1v0.1v0.1l0,0l0,0l0,0l0,0v0.1v0.1l0,0v0.1v0.1v0.1l0,0l0,0v0.1v0.1v0.1v0.1l0,0l0,0l0,0l0,0l0,0l0,0l0,0l0,0
		l0,0l0,0l0,0l0,0l0,0l0,0l0,0l0,0l0,0l0,0l0,0v0.1l0,0l0,0l0,0l0,0v0.1l0,0l0,0l0,0l0,0l0,0l0,0l0,0l0,0v0.1l0,0l0,0l0,0l0,0l0,0
		l0,0l0,0l0,0l0,0v0.1l0,0l0,0v0.1v0.1l0,0l0,0l0,0l0,0l0,0l0,0l0,0l0,0l0,0l0,0l0,0l0,0l0,0l0,0l0,0l0,0l0,0l0,0l0,0l0,0v0.1l0,0
		l0,0l0,0l0,0l0,0v0.1l0,0l0,0l0,0l0,0l0,0l0,0v0.1l0,0v0.1l0,0v0.1l0,0l0,0l0,0l0,0v0.1v0.1l0,0l0,0l0,0l0,0v0.1v0.1v0.1l0,0l0,0
		l0,0l0,0l0,0l0,0l0,0l0,0v0.1l0,0v0.1v0.1v0.1l0,0v0.1l0,0v0.1l0,0l0,0l0,0l0,0l0,0l0,0l0,0l0,0l0,0l0,0l0,0l0,0l0,0l0,0l0,0l0,0
		l0,0v0.1l0,0l0,0l0,0l0,0l0,0v0.1l0,0l0,0l0,0l0,0v0.1l0,0l0,0l0,0l0,0l0,0l0,0l0,0l0,0l0,0l0,0l0,0l0,0l0,0v0.1v0.1v0.1l0,0l0,0
		l0,0l0,0l0,0l0,0l0,0l0,0l0,0l0,0l0,0l0,0l0,0l0,0l0,0v0.1l0,0l0,0v0.1v0.1l0,0l0,0l0,0l0,0v0.1v0.1v0.1l0,0v0.2v0.1l0,0l0,0l0,0
		l0,0l0,0l0,0v0.1v0.1l0,0l0,0v0.1l0,0l0,0l0,0l0,0l0,0l0,0l0,0l0,0l0,0l0,0l0,0l0,0l0,0l0,0V491v-0.1l-0.1-0.3l-0.1-0.3l-0.1-0.5
		l-0.1-0.2l-0.1-0.2l0,0l0,0l0.2-0.9l0.1-0.6h-0.1l0,0h-0.1l0,0l0,0l0,0l0,0l0,0l0,0l0,0l0,0v0.1h0.1v-0.2l0,0l0,0l0,0l0,0l0,0l0,0
		l0,0v-0.1v-0.1v-0.1v-0.1v-0.1L365.2,489.8L365.2,489.8L365.2,489.8L365.2,489.8z M362.6,489.7L362.6,489.7L362.6,489.7
		L362.6,489.7L362.6,489.7z"/>
</g>
<linearGradient id="SVGID_1_" gradientUnits="userSpaceOnUse" x1="290.1" y1="6517.8496" x2="368.7" y2="6517.8496" gradientTransform="matrix(1 0 0 1 0 -6399.1494)">
	<stop  offset="0" style="stop-color:#83E2E2"/>
	<stop  offset="0.9637" style="stop-color:#003366"/>
	<stop  offset="1" style="stop-color:#000000"/>
</linearGradient>
<rect x="290.1" y="114.5" class="st23" width="78.6" height="8.4"/>
<text transform="matrix(1 0 0 1 234.5166 121.2019)" class="st1 st11 st17">% d’ocupació:</text>
<text transform="matrix(1 0 0 1 277.3169 121.2019)" class="st1 st11 st10">  </text>
<text transform="matrix(1 0 0 1 286.4023 131.1428)" class="st1 st11 st17">menys</text>
<text transform="matrix(1 0 0 1 364.5171 131.1428)" class="st1 st11 st17">més</text>
<g id="regions-layer_1_">
	<path class="st24" d="M16.3,112l-0.3-0.3l0.3-0.3h0.3v0.6C16.6,112,16.3,112,16.3,112z M7.5,158.8l-0.3-0.3L7,158.2v-0.3l0.9-0.3
		L7.5,158.8z"/>
</g>
<text transform="matrix(1 0 0 1 26.6997 264.3395)" class="st1 st2 st10">VARIACIÓ INT. 2020</text>
<text transform="matrix(1 0 0 1 103.4995 264.3395)" class="st1 st11 st10">|2019</text>
<text transform="matrix(1 0 0 1 372.9492 188.2258)" class="st1 st2 st10">VARIACIÓ INT. 2020</text>
<text transform="matrix(1 0 0 1 449.749 188.2258)" class="st1 st11 st10">|2019</text>
<text transform="matrix(1 0 0 1 407.979 477.3381)" class="st1 st2 st10">VARIACIÓ INT. 2020</text>
<text transform="matrix(1 0 0 1 484.7793 477.3381)" class="st1 st11 st10">|2019</text>
<text transform="matrix(1 0 0 1 409.8994 577.2175)" class="st1 st2 st10">VARIACIÓ INT. 2020</text>
<text transform="matrix(1 0 0 1 486.6997 577.2175)" class="st1 st11 st10">|2019</text>
<text transform="matrix(1 0 0 1 190.2471 583.0519)" class="st1 st2 st10">VARIACIÓ INT. 2020</text>
<text transform="matrix(1 0 0 1 267.0469 583.0519)" class="st1 st11 st10">|2019</text>
<g id="regions-layer_2_">
	<path class="st18" d="M1055.1,167l-0.3-0.3l0.3-0.3h0.3l0,0.6H1055.1z M1044.9,213.9l-0.3-0.3l-0.3-0.3l0-0.3l1-0.3L1044.9,213.9z"
		/>
</g>
</svg>
