<?xml version="1.0" encoding="UTF-8"?>
<svg id="Capa_1" data-name="Capa 1" xmlns="http://www.w3.org/2000/svg" viewBox="0 0 80.55 96.37">
  <defs>
    <style>
      .cls-1 {
        fill: #a52030;
        stroke: #a52030;
        stroke-miterlimit: 10;
      }
    </style>
  </defs>
  <path class="cls-1" d="M24.71,43h.52c.42.02,4.76.19,8.42-3.62,2.44-2.55,3.67-6.95,3.67-13.06v-.14c0-.74-.23-1.66-.66-2.72-.23-.64-.64-1.61-1.33-2.62l-.12-.19s-.1-.14-.12-.14c-1.52-2.06-4.49-4.52-9.91-4.52-7.12,0-10.12,3.78-11.37,6.93-.59,1.3-.88,2.39-.88,3.26v.14c0,6.12,1.23,10.52,3.67,13.06,3.22,3.36,6.96,3.64,8.11,3.64v-.02ZM29.03,25.62c-.17.23-.23.52-.19.8.05.28.19.52.43.69,1.77,1.26,3.69,2.29,5.72,3.07-.38,3.53-1.35,6.13-2.89,7.73-2.98,3.12-6.62,2.98-6.83,2.98h-.36s-3.76.17-6.76-2.98c-1.8-1.89-2.82-5.16-3.03-9.72,4.66-.31,9.13-1.91,12.91-4.64.23-.17.38-.42.43-.69.05-.28-.02-.55-.19-.8-.35-.47-1-.59-1.49-.24-3.43,2.48-7.48,3.95-11.71,4.24.07-1.2,1.11-3.22,1.77-4.26,1.73-2.44,4.56-3.67,8.35-3.67,1.66,0,5.8.36,8.23,3.67.69,1.06,1.77,3.19,1.77,4.37v.14c0,.57,0,1.11-.03,1.63-1.65-.68-3.21-1.52-4.64-2.56-.49-.35-1.14-.23-1.49.24l.02.02Z"/>
  <path class="cls-1" d="M79.01,56.05c-.8-5.3-5.75-9.36-11.66-9.63v-19.91c0-.74-.23-1.66-.66-2.72-.23-.64-.64-1.61-1.33-2.62l-.12-.19s-.1-.12-.12-.14c-1.52-2.06-4.49-4.52-9.91-4.52-7.1,0-10.12,3.78-11.37,6.93-.59,1.3-.88,2.39-.88,3.26v19.92c-.17,0-.36.02-.54.03-.5.05-1,.12-1.49.23h-.05c-1.25-.4-2.55-.62-3.88-.66l-2.6-1.68c-.29-.19-.64-.23-.95-.1-.31.12-.55.38-.64.71-.73,2.62-4.31,3.81-7.35,3.81h-.47c-3.03,0-6.64-1.2-7.35-3.81-.09-.33-.33-.59-.64-.71s-.68-.09-.95.1l-2.6,1.68c-6.67.16-12.06,5.13-12.06,11.16v22.04c0,4.61,3.76,8.37,8.37,8.37.99,0,1.94-.17,2.82-.49,2.46-.78,6.15-2.37,9.48-3.86,1.73.36,3.47.73,5.16,1.07l.38.09c5.41,1.14,10.5,2.22,13.83,2.65,2.84.24,5.54-1.26,6.86-3.78,1.18-.52,2.37-1.04,3.59-1.58,5.16,1.06,14.43,2.91,19.6,3.59.19,0,.4.02.59.02,3.92,0,7.09-3.19,7.09-7.09v-21.71c0-.17-.03-.33-.12-.49l-.02.02ZM44.48,48.55h3.76l6.01,8.56v13.36c-1.65.29-3.53.69-5.16,1.07v-14.31c0-3.41-1.7-6.57-4.61-8.68ZM62.31,70.6c.55-.33,1.2-.69,2.1-1.14,1.47-.73,3.05-.54,3.85-.38.21.55.52,1.59.52,2.72,0,.87-.19,1.7-.36,2.27-1.02-.28-2.72-.49-4.85.29-.1.03-.23.09-.35.14l-1.32-3.62c.14-.09.29-.17.45-.26l-.03-.02ZM55.03,43.35h.23c.42.02,4.76.19,8.42-3.62.57-.61,1.09-1.32,1.54-2.15v8.84h-3.24l-1.09-2.44c-.24-.54-.87-.78-1.4-.54-.26.12-.45.33-.55.59s-.09.55.02.81l1.37,3.07s.03.07.05.09l-5.04,6.93-4.75-6.76s.12-.17.17-.26l1.39-3.07c.24-.54,0-1.16-.54-1.4-.54-.24-1.16,0-1.4.54l-1.09,2.44h-3.98v-8.84c.45.83.97,1.54,1.54,2.15,3.62,3.78,7.94,3.66,8.39,3.62h-.02ZM49.09,80.03v-6.31c1.94-.47,4.37-.97,6.24-1.28.1,0,.21,0,.26-.03.85-.14,1.54-.23,2.06-.28.92-.09,1.63-.21,2.27-.38l1.3,3.55c-2.08.88-4.96,2.17-7.76,3.41l-2.2.97c-.73.33-1.46.64-2.18.97.02-.21.03-.42.03-.61l-.02-.02ZM64.27,76.35c2.56-.94,4.14-.03,4.21,0,.26.16.57.21.87.1.29-.09.54-.29.66-.57.09-.19.9-1.99.9-4.11,0-1.47-.4-2.79-.66-3.5v-9.11c0-.59-.49-1.06-1.06-1.06s-1.06.49-1.06,1.06v7.71c-1.14-.16-2.91-.19-4.64.66-.95.47-1.65.88-2.23,1.21-1.23.73-1.8,1.06-3.76,1.23-.31.03-.68.07-1.07.12v-13.01l6.24-8.58h4.12c5.65,0,10.26,4.05,10.26,9.03v20.69c0,2.74-2.23,4.97-4.97,4.97h-.38c-4.14-.55-10.98-1.87-16.46-2.96,3.88-1.73,7.45-3.31,9.04-3.88ZM65.24,26.51v.16c0,.55,0,1.09-.03,1.63-1.65-.68-3.21-1.52-4.64-2.56-.47-.35-1.14-.23-1.49.24-.35.49-.23,1.14.24,1.49,1.77,1.26,3.69,2.29,5.72,3.07-.38,3.53-1.35,6.13-2.89,7.73-2.96,3.1-6.62,2.98-6.83,2.98h-.36s-3.76.17-6.77-2.98c-1.8-1.89-2.82-5.16-3.03-9.72,4.66-.31,9.13-1.91,12.91-4.64.47-.35.59-1,.24-1.49-.17-.23-.42-.38-.69-.43s-.55.02-.8.19c-3.43,2.48-7.48,3.95-11.71,4.24.07-1.2,1.11-3.22,1.77-4.26,1.75-2.44,4.56-3.67,8.35-3.67,1.66,0,5.8.36,8.23,3.67.69,1.06,1.77,3.19,1.77,4.37h.03ZM63.82,21.9h0ZM42.01,84.98h-.38c-3.17-.43-8.23-1.49-13.6-2.62-.87-.19-1.77-.36-2.65-.55,3.88-1.73,7.52-3.36,8.71-3.64,2.77-.62,4.45.03,4.47.03.54.23,1.14,0,1.39-.52.03-.09.9-1.94.9-4.11,0-1.47-.4-2.79-.66-3.5v-9.11c0-.59-.49-1.06-1.06-1.06s-1.06.49-1.06,1.06v7.83c-1.18-.07-3.01-.05-4.5.47-1,.35-1.73.71-2.43,1.06-1.02.52-1.98,1-3.9,1.35-.29.05-.59.1-.87.16v-9.06l10.97-14.55h0c5.42.28,9.65,4.19,9.65,9.01v22.8c0,2.74-2.23,4.97-4.97,4.97l-.02-.02ZM10.78,74.08s-.03-.05-.05-.07c-.05-.07-.47-.66-1.06-1.09l-.36-.26c-.42-.31-1.04-.78-1.8-1.25l-.23.36h0l.19-.5c.21-.4.16-.87-.14-1.2,0,0-.38-.43-1.28-1.23-.31-.28-.24-1.04-.07-1.26l.17-.23c.07-.1.16-.23.17-.24,0,0,.09,0,.31.03.66.14,1.33.35,2.43.85,1.18.55,2.1,1.16,3.07,2.53.68.99,1.8,2.56,2.58,3.66-.45.09-.81.16-1.11.19-1.23.16-2.2-.07-2.84-.31l.02.02ZM32.08,72.21c.62-.31,1.26-.64,2.13-.94,1.32-.45,3.08-.4,4-.33.21.61.49,1.58.49,2.62,0,.92-.21,1.78-.4,2.37-.95-.19-2.56-.33-4.7.16-.36.09-.87.24-1.52.5l-1.04-3.86c.36-.17.69-.33,1.04-.5v-.02ZM24.21,72.21c-2.44.47-4.61.95-6.38,1.33l-.85.19c-.68-.95-2.23-3.17-3.1-4.4-.47-.68-.97-1.25-1.51-1.73v-6.65c0-.59-.49-1.06-1.06-1.06s-1.06.49-1.06,1.06v5.25c-.09-.05-.19-.09-.28-.14-1.28-.59-2.08-.83-2.88-1-1.66-.36-2.3.5-2.67,1.02l-.12.17c-.83,1.07-.87,3.1.35,4.16.29.26.52.47.69.64-.1.87.28,1.66,1.06,2.15.55.35,1.04.69,1.44,1,0,.33.1.64.36.87.23.19,2.29,1.87,5.67,1.44.9-.12,2.37-.43,4.42-.88,2.51-.55,5.63-1.23,9.29-1.87.52-.09,1-.19,1.46-.31l1.06,3.95c-1.63.69-3.64,1.59-5.73,2.53l-2.86,1.26c-3.4,1.51-7.19,3.15-9.62,3.93h0c-.68.26-1.4.38-2.13.38-3.45,0-6.24-2.81-6.24-6.24v-22.04c0-4.87,4.44-8.87,9.94-9.03h0l10.78,14.55v9.46h-.03ZM25.29,60.62l-9.86-13.31.69-.45c1.7,3,5.77,4.07,8.87,4.07h.47c3.1,0,7.17-1.07,8.87-4.07l.9.57s-9.94,13.18-9.94,13.18Z"/>
</svg>