<?xml version="1.0" encoding="UTF-8"?>
<svg id="Capa_1" xmlns="http://www.w3.org/2000/svg" version="1.1" viewBox="0 0 83.8 83.8">
  <!-- Generator: Adobe Illustrator 29.3.1, SVG Export Plug-In . SVG Version: 2.1.0 Build 151)  -->
  <defs>
    <style>
      .st0 {
        fill: #a82132;
      }
    </style>
  </defs>
  <path class="st0" d="M44,13.4c1.7-14.1,24.3-14.3,26.2-.2v21.3c6.8.3,12,5,12.5,11.9.7,9.9-.6,20.6,0,30.5.2,2-2.5,2.7-2.8.5-.6-10.2.8-21.2,0-31.3s-8.5-10.1-14.9-8.9l-6.3,11.2v28.9c-.5,2.1-2.9,1.3-2.9.5v-14.4c-.6.1-1,.6-1.7.6-2.9.3-4.1-3.8-1.3-5.1s2,0,3.1.4v-10.9l-6.1-11.4-3.1-.2c2.2,2.2,4,4.9,4.3,8.1.8,10.4-.6,21.8,0,32.3-.3,1.9-2.6,1.9-2.8-.5-.9-10,.8-21.4,0-31.5s-1.8-5.2-4-6.7-4.7-2.4-5.9-1.7l-11.3,14.9v25.7c-.4,1.7-2.8,1.1-2.8,0v-12.4c-6,3.5-6.1-7.2,0-3.8v-9.9l-11-14.7c-4.7-.4-9.8,3.5-10.2,8.2l-.2,33c-1.2,1.2-2.6.3-2.5-1.3.6-10.2-.8-21.4,0-31.5s3.4-8.5,7.7-10.2,5.7-.8,7.7-2.8.7-1.6,1.7-1.7,1.4,1.5,2.2,2.4c2.4,2.8,9.5,2.6,11.9,0s.9-2.2,1.9-2.3,1.6,1.4,2.2,1.9c2.2,1.8,5.6,2.2,8.3,2V13.4ZM67.5,15.2c.5-12-18.2-13.5-20.7-2.1,3.1.1,6.5-1.1,9.3-2.5s3.7-3,4.7-1.2-3.6,3.7-4.9,4.3c-2.9,1.3-6,2-9.1,2.3.5,4.6,1.1,9.2,5.5,11.6,6.3,3.5,13,0,14.6-6.9s.6-2.3.3-2.8-3-1.4-3.6-1.7c-1-.6-3.8-2.1-2.3-3.4s4.6,2,6.3,2.4ZM46.8,26.5v8h3.6c.7-.7,1-2.2,1.6-2.9s1.3,0,1.5-.6c-2.9-.3-4.7-2.7-6.7-4.5ZM67.5,34.5v-8c-3.3,4.1-8.5,6.2-13.7,4.8,1.3,1.6-.3,2.8-.7,4.4,1.6,2.3,5.4,2.3,7.8,1.1s-1.5-3.8.5-5.2,2.6,1.8,3.2,3h3ZM22.3,37.3c-1.2,0-2.2-.8-3.2-1.3l1.4,2.7c.3-.1,2.3-1.1,1.9-1.5ZM32.3,36l-3.7,1.4c.4.4,1.5,1.5,2.1,1.4l1.6-2.8ZM30.8,42.3l-5.4-3.5-4.9,3.3,5.1,7,5.1-6.7ZM60.5,39.8c-2.1.4-4.2.3-6.2,0l3.1,5.7,3.1-5.7ZM53.3,60.8c-.9.9.8,2,1.3,1.2s-.5-2-1.3-1.2ZM21.9,62.5c-.6.2-.6,1.7.2,1.7,1.5.1,1.2-2.2-.2-1.7Z"/>
  <path class="st0" d="M25,2.3c12-.4,15.6,9.6,12.6,19.8-3.5,11.9-19.8,12.3-23.8.6s-.3-20,11.3-20.4ZM35.8,14.7c.7-12.1-18.8-13.3-20.5-1.8,3.6-.4,6.6-1.5,9.8-3.1s3.1-2.6,4-1-1.2,2.5-2.3,3.2c-3.3,2-7.5,3.4-11.4,3.5-.1,5.8,2.5,12.5,9.1,13,6.8.6,11.1-4.4,11.1-11-.9-.4-1.8-.7-2.7-1.2-1.5-.8-4.3-2-3.3-4,1-1.6,4.8,2.3,6.3,2.3Z"/>
  <path class="st0" d="M71.4,46.8c.9-.3,1.8.4,1.8,1.3l-.2,30-1.1.6c-1.1-.2-1.3-.9-1.4-1.8-.8-9.1.6-19.3,0-28.5,0-.6.4-1.4.9-1.6Z"/>
  <path class="st0" d="M10.9,48.6c.4,0,.8.3,1.1.6l.2,28.3c0,1.6-2.3,1.9-2.5.3l.2-28.5c.3-.2.6-.5.9-.6Z"/>
  <path class="st0" d="M41.2,78.4c-1,1-2.1,0-2.2-1.3-.7-8.7.6-18.4,0-27.3.2-1.7,2.3-1.7,2.5,0-.6,8.8.7,18.6,0,27.3s0,1-.3,1.3Z"/>
  <path class="st0" d="M28.4,51.8c.6-.2,8.4-.1,8.8,0,1.1.5,1.1,4.2,0,4.7s-8.2.3-8.9,0c-1.2-.6-1.2-4.4.1-4.8ZM36.3,53.5h-7v1.5h6.6c.5-.3.4-1,.4-1.5Z"/>
  <path class="st0" d="M69.2,50.1c.4.8.6,4.2-.2,4.6s-7.4.2-8.4.1-.7,0-1-.2c-.6-.4-.9-4.2.6-4.7s6.3-.2,7.6-.1.9,0,1.3.3ZM67.8,51.5h-6.7v1.5h6.7v-1.5Z"/>
  <path class="st0" d="M21.9,62.5c1.4-.5,1.7,1.9.2,1.7s-.8-1.5-.2-1.7Z"/>
  <path class="st0" d="M53.3,60.8c.8-.8,1.9.4,1.3,1.2s-2.3-.3-1.3-1.2Z"/>
  <path class="st0" d="M36.3,53.5c0,.5.1,1.2-.4,1.5h-6.6v-1.5h7Z"/>
  <rect class="st0" x="61" y="51.5" width="6.7" height="1.5"/>
</svg>