<svg xmlns="http://www.w3.org/2000/svg" viewBox="0 0 21.44 17.35"><defs><style>.cls-1{fill:#fff;}</style></defs><g id="Capa_2" data-name="Capa 2"><g id="Capa_2-2" data-name="Capa 2"><path class="cls-1" d="M19,2.71A9,9,0,0,0,21.44,2a8.66,8.66,0,0,1-2.19,2.21A12.14,12.14,0,0,1,18.16,9.9c-.11.21-.21.44-.32.64a12.78,12.78,0,0,1-7.9,6.37,4.8,4.8,0,0,1-.77.18A12.2,12.2,0,0,1,0,15.36a9.12,9.12,0,0,0,6.54-1.84,4.49,4.49,0,0,1-4.1-2.93,5.23,5.23,0,0,0,2-.18A4.31,4.31,0,0,1,.92,6.09c.35.42,2,.53,2,.53A4.43,4.43,0,0,1,1.47.77a12.8,12.8,0,0,0,9,4.52C10.16,4,10.74.82,13.6.15A4.38,4.38,0,0,1,18,1.35,6.84,6.84,0,0,0,20.77.29C20.67,1.39,19,2.71,19,2.71"/></g></g></svg>