<?xml version="1.0" encoding="utf-8"?>
<!-- Generator: Adobe Illustrator 24.0.1, SVG Export Plug-In . SVG Version: 6.00 Build 0)  -->
<svg version="1.1" id="graphic" xmlns="http://www.w3.org/2000/svg" xmlns:xlink="http://www.w3.org/1999/xlink" x="0px" y="0px"
	 viewBox="0 0 562.5 650" style="enable-background:new 0 0 562.5 650;" xml:space="preserve">
<style type="text/css">
	.st0{fill:#003366;}
	.st1{font-family:'OpenSans-Bold';}
	.st2{font-size:11px;}
	.st3{fill:#E3F1F3;}
	.st4{fill:#E0F3F4;}
	.st5{fill:#E5F8F8;}
	.st6{fill:#E9F9F9;}
	.st7{fill:#CBF4F4;}
	.st8{font-family:'OpenSans-SemiBold';}
	.st9{font-size:8px;}
	.st10{font-size:14px;}
	.st11{fill:#6685A3;}
	.st12{font-family:'OpenSans-Light';}
	.st13{font-size:9px;}
	.st14{font-size:7px;}
	.st15{fill:#51BCC6;stroke:#FFFFFF;stroke-width:0.4512;}
	.st16{fill:#66E0E0;stroke:#FFFFFF;stroke-width:0.4512;}
	.st17{fill:#003366;stroke:#FFFFFF;stroke-width:0.4512;}
</style>
<text transform="matrix(1 0 0 1 340.17 138.3)" class="st0 st1 st2">GIRONA</text>
<text transform="matrix(1 0 0 1 41.082 188.3631)" class="st0 st1 st2">LLEIDA</text>
<path class="st3" d="M208.3,345.9c1.4,1.6,0.3,1.8-1,1.9C206.4,346.7,208.2,346.7,208.3,345.9z"/>
<path class="st4" d="M250.9,432.1c-0.1-0.9-0.5-1.8,0.5-2.4c0.5,0.3,0.9-1.6,1.3,0c0.1,0.5,1.1,1.6-0.4,1.6
	C251.5,431.1,251.4,431.8,250.9,432.1z"/>
<path class="st5" d="M355.8,246.3c0-0.2,0-0.5-0.1-0.7c0.8-1.7,2.2-1,3.5-1.2C358.4,245.6,356.7,245.1,355.8,246.3z"/>
<path class="st6" d="M364.9,244.3c0.9,0.5,1,1.4,1.2,2.2C364.6,246.6,364.4,245.6,364.9,244.3z"/>
<path class="st7" d="M351.1,241.5v-0.7c0.9,0.4,2.1-0.5,2.8,0.7H351.1z"/>
<text transform="matrix(1 0 0 1 41.082 205.169)" class="st0 st8 st9">Ocupació:  </text>
<text transform="matrix(1 0 0 1 41.082 214.769)" class="st0 st8 st9">35,9% (-34,2 pp)</text>
<text transform="matrix(1 0 0 1 41.082 228.989)" class="st0 st8 st9">Viatgers:</text>
<text transform="matrix(1 0 0 1 41.082 238.589)" class="st0 st8 st9">11.316 (-11,6%)</text>
<text transform="matrix(1 0 0 1 41.082 251.169)" class="st0 st8 st9">Pernoctacions:</text>
<text transform="matrix(1 0 0 1 41.082 260.769)" class="st0 st8 st9">36.060 (+5,5%)  </text>
<text transform="matrix(1 0 0 1 340.1701 155.566)" class="st0 st8 st9">Ocupació:  29,1% (-2,8 pp)   </text>
<text transform="matrix(1 0 0 1 340.1701 169.226)" class="st0 st8 st9">Viatgers: 46.811 (-54,9%)</text>
<text transform="matrix(1 0 0 1 340.1702 183.94)" class="st0 st8 st9">Pernoctacions: 144.093 (-61,5%)</text>
<text transform="matrix(1 0 0 1 379.3 427.43)" class="st0 st1 st2">ENTORN DE BARCELONA</text>
<text transform="matrix(1 0 0 1 379.3002 444.322)" class="st0 st8 st9">Ocupació: 35,9% (-7,8 pp)</text>
<text transform="matrix(1 0 0 1 379.3002 457.972)" class="st0 st8 st9">Viatgers: 41.152 (-43,7%)</text>
<text transform="matrix(1 0 0 1 379.3002 472.162)" class="st0 st8 st9">Pernoctacions: 125.711 (-49,5%)</text>
<text transform="matrix(1 0 0 1 175.81 517.5)" class="st0 st1 st2">TARRAGONA</text>
<text transform="matrix(1 0 0 1 175.8099 534.008)" class="st0 st8 st9">Ocupació: 27,3% (-10,4 pp)</text>
<text transform="matrix(1 0 0 1 175.8099 547.658)" class="st0 st8 st9">Viatgers: 53.404 (-53,0%)</text>
<text transform="matrix(1 0 0 1 175.8099 561.848)" class="st0 st8 st9">Pernoctacions: 195.754 (-61,2%)</text>
<text transform="matrix(1 0 0 1 256.7802 30.362)" class="st0 st8 st10">Càmpings</text>
<text transform="matrix(1 0 0 1 70.2234 49.4101)" class="st11 st12 st13">Lleida és, de nou la província amb uns millors resultats de les àrees territorials analitzades, amb creixements  </text>
<text transform="matrix(1 0 0 1 80.1234 60.2101)" class="st11 st12 st13">tant en nombre de pernoctacions com d’ocupació, comparat amb l’abril del 2019. També destaca el lleu  </text>
<text transform="matrix(1 0 0 1 125.2234 71.0101)" class="st11 st12 st13">decreixement de l’ocupació en els establiments de Girona en relació amb el 2019.</text>
<text transform="matrix(1 0 0 1 175.81 85.554)" class="st11 st12 st13"> Entre parèntesis, variació interanual respecte a l’any 2019 </text>
<image style="overflow:visible;enable-background:new    ;" width="566" height="80" xlink:href="FF2AA21C.jpg"  transform="matrix(0.24 0 0 0.24 222.12 92.77)">
</image>
<text transform="matrix(1 0 0 1 23.1692 625.3156)" class="st11 st8 st14">Font: Elaboració pròpia del LABTurisme en base a dades de l’Enquesta d’ocupació en allotjaments de l’INE</text>
<g id="regions-layer_1_">
	<path class="st15" d="M326.5,275.2v-0.3l0.3-1l2.7-1.3l1.4,1.6l-1.7,0.6l-0.3,2.2l-1.7,0.3L326.5,275.2z M321.5,203.6l1-2.6h2
		l1,1.6l-1.7,3.2l4.1,4.1l-8.2-1l0.3-5.1L321.5,203.6z M522.5,241.3l-0.3-0.3l0.3-0.3h0.3v0.6H522.5z M511.9,289.9l-0.3-0.3
		l-0.3-0.3V289l1-0.3L511.9,289.9z M376.5,327.1l-0.7-4.8l1.7-1.6l4.8,1l1,2.2l1.4-0.3l3.4-4.2l3.8,0.6v0.3l2-0.3l5.4-4.8l-0.4-2.9
		l-2.4-1.6l-0.3-0.3l-3.1-0.3l0.3-2.6l-2.1-1.9l0.7-1.6l6.2,0.6l2-2.9l-3.1-1.9l4.8-1.6l-0.7-3.8l1.4-1.9l-3.4-4.2l2.4-1.3l-1.4-1.9
		h-0.3v0.3h-0.3l-0.7-1.6l-2.7-0.3l-1.7,0.3l-3.4,2.6l-3.1-2.2l-2.1-3.8l0.7-2.2h-3.1l-0.7-2.2l-2.7-0.6v-0.3h-1.7l-3.8,1.3h-0.3
		l-3.4,2.2l1-3.5v-0.3l-1-1.9l-2.4-1.6l-1-0.3v-0.3l-2.7,1l-2.7-1.3l-2,0.3l-1,0.3l-0.3,0.3h-0.3l-0.7,1.6l-2.4,1.6l-0.7-2.2
		l-6.5,0.6l-2.4,3.2l-4.1-1.9l-1.4-3.8l-4.8,1.6l-3.4-1.3l-1-1.9l-4.1,0.6v-1l-2.1-5.4l-3.8,0.6l-0.3-4.2l6.5,1.3l-1.4,0.3l1,1.6
		l-1.4,2.2l1.4,1.9l2.4-0.3l1.7-2.6l4.4-0.3l0.3-2.9l-1.7-0.3l-0.7-5.1v-0.3l-2.7,1.3l-1.7-2.9l1.4-1.9v-0.3l0.3-2.2l1-1v-0.3
		l2.7-3.8v-0.3l2.4-2.2l-7.9-3.8l-5.1,2.6l-4.8-3.5l-1.4,1.3l-0.3-1.3l-5.8-1.6l-9.2,3.5l-1-9.6l3.1-2.9l-4.1-2.6l-3.1,2.6l-1.4-1.6
		l1.4-8l-2-2.6l-3.7,0.3l-5.8-2.2l-1.4-9.3l1-1l14.3,1l9.9,7.7l4.8,0.3l2.4-1.6l0.7,5.1l2.7,1l0.7,8.3l3.8,4.5l4.1,2.2l2.4-1.9
		l8.2-1l1-2.6l3.4-1.3v-2.6l3.4-4.2l2.7-1.3l7.8,1l7.5-4.2l6.1,3.2l2.4-1.3l8.2,5.4l10.2,1.6l0.4,3.8l2.7,0.6l3.8,5.8l3.4-0.3
		l3.4,1.9h2.7l1.7-4.2l2.7-0.6l15,3.5l1-2.9l-2.1-1.6l-1.7-5.1h3.1l0.7-3.5l10.2-3.8l5.1,2.6l3.4-1.6l2.4-3.8l1.7,0.3l2-4.1l3.1,1
		l1-2.6l2.7,1.6l5.8,0.3l1-3.2l2.7-1.3l2.7,2.9l4.4-1.6l2.7,1.6l4.1-1.6l2.4,5.4l4.5,4.2l5.4-2.2l7.8,0.3l-0.3,0.6l-1.7,0.6l1,0.6
		l0.3,0.3v0.3v0.3v0.3v0.3l-0.3,0.6h-0.3v0.3v0.3h-0.3l-1,1.3l1.4,0.6v0.3l-0.3,0.3H502l-1,1.3h0.3v0.3h1.4h0.3v0.3l-1.7,1.9l0.3,1
		h0.3l1,0.6v0.3v0.3v0.3h-0.3l-0.3,0.3l0.3,0.3l1,1.3l0.7,0.3l0.3,0.3h0.7l0.7,0.6l-0.3,1l0.7,0.6l0.3,0.6l1.4,0.6l0.7-2.6l1,0.3
		l0.7-0.6h0.3h2.4l0.7,1v1h0.3v0.3l1.4,1.3l1.4-0.6h0.3v-0.3v-0.6l1.4,0.3l1,0.3h0.3v0.6l0.7,0.3h0.3l1.7,0.6v0.3h0.3h0.7h0.3
		l0.7,1.3v-1l0.3,0.3l1,0.3l0.3,0.3v0.3l-0.7,0.6v0.3h-0.3l-0.3-0.3l-0.3,0.6h-0.3l-1.4,1.3v0.3l-1-0.3h-0.3l-0.3,0.3l0.3,0.3h0.3
		v0.3v0.3l-0.3,0.3l-0.7,1.3h1l0.3,0.3h0.3v0.3v0.6v0.3l-1,0.3h-0.3H521l-1.4-1.3l0.4,2.2l0.3,0.6l-0.3,4.2l-3.7,0.3l1.4,2.6v0.3
		l-3.1-2.6h-2.4l0.3,1l-0.3,0.3l-1,1.9l-3.4-1.9l-2.7-0.6l-1-3.5h-2.4l-5.1,5.4l-2,6.1l1.8,13.8h0.3v0.6v0.3v0.3l1.7,0.6v0.3
		l0.4,1.9l2.7-0.3l1,0.3l0.7,0.3l1.4,0.3l-0.7,1.6l1,0.3l1,0.3v0.3h0.3l1.4,2.9l1.4,2.2l0.7,1.6v0.3v0.3l0.3,0.6v0.6v0.3h-0.3v0.3
		l-1.7,0.3l-0.6,6.7l2.5,8.7h1.4v-0.3h0.3l0.7,0.3v0.3v0.3h0.3h0.3v0.3v1l0.3,1v-0.6h0.3l-0.3,0.6v0.3h-0.3v0.3v0.3l-0.3,1v0.3h-0.3
		v0.3l-0.3,0.3h-0.3l-0.3,0.3v0.6H511v0.3l-0.3,0.3h0.3l0.3,0.3l-0.3,1l0.3,0.6v0.3H511l0.3,0.6H511v0.6l-1.4,1l0.3,1h-0.3v0.3h0.3
		v0.3v0.3v0.3l-0.7,0.3v0.3v0.3v0.3h-0.3l-0.7,0.6h-0.7h-0.3l0.3,0.3l-0.3,0.3l-0.3,0.3h-0.3H506v0.3v0.3v0.3v0.3h-0.3l-0.3,0.3v0.3
		l0.3,0.3l-0.3,0.6v0.3v0.3v0.3l-1,1H504h-0.3l-0.3,0.3H503v0.3l-1.4-0.3h-0.3l-0.7,0.6l-0.7,0.6v1.3h-0.3h-0.3l-1.4,1.6l-2.4-1.6
		l-3.1,2.2v0.3v0.3v0.3h-0.3l-0.7,1H491v0.3h-0.3v0.3h-0.3v0.3H490l-2.7,5.8v0.3l-0.3,1h-0.3h-1.4v0.3v0.3l0.3,0.3l-0.7,0.6
		l-0.3,0.3h-1.7l0.3,1v0.3h-0.7l-3.8,0.6v0.3l-0.3,0.3l-2.7,1l-0.3,0.3l-0.7,0.3v0.3v0.3H474l-0.7,1.3l-0.3,0.3l-0.7,1H472l-0.7,1.9
		l-0.7,0.3l-0.7,0.6h-0.3l-0.3,1l-4.1,2.6l-2.4,1h-0.3l-1.4,0.3l-2.4,0.3v0.3H458h-0.7l-2.4,0.6l-0.3,0.3h-0.3l-0.3,0.3l-1.7,0.3
		H452l-0.3,0.3h-0.3l-0.7,1.3h-0.3l-1,1v0.3l-0.7,0.3l-1.7,0.6l-2,3.9l-3.1-5.5l2.4-4.2l-0.7-5.1v-0.3l1-1.6l-12.3-1.3l-2.1-0.6v1.3
		l-3.8-1.6l-2.4,0.6l-1.7,2.6l-14,1.9l-3.1-7.7l-7.2-3.5l0.3-2.2l-2.4,1l-2.1-1l-1-2.9l-12.7-0.6L376.5,327.1z"/>
	<path class="st16" d="M99.5,594.1l-12-5.2l-0.7-3.6l1.7-2.6l-5.8-2.9l-0.3-2l-10-1l-8.6-3.9l-2.4-3.9l0.4-2.6l3.8-5.2l-4.8-4.2
		l-3.8,1l-1.7-6.2l-4.1,1.6l-4.1-1.6l-1-1.9l-0.7-1.3l2.4,1.6v-2.9l2.1,1l3.5-3.6l2.4,0.3l1.4-4.5l6.2-6.8l-2.7-3.9l-0.3-1l-0.3-5.5
		l-2.4-1.9l8.3-17.8h-1.7v-2.9l-2-2.6l1-1l-2.4-1.3l0.4-1.6l2.7-0.3l-2.7-1l-2-2.9l-2.4,1.3v-2.6l-2.4,0.3l2.1-1.3l-1.7-1.6l0.4-2.3
		l-0.7-2.6h-2.4l1.4-6.5l-1.4-1.3l2.8-1.9l-1-0.6l5.1,1.3l0.7-4.2l3.4,0.3l4.5-2.9l2.1-11l3.4-2.6l2.7,1.3l0.7-2.3h2.7l-1-2.6
		l1.7-5.8l7.2,0.6l0.4-9l4.1-2.9l6.5,9h3.4l4.1-7.4l4.1,1.3l3.4,5.5l3.4,0.3l5.8-2.9l0.7-0.6h0.3h0.7l11.7-1.6l1.7-3.6l2.4,0.6h1h1
		v0.3l3.8,0.6l0.7-1.3l0.3-1l0.7-3.9l1.7-1l3.8,4.8l13.4-2.9l2.1-0.6l-0.3-2.3l2.8-4.8l1.7,0.6l1.4-3.2l4.1-1l2.8-5.5l1.4-1.3
		l0.3-0.3l2.1-1.9l0.7-1l-2.1-1.3l-3.8-2.9l1.4-0.6l-1-3.5l10.3,5.5v1.3l11-3.9l-2.4-5.2l1.7-3.5l-1.7-1l1.4,0.6l-0.7-1.6l6.9-1.9
		l0.3-3.5l4.8-0.3l8.6-0.3l15.4,2.6l-1.7-3.5l4.5-1.3l4.8,2.6l-3.4,2.6l0.3,1.3l2.1-0.6l0.3,3.2l-6.2,0.3l-1.7,4.5l7.5,3.5l0.7,1.6
		h3.4l1.7,3.2h0.3l-2.7,5.2l0.7,1.6l2.7,0.3l-2.4,1.3l1,1.6l1,4.2l-2.4,3.5l5.1-2.6l4.8,1.9l2.1,3.2h2.7l1,2.3h0.3l-3.1,2.6l2.1,5.5
		l3.4,1.3l-0.7,3.2l3.4,1.9l0.3-1.6l3.4-0.6l-1.4,0.3l-1,8.1l-7.9-1.3l1,3.6l7.2,3.9l2.4-2.3l1,4.5l-0.3,3.2l-19.8,3.8l-6.9,2.3
		l-11,7.1l-5.1,0.3l-10,0.3l-7.2,3.9l-3.4,4.2l3.4-4.2l-2.7,1.6l-2.7-0.6l-3.4,3.2l-2.8,6.5h-1.7l-2.4-3.2l-3.8-0.6l-5.8,2.6
		l-5.5-0.3l-10,5.2l-6.5,6.5l-0.7,2.6l-5.5,3.2l-5.9,6.2l-10,15.6l-6.5,4.2l-1.4,4.5l-6.5,3.9l1,3.6l4.5,4.2l6.9-0.3v-1.3l-7.6-2.3
		l0.7-1.3l3.8-0.3l3.1,1.9l8.2,10.7l3.8-1l3.1,1.9l-1.4,6.2l-6.6,5.2l-10,4.9L125,585.7l-10,2.3l-3.1-2.9l-0.3-2.3l3.1,0.3h0.3h-0.3
		l0.4-1.6l2.4,0.7v0.3v0.3l0.3,0.3l1,0.3l0.7,0.3h0.3l0.3-0.3v-0.3v-0.7h0.7v-0.3v-0.3l0.7-1.6l8.3-0.3l4.2-6.5l0.7-2.3h-1l-0.3-0.3
		H133l-20.3,3.2l-9.7,11.1L99.5,594.1z"/>
	<path class="st17" d="M281.8,320.7v-1.6l2.7,1l-0.7,1.3L281.8,320.7z M181.1,410.8l-2.8,5.5l-4.1,1l-1.4,3.2l-1.7-0.6l-2.8,4.8
		l0.3,2.3l-2.1,0.6l-13.4,2.9l-3.8-4.8l-1.7,1l-0.7,3.9l-0.3,1l-0.7,1.3l-3.8-0.6V432h-1h-1l-2.4-0.6L136,435l-11.7,1.6h-0.7h-0.3
		l-0.7,0.6l-5.8,2.9l-3.4-0.3l-3.4-5.5l-4.1-1.3l-4.1,7.4h-3.4l-6.5-9l-4.1,2.9l-0.4,9l-7.2-0.6l-3.1-5.2l0.7-2.9l-3.1-1.6l3.8-5.2
		l-1.7-3.2l-6.5-5.2l2.4-2.6l3.1-9l-1.7-1.6l-0.3-4.5l6.5-0.3l2.7-1.9l6.6-10.6l-2.4-3.2l-0.3-7.4l-3.8,1.6l-8.2-1.3l-0.3-4.5
		l1.7-1.9l-4.8-5.8v-3.2l6.5-7.4l2.4-5.1l1.4,1.6l0.7-5.1l11-1.6l1.7-6.7l5.1-4.5l4.1,0.6l1.7-6.4l4.1,0.3v-2.6l4.1-1.6l-2.4-2.6
		l1.4-4.8l-1-1.3l2.1-0.6l-6.8-2.9v-1.3l4.5-5.8l1.7,1.6l3.1-6.4l2.4-0.3l0.3,2.2l0.7-2.9l1.7-0.6l1-2.9l-1.4-0.6V292l2.4-1.9
		l-0.3-2.9l4.8-9l-0.6-9.3l2.7-1.9l-1.7-1.3v-4.2l1.7-6.7l3.1-4.8l1.7-10.6l3.1-4.2l-3.4-1v-1.9l4.4-2.9l-7.5-2.9l3.4-3.8l-8.1-19.5
		l1.4-2.2l2,1.3l4.1-3.2l-3.1-1.6v-2.2l0.7-1.6l3.7-0.6l-1.4-1.6l4.1-12.1v-1.3l-3.4-0.6l-5.8-1.3l-1.7-7.3l-3-3.5l-2.4-2.9h2.4
		l1-2.9l-3-9.2l-3.1-0.3l3.8-4.5l-3.1-1.6l3.8-3.5l-1.7-7.3l3.1-1.9l-0.3-1.3l4.4-1.3l10.5,5.1l3.1-1l9.2,2.9l10.2,7.3l5.8-3.2
		l2.7,3.5h7.8l1.7,1.3l4.4-0.3l0.7-1.3l7.8,6.7l0.7,5.4l4.8,3.8l10.2-3.8l3.1,2.5l10.9-1.9l4.8,1l-0.7,3.8l5.8,2.5l-0.3,3.8l3.7,2.2
		l1,6.4l3.4,4.1l-2.4,4.5l2.7,2.6l-2.7,1.6l-2,4.8l4.8-1.6l3.7,6.7l-7.5,4.5l3.1,1.9l0.3,6.7l2,1.6l14.7,0.6l1-5.1l3.4,1.6l1.4-2.9
		l10.2-0.6l1.7-7.3l2,2.2l3.4,0.6l3.1-2.9l0.7,2.6l-1,1l1.4,9.3l5.8,2.2l3.7-0.3l2,2.6l-1.4,8l1.4,1.6l3.1-2.6l4.1,2.6l-3.1,2.9
		l1,9.6l-1.7,1h-4.1l-3.7,1.9l-6.1,0.3l-0.7,1.3l-2.7-1l-7.2,1.3l3.1,1l0.7,2.6l-1.4,1.6l3.1,3.2l-0.7,1.9l-3.1,1.3l0.7,3.5l3.4,3.2
		l1.7-1.3l3.1,1.3l-0.3,1v1.6v0.3l0.3,2.6l-1.4,0.6l-3.4,1.9l-1.4,4.2l1.4,1l-0.3,3.5l2.7,2.2l-1,1.9l-3.8-0.6l-2.7,6.1l-0.7,2.6
		l1.4,1l0.7-1.9l2.4,4.2l-3.8,1.6l-1,3.2l-0.3-3.5h-1.4l-1.4,4.2l1,1.6l1-2.2v2.2l3.8-0.3l1.7,1.9v-6.1l3.4,3.2l-0.7,1.6l0.3,1.6
		l-5.1,3.2l-2.1-1.3l1-1.9l-3.8,1l-0.3,6.4l-1,1l1.7,2.6h-1.7H271l-8.2,8l-1.4-1l-1.4,2.6l2.4,1.3l2.4-2.2l2.7,0.6l0.7,1.6l1.4,5.8
		l-3.1,1.3v3.9l-3.4,2.6l1.7,3.2l-1,2.2l-2.7-1l-2.1,1v1.6l-2.1-0.3l-0.3,2.9l-2.4,1v-2.6l-1-0.3l-1.7-1l-0.3-0.3v-0.3l-0.3-0.3
		l-0.3-2.6h-2.7l-1,3.5v-0.3l-1.4,0.3v-5.8l-1.7,0.3h-1.4l-3.8-0.6l-1.4,1.3l-2.1,10l3.1,2.6l-6.2,5.1l2.4,0.3l-0.7,1.9l1.4,1.9
		l3.1,0.3l-1.4,1.9l3.8,5.1v0.3h1.7v1.3l-3.1,2.3l-5.5-1.3l-5.1,4.2l7.2,2.9l-2.4,4.8l1.7,3.5l-15.4-2.6l-8.6,0.3l-4.8,0.3l-0.3,3.5
		l-6.9,1.9l0.7,1.6l-1.4-0.6l1.7,1l-1.7,3.5l2.4,5.2l-11,3.9V404l-10.3-5.5l1,3.5l-1.4,0.6l3.8,2.9l2.1,1.3l-0.7,1l-2.1,1.9
		l-0.3,0.3L181.1,410.8z M279.4,276.5l-3.1-0.6l-4.1,0.3l4.1,1.9h3.1V276.5z"/>
	<path class="st17" d="M276.3,275.8l3.1,0.6v1.6h-3.1l-4.1-1.9L276.3,275.8z M272.3,458.9l0.3-3.2l-1-4.5l-2.4,2.3l-7.2-4l-1-3.6
		l7.9,1.3l1-8.1l1.4-0.3l-3.4,0.6l-0.3,1.6l-3.4-1.9l0.7-3.2l-3.4-1.3l-2.1-5.5l3.1-2.6H262l-1-2.3h-2.7l-2.1-3.2l-4.8-1.9l-5.1,2.6
		l2.4-3.5l-1-4.2l-1-1.6l2.4-1.3l-2.7-0.3l-0.7-1.6l2.7-5.2h-0.3l-1.7-3.2H243l-0.7-1.6l-7.5-3.5l1.7-4.5l6.2-0.3l-0.3-3.2l-2.1,0.6
		L240,387l3.4-2.6l-4.8-2.6l-4.5,1.3l2.4-4.8l-7.2-2.9l5.1-4.2l5.5,1.3l3.1-2.3v-1.3h-1.7v-0.3l-3.8-5.1l1.4-1.9l-3.1-0.3l-1.4-1.9
		l0.7-1.9l-2.4-0.3l6.2-5.1l-3.1-2.6l2.1-10l1.4-1.3l3.8,0.6h1.4l1.7-0.3v5.8l1.4-0.3v0.3l1-3.5h2.7l0.3,2.6l0.3,0.3v0.3l0.3,0.3
		l1.7,1l1,0.3v2.6l2.4-1l0.3-2.9l2.1,0.3V343l2.1-1l2.7,1l1-2.2l-1.7-3.2l3.4-2.6v-3.9l3.1-1.3l-1.4-5.8l-0.7-1.6l-2.7-0.6l-2.4,2.2
		l-2.4-1.3l1.4-2.6l1.4,1l8.2-8h0.3h1.7l-1.7-2.6l1-1l0.3-6.4l3.8-1l-1,1.9l2.1,1.3l5.1-3.2l-0.3-1.6l0.7-1.6l-3.4-3.2v6.1l-1.7-1.9
		l-3.8,0.3V298l-1,2.2l-1-1.6l1.4-4.2h1.4l0.3,3.5l1-3.2l3.8-1.6l-2.4-4.2l-0.7,1.9l-1.4-1l0.7-2.6l2.7-6.1l3.8,0.6l1-1.9l-2.7-2.2
		l0.3-3.5l-1.4-1l1.4-4.2l3.4-1.9l1.4-0.6l-0.3-2.6v-0.3v-1.6l0.3-1l-3.1-1.3l-1.7,1.3l-3.4-3.2l-0.7-3.5l3.1-1.3l0.7-1.9l-3.1-3.2
		l1.4-1.6l-0.7-2.6l-3.1-1l7.2-1.3l2.7,1l0.7-1.3l6.1-0.3l3.7-1.9h4.1l1.7-1l9.2-3.5l5.8,1.6l0.3,1.3l1.4-1.3l4.8,3.5l5.1-2.6
		l7.9,3.8l-2.4,2.2v0.3l-2.7,3.8v0.3l-1,1l-0.3,2.2v0.3l-1.4,1.9l1.7,2.9l2.7-1.3v0.3l0.7,5.1l1.7,0.3l-0.3,2.9l-4.4,0.3l-1.7,2.6
		l-2.4,0.3l-1.4-1.9l1.4-2.2l-1-1.6l1.4-0.3l-6.5-1.3l0.3,4.2l3.8-0.6l2.1,5.4v1l4.1-0.6l1,1.9l3.4,1.3l4.8-1.6l1.4,3.8l4.1,1.9
		l2.4-3.2l6.5-0.6l0.7,2.2l2.4-1.6l0.7-1.6h0.3l0.3-0.3l1-0.3l2-0.3l2.7,1.3l2.7-1v0.3l1,0.3l2.4,1.6l1,1.9v0.3l-1,3.5l3.4-2.2h0.3
		l3.8-1.3h1.7v0.3l2.7,0.6l0.7,2.2h3.1l-0.7,2.2l2.1,3.8l3.1,2.2l3.4-2.6l1.7-0.3l2.7,0.3l0.7,1.6h0.3v-0.3h0.3l1.4,1.9l-2.4,1.3
		l3.4,4.2l-1.4,1.9l0.7,3.8l-4.8,1.6l3.1,1.9l-2,2.9l-6.2-0.6l-0.7,1.6l2.1,1.9l-0.3,2.6l3.1,0.3l0.3,0.3l2.4,1.6l0.4,2.9l-5.4,4.8
		l-2,0.3v-0.3l-3.8-0.6l-3.4,4.2l-1.4,0.3l-1-2.2l-4.8-1l-1.7,1.6l0.7,4.8l3.5,10l12.7,0.6l1,2.9l2.1,1l2.4-1l-0.3,2.2l7.2,3.5
		l3.1,7.7l14-1.9l1.7-2.6l2.4-0.6l3.8,1.6v-1.3l2.1,0.6l12.3,1.3l-1,1.6v0.3l0.7,5.1l-2.4,4.2l3.1,5.5v0.3l-20.8,9H424L398,388
		l-15,11.3l-15.7,6.1l-12.6,20l-1,1.3l1.7-5.5l-2.4,5.5l-3.1,1.3l-0.7,3.2l2.1-2.6l-1,4.2l-5.5,6.5l-14,4.8l-13,0.3l-12.7,5.8
		l-6.5-0.3l-3.8,2.6L272.3,458.9z M281.8,320.7l2.1,0.6l0.7-1.3l-2.7-1L281.8,320.7z M329.2,274.9l1.7-0.6l-1.4-1.6l-2.7,1.3l-0.3,1
		v0.3l0.7,2.2l1.7-0.3L329.2,274.9z"/>
</g>
<text transform="matrix(1 0 0 1 23.1693 634.2755)" class="st11 st8 st14">Nota: Les variacions 21/20 no són calculables (nc) degut a que les dades de 2020 són “0” pel tancament forçós arrel de la crisi sanitària de la COVID-19.</text>
</svg>
