<?xml version="1.0" encoding="utf-8"?>
<!-- Generator: Adobe Illustrator 24.0.1, SVG Export Plug-In . SVG Version: 6.00 Build 0)  -->
<svg version="1.1" id="Capa_1" xmlns="http://www.w3.org/2000/svg" xmlns:xlink="http://www.w3.org/1999/xlink" x="0px" y="0px"
	 viewBox="0 0 696 648" style="enable-background:new 0 0 696 648;" xml:space="preserve">
<style type="text/css">
	.st0{fill:#1C3761;}
	.st1{font-family:'OpenSans-Bold';}
	.st2{font-size:19.23px;}
	.st3{enable-background:new    ;}
	.st4{font-family:'OpenSans-Light';}
	.st5{font-size:13.74px;}
	.st6{fill:#66E0E0;}
	.st7{fill:#1D1D1B;}
	.st8{font-family:'OpenSans-SemiBold';}
	.st9{font-size:10.3px;}
	.st10{fill:none;}
	.st11{fill:none;stroke:#EEEEEE;stroke-width:0.7013;stroke-dasharray:0;}
	.st12{fill:#003366;}
	.st13{font-family:'SourceSansPro-Regular';}
	.st14{font-size:9.7229px;}
	.st15{fill:none;stroke:#003366;stroke-width:0.7013;stroke-dasharray:0;}
	.st16{letter-spacing:-1;}
	.st17{fill:none;stroke:#003366;stroke-width:2.8051;}
	.st18{fill:none;stroke:#CCD6E0;stroke-width:2.8051;}
	.st19{fill:#CCD6E0;}
	.st20{fill:none;stroke:#003366;stroke-width:0.3506;stroke-dasharray:0.7013,0.7013;}
	.st21{font-family:'ArialMT';}
	.st22{font-size:8.3339px;}
	.st23{font-size:11.68px;}
	.st24{fill:none;stroke:#66E0E0;stroke-width:2.8051;}
	.st25{fill:#878787;}
</style>
<text transform="matrix(1 0 0 1 290.2435 49.3174)" class="st0 st1 st2">Turisme Rural</text>
<text transform="matrix(1 0 0 1 109.3446 76.2751)" class="st3"><tspan x="0" y="0" class="st0 st4 st5">El turisme rural, igual que als càmpings, arriba a una ocupació propera a les dades  </tspan><tspan x="155" y="16.5" class="st0 st4 st5">de 2019 (prop de 6 pp per sota).</tspan></text>
<path class="st0" d="M281,114.7h11.2c1.1,0,2,0.9,2,2v4c0,1.1-0.9,2-2,2H281c-1.1,0-2-0.9-2-2v-4C279,115.6,279.9,114.7,281,114.7z"
	/>
<path class="st6" d="M339,114.7h11.2c1.1,0,2,0.9,2,2v4c0,1.1-0.9,2-2,2H339c-1.1,0-2-0.9-2-2v-4C337,115.6,337.9,114.7,339,114.7z"
	/>
<text transform="matrix(1 0 0 1 357.8813 122.6965)" class="st7 st8 st9">2020</text>
<text transform="matrix(1 0 0 1 299.7732 122.6964)" class="st7 st8 st9">2021</text>
<g id="facets">
	<rect x="68.9" y="147" class="st10" width="581.4" height="376.3"/>
	<line class="st11" x1="68.9" y1="523.6" x2="650.3" y2="523.6"/>
	<text transform="matrix(1.0196 0 0 1 52.5571 530.4922)" class="st12 st13 st14">0%</text>
	<line class="st11" x1="68.9" y1="448.4" x2="650.3" y2="448.4"/>
	<text transform="matrix(1.0196 0 0 1 48.7817 451.5811)" class="st12 st13 st14">20%</text>
	<line class="st11" x1="68.9" y1="373.1" x2="650.3" y2="373.1"/>
	<text transform="matrix(1.0196 0 0 1 48.7817 376.3164)" class="st12 st13 st14">40%</text>
	<line class="st11" x1="68.9" y1="297.8" x2="650.3" y2="297.8"/>
	<text transform="matrix(1.0196 0 0 1 48.7817 301.0518)" class="st12 st13 st14">60%</text>
	<line class="st11" x1="68.9" y1="222.6" x2="650.3" y2="222.6"/>
	<text transform="matrix(1.0196 0 0 1 48.7817 225.7876)" class="st12 st13 st14">80%</text>
	<line class="st11" x1="68.9" y1="147.3" x2="650.3" y2="147.3"/>
	<text transform="matrix(1.0196 0 0 1 43.8545 150.5234)" class="st12 st13 st14">100%</text>
	<path class="st15" d="M69.3,523.6h581.4"/>
	<line class="st15" x1="69.3" y1="523.3" x2="69.3" y2="527.5"/>
	<text transform="matrix(1.0196 0 0 1 61.5493 542.918)" class="st12 st13 st14">Gen.</text>
	<line class="st15" x1="122.1" y1="523.3" x2="122.1" y2="527.5"/>
	<text transform="matrix(1.0196 0 0 1 115.1011 542.918)" class="st12 st13 st14">F</text>
	<text transform="matrix(1.0196 0 0 1 119.8594 542.918)" class="st12 st13 st14">e</text>
	<text transform="matrix(1.0196 0 0 1 124.7764 542.918)" class="st12 st13 st14">b</text>
	<text transform="matrix(1.0196 0 0 1 130.1592 542.918)" class="st12 st13 st14">.</text>
	<line class="st15" x1="175" y1="523.3" x2="175" y2="527.5"/>
	<text transform="matrix(1.0196 0 0 1 166.5566 542.918)" class="st12 st13 st14">Ma</text>
	<text transform="matrix(1.0196 0 0 1 178.7603 542.918)" class="st12 st13 st14">r</text>
	<text transform="matrix(1.0196 0 0 1 181.6348 542.918)" class="st12 st13 st14 st16">.</text>
	<text transform="matrix(1.0196 0 0 1 182.7349 542.918)" class="st12 st13 st14">*</text>
	<line class="st15" x1="227.8" y1="523.3" x2="227.8" y2="527.5"/>
	<text transform="matrix(1.0196 0 0 1 221.4619 542.918)" class="st12 st13 st14">Ab</text>
	<text transform="matrix(1.0196 0 0 1 232.3369 542.918)" class="st12 st13 st14">r</text>
	<text transform="matrix(1.0196 0 0 1 235.2119 542.918)" class="st12 st13 st14">.</text>
	<line class="st15" x1="280.7" y1="523.3" x2="280.7" y2="527.5"/>
	<text transform="matrix(1.0196 0 0 1 272.4814 542.918)" class="st12 st13 st14">Mai</text>
	<text transform="matrix(1.0196 0 0 1 287.123 542.918)" class="st12 st13 st14 st16">.</text>
	<text transform="matrix(1.0196 0 0 1 288.2236 542.918)" class="st12 st13 st14">*</text>
	<line class="st15" x1="333.5" y1="523.3" x2="333.5" y2="527.5"/>
	<text transform="matrix(1.0196 0 0 1 326.2568 542.918)" class="st12 st13 st14">Jun.</text>
	<line class="st15" x1="386.4" y1="523.3" x2="386.4" y2="527.5"/>
	<text transform="matrix(1.0196 0 0 1 380.5576 542.918)" class="st12 st13 st14">Jul.</text>
	<line class="st15" x1="439.3" y1="523.3" x2="439.3" y2="527.5"/>
	<text transform="matrix(1.0196 0 0 1 431.9883 542.918)" class="st12 st13 st14">A</text>
	<text transform="matrix(1.0196 0 0 1 437.3809 542.918)" class="st12 st13 st14">g</text>
	<text transform="matrix(1.0196 0 0 1 442.2383 542.918)" class="st12 st13 st14">o</text>
	<text transform="matrix(1.0196 0 0 1 447.5127 542.918)" class="st12 st13 st14">.</text>
	<line class="st15" x1="492.1" y1="523.3" x2="492.1" y2="527.5"/>
	<text transform="matrix(1.0196 0 0 1 485.8379 542.918)" class="st12 st13 st14">S</text>
	<text transform="matrix(1.0196 0 0 1 491.1309 542.918)" class="st12 st13 st14">e</text>
	<text transform="matrix(1.0196 0 0 1 495.9492 542.918)" class="st12 st13 st14">t</text>
	<text transform="matrix(1.0196 0 0 1 499.3691 542.918)" class="st12 st13 st14">.</text>
	<line class="st15" x1="545" y1="523.3" x2="545" y2="527.5"/>
	<text transform="matrix(1.0196 0 0 1 538.2461 542.918)" class="st12 st13 st14">O</text>
	<text transform="matrix(1.0196 0 0 1 544.8281 542.918)" class="st12 st13 st14">c</text>
	<text transform="matrix(1.0196 0 0 1 549.249 542.918)" class="st12 st13 st14">t</text>
	<text transform="matrix(1.0196 0 0 1 552.6699 542.918)" class="st12 st13 st14">.</text>
	<line class="st15" x1="597.8" y1="523.3" x2="597.8" y2="527.5"/>
	<text transform="matrix(1.0196 0 0 1 590.2949 542.918)" class="st12 st13 st14">N</text>
	<text transform="matrix(1.0196 0 0 1 596.709 542.918)" class="st12 st13 st14">o</text>
	<text transform="matrix(1.0196 0 0 1 602.043 542.918)" class="st12 st13 st14">v</text>
	<text transform="matrix(1.0196 0 0 1 606.3252 542.918)" class="st12 st13 st14">.</text>
	<line class="st15" x1="650.7" y1="523.3" x2="650.7" y2="527.5"/>
	<text transform="matrix(1.0196 0 0 1 643.5801 542.918)" class="st12 st13 st14">Des.</text>
</g>
<path class="st17" d="M68.9,512.4c17.6,1.7,35.2,3.4,52.9,3.4s35.2-11.1,52.9-22.2c8.7-4.3,18.7-8.7,29.9-12.6
	c8.4-3,16.4-5.3,23.9-7.2"/>
<path class="st18" d="M68.9,492.1c17.6-7.3,35.2-14.6,52.9-19.2s35.2-4.3,52.9-8.3s35.2-15.8,52.9-15.8s35.2,10.2,52.9,10.2
	s35.2-16.9,52.9-25.6s35.2-10.3,52.9-26.7s35.2-71.5,52.9-71.5s35.2,106,52.9,115.5S527,465,544.6,465s35.2-7.3,52.9-12.8
	s35.2-12.9,52.9-20.3"/>
<g id="data-points">
	<path id="point-0-0" class="st12" d="M68.2,512.4c0-0.4,0.3-0.7,0.7-0.7c0.4,0,0.7,0.3,0.7,0.7s-0.3,0.7-0.7,0.7l0,0
		C68.5,513.1,68.2,512.8,68.2,512.4L68.2,512.4z"/>
	<path id="point-0-1" class="st12" d="M121.1,515.8c0-0.4,0.3-0.7,0.7-0.7c0.4,0,0.7,0.3,0.7,0.7s-0.3,0.7-0.7,0.7l0,0
		C121.4,516.5,121.1,516.2,121.1,515.8z"/>
	<path id="point-0-2" class="st12" d="M223.9,473.6c0-2.3,1.8-4.3,4.2-4.3c2.3,0,4.3,1.8,4.3,4.2c0,2.3-1.8,4.3-4.2,4.3H228
		C225.8,477.8,223.9,475.9,223.9,473.6z"/>
	<path id="point-1-0" class="st6" d="M68.2,483.8c0-0.4,0.3-0.7,0.7-0.7c0.4,0,0.7,0.3,0.7,0.7s-0.3,0.7-0.7,0.7l0,0
		C68.5,484.5,68.2,484.2,68.2,483.8L68.2,483.8z"/>
	<path id="point-1-1" class="st6" d="M121.1,475.9c0-0.4,0.3-0.7,0.7-0.7c0.4,0,0.7,0.3,0.7,0.7s-0.3,0.7-0.7,0.7l0,0
		C121.4,476.6,121.1,476.3,121.1,475.9z"/>
	<path id="point-1-3" class="st6" d="M226.8,523.3c0-0.4,0.3-0.7,0.7-0.7s0.7,0.3,0.7,0.7s-0.3,0.7-0.7,0.7l0,0
		C227.1,524,226.8,523.7,226.8,523.3L226.8,523.3z"/>
	<path id="point-1-6" class="st6" d="M385.3,391.2c0-0.4,0.3-0.7,0.7-0.7c0.4,0,0.7,0.3,0.7,0.7s-0.3,0.7-0.7,0.7l0,0
		C385.7,391.9,385.3,391.6,385.3,391.2z"/>
	<path id="point-1-7" class="st6" d="M438.2,322.3c0-0.4,0.3-0.7,0.7-0.7s0.7,0.3,0.7,0.7s-0.3,0.7-0.7,0.7l0,0
		C438.5,323,438.2,322.7,438.2,322.3z"/>
	<path id="point-1-10" class="st6" d="M596.8,520.3c0-0.4,0.3-0.7,0.7-0.7s0.7,0.3,0.7,0.7s-0.3,0.7-0.7,0.7l0,0
		C597.1,521,596.8,520.7,596.8,520.3z"/>
	<path id="point-1-11" class="st6" d="M646.1,488.7c0-2.3,1.8-4.3,4.2-4.3c2.3,0,4.3,1.8,4.3,4.2c0,2.3-1.8,4.3-4.2,4.3h-0.1
		C648,492.9,646.1,491,646.1,488.7z"/>
	<path id="point-2-0" class="st19" d="M68.2,492.1c0-0.4,0.3-0.7,0.7-0.7c0.4,0,0.7,0.3,0.7,0.7s-0.3,0.7-0.7,0.7l0,0
		C68.5,492.8,68.2,492.4,68.2,492.1z"/>
	<path id="point-2-1" class="st19" d="M121.1,472.9c0-0.4,0.3-0.7,0.7-0.7c0.4,0,0.7,0.3,0.7,0.7s-0.3,0.7-0.7,0.7l0,0
		C121.4,473.6,121.1,473.2,121.1,472.9z"/>
	<path id="point-2-2" class="st19" d="M173.9,464.6c0-0.4,0.3-0.7,0.7-0.7s0.7,0.3,0.7,0.7s-0.3,0.7-0.7,0.7l0,0
		C174.2,465.3,173.9,465,173.9,464.6z"/>
	<path id="point-2-3" class="st19" d="M226.8,448.8c0-0.4,0.3-0.7,0.7-0.7s0.7,0.3,0.7,0.7s-0.3,0.7-0.7,0.7l0,0
		C227.1,449.5,226.8,449.2,226.8,448.8z"/>
	<path id="point-2-4" class="st19" d="M279.6,458.9c0-0.4,0.3-0.7,0.7-0.7c0.4,0,0.7,0.3,0.7,0.7s-0.3,0.7-0.7,0.7l0,0
		C280,459.6,279.6,459.3,279.6,458.9L279.6,458.9z"/>
	<path id="point-2-5" class="st19" d="M332.5,433.3c0-0.4,0.3-0.7,0.7-0.7c0.4,0,0.7,0.3,0.7,0.7s-0.3,0.7-0.7,0.7l0,0
		C332.8,434,332.5,433.7,332.5,433.3z"/>
	<path id="point-2-6" class="st19" d="M385.3,406.6c0-0.4,0.3-0.7,0.7-0.7c0.4,0,0.7,0.3,0.7,0.7s-0.3,0.7-0.7,0.7l0,0
		C385.7,407.3,385.3,407,385.3,406.6z"/>
	<path id="point-2-7" class="st19" d="M438.2,335.1c0-0.4,0.3-0.7,0.7-0.7s0.7,0.3,0.7,0.7s-0.3,0.7-0.7,0.7l0,0
		C438.5,335.8,438.2,335.5,438.2,335.1z"/>
	<path id="point-2-8" class="st19" d="M491,450.7c0-0.4,0.3-0.7,0.7-0.7s0.7,0.3,0.7,0.7s-0.3,0.7-0.7,0.7l0,0
		C491.4,451.4,491.1,451,491,450.7z"/>
	<path id="point-2-9" class="st19" d="M543.9,465c0-0.4,0.3-0.7,0.7-0.7s0.7,0.3,0.7,0.7s-0.3,0.7-0.7,0.7l0,0
		C544.2,465.7,543.9,465.3,543.9,465z"/>
	<path id="point-2-10" class="st19" d="M596.8,452.2c0-0.4,0.3-0.7,0.7-0.7s0.7,0.3,0.7,0.7s-0.3,0.7-0.7,0.7l0,0
		C597.1,452.9,596.8,452.6,596.8,452.2z"/>
	<path id="point-2-11" class="st19" d="M646.1,431.8c0-2.3,1.8-4.3,4.2-4.3c2.3,0,4.3,1.8,4.3,4.2c0,2.3-1.8,4.3-4.2,4.3h-0.1
		C648,436,646.1,434.2,646.1,431.8z"/>
</g>
<line class="st20" x1="68.9" y1="442" x2="650.3" y2="442"/>
<text transform="matrix(1.0196 0 0 1 554.1924 437.8369)" class="st12 st21 st22">Mitjana 2019: 21,6%</text>
<text transform="matrix(1 0 0 1 48.7819 476.5669)" class="st0 st13 st23">10,5</text>
<path id="point-0-0-2" class="st6" d="M65.7,483.6c0-2.3,1.8-4.1,4.1-4.1c2.2,0,4.1,1.9,4.1,4.1c0,2.3-1.8,4.1-4.1,4.1
	S65.7,485.9,65.7,483.6L65.7,483.6z"/>
<path id="point-0-0-3" class="st19" d="M65.1,492.5c0-2.3,1.8-4.1,4.1-4.1c2.2,0,4.1,1.9,4.1,4.1c0,2.3-1.8,4.1-4.1,4.1
	C67,496.6,65.1,494.7,65.1,492.5z"/>
<text transform="matrix(1 0 0 1 47.4378 515.0687)" class="st0 st13 st23">2,9</text>
<path id="point-0-1-2" class="st6" d="M118.6,476.1c0-1.5,1.2-2.8,2.8-2.8l0,0c1.5,0,2.8,1.3,2.8,2.8s-1.3,2.8-2.8,2.8l0,0l0,0
	C119.8,478.9,118.6,477.7,118.6,476.1z"/>
<path id="point-0-1-3" class="st6" d="M225.3,523c0-1.5,1.2-2.8,2.8-2.8l0,0c1.5,0,2.8,1.2,2.8,2.8c0,1.5-1.2,2.8-2.8,2.8l0,0l0,0
	C226.6,525.8,225.4,524.5,225.3,523z"/>
<path id="point-0-1-4" class="st6" d="M331.5,452.7c0-1.5,1.2-2.8,2.8-2.8l0,0c1.5,0,2.8,1.3,2.8,2.8s-1.3,2.8-2.8,2.8l0,0
	C332.8,455.5,331.6,454.2,331.5,452.7z"/>
<path id="point-0-1-5" class="st12" d="M119.5,516.4c0-1.5,1.2-2.8,2.8-2.8l0,0c1.5,0,2.8,1.3,2.8,2.8s-1.3,2.8-2.8,2.8l0,0
	C120.7,519.2,119.5,518,119.5,516.4z"/>
<path id="point-0-1-6" class="st6" d="M384.2,390.5c0-1.5,1.2-2.8,2.8-2.8l0,0c1.5,0,2.8,1.3,2.8,2.8s-1.3,2.8-2.8,2.8l0,0
	C385.5,393.3,384.3,392,384.2,390.5z"/>
<path id="point-0-1-7" class="st6" d="M435.4,321.6c0-1.5,1.2-2.8,2.8-2.8l0,0c1.5,0,2.8,1.3,2.8,2.8s-1.3,2.8-2.8,2.8l0,0
	C436.7,324.4,435.4,323.2,435.4,321.6z"/>
<path id="point-0-1-8" class="st6" d="M489,458.2c0-1.5,1.2-2.8,2.8-2.8l0,0c1.5,0,2.8,1.3,2.8,2.8s-1.3,2.8-2.8,2.8l0,0
	C490.2,461,489,459.8,489,458.2z"/>
<path id="point-0-1-9" class="st6" d="M542.5,501.8c0-1.5,1.2-2.8,2.8-2.8l0,0c1.5,0,2.8,1.3,2.8,2.8s-1.3,2.8-2.8,2.8l0,0
	C543.8,504.5,542.5,503.3,542.5,501.8z"/>
<path id="point-0-1-10" class="st6" d="M595,520.2c0-1.5,1.2-2.8,2.8-2.8l0,0c1.5,0,2.8,1.3,2.8,2.8s-1.3,2.8-2.8,2.8l0,0
	C596.3,523,595,521.8,595,520.2z"/>
<path id="point-0-1-11" class="st19" d="M595.4,452.2c0-1.5,1.2-2.8,2.8-2.8l0,0c1.5,0,2.8,1.3,2.8,2.8s-1.3,2.8-2.8,2.8l0,0
	C596.6,454.9,595.4,453.7,595.4,452.2z"/>
<path id="point-0-1-12" class="st19" d="M542.4,465.4c0-1.5,1.2-2.8,2.8-2.8l0,0c1.5,0,2.8,1.3,2.8,2.8s-1.3,2.8-2.8,2.8l0,0
	C543.7,468.2,542.5,467,542.4,465.4z"/>
<path id="point-0-1-13" class="st19" d="M489.7,450.7c0-1.5,1.2-2.8,2.8-2.8l0,0c1.5,0,2.8,1.3,2.8,2.8s-1.3,2.8-2.8,2.8l0,0
	C490.9,453.4,489.7,452.2,489.7,450.7z"/>
<path id="point-0-1-14" class="st19" d="M435.9,335.6c0-1.5,1.2-2.8,2.8-2.8l0,0c1.5,0,2.8,1.3,2.8,2.8s-1.3,2.8-2.8,2.8l0,0
	C437.1,338.4,435.9,337.1,435.9,335.6z"/>
<path id="point-0-1-15" class="st19" d="M384.2,405.9c0-1.5,1.2-2.8,2.8-2.8l0,0c1.5,0,2.8,1.3,2.8,2.8s-1.3,2.8-2.8,2.8l0,0
	C385.5,408.7,384.3,407.5,384.2,405.9z"/>
<path id="point-0-1-16" class="st19" d="M331.5,432.7c0-1.5,1.2-2.8,2.8-2.8l0,0c1.5,0,2.8,1.3,2.8,2.8s-1.3,2.8-2.8,2.8l0,0
	C332.8,435.4,331.6,434.2,331.5,432.7z"/>
<path id="point-0-1-17" class="st19" d="M279,458.9c0-1.5,1.2-2.8,2.8-2.8l0,0c1.5,0,2.8,1.3,2.8,2.8s-1.3,2.8-2.8,2.8l0,0
	C280.3,461.7,279,460.5,279,458.9z"/>
<path id="point-0-1-18" class="st19" d="M224.9,449.1c0-1.5,1.2-2.8,2.8-2.8l0,0c1.5,0,2.8,1.3,2.8,2.8s-1.3,2.8-2.8,2.8l0,0
	C226.2,451.8,224.9,450.6,224.9,449.1z"/>
<path id="point-0-1-19" class="st19" d="M172.1,464.8c0-1.5,1.2-2.8,2.8-2.8l0,0c1.5,0,2.8,1.3,2.8,2.8s-1.3,2.8-2.8,2.8l0,0
	C173.4,467.5,172.2,466.3,172.1,464.8z"/>
<path class="st19" d="M398.1,114.6h11.2c1.1,0,2,0.9,2,2v4c0,1.1-0.9,2-2,2h-11.2c-1.1,0-2-0.9-2-2v-4
	C396.1,115.5,397,114.6,398.1,114.6z"/>
<text transform="matrix(1 0 0 1 417.0115 122.6787)" class="st7 st8 st9">2019</text>
<text transform="matrix(1 0 0 1 46.6042 496.5609)" class="st0 st13 st23">8,3</text>
<text transform="matrix(1 0 0 1 221.4618 515.7631)" class="st0 st13 st23">0,0</text>
<text transform="matrix(1 0 0 1 238.3798 477.8497)" class="st0 st13 st23">13,4</text>
<text transform="matrix(1 0 0 1 427.1489 314.153)" class="st0 st13 st23">53,4</text>
<text transform="matrix(1 0 0 1 427.1488 356.8654)" class="st0 st13 st23">50,0</text>
<text transform="matrix(1 0 0 1 637.8906 481.8572)" class="st0 st13 st23">9,2</text>
<text transform="matrix(1 0 0 1 634.8188 420.7719)" class="st0 st13 st23">24,3</text>
<path id="point-0-2-2" class="st12" d="M65.5,512.2c0-2.3,1.8-4.3,4.2-4.3c2.3,0,4.3,1.8,4.3,4.2c0,2.3-1.8,4.3-4.2,4.3h-0.1
	C67.5,516.4,65.6,514.6,65.5,512.2z"/>
<path class="st24" d="M333.5,452.4c2.5-2.1,3.5-5.1,5.5-7.1c25-26,48-51,65-82c8-16,15-34,32-42c8,0,12,9,16,15c1,3,2.4,4.8,3.4,7.8
	c2.1,4.2,3.7,8.6,4.6,13.2c5,26,12,49,19,73c5,16,13,31,25,42c24,22,51,35,79,47c19,3,40.6-1,54.6-15c1-1,2.4-3,3.4-4
	c3-4,7-7,9.3-11.6"/>
<path class="st24" d="M225.5,523.6c1.7-0.2,3.5-0.5,5.2-0.8"/>
<path class="st24" d="M68.9,483.8c9.4-2.1,18.9-4.2,28.5-5.8c8.7-1.4,16.3-3.2,25.1-2.1c2.6,0.7,6.4,2.1,10.2,4.9
	c5.8,4.3,8.2,9.5,9.6,11.9c3.3,5.6,11.1,12.2,31.1,15.4"/>
<path id="point-0-1-2_1_" class="st6" d="M171.1,507.9c0-1.5,1.2-2.8,2.8-2.8c1.5,0,2.8,1.3,2.8,2.8s-1.3,2.8-2.8,2.8
	C172.3,510.7,171.1,509.5,171.1,507.9z"/>
<g>
	<text transform="matrix(1 0 0 1 61.5492 592.0103)" class="st25 st8 st9">Font: Elaboració pròpia del LABturisme en base a dades de l&apos;Enquesta d&apos;ocupació en allotjaments de l&apos;INE.        </text>
</g>
<text transform="matrix(1 0 0 1 58.864 605.5723)" class="st25 st8 st9">*Les dades d’abril i maig de 2020 no estan disponibles, degut al tancament d’establiments per la crisi de la COVID-19.</text>
<g>
	<text transform="matrix(1 0 0 1 185.6948 514.6335)" class="st0 st13 st23">5,0</text>
</g>
</svg>
