<?xml version="1.0" encoding="utf-8"?>
<!-- Generator: Adobe Illustrator 24.0.1, SVG Export Plug-In . SVG Version: 6.00 Build 0)  -->
<svg version="1.1" id="graphic" xmlns="http://www.w3.org/2000/svg" xmlns:xlink="http://www.w3.org/1999/xlink" x="0px" y="0px"
	 viewBox="0 0 562.5 661.6" style="enable-background:new 0 0 562.5 661.6;" xml:space="preserve">
<style type="text/css">
	.st0{fill:#003366;}
	.st1{font-family:'OpenSans-Bold';}
	.st2{font-size:11px;}
	.st3{fill:#E3F1F3;}
	.st4{fill:#E0F3F4;}
	.st5{fill:#E5F8F8;}
	.st6{fill:#E9F9F9;}
	.st7{fill:#CBF4F4;}
	.st8{font-family:'OpenSans-SemiBold';}
	.st9{font-size:8px;}
	.st10{fill:#6685A3;}
	.st11{font-family:'OpenSans-Light';}
	.st12{font-size:9px;}
	.st13{font-size:14px;}
	.st14{fill:#FFFFFF;stroke:#82B0D9;stroke-width:2;stroke-dasharray:2,2,2,2,2,2;}
	.st15{enable-background:new    ;}
	.st16{font-size:7px;}
	.st17{fill:#83E2E2;stroke:#FFFFFF;stroke-width:0.3908;}
	.st18{fill:#347998;stroke:#FFFFFF;stroke-width:0.3908;}
	.st19{fill:#448EA6;stroke:#FFFFFF;stroke-width:0.3908;}
	.st20{fill:#003366;stroke:#FFFFFF;stroke-width:0.3908;}
	.st21{fill:#73CDD3;stroke:#FFFFFF;stroke-width:0.3908;}
</style>
<g>
	<text transform="matrix(1 0 0 1 345.2759 161.0653)" class="st0 st1 st2">GIRONA</text>
</g>
<text transform="matrix(1 0 0 1 47.6 205.0958)" class="st0 st1 st2">LLEIDA</text>
<path class="st3" d="M208.3,364.1c1.4,1.6,0.3,1.8-1,1.9C206.4,364.9,208.2,364.9,208.3,364.1z"/>
<path class="st4" d="M250.9,450.3c-0.1-0.9-0.5-1.8,0.5-2.4c0.5,0.3,0.9-1.6,1.3,0c0.1,0.5,1.1,1.6-0.4,1.6
	C251.5,449.3,251.4,450,250.9,450.3z"/>
<path class="st5" d="M355.8,264.5c0-0.2,0-0.5-0.1-0.7c0.8-1.7,2.2-1,3.5-1.2C358.4,263.8,356.7,263.3,355.8,264.5z"/>
<path class="st6" d="M364.9,262.5c0.9,0.5,1,1.4,1.2,2.2C364.6,264.8,364.4,263.8,364.9,262.5z"/>
<path class="st7" d="M351.1,259.7V259c0.9,0.4,2.1-0.5,2.8,0.7H351.1z"/>
<text transform="matrix(1 0 0 1 47.6001 220.8411)" class="st0 st8 st9">Ocupació:  </text>
<text transform="matrix(1 0 0 1 47.6001 230.4411)" class="st0 st8 st9">21,2% (-7,6 pp)</text>
<text transform="matrix(1 0 0 1 74.614 227.4455)" class="st10 st8 st9">  </text>
<text transform="matrix(1 0 0 1 175.8122 104.8104)" class="st10 st11 st12">Entre parèntesi, variació iteranual respecte a l’any 2019 </text>
<g>
	<text transform="matrix(1 0 0 1 47.6005 244.6703)" class="st0 st8 st9">Viatgers: </text>
	<text transform="matrix(1 0 0 1 47.6005 254.2703)" class="st0 st8 st9">24.692 (-62,5%) </text>
</g>
<g>
	<text transform="matrix(1 0 0 1 47.6001 266.8463)" class="st0 st8 st9">Pernoctacions: </text>
	<text transform="matrix(1 0 0 1 47.6001 276.4463)" class="st0 st8 st9">52.414 (-59,9%) </text>
	<text transform="matrix(1 0 0 1 104.6001 276.4463)" class="st10 st8 st9"> </text>
</g>
<text transform="matrix(1 0 0 1 345.2757 175.6582)" class="st0 st8 st9">Ocupació:  20,0% (-31,6 pp)   </text>
<text transform="matrix(1 0 0 1 345.2758 189.3174)" class="st0 st8 st9">Viatgers: 65.744 (-81,1%)</text>
<text transform="matrix(1 0 0 1 345.2764 201.1968)" class="st0 st8 st9">Pernoctacions: 115.250 (-88,5%)</text>
<g>
	<text transform="matrix(1 0 0 1 394.4001 425.3027)" class="st0 st1 st2">ENTORN DE BARCELONA</text>
</g>
<text transform="matrix(1 0 0 1 394.3996 441.8717)" class="st0 st8 st9">Ocupació: 22,5% (-56,8 pp) </text>
<text transform="matrix(1 0 0 1 394.3997 455.5309)" class="st0 st8 st9">Viatgers: 72.944 (-76,0%)</text>
<text transform="matrix(1 0 0 1 394.3998 469.7142)" class="st0 st8 st9">Pernoctacions: 131.960 (-83,3%)</text>
<g>
	<text transform="matrix(1 0 0 1 175.812 535.6613)" class="st0 st1 st2">TARRAGONA</text>
</g>
<text transform="matrix(1 0 0 1 175.9 551.9716)" class="st0 st8 st9">Ocupació: 21,5% (-31,8 pp) </text>
<text transform="matrix(1 0 0 1 175.9 565.6306)" class="st0 st8 st9">Viatgers: 32.803 (-87,6%) </text>
<text transform="matrix(1 0 0 1 175.9003 579.814)" class="st0 st8 st9">Pernoctacions: 61.035 (-91,4%) </text>
<text transform="matrix(1 0 0 1 208.9619 32.3976)" class="st0 st8 st13">Establiments hotelers</text>
<g>
	<text transform="matrix(1 0 0 1 394.3999 516.8963)" class="st0 st1 st2">BARCELONÈS</text>
</g>
<text transform="matrix(1 0 0 1 394.4005 532.9103)" class="st0 st8 st9">Ocupació: 20,3% (-54,3 pp) </text>
<text transform="matrix(1 0 0 1 394.4006 546.5694)" class="st0 st8 st9">Viatgers: 104.815 (-87,0%) </text>
<text transform="matrix(1 0 0 1 394.4006 560.7527)" class="st0 st8 st9">Pernoctacions: 217.513 (-89,2%) </text>
<polyline class="st14" points="361.1,443.4 361.1,524.9 385.2,524.9 "/>
<text transform="matrix(1 0 0 1 68.5985 52.9317)" class="st15"><tspan x="0" y="0" class="st10 st11 st12">Tot i que totes les províncies catalanes presenten resultats negatius respecte a l&apos;abril de 2019, la província  </tspan><tspan x="-1.9" y="10.8" class="st10 st11 st12">de Lleida és qui obté resultats menys negatius en els tres indicadors, sobretot en ocupació. La província de  </tspan><tspan x="12.9" y="21.6" class="st10 st11 st12">Tarragona, junt amb el Barcelonès, registren els decreixements més significatius, tot i que la pèrdua  </tspan><tspan x="81.9" y="32.4" class="st10 st11 st12">d&apos;ocupació més alta és pels allotjaments de l&apos;entorn de Barcelona.</tspan></text>
<image style="overflow:visible;enable-background:new    ;" width="580" height="65" xlink:href="874D5530.jpg"  transform="matrix(0.2291 0 0 0.2291 218.261 113.2255)">
</image>
<text transform="matrix(1 0 0 1 20.5957 640.1839)" class="st10 st8 st16">Font: Elaboració pròpia del LABTurisme en base a dades de l’Enquesta d’ocupació en allotjaments de l’INE</text>
<g id="regions-layer">
	<path class="st17" d="M325.5,292.2v-0.3l0.3-0.9l2.7-1.2l1.3,1.6l-1.7,0.6l-0.3,2.2l-1.7,0.3L325.5,292.2z M320.7,222.4l1-2.5h2
		l1,1.6l-1.7,3.1l4,4l-8-0.9l0.3-5L320.7,222.4z M516.5,259.1l-0.3-0.3l0.3-0.3h0.3v0.6H516.5z M506.2,306.5l-0.3-0.3l-0.3-0.3v-0.3
		l1-0.3L506.2,306.5z M374.3,342.8l-0.7-4.7l1.7-1.6l4.7,0.9l1,2.2l1.3-0.3l3.3-4.1l3.7,0.6v0.3l2-0.3l5.3-4.7l-0.3-2.8l-2.3-1.6
		l-0.3-0.3l-3-0.3l0.3-2.5l-2-1.9l0.7-1.6l6,0.6l2-2.8l-3-1.9l4.7-1.6l-0.7-3.7l1.3-1.9l-3.3-4.1l2.3-1.2l-1.3-1.9h-0.3v0.3h-0.3
		l-0.7-1.6l-2.7-0.3l-1.7,0.3l-3.3,2.5l-3-2.2l-2-3.7l0.7-2.2h-3l-0.7-2.2l-2.7-0.6v-0.3h-1.7l-3.7,1.2h-0.3L369,295l1-3.4v-0.3
		l-1-1.9l-2.3-1.6l-1-0.3v-0.3l-2.7,0.9l-2.7-1.2l-2,0.3l-1,0.3l-0.3,0.3h-0.3l-0.7,1.6l-2.3,1.6l-0.7-2.2l-6.3,0.6l-2.3,3.1l-4-1.9
		l-1.3-3.7l-4.7,1.6l-3.3-1.2l-1-1.9l-4,0.6v-0.9l-2-5.3l-3.7,0.6l-0.3-4.1l6.3,1.2l-1.3,0.3l1,1.6l-1.3,2.2l1.3,1.9l2.3-0.3
		l1.7-2.5l4.3-0.3l0.3-2.8l-1.7-0.3l-0.7-5V272l-2.7,1.2l-1.7-2.8l1.3-1.9v-0.3l0.3-2.2l1-0.9v-0.3l2.7-3.7v-0.3l2.3-2.2l-7.7-3.7
		l-5,2.5l-4.7-3.4l-1.3,1.2l-0.3-1.2l-5.7-1.6l-9,3.4l-1-9.3l3-2.8l-4-2.5l-3,2.5l-1.3-1.6l1.3-7.8l-2-2.5l-3.7,0.3l-5.6-2.2l-1.3-9
		l1-0.9l13.9,0.9l9.6,7.5l4.6,0.3l2.3-1.6l0.7,5l2.7,0.9l0.7,8.1l3.7,4.4l4,2.2l2.3-1.9l8-0.9l1-2.5l3.3-1.2v-2.5l3.3-4l2.7-1.2
		l7.6,0.9l7.3-4l6,3.1l2.3-1.2l8,5.3l10,1.6l0.3,3.7l2.7,0.6l3.7,5.6l3.3-0.3l3.3,1.9h2.7l1.6-4l2.7-0.6l14.6,3.4l1-2.8l-2-1.6
		l-1.7-5h3l0.6-3.4l9.9-3.7l5,2.5l3.3-1.6l2.3-3.7l1.7,0.3l2-4l3,0.9l1-2.5l2.7,1.6l5.6,0.3l1-3.1l2.6-1.2l2.7,2.8l4.3-1.6l2.7,1.6
		l4-1.6l2.4,5.3l4.3,4l5.3-2.2l7.6,0.3l-0.3,0.6l-1.7,0.6l1,0.6l0.3,0.3v0.3v0.3v0.3v0.3l-0.3,0.6h-0.3v0.3v0.3h-0.3l-1,1.2l1.3,0.6
		v0.3l-0.3,0.3h-0.3l-1,1.2h0.3v0.3h1.3h0.3v0.3l-1.6,1.9l0.3,0.9h0.3l1,0.6v0.3v0.3v0.3h-0.3l-0.3,0.3l0.3,0.3l1,1.2l0.7,0.3
		l0.3,0.3h0.7l0.7,0.6l-0.3,0.9l0.7,0.6l0.3,0.6l1.3,0.6l0.6-2.5l1,0.3l0.7-0.6h0.3h2.3l0.7,0.9v0.9h0.3v0.3l1.3,1.2l1.3-0.6h0.3
		v-0.3v-0.6l1.3,0.3l1,0.3h0.3v0.6l0.7,0.3h0.3l1.7,0.6v0.3h0.3h0.7h0.3l0.7,1.2v-0.9l0.3,0.3l1,0.3l0.3,0.3v0.3l-0.7,0.6v0.3h-0.3
		l-0.3-0.3l-0.3,0.6h-0.3l-1.3,1.2v0.3l-1-0.3h-0.3l-0.3,0.3l0.3,0.3h0.3v0.3v0.3l-0.3,0.3l-0.7,1.2h1l0.3,0.3h0.3v0.3v0.6v0.3
		l-1,0.3h-0.3H515l-1.3-1.2l0.3,2.2l0.3,0.6l-0.3,4.1l-3.7,0.3l1.3,2.5v0.3l-3-2.5h-2.3l0.3,0.9l-0.3,0.3l-1,1.9l-3.3-1.9l-2.7-0.6
		l-1-3.4H496l-4.9,5.3l-2,5.9l1.8,13.4h0.3v0.6v0.3v0.3l1.7,0.6v0.3l0.3,1.9l2.7-0.3l1,0.3l0.7,0.3l1.3,0.3l-0.7,1.6l1,0.3l1,0.3
		v0.3h0.3l1.4,2.8l1.3,2.2l0.7,1.6v0.3v0.3l0.3,0.6v0.6v0.3h-0.3v0.3l-1.7,0.3l-0.6,6.6l2.4,8.4h1.3v-0.3h0.3l0.7,0.3v0.3v0.3h0.3
		h0.3v0.3v0.9l0.3,0.9v-0.6h0.3l-0.3,0.6v0.3h-0.3v0.3v0.3l-0.3,0.9v0.3h-0.3v0.3l-0.3,0.3l0,0l-0.3,0.3v0.6h-0.3v0.3l-0.3,0.3h0.3
		l0.3,0.3l-0.3,0.9l0.3,0.6v0.3h-0.3l0.3,0.6h-0.3v0.6l-1.3,0.9l0.3,0.9h-0.3v0.3h0.3v0.3v0.3v0.3l-0.7,0.3v0.3v0.3v0.3h-0.3
		l-0.7,0.6H502h-0.3l0.3,0.3l-0.3,0.3l-0.3,0.3h-0.3h-0.7v0.3v0.3v0.3v0.3h-0.3l-0.3,0.3v0.3l0.3,0.3l-0.3,0.6v0.3v0.3v0.3l-1,0.9
		h-0.3h-0.3l-0.3,0.3h-0.3v0.3l-1.3-0.3H496l-0.7,0.6l-0.7,0.6v1.3h-0.3H494l-1.3,1.6l-2.3-1.6l-3,2.2v0.3v0.3v0.3h-0.3l-0.7,0.9
		h-0.3v0.3h-0.3v0.3h-0.3v0.3h-0.3l-2.6,5.6v0.3l-0.3,0.9H482h-1.3v0.3v0.3l0.3,0.3l-0.7,0.6l-0.3,0.3h-2l0.3,0.9v0.3h-0.7l-3.7,0.6
		v0.3l-0.3,0.3l-2.7,0.9l-0.3,0.3l-0.7,0.3v0.3v0.3h-0.7l-0.7,1.3l-0.3,0.3l-0.7,0.9h-0.3l-0.7,1.9l-0.7,0.3l-0.7,0.6H465l-0.3,0.9
		l-4,2.5l-2.3,0.9H458l-1.3,0.3l-2.3,0.3v0.3h-0.7H453l-2.3,0.6l-0.3,0.3h-0.3l-0.3,0.3l-1.7,0.3h-0.3l-0.3,0.3h-0.3l-0.7,1.3h-0.3
		l-1,0.9v0.3l-0.7,0.3l-1.7,0.6l-2,3.8l-3-5.3l2.3-4.1l-0.7-5v-0.3l1-1.6l-12-1.3l-2-0.6v1.3l-3.7-1.6l-2.3,0.6l-1.7,2.5l-13.7,1.9
		l-3-7.5l-7-3.4l0.3-2.2l-2.3,0.9l-2-0.9l-1-2.8l-12.3-0.6L374.3,342.8z"/>
	<path class="st18" d="M104.3,603l-11.7-5.1l-0.7-3.5l1.7-2.5l-5.7-2.9l-0.3-1.9l-9.7-1l-8.4-3.8l-2.3-3.8l0.3-2.5l3.7-5.1l-4.7-4.1
		l-3.7,0.9l-1.6-6l-4,1.6l-4-1.6l-1-1.9l-0.7-1.3l2.3,1.6v-2.8l2,0.9l3.4-3.5l2.3,0.3l1.4-4.4L69,544l-2.7-3.8l-0.3-0.9l-0.3-5.4
		l-2.3-1.9l8.1-17.4h-1.7v-2.8l-2-2.5l1-0.9l-2.3-1.3l0.3-1.6l2.7-0.3l-2.7-0.9l-2-2.8l-2.3,1.3v-2.5l-2.3,0.3l2-1.3l-1.7-1.6
		l0.3-2.2l-0.7-2.5h-2.3l1.4-6.3l-1.3-1.3l3-1.9l-1-0.6l5,1.3l0.7-4.1l3.4,0.2l4.4-2.8l2.1-10.7l3.4-2.5l2.7,1.3l0.7-2.2H85l-1-2.5
		l1.7-5.7l7,0.6l0.4-8.8l4-2.8l6.3,8.8h3.3l4-7.2l4,1.3l3.3,5.3l3.3,0.3l5.7-2.8l0.7-0.6h0.3h0.7l11.4-1.6l1.7-3.5l2.3,0.6h1h1v0.3
		l3.7,0.6l0.7-1.3l0.3-0.9l0.7-3.8l1.7-0.9l3.7,4.7l13-2.8l2-0.6l-0.3-2.2l2.7-4.7l1.7,0.6l1.3-3.1l4-0.9l2.7-5.3l1.3-1.3l0.3-0.3
		l2-1.9l0.7-0.9l-2-1.3l-3.7-2.8l1.3-0.6l-1-3.5l10,5.3v1.3l10.7-3.8l-2.3-5l1.7-3.5l-1.7-0.9l1.3,0.6l-0.7-1.6l6.7-1.9l0.3-3.5
		l4.7-0.3l8.3-0.3l15,2.5l-1.7-3.5l4.3-1.3l4.7,2.5l-3.3,2.5l0.3,1.3l2-0.6l0.3,3.1l-6,0.3l-1.7,4.4l7.3,3.5l0.7,1.6h3.3l1.7,3.1
		h0.3l-2.7,5l0.7,1.6l2.7,0.3l-2.3,1.3l1,1.6l1,4.1l-2.3,3.5l5-2.5l4.7,1.9l2,3.1h2.7l1,2.2h0.3l-3,2.5l2,5.3l3.3,1.3l-0.7,3.1
		l3.3,1.9l0.3-1.6l3.3-0.6l-1.3,0.3l-1,7.9l-7.7-1.3l1,3.5l7,3.8l2.3-2.2l1,4.4l-0.3,3.1l-19.7,3.5l-6.7,2.2l-10.7,6.9l-5,0.3
		l-9.7,0.3l-7,3.8l-3.4,4.1l3.4-4.1l-2.7,1.6l-2.7-0.6l-3.3,3.2l-2.7,6.3h-1.7l-2.3-3.2l-3.7-0.6l-5.7,2.5l-5.4-0.3l-9.7,5l-6.4,6.3
		l-0.7,2.5l-5.4,3.2l-5.7,6l-9.8,15.2l-6.4,4.1l-1.4,4.4l-6.4,3.8l1,3.5l4.3,4.1l6.7-0.3v-1.3l-7.4-2.2l0.7-1.3l3.7-0.3l3,1.9
		l8,10.4l3.7-0.9l3,1.9l-1.4,6l-6.4,5.1l-9.7,4.7l-12.1,15.8l-9.7,2.2l-3-2.9l-0.3-2.2l3,0.3h0.3h-0.3l0.3-1.6l2.3,0.6v0.3v0.3
		l0.3,0.3l1,0.3l0.7,0.3h0.3l0.3-0.3V592v-0.6h0.7v-0.3v-0.3l0.7-1.6l8.1-0.3l4-6.3l0.7-2.2h-1l-0.3-0.3h-0.3l-19.8,3.2l-9.4,10.8
		L104.3,603z"/>
	<path class="st19" d="M282,336.5v-1.6l2.7,0.9l-0.7,1.3L282,336.5z M183.9,424.3l-2.7,5.3l-4,0.9l-1.3,3.1l-1.7-0.6l-2.7,4.7
		l0.3,2.2l-2,0.6l-13,2.8l-3.7-4.7l-1.7,0.9l-0.7,3.8l-0.3,0.9l-0.7,1.3l-3.7-0.6v-0.3h-1h-1l-2.3-0.6l-1.7,3.5l-11.4,1.6H128h-0.3
		l-0.7,0.6l-5.7,2.8l-3.3-0.2l-3.3-5.3l-4-1.3l-4,7.2h-3.3l-6.3-8.8l-4,2.8l-0.4,8.8l-7-0.6l-3-5l0.7-2.8l-3-1.6l3.7-5l-1.7-3.1
		l-6.3-5l2.4-2.5l3-8.8l-1.7-1.6l-0.3-4.4l6.3-0.3l2.7-1.9l6.4-10.4l-2.3-3.1l-0.3-7.2l-3.7,1.6l-8-1.3l-0.3-4.4l1.7-1.9l-4.6-5.6
		v-3.1l6.4-7.2l2.4-5l1.3,1.6l0.7-5l10.7-1.6l1.7-6.6l5-4.4l4,0.6l1.7-6.3l4,0.3v-2.5l4-1.6l-2.3-2.5l1.4-4.7l-1-1.3l2-0.6l-6.6-2.8
		v-1.3l4.4-5.6l1.7,1.6l3-6.3l2.3-0.3l0.3,2.2l0.7-2.8l1.7-0.6l1-2.8l-1.3-0.6v-3.4l2.3-1.9l-0.3-2.8l4.7-8.7l-0.6-9.1l2.7-1.9
		l-1.7-1.2v-4.1l1.7-6.5l3-4.7l1.7-10.3l3-4l-3.3-0.9v-1.9l4.3-2.8l-7.3-2.8l3.3-3.7l-7.9-19l1.3-2.2l2,1.2l4-3.1l-3-1.6V214
		l0.7-1.6l3.7-0.6l-1.3-1.6l4-11.8v-1.2l-3.3-0.6l-5.6-1.2l-1.6-7.1l-3-3.4l-2.3-2.8h2.3l1-2.8l-2.9-9l-3-0.3l3.7-4.3l-3-1.6
		l3.7-3.4l-1.6-7.1l3-1.9l-0.3-1.2l4.3-1.2l10.3,5l3-0.9l8.9,2.8l9.9,7.1l5.6-3.1l2.6,3.4h7.6l1.7,1.2l4.3-0.3l0.7-1.2l7.6,6.5
		l0.7,5.3l4.6,3.7l9.9-3.7l3,2.5l10.6-1.9l4.6,0.9l-0.7,3.7l5.6,2.5l-0.3,3.7l3.6,2.2l1,6.2l3.3,4l-2.3,4.3l2.7,2.5l-2.7,1.6l-2,4.7
		l4.6-1.6l3.6,6.5l-7.3,4.4l3,1.9l0.3,6.5l2,1.6l14.3,0.6l1-5l3.3,1.6l1.3-2.8l10-0.6l1.7-7.2l2,2.2l3.3,0.6l3-2.8l0.7,2.5l-1,0.9
		l1.3,9l5.6,2.2l3.7-0.3l2,2.5l-1.3,7.8l1.3,1.6l3-2.5l4,2.5l-3,2.8l1,9.3l-1.7,0.9h-4l-3.7,1.9l-6,0.3l-0.7,1.2l-2.7-0.9l-7,1.2
		l3,0.9l0.7,2.5l-1.3,1.6l3,3.1l-0.7,1.9l-3,1.2l0.7,3.4l3.3,3.1l1.7-1.2l3,1.2l-0.3,0.9v1.6v0.3l0.3,2.5l-1.3,0.6l-3.3,1.9
		l-1.3,4.1l1.3,0.9l-0.3,3.4l2.7,2.2l-1,1.9l-3.7-0.6l-2.7,5.9l-0.7,2.5l1.3,0.9l0.7-1.9l2.3,4.1l-3.7,1.6l-1,3.1l-0.3-3.4h-1.3
		l-1.3,4.1l1,1.6l1-2.2v2.2l3.7-0.3l1.7,1.9v-5.9l3.3,3.1l-0.7,1.6l0.3,1.6l-5,3.1l-2-1.3l1-1.9l-3.7,0.9l-0.3,6.3l-1,0.9l1.7,2.5
		h-1.7H272l-8,7.8l-1.3-0.9l-1.3,2.5l2.3,1.3l2.3-2.2l2.7,0.6l0.7,1.6l1.3,5.6l-3,1.3v3.8l-3.3,2.5l1.7,3.1l-1,2.2l-2.7-0.9l-2,0.9
		v1.6l-2-0.3l-0.3,2.8l-2.3,0.9v-2.5l-1-0.3l-1.7-0.9l-0.3-0.3v-0.3l-0.3-0.3l-0.3-2.5h-2.7l-1,3.4v-0.3l-1.3,0.3v-5.6l-1.7,0.3H244
		l-3.7-0.6l-1.3,1.3l-2,9.7l3,2.5l-6,5l2.3,0.3l-0.7,1.9l1.3,1.9l3,0.3l-1.3,1.9l3.7,5v0.3h1.7v1.3l-3,2.2l-5.3-1.3l-5,4.1l7,2.8
		l-2.3,4.7l1.7,3.5l-15-2.5l-8.3,0.3l-4.7,0.3l-0.3,3.5l-6.7,1.9l0.7,1.6l-1.3-0.6l1.7,0.9l-1.7,3.5l2.3,5l-10.7,3.8v-1.3l-10-5.3
		l1,3.5l-1.3,0.6l3.7,2.8l2,1.3l-0.7,0.9l-2,1.9l-0.3,0.3L183.9,424.3z M279.6,293.4l-3-0.6l-4,0.3l4,1.9h3V293.4z"/>
	<path class="st20" d="M276.6,292.8l3,0.6v1.6h-3l-4-1.9L276.6,292.8z M272.7,471.2l0.3-3.1l-1-4.4l-2.3,2.2l-7-3.8l-1-3.5l7.7,1.3
		l1-7.9l1.3-0.3l-3.3,0.6l-0.3,1.6l-3.3-1.9l0.7-3.1l-3.3-1.3l-2-5.3l3-2.5h-0.3l-1-2.2H259l-2-3.1l-4.7-1.9l-5,2.5l2.3-3.5l-1-4.1
		l-1-1.6l2.3-1.3l-2.7-0.3l-0.7-1.6l2.7-5H249l-1.7-3.1H244l-0.7-1.6l-7.3-3.5l1.7-4.4l6-0.3l-0.3-3.1l-2,0.6l-0.3-1.3l3.3-2.5
		l-4.7-2.5l-4.3,1.3l2.3-4.7l-7-2.8l5-4.1l5.3,1.3l3-2.2v-1.3h-1.7v-0.3l-3.7-5l1.3-1.9l-3-0.3l-1.3-1.9l0.7-1.9l-2.3-0.3l6-5
		l-3-2.5l2-9.7l1.3-1.3l3.7,0.6h1.3l1.7-0.3v5.6l1.3-0.3v0.3l1-3.4h2.7l0.3,2.5l0.3,0.3v0.3l0.3,0.3l1.7,0.9l1,0.3v2.5l2.3-0.9
		l0.3-2.8l2,0.3V358l2-0.9l2.7,0.9l1-2.2l-1.7-3.1l3.3-2.5v-3.8l3-1.3l-1.3-5.6l-0.7-1.6l-2.7-0.6l-2.3,2.2l-2.3-1.3l1.3-2.5
		l1.3,0.9l8-7.8h0.3h1.7l-1.7-2.5l1-0.9l0.3-6.3l3.7-0.9l-1,1.9l2,1.3l5-3.1l-0.3-1.6l0.7-1.6l-3.3-3.1v5.9l-1.7-1.9l-3.7,0.3v-2.2
		l-1,2.2l-1-1.6l1.3-4.1h1.3l0.3,3.4l1-3.1l3.7-1.6l-2.3-4.1l-0.7,1.9l-1.3-0.9l0.7-2.5l2.7-5.9l3.7,0.6l1-1.9l-2.7-2.2l0.3-3.4
		l-1.3-0.9l1.3-4.1l3.3-1.9l1.3-0.6l-0.3-2.5v-0.3V279l0.3-0.9l-3-1.2l-1.7,1.2l-3.3-3.1l-0.7-3.4l3-1.2l0.7-1.9l-3-3.1l1.3-1.6
		l-0.7-2.5l-3-0.9l7-1.2l2.7,0.9l0.7-1.2l6-0.3l3.7-1.9h4l1.7-0.9l9-3.4l5.7,1.6l0.3,1.2l1.3-1.2l4.7,3.4l5-2.5l7.7,3.7l-2.3,2.2
		v0.3l-2.7,3.7v0.3l-1,0.9l-0.3,2.2v0.3l-1.3,1.9l1.7,2.8l2.7-1.2v0.3l0.7,5l1.7,0.3l-0.3,2.8l-4.3,0.3l-1.7,2.5l-2.3,0.3l-1.3-1.9
		l1.3-2.2l-1-1.6l1.3-0.3l-6.3-1.2l0.3,4.1l3.7-0.6l2,5.3v0.9l4-0.6l1,1.9l3.3,1.2l4.7-1.6l1.3,3.7l4,1.9l2.3-3.1l6.3-0.6l0.7,2.2
		l2.3-1.6l0.7-1.6h0.3l0.3-0.3l1-0.3l2-0.3l2.7,1.2l2.7-0.9v0.3l1,0.3l2.3,1.6l1,1.9v0.3l-1,3.4l3.3-2.2h0.3l3.7-1.2h1.7v0.3
		l2.7,0.6l0.7,2.2h3l-0.7,2.2l2,3.7l3,2.2l3.3-2.5l1.7-0.3l2.7,0.3l0.7,1.6h0.3v-0.3h0.3l1.3,1.9l-2.3,1.2l3.3,4.1l-1.3,1.9l0.7,3.7
		l-4.7,1.6l3,1.9l-2,2.8l-6-0.6l-0.7,1.6l2,1.9l-0.3,2.5l3,0.3l0.3,0.3l2.3,1.6l0.3,2.8l-5.3,4.7l-2,0.3v-0.3l-3.7-0.6l-3.3,4.1
		l-1.3,0.3l-1-2.2l-4.7-0.9l-1.7,1.6l0.7,4.7l3.4,9.7l12.3,0.6l1,2.8l2,0.9l2.3-0.9l-0.3,2.2l7,3.4l3,7.5l13.7-1.9l1.7-2.5l2.3-0.6
		l3.7,1.6v-1.3l2,0.6l12,1.3l-1,1.6v0.3l0.7,5l-2.3,4.1l3,5.3v0.3l-20.3,8.8h-0.3l-25.3,11.3l-14.6,11l-15.3,6l-12.3,19.5l-1,1.3
		l1.7-5.3l-2.3,5.3l-3,1.3l-0.7,3.1l2-2.5l-1,4.1l-5.3,6.3l-13.7,4.7l-12.7,0.3l-12.4,5.7l-6.4-0.3l-3.7,2.5L272.7,471.2z
		 M282,336.5l2,0.6l0.7-1.3l-2.7-0.9V336.5z M328.2,291.9l1.7-0.6l-1.3-1.6l-2.7,1.2l-0.3,0.9v0.3l0.7,2.2l1.7-0.3L328.2,291.9z"/>
	<path class="st21" d="M356.8,417.7L356.8,417.7L356.8,417.7L356.8,417.7L356.8,417.7l0.1-0.1l0,0l0,0l0,0v-0.1v-0.1l0,0l0,0l0,0
		h0.1h0.1h0.1l0,0l0,0l0,0v-0.1l0.1-0.1l0.1-0.1l0,0V417l0,0l0,0v-0.1v-0.1v-0.1v-0.1l0,0l0,0l0,0l0,0l0,0l0,0l0,0l0,0l0,0h-0.1
		h-0.1l0,0l0,0l0,0l0,0l0,0l0,0l0,0l0,0l0,0l0,0h-0.1l0,0l0,0l0,0H357l-0.1-0.1l0,0l0,0l0,0l0,0l-0.1-0.4l0,0l0.1-0.1l0.2-0.2
		l0.2-0.2l0.2-0.3v-0.1v-0.1l-0.1-0.3v-0.1v-0.1l0,0l0,0h0.2h0.1l0.5-0.3l0.1-0.1l0.1-0.1V414v-0.1l0.1-0.2h0.1h0.1l0.2,0.1l0.2-0.1
		h0.1l0.2-0.1h0.2h0.2l0.2,0.1l0.3,0.1h0.2h0.2h0.1h0.1l0,0h0.1l0.1,0.1h0.1h0.2h0.2h0.1l0,0v0.1v0.1v0.1v0.1l0,0l0,0h0.1v0.1v0.1
		l0,0l0,0l0,0l0,0l0,0l0,0l0,0l0,0l0,0v0.1l0,0v0.1l0,0l0,0l0,0l0,0l0,0l0,0l0,0l0,0l1.9,2.7v0.1l0.1,0.2l0.1,0.3l0.2,0.4l0.1,0.2
		l0.2,0.2l0.2,0.3l0.2,0.4l0,0l0,0l0,0l0,0l0,0l0,0l0,0l0,0l0,0l0,0l0,0l0,0l0,0l0,0l0,0l0,0l0,0l0,0h-0.1l-0.1,0.1l0,0l0,0l0,0l0,0
		h-0.1l0,0l0,0l0,0l0,0l0,0l0,0l-0.1,0.1l0,0l0,0l0,0l0,0l0,0l0,0l0,0h-0.1l0,0l0,0l0,0l0,0l0,0l0,0l0,0l0,0l0,0l0,0l0,0l0,0l0,0
		l0,0l0,0l0,0l0,0l0,0l0,0l0,0l0,0l0,0l0,0l0,0l0,0l0,0l0,0l0,0l0,0l0,0l0,0l0,0l0,0l0,0l-0.1,0.1l0,0l0,0l0,0l0,0l0,0l0,0l0,0l0,0
		l0,0l0,0l0,0l0,0l0,0l0,0l0,0l0,0l-0.1,0.2v0.1l0,0v0.1l0,0l-0.1,0.1l0,0l0,0l0,0l0,0l0,0l0,0l0,0l0,0l-0.1,0.1v0.1v0.1l-0.1,0.1
		l-0.1,0.1v0.1v0.1l0,0l0,0v0.1v0.1v0.1l-0.1,0.1v0.1v0.1l0,0l0,0l0,0v0.1l0,0v0.1l0,0l0,0l0,0l0,0l0,0l0,0l0,0l0,0l0,0l-0.1,0.2
		v0.1v0.1l0,0v0.1l0,0v0.1l0,0l0,0l0,0l0,0l0,0l0,0l0,0l0,0l0,0l0,0l0,0l0,0l0,0h-0.1l0,0h-0.1l0,0l0,0l0,0l0,0l0,0l0,0h0.1l0,0l0,0
		l0,0l0,0l0,0l0,0l0,0l0,0l0,0l0,0l0,0l0,0v0.1l0,0l0,0l0,0l0,0l0,0l0,0l0,0l0,0l0,0v0.1l0,0l0,0l0,0l0,0l0,0l0,0l0,0l0,0l0,0l0,0
		v0.1l0,0v0.1l0,0l0,0l0,0l0,0v0.1l0,0l0,0l0,0l0,0l0,0l0,0l0,0l0,0l0,0l0,0l0,0l0,0l0,0l0,0l0,0l0,0l0.2-0.8l-0.4-0.1l-0.1,0.2
		l-0.1,0.3l0.4,0.1v0.1l-0.4-0.1v0.1h0.1l0,0l0,0l0,0l0,0v0.1l0.2,0.1v-0.1l0,0l-0.1,0.2h-0.1l0,0l0,0l0,0l0,0l0,0l0,0l0,0l0,0l0,0
		l0,0l0.1,0.1l0,0l0,0l0,0l0,0l0,0l0,0l-0.1-0.1l0,0l0.1,0.1l0,0l0,0l0,0l0,0l0,0l0,0l-0.1-0.1l0,0l0,0l0,0l0,0l0,0l0,0v0.1v0.1l0,0
		v0.1v0.1v0.1l0,0l0,0l0,0l0,0l0,0l0,0l0,0l0,0l0,0l0,0l0,0l0,0l0,0l0,0l0,0l0,0l0,0l0,0l0,0l0,0l0,0l0,0l0,0v0.1l0,0l0,0l0,0l0,0
		l0,0l0,0l0,0l0,0l0,0v0.1l0,0v0.1l0,0l0,0l0,0l0,0l0,0l0,0l0,0l0,0l0,0l0,0l0,0l0,0v0.1l0,0l0,0l0,0l0,0v0.1v0.1v0.1v0.1v0.1v0.1
		l0,0v0.1l0,0l0,0l0,0l0,0l0,0l0,0l0,0l0,0l0,0l0,0l0,0l0,0l0,0l0,0l0,0l0.1,0.1l0,0l0,0l0,0l0,0l0,0l0,0l-0.1-0.1l0,0l0,0l0,0l0,0
		l0,0l0,0l0,0l0,0l0,0v0.1l0,0l0,0v0.1v0.1v0.1l0,0l0,0l0,0l0,0h0.1l0,0l0,0v-0.1l0,0l0,0l0,0l0,0l0,0l0,0l-0.4,0.7l-0.2,0.4l0,0
		l0,0l0,0l0,0l0,0l0,0l0,0l0,0l0,0l0,0l0,0l0,0l0,0l0,0l0,0l0,0l0,0l0,0l0,0l0,0l0,0l0.2-0.4l0.3-0.6l0,0l-0.4,0.2l0.1,0.2l0,0l0,0
		l0,0l-0.1-0.1l-0.2,0.1l0,0l0.1-0.1l-0.2-0.4l0,0l-0.1,0.1v0.1l0,0l0,0l0,0l0,0l0,0l0,0l0,0l-0.1,0.1l0.1,0.1l0.1-0.1h0.2l0,0l0,0
		l0.1,0.1l0,0l0,0l0,0l0.2,0.2l0,0h-0.1l0,0h0.1l0,0l-0.1,0.2l0,0l0,0l0,0l0,0l0,0l0,0l0,0l0,0l0,0l0,0l0,0l0,0l0,0l0,0l0,0l0,0l0,0
		l0,0l0,0l0,0l0,0l0,0l0,0l0,0l0,0v-0.1h-0.1l-0.1,0.1h-0.1l0,0l-0.1,0.1l0,0l0,0l0,0l0,0v0.1v0.1l0,0l0,0l0,0l0,0l0,0l0,0l0,0l0,0
		l0,0v0.1l0,0v0.1l0,0l0,0l0,0l0,0l0,0l-0.1,0.1l0,0l0,0l0,0l0,0l0,0l0,0l0,0l0,0l0,0l0,0l0,0l0,0l0,0l0,0l0,0l0,0l0,0l0,0l0,0l0,0
		l0,0l0,0l0,0l0,0l0,0l0,0l0,0l0,0l-0.1-0.1v0.1l0.1,0.1l0,0l0,0l0.1,0.1l0,0l0,0l0,0l0,0l0,0l0,0l0,0l0,0l0,0l0,0l0,0l0,0l0,0l0,0
		l0,0l0,0l0,0l0,0h-0.1l0,0l0,0v0.1l0,0l0,0l-0.1,0.1l0,0l0,0l0,0l0,0l0,0l0,0l0,0l0,0l0,0l-0.1-0.1l-0.1,0.1l0.1,0.1l0,0l0,0l0,0
		v0.1l0,0l0,0l0,0l0,0l0,0l0,0l-0.2-0.2l0,0l0,0l-0.2,0.1l0,0l0,0l-0.1,0.2v0.1l0,0l0.2,0.2l0,0l0,0l0,0l0,0l0,0l-0.2-0.2l0,0l0,0
		l-0.1,0.1l0,0v0.1v0.1l-0.1,0.2l0,0l0.2,0.2l0,0l0,0l0,0l0,0l0,0l0,0l0,0l-0.1-0.1l-0.1-0.1h-0.1l-0.1,0.1l-0.1,0.1l-0.1,0.1
		l-0.1,0.1l-0.1,0.1v0.1v0.1l0.2,0.2l0,0l-0.1-0.1l0,0l0.1,0.1l0,0l-0.2-0.2h-0.1l-0.1,0.1l-0.1,0.1l-0.1,0.1l-0.1,0.1l-0.1,0.1
		l-0.1,0.1v0.1l0.1,0.2l0,0L360,429l0,0l0.2,0.2l0,0L360,429l0,0l0,0l0,0h-0.1l-0.1,0.1l-0.1,0.1l0,0l0,0v0.1v0.1l0,0l0,0l0,0
		l0.2,0.2l0,0l0,0l0,0l0,0l0,0l0,0l0,0l0,0l0,0l0,0l0,0l0,0l-0.1,0.1l0.1,0.1v0.1l-0.1,0.1l-0.1,0.1l-0.1,0.1l-0.1,0.1l-0.1,0.1
		h-0.1h-0.1l0,0l0,0l0,0l0,0l0,0l0,0l0,0l0,0l0,0l0,0l0,0l0,0l0,0l0,0l0,0l0,0l0,0l0,0l0,0l0,0l0,0l0,0l0,0l0,0l0,0l0,0l0,0l0,0l0,0
		l0,0l0,0l0,0l0,0l0,0l0,0l0,0l0,0l0,0l0,0l0,0l0,0l0,0l0,0l0,0l0,0l0,0l0,0l0,0l0,0l0,0l0,0l0,0l0,0l0,0l0,0l0,0l0,0l0,0l0,0l0,0
		l0,0l0,0l0,0l0,0l0,0l0,0h0.1l0,0l0,0l0,0l0.1-0.1l0.1-0.1l0,0l0.1-0.1h-0.1l-0.2,0.2l0,0l-0.1,0.1l-0.1-0.1l0.3-0.3l-0.2-0.2
		l-0.3,0.3l0,0l0,0l0.2,0.2l0,0l0,0l0,0v0.1l0,0l0,0l0,0l0,0l0,0l-0.1,0.1h-0.1l-0.1-0.1v0.1l0,0v0.1l0,0l0,0h-0.1l0,0l0,0h-0.1l0,0
		l0,0v0.1l0,0v0.1l0,0v0.1v0.1v0.1l0,0l0,0l0,0l0,0l0.2,0.1l0,0l-0.2-0.1l0,0l0,0l0,0v0.1l0,0l0,0l0,0l0.2,0.1l0,0l-0.3-0.1l0,0
		l-0.1,0.1l-0.1,0.1l0,0l-0.1,0.2v0.1v0.1l0,0v0.1v0.1l0,0l0,0l-0.1,0.1l-0.1,0.1l-0.1,0.2l-0.1,0.3v0.1v0.1v0.1v0.1l0,0v0.1l0,0
		v0.1l0,0v0.1l0,0l0,0l0,0h0.1l0.1-0.1l0,0l0,0l0,0l0,0l0,0l0,0l0,0l0,0l0,0l-0.6,1.2l0,0l0,0l0,0l0,0l0,0l0,0v0.1l0,0l0,0v0.1l0,0
		l0,0l0,0l-0.2,0.7h-0.1l0,0h0.1l0,0l0,0l0.2-0.7l0,0l0,0l0,0l0.1-0.2l0,0l0,0l0,0l0,0l0,0l0,0l0,0l0,0l0,0h0.1l0,0l0,0l0,0l0,0l0,0
		l0.3-0.6l0,0l0,0l0,0l-0.2-0.1l0,0l0,0v0.1l0,0l0,0v0.1v0.1l0,0v0.1l-0.1,0.1l0,0l0,0l0,0l0,0l0,0l0,0h0.1l0,0l0,0l0,0l0,0l0,0
		h-0.1l0,0l0,0l0,0v-0.1l0,0l0,0l0,0l0,0v-0.1l0,0l0,0V434l0,0l0,0l0,0v0.1l0.2-0.3v-0.1v-0.2l0,0v-0.3h-0.2v0.3l0,0l0,0l0,0l0,0
		l0,0l0,0l0,0h-0.1l0,0l0,0v-0.1h-0.1l0,0l0,0v-0.3l0,0l0,0V433l0,0l0.4,0.1V433h-0.2v-0.1v-0.1h0.2v-0.2h-0.1l0,0l0.1-0.2l-0.1-0.1
		l-0.1,0.1v0.4h-0.1l0.1-0.4l0,0l0.2-0.1l0,0v-0.1V432h-0.1l0,0h0.1l-0.1-0.4l0,0v-0.1l-0.2-0.1h-0.1l0.2,0.7l0,0l0,0l0,0l-0.3,0.5
		l0,0l-0.2-0.1v-0.1l0.2-0.4l0,0l-0.1-0.4l0,0l-0.6,1.1l0,0l0,0l0.7,0.4l0,0l0,0l0,0l-0.1,0.2l0,0l0,0l0,0l-0.6-0.4l0,0l0,0l0,0v0.4
		h0.1v0.1h-0.1v0.4l0,0v0.1l0.5,0.2l0,0l0.1,0.1l0,0l0,0l-0.2,0.4l0,0v-0.1l-0.5-0.2l-0.4,0.6h0.1l0,0l0.4,0.2l-0.2,0.4l-0.7-0.3
		l-0.2,0.3l0.5,0.4l-0.9,1.8l-0.5-0.2l0,0l0,0l0,0h-0.1h-0.1l0,0l0,0l0,0l-1.3,1l-0.1,0.1h-0.1l0,0l0,0v-0.3h-0.1v-0.2h-0.1V438
		h-0.1v0.1l0,0V438h-0.1l-0.2,1.9h-0.5l0,0l0,0l0,0l-0.2,0.3l0.2,0.1l0.2,0.1l-0.2,0.5l0,0v0.1l0.4,0.2l0,0l0,0l0,0l0,0l0,0l0.1-0.1
		l0,0l0,0l0,0l0,0l0,0l0,0l0,0l0,0l0,0l0,0l0,0V441l0,0l0,0l0,0l0,0l0,0v-0.1l0,0l0,0v-0.1l0,0l0,0l0,0l0,0l0,0l0,0l0,0l0,0l0,0l0,0
		l0,0l0,0l0,0l0,0l0,0v-0.1l0,0l0,0l0,0l0,0l0,0l0,0l0,0l0,0l0,0l0,0l0,0l0,0l0,0l0,0l0,0l0,0l0,0l0,0l0,0l0,0l0,0l0,0l0,0v-0.1l0,0
		l0,0l0,0l0,0l0,0l0,0l0,0l0,0l0,0l0,0l0,0l0,0l0,0l0,0l0,0v-0.1l0,0l0,0v-0.1l0,0l0,0l0,0l0,0l0,0l0,0l0,0l0,0l0,0l0,0l0,0l0,0l0,0
		l0,0v-0.1l0,0l0,0l0,0l0,0l0,0l0,0l0,0l0,0l0,0l0,0l0,0l0,0l0,0l0,0l0,0l0,0l0,0l0,0l0,0l0,0l0,0l0,0l0,0l0,0l0,0l0,0l0,0l0,0l0,0
		l0,0l0,0l0,0l0,0l0,0l0,0l0,0l0,0l0,0l0,0l0,0l0,0l0,0l0,0l0,0l0,0l0,0l0,0l0,0l0,0l0,0l0,0l0,0l0,0v-0.1l0,0l0,0l0,0v-0.1l0,0V440
		l0,0l0,0l0.1-0.1l0,0v-0.1l0,0l0,0l0,0l0,0l0,0l0,0l0,0l0,0l0,0l0,0l0,0l0,0l0,0l0,0l0,0l0,0l0,0l0,0l0,0l0,0l0,0l0,0l0,0l0,0l0,0
		l0,0l0,0l0,0l0,0l0,0l0,0l0,0l0.1-0.1l0,0l0,0l0,0l0,0l0,0l0,0l0.3,0.1l0,0v0.1l0,0l0,0l0,0l0,0l0,0l0,0l0,0l0,0l0,0l0,0l0,0l0,0
		l0,0l0,0l0,0l0,0l0,0l0,0l0,0l0,0l0,0l0,0l0,0l0.3,0.1l0,0l0,0l0,0l0,0l0,0l0,0l0,0l0,0l0,0l0,0l0,0l0,0l0,0l0,0l0,0h0.1l0,0l0,0
		l0,0l0,0l0,0l0,0l0,0l0,0l0,0l0,0l0,0l0,0l0,0l0,0l0,0l0,0h-0.1l0,0l0,0v0.1l0,0l0,0l0,0l0,0l0,0l0,0l0,0l0,0h0.1V440l0,0v0.1h-0.1
		l0,0l0,0l0,0l0,0l0,0l0,0l-0.1,0.2l0,0l0,0v0.1l0,0l0,0l0,0h0.1l0,0l0,0l0,0H353l0,0h-0.1v0.1v0.1v0.1v0.1l0,0v0.1l0,0l0,0v0.1l0,0
		v0.1l0,0l0,0v0.1l0,0l0,0l0,0l0,0v0.1l0,0v0.1l0,0l0,0l0,0v0.1v0.1v0.1v0.1v0.1l0,0v0.1l0,0l0,0l0,0l0,0l0,0l0,0l0,0l0,0v0.1l0,0
		l0,0l0,0l0,0l0,0l0,0l0,0l0,0V442l0,0l0,0l0,0h-0.1h-0.1h-0.4h-0.1l0,0l0,0l0,0l0,0l0,0l0,0l0,0l0,0l0,0l0,0l0,0l0,0l0,0l0,0l0,0
		l0,0l0,0l0,0l0,0l0,0l0,0l0,0l0,0l0,0l0,0l0,0l0,0v0.1l0,0l0,0l0,0l0,0l0,0l0,0v0.1v0.1v0.1v0.1v0.1v0.1v0.1v0.1l0,0v0.1l0,0
		l-0.1,0.3H352h-0.1h-0.2h-0.2h-0.2h-0.7h-0.2h-0.3h-0.4h-0.2h-0.1h-0.2H349h-0.3h-0.1h-0.2l-0.2-0.1l-0.3-0.1l-0.3-0.1l-0.2-0.1
		l-0.2-0.1l-0.2-0.1l-0.2-0.1l-0.1-0.1h-0.1l-0.1-0.1l-0.1-0.1l-0.1-0.1l-0.2-0.3l-0.1-0.3l-0.1-0.2l0,0v-0.1l-0.1-0.2l-0.2-0.2
		l-0.1-0.1l-0.1-0.1l-0.1-0.1l-0.1-0.1l0,0l0,0l0,0l0,0l0,0l0,0l-0.1-0.1l0,0l0,0v-0.1l0,0l0,0l0,0v-0.1v-0.1l0,0l0,0l0,0l0,0l0,0
		l0,0H345l0,0l0,0h-0.1l0,0l0,0l0,0l0,0l0,0l-0.2-0.1h-0.1h-0.1h-0.1l0,0l0,0l0,0l0,0l0,0h-0.1l0,0l0,0l0,0l0.5-0.4l0,0l-0.3-0.2
		l-0.6-0.4l0.1-0.1l0.2-0.2l0.1-0.1l0.5-0.3l0.7-0.4l-0.4-0.8V437l-0.2-0.3l-0.1-0.2h-0.1l0,0l0,0l0,0l-0.1-0.2l-0.1-0.1l-0.1-0.1
		l0,0l-0.1-0.2l-0.1-0.2v-0.1l-0.3-0.2l-0.1-0.1v-0.1V435v-0.1l0.2-0.4h0.1h0.3l0.2,0.1v0.2l0.2,0.1l0.7-0.3l-0.1-0.3l0.4-0.8v-0.1
		l-0.2-0.4l0.3-0.1l0.1-0.1v-0.1l0,0l0.2-0.1l0,0v-0.1l-0.1-0.2l0.1-0.2l-0.3-0.3l0.2-0.2v-0.1v-0.1v-0.1v-0.1l-0.2-0.2v-0.1
		l0.1-0.1l-0.1-0.1h-0.1l-0.1-0.1l-0.1-0.2v-0.1v-0.1v-0.1v-0.2l-0.1-0.1l-0.1-0.1v-0.1v-0.1v-0.1v-0.1l0.1-0.2V429l0.2-0.3l0.1-0.1
		l0.1-0.1l0.1-0.1l0.1-0.2V428l0.1-0.1l0.1-0.2v-0.2l-0.1-0.1H346v-0.2v-0.1V427l-0.1-0.1l-0.1-0.1l-0.2-0.1l-0.2-0.1h-0.1l0,0v0.1
		l-0.1,0.1H345h-0.2h-0.4h-0.2l-0.2-0.1l-0.1-0.1h-0.1h-0.1h-0.2l-0.1,0.1v0.1v0.1v0.1l-0.1,0.1l-0.2,0.2l-0.1,0.1l-0.1,0.2
		l-0.1,0.1l-0.1,0.1l-0.1,0.1l-0.1,0.1h-0.1h-0.1h-0.1l-0.3-0.1h-0.2h-0.1l-5.6,2.4l-0.2-0.3v-0.1l0,0h0.2v-0.1v-0.2l0.1-0.2
		l0.1-0.1l0.1-0.1l0.2,0.1h0.1h0.2h0.2l0.1-0.1l0.1-0.1V429l0.1-0.2v-0.1h0.1v-0.1l-0.1-0.1v-0.1l-0.2-0.1v-0.1l-0.1-0.1l0.1-0.1
		H337l0,0l0,0v-0.1l0,0v-0.2v-0.2v-0.1v-0.1l-0.1-0.1h0.2h0.2l0.1-0.1h0.2v-0.2v-0.1l-0.1,0.1l-0.4-0.1H337h-0.2h-0.2h-0.1h-0.1
		v-0.2v-0.1l0.1-0.2h0.1h0.1l0.1-0.1l0,0l0.1-0.1l-0.1-0.1l-0.2-0.2h-0.1h-0.1h-0.1l-0.1-0.3v-0.1l-0.1-0.1l-0.1-0.1v-0.1V425v-0.1
		v-0.1l0.1-0.1h0.1h0.2l0,0l0,0v0.1l0,0l0,0l0,0h0.1h0.1h0.1l0,0l0,0v0.1v0.2v0.1l0,0l0,0l0.2,0.1l0.2,0.1h0.1h0.2l0,0l0,0v0.1v0.1
		l0,0l0,0l0,0l0,0v-0.1v-0.1h0.1l0,0l0,0l0.1,0.1v0.1l0.1,0.1v0.1h0.1h0.1l0.2,0.1h0.1l0.4,0.1h0.2l0.1-0.2h0.1h0.1l0,0v-0.1
		l0.1-0.1l0.1-0.1l0.1-0.2l0.1-0.1v-0.1l0,0h0.1l0.1,0.1h0.1h0.1l0.1,0.1v0.1v0.1l0.1,0.2h0.1h0.1h0.1l0.1,0.1l0.1,0.1v0.1l0,0h0.1
		h0.2h0.1h0.2h0.3h0.1h0.1h0.2h0.2h0.1l0.2,0.1l0.1,0.1l0.1,0.1l0.3,0.2h0.2h0.1l0.1-0.1l0.1-0.2v-0.1V426l0.1-0.1l0.1-0.1l0.3-0.3
		l0.2-0.2l0.1-0.2l0.1-0.2l0.1-0.2v-0.3v-0.2l0.1-0.2v-0.2v-0.3v-0.3V423l0.2-0.1l0.3-0.2v-0.2l0.1-0.1l0.1-0.1l0.1-0.1h0.1h0.1h0.1
		h0.1h0.1l0.2,0.1h0.1h0.1h0.1h0.2l0.2-0.1h0.1h0.2h0.1l0.1,0.1l0.1,0.1h0.1h0.1h0.1h0.1h0.2h0.1l0,0l0,0l0.1-0.1l0.1-0.2l0.1-0.1
		l0.1-0.1h0.1h0.1h0.2h0.1l0.2-0.1h0.2h0.1l0.1,0.1l0.1,0.1h0.1h0.1v-0.1v-0.1l0.1-0.1h0.1v-0.1l-0.1-0.1v-0.1v-0.1v-0.1v-0.1
		l0.1-0.1l0.1-0.2v-0.1v-0.1l0,0l0.1-0.2l0.1-0.2l0.1-0.1l0.3-0.2l0,0h0.1l0,0h0.1l0.1-0.1h0.1l0.1-0.1l0,0h0.1l0.1-0.1l0.1-0.1
		l0.1-0.1l0.2-0.1h0.1h0.1h0.1l0.1-0.1h0.4h0.1l-0.1-0.1V419h-0.1l-0.1-0.1v-0.2v-0.1l0.1,0.1h0.2l0.5-0.1h0.1l0.2,0.1l0.1-0.1
		l0.3-0.5l0.1,0.1h0.1h0.1l0.1-0.1l0.1-0.1l0.1-0.1l0.2-0.1h0.3l0.4-0.2l0.1,0.1l0.9,0.5h0.1h0.1h0.1h0.1h0.1L356.8,417.7z
		 M334.3,424.7L334.3,424.7l0.2,0.2l0.1,0.1h0.1h0.2v0.1v0.1v0.2v0.1l0.1,0.1l0.1,0.1h0.3h0.1l0.1,0.1v0.1v0.1l-0.1,0.2v0.1l0,0
		l0.4,0.3v0.2v0.2v0.2l0.1,0.2v0.2v0.2l-0.1,0.1h-0.1h-0.1l-0.3,0.1h-0.1h-0.2l0,0l0.1,0.1v0.1v0.3l-0.1,0.2l-0.1,0.1l-0.3,0.1l0,0
		l0,0h-0.2h-0.1l0,0v0.1v0.1v0.1l-0.1,0.1h-0.1h-0.1H334l-0.1-0.1l-0.1-0.1V429v-0.1v-0.2l0.3-0.3l0.1-0.2V428v-0.1v-0.1v-0.1v-0.1
		v-0.1l-0.1-0.3v-0.1L334,427l-0.1-0.1l-0.1-0.1l-0.2-0.1l0,0h0.1l0.3-0.1l0.2-0.1l0.1-0.1v-0.1v-0.2l0.1-0.3v-0.2v-0.2l-0.1-0.3
		v-0.2L334.3,424.7L334.3,424.7L334.3,424.7L334.3,424.7L334.3,424.7z M336.4,428.2L336.4,428.2L336.4,428.2l0.2,0.2l-0.1,0.1
		l-0.1,0.1l-0.1,0.1l-0.1,0.1v0.1v0.1l-0.1,0.1l-0.1,0.1l-0.1,0.1h-0.1l0,0l0,0v-0.1l0.1-0.2v-0.1v-0.1v-0.1v-0.1l0,0l0.1-0.1
		l0.1-0.1h0.1h0.1l0,0l0,0l0,0L336.4,428.2z M359.2,429.9L359.2,429.9L359.2,429.9v-0.2l0,0v-0.1l0,0l0,0l0,0l0,0l0,0l0,0l0,0l0,0
		l0,0l0,0l0,0V429.9L359.2,429.9l0.1-0.1l0,0l0,0l0,0l0,0l0,0l0,0L359.2,429.9L359.2,429.9L359.2,429.9L359.2,429.9L359.2,429.9
		L359.2,429.9L359.2,429.9L359.2,429.9L359.2,429.9L359.2,429.9L359.2,429.9z M359.2,429.9L359.2,429.9L359.2,429.9L359.2,429.9
		L359.2,429.9L359.2,429.9v0.1l0,0l0,0V429.9L359.2,429.9L359.2,429.9z M359.1,430L359.1,430L359.1,430L359.1,430L359.1,430
		L359.1,430v0.1l0,0l0,0V430L359.1,430L359.1,430z M358.5,430.7l0.1-0.1l0,0l0,0l0,0l0,0l0,0l0,0l0,0l0,0l0,0l0,0v0.1H358.5
		L358.5,430.7L358.5,430.7L358.5,430.7L358.5,430.7v0.1l0,0l0,0l0,0l0,0l0,0l0,0V430.7L358.5,430.7L358.5,430.7L358.5,430.7
		L358.5,430.7z M354.3,436.2L354.3,436.2L354.3,436.2L354.3,436.2L354.3,436.2L354.3,436.2l0.1-0.2l0,0l0,0l0,0l0,0l0,0L354.3,436.2
		z M350.9,443.4L350.9,443.4h0.1l0,0l0,0l0,0l0,0v-0.1v-0.1v-0.1l0,0h-0.1V443v-0.2v-0.1v-0.1v-0.1v-0.1v-0.1l0,0h0.1l0,0l0,0l0,0
		l0,0l0.1-0.8l0,0l0,0l0,0v-0.1h0.1l1.5-3h0.1v-0.1l0,0l0,0l0,0v0.1l0,0v0.1v0.2l0,0l0,0l0,0l0,0l0,0l0,0l0,0l0,0l0,0l0,0l0,0l0,0
		l0,0l0,0v0.1l0,0v0.1l0,0l0,0l0,0v0.1l-0.1,0.1v0.1v0.1l0,0l0,0l0,0l0,0l0,0l0,0l0,0v0.1l0,0l0,0l0,0l-0.1,0.1l0,0v0.1v0.1v0.1l0,0
		l0,0l0,0l0,0v0.1v0.1l0,0v0.1v0.1v0.1l0,0l0,0v0.1v0.1v0.1v0.1l0,0l0,0l0,0l0,0l0,0l0,0l0,0l0,0l0,0l0,0l0,0l0,0l0,0l0,0l0,0l0,0
		l0,0l0,0l0,0v0.1l0,0l0,0l0,0l0,0v0.1l0,0l0,0l0,0l0,0l0,0l0,0l0,0l0,0v0.1l0,0l0,0l0,0l0,0l0,0l0,0l0,0l0,0l0,0v0.1l0,0l0,0v0.1
		v0.1l0,0l0,0l0,0l0,0l0,0l0,0l0,0l0,0l0,0l0,0l0,0l0,0l0,0l0,0l0,0l0,0l0,0l0,0l0,0l0,0v0.1l0,0l0,0l0,0l0,0l0,0v0.1l0,0l0,0l0,0
		l0,0l0,0l0,0v0.1l0,0v0.1l0,0v0.1l0,0l0,0l0,0l0,0v0.1v0.1l0,0l0,0l0,0l0,0l0,0v0.1v0.1l0,0l0,0l0,0l0,0l0,0l0,0l0,0l0,0v0.1l0,0
		l0,0v0.1v0.1l0,0v0.1l0,0v0.1l0,0l0,0l0,0l0,0l0,0l0,0l0,0l0,0l0,0l0,0l0,0l0,0l0,0l0,0l0,0l0,0l0,0v0.1l0,0l0,0l0,0l0,0l0,0v0.1
		l0,0l0,0l0,0l0,0v0.1l0,0l0,0l0,0l0,0l0,0l0,0l0,0l0,0l0,0l0,0l0,0l0,0l0,0v0.1v0.1v0.1l0,0l0,0l0,0l0,0l0,0l0,0l0,0l0,0l0,0l0,0
		l0,0l0,0l0,0l0,0l0,0v0.1l0,0l0,0v0.1v0.1l0,0l0,0l0,0l0,0v0.1v0.1v0.1l0,0v0.2v0.1l0,0l0,0l0,0l0,0l0,0l0,0v0.1v0.1l0,0l0,0v0.1
		l0,0l0,0l0,0l0,0l0,0l0,0l0,0l0,0l0,0l0,0l0,0l0,0l0,0l0,0v-0.1v-0.1l-0.1-0.3l-0.1-0.3l-0.1-0.5l-0.1-0.2l-0.1-0.2l0,0l0,0
		l0.2-0.9l0.1-0.6h-0.1l0,0h-0.1l0,0l0,0l0,0l0,0l0,0l0,0l0,0l0,0v0.1h0.1v-0.2l0,0l0,0l0,0l0,0l0,0l0,0l0,0v-0.1V441v-0.1v-0.1
		v-0.1L350.9,443.4L350.9,443.4L350.9,443.4L350.9,443.4z M348.4,443.4L348.4,443.4L348.4,443.4L348.4,443.4L348.4,443.4z"/>
</g>
<text transform="matrix(1 0 0 1 20.5959 649.8676)" class="st10 st8 st16">Nota: Les variacions 21/20 no són calculables (nc) degut a que les dades de 2020 són “0” pel tancament forçós arrel de la crisi sanitària de la COVID-19.</text>
</svg>
