<?xml version="1.0" encoding="utf-8"?>
<!-- Generator: Adobe Illustrator 24.0.1, SVG Export Plug-In . SVG Version: 6.00 Build 0)  -->
<svg version="1.1" id="graphic" xmlns="http://www.w3.org/2000/svg" xmlns:xlink="http://www.w3.org/1999/xlink" x="0px" y="0px"
	 viewBox="0 0 543.5 646.2" style="enable-background:new 0 0 543.5 646.2;" xml:space="preserve">
<style type="text/css">
	.st0{fill:#003366;}
	.st1{font-family:'OpenSans-Bold';}
	.st2{font-size:11px;}
	.st3{fill:#E3F1F3;}
	.st4{fill:#E0F3F4;}
	.st5{fill:#E5F8F8;}
	.st6{fill:#E9F9F9;}
	.st7{fill:#CBF4F4;}
	.st8{font-family:'OpenSans-SemiBold';}
	.st9{font-size:8px;}
	.st10{fill:#6685A3;}
	.st11{font-family:'OpenSans-Light';}
	.st12{font-size:9px;}
	.st13{font-size:14px;}
	.st14{font-size:7px;}
	.st15{fill:#3185A0;stroke:#FFFFFF;stroke-width:0.3983;}
	.st16{fill:#60D5D8;stroke:#FFFFFF;stroke-width:0.3983;}
	.st17{fill:#66E0E0;stroke:#FFFFFF;stroke-width:0.3983;}
	.st18{fill:#003366;stroke:#FFFFFF;stroke-width:0.3983;}
</style>
<title>LABTurisme-provincies-turisme-rural-marc-2021</title>
<text transform="matrix(1 0 0 1 353.29 135.862)" class="st0 st1 st2">GIRONA</text>
<text transform="matrix(1 0 0 1 42.6339 185.7064)" class="st0 st1 st2">LLEIDA</text>
<path class="st3" d="M200.6,347.7c1.4,1.6,0.3,1.8-1,1.9C198.7,348.5,200.5,348.5,200.6,347.7z"/>
<path class="st4" d="M243.2,433.9c-0.1-0.9-0.5-1.8,0.5-2.4c0.5,0.3,0.9-1.6,1.3,0c0.1,0.5,1.1,1.6-0.4,1.6
	C243.8,432.9,243.7,433.6,243.2,433.9z"/>
<path class="st5" d="M348.1,248.1c0-0.2,0-0.5-0.1-0.7c0.8-1.7,2.2-1,3.5-1.2C350.7,247.4,349,246.9,348.1,248.1z"/>
<path class="st6" d="M357.2,246.1c0.9,0.5,1,1.4,1.2,2.2C356.9,248.4,356.7,247.4,357.2,246.1z"/>
<path class="st7" d="M343.4,243.3v-0.7c0.9,0.4,2.1-0.5,2.8,0.7H343.4z"/>
<text transform="matrix(1 0 0 1 42.6338 201.3556)" class="st0 st8 st9">Ocupació:  </text>
<text transform="matrix(1 0 0 1 42.6338 210.9557)" class="st0 st8 st9">7,1% (-4,6 pp)</text>
<g>
	<text transform="matrix(1 0 0 1 86.4717 53.7431)" class="st10 st11 st12">Amb un 50% d’activitat a totes les províncies, Tarragona i Lleida -per aquest ordre- són les dues  </text>
	<text transform="matrix(1 0 0 1 83.9717 64.5431)" class="st10 st11 st12">províncies amb uns millors resultats pel que fa a ocupació (-3,9 pp i -4,6 pp) respecte a les dades  </text>
	<text transform="matrix(1 0 0 1 178.3717 75.3431)" class="st10 st11 st12">del 2019, seguit de l’Entorn de Barcelona (-6,4 pp).</text>
	<text transform="matrix(1 0 0 1 163.5923 91.4712)" class="st10 st11 st12">Entre parèntesis, variació interanual respecte l’any 2019</text>
</g>
<image style="overflow:visible;enable-background:new    ;" width="564" height="62" xlink:href="32476878.jpg"  transform="matrix(0.2243 0 0 0.2243 212.5873 101.0004)">
</image>
<text transform="matrix(1 0 0 1 42.6342 225.1848)" class="st0 st8 st9">Viatgers:</text>
<text transform="matrix(1 0 0 1 42.6342 234.7848)" class="st0 st8 st9">2.430 (-56,2%)</text>
<text transform="matrix(1 0 0 1 42.6338 247.3609)" class="st0 st8 st9">Pernoctacions:</text>
<text transform="matrix(1 0 0 1 42.6338 256.9608)" class="st0 st8 st9">7.374 (-47,3%)</text>
<text transform="matrix(1 0 0 1 353.2898 150.3468)" class="st0 st8 st9">Ocupació: 10,4% (-10,0 pp)  </text>
<text transform="matrix(1 0 0 1 353.29 164.0059)" class="st0 st8 st9">Viatgers: 7.269 (-51,1%)</text>
<text transform="matrix(1 0 0 1 353.2903 177.0373)" class="st0 st8 st9">Pernoctacions: 17.823 (-54,7%)</text>
<text transform="matrix(1 0 0 1 383.8902 428.2251)" class="st0 st1 st2">ENTORN DE BARCELONA</text>
<text transform="matrix(1 0 0 1 383.89 444.5077)" class="st0 st8 st9">Ocupació: 13,4% (-6,4 pp)</text>
<text transform="matrix(1 0 0 1 383.8895 458.1671)" class="st0 st8 st9">Viatgers: 5.317 (-60,8%)</text>
<text transform="matrix(1 0 0 1 383.8902 472.3502)" class="st0 st8 st9">Pernoctacions: 16.773 (-46,7%)</text>
<text transform="matrix(1 0 0 1 176.8401 519.5612)" class="st0 st1 st2">TARRAGONA</text>
<text transform="matrix(1 0 0 1 176.8401 535.2955)" class="st0 st8 st9">Ocupació: 7,5% (-3,9 pp)</text>
<text transform="matrix(1 0 0 1 176.8401 548.9547)" class="st0 st8 st9">Viatgers: 1.641 (-67,8%)</text>
<text transform="matrix(1 0 0 1 176.8403 563.138)" class="st0 st8 st9">Pernoctacions: 4.677 (-62,3%)</text>
<text transform="matrix(1 0 0 1 224.7424 32.6689)" class="st0 st8 st13">Turisme rural</text>
<text transform="matrix(1 0 0 1 25.3048 632.721)" class="st10 st8 st14">Nota: Les variacions 21/20 no són calculables (nc) degut a que les dades de 2020 són “0” pel tancament forçós arrel de la crisi sanitària de la COVID-19.</text>
<text transform="matrix(1 0 0 1 25.3052 623.0624)" class="st10 st8 st14">Font: Elaboració pròpia del LABTurisme en base a dades de l’Enquesta d’ocupació en allotjaments de l’INE</text>
<g id="regions-layer">
	<path class="st15" d="M321.8,268.9v-0.3l0.3-1l2.7-1.3l1.4,1.6l-1.7,0.6l-0.3,2.2l-1.7,0.3L321.8,268.9z M317,197.7l1-2.5h2l1,1.6
		l-1.7,3.2l4.1,4.1l-8.1-1l0.3-5.1L317,197.7z M516.5,235.2l-0.3-0.3l0.3-0.3h0.3v0.6H516.5z M506.1,283.5l-0.3-0.3l-0.3-0.3v-0.3
		l1-0.3L506.1,283.5z M371.5,320.5l-0.7-4.8l1.7-1.6l4.8,1l1,2.2l1.4-0.3l3.4-4.1l3.7,0.6v0.3l2-0.3l5.4-4.8l-0.4-2.9l-2.4-1.6
		l-0.3-0.3l-3.1-0.3l0.3-2.5l-2-1.9l0.7-1.6l6.1,0.6l2-2.9l-3.1-1.9l4.7-1.6L396,288l1.3-1.9l-3.4-4.1l2.4-1.3l-1.4-1.9h-0.3v0.3
		h-0.3l-0.7-1.6l-2.7-0.3l-1.7,0.3l-3.4,2.5l-3.1-2.2l-2-3.8l0.7-2.2h-3.1l-0.7-2.2l-2.7-0.6v-0.3h-1.7l-3.7,1.3h-0.3l-3.4,2.2
		l1-3.5v-0.3l-1-1.9l-2.4-1.6l-1-0.3v-0.3l-2.7,1L357,264l-2,0.3l-1,0.3l-0.3,0.3h-0.3l-0.7,1.6l-2.4,1.6l-0.7-2.2l-6.4,0.6
		l-2.4,3.2l-4.1-1.9l-1.4-3.8l-4.7,1.6l-3.4-1.3l-1-1.9l-4.1,0.6v-1l-2-5.4l-3.7,0.6l-0.3-4.1l6.4,1.3l-1.4,0.3l1,1.6l-1.4,2.2
		l1.4,1.9l2.4-0.3l1.7-2.5l4.4-0.3l0.3-2.9l-1.7-0.3l-0.7-5.1v-0.3l-2.7,1.3l-1.7-2.9l1.4-1.9v-0.3l0.3-2.2l1-1v-0.3l2.7-3.8v-0.3
		l2.4-2.2l-7.8-3.8l-5.1,2.5l-4.7-3.5l-1.4,1.3l-0.3-1.3l-5.8-1.6l-9.1,3.5l-1-9.5l3-2.9l-4.1-2.5l-3,2.5l-1.4-1.6l1.3-7.9l-2-2.5
		l-3.7,0.3l-5.8-2.2l-1.4-9.2l1-1l14.2,1l9.8,7.6l4.7,0.3l2.4-1.6l0.7,5.1l2.7,1l0.7,8.2l3.7,4.4l4.1,2.2l2.4-1.9l8.1-1l1-2.5
		l3.4-1.3v-2.5l3.4-4.1l2.7-1.3l7.8,1l7.4-4.1l6.1,3.2l2.4-1.3l8.1,5.4l10.2,1.6l0.4,3.8l2.7,0.6l3.7,5.7l3.4-0.3l3.4,1.9h2.7
		l1.7-4.1l2.7-0.6l14.9,3.5l1-2.9l-2-1.6l-1.7-5.1h3l0.7-3.5l10.1-3.8l5.1,2.5l3.4-1.6l2.3-3.8l1.7,0.3l2-4.1l3.1,1l1-2.5l2.7,1.6
		l5.8,0.3l1-3.2l2.7-1.3l2.7,2.9l4.4-1.6l2.7,1.6l4-1.6l2.4,5.4l4.4,4.1l5.4-2.2l7.8,0.3l-0.3,0.6l-1.7,0.6l1,0.6l0.3,0.3v0.3v0.3
		v0.3v0.3l-0.3,0.6h-0.3v0.3v0.3h-0.3l-1,1.3l1.4,0.6v0.3l-0.3,0.3h-0.3l-1,1.3h0.3v0.3h1.4h0.3v0.3l-1.7,1.9l0.3,1h0.3l1,0.6v0.3
		v0.3v0.3h-0.3l-0.3,0.3l0.3,0.3l1,1.3l0.7,0.3l0.3,0.3h0.7l0.7,0.6l-0.3,1l0.7,0.6l0.3,0.6l1.4,0.6l0.7-2.5l1,0.3l0.7-0.6h0.3h2.4
		l0.7,1v1h0.3v0.3l1.4,1.3l1.3-0.6h0.3v-0.3v-0.6l1.4,0.3l1,0.3h0.3v0.6l0.7,0.3h0.3l1.7,0.6v0.3h0.3h0.7h0.3l0.7,1.3v-1l0.3,0.3
		l1,0.3l0.3,0.3v0.3l-0.7,0.6v0.3h-0.3l-0.3-0.3l-0.3,0.6h-0.3l-1.3,1.3v0.3l-1-0.3h-0.3l-0.3,0.3l0.3,0.3h0.3v0.3v0.3l-0.3,0.3
		l-0.7,1.3h1l0.3,0.3h0.3v0.3v0.6v0.3l-1,0.3h-0.3h-0.3l-1.4-1.3l0.4,2.2l0.3,0.6l-0.3,4.1l-3.7,0.3l1.4,2.5v0.3l-3.1-2.5h-2.4
		l0.3,1l-0.3,0.3l-1,1.9l-3.4-1.9l-2.7-0.6l-1-3.5h-2.4l-5,5.4l-2,6l1.8,13.7h0.3v0.6v0.3v0.3l1.7,0.6v0.3l0.4,1.9l2.7-0.3l1,0.3
		l0.7,0.3l1.4,0.3l-0.7,1.6l1,0.3l1,0.3v0.3h0.3l1.4,2.9l1.4,2.2l0.7,1.6v0.3v0.3l0.3,0.6v0.6v0.3H504v0.3l-1.7,0.3l-0.6,6.7
		l2.4,8.6h1.4v-0.3h0.3l0.7,0.3v0.3v0.3h0.3h0.3v0.3v1l0.3,1v-0.6h0.3l-0.3,0.6v0.3h-0.3v0.3v0.3l-0.3,1v0.3h-0.3v0.3l-0.3,0.3h-0.3
		l-0.3,0.3v0.6h-0.3v0.3l-0.3,0.3h0.3l0.3,0.3l-0.3,1l0.3,0.6v0.3h-0.3l0.3,0.6h-0.3v0.6l-1.4,1l0.3,1h-0.3v0.3h0.3v0.3v0.3v0.3
		l-0.7,0.3v0.3v0.3v0.3h-0.3l-0.7,0.6h-0.7h-0.3l0.3,0.3l-0.3,0.3l-0.3,0.3h-0.3h-0.7v0.3v0.3v0.3v0.3h-0.3l-0.3,0.3v0.3l0.3,0.3
		l-0.3,0.6v0.3v0.3v0.3l-1,1h-0.3H498l-0.3,0.3h-0.3v0.3L496,318h-0.3l-0.7,0.6l-0.7,0.6v1.3H494h-0.3l-1.3,1.6l-2.4-1.6l-3,2.2v0.3
		v0.3v0.3h-0.3l-0.7,1h-0.3v0.3H485v0.3h-0.3v0.3h-0.3l-2.7,5.7v0.3l-0.3,1H481h-1.4v0.3v0.3l0.3,0.3l-0.7,0.6l-0.3,0.3h-1.7l0.3,1
		v0.3h-0.7l-3.7,0.6v0.3l-0.3,0.3l-2.7,1l-0.3,0.3l-0.7,0.3v0.3v0.3h-0.7l-0.7,1.3l-0.3,0.3l-0.7,1h-0.3l-0.7,1.9l-0.7,0.3l-0.7,0.6
		H464l-0.3,1l-4.1,2.6l-2.4,1h-0.3l-1.4,0.3l-2.4,0.3v0.3h-0.7h-0.7l-2.4,0.6l-0.3,0.3h-0.3l-0.3,0.3l-1.7,0.3h-0.3l-0.3,0.3h-0.3
		l-0.7,1.3h-0.3l-1,1v0.3l-0.7,0.3l-1.7,0.6l-2,3.8l-3.1-5.4l2.4-4.2l-0.7-5.1V344l1-1.6l-12.2-1.3l-2-0.6v1.3l-3.7-1.6l-2.4,0.6
		l-1.7,2.6l-13.9,1.9l-3.1-7.7l-7.1-3.5l0.3-2.2l-2.4,1l-2-1l-1-2.9l-12.6-0.6L371.5,320.5z"/>
	<path class="st16" d="M96.4,585.7l-11.9-5.2l-0.7-3.6l1.7-2.6l-5.8-2.9l-0.3-1.9l-9.9-1l-8.5-3.9l-2.4-3.9l0.4-2.6l3.8-5.2
		l-4.8-4.2l-3.8,1l-1.7-6.1l-4.1,1.6l-4.1-1.6l-1-1.9l-0.7-1.3L45,542v-2.9l2,1l3.4-3.5l2.4,0.3l1.4-4.5l6.2-6.8l-2.7-3.9l-0.3-1
		l-0.3-5.5l-2.4-1.9l8.3-17.7h-1.7v-2.9l-2-2.6l1-1l-2.4-1.3l0.3-1.6l2.7-0.3l-2.7-1l-2-2.9l-2.4,1.3v-2.6l-2.4,0.3l2.1-1.3
		l-1.7-1.6l0.4-2.3l-0.7-2.6h-2.4l1.4-6.4l-1.4-1.3l3.1-1.9l-1-0.6l5.1,1.3l0.7-4.2l3.4,0.3l4.4-2.9l2.1-10.9l3.4-2.6l2.7,1.3
		l0.7-2.2h2.7l-1-2.6l1.7-5.8l7.2,0.6l0.4-9l4.1-2.9l6.4,9h3.4l4.1-7.4l4.1,1.3l3.4,5.5l3.4,0.3l5.8-2.9l0.7-0.6h0.3h0.7l11.6-1.6
		l1.7-3.5l2.4,0.6h1h1v0.3l3.7,0.6l0.7-1.3l0.3-1l0.7-3.8l1.7-1l3.7,4.8l13.3-2.9l2-0.6l-0.3-2.2l2.7-4.8l1.7,0.6l1.4-3.2l4.1-1
		l2.7-5.4l1.4-1.3l0.3-0.3l2-1.9l0.7-1l-2-1.3l-3.7-2.9l1.4-0.6l-1-3.5l10.2,5.4v1.3l10.9-3.8l-2.4-5.1l1.7-3.5l-1.7-1l1.4,0.6
		l-0.7-1.6l6.8-1.9l0.3-3.5l4.8-0.3l8.5-0.3l15.3,2.6l-1.7-3.5l4.4-1.3l4.8,2.6l-3.4,2.6l0.3,1.3l2-0.6l0.3,3.2l-6.1,0.3l-1.7,4.5
		l7.5,3.5l0.7,1.6h3.4l1.7,3.2h0.3l-2.7,5.1l0.7,1.6l2.7,0.3l-2.4,1.3l1,1.6l1,4.2l-2.4,3.5l5.1-2.6l4.8,1.9l2,3.2h2.7l1,2.2h0.3
		l-3.1,2.6l2,5.5l3.4,1.3l-0.7,3.2l3.4,1.9l0.3-1.6l3.4-0.6l-1.4,0.3l-1,8l-7.8-1.3l1,3.5l7.2,3.9l2.4-2.2l1,4.5l-0.3,3.2l-20.1,3.5
		l-6.8,2.2l-10.9,7.1l-5.1,0.3l-9.9,0.3l-7.2,3.9l-3.4,4.2l3.4-4.2l-2.7,1.6l-2.7-0.6l-3.4,3.2l-2.7,6.4h-1.7l-2.4-3.2l-3.8-0.6
		l-5.8,2.6l-5.5-0.3l-9.9,5.1l-6.5,6.4l-0.7,2.6l-5.5,3.2l-5.8,6.1l-9.9,15.5l-6.5,4.2l-1.4,4.5l-6.5,3.9l1,3.5l4.4,4.2l6.8-0.3
		v-1.3l-7.5-2.3l0.7-1.3l3.8-0.3l3.1,1.9l8.2,10.6l3.8-1l3.1,1.9l-1.4,6.1l-6.5,5.2l-9.9,4.8l-12.4,16.1l-9.9,2.3l-3.1-2.9L108,574
		l3.1,0.3h0.3h-0.3l0.3-1.6l2.4,0.6v0.3v0.3l0.3,0.3l1,0.3l0.7,0.3h0.3l0.3-0.3v-0.3v-0.6h0.7v-0.3V573l0.7-1.6l8.2-0.3l4.1-6.5
		l0.7-2.3h-1l-0.3-0.3h-0.3l-20.2,3.2l-9.6,11L96.4,585.7z"/>
	<path class="st17" d="M277.5,314.1v-1.6l2.7,1l-0.7,1.3L277.5,314.1z M177.5,403.6l-2.7,5.4l-4.1,1l-1.4,3.2l-1.7-0.6l-2.7,4.8
		l0.3,2.2l-2,0.6l-13.3,2.9l-3.7-4.8l-1.7,1l-0.7,3.8l-0.3,1l-0.7,1.3l-3.7-0.6v-0.3h-1h-1l-2.4-0.6l-1.7,3.5l-11.6,1.6h-0.7h-0.3
		l-0.7,0.6l-5.8,2.9l-3.4-0.3l-3.4-5.5l-4.1-1.3l-4.1,7.4h-3.4l-6.4-9l-4.1,2.9l-0.4,9l-7.2-0.6l-3-5.1l0.7-2.9l-3.1-1.6l3.8-5.1
		l-1.7-3.2l-6.4-5.1l2.4-2.6l3.1-9l-1.7-1.6l-0.3-4.5l6.5-0.3l2.7-1.9l6.5-10.6l-2.4-3.2l-0.3-7.4l-3.7,1.6l-8.2-1.3l-0.3-4.5
		l1.7-1.9l-4.7-5.8v-3.2l6.5-7.3l2.4-5.1l1.4,1.6L80,340l10.9-1.6l1.7-6.7l5.1-4.5l4.1,0.6l1.7-6.4l4.1,0.3v-2.6l4.1-1.6l-2.4-2.6
		l1.4-4.8l-1-1.3l2-0.6l-6.8-2.9V304l4.4-5.7l1.7,1.6l3.1-6.4l2.4-0.3l0.3,2.2l0.7-2.9l1.7-0.6l1-2.9l-1.4-0.6v-3.5l2.4-1.9
		l-0.3-2.9l4.8-8.9l-0.6-9.2l2.7-1.9l-1.7-1.3v-4.1l1.7-6.7l3.1-4.8l1.7-10.5l3.1-4.1l-3.4-1v-1.9l4.4-2.9l-7.4-2.9l3.4-3.8
		l-8.1-19.3l1.4-2.2l2,1.3l4.1-3.2l-3-1.6v-2.2l0.7-1.6l3.7-0.6l-1.3-1.6l4.1-12v-1.3l-3.4-0.6l-5.7-1.3l-1.7-7.3l-3-3.5l-2.4-2.8
		h2.4l1-2.8l-3-9.2l-3-0.3l3.7-4.4l-3-1.6l3.7-3.5l-1.7-7.3l3-1.9l-0.3-1.3l4.4-1.3l10.4,5.1l3-0.9l9.1,2.8l10.1,7.3l5.7-3.2
		l2.7,3.5h7.8l1.7,1.3l4.4-0.3l0.7-1.3l7.8,6.6l0.7,5.4l4.7,3.8l10.1-3.8l3,2.5l10.8-1.9l4.7,0.9l-0.7,3.8l5.7,2.5l-0.3,3.8l3.7,2.2
		l1,6.3l3.4,4.1l-2.4,4.4l2.7,2.5l-2.7,1.6l-2,4.8l4.7-1.6l3.7,6.7l-7.4,4.4l3,1.9l0.3,6.7l2,1.6l14.6,0.6l1-5.1l3.4,1.6l1.4-2.9
		l10.2-0.6l1.7-7.3l2,2.2l3.4,0.6l3-2.9l0.7,2.5l-1,1l1.4,9.2l5.8,2.2l3.7-0.3l2,2.5l-1.3,7.9l1.4,1.6l3-2.5l4.1,2.5l-3,2.9l1,9.5
		l-1.7,1H292l-3.7,1.9l-6.1,0.3l-0.7,1.3l-2.7-1l-7.1,1.3l3,1l0.7,2.5l-1.4,1.6l3.1,3.2l-0.7,1.9l-3,1.3l0.7,3.5l3.4,3.2l1.7-1.3
		l3.1,1.3l-0.3,1v1.6v0.3l0.3,2.5l-1.4,0.6l-3.4,1.9l-1.4,4.1l1.4,1l-0.3,3.5l2.7,2.2l-1,1.9l-3.7-0.6l-2.7,6l-0.7,2.5l1.4,1
		l0.7-1.9l2.4,4.1l-3.7,1.6l-1,3.2l-0.3-3.5h-1.4l-1.4,4.1l1,1.6l1-2.2v2.2l3.7-0.3l1.7,1.9v-6.1l3.4,3.2l-0.7,1.6l0.3,1.6l-5.1,3.2
		l-2-1.3l1-1.9l-3.7,1l-0.3,6.4l-1,1l1.7,2.5h-1.7h-0.3l-8.1,8l-1.4-1l-1.4,2.6l2.4,1.3l2.4-2.2l2.7,0.6l0.7,1.6l1.4,5.7l-3.1,1.3
		v3.8l-3.4,2.6l1.7,3.2l-1,2.2l-2.7-1l-2,1v1.6l-2-0.3l-0.3,2.9l-2.4,1v-2.6l-1-0.3l-1.7-1l-0.3-0.3v-0.3l-0.3-0.3l-0.3-2.6h-2.7
		l-1,3.5v-0.3l-1.4,0.3v-5.7l-1.7,0.3h-1.4l-3.7-0.6l-1.4,1.3l-2,9.9l3.1,2.6l-6.1,5.1l2.4,0.3l-0.7,1.9l1.4,1.9l3.1,0.3l-1.4,1.9
		l3.7,5.1v0.3h1.7v1.3l-3.1,2.2l-5.4-1.3l-5.1,4.2l7.1,2.9l-2.4,4.8l1.7,3.5l-15.3-2.6l-8.5,0.3l-4.8,0.3l-0.3,3.5l-6.8,1.9l0.7,1.6
		l-1.4-0.6l1.7,1l-1.7,3.5l2.4,5.1l-10.9,3.8v-1.3l-10.2-5.4l1,3.5l-1.4,0.6l3.7,2.9l2,1.3l-0.7,1l-2,1.9l-0.3,0.3L177.5,403.6z
		 M275.1,270.1l-3.1-0.6l-4.1,0.3l4.1,1.9h3.1V270.1z"/>
	<path class="st18" d="M272,269.5l3.1,0.6v1.6H272l-4.1-1.9L272,269.5z M268,451.4l0.3-3.2l-1-4.5l-2.4,2.2l-7.2-3.9l-1-3.5l7.8,1.3
		l1-8l1.4-0.3l-3.4,0.6l-0.3,1.6l-3.4-1.9l0.7-3.2l-3.4-1.3l-2-5.5l3.1-2.6h-0.3l-1-2.2h-2.7l-2-3.2l-4.8-1.9l-5.1,2.6l2.4-3.5
		l-1-4.2l-1-1.6l2.4-1.3l-2.7-0.3l-0.7-1.6l2.7-5.1h-0.3l-1.7-3.2H239l-0.7-1.6l-7.5-3.5l1.7-4.5l6.1-0.3l-0.3-3.2l-2,0.6l-0.3-1.3
		l3.4-2.6l-4.8-2.6l-4.4,1.3l2.4-4.8l-7.1-2.9l5.1-4.2l5.4,1.3l3.1-2.2v-1.3h-1.7v-0.3l-3.7-5.1l1.4-1.9l-3.1-0.3l-1.4-1.9l0.7-1.9
		l-2.4-0.3l6.1-5.1l-3.1-2.6l2-9.9l1.4-1.3l3.7,0.6h1.4l1.7-0.3v5.7l1.4-0.3v0.3l1-3.5h2.7l0.3,2.6l0.3,0.3v0.3l0.3,0.3l1.7,1l1,0.3
		v2.6l2.4-1l0.3-2.9l2,0.3V336l2-1l2.7,1l1-2.2l-1.7-3.2l3.4-2.6v-3.8l3.1-1.3l-1.4-5.7l-0.7-1.6l-2.7-0.6l-2.4,2.2l-2.4-1.3
		l1.4-2.6l1.4,1l8.1-8h0.3h1.7l-1.7-2.5l1-1l0.3-6.4l3.7-1l-1,1.9l2,1.3l5.1-3.2l-0.3-1.6l0.7-1.6l-3.4-3.2v6.1l-1.7-1.9l-3.7,0.3
		v-2.2l-1,2.2l-1-1.6l1.4-4.1h1.4l0.3,3.5l1-3.2l3.7-1.6l-2.4-4.1l-0.7,1.9l-1.4-1l0.7-2.5l2.7-6l3.7,0.6l1-1.9l-2.7-2.2l0.3-3.5
		l-1.4-1l1.4-4.1l3.4-1.9l1.4-0.6l-0.3-2.5v-0.3v-1.6l0.3-1l-3.1-1.3l-1.7,1.3l-3.4-3.2l-0.7-3.5l3-1.3l0.7-1.9l-3.1-3.2l1.4-1.6
		l-0.7-2.5l-3-1l7.1-1.3l2.7,1l0.7-1.3l6.1-0.3l3.7-1.9h4.1l1.7-1l9.1-3.5l5.8,1.6l0.3,1.3l1.4-1.3l4.7,3.5l5.1-2.5l7.8,3.8
		l-2.4,2.2v0.3l-2.7,3.8v0.3l-1,1l-0.3,2.2v0.3l-1.4,1.9l1.7,2.9l2.7-1.3v0.3l0.7,5.1l1.7,0.3l-0.3,2.9l-4.4,0.3l-1.7,2.5L322,260
		l-1.4-1.9l1.4-2.2l-1-1.6l1.4-0.3l-6.4-1.3l0.3,4.1l3.7-0.6l2,5.4v1l4.1-0.6l1,1.9l3.4,1.3l4.7-1.6l1.4,3.8l4.1,1.9l2.4-3.2
		l6.4-0.6l0.7,2.2l2.4-1.6l0.7-1.6h0.3l0.3-0.3l1-0.3l2-0.3l2.7,1.3l2.7-1v0.3l1,0.3l2.4,1.6l1,1.9v0.3l-1,3.5l3.4-2.2h0.3l3.7-1.3
		h1.7v0.3l2.7,0.6l0.7,2.2h3.1l-0.7,2.2l2,3.8l3.1,2.2l3.4-2.5l1.7-0.3l2.7,0.3l0.7,1.6h0.3v-0.3h0.3l1.4,1.9l-2.4,1.3l3.4,4.1
		l-1.3,1.9l0.7,3.8l-4.7,1.6l3.1,1.9l-2,2.9l-6.1-0.6l-0.7,1.6l2,1.9l-0.3,2.5l3.1,0.3l0.3,0.3l2.4,1.6l0.4,2.9l-5.4,4.8l-2,0.3
		v-0.3l-3.7-0.6l-3.4,4.1l-1.4,0.3l-1-2.2l-4.8-1l-1.7,1.6l0.7,4.8l3.4,9.9l12.6,0.6l1,2.9l2,1l2.4-1l-0.3,2.2l7.1,3.5l3.1,7.7
		l13.9-1.9l1.7-2.6l2.4-0.6l3.7,1.6v-1.3l2,0.6l12.2,1.3l-1,1.6v0.3l0.7,5.1l-2.4,4.2l3.1,5.4v0.3l-20.7,9H418l-25.8,11.5
		l-14.9,11.2l-15.6,6.1l-12.5,19.9l-1,1.3l1.7-5.4l-2.4,5.4l-3.1,1.3l-0.7,3.2l2-2.6l-1,4.2l-5.4,6.4l-14,4.8l-12.9,0.3l-12.6,5.8
		l-6.5-0.3l-3.7,2.6L268,451.4z M277.5,314.1l2,0.6l0.7-1.3l-2.7-1V314.1z M324.6,268.6l1.7-0.6l-1.4-1.6l-2.7,1.3l-0.3,1v0.3
		l0.7,2.2l1.7-0.3L324.6,268.6z"/>
</g>
</svg>
