<svg xmlns="http://www.w3.org/2000/svg" id="graphic" width="628.125" height="182.46125"><g id="facets"><g class="facet" transform="translate(10,45.7)" opacity="1"><rect class="facet-title-bg" height="35.7" fill="#eeeeee" x="47.393803405761716" y="-46.410000000000004" clip-path="url(#facet-clip-0)"/><text class="facet-title" y="-19.992000000000004" font-size="23.8px" font-weight="bold" dx="0" x="53.34380340576172" fill="#003366" clip-path="url(#facet-clip-0)" opacity="1">Viatgers</text><g class="plot"><clipPath class="facet-clip" id="facet-clip-0"><rect width="416.0625" height="274.46125" transform="translate(-112,-91.7)"/></clipPath><g class="bg"><rect fill="none" width="192.0625" height="126.76125" style="fill: none;"/></g><g class="interaction"><g class="series"/></g><g class="axes"/></g></g><g class="facet" transform="translate(426.0625,45.7)" opacity="1"><rect class="facet-title-bg" height="35.7" fill="#eeeeee" x="15.38940887451172" y="-46.410000000000004" clip-path="url(#facet-clip-1)"/><text class="facet-title" y="-19.992000000000004" font-size="23.8px" font-weight="bold" dx="0" x="21.33940887451172" fill="#003366" clip-path="url(#facet-clip-1)" opacity="1">Pernoctacions</text><g class="plot"><clipPath class="facet-clip" id="facet-clip-1"><rect width="416.0625" height="274.46125" transform="translate(-112,-91.7)"/></clipPath><g class="bg"><rect fill="none" width="192.0625" height="126.76125" style="fill: none;"/></g><g class="interaction"><g class="series"/></g><g class="axes"/></g></g></g><g class="annotations below"><g class="axis-highlights" transform="translate(10, 45.7)" style="opacity: 1;"/><g class="axis-highlights" transform="translate(426.0625, 45.7)" style="opacity: 1;"/></g><g id="areas"/><g id="lines"/><g id="data-points"><g class="series" transform="translate(10,45.7)"><path class="data-point" data-type="arc" fill="#00cccc" opacity="1" d="M3.8809439767104354e-15,-63.380625A63.380625,63.380625,0,1,1,-61.76612227650876,14.214420998197333L-21.618142796778066,4.975047349369067A22.18321875,22.18321875,0,1,0,1.3583303918486526e-15,-22.18321875Z" transform="translate(96.03125,63.380625)" id="point-0-0"/><path class="data-point" data-type="arc" fill="#003366" opacity="1" d="M-61.76612227650876,14.214420998197333A63.380625,63.380625,0,0,1,4.465047142197494e-14,-63.380625L1.562766499769123e-14,-22.18321875A22.18321875,22.18321875,0,0,0,-21.618142796778066,4.975047349369067Z" transform="translate(96.03125,63.380625)" id="point-0-1"/><g class="data-label" text-anchor="middle" font-size="16px" pointer-events="none" opacity="1" transform="translate(129.50343322753906, 90.0246810913086)"><text class="back" stroke-width="0" stroke="#f7f7f7"><tspan class="label"/><tspan class="value" x="0" dy="0">71,4%</tspan></text><text class="front" fill="#ffffff"><tspan class="label"/><tspan class="value" x="0" dy="0">71,4%</tspan></text></g><g class="data-label" text-anchor="middle" font-size="16px" pointer-events="none" opacity="1" transform="translate(62.55906677246094, 36.736568450927734)"><text class="back" stroke-width="0" stroke="#f7f7f7"><tspan class="label"/><tspan class="value" x="0" dy="0">28,6%</tspan></text><text class="front" fill="#ffffff"><tspan class="label"/><tspan class="value" x="0" dy="0">28,6%</tspan></text></g></g><g class="series" transform="translate(426.0625,45.7)"><path class="data-point" data-type="arc" fill="#00cccc" opacity="1" d="M3.8809439767104354e-15,-63.380625A63.380625,63.380625,0,1,1,-53.51403162327117,33.96103715751564L-18.72991106814491,11.886363005130475A22.18321875,22.18321875,0,1,0,1.3583303918486526e-15,-22.18321875Z" transform="translate(96.03125,63.380625)" id="point-1-0"/><path class="data-point" data-type="arc" fill="#003366" opacity="1" d="M-53.51403162327117,33.96103715751564A63.380625,63.380625,0,0,1,4.465047142197494e-14,-63.380625L1.562766499769123e-14,-22.18321875A22.18321875,22.18321875,0,0,0,-18.72991106814491,11.886363005130475Z" transform="translate(96.03125,63.380625)" id="point-1-1"/><g class="data-label" text-anchor="middle" font-size="16px" pointer-events="none" opacity="1" transform="translate(133.52133178710938, 83.99097442626953)"><text class="back" stroke-width="0" stroke="#f7f7f7"><tspan class="label"/><tspan class="value" x="0" dy="0">66,0%</tspan></text><text class="front" fill="#ffffff"><tspan class="label"/><tspan class="value" x="0" dy="0">66,0%</tspan></text></g><g class="data-label" text-anchor="middle" font-size="16px" pointer-events="none" opacity="1" transform="translate(58.54116439819336, 42.7702751159668)"><text class="back" stroke-width="0" stroke="#f7f7f7"><tspan class="label"/><tspan class="value" x="0" dy="0">34,0%</tspan></text><text class="front" fill="#ffffff"><tspan class="label"/><tspan class="value" x="0" dy="0">34,0%</tspan></text></g></g></g><g id="lines-secondary"/><g id="data-labels"/><g class="annotations above"><g class="axis-highlights" transform="translate(10, 45.7)" style="opacity: 1;"/><g class="axis-highlights" transform="translate(426.0625, 45.7)" style="opacity: 1;"/></g></svg>