<svg id="Capa_1" data-name="Capa 1" xmlns="http://www.w3.org/2000/svg" xmlns:xlink="http://www.w3.org/1999/xlink" viewBox="0 0 536 383"><defs><style>.cls-1{fill:#fff;}.cls-2{font-size:6.35px;fill:#8d8d8d;font-family:OpenSans-Regular, Open Sans;}.cls-3{fill:#44698e;}.cls-4{fill:#e3f1f3;}.cls-5{fill:#e0f3f4;}.cls-6{fill:#e5f8f8;}.cls-7{fill:#e9f9f9;}.cls-8{fill:#cbf4f4;}.cls-17,.cls-18,.cls-19,.cls-20,.cls-21,.cls-9{isolation:isolate;}.cls-9{font-size:9.63px;}.cls-10,.cls-11,.cls-9{fill:#1c3761;}.cls-11,.cls-18,.cls-19,.cls-23,.cls-24,.cls-9{font-family:OpenSans-Light, Open Sans;font-weight:300;}.cls-10{font-size:13.48px;}.cls-10,.cls-20,.cls-21{font-family:OpenSans-Bold, Open Sans;font-weight:700;}.cls-11,.cls-19,.cls-21,.cls-22{font-size:7px;}.cls-12{fill:#1a5f85;}.cls-12,.cls-13,.cls-14,.cls-15,.cls-16{stroke:#fff;}.cls-12,.cls-14{stroke-width:0.32px;}.cls-13{fill:#d6d6d6;stroke-width:0.62px;}.cls-14{fill:#267393;}.cls-15,.cls-18,.cls-19,.cls-20,.cls-21,.cls-22{fill:#036;}.cls-15{stroke-width:0.23px;}.cls-16{stroke-width:0.15px;fill:url(#Degradado_sin_nombre_2);}.cls-18{font-size:6px;}.cls-20{font-size:9px;}.cls-22{font-family:OpenSans-SemiBold, Open Sans;font-weight:600;}.cls-24{letter-spacing:0em;}</style><linearGradient id="Degradado_sin_nombre_2" x1="272.27" y1="2611.71" x2="323.63" y2="2611.71" gradientTransform="matrix(1, 0, 0, -1, 0, 2706)" gradientUnits="userSpaceOnUse"><stop offset="0" stop-color="#83e2e2"/><stop offset="0.96" stop-color="#036"/><stop offset="1"/></linearGradient></defs><rect class="cls-1" x="-17" y="-14" width="590" height="405"/><text class="cls-2" transform="translate(181.47 374)">Font: Elaboració pròpia del LABturisme, en base a dades de l&apos;Enquesta d&apos;ocupació en allotjaments de l&apos;INE</text><path class="cls-3" d="M266.4,47.88c-.29-.45.28-.63.51-.91a.24.24,0,0,1,.4,0"/><path class="cls-4" d="M182.45,192c.77.88.16,1-.55,1.05C181.4,192.41,182.39,192.41,182.45,192Z"/><path class="cls-5" d="M205.92,241.47c0-.49-.27-1,.28-1.32.28.17.5-.88.72,0,.05.28.6.88-.22.88C206.26,240.92,206.2,241.31,205.92,241.47Z"/><path class="cls-6" d="M263.73,139.08a1,1,0,0,0-.05-.38c.44-.94,1.21-.55,1.93-.66C265.17,138.7,264.23,138.42,263.73,139.08Z"/><path class="cls-7" d="M268.75,138c.49.28.55.77.66,1.21C268.58,139.25,268.47,138.7,268.75,138Z"/><path class="cls-8" d="M261.14,136.68v-.38c.5.22,1.16-.28,1.55.38Z"/><text class="cls-9" transform="translate(110.96 45.95)">Girona també lidera el rànquing i el volum d’activitat en el turisme rural, <tspan x="16.43" y="11.56">seguida de Càceres i de l’Entorn de Barcelona en tercer lloc. Les </tspan><tspan x="-15.31" y="23.12">comarques de Barcelona registren l’ocupació per places més alta de Catalunya.</tspan></text><text class="cls-10" transform="translate(228.75 31.03)">Turisme rural</text><text class="cls-11" transform="translate(179.64 83.27)">Entre parèntesi, variació iteranual respecte l’any 2020 i 2019</text><g id="regions-layer"><path class="cls-12" d="M259.05,177.1V177l.16-.53,1.4-.68.73.84-.88.32-.16,1.15-.88.15Zm-2.54-37.16.52-1.3h1l.52.83-.89,1.68,2.13,2.14-4.2-.47.15-2.67ZM360,159.52l-.15-.16.15-.16h.16v.32Zm-5.4,25.23-.15-.16-.16-.16v-.16l.52-.15Zm-69.75,19.31-.37-2.51.89-.84,2.44.52.52,1.15.72-.15,1.77-2.15,1.92.32v.15l1-.15,2.81-2.52-.21-1.51-1.25-.84-.16-.16-1.61-.16.16-1.3-1-1,.37-.84,3.16.32,1-1.52-1.61-1,2.44-.84-.36-2,.68-1-1.77-2.14,1.25-.68-.73-1h-.16v.16h-.15l-.37-.84-1.4-.15-.88.15-1.77,1.31-1.61-1.15-1-2,.37-1.15h-1.56l-.37-1.15-1.4-.32V177h-.88l-1.92.68h-.16l-1.76,1.15.52-1.83v-.16l-.52-1-1.25-.84-.52-.16v-.16l-1.4.53-1.4-.68-1,.15-.52.16-.16.16h-.15l-.37.84-1.24.83-.37-1.15-3.32.32-1.25,1.67-2.13-1-.73-2-2.44.83-1.76-.68-.52-1-2.13.31v-.52l-1-2.83-1.92.32-.16-2.15,3.33.68-.73.16.52.84-.68,1.15.73,1,1.25-.15.88-1.31,2.28-.16.16-1.52-.88-.15-.37-2.67v-.16l-1.4.68-.88-1.52.67-1v-.16l.16-1.15.52-.52v-.16l1.4-2v-.16l1.25-1.15-4.05-2-2.65,1.31-2.44-1.83-.73.68-.16-.68-3-.84-4.73,1.83-.51-5,1.55-1.52-2.13-1.3-1.55,1.3-.73-.83.67-4.14-1-1.31-1.92.16-3-1.15-.72-4.82.51-.47,7.38.47,5.09,4,2.44.16,1.25-.84.36,2.67,1.4.47.37,4.29,1.92,2.31,2.13,1.15,1.25-1,4.2-.52.52-1.31,1.77-.68v-1.31l1.76-2.14,1.41-.68,4.05.47,3.84-2.15,3.17,1.68,1.25-.68,4.2,2.82,5.25.84.21,2,1.4.31,1.92,3,1.77-.16,1.76,1h1.41l.88-2.14,1.4-.32,7.74,1.83.52-1.51-1-.84-.88-2.67h1.56l.36-1.83,5.25-2,2.64,1.31,1.77-.84,1.2-2,.88.16,1-2.15,1.56.47.51-1.3,1.41.83,3,.16.52-1.68,1.4-.68,1.4,1.47,2.29-.84,1.4.84,2.08-.84,1.24,2.83,2.29,2.14,2.8-1.15,4.06.16-.16.31-.88.32.52.31.15.16v.63l-.15.31h-.16v.32h-.16l-.52.68.73.31v.16l-.15.15h-.16l-.52.68h.16v.16H350V149l-.88,1,.15.53h.16l.52.31v.47h-.16l-.15.16.15.16.52.68.37.15.15.16h.36l.37.31-.16.53.37.31.15.32.73.31.36-1.31.52.16.37-.32h1.4l.36.53V154h.16v.16l.72.68.68-.32h.16V154l.72.16.52.16h.16v.31l.36.16h.16l.88.31v.16h.68l.36.68v-.52l.15.15.52.16.16.16v.15l-.36.32v.16h-.16l-.16-.16-.15.31H361l-.67.68v.16l-.52-.16h-.16l-.15.16.15.16h.16V158l-.16.16-.36.68h.52l.15.16h.16v.62l-.52.16h-.31l-.73-.68.21,1.15.16.32-.16,2.14-1.92.16.73,1.31v.15L356,163h-1.24l.15.52-.15.16-.52,1-1.77-1-1.4-.32-.52-1.83h-1.25l-2.59,2.83-1,3.14.93,7.17h.16v.63l.88.31v.16l.21,1,1.4-.16.52.16.37.16.72.15-.36.84.52.16.52.16v.15h.15l.73,1.52.73,1.15.36.84v.31l.16.32V183h-.16v.16l-.88.15-.31,3.51,1.24,4.5h.73v-.16h.16l.36.16v.31h.31v.69l.16.52v-.32h.15l-.15.32V193h-.11v.31l-.15.52V194h-.16v.16l-.15.15h-.16l-.16.16v.32h-.25V195l-.16.16h.16l.15.16-.15.52.15.31v.16h-.15l.15.31h-.15v.32l-.68.52.16.53h-.16v.15h.16v.47l-.37.16v.47h-.15l-.37.32h-.52l.16.15-.16.16L352,200h-.52v.62h-.16l-.15.16v.16l.15.16-.15.31v.47l-.52.52h-.37l-.15.16H350v.16l-.73-.16h-.15l-.37.32-.36.31v.68H348l-.68.84-1.24-.84L344.55,205v.47h-.16L344,206h-.16v.15h-.15v.16h-.16v.16h-.15l-1.41,3v.16l-.15.52H341v.31l.16.16-.36.32-.16.15h-.88l.15.53v.15h-.36l-1.92.32v.15l-.16.16-1.4.52-.16.16-.36.16v.31h-.36l-.37.68-.15.16-.37.52h-.15l-.37,1-.36.15-.36.32h-.16l-.15.52-2.13,1.36-1.25.53h-.16l-.72.15-1.25.16v.16h-.73l-1.24.31-.16.16h-.16l-.15.16-.88.15h-.16l-.16.16h-.15l-.37.68h-.15l-.52.52v.16l-.36.16-.89.31-1,2-1.61-2.83,1.25-2.14-.36-2.67v-.16l.52-.84-6.34-.68-1-.31v.68l-1.92-.84-1.25.32-.88,1.36-7.22,1-1.61-4L295.93,211l.16-1.15-1.25.52-1-.52-.52-1.52-6.49-.31Z"/><path class="cls-13" d="M142.08,341.1l-6.18-2.7-.36-1.82.88-1.35-3-1.51-.16-1-5.14-.52-4.41-2-1.25-2,.21-1.35,2-2.71-2.49-2.18-2,.52-.89-3.17-2.13.84-2.13-.84-.52-1-.36-.68,1.25.83V317l1,.52,1.76-1.82,1.25.15.73-2.33,3.22-3.54-1.41-2-.15-.52-.16-2.86-1.25-1,4.32-9.2h-.89v-1.5l-1-1.35.52-.52-1.24-.68.15-.83,1.41-.16-1.41-.52-1-1.5L120,288v-1.35l-1.25.16,1.09-.68-.88-.83.21-1.14-.37-1.35h-1.24l.72-3.32-.72-.68,1.61-1-.52-.31,2.65.68.36-2.18,1.77.15,2.28-1.5,1.09-5.67,1.77-1.35,1.4.68.36-1.14h1.51l-.52-1.35.88-3,3.69.31.21-4.67,2.13-1.51,3.32,4.68h1.77l2.13-3.85,2.13.68,1.76,2.8,1.77.16,3-1.51.37-.31H155l6-.83.88-1.82,1.25.32h1v.15l1.92.31.36-.67.16-.52.36-2,.89-.52,1.92,2.5,6.91-1.51,1-.31-.16-1.14L179,251l.88.32.73-1.67,2.13-.52,1.4-2.8.73-.68.16-.15,1-1,.36-.52-1-.67-1.92-1.51.73-.31-.52-1.82,5.29,2.81v.67l5.67-2-1.25-2.65.88-1.82-.88-.52.73.31-.37-.83,3.53-1,.16-1.81,2.49-.16,4.42-.15,7.95,1.35-.89-1.82,2.29-.68,2.49,1.35-1.76,1.35.15.68,1-.31.16,1.66-3.17.16-.89,2.33,3.9,1.82.36.83h1.77l.88,1.66h.16l-1.4,2.65.36.83,1.4.16-1.24.67.51.84.52,2.18-1.24,1.81,2.65-1.35,2.49,1,1,1.66h1.4l.52,1.15h.16l-1.61,1.35,1,2.8,1.77.68-.36,1.66,1.76,1,.16-.84,1.76-.31-.72.16-.52,4.15-4.05-.67.52,1.82,3.68,2,1.25-1.14.52,2.34-.16,1.66L220.51,273,217,274.15l-5.66,3.69-2.65.15-5.14.16-3.74,2L198,282.3l1.77-2.18-1.4.83-1.4-.31-1.77,1.66-1.4,3.33h-.73L191.84,284l-1.92-.31-3,1.35-2.81-.15L179,287.5l-3.37,3.32-.37,1.35-2.85,1.66-3,3.17-5.14,8-3.38,2.18-.72,2.34-3.38,2,.52,1.82,2.29,2.18,3.53-.15v-.68l-3.9-1.19.37-.68,2-.15,1.61,1,4.26,5.51,2-.52,1.61,1-.72,3.17-3.38,2.7L161.72,328l-6.39,8.36-5.14,1.2-1.61-1.51-.16-1.19L150,335h0l.16-.83,1.24.31v.31l.16.16.52.16.36.15h.16l.15-.15v-.47h.37v-.31l.36-.83,4.26-.16L159.9,330l.36-1.2h-.52l-.15-.15h-.26l-10.49,1.66-5,5.71Z"/><path class="cls-14" d="M236,200.29v-.83l1.41.52-.37.67Zm-51.88,46.38-1.41,2.81-2.13.52-.72,1.66-.89-.31-1.4,2.49.16,1.14-1,.31-6.91,1.51-1.92-2.49-.88.52-.37,2-.15.52-.37.67-1.92-.31v-.15h-1l-1.24-.31L161,259l-6,.83h-.52l-.37.32-3,1.5-1.76-.15-1.77-2.81-2.13-.67-2.13,3.84h-1.77l-3.32-4.67-2.13,1.5-.21,4.68-3.68-.32-1.56-2.64.36-1.51-1.61-.83,2-2.65-.88-1.66-3.32-2.65,1.24-1.35,1.61-4.68-.88-.83-.15-2.34,3.37-.15,1.4-1,3.38-5.45-1.25-1.66-.15-3.8-1.92.84-4.21-.68-.16-2.34.89-1-2.45-3V222.1l3.38-3.79,1.25-2.65.67.83.37-2.65,5.66-.83.88-3.48,2.65-2.33,2.13.31.88-3.33,2.13.16V203l2.13-.83-1.25-1.3.73-2.49-.52-.68,1-.31-3.53-1.5v-.68l2.28-3,.89.83,1.61-3.32,1.24-.16.16,1.14.36-1.5.89-.31.52-1.51-.73-.31v-1.82l1.25-1-.16-1.5,2.49-4.63-.31-4.77,1.4-1-.88-.68v-2.13l.88-3.48,1.61-2.49.89-5.45,1.61-2.13-1.77-.52v-1l2.29-1.51-3.85-1.5,1.77-2-4.16-10,.73-1.14,1,.67,2.13-1.66-1.56-.83v-1.14l.36-.83,1.93-.32-.68-.83,2.13-6.23v-.68l-1.77-.31-3-.67-.88-3.79L155.69,120l-1.24-1.46h1.24l.52-1.45-1.56-4.78-1.55-.15,1.92-2.29-1.56-.83,1.92-1.82-.88-3.79,1.56-1-.16-.67,2.29-.68,5.4,2.6,1.56-.47,4.72,1.46,5.25,3.79,3-1.66,1.4,1.81h4.05l.89.68,2.28-.16.36-.67,4,3.43.37,2.8,2.44,2,5.24-2,1.56,1.3,5.61-1,2.44.47-.36,2,3,1.3-.16,2,1.93,1.14.52,3.27,1.76,2.13-1.24,2.29,1.4,1.29-1.4.84-1,2.44,2.44-.83,1.92,3.42L213.61,139l1.55,1,.16,3.42,1,.83,7.53.32.52-2.65,1.77.83.72-1.46,5.25-.31.88-3.79,1,1.14,1.77.32,1.55-1.46.37,1.3-.52.47.73,4.78,3,1.14,1.92-.16,1,1.3-.68,4.1.73.84,1.56-1.3,2.13,1.3-1.56,1.5.52,4.94-.88.52h-2.13l-1.93,1-3.16.16-.37.67-1.4-.52-3.69.68,1.56.52.36,1.3-.72.83,1.55,1.66-.36,1-1.56.67.37,1.82,1.76,1.66.89-.67,1.55.67-.15.52v1l.15,1.3-.72.31-1.77,1-.73,2.12.73.52-.16,1.82,1.41,1.14-.52,1-1.92-.31-1.41,3.12-.36,1.29.73.52.36-1,1.25,2.13-1.92.83-.52,1.66-.16-1.82H232l-.72,2.13.52.83.51-1.14v1.14l1.93-.15.88,1v-3.11l1.77,1.66-.37.83.16.83L234,192.13l-1-.67.52-1-1.92.52-.16,3.33-.52.51.89,1.3h-1l-4.21,4.16-.73-.52-.73,1.3,1.25.67,1.25-1.14,1.4.31.36.83.73,3-1.61.68v2l-1.76,1.3.88,1.66-.52,1.15-1.4-.52-1,.52v.83l-1-.16-.16,1.51-1.24.52v-1.35l-.52-.16-.89-.52-.15-.15v-.16l-.16-.16-.15-1.3H218.9l-.52,1.82V212l-.72.15v-3l-.89.16h-.83l-1.92-.31-.73.67-1,5.14,1.61,1.35-3.17,2.65,1.24.16-.36,1,.73,1,1.61.16-.73,1,1.92,2.64V225H216v.68l-1.61,1.14-2.81-.68-2.65,2.13,3.69,1.51-1.25,2.49.89,1.82-7.95-1.35-4.42.16-2.49.15-.16,1.82-3.53,1,.37.83-.73-.31.88.51-.88,1.82,1.25,2.65-5.67,2v-.68l-5.29-2.8.52,1.81-.73.31,1.92,1.51,1,.68-.36.52-1,1-.16.16Zm50.59-69.18-1.56-.32-2.13.16,2.13,1h1.56Z"/><path class="cls-15" d="M233.19,177.12l1.56.31v.84h-1.56l-2.13-1Zm-2.08,94.33.16-1.67-.52-2.33-1.25,1.14-3.69-2-.52-1.82,4.05.67.52-4.15.73-.16-1.77.31-.15.84-1.77-1,.37-1.66L225.5,259l-1-2.8,1.61-1.35h-.26l-.52-1.15h-1.4l-1-1.66-2.49-1-2.65,1.35,1.25-1.81-.52-2.18-.52-.84,1.24-.67-1.4-.16-.36-.83,1.4-2.65h-.16l-.88-1.66h-1.82l-.36-.83-3.9-1.82.89-2.34,3.17-.15-.16-1.66-1,.31-.15-.68,1.76-1.35-2.49-1.35-2.29.68,1.25-2.5-3.69-1.5,2.65-2.13,2.81.67,1.61-1.14v-.67h-.89V225l-1.92-2.65.73-1-1.61-.15-.73-1,.36-1L210.7,219l3.17-2.65L212.26,215l1-5.14.73-.68,1.92.31h.73l.88-.15v3l.73-.16v.16l.52-1.82h1.4l.16,1.3.15.16v.15l.16.16.88.52.52.15v1.35l1.25-.52.15-1.5,1,.15v-.83l1-.52,1.4.52.52-1.14-.88-1.66,1.77-1.3v-2l1.61-.67-.73-3-.36-.83-1.41-.31-1.24,1.14-1.25-.68.73-1.3.73.52,4.2-4.15h1l-.88-1.3.52-.52.15-3.32,1.93-.52-.52,1,1,.68,2.65-1.66-.15-.83.36-.83L235,187.3v3.12l-.89-1-1.92.16v-1.14l-.52,1.14-.52-.83.73-2.13h.73l.15,1.82.52-1.67,1.92-.83L234,183.82l-.37,1-.72-.52.36-1.3,1.4-3.11,1.92.31.52-1-1.4-1.14.16-1.82-.73-.52.73-2.13,1.76-1,.73-.31-.16-1.3v-1l.16-.52-1.56-.68-.88.68-1.77-1.66-.36-1.82,1.56-.68.36-1-1.56-1.67.73-.83-.36-1.3-1.56-.52,3.69-.67,1.4.52.36-.68,3.17-.15,1.92-1h2.13l.88-.52,4.73-1.82,3,.83.16.68.73-.68,2.44,1.82,2.65-1.3,4.05,2L263,160.19v.16l-1.4,2v.16l-.52.52-.16,1.14v.15l-.67,1,.88,1.51,1.4-.68v.16l.37,2.65.88.15-.16,1.51-2.28.15-.88,1.3-1.25.16-.73-1,.68-1.14-.52-.83.73-.16L256,168.4l.16,2.13,1.92-.32,1,2.81v.52l2.13-.31.52,1,1.76.68,2.44-.83.73,2,2.13,1,1.25-1.66,3.32-.31.37,1.14,1.24-.83.37-.83h.15l.16-.16.52-.16,1-.15,1.4.67,1.4-.52v.16l.52.16,1.25.83.52,1v.16l-.52,1.82,1.76-1.15h.16l1.92-.67h.88v.16l1.4.31.37,1.14h1.56l-.37,1.14,1,2,1.61,1.14,1.77-1.3.88-.16,1.4.16.37.83h.15v-.15h.16l.73,1-1.25.68,1.77,2.13-.68,1,.36,2-2.44.83,1.61,1-1,1.5-3.16-.31-.37.83,1,1-.16,1.3,1.61.15.16.16,1.25.83.21,1.51-2.81,2.49-1,.15v-.15l-1.92-.31L289,201.59l-.72.15-.52-1.14-2.44-.52-.89.83.37,2.49,1.76,5.15,6.5.31.51,1.5,1,.52,1.25-.52-.16,1.15,3.69,1.82,1.61,4,7.22-1,.88-1.35,1.25-.31,1.92.83v-.68l1,.31,6.34.68-.52.83v.16l.36,2.64-1.24,2.13,1.61,2.81v.15l-10.76,4.63H309l-13.4,6L287.83,241l-8.1,3.17-6.5,10.28-.52.68.89-2.81-1.25,2.81-1.61.67-.26,1.87,1-1.35-.52,2.18-2.8,3.33L261,264.28l-6.7.15-6.55,3-3.38-.16-1.92,1.35ZM236,200.29l1,.31.37-.68-1.41-.51Zm24.42-23.63.88-.32-.73-.83-1.4.68-.16.52v.15l.37,1.15.88-.16Z"/></g><polyline class="cls-16" points="323.63 91.02 323.63 97.56 272.27 97.56 272.27 91.02"/><g class="cls-17"><text class="cls-18" transform="translate(229.72 97.73)">% d’ocupació:</text><text class="cls-19" transform="translate(265.52 97.73)"><tspan xml:space="preserve">  </tspan></text></g><text class="cls-18" transform="translate(267.61 104.67)">menys</text><text class="cls-18" transform="translate(317.73 104.67)">més</text><polyline class="cls-13" points="278.37 239.6 278.42 239.5 278.47 239.4"/><path class="cls-13" d="M275.27,243.37h0l.05-.05h0v-.1h.15v-.05l0,0,.05-.05h0v0h0v-.2h-.2l-.05-.06h0l-.05-.2h0l.05-.05.1-.1.1-.1.1-.15v-.1l-.05-.15v-.1h.15l.25-.15,0,0,.05-.05v-.1l.05-.1h.1l.1,0,.1,0,.05-.05.1-.05h.2l.1.05.15.05.1,0h.25l.1.05h.3v.2h.05v.1h0v.05h0v.05h0l1,1.41v0l.05.1.1.15.1.2.05.1.1.1.1.15.1.2h-.1l-.05.05h0l-.05,0h-.05l-.05.05h0v.05l-.1.1v0h0v.05h0l-.05.05h0l-.05,0v.1l-.05.05-.05.05v.15h0v.15l0,.05v.1h0v.05h0v0h0l-.05.1v.1h0v0h0v.05h-.05v0h0V246h0V246h0v0h0v.05h0l.1-.45-.2,0,0,.1-.05.15.2,0V246l-.2-.05V246h.05v.1l.1.05V246h0l-.05.1h0l0,0h0l0,0h0l.1,0h0l-.05,0h0v.1h0v.15h0v0h0v.05h0v.05h0v0h0v.3h0v0h0l.05.05h0l-.05-.05h0V247h0V247h0v.15h.05v0h0l-.2.4-.1.2h0l.1-.2.15-.35h0l-.2.1.05.1h0l-.05-.05-.1.05h0l0-.05-.1-.2h0l-.05.1v.05h0v0h0l-.05.05.05,0,.05-.1h.1l.05.05h0l.1.1h0l-.05.15h0v-.05h-.05l-.05.05h0l-.05,0h0v.1h0v0h0v.05h0l-.05,0h0l-.05,0v0l.05.05h0l.05.05h-.05l-.05,0h0l-.05.05h0l0-.05-.05.05.05,0h0l0,.05h0l-.15-.15h0l-.1.05h0l0,.1v.05h0l.1.1h0l-.1-.1h0l-.05,0v.1l-.05.05-.05.1h0l.1.1h0l-.05,0-.05-.05h-.05l0,.05-.05,0-.05.05-.05.05-.05,0v.1l.1.1h0l-.05-.05h0l.05.05h0l-.1-.1h0l-.05.05-.05.05-.05,0-.05.05,0,0-.05.05v.05l.1.1h0l-.1-.1h0l.1.1h0l-.1-.1h-.05l-.05,0-.05.05h0v.15h0l.1.1h0l-.05,0,.05.05v.05l-.05,0-.05.05,0,0-.05.05-.05.05h-.1l.05-.05.05-.05h0l.05,0-.05-.05-.1.1h0l0,.05-.05-.05.15-.15-.1-.1-.15.15h0l.1.1h0V250h0l-.05.05h-.05l-.05-.05V250h0v0h-.1l-.05.05h0v0h0v.15h0l.1.05h0l-.1-.05h0v.05h0l.1,0h0l-.15,0h0l-.05,0,0,.05h0l-.05.1v.1h0v.1h0l-.05,0-.05.05-.05.1,0,.15v.2h0v.15h0v.05h0l.05-.05h0l-.3.66h0v.05h0v0h0l-.1.4h0l.1-.35h0l.05-.15h.05l.15-.3h0l-.1-.06h0v.06h0V252h0V252l-.05.05h0V252h0V252h0v0h0v0l.1-.15v-.16h0v-.15h-.1v.15h-.05v0h-.05v-.2h0v0h0l.2,0v0h-.1v-.15h.1v-.1h-.1l.05-.15-.05-.05-.05.05v.2h-.05l.05-.25h0l.1,0h0v-.15h0l-.05-.2h0v-.05l-.1-.05h-.1l.1.35h0l-.15.25h0l-.1-.05v-.05l.15-.2h0l-.05-.2h0l-.35.55h0l.35.2h0l-.05.1h0l-.35-.2h0v.25h0v.05h0v.2h0v.05l.25.11h0l0,0h0l-.1.2h-.05V252l-.25-.1-.2.35h.05l.25.1-.1.2-.35-.15-.1.15.25.2-.45.95-.25-.15h-.1l-.7.5-.05,0h-.05V254H273v-.1h0v0h-.05v0h0v0h-.05l-.1,1h-.3l-.1.15.15.05.1.05-.1.25h0v0l.2.1h0l0,0h0v-.05h0v0h0v-.05h0v-.05h0v0h0v-.05h0v0h0V255h0V255h0v0h0v-.05h0l.05,0h0v-.05h0l.05-.05h0l.15.05h0v.05h0l.15,0h0v.05h0v0h.05v0h0v0h-.05l-.05.1h0v.1h-.05v.2h0v.05h0v0h0v.05h0v.05h0v0h0v.05h0v0l-.05.05v.15h0v0h0v0h0v0h-.35v0h0v.4h0v.05h0l-.05.15h-1.91l-.15-.05-.15-.05-.15,0-.1-.05-.1-.05-.1-.05-.1-.05-.05,0h-.05l-.05-.05-.1-.05-.05-.05-.1-.2-.1-.15-.05-.1h0v0l-1.95,1.85-.1-.1-.05-.05,0,0-.05-.05-.05-.05h0l-.1-.05h0V257h0v-.15h-.1l-.1-.05h-.2l.25-.25h0l-.2-.1-.3-.2.05,0,.1-.1.05-.05.25-.15.35-.2-.2-.45v-.05l-.1-.15-.05-.1h-.05l0-.1-.05,0-.05-.05h0l-.05-.1-.05-.1v-.05l-.15-.1-.05-.05v-.2l.1-.2h.2l.1.05v.1l.1.05.35-.15-.05-.15.2-.4v0l-.1-.2.15,0,.05-.05v0h0l.1-.1h0v0l0-.15,0-.1-.15-.15.1-.1v-.21l-.1-.1v-.05l.05,0-.05-.05-.05-.05-.05,0,0-.1v-.25l-.05-.05-.05-.05v-.2l.05-.1.05-.05.1-.15.05-.1.05,0,.05-.05,0-.1v-.1l.05-.1.05-.1v-.1l-.05-.05h-.1V250l-.05-.05-.05,0-.1-.05-.1,0h-.05v0l-.05.05h-.5l-.15-.05-.05,0h-.2l-.05,0V250L266,250l-.15.1-.05,0-.05.1-.05,0,0,.05-.05,0-.05.05h-.15l-.15-.05h-.15l-.1-.2-.1-.15v0h.1v-.15l.05-.1.05-.05.05-.05.1.05h.3l.05-.05.05,0v-.05l0-.1v-.05h.05v0l-.05-.05v0l-.1-.05v-.05l-.05,0,.05-.05h-.05v0h0v-.1l-.05-.1v-.1l-.05-.05h.2l0,0h.1v-.15l-.05.05-.2-.1h-.35v-.15l.05-.1h.1l.05,0h0l0-.05,0,0-.1-.1h-.15l-.05-.15v-.05l-.05-.05-.05,0v-.2l.05,0h.15v.1h.15v.2h0l.1.05.1.05h.15v.1h0v-.1h.05l.05,0v.05l.05,0V248h.1l.1.05h.05l.2,0h.1l0-.1h.1v-.05l.05,0,.05-.05,0-.1.05-.05v0h.05l.05,0,.05.05h0l.05.05v.1l.05.1h.15l.05.05.05,0v.05h.9l.1,0,.05.05.05.05.15.1h.15l.05-.05.05-.1v-.1l.05-.05.05,0,.15-.15.1-.1,0-.1.05-.1.05-.1v-.25l.05-.1v-.25l-.05-.15v-.1l.1-.05.15-.1v-.1l.05-.05.05,0,0-.05h.3l.1.05h.25l.11-.05h.2l.05.05,0,0h.35l.05,0,.05-.1,0,0,.05-.05h.25l.1,0h.15l.05,0,.05.05h.1V246l.05-.05h.05v-.05l-.05-.1v-.2l.05-.05.05-.1-.05-.05v0h0l.05-.1.05-.1,0,0,.15-.1h.1l.05-.05h.05l.05-.05h.05l0,0,.05-.05.05,0,.1-.05h.15l.05-.05h.25l-.05,0v-.05h-.05l-.05,0v-.15l.05,0h.1l.25,0h.05l.1,0,.05,0,.15-.3.05.05h.1l.05-.05,0,0,.05-.05.15-.05h.15l.2-.1.05.05.45.25h.25ZM263.61,247h0l.1.1.05.05h.15v.25l0,0,.05.05h.2l.05.05v.1l-.05.1v.05h0l.2.15v.3l0,.1v.2l0,0h-.1l-.15.05H264l.05,0v.2L264,249l-.05,0-.15.05h-.2v.15l-.05,0h-.2l-.05,0-.05-.1V249l.15-.15,0-.1v-.4l0-.15v0l-.05-.05-.05,0-.05-.05-.1-.05h0l0,0,.15-.1.1-.05.05-.05v-.15l.05-.15v-.2l-.05-.15v-.3h0Zm1.1,1.8h0l.1.1-.05,0-.05.05,0,.05-.05,0v.1l-.05.05-.05.05-.05,0h0v0l0-.1V249h0l.1-.05.05,0h.1Zm11.81.9h0v-.1h0v0h0v.15l.05,0h0l-.05,0Zm0,0h0v.05h0v-.05Zm0,.05h0v.05h0v-.05Zm-.3.35.05,0h0v0h-.05v.05h0v-.05Zm-2.2,2.86h0l0-.1h0Zm-1.75,3.8h0v-.15h0v-.4h0l-.05-.05h0l.05-.4h-.05v0h.05l.75-1.55h0v0h0v0h0v.15h0v.05h0v.15h0v.05l0,.05v.1h0v0h0l-.05.05h0v.15h0v.1h0v.15h0v.2h0v.05h0v0h0v.05h0v.05h0v.1h0v0h0v.05h0v.05h0v0h0v.05h0v.1h0v.15h0v.05h0v.15h0v.05h0v.05h0v0h0v.05h0v.05h0v.15h0v.05h0v.1h0v.15h0v.15h0v.1h0v.05h0v-.1l-.05-.15-.05-.15-.05-.25,0-.1-.05-.1h0l.1-.45.05-.3h-.1v.05h0v-.1h0v-.25l-.55,1.25Zm-1.3-.05Z"/><text class="cls-20" transform="translate(36.15 143.06)">LLEIDA</text><text class="cls-21" transform="translate(36.15 153.07)">VARIACIÓ INT. 2020</text><text class="cls-19" transform="translate(104.95 153.07)">|2019</text><text class="cls-20" transform="translate(370.38 154.67)">GIRONA</text><text class="cls-21" transform="translate(370.38 163.85)">VARIACIÓ INT. 2020</text><text class="cls-19" transform="translate(440.18 163.85)">|2019</text><text class="cls-20" transform="translate(267.74 276.65)">ENTORN DE BARCELONA</text><text class="cls-21" transform="translate(267.74 285.58)">VARIACIÓ INT. 2020</text><text class="cls-19" transform="translate(337.54 285.58)">|2019</text><text class="cls-22" transform="translate(36.59 167.04)">Ocupació:<tspan x="0" y="8.4">16,2% (-0,7 pp) </tspan><tspan class="cls-23" x="50.62" y="8.4">|</tspan><tspan x="54.4" y="8.4"> </tspan><tspan class="cls-23" x="56.22" y="8.4">+3,6 pp</tspan><tspan x="0" y="25.2">Viatgers: </tspan><tspan x="0" y="33.6">74.345 (+51,3%)</tspan><tspan class="cls-23" x="52.04" y="33.6">|</tspan><tspan x="55.83" y="33.6"> </tspan><tspan class="cls-23" x="57.65" y="33.6">-5,1%</tspan><tspan x="0" y="42"> </tspan><tspan x="0" y="50.4">Pernoctacions:</tspan><tspan x="0" y="58.8" xml:space="preserve"> 215.294 (+32,4%) </tspan><tspan class="cls-23" x="59.67" y="58.8">|+17,7%</tspan></text><text class="cls-22" transform="translate(370.45 176.33)">Ocupació: 21,0% (-0,2 pp)<tspan class="cls-23" x="84.08" y="0">|-1,7 pp</tspan><tspan x="0" y="13">Viatgers: 167.096 (+38,8%) </tspan><tspan class="cls-23" x="89.07" y="13">|-18,3%</tspan><tspan x="0" y="26">Pernoctacions: 451.032 (+29,3%) </tspan><tspan class="cls-23" x="109.5" y="26">|-16,1%</tspan></text><text class="cls-22" transform="translate(268.6 298.26)">Ocupació: 20,5% (+2,1 pp) <tspan class="cls-23" x="87.64" y="0">| -1,3 pp</tspan><tspan x="0" y="13">Viatgers: 120.765 (+57,5%)</tspan><tspan class="cls-23" x="87.25" y="13">|</tspan><tspan x="91.04" y="13"> </tspan><tspan class="cls-24" x="92.86" y="13">-28,5%</tspan><tspan x="0" y="26">Pernoctacions: 321.288 (+48,2%) </tspan><tspan class="cls-23" x="109.5" y="26">| -22,1%</tspan></text></svg>