<svg id="Capa_1" data-name="Capa 1" xmlns="http://www.w3.org/2000/svg" xmlns:xlink="http://www.w3.org/1999/xlink" viewBox="0 0 600 383"><defs><style>.cls-1,.cls-9{fill:#fff;}.cls-2{font-size:6.35px;fill:#8d8d8d;font-family:OpenSans-Regular, Open Sans;}.cls-3{fill:#e3f1f3;}.cls-4{fill:#e0f3f4;}.cls-5{fill:#e5f8f8;}.cls-6{fill:#e9f9f9;}.cls-7{fill:#cbf4f4;}.cls-8{font-size:13.48px;}.cls-10,.cls-11,.cls-8{fill:#1c3761;}.cls-22,.cls-23,.cls-8{font-family:OpenSans-Bold, Open Sans;font-weight:700;}.cls-9{stroke:#82b0d9;stroke-width:1.06px;stroke-dasharray:1.06 1.06 1.06 1.06 1.06 1.06;}.cls-10{font-size:9.63px;}.cls-10,.cls-11,.cls-20,.cls-21,.cls-26,.cls-27,.cls-28{font-family:OpenSans-Light, Open Sans;font-weight:300;}.cls-11,.cls-12,.cls-21,.cls-23,.cls-24,.cls-25,.cls-26{font-size:7px;}.cls-12,.cls-19,.cls-20,.cls-21,.cls-22,.cls-23,.cls-24{isolation:isolate;}.cls-12{fill:#6685a3;}.cls-12,.cls-24,.cls-25{font-family:OpenSans-SemiBold, Open Sans;font-weight:600;}.cls-13{fill:#2f7192;}.cls-13,.cls-14,.cls-15,.cls-16,.cls-17,.cls-18{stroke:#fff;}.cls-13,.cls-14,.cls-15,.cls-16{stroke-width:0.31px;}.cls-14{fill:#7bd8db;}.cls-15{fill:#2c6e90;}.cls-16{fill:#83e2e2;}.cls-17,.cls-20,.cls-21,.cls-22,.cls-23,.cls-24,.cls-25,.cls-26{fill:#036;}.cls-17{stroke-width:0.26px;}.cls-18{stroke-width:0.15px;fill:url(#Degradado_sin_nombre_2);}.cls-20{font-size:6px;}.cls-22{font-size:10px;}.cls-28{letter-spacing:0em;}</style><linearGradient id="Degradado_sin_nombre_2" x1="297.64" y1="2606.27" x2="349" y2="2606.27" gradientTransform="matrix(1, 0, 0, -1, 0, 2706)" gradientUnits="userSpaceOnUse"><stop offset="0" stop-color="#83e2e2"/><stop offset="0.96" stop-color="#036"/><stop offset="1"/></linearGradient></defs><rect class="cls-1" x="-7" y="-8" width="626" height="405"/><text class="cls-2" transform="translate(255.47 374)">Font: Elaboració pròpia del LABturisme, en base a dades de l&apos;Enquesta d&apos;ocupació en allotjaments de l&apos;INE</text><path class="cls-3" d="M232.68,215c.77.88.16,1-.55,1.05C231.63,215.42,232.62,215.42,232.68,215Z"/><path class="cls-4" d="M256.15,262.48c0-.49-.27-1,.28-1.32.27.17.5-.88.72,0,.05.28.6.88-.22.88C256.48,261.93,256.43,262.32,256.15,262.48Z"/><path class="cls-5" d="M314,160.09a1,1,0,0,0,0-.38c.44-.94,1.21-.55,1.93-.66C315.39,159.71,314.46,159.43,314,160.09Z"/><path class="cls-6" d="M319,159c.49.28.55.77.66,1.21C318.81,160.26,318.7,159.71,319,159Z"/><path class="cls-7" d="M311.41,157.29v-.39c.5.22,1.16-.27,1.54.39Z"/><text class="cls-8" transform="translate(227.82 30.04)">Establiments hotelers</text><polyline class="cls-9" points="310.92 253.69 310.92 302 379 302"/><text class="cls-10" transform="translate(34.43 43.01)">La demanda en hotels ha crescut un 70% respecte el 2020. Màlaga lidera el rànquing de volum de viatgers i pernoctacions <tspan x="54.46" y="11.56">a Espanya, i Girona és líder a Catalunya. Els hotels de l’Entorn de Barcelona, tot i créixer un +72%, </tspan><tspan x="72.36" y="23.12">perden una posició en favor de Tarragona, que és la província amb el creixement més alt.</tspan></text><text class="cls-11" transform="translate(218.93 84.61)">Entre parèntesi, variació iteranual respecte l’any 2020 i 2019</text><text class="cls-12" transform="translate(179.58 194.34)"> </text><g id="regions-layer"><path class="cls-13" d="M292.5,176.44v-.15l.15-.51,1.4-.66.7.81-.85.31-.15,1.16-.85.16ZM290,139.81l.5-1.32h1.06l.5.81-.85,1.62,2.05,2.14-4.16-.51.15-2.64ZM391.5,159.09l-.15-.15.15-.16h.15v.31ZM386.2,184l-.15-.15-.15-.16v-.15l.5-.15Zm-68.43,19-.35-2.49L318,198l3,1h1l1-1,1-1,1,1,2-1,1-1,1.09-.53-1.21-.82-.15-.15-1.55-.15.15-1.32-1.05-1L326,190h2l1-1-2-1,2-1,1.29-.67L330,185l-.76-1.76L328,183l1.74-1.39h-.15v.16h-.15l-.35-.82-1.41-.15-.85.15-1.7,1.32-1.55-1.16-1.05-2,.35-1.17h-1.55l-.35-1.17-1.4-.3v-.15h-.86l-1.9.66h-.15l-1.7,1.16.5-1.82v-.15l-.5-1-1.2-.81-.5-.15v-.15l-1.4.5-1.4-.66-1.06.16-.5.15-.15.15h-.15l-.35.81-1.2.81-.35-1.16-3.25.3-1.2,1.62-2.05-1-.71-2-2.4.81-1.7-.66-.5-1-2,.3v-.5l-1.05-2.79-1.91.3-.2-2.13,3.26.66-.7.15.5.81-.7,1.17.7,1,1.2-.15.85-1.32,2.25-.15.15-1.47-.85-.15-.35-2.64v-.15l-1.4.66-.85-1.47.7-1V164l.15-1.17.5-.51v-.15l1.35-2v-.15l1.2-1.17-3.95-2-2.6,1.32-2.41-1.78-.7.66-.15-.66-2.95-.81-4.66,1.77-.5-4.92,1.56-1.47-2.06-1.32L277.68,151l-.7-.81.7-4.11-1.05-1.32-1.9.15-2.91-1.16-.7-4.72.5-.51,7.21.51,5,3.9,2.4.16,1.2-.82.35,2.64,1.4.51.35,4.26,1.91,2.28,2.05,1.17,1.2-1,4.15-.51.5-1.32,1.71-.66v-1.32l1.7-2.13,1.35-.66,3.95.51,3.81-2.13,3.1,1.62,1.2-.66,4.16,2.79,5.15.81.2,2,1.4.31,1.91,2.94,1.7-.15,1.7,1h1.4l.85-2.13,1.35-.3,7.61,1.77.5-1.47-1.05-.81L342.2,149h1.55l.35-1.77,5.16-2,2.6,1.32,1.7-.82,1.2-2,.85.15,1-2.13,1.55.5.5-1.32,1.4.82,2.9.15.5-1.62,1.35-.66,1.41,1.47,2.25-.81,1.4.81,2.05-.81,1.2,2.79,2.26,2.13,2.75-1.17,3.95.15-.15.31-.85.3.5.31.15.15v.61l-.15.3h-.15v.31h-.15l-.5.65.7.31v.15l-.15.15h-.15l-.5.66h.15v.16h.85v.15l-.85,1,.2.51h.15l.5.3V151h-.15l-.15.15.15.15.5.66.35.16.15.15h.35l.35.3-.15.51.35.3.15.31.7.3.35-1.32.51.16.35-.31h1.35l.35.51v.51h.15v.15l.7.66.7-.31h.15v-.45l.7.15.5.15h.15v.31l.35.15h.15l.85.3v.16h.65l.35.65v-.5l.15.15.5.15.15.15v.16l-.35.3V156h-.15l-.15-.15-.15.31h-.15l-.7.65V157l-.5-.16h-.15L391,157l.15.15h.15v.3l-.15.16-.35.66h.5l.15.15h.15V159l-.5.15h-.3l-.7-.66.2,1.17.15.3-.15,2.13-1.9.15.7,1.32v.15l-1.55-1.31h-1.2l.2.5-.15.16-.5,1-1.76-1-1.4-.31-.55-1.77h-1.2l-2.55,2.79-1,3.09.9,7.05h.15v.61l.85.31V175l.2,1,1.4-.15.5.15.35.15.7.16-.35.81.5.15.5.15v.15h.15l.7,1.48.7,1.16.36.81v.31l.15.3V182H385v.15l-.86.15-.3,3.45,1.26,4.42h.7V190H386l.35.15v.3h.3v.66l.2.51v-.3H387l-.15.3v.15h-.15v.31l-.15.5v.16h-.1v.15l-.15.15h-.15l-.15.15v.31h-.15v.15l-.15.15h.15l.15.15-.15.51.15.31V195h-.15l.15.3h-.15v.31l-.7.5.2.51h-.15v.15h.15v.46l-.35.15v.46h-.15l-.36.3h-.55l.15.16-.15.15-.15.15h-.5v.61h-.15l-.15.15v.15l.15.16-.15.3v.46l-.5.5h-.3l-.15.16h-.15v.15l-.7-.15H381l-.35.3-.35.31v.65H380l-.7.82-1.2-.82-1.55,1.17v.46h-.15l-.35.51h-.15v.15h-.15v.15h-.15v.15h-.15l-1.36,2.94V208l-.15.5h-.85v.31l.15.15-.35.31-.15.15h-.85l.2.5v.16h-.35l-1.9.3v.15l-.15.16-1.4.5-.15.16-.35.15v.3h-.35l-.35.66-.15.15-.35.51h-.15l-.35,1-.36.15-.35.3h-.15l-.15.51L363,216.37l-1.2.51h-.15l-.7.15-1.2.15v.15h-.7l-1.2.31-.15.15h-.15l-.15.15-.85.15h-.71l-.15.16h-.15l-.35.66h-.15l-.5.5v.15l-.35.16-.85.3L352,223l-2-3,2-2.92-.35-2.64v-.15L351,214h-9l-1,1-8,1-1-4-4-1v-1h0l-2-1v-1h-7Z"/><path class="cls-14" d="M177.87,337l-6.05-2.65-.35-1.8.85-1.31-2.95-1.5-.15-1-5.06-.5-4.35-1.95-1.21-2,.2-1.3,1.91-2.61-2.41-2.15-1.9.5-.85-3.1-2.1.8-2.1-.8-.5-1-.35-.65,1.2.8v-1.46l1.05.51,1.75-1.81,1.2.15.7-2.3,3.16-3.45-1.41-2L158,304l-.15-2.8-1.2-1,4.21-9H160v-1.45l-1.06-1.3.51-.5-1.21-.65.2-.8,1.41-.15-1.41-.5-1-1.46-1.2.65v-1.3l-1.2.15,1.05-.65-.85-.8.2-1.15-.35-1.3h-1.2l.7-3.25-.7-.65,1.55-1-.5-.35,2.6.65.35-2.1,1.76.15,2.25-1.45,1-5.56,1.75-1.3,1.4.65.35-1.15h1.4l-.5-1.3.9-2.95,3.66.35.2-4.56,2.1-1.45,3.25,4.56h1.76l2.1-3.76,2.05.65,1.7,2.76,1.75.15,3-1.45.35-.35h.5l5.9-.81.86-1.8,1.2.35h1v.15l1.9.35.35-.65.15-.5.35-2,.85-.5,1.9,2.45,6.76-1.45,1.05-.35-.15-1.15,1.4-2.45.85.35.71-1.66,2.1-.5,1.4-2.75.7-.65.15-.15,1-1,.35-.5-1-.65-1.9-1.45.7-.35-.5-1.81,5.2,2.76v.65l5.56-1.95-1.2-2.61.85-1.8-.85-.5.7.35-.35-.8,3.45-1,.2-1.8,2.41-.15,4.3-.15,7.76,1.3-.85-1.8,2.25-.65,2.4,1.3-1.75,1.3.15.65,1-.3.15,1.65-3.1.15-.85,2.3,3.8,1.81.35.8h1.75l.85,1.65h.15l-1.4,2.6.35.8,1.41.15-1.21.65.5.8.51,2.11-1.21,1.8,2.61-1.3,2.4,1,1.05,1.65h1.4l.5,1.15h.15l-1.55,1.3,1.05,2.75,1.75.66-.35,1.65,1.76,1,.15-.8,1.75-.35-.7.15-.5,4.05-4-.65.5,1.8,3.66,1.95,1.2-1.15.5,2.31-.15,1.65L255,270.53l-3.46,1.15-5.55,3.6-2.61.15-5,.15-3.65,2-1.76,2.1,1.76-2.1-1.41.8-1.4-.35-1.75,1.65-1.4,3.25h-.85l-1.2-1.65-1.91-.35-3,1.3-2.75-.15-5.06,2.6-3.3,3.26-.35,1.3-2.8,1.65-3,3.1-5,7.86L196.24,304l-.7,2.31-3.3,2,.5,1.8,2.25,2.15,3.46-.15v-.65l-3.81-1.15.35-.65,1.91-.15,1.55,1,4.15,5.41,1.9-.5,1.55,1-.7,3.1-3.3,2.6L197,324.49l-6.31,8.21-5.06,1.15-1.55-1.5-.15-1.16,1.55.15h0l.2-.8,1.2.35v.3l.15.15.51.15.35.15H188l.15-.15V331h.35v-.3l.35-.8,4.15-.15,2.1-3.3.35-1.15H195l-.15-.15h-.15l-10.26,1.65-4.9,5.61Z"/><path class="cls-15" d="M270,199v-.8l1.4.5-.35.65Zm-50.85,45.5-1.4,2.75-2.1.51-.71,1.65-.85-.35-1.4,2.45.15,1.15-1.05.35L205,254.41,203.1,252l-.85.5-.35,1.95-.15.5-.35.65-1.9-.35v-.15h-1l-1.2-.35-.86,1.8-5.9.81H190l-.35.35-3,1.45L185,259l-1.7-2.76-2.05-.65-2.1,3.76h-1.76l-3.25-4.56-2.1,1.45-.2,4.56-3.66-.35-1.55-2.6.35-1.46-1.55-.8,1.9-2.6-.85-1.65-3.25-2.6,1.2-1.31,1.6-4.55-.85-.8-.15-2.3,3.3-.15,1.41-1,3.3-5.36-1.2-1.6-.15-3.76-1.9.8-4.16-.65-.15-2.25.85-.95-2.4-2.9v-1.6l3.3-3.76,1.2-2.6.71.8.35-2.6,5.55-.8.9-3.41,2.61-2.25,2.05.3.9-3.25,2.05.15v-1.3l2.05-.8-1.2-1.31.7-2.45-.5-.65,1-.3-3.45-1.45V194l2.25-2.91.85.81,1.55-3.26,1.21-.15.15,1.15.35-1.45.85-.3.5-1.45-.7-.3v-1.8l1.2-1-.15-1.45,2.45-4.56-.35-4.7,1.4-1-.85-.65V169l.85-3.4,1.55-2.4.9-5.31,1.56-2.1-1.71-.5v-.95l2.26-1.46-3.81-1.45,1.75-2-4.1-9.86.7-1.15,1,.65,2.05-1.6-1.55-.8v-1.15l.35-.81,1.9-.3-.7-.8,2.11-6.1v-.65l-1.71-.3-2.9-.65-.85-3.71L191,120.47l-1.2-1.45H191l.5-1.45L190,112.91l-1.55-.15,1.9-2.25-1.55-.8,1.9-1.75-.85-3.71,1.55-1-.15-.65,2.25-.65,5.31,2.55,1.55-.5L205,105.5l5.16,3.71,2.9-1.6,1.35,1.75h4l.85.65,2.25-.15.35-.65,4,3.35.35,2.75,2.4,2,5.15-2,1.56,1.31,5.5-1,2.4.51-.35,2,2.91,1.3-.15,2,1.9,1.1.5,3.21,1.7,2.1-1.2,2.25,1.35,1.3-1.35.8-1,2.4,2.4-.8,1.9,3.41-3.8,2.25,1.55,1,.15,3.4,1.05.81,7.41.3.5-2.61,1.7.8.7-1.45,5.16-.3.85-3.7,1,1.15,1.7.3,1.55-1.45.35,1.3-.5.5.7,4.65,2.91,1.16,1.9-.15,1.05,1.3-.7,4.05.7.8,1.55-1.3,2.06,1.3-1.56,1.45.5,4.86-.85.5h-2.05l-1.9,1-3.1.15-.35.65-1.41-.5-3.6.65,1.55.5.35,1.3-.7.8,1.55,1.61-.35.95-1.55.65.35,1.8,1.7,1.6.85-.65,1.56.65-.15.5v.95l.15,1.3-.71.3-1.7,1-.7,2.1.7.5-.15,1.8,1.4,1.15-.5.95-1.9-.3-1.4,3.06-.35,1.3.7.5.35-.95,1.2,2.1-1.9.8-.5,1.6-.15-1.8H266l-.7,2.1.5.8.5-1.15v1.15l1.9-.15.85.95v-3l1.7,1.6-.35.8.15.8-2.6,1.61-1.05-.66.5-1-1.9.5-.15,3.26-.5.5.85,1.3h-.9l-4.16,4.05-.7-.5-.7,1.3,1.2.66,1.2-1.16,1.41.3.35.81.7,2.9-1.55.65v1.95l-1.71,1.3.85,1.6-.5,1.16-1.4-.51-1.05.51v.8l-1-.15-.15,1.45-1.2.5v-1.3l-.5-.15L255,211l-.15-.15v-.15l-.15-.15-.15-1.31h-1.4l-.51,1.81v-.15l-.7.15v-2.91l-.85.15h-.8l-1.9-.3-.7.65-1.05,5.06,1.55,1.3-3.1,2.6,1.2.15-.35.95.7,1,1.55.15-.7.95,1.9,2.6v.15h.85v.65l-1.55,1.15-2.75-.65-2.61,2.1,3.66,1.45-1.2,2.46.85,1.8-7.76-1.3-4.3.15-2.41.15-.2,1.8-3.45,1,.35.8-.7-.35.85.5-.85,1.8,1.2,2.61-5.56,1.95V241l-5.2-2.76.5,1.81-.7.35,1.9,1.45,1,.65-.35.5-1.05,1-.15.15Zm49.6-67.87-1.55-.3-2.05.15,2.05.95h1.55Z"/><path class="cls-16" d="M267.17,176.28l1.55.3v.8h-1.55l-2.05-.95Zm-2,92.45.15-1.65-.5-2.31-1.2,1.15L260,264l-.5-1.8,4,.65.5-4.05.7-.15-1.75.35-.15.8-1.76-1,.35-1.65-1.75-.66-1.05-2.75,1.55-1.3H260l-.5-1.15h-1.4L257,249.61l-2.4-1-2.61,1.3,1.21-1.8L252.7,246l-.5-.8,1.21-.65L252,244.4l-.35-.8,1.4-2.6h-.15l-.85-1.65h-1.8l-.35-.8-3.8-1.81.85-2.3,3.1-.15-.15-1.65-1.05.3-.15-.65,1.75-1.3-2.4-1.3-2.25.65,1.2-2.46-3.66-1.45,2.61-2.1,2.75.65,1.55-1.15v-.65h-.85V223l-1.9-2.6.7-1-1.55-.16-.7-.95.35-1-1.2-.15,3.1-2.6-1.55-1.3,1-5.06.7-.65,1.9.3h.7l.85-.15v2.91l.7-.15v.15l.5-1.81h1.41l.15,1.31.15.15v.15l.15.15.85.5.5.15v1.3l1.2-.5.15-1.45,1.05.15V210l1-.5,1.4.5.5-1.15-.85-1.6,1.7-1.3v-2l1.56-.65-.7-2.91-.35-.8-1.41-.3-1.2,1.15-1.2-.65.7-1.3.7.5,4.16-4.05h1l-.85-1.3.5-.5.15-3.26,1.9-.5-.5.95L268,191l2.6-1.6-.15-.8.35-.8-1.7-1.6v3l-.85-.95-1.9.15v-1.15l-.5,1.15-.5-.8.7-2.1h.7l.15,1.8.5-1.6,1.9-.8-1.2-2.1-.35,1-.7-.5.35-1.3,1.4-3.06,1.9.3.5-.95-1.4-1.15.15-1.8-.7-.5.7-2.1,1.7-1,.71-.3-.15-1.3v-.95l.15-.5-1.56-.65-.85.65-1.7-1.6-.35-1.8,1.55-.65.35-.95-1.55-1.61.7-.8-.35-1.3-1.55-.5,3.6-.65,1.41.5.35-.65,3.1-.15,1.9-1h2.05l.85-.5,4.66-1.75,2.95.8.15.65.7-.65,2.41,1.75,2.6-1.3,3.95,2-1.2,1.15v.15l-1.35,2V162l-.5.5-.15,1.16v.15l-.7,1,.85,1.45,1.4-.65v.15l.35,2.6.85.15-.15,1.45-2.25.15-.85,1.3-1.2.15-.7-1,.7-1.15-.5-.8.7-.15-3.26-.65.2,2.1,1.91-.3,1,2.75v.51l2.05-.3.5.95,1.7.65,2.4-.8.71,2,2.05.95,1.2-1.6,3.25-.3.35,1.15,1.2-.8.35-.8h.15l.15-.15.5-.15,1.06-.15,1.4.65,1.4-.5v.15l.5.15,1.2.8.5,1v.15l-.5,1.8,1.7-1.15h.15l1.9-.65h.86V176l1.4.3.35,1.15h1.55l-.35,1.15,1.05,1.95,1.55,1.15,1.7-1.3.85-.15,1.41.15.35.8h.15V181h.15l.7.95-1.2.66,1.75,2.1-.7.95.35,1.95-2.41.8,1.56.95-1,1.45-3.11-.3-.35.8,1.05,1-.15,1.3,1.55.15.15.15,1.21.8.2,1.45-2.76,2.45-1.05.15v-.15l-1.9-.3-1.7,2.1-.7.15-.5-1.15-2.41-.5-.85.8.35,2.46,1.76,5,6.4.3.5,1.45,1,.5,1.21-.5-.15,1.15,3.65,1.81,1.55,3.9,7.06-1,.85-1.3,1.2-.3,1.9.8v-.65l1.05.3,6.21.65-.5.8v.15l.35,2.6-1.2,2.11,1.55,2.75v.15l-10.51,4.55h-.15l-13.11,5.86-7.66,5.76-8,3.1-6.36,10.11-.5.65.85-2.75-1.2,2.75-1.55.65-.35,1.65,1.05-1.3-.5,2.1-2.75,3.26-7.11,2.45-6.61.15-6.4,2.95-3.31-.15-1.9,1.3ZM270,199l1,.3.35-.65-1.4-.5Zm23.93-23.17.85-.3-.7-.8-1.4.65-.15.5V176l.35,1.15.85-.15Z"/><path class="cls-17" d="M308.71,241h0l.05-.05h0v-.1h.15v0l0-.05.05-.05h0v0h0v-.2h-.2l-.05,0h0l-.05-.2h0l.05,0,.1-.1.1-.1.1-.15v-.1l-.05-.15v-.1h.15l.25-.15,0-.05.06-.05v-.1l.05-.1h.1l.1.05.1-.05.05-.05.1,0h.2l.1,0,.15.05.1.05h.25l.1,0h.3v.2h0v.1h0v0h0v.05h0l1,1.4v0l.05.1.1.15.1.2.05.1.1.1.1.15.1.2h-.1l0,.05h-.05l-.05.05h-.05l-.05,0h0v.05l-.1.1v.05h0v0h0l-.05.05h0l-.05,0v.1l-.05,0,0,.05v.15h0V243l-.05.05v.1h0v.05h0v0h0l-.05.1v.1h0v0h0v.05h-.05v.05h0v0h0v.05h0v0h0v.05h0l.1-.45-.2-.05-.05.1-.05.15.2.05v0l-.2,0v0h.05v.1l.1.05v-.1h0l0,.1h-.05l.05.05h0l-.05-.05h0l.1.05h0l0-.05h0v.1h0V244h0v.05h0v0h0v.05h0v0h0v.3h0v.05h0l0,0h0l0,0h0v0h0v.05h0v.15h0v-.05h0l-.2.4-.1.2h0l.1-.2.15-.35h0l-.2.1.05.1h0l-.05-.05-.1.05h0l.05-.05-.1-.2h0l-.05.1v.05h0v0h0l-.05.05.05.05.05-.1h.1l0,.05h0l.1.1h0l-.05.15h0v-.05h-.05l0,.05h-.05l-.05.05h0v.1h0v0h0v.05h0l-.05.05h0l-.05-.05v.05l.05,0h0l.05.05h-.05l-.05,0h0l0,.05h0l-.05-.05-.05.05.05.05h0l.05,0h0l-.15-.15h0l-.1.05h0l-.05.1v.05h0l.1.1h0l-.1-.1h0l-.05,0v.1l-.05,0-.05.1h0l.1.1h0l-.05-.05-.05-.05h0l-.05.05-.05.05-.05,0-.05.05,0,0v.1l.1.1h0l-.05-.05h0l.05.05h0l-.1-.1h-.05l-.05,0-.05.05-.05,0,0,.05-.05.05-.05,0v.05l.1.1h0l-.1-.1h0l.1.1h0l-.1-.1h-.05l-.05,0,0,.05h0v.15h0l.1.1h0l-.05.05.05,0v.06l-.05.05,0,0-.05.05-.05.05-.05,0H310l0,0,.05-.05h0l.05-.05-.05,0-.1.1h0l-.05.05-.05-.05.15-.15-.1-.11-.15.16h0l.1.1h0v.05h0l-.05,0h-.05l0,0v0h0v.05h-.1l-.05,0h0v.05h0V248h0l.1,0h0l-.1,0h0v0h0l.1.05h0l-.15-.05h0l-.06.05,0,.05h0l-.05.1v.1h0v.1h0l-.05.05-.05,0-.05.1,0,.15v.2h0v.15h0v0h0l.05,0h0l-.3.65h0v.05h0v.05h0l-.1.4h0l.1-.35h0l.05-.15h.05l.15-.3h0l-.1-.05h0v.05h0v.15h0v0l-.05.05h0v-.05h0v0h0v-.05h0v.05l.1-.15v-.15h0v-.15h-.1v.15H309v-.05H309v-.2h0V249h0l.2.05V249h-.1v-.15h.1v-.1h-.1l.05-.15-.05-.05-.05.05v.2H309l.05-.25h0l.1-.05h0v-.15h0l-.05-.2h0v0l-.1-.05h-.1l.1.35h0l-.15.25h0l-.1,0v-.05l.15-.2h0l-.05-.2h0l-.35.55h0l.35.2h0l-.05.1h0l-.35-.2h0v.25h0v.05h0v.2h0v.05l.25.1h0l0,0h0l-.1.2h-.05v-.05l-.25-.1-.2.35h.05l.25.1-.1.2-.35-.15-.1.15.25.2-.45,1-.25-.15h-.1l-.7.5-.05,0h-.05v-.15h-.05v-.1h0v0h-.05v0h0v0h-.05l-.1,1h-.3l-.1.15.15,0,.1.05-.1.25h0v0l.2.1h0l0-.05h0V253h0v0h0v-.05h0v0h0v-.05h0v-.05h0v0h0v-.05h0v0h0v-.05h0v-.05h0l.05,0h0v-.05h0l.05,0h0l.15,0h0v.05h0l.15,0h0v.05h0v.05h.05v-.05h0v.05h-.05l-.05.1h0v.1h-.05v.2h0v.05h0v.05h0v0h0v.05h0v0h0v.05h0v.05l-.05,0v.15h0v.05h0v0h0v0h-.35v0h0v.4h0v.05h0l-.05.15h-1.9l-.15,0-.15-.05-.15,0-.1-.05-.1-.05-.1,0-.1-.05-.05,0h-.05l0-.05-.1-.05-.05,0-.1-.2-.1-.15-.05-.1h0v0l-1.95,1.85-.1-.1,0-.05-.05,0-.05-.05-.05-.05h0l-.1,0h0v-.05h0v-.15h-.1l-.1,0H300l.26-.25h0l-.21-.1-.3-.2.05,0,.1-.1.05,0,.26-.15.35-.2-.2-.45v0l-.1-.15-.05-.1h0l-.06-.1-.05,0-.05-.05h0l-.05-.1-.05-.1v-.05l-.15-.1-.05-.05v-.2l.1-.2h.2l.1,0v.1l.11.05.35-.15-.05-.15.2-.4v-.05l-.1-.2.15-.05.05-.05v0h0l.1-.1h0v-.05l-.05-.15.05-.1-.15-.15.1-.1v-.2l-.1-.1v0l.05-.05-.05,0-.05-.05,0-.05-.05-.1v-.25l-.05,0-.05-.05v-.2l.05-.1.05,0,.1-.15.05-.1.05-.05.05,0,.05-.1v-.1l0-.1.05-.1v-.11l-.05,0h-.1v-.2l-.05,0-.05-.05-.1-.05-.1,0h-.05v0l-.05.05H300l-.15-.05-.05,0h-.2l-.05,0v.15l-.05.05-.15.1-.05.05-.05.11-.05.05,0,0-.05.05-.05.05h-.15l-.15-.05h-.15l-.1-.21-.1-.15v0h.1v-.15l.05-.1.05-.05.05,0,.1,0h.3l.05,0,.05-.05v-.05l0-.1v0h.05V247l-.05-.05v0l-.1-.05v0l-.05-.05.05-.05H299v0h0v-.1l-.05-.1v-.1l-.05,0h.2l0-.05h.1v-.15l-.05.05-.2-.1h-.35v-.15l.05-.1h.1l.05-.05h0l0-.05,0,0-.1-.1h-.15l-.05-.15v-.05l-.05,0-.05-.05v-.2l.05-.05h.15v.1h.15v.2h0l.1,0,.1.05h.15v.1h0v-.1h.05l.05,0v.05l.05.05v0h.1l.1.05h.05l.2,0h.1l0-.1h.1v0l.05-.05.05-.05.06-.1,0,0v-.05h.05l.05.05.05,0h.05l0,.05v.1l.05.1h.15l0,.05.05,0v.05h.9l.1.05.05,0,.05.05.15.1h.15l0-.05.05-.1v-.1l.05-.05.05,0,.15-.15.1-.1.05-.1,0-.1.05-.1v-.25l.05-.1v-.25l-.05-.15v-.1l.1-.05.15-.1V244l.05-.05.05,0,.05-.05h.3l.1.05h.25l.1-.05h.2l.05.05,0,0h.35l.05,0,.05-.1,0-.05.05-.05H305l.1,0h.15l.05,0,.05.05h.1v-.1l.05-.05h.05v0l-.05-.1v-.2l.05-.05.05-.1-.05,0V243h0l.05-.1.05-.1,0-.05.15-.1h.1l.05-.05h.05l.05,0h.05l0-.05.05-.05.05,0,.1-.05h.15l.05,0h.25l-.05-.05v-.05h-.05l-.05,0V242l.05.05h.1l.25-.05h.05l.1.05.05-.05.15-.3.05.05h.1l.05-.05,0,0,.05-.05.15,0h.15l.2-.1.05.05.45.25H309Zm-11.66,3.6h0l.1.1.05.05h.15V245l0,.05.05,0h.2l.05.05v.1l-.05.1v.05h0l.2.15v.3l0,.1v.2l0,0h-.1l-.15.05h-.15l.05.05v.2l-.05.15-.05,0-.15.05h-.2v.15l-.05,0h-.2l-.05,0-.05-.1v-.2l.15-.15,0-.1V246l0-.15v-.05l-.05-.05-.05,0-.05-.05-.1,0h0l0-.05.15-.1.1-.05.05,0v-.15L297,245v-.2l-.05-.15v-.3h0Zm1.1,1.8h0l.1.1-.05.05-.05,0,0,.05-.05,0v.1l-.05,0-.05.05-.05,0h0v0l0-.1v-.2h0l.1,0,.05-.05h.1Zm11.82.9h0v-.1h0v0h0v.15l0-.05h0l0,.05Zm0,0h0v0h0v0Zm-.05,0h0v.05h0v-.05Zm-.3.36.05-.06h0v.06h-.05v0h0v0Zm-2.21,2.85h0l0-.1h0Zm-1.75,3.8h0v-.15h0v-.4h0l-.05-.05h0l.05-.4h-.05v-.05h.05l.75-1.55h0v0h0v0h0v.15h0V252h0v.15h0v0l0,.05v.1h0v.05h0l-.05,0h0v.15h0v.1h0v.15h0v.2h0v.05h0v.05h0v0h0v.05h0v.1h0v.05h0v0h0v.05h0v0h0v.05h0v.1h0v.15h0v.05h0V254h0v.05h0v.05h0v0h0v.05h0v0h0v.15h0v.05h0v.1h0v.15h0v.15h0v.1h0v0h0v-.1l-.05-.15-.05-.15-.05-.25,0-.1-.05-.1h0l.1-.45.05-.3h-.1v.05h0v-.1h0v-.25l-.55,1.25Zm-1.3-.05Z"/></g><polyline class="cls-18" points="349 96.46 349 103 297.64 103 297.64 96.46"/><g class="cls-19"><text class="cls-20" transform="translate(255.09 103.16)">% d’ocupació:</text><text class="cls-21" transform="translate(290.89 103.16)"><tspan xml:space="preserve">  </tspan></text></g><text class="cls-20" transform="translate(293.98 111.1)">menys</text><text class="cls-20" transform="translate(344.09 111.1)">més</text><text class="cls-22" transform="translate(65.37 126.1)">LLEIDA</text><text class="cls-12" transform="translate(128.79 151.45)"><tspan xml:space="preserve">  </tspan></text><text class="cls-23" transform="translate(65.37 135.12)">VARIACIÓ INT. 2020</text><text class="cls-21" transform="translate(134.17 135.12)">|2019</text><text class="cls-22" transform="translate(401.47 126.49)">GIRONA</text><text class="cls-23" transform="translate(401.47 135.68)">VARIACIÓ INT. 2020</text><text class="cls-21" transform="translate(469.27 135.68)">|2019</text><text class="cls-22" transform="translate(400.31 214.17)">ENTORN DE BARCELONA</text><text class="cls-23" transform="translate(400.31 224.1)">VARIACIÓ INT. 2020</text><text class="cls-21" transform="translate(468.11 224.1)">|2019</text><text class="cls-22" transform="translate(382.85 304.88)">BARCELONÈS</text><text class="cls-23" transform="translate(382.85 314.97)">VARIACIÓ INT. 2020</text><text class="cls-21" transform="translate(450.65 314.97)">|2019</text><text class="cls-22" transform="translate(215.91 308.09)">TARRAGONA</text><text class="cls-23" transform="translate(215.91 317.76)">VARIACIÓ INT. 2020</text><text class="cls-21" transform="translate(283.71 317.76)">|2019</text><text class="cls-24" transform="translate(66.03 152.6)"><tspan xml:space="preserve">Ocupació:  </tspan></text><text class="cls-24" transform="translate(66.03 162.2)">36,6% (+18,7 pp)</text><text class="cls-21" transform="translate(122.43 162.2)">|-1,0 pp</text><text class="cls-12" transform="translate(129.45 145.61)"><tspan xml:space="preserve">  </tspan></text><text class="cls-24" transform="translate(66.03 176.43)">Viatgers: </text><text class="cls-24" transform="translate(66.03 186.03)">78.468 (+234,4%) </text><text class="cls-21" transform="translate(123.63 186.03)">|</text><text class="cls-21" transform="translate(129.88 186.02)">-8,1%</text><text class="cls-24" transform="translate(66.03 198.6)">Pernoctacions: </text><text class="cls-24" transform="translate(63.03 208.2)"><tspan xml:space="preserve"> 179.003 (+274,5%)</tspan></text><text class="cls-21" transform="translate(125.43 208.2)">|-3,6%</text><text class="cls-12" transform="translate(123.03 208.2)"> </text><text class="cls-24" transform="translate(553.63 151.03)"> </text><text class="cls-25" transform="translate(402.71 149.71) scale(1 0.98)">Ocupació: 43,1% (+8,2 pp) </text><text class="cls-26" transform="translate(490.35 149.71)">|</text><text class="cls-25" transform="translate(494.14 149.71) scale(1 0.98)"><tspan xml:space="preserve"> -</tspan><tspan class="cls-27" x="4.07" y="0">12,7 pp</tspan><tspan x="-91.42" y="15.71">Viatgers: 2.545.206 (+66,6%) </tspan></text><text class="cls-26" transform="translate(497.7 165.11)">|</text><text class="cls-25" transform="translate(501.49 165.11) scale(1 0.98)"> <tspan class="cls-28" x="1.82" y="0">-36,7%</tspan><tspan x="-98.78" y="15.71">Pernoctacions: 6.499.441 (+87,2%) </tspan></text><text class="cls-26" transform="translate(518.13 180.51)">|</text><text class="cls-25" transform="translate(521.92 180.51) scale(1 0.98)"> <tspan class="cls-27" x="1.82" y="0">-47,6%</tspan></text><text class="cls-25" transform="translate(217.05 332.19) scale(1 0.98)">Ocupació: 44,5% (+11,7 pp) </text><text class="cls-26" transform="translate(308.69 332.19)">|-17,7 pp</text><text class="cls-25" transform="translate(217.05 344.19) scale(1 0.98)">Viatgers: 1.845.374 (+112,9%) </text><text class="cls-26" transform="translate(316.04 344.19)">|-37,8%</text><text class="cls-25" transform="translate(217.05 356.19) scale(1 0.98)"><tspan xml:space="preserve"> Pernoctacions: 4.751.972 (141,9%)</tspan></text><text class="cls-26" transform="translate(332.47 356.19)">|-54,3%</text><text class="cls-25" transform="translate(400.31 237.68)">Ocupació: 34,7% (+6,8 pp) <tspan class="cls-27" x="87.64" y="0">| -24,6 pp</tspan><tspan x="0" y="14">Viatgers: 1.716.704 (+72,4%) </tspan><tspan class="cls-27" x="94.99" y="14">| -55,0%</tspan><tspan x="0" y="28">Pernoctacions: 4.189.250 (+98,7%) </tspan><tspan class="cls-27" x="115.42" y="28">| -62,3%</tspan></text><text class="cls-25" transform="translate(383.66 327.15)">Ocupació: 41,1% (+8,6 pp) <tspan class="cls-27" x="87.64" y="0">| -27,8 pp</tspan><tspan x="0" y="14">Viatgers: 3.434.012 (+70,7%) </tspan><tspan class="cls-27" x="94.99" y="14">| -61,8%</tspan><tspan x="0" y="28">Pernoctacions: 8.532.949 (+84,8%)</tspan><tspan class="cls-27" x="113.6" y="28">|</tspan><tspan x="117.39" y="28"> </tspan><tspan class="cls-27" x="119.21" y="28">-61,8%</tspan></text></svg>