<svg xmlns='http://www.w3.org/2000/svg' version='1.1' width='786px' height='516px'><svg xmlns="http://www.w3.org/2000/svg" class="fl-legend-icon" height="14" width="0" style="display: none;" x="0" y="0"><path style="fill: rgb(29, 105, 150); stroke: none; stroke-width: 0;"/></svg><svg xmlns="http://www.w3.org/2000/svg" class="fl-legend-icon" height="14" width="0" style="display: none;" x="0" y="0"><path style="fill: rgb(0, 204, 204); stroke: none; stroke-width: 0;"/></svg><svg xmlns="http://www.w3.org/2000/svg" class="fl-legend-icon" height="14" width="0" style="display: none;" x="0" y="0"><path style="fill: rgb(194, 194, 194); stroke: none; stroke-width: 0;"/></svg><svg xmlns="http://www.w3.org/2000/svg" id="graphic" fill="currentColor" font-family="Source Sans Pro" width="774.75" height="341.4609375" x="10.5" y="174.5390625"><g class="facets"><g class="facet" transform="translate(0,0)" opacity="1"><g class="fl-chart"><rect class="fl-chart-debug-rectangle" x="0" y="0" style="stroke-width: 1px; fill: none; display: none; stroke: red;" width="774.75" height="341.46093749999994"/><clipPath class="fl-data-clip-path" id="fl-chart-layout-1-clip-path"><rect x="84.7" y="8.775" width="676.8130882263183" height="305.68593749999997"/></clipPath><clipPath class="fl-grid-clip-path" id="fl-chart-layout-1-grid-clip-path"><rect x="83.20000004470349" y="8.025000022351742" width="679.8130881369113" height="307.1859374552965"/></clipPath><g class="fl-chart-background"><rect class="fl-chart-fill" x="84.7" y="8.775" width="676.8130882263183" height="305.68593749999997" fill="none"/><image class="fl-chart-image" x="84.7" y="8.775" width="676.8130882263183" height="305.68593749999997" preserveAspectRatio="none"/><rect class="fl-chart-interaction" x="84.7" y="8.775" width="676.8130882263183" height="305.68593749999997" style="opacity: 0;"/></g><g class="fl-data-background" clip-path="url(#fl-chart-layout-1-clip-path)"/><g class="fl-gridlines" clip-path="url(#fl-chart-layout-1-grid-clip-path)" style="pointer-events: none;"><g class="fl-gridlines-vertical"/><g class="fl-gridlines-horizontal"><line x1="84.7" x2="761.5130882263184" y1="314.46093749999994" y2="314.46093749999994" style="shape-rendering: crispedges; opacity: 1; stroke: rgb(238, 238, 238); stroke-width: 0.75;"/><line x1="84.7" x2="761.5130882263184" y1="267.4323317307692" y2="267.4323317307692" style="shape-rendering: crispedges; opacity: 1; stroke: rgb(238, 238, 238); stroke-width: 0.75;"/><line x1="84.7" x2="761.5130882263184" y1="220.4037259615384" y2="220.4037259615384" style="shape-rendering: crispedges; opacity: 1; stroke: rgb(238, 238, 238); stroke-width: 0.75;"/><line x1="84.7" x2="761.5130882263184" y1="173.37512019230766" y2="173.37512019230766" style="shape-rendering: crispedges; opacity: 1; stroke: rgb(238, 238, 238); stroke-width: 0.75;"/><line x1="84.7" x2="761.5130882263184" y1="126.3465144230769" y2="126.3465144230769" style="shape-rendering: crispedges; opacity: 1; stroke: rgb(238, 238, 238); stroke-width: 0.75;"/><line x1="84.7" x2="761.5130882263184" y1="79.31790865384613" y2="79.31790865384613" style="shape-rendering: crispedges; opacity: 1; stroke: rgb(238, 238, 238); stroke-width: 0.75;"/><line x1="84.7" x2="761.5130882263184" y1="32.28930288461537" y2="32.28930288461537" style="shape-rendering: crispedges; opacity: 1; stroke: rgb(238, 238, 238); stroke-width: 0.75;"/></g></g><g class="fl-axes"><g class="fl-x-axes"><g class="fl-axis fl-x-axis fl-bottom-axis"><g class="fl-axis-line"><line x1="84.7" y1="314.46093749999994" y2="314.46093749999994" style="shape-rendering: crispedges; stroke-linecap: square; stroke-width: 1.5; opacity: 1; stroke: rgb(238, 238, 238);" x2="761.5130882263184"/></g><g class="fl-axis-ticks"><g transform="translate(112.90054534276324,314.46093749999994)" style="opacity: 1;"><line y2="7" style="stroke: rgb(238, 238, 238); stroke-width: 1.5;"/><text text-anchor="end" transform="translate(12.02667236328125,18.816000000000003)" style="user-select: none; cursor: default; fill: rgb(0, 51, 102); font-size: 12.6px; font-weight: normal;"><tspan x="0" dy="0">Gen.</tspan></text></g><g transform="translate(169.30163602828975,314.46093749999994)" style="opacity: 1;"><line y2="7" style="stroke: rgb(238, 238, 238); stroke-width: 1.5;"/><text text-anchor="end" transform="translate(11.13836669921875,18.816000000000003)" style="user-select: none; cursor: default; fill: rgb(0, 51, 102); font-size: 12.6px; font-weight: normal;"><tspan x="0" dy="0">Feb.</tspan></text></g><g transform="translate(225.70272671381628,314.46093749999994)" style="opacity: 1;"><line y2="7" style="stroke: rgb(238, 238, 238); stroke-width: 1.5;"/><text text-anchor="end" transform="translate(11.150978088378906,18.816000000000003)" style="user-select: none; cursor: default; fill: rgb(0, 51, 102); font-size: 12.6px; font-weight: normal;"><tspan x="0" dy="0">Mar.</tspan></text></g><g transform="translate(282.1038173993428,314.46093749999994)" style="opacity: 1;"><line y2="7" style="stroke: rgb(238, 238, 238); stroke-width: 1.5;"/><text text-anchor="end" transform="translate(12.070770263671875,18.816000000000003)" style="user-select: none; cursor: default; fill: rgb(0, 51, 102); font-size: 12.6px; font-weight: normal;"><tspan x="0" dy="0">Abr.*</tspan></text></g><g transform="translate(338.5049080848693,314.46093749999994)" style="opacity: 1;"><line y2="7" style="stroke: rgb(238, 238, 238); stroke-width: 1.5;"/><text text-anchor="end" transform="translate(12.637771606445312,18.816000000000003)" style="user-select: none; cursor: default; fill: rgb(0, 51, 102); font-size: 12.6px; font-weight: normal;"><tspan x="0" dy="0">Mai.*</tspan></text></g><g transform="translate(394.90599877039585,314.46093749999994)" style="opacity: 1;"><line y2="7" style="stroke: rgb(238, 238, 238); stroke-width: 1.5;"/><text text-anchor="end" transform="translate(11.465972900390625,18.816000000000003)" style="user-select: none; cursor: default; fill: rgb(0, 51, 102); font-size: 12.6px; font-weight: normal;"><tspan x="0" dy="0">Jun.</tspan></text></g><g transform="translate(451.3070894559224,314.46093749999994)" style="opacity: 1;"><line y2="7" style="stroke: rgb(238, 238, 238); stroke-width: 1.5;"/><text text-anchor="end" transform="translate(9.626380920410156,18.816000000000003)" style="user-select: none; cursor: default; fill: rgb(0, 51, 102); font-size: 12.6px; font-weight: normal;"><tspan x="0" dy="0">Jul.</tspan></text></g><g transform="translate(507.7081801414489,314.46093749999994)" style="opacity: 1;"><line y2="7" style="stroke: rgb(238, 238, 238); stroke-width: 1.5;"/><text text-anchor="end" transform="translate(11.434471130371094,18.816000000000003)" style="user-select: none; cursor: default; fill: rgb(0, 51, 102); font-size: 12.6px; font-weight: normal;"><tspan x="0" dy="0">Ago.</tspan></text></g><g transform="translate(564.1092708269755,314.46093749999994)" style="opacity: 1;"><line y2="7" style="stroke: rgb(238, 238, 238); stroke-width: 1.5;"/><text text-anchor="end" transform="translate(10.168174743652344,18.816000000000003)" style="user-select: none; cursor: default; fill: rgb(0, 51, 102); font-size: 12.6px; font-weight: normal;"><tspan x="0" dy="0">Set.</tspan></text></g><g transform="translate(620.510361512502,314.46093749999994)" style="opacity: 1;"><line y2="7" style="stroke: rgb(238, 238, 238); stroke-width: 1.5;"/><text text-anchor="end" transform="translate(10.73516845703125,18.816000000000003)" style="user-select: none; cursor: default; fill: rgb(0, 51, 102); font-size: 12.6px; font-weight: normal;"><tspan x="0" dy="0">Oct.</tspan></text></g><g transform="translate(676.9114521980285,314.46093749999994)" style="opacity: 1;"><line y2="7" style="stroke: rgb(238, 238, 238); stroke-width: 1.5;"/><text text-anchor="end" transform="translate(11.755783081054688,18.816000000000003)" style="user-select: none; cursor: default; fill: rgb(0, 51, 102); font-size: 12.6px; font-weight: normal;"><tspan x="0" dy="0">Nov.</tspan></text></g><g transform="translate(733.3125428835551,314.46093749999994)" style="opacity: 1;"><line y2="7" style="stroke: rgb(238, 238, 238); stroke-width: 1.5;"/><text text-anchor="end" transform="translate(11.207679748535156,18.816000000000003)" style="user-select: none; cursor: default; fill: rgb(0, 51, 102); font-size: 12.6px; font-weight: normal;"><tspan x="0" dy="0">Des.</tspan></text></g></g><g class="fl-axis-title"/></g><g class="fl-axis fl-x-axis fl-top-axis"><g class="fl-axis-line"/><g class="fl-axis-ticks"/><g class="fl-axis-title"/></g></g><g class="fl-y-axes"><g class="fl-axis fl-y-axis fl-left-axis"><g class="fl-axis-line"><line x1="84.7" x2="84.7" y1="314.46093749999994" y2="8.775" style="shape-rendering: crispedges; stroke-linecap: square; stroke-width: 0; opacity: 1; stroke: rgb(238, 238, 238);"/></g><g class="fl-axis-ticks"><g transform="translate(84.7,314.46093749999994)" style="opacity: 1;"><line x2="-7" style="stroke: rgb(238, 238, 238); stroke-width: 0;"/><text text-anchor="end" transform="translate(-10.5,5.082000000000001)" style="user-select: none; cursor: default; fill: rgb(0, 51, 102); font-size: 15.4px; font-weight: normal;"><tspan x="0" dy="0">0%</tspan></text></g><g transform="translate(84.7,32.28930288461537)" style="opacity: 1;"><line x2="-7" style="stroke: rgb(238, 238, 238); stroke-width: 0;"/><text text-anchor="end" transform="translate(-10.5,5.082000000000001)" style="user-select: none; cursor: default; fill: rgb(0, 51, 102); font-size: 15.4px; font-weight: normal;"><tspan x="0" dy="0">60%</tspan></text></g><g transform="translate(84.7,79.31790865384613)" style="opacity: 1;"><line x2="-7" style="stroke: rgb(238, 238, 238); stroke-width: 0;"/><text text-anchor="end" transform="translate(-10.5,5.082000000000001)" style="user-select: none; cursor: default; fill: rgb(0, 51, 102); font-size: 15.4px; font-weight: normal;"><tspan x="0" dy="0">50%</tspan></text></g><g transform="translate(84.7,126.3465144230769)" style="opacity: 1;"><line x2="-7" style="stroke: rgb(238, 238, 238); stroke-width: 0;"/><text text-anchor="end" transform="translate(-10.5,5.082000000000001)" style="user-select: none; cursor: default; fill: rgb(0, 51, 102); font-size: 15.4px; font-weight: normal;"><tspan x="0" dy="0">40%</tspan></text></g><g transform="translate(84.7,173.37512019230766)" style="opacity: 1;"><line x2="-7" style="stroke: rgb(238, 238, 238); stroke-width: 0;"/><text text-anchor="end" transform="translate(-10.5,5.082000000000001)" style="user-select: none; cursor: default; fill: rgb(0, 51, 102); font-size: 15.4px; font-weight: normal;"><tspan x="0" dy="0">30%</tspan></text></g><g transform="translate(84.7,220.4037259615384)" style="opacity: 1;"><line x2="-7" style="stroke: rgb(238, 238, 238); stroke-width: 0;"/><text text-anchor="end" transform="translate(-10.5,5.082000000000001)" style="user-select: none; cursor: default; fill: rgb(0, 51, 102); font-size: 15.4px; font-weight: normal;"><tspan x="0" dy="0">20%</tspan></text></g><g transform="translate(84.7,267.4323317307692)" style="opacity: 1;"><line x2="-7" style="stroke: rgb(238, 238, 238); stroke-width: 0;"/><text text-anchor="end" transform="translate(-10.5,5.082000000000001)" style="user-select: none; cursor: default; fill: rgb(0, 51, 102); font-size: 15.4px; font-weight: normal;"><tspan x="0" dy="0">10%</tspan></text></g></g><g class="fl-axis-title"/></g><g class="fl-axis fl-y-axis fl-right-axis"><g class="fl-axis-line"/><g class="fl-axis-ticks"/><g class="fl-axis-title"/></g></g><g class="axis-highlights" style="opacity: 1;"><g class="line y" transform="translate(84.7, 95.7779206730769)"><line width="0" stroke-dasharray="2 2" stroke="#003366" stroke-width="2" x2="676.8130882263183"/><text transform="translate(671.2130882263183, -5.6000000000000005)" text-anchor="end" font-size="11.200000000000001"><tspan class="bg-label" y="0px" x="0" font-weight="regular" display="block" fill="none" stroke="#FFFFFF" stroke-width="2">Mitjana 2019: 46,5%</tspan><tspan class="fg-label" y="0px" x="0" font-weight="regular" fill="#003366">Mitjana 2019: 46,5%</tspan></text></g></g></g><g class="fl-data-foreground" clip-path="url(#fl-chart-layout-1-clip-path)"/></g><g class="facet-title" transform="translate(0, 0)"><rect class="facet-title-bg" height="0" fill="#eeeeee" x="84.7" clip-path="url(#facet-clip-0)"/><text class="facet-title-text" font-size="17.5" font-weight="bold" dx="0" dy="0" x="84.7" clip-path="url(#facet-clip-0)" opacity="0"/></g><clipPath class="facet-clip" id="facet-clip-0"><rect transform="translate(-10.5, -10.5)" width="782.5130882263184" height="344.9109375"/></clipPath></g></g><g class="annotations below"/><g id="areas"/><g id="lines"><g class="series"><clipPath id="clip-0-0"><rect width="676.8130882263183" x="84.7" y="5.975" height="311.2859375"/></clipPath><path class="line" opacity="1" pointer-events="none" fill="none" stroke="#1d6996" stroke-width="2.8000000000000003" transform="translate(0,0)" clip-path="url(#clip-0-0)" clip-path-id="0-0" d="M112.90054534276324,224.63630048076917C131.7009089046054,221.18753605769223,150.50127246644757,217.73877163461532,169.30163602828975,206.29514423076915C188.10199959013192,194.851516826923,206.9023631519741,162.8720649038461,225.70272671381628,155.97453605769226C244.50309027565845,149.07700721153842,263.3034538375006,149.93919831730767,282.1038173993428,145.6282427884615C300.904180961185,141.31728725961534,319.70454452302715,134.10623437499999,338.5049080848693,130.10880288461536C357.3052716467115,126.11137139423074,376.1056352085537,127.28708653846151,394.90599877039585,121.64365384615382C413.70636233223803,116.00022115384614,432.5067258940802,97.18877884615385,451.3070894559224,84.49105528846155C470.10745301776456,71.79333173076925,488.90781657960673,45.45731249999999,507.7081801414489,45.45731249999999C526.5085437032911,45.45731249999999,545.3089072651333,99.06992307692309,564.1092708269755,99.06992307692309C582.9096343888176,99.06992307692309,601.7099979506598,95.7779206730769,620.510361512502,95.7779206730769C639.3107250743442,95.7779206730769,658.1110886361863,148.44995913461537,676.9114521980285,148.44995913461537C695.7118157598708,148.44995913461537,714.5121793217129,145.1579567307692,733.3125428835551,141.86595432692303"/></g><g class="series"><clipPath id="clip-0-1"><rect width="676.8130882263183" x="84.7" y="5.975" height="311.2859375"/></clipPath><path class="line" opacity="1" pointer-events="none" fill="none" stroke="#00cccc" stroke-width="2.8000000000000003" transform="translate(0,0)" clip-path="url(#clip-0-1)" clip-path-id="0-1" d="M112.90054534276324,187.48370192307686C131.7009089046054,167.77087800480766,150.50127246644757,148.05805408653845,169.30163602828975,136.6928076923077C188.10199959013192,125.32756129807693,206.9023631519741,122.30989242788462,225.70272671381628,119.29222355769231M394.90599877039585,115.05964903846154C413.70636233223803,111.17978906249999,432.5067258940802,107.29992908653843,451.3070894559224,103.30249759615381C470.10745301776456,99.3050661057692,488.90781657960673,91.07506009615383,507.7081801414489,91.07506009615383C526.5085437032911,91.07506009615383,545.3089072651333,128.22765865384613,564.1092708269755,128.22765865384613C582.9096343888176,128.22765865384613,601.7099979506598,124.46537019230769,620.510361512502,124.46537019230769C639.3107250743442,124.46537019230769,658.1110886361863,163.34235096153844,676.9114521980285,174.31569230769227C695.7118157598708,185.2890336538461,714.5121793217129,188.03236899038458,733.3125428835551,190.77570432692303"/></g><g class="series"><clipPath id="clip-0-2"><rect width="676.8130882263183" x="84.7" y="5.975" height="311.2859375"/></clipPath><path class="line" opacity="1" pointer-events="none" fill="none" stroke="#c2c2c2" stroke-width="2.8000000000000003" transform="translate(0,0)" clip-path="url(#clip-0-2)" clip-path-id="0-2" d="M112.90054534276324,183.72141346153842C131.7009089046054,183.3295084134615,150.50127246644757,182.93760336538458,169.30163602828975,181.36998317307692C188.10199959013192,179.80236298076926,206.9023631519741,147.352625,225.70272671381628,135.28194951923075C244.50309027565845,123.21127403846151,263.3034538375006,113.33526682692303,282.1038173993428,108.9459302884615C300.904180961185,104.55659374999996,319.70454452302715,106.75126201923074,338.5049080848693,102.3619254807692C357.3052716467115,97.97258894230767,376.1056352085537,80.80714783653843,394.90599877039585,71.32304567307689C413.70636233223803,61.838943509615355,432.5067258940802,53.922461538461526,451.3070894559224,45.45731249999999C470.10745301776456,36.99216346153846,488.90781657960673,20.532151442307683,507.7081801414489,20.532151442307683C526.5085437032911,20.532151442307683,545.3089072651333,67.79590024038463,564.1092708269755,82.60991105769232C582.9096343888176,97.42392187499998,601.7099979506598,99.9321141826923,620.510361512502,109.41621634615382C639.3107250743442,118.90031850961535,658.1110886361863,130.42232692307687,676.9114521980285,139.51452403846147C695.7118157598708,148.60672115384608,714.5121793217129,156.2880600961538,733.3125428835551,163.9693990384615"/></g></g><g id="data-points"><g class="series" transform="translate(0,0)" clip-path="url(#facet-clip-0)"><path class="data-point" visibility="visible" fill="#1d6996" data-type="point" transform="translate(0, 0)" d="M109.40054534276324,224.63630048076917A3.5,3.5,0,1,1,116.40054534276324,224.63630048076917A3.5,3.5,0,1,1,109.40054534276324,224.63630048076917Z" opacity="1" id="point-0-0"/><path class="data-point" visibility="visible" fill="#1d6996" data-type="point" transform="translate(0, 0)" d="M165.80163602828975,206.29514423076915A3.5,3.5,0,1,1,172.80163602828975,206.29514423076915A3.5,3.5,0,1,1,165.80163602828975,206.29514423076915Z" opacity="1" id="point-0-1"/><path class="data-point" visibility="visible" fill="#1d6996" data-type="point" transform="translate(0, 0)" d="M222.20272671381628,155.97453605769226A3.5,3.5,0,1,1,229.20272671381628,155.97453605769226A3.5,3.5,0,1,1,222.20272671381628,155.97453605769226Z" opacity="1" id="point-0-2"/><path class="data-point" visibility="visible" fill="#1d6996" data-type="point" transform="translate(0, 0)" d="M278.6038173993428,145.6282427884615A3.5,3.5,0,1,1,285.6038173993428,145.6282427884615A3.5,3.5,0,1,1,278.6038173993428,145.6282427884615Z" opacity="1" id="point-0-3"/><path class="data-point" visibility="visible" fill="#1d6996" data-type="point" transform="translate(0, 0)" d="M335.0049080848693,130.10880288461536A3.5,3.5,0,1,1,342.0049080848693,130.10880288461536A3.5,3.5,0,1,1,335.0049080848693,130.10880288461536Z" opacity="1" id="point-0-4"/><path class="data-point" visibility="visible" fill="#1d6996" data-type="point" transform="translate(0, 0)" d="M391.40599877039585,121.64365384615382A3.5,3.5,0,1,1,398.40599877039585,121.64365384615382A3.5,3.5,0,1,1,391.40599877039585,121.64365384615382Z" opacity="1" id="point-0-5"/><path class="data-point" visibility="visible" fill="#1d6996" data-type="point" transform="translate(0, 0)" d="M447.8070894559224,84.49105528846155A3.5,3.5,0,1,1,454.8070894559224,84.49105528846155A3.5,3.5,0,1,1,447.8070894559224,84.49105528846155Z" opacity="1" id="point-0-6"/><path class="data-point" visibility="visible" fill="#1d6996" data-type="point" transform="translate(0, 0)" d="M504.2081801414489,45.45731249999999A3.5,3.5,0,1,1,511.2081801414489,45.45731249999999A3.5,3.5,0,1,1,504.2081801414489,45.45731249999999Z" opacity="1" id="point-0-7"/><path class="data-point" visibility="visible" fill="#1d6996" data-type="point" transform="translate(0, 0)" d="M560.6092708269755,99.06992307692309A3.5,3.5,0,1,1,567.6092708269755,99.06992307692309A3.5,3.5,0,1,1,560.6092708269755,99.06992307692309Z" opacity="1" id="point-0-8"/><path class="data-point" visibility="visible" fill="#1d6996" data-type="point" transform="translate(0, 0)" d="M617.010361512502,95.7779206730769A3.5,3.5,0,1,1,624.010361512502,95.7779206730769A3.5,3.5,0,1,1,617.010361512502,95.7779206730769Z" opacity="1" id="point-0-9"/><path class="data-point" visibility="visible" fill="#1d6996" data-type="point" transform="translate(0, 0)" d="M673.4114521980285,148.44995913461537A3.5,3.5,0,1,1,680.4114521980285,148.44995913461537A3.5,3.5,0,1,1,673.4114521980285,148.44995913461537Z" opacity="1" id="point-0-10"/><path class="data-point" visibility="visible" fill="#1d6996" data-type="point" transform="translate(0, 0)" d="M729.8125428835551,141.86595432692303A3.5,3.5,0,1,1,736.8125428835551,141.86595432692303A3.5,3.5,0,1,1,729.8125428835551,141.86595432692303Z" opacity="1" id="point-0-11"/></g><g class="series" transform="translate(0,0)" clip-path="url(#facet-clip-0)"><path class="data-point" visibility="visible" fill="#00cccc" data-type="point" transform="translate(0, 0)" d="M109.40054534276324,187.48370192307686A3.5,3.5,0,1,1,116.40054534276324,187.48370192307686A3.5,3.5,0,1,1,109.40054534276324,187.48370192307686Z" opacity="1" id="point-1-0"/><path class="data-point" visibility="visible" fill="#00cccc" data-type="point" transform="translate(0, 0)" d="M165.80163602828975,136.6928076923077A3.5,3.5,0,1,1,172.80163602828975,136.6928076923077A3.5,3.5,0,1,1,165.80163602828975,136.6928076923077Z" opacity="1" id="point-1-1"/><path class="data-point" visibility="visible" fill="#00cccc" data-type="point" transform="translate(0, 0)" d="M222.20272671381628,119.29222355769231A3.5,3.5,0,1,1,229.20272671381628,119.29222355769231A3.5,3.5,0,1,1,222.20272671381628,119.29222355769231Z" opacity="1" id="point-1-2"/><path class="data-point" visibility="visible" fill="#00cccc" data-type="point" transform="translate(0, 0)" d="M391.40599877039585,115.05964903846154A3.5,3.5,0,1,1,398.40599877039585,115.05964903846154A3.5,3.5,0,1,1,391.40599877039585,115.05964903846154Z" opacity="1" id="point-1-5"/><path class="data-point" visibility="visible" fill="#00cccc" data-type="point" transform="translate(0, 0)" d="M447.8070894559224,103.30249759615381A3.5,3.5,0,1,1,454.8070894559224,103.30249759615381A3.5,3.5,0,1,1,447.8070894559224,103.30249759615381Z" opacity="1" id="point-1-6"/><path class="data-point" visibility="visible" fill="#00cccc" data-type="point" transform="translate(0, 0)" d="M504.2081801414489,91.07506009615383A3.5,3.5,0,1,1,511.2081801414489,91.07506009615383A3.5,3.5,0,1,1,504.2081801414489,91.07506009615383Z" opacity="1" id="point-1-7"/><path class="data-point" visibility="visible" fill="#00cccc" data-type="point" transform="translate(0, 0)" d="M560.6092708269755,128.22765865384613A3.5,3.5,0,1,1,567.6092708269755,128.22765865384613A3.5,3.5,0,1,1,560.6092708269755,128.22765865384613Z" opacity="1" id="point-1-8"/><path class="data-point" visibility="visible" fill="#00cccc" data-type="point" transform="translate(0, 0)" d="M617.010361512502,124.46537019230769A3.5,3.5,0,1,1,624.010361512502,124.46537019230769A3.5,3.5,0,1,1,617.010361512502,124.46537019230769Z" opacity="1" id="point-1-9"/><path class="data-point" visibility="visible" fill="#00cccc" data-type="point" transform="translate(0, 0)" d="M673.4114521980285,174.31569230769227A3.5,3.5,0,1,1,680.4114521980285,174.31569230769227A3.5,3.5,0,1,1,673.4114521980285,174.31569230769227Z" opacity="1" id="point-1-10"/><path class="data-point" visibility="visible" fill="#00cccc" data-type="point" transform="translate(0, 0)" d="M729.8125428835551,190.77570432692303A3.5,3.5,0,1,1,736.8125428835551,190.77570432692303A3.5,3.5,0,1,1,729.8125428835551,190.77570432692303Z" opacity="1" id="point-1-11"/></g><g class="series" transform="translate(0,0)" clip-path="url(#facet-clip-0)"><path class="data-point" visibility="visible" fill="#c2c2c2" data-type="point" transform="translate(0, 0)" d="M109.40054534276324,183.72141346153842A3.5,3.5,0,1,1,116.40054534276324,183.72141346153842A3.5,3.5,0,1,1,109.40054534276324,183.72141346153842Z" opacity="1" id="point-2-0"/><path class="data-point" visibility="visible" fill="#c2c2c2" data-type="point" transform="translate(0, 0)" d="M165.80163602828975,181.36998317307692A3.5,3.5,0,1,1,172.80163602828975,181.36998317307692A3.5,3.5,0,1,1,165.80163602828975,181.36998317307692Z" opacity="1" id="point-2-1"/><path class="data-point" visibility="visible" fill="#c2c2c2" data-type="point" transform="translate(0, 0)" d="M222.20272671381628,135.28194951923075A3.5,3.5,0,1,1,229.20272671381628,135.28194951923075A3.5,3.5,0,1,1,222.20272671381628,135.28194951923075Z" opacity="1" id="point-2-2"/><path class="data-point" visibility="visible" fill="#c2c2c2" data-type="point" transform="translate(0, 0)" d="M278.6038173993428,108.9459302884615A3.5,3.5,0,1,1,285.6038173993428,108.9459302884615A3.5,3.5,0,1,1,278.6038173993428,108.9459302884615Z" opacity="1" id="point-2-3"/><path class="data-point" visibility="visible" fill="#c2c2c2" data-type="point" transform="translate(0, 0)" d="M335.0049080848693,102.3619254807692A3.5,3.5,0,1,1,342.0049080848693,102.3619254807692A3.5,3.5,0,1,1,335.0049080848693,102.3619254807692Z" opacity="1" id="point-2-4"/><path class="data-point" visibility="visible" fill="#c2c2c2" data-type="point" transform="translate(0, 0)" d="M391.40599877039585,71.32304567307689A3.5,3.5,0,1,1,398.40599877039585,71.32304567307689A3.5,3.5,0,1,1,391.40599877039585,71.32304567307689Z" opacity="1" id="point-2-5"/><path class="data-point" visibility="visible" fill="#c2c2c2" data-type="point" transform="translate(0, 0)" d="M447.8070894559224,45.45731249999999A3.5,3.5,0,1,1,454.8070894559224,45.45731249999999A3.5,3.5,0,1,1,447.8070894559224,45.45731249999999Z" opacity="1" id="point-2-6"/><path class="data-point" visibility="visible" fill="#c2c2c2" data-type="point" transform="translate(0, 0)" d="M504.2081801414489,20.532151442307683A3.5,3.5,0,1,1,511.2081801414489,20.532151442307683A3.5,3.5,0,1,1,504.2081801414489,20.532151442307683Z" opacity="1" id="point-2-7"/><path class="data-point" visibility="visible" fill="#c2c2c2" data-type="point" transform="translate(0, 0)" d="M560.6092708269755,82.60991105769232A3.5,3.5,0,1,1,567.6092708269755,82.60991105769232A3.5,3.5,0,1,1,560.6092708269755,82.60991105769232Z" opacity="1" id="point-2-8"/><path class="data-point" visibility="visible" fill="#c2c2c2" data-type="point" transform="translate(0, 0)" d="M617.010361512502,109.41621634615382A3.5,3.5,0,1,1,624.010361512502,109.41621634615382A3.5,3.5,0,1,1,617.010361512502,109.41621634615382Z" opacity="1" id="point-2-9"/><path class="data-point" visibility="visible" fill="#c2c2c2" data-type="point" transform="translate(0, 0)" d="M673.4114521980285,139.51452403846147A3.5,3.5,0,1,1,680.4114521980285,139.51452403846147A3.5,3.5,0,1,1,673.4114521980285,139.51452403846147Z" opacity="1" id="point-2-10"/><path class="data-point" visibility="visible" fill="#c2c2c2" data-type="point" transform="translate(0, 0)" d="M729.8125428835551,163.9693990384615A3.5,3.5,0,1,1,736.8125428835551,163.9693990384615A3.5,3.5,0,1,1,729.8125428835551,163.9693990384615Z" opacity="1" id="point-2-11"/></g></g><g id="lines-secondary"/><g id="data-point-labels"><g class="series" transform="translate(0,0)" clip-path="url(#facet-clip-0)"/><g class="series" transform="translate(0,0)" clip-path="url(#facet-clip-0)"/><g class="series" transform="translate(0,0)" clip-path="url(#facet-clip-0)"/></g><g id="stack-labels"/><g class="annotations above"/></svg></svg>