<svg xmlns='http://www.w3.org/2000/svg' version='1.1' width='773px' height='516px'><svg xmlns="http://www.w3.org/2000/svg" class="fl-legend-icon" height="14" width="0" style="display: none;" x="0" y="0"><path style="fill: rgb(29, 105, 150); stroke: none; stroke-width: 0;"/></svg><svg xmlns="http://www.w3.org/2000/svg" class="fl-legend-icon" height="14" width="0" style="display: none;" x="0" y="0"><path style="fill: rgb(0, 204, 204); stroke: none; stroke-width: 0;"/></svg><svg xmlns="http://www.w3.org/2000/svg" class="fl-legend-icon" height="14" width="0" style="display: none;" x="0" y="0"><path style="fill: rgb(194, 194, 194); stroke: none; stroke-width: 0;"/></svg><svg xmlns="http://www.w3.org/2000/svg" id="graphic" fill="currentColor" font-family="Source Sans Pro" width="762" height="341.4609375" x="10.5" y="174.5390625"><g class="facets"><g class="facet" transform="translate(0,0)" opacity="1"><g class="fl-chart"><rect class="fl-chart-debug-rectangle" x="0" y="0" style="stroke-width: 1px; fill: none; display: none; stroke: red;" width="762" height="341.46093749999994"/><clipPath class="fl-data-clip-path" id="fl-chart-layout-1-clip-path"><rect x="84.7" y="8.775" width="664.0630882263183" height="305.68593749999997"/></clipPath><clipPath class="fl-grid-clip-path" id="fl-chart-layout-1-grid-clip-path"><rect x="83.20000004470349" y="8.025000022351742" width="667.0630881369113" height="307.1859374552965"/></clipPath><g class="fl-chart-background"><rect class="fl-chart-fill" x="84.7" y="8.775" width="664.0630882263183" height="305.68593749999997" fill="none"/><image class="fl-chart-image" x="84.7" y="8.775" width="664.0630882263183" height="305.68593749999997" preserveAspectRatio="none"/><rect class="fl-chart-interaction" x="84.7" y="8.775" width="664.0630882263183" height="305.68593749999997" style="opacity: 0;"/></g><g class="fl-data-background" clip-path="url(#fl-chart-layout-1-clip-path)"/><g class="fl-gridlines" clip-path="url(#fl-chart-layout-1-grid-clip-path)" style="pointer-events: none;"><g class="fl-gridlines-vertical"/><g class="fl-gridlines-horizontal"><line x1="84.7" x2="748.7630882263184" y1="314.46093749999994" y2="314.46093749999994" style="shape-rendering: crispedges; opacity: 1; stroke: rgb(238, 238, 238); stroke-width: 0.75;"/><line x1="84.7" x2="748.7630882263184" y1="267.4323317307692" y2="267.4323317307692" style="shape-rendering: crispedges; opacity: 1; stroke: rgb(238, 238, 238); stroke-width: 0.75;"/><line x1="84.7" x2="748.7630882263184" y1="220.4037259615384" y2="220.4037259615384" style="shape-rendering: crispedges; opacity: 1; stroke: rgb(238, 238, 238); stroke-width: 0.75;"/><line x1="84.7" x2="748.7630882263184" y1="173.37512019230766" y2="173.37512019230766" style="shape-rendering: crispedges; opacity: 1; stroke: rgb(238, 238, 238); stroke-width: 0.75;"/><line x1="84.7" x2="748.7630882263184" y1="126.3465144230769" y2="126.3465144230769" style="shape-rendering: crispedges; opacity: 1; stroke: rgb(238, 238, 238); stroke-width: 0.75;"/><line x1="84.7" x2="748.7630882263184" y1="79.31790865384613" y2="79.31790865384613" style="shape-rendering: crispedges; opacity: 1; stroke: rgb(238, 238, 238); stroke-width: 0.75;"/><line x1="84.7" x2="748.7630882263184" y1="32.28930288461537" y2="32.28930288461537" style="shape-rendering: crispedges; opacity: 1; stroke: rgb(238, 238, 238); stroke-width: 0.75;"/></g></g><g class="fl-axes"><g class="fl-x-axes"><g class="fl-axis fl-x-axis fl-bottom-axis"><g class="fl-axis-line"><line x1="84.7" y1="314.46093749999994" y2="314.46093749999994" style="shape-rendering: crispedges; stroke-linecap: square; stroke-width: 1.5; opacity: 1; stroke: rgb(238, 238, 238);" x2="748.7630882263184"/></g><g class="fl-axis-ticks"><g transform="translate(112.36929534276324,314.46093749999994)" style="opacity: 1;"><line y2="7" style="stroke: rgb(238, 238, 238); stroke-width: 1.5;"/><text text-anchor="end" transform="translate(12.02667236328125, 18.81599998474121)" style="user-select: none; cursor: default; fill: rgb(0, 51, 102); font-size: 12.6px; font-weight: normal;"><tspan x="0" dy="0">Gen.</tspan></text></g><g transform="translate(167.70788602828975,314.46093749999994)" style="opacity: 1;"><line y2="7" style="stroke: rgb(238, 238, 238); stroke-width: 1.5;"/><text text-anchor="end" transform="translate(11.13836669921875, 18.81599998474121)" style="user-select: none; cursor: default; fill: rgb(0, 51, 102); font-size: 12.6px; font-weight: normal;"><tspan x="0" dy="0">Feb.</tspan></text></g><g transform="translate(223.04647671381628,314.46093749999994)" style="opacity: 1;"><line y2="7" style="stroke: rgb(238, 238, 238); stroke-width: 1.5;"/><text text-anchor="end" transform="translate(11.150978088378906,18.816000000000003)" style="user-select: none; cursor: default; fill: rgb(0, 51, 102); font-size: 12.6px; font-weight: normal;"><tspan x="0" dy="0">Mar.</tspan></text></g><g transform="translate(278.3850673993428,314.46093749999994)" style="opacity: 1;"><line y2="7" style="stroke: rgb(238, 238, 238); stroke-width: 1.5;"/><text text-anchor="end" transform="translate(12.070770263671875, 18.81599998474121)" style="user-select: none; cursor: default; fill: rgb(0, 51, 102); font-size: 12.6px; font-weight: normal;"><tspan x="0" dy="0">Abr.*</tspan></text></g><g transform="translate(333.7236580848693,314.46093749999994)" style="opacity: 1;"><line y2="7" style="stroke: rgb(238, 238, 238); stroke-width: 1.5;"/><text text-anchor="end" transform="translate(12.637771606445312, 18.81599998474121)" style="user-select: none; cursor: default; fill: rgb(0, 51, 102); font-size: 12.6px; font-weight: normal;"><tspan x="0" dy="0">Mai.*</tspan></text></g><g transform="translate(389.06224877039585,314.46093749999994)" style="opacity: 1;"><line y2="7" style="stroke: rgb(238, 238, 238); stroke-width: 1.5;"/><text text-anchor="end" transform="translate(11.465972900390625, 18.81599998474121)" style="user-select: none; cursor: default; fill: rgb(0, 51, 102); font-size: 12.6px; font-weight: normal;"><tspan x="0" dy="0">Jun.</tspan></text></g><g transform="translate(444.4008394559224,314.46093749999994)" style="opacity: 1;"><line y2="7" style="stroke: rgb(238, 238, 238); stroke-width: 1.5;"/><text text-anchor="end" transform="translate(9.626380920410156,18.816000000000003)" style="user-select: none; cursor: default; fill: rgb(0, 51, 102); font-size: 12.6px; font-weight: normal;"><tspan x="0" dy="0">Jul.</tspan></text></g><g transform="translate(499.7394301414489,314.46093749999994)" style="opacity: 1;"><line y2="7" style="stroke: rgb(238, 238, 238); stroke-width: 1.5;"/><text text-anchor="end" transform="translate(11.434471130371094,18.816000000000003)" style="user-select: none; cursor: default; fill: rgb(0, 51, 102); font-size: 12.6px; font-weight: normal;"><tspan x="0" dy="0">Ago.</tspan></text></g><g transform="translate(555.0780208269755,314.46093749999994)" style="opacity: 1;"><line y2="7" style="stroke: rgb(238, 238, 238); stroke-width: 1.5;"/><text text-anchor="end" transform="translate(10.168174743652344,18.816000000000003)" style="user-select: none; cursor: default; fill: rgb(0, 51, 102); font-size: 12.6px; font-weight: normal;"><tspan x="0" dy="0">Set.</tspan></text></g><g transform="translate(610.416611512502,314.46093749999994)" style="opacity: 1;"><line y2="7" style="stroke: rgb(238, 238, 238); stroke-width: 1.5;"/><text text-anchor="end" transform="translate(10.73516845703125, 18.81599998474121)" style="user-select: none; cursor: default; fill: rgb(0, 51, 102); font-size: 12.6px; font-weight: normal;"><tspan x="0" dy="0">Oct.</tspan></text></g><g transform="translate(665.7552021980285,314.46093749999994)" style="opacity: 1;"><line y2="7" style="stroke: rgb(238, 238, 238); stroke-width: 1.5;"/><text text-anchor="end" transform="translate(11.755783081054688,18.816000000000003)" style="user-select: none; cursor: default; fill: rgb(0, 51, 102); font-size: 12.6px; font-weight: normal;"><tspan x="0" dy="0">Nov.</tspan></text></g><g transform="translate(721.0937928835551,314.46093749999994)" style="opacity: 1;"><line y2="7" style="stroke: rgb(238, 238, 238); stroke-width: 1.5;"/><text text-anchor="end" transform="translate(11.207679748535156,18.816000000000003)" style="user-select: none; cursor: default; fill: rgb(0, 51, 102); font-size: 12.6px; font-weight: normal;"><tspan x="0" dy="0">Des.</tspan></text></g></g><g class="fl-axis-title"/></g><g class="fl-axis fl-x-axis fl-top-axis"><g class="fl-axis-line"/><g class="fl-axis-ticks"/><g class="fl-axis-title"/></g></g><g class="fl-y-axes"><g class="fl-axis fl-y-axis fl-left-axis"><g class="fl-axis-line"><line x1="84.7" x2="84.7" y1="314.46093749999994" y2="8.775" style="shape-rendering: crispedges; stroke-linecap: square; stroke-width: 0; opacity: 1; stroke: rgb(238, 238, 238);"/></g><g class="fl-axis-ticks"><g transform="translate(84.7,314.46093749999994)" style="opacity: 1;"><line x2="-7" style="stroke: rgb(238, 238, 238); stroke-width: 0;"/><text text-anchor="end" transform="translate(-10.5,5.082000000000001)" style="user-select: none; cursor: default; fill: rgb(0, 51, 102); font-size: 15.4px; font-weight: normal;"><tspan x="0" dy="0">0%</tspan></text></g><g transform="translate(84.7,32.28930288461537)" style="opacity: 1;"><line x2="-7" style="stroke: rgb(238, 238, 238); stroke-width: 0;"/><text text-anchor="end" transform="translate(-10.5,5.082000000000001)" style="user-select: none; cursor: default; fill: rgb(0, 51, 102); font-size: 15.4px; font-weight: normal;"><tspan x="0" dy="0">60%</tspan></text></g><g transform="translate(84.7,79.31790865384613)" style="opacity: 1;"><line x2="-7" style="stroke: rgb(238, 238, 238); stroke-width: 0;"/><text text-anchor="end" transform="translate(-10.5,5.082000000000001)" style="user-select: none; cursor: default; fill: rgb(0, 51, 102); font-size: 15.4px; font-weight: normal;"><tspan x="0" dy="0">50%</tspan></text></g><g transform="translate(84.7,126.3465144230769)" style="opacity: 1;"><line x2="-7" style="stroke: rgb(238, 238, 238); stroke-width: 0;"/><text text-anchor="end" transform="translate(-10.5,5.082000000000001)" style="user-select: none; cursor: default; fill: rgb(0, 51, 102); font-size: 15.4px; font-weight: normal;"><tspan x="0" dy="0">40%</tspan></text></g><g transform="translate(84.7,173.37512019230766)" style="opacity: 1;"><line x2="-7" style="stroke: rgb(238, 238, 238); stroke-width: 0;"/><text text-anchor="end" transform="translate(-10.5,5.082000000000001)" style="user-select: none; cursor: default; fill: rgb(0, 51, 102); font-size: 15.4px; font-weight: normal;"><tspan x="0" dy="0">30%</tspan></text></g><g transform="translate(84.7,220.4037259615384)" style="opacity: 1;"><line x2="-7" style="stroke: rgb(238, 238, 238); stroke-width: 0;"/><text text-anchor="end" transform="translate(-10.5,5.082000000000001)" style="user-select: none; cursor: default; fill: rgb(0, 51, 102); font-size: 15.4px; font-weight: normal;"><tspan x="0" dy="0">20%</tspan></text></g><g transform="translate(84.7,267.4323317307692)" style="opacity: 1;"><line x2="-7" style="stroke: rgb(238, 238, 238); stroke-width: 0;"/><text text-anchor="end" transform="translate(-10.5,5.082000000000001)" style="user-select: none; cursor: default; fill: rgb(0, 51, 102); font-size: 15.4px; font-weight: normal;"><tspan x="0" dy="0">10%</tspan></text></g></g><g class="fl-axis-title"/></g><g class="fl-axis fl-y-axis fl-right-axis"><g class="fl-axis-line"/><g class="fl-axis-ticks"/><g class="fl-axis-title"/></g></g><g class="axis-highlights" style="opacity: 1;"><g class="line y" transform="translate(84.7, 212.8791490384615)"><line width="0" stroke-dasharray="2 2" stroke="#003366" stroke-width="2" x2="664.0630882263183"/><text transform="translate(658.4630882263183, -5.6000000000000005)" text-anchor="end" font-size="11.200000000000001"><tspan class="bg-label" y="0px" x="0" font-weight="regular" display="block" fill="none" stroke="#FFFFFF" stroke-width="2">Mitjana 2019: 21,6%</tspan><tspan class="fg-label" y="0px" x="0" font-weight="regular" fill="#003366">Mitjana 2019: 21,6%</tspan></text></g></g></g><g class="fl-data-foreground" clip-path="url(#fl-chart-layout-1-clip-path)"/></g><g class="facet-title" transform="translate(0, 0)"><rect class="facet-title-bg" height="0" fill="#eeeeee" x="84.7" clip-path="url(#facet-clip-0)"/><text class="facet-title-text" font-size="17.5" font-weight="bold" dx="0" dy="0" x="84.7" clip-path="url(#facet-clip-0)" opacity="0"/></g><clipPath class="facet-clip" id="facet-clip-0"><rect transform="translate(-10.5, -10.5)" width="769.7630882263184" height="344.9109375"/></clipPath></g></g><g class="annotations below"/><g id="areas"/><g id="lines"><g class="series"><clipPath id="clip-0-0"><rect width="664.0630882263183" x="84.7" y="5.975" height="311.2859375"/></clipPath><path class="line" opacity="1" pointer-events="none" fill="none" stroke="#1d6996" stroke-width="2.8000000000000003" transform="translate(0,0)" clip-path="url(#clip-0-0)" clip-path-id="0-0" d="M112.36929534276324,300.822641826923C130.81549223793874,302.9389290865384,149.26168913311426,305.05521634615377,167.70788602828975,305.05521634615377C186.15408292346527,305.05521634615377,204.60027981864076,286.24377403846154,223.04647671381628,277.30833894230767C241.4926736089918,268.3729038461538,259.9388705041673,253.6372740384615,278.3850673993428,251.44260576923074C296.8312642945183,249.24793749999998,315.27746118969384,250.34527163461536,333.7236580848693,248.1506033653846C352.1698549800448,245.95593509615384,370.61605187522036,220.4037259615384,389.06224877039585,204.41399999999996C407.50844566557134,188.4242740384615,425.9546425607469,172.6696911057692,444.4008394559224,152.21224759615382C462.84703635109787,131.75480408653843,481.2932332462734,81.66933894230769,499.7394301414489,81.66933894230769C518.1856270366244,81.66933894230769,536.6318239318,222.28487019230764,555.0780208269755,222.28487019230764C573.524217722151,222.28487019230764,591.9704146173265,212.40886298076916,610.416611512502,212.40886298076916C628.8628084076774,212.40886298076916,647.309005302853,242.50717067307687,665.7552021980285,242.50717067307687C684.201399093204,242.50717067307687,702.6475959883796,232.39602043269227,721.0937928835551,222.28487019230764"/></g><g class="series"><clipPath id="clip-0-1"><rect width="664.0630882263183" x="84.7" y="5.975" height="311.2859375"/></clipPath><path class="line" opacity="1" pointer-events="none" fill="none" stroke="#00cccc" stroke-width="2.8000000000000003" transform="translate(0,0)" clip-path="url(#clip-0-1)" clip-path-id="0-1" d="M112.36929534276324,265.08090144230766C130.81549223793874,260.14289783653845,149.26168913311426,255.2048942307692,167.70788602828975,255.2048942307692C186.15408292346527,255.2048942307692,204.60027981864076,273.0757644230769,223.04647671381628,290.9466346153846M389.06224877039585,223.69572836538458C407.50844566557134,202.41528425480766,425.9546425607469,181.13484014423074,444.4008394559224,153.62310576923073C462.84703635109787,126.11137139423074,481.2932332462734,58.62532211538462,499.7394301414489,58.62532211538462C518.1856270366244,58.62532211538462,536.6318239318,192.97037259615377,555.0780208269755,228.39858894230764C573.524217722151,263.82680528846146,591.9704146173265,267.82423677884606,610.416611512502,281.54091346153837C628.8628084076774,295.2575901442307,647.309005302853,310.6986490384615,665.7552021980285,310.6986490384615C684.201399093204,310.6986490384615,702.6475959883796,290.4763485576923,721.0937928835551,270.254048076923"/></g><g class="series"><clipPath id="clip-0-2"><rect width="664.0630882263183" x="84.7" y="5.975" height="311.2859375"/></clipPath><path class="line" opacity="1" pointer-events="none" fill="none" stroke="#c2c2c2" stroke-width="2.8000000000000003" transform="translate(0,0)" clip-path="url(#clip-0-2)" clip-path-id="0-2" d="M112.36929534276324,275.4271947115384C130.81549223793874,266.2958070913461,149.26168913311426,257.1644194711538,167.70788602828975,251.44260576923074C186.15408292346527,245.72079206730766,204.60027981864076,246.11269711538458,223.04647671381628,241.09631249999995C241.4926736089918,236.07992788461533,259.9388705041673,221.34429807692302,278.3850673993428,221.34429807692302C296.8312642945183,221.34429807692302,315.27746118969384,234.04202163461534,333.7236580848693,234.04202163461534C352.1698549800448,234.04202163461534,370.61605187522036,212.95753004807688,389.06224877039585,202.06256971153843C407.50844566557134,191.16760937499998,425.9546425607469,189.12970312499996,444.4008394559224,168.67225961538458C462.84703635109787,148.2148161057692,481.2932332462734,79.31790865384613,499.7394301414489,79.31790865384613C518.1856270366244,79.31790865384613,536.6318239318,211.7818149038461,555.0780208269755,223.69572836538458C573.524217722151,235.60964182692302,591.9704146173265,241.56659855769226,610.416611512502,241.56659855769226C628.8628084076774,241.56659855769226,647.309005302853,232.47440144230768,665.7552021980285,225.57687259615383C684.201399093204,218.67934375,702.6475959883796,209.43038461538455,721.0937928835551,200.18142548076915"/></g></g><g id="data-points"><g class="series" transform="translate(0,0)" clip-path="url(#facet-clip-0)"><path class="data-point" visibility="visible" fill="#1d6996" data-type="point" transform="translate(0, 0)" d="M108.86929534276324,300.822641826923A3.5,3.5,0,1,1,115.86929534276324,300.822641826923A3.5,3.5,0,1,1,108.86929534276324,300.822641826923Z" opacity="1" id="point-0-0"/><path class="data-point" visibility="visible" fill="#1d6996" data-type="point" transform="translate(0, 0)" d="M164.20788602828975,305.05521634615377A3.5,3.5,0,1,1,171.20788602828975,305.05521634615377A3.5,3.5,0,1,1,164.20788602828975,305.05521634615377Z" opacity="1" id="point-0-1"/><path class="data-point" visibility="visible" fill="#1d6996" data-type="point" transform="translate(0, 0)" d="M219.54647671381628,277.30833894230767A3.5,3.5,0,1,1,226.54647671381628,277.30833894230767A3.5,3.5,0,1,1,219.54647671381628,277.30833894230767Z" opacity="1" id="point-0-2"/><path class="data-point" visibility="visible" fill="#1d6996" data-type="point" transform="translate(0, 0)" d="M274.8850673993428,251.44260576923074A3.5,3.5,0,1,1,281.8850673993428,251.44260576923074A3.5,3.5,0,1,1,274.8850673993428,251.44260576923074Z" opacity="1" id="point-0-3"/><path class="data-point" visibility="visible" fill="#1d6996" data-type="point" transform="translate(0, 0)" d="M330.2236580848693,248.1506033653846A3.5,3.5,0,1,1,337.2236580848693,248.1506033653846A3.5,3.5,0,1,1,330.2236580848693,248.1506033653846Z" opacity="1" id="point-0-4"/><path class="data-point" visibility="visible" fill="#1d6996" data-type="point" transform="translate(0, 0)" d="M385.56224877039585,204.41399999999996A3.5,3.5,0,1,1,392.56224877039585,204.41399999999996A3.5,3.5,0,1,1,385.56224877039585,204.41399999999996Z" opacity="1" id="point-0-5"/><path class="data-point" visibility="visible" fill="#1d6996" data-type="point" transform="translate(0, 0)" d="M440.9008394559224,152.21224759615382A3.5,3.5,0,1,1,447.9008394559224,152.21224759615382A3.5,3.5,0,1,1,440.9008394559224,152.21224759615382Z" opacity="1" id="point-0-6"/><path class="data-point" visibility="visible" fill="#1d6996" data-type="point" transform="translate(0, 0)" d="M496.2394301414489,81.66933894230769A3.5,3.5,0,1,1,503.2394301414489,81.66933894230769A3.5,3.5,0,1,1,496.2394301414489,81.66933894230769Z" opacity="1" id="point-0-7"/><path class="data-point" visibility="visible" fill="#1d6996" data-type="point" transform="translate(0, 0)" d="M551.5780208269755,222.28487019230764A3.5,3.5,0,1,1,558.5780208269755,222.28487019230764A3.5,3.5,0,1,1,551.5780208269755,222.28487019230764Z" opacity="1" id="point-0-8"/><path class="data-point" visibility="visible" fill="#1d6996" data-type="point" transform="translate(0, 0)" d="M606.916611512502,212.40886298076916A3.5,3.5,0,1,1,613.916611512502,212.40886298076916A3.5,3.5,0,1,1,606.916611512502,212.40886298076916Z" opacity="1" id="point-0-9"/><path class="data-point" visibility="visible" fill="#1d6996" data-type="point" transform="translate(0, 0)" d="M662.2552021980285,242.50717067307687A3.5,3.5,0,1,1,669.2552021980285,242.50717067307687A3.5,3.5,0,1,1,662.2552021980285,242.50717067307687Z" opacity="1" id="point-0-10"/><path class="data-point" visibility="visible" fill="#1d6996" data-type="point" transform="translate(0, 0)" d="M717.5937928835551,222.28487019230764A3.5,3.5,0,1,1,724.5937928835551,222.28487019230764A3.5,3.5,0,1,1,717.5937928835551,222.28487019230764Z" opacity="1" id="point-0-11"/></g><g class="series" transform="translate(0,0)" clip-path="url(#facet-clip-0)"><path class="data-point" visibility="visible" fill="#00cccc" data-type="point" transform="translate(0, 0)" d="M108.86929534276324,265.08090144230766A3.5,3.5,0,1,1,115.86929534276324,265.08090144230766A3.5,3.5,0,1,1,108.86929534276324,265.08090144230766Z" opacity="1" id="point-1-0"/><path class="data-point" visibility="visible" fill="#00cccc" data-type="point" transform="translate(0, 0)" d="M164.20788602828975,255.2048942307692A3.5,3.5,0,1,1,171.20788602828975,255.2048942307692A3.5,3.5,0,1,1,164.20788602828975,255.2048942307692Z" opacity="1" id="point-1-1"/><path class="data-point" visibility="visible" fill="#00cccc" data-type="point" transform="translate(0, 0)" d="M219.54647671381628,290.9466346153846A3.5,3.5,0,1,1,226.54647671381628,290.9466346153846A3.5,3.5,0,1,1,219.54647671381628,290.9466346153846Z" opacity="1" id="point-1-2"/><path class="data-point" visibility="visible" fill="#00cccc" data-type="point" transform="translate(0, 0)" d="M385.56224877039585,223.69572836538458A3.5,3.5,0,1,1,392.56224877039585,223.69572836538458A3.5,3.5,0,1,1,385.56224877039585,223.69572836538458Z" opacity="1" id="point-1-5"/><path class="data-point" visibility="visible" fill="#00cccc" data-type="point" transform="translate(0, 0)" d="M440.9008394559224,153.62310576923073A3.5,3.5,0,1,1,447.9008394559224,153.62310576923073A3.5,3.5,0,1,1,440.9008394559224,153.62310576923073Z" opacity="1" id="point-1-6"/><path class="data-point" visibility="visible" fill="#00cccc" data-type="point" transform="translate(0, 0)" d="M496.2394301414489,58.62532211538462A3.5,3.5,0,1,1,503.2394301414489,58.62532211538462A3.5,3.5,0,1,1,496.2394301414489,58.62532211538462Z" opacity="1" id="point-1-7"/><path class="data-point" visibility="visible" fill="#00cccc" data-type="point" transform="translate(0, 0)" d="M551.5780208269755,228.39858894230764A3.5,3.5,0,1,1,558.5780208269755,228.39858894230764A3.5,3.5,0,1,1,551.5780208269755,228.39858894230764Z" opacity="1" id="point-1-8"/><path class="data-point" visibility="visible" fill="#00cccc" data-type="point" transform="translate(0, 0)" d="M606.916611512502,281.54091346153837A3.5,3.5,0,1,1,613.916611512502,281.54091346153837A3.5,3.5,0,1,1,606.916611512502,281.54091346153837Z" opacity="1" id="point-1-9"/><path class="data-point" visibility="visible" fill="#00cccc" data-type="point" transform="translate(0, 0)" d="M662.2552021980285,310.6986490384615A3.5,3.5,0,1,1,669.2552021980285,310.6986490384615A3.5,3.5,0,1,1,662.2552021980285,310.6986490384615Z" opacity="1" id="point-1-10"/><path class="data-point" visibility="visible" fill="#00cccc" data-type="point" transform="translate(0, 0)" d="M717.5937928835551,270.254048076923A3.5,3.5,0,1,1,724.5937928835551,270.254048076923A3.5,3.5,0,1,1,717.5937928835551,270.254048076923Z" opacity="1" id="point-1-11"/></g><g class="series" transform="translate(0,0)" clip-path="url(#facet-clip-0)"><path class="data-point" visibility="visible" fill="#c2c2c2" data-type="point" transform="translate(0, 0)" d="M108.86929534276324,275.4271947115384A3.5,3.5,0,1,1,115.86929534276324,275.4271947115384A3.5,3.5,0,1,1,108.86929534276324,275.4271947115384Z" opacity="1" id="point-2-0"/><path class="data-point" visibility="visible" fill="#c2c2c2" data-type="point" transform="translate(0, 0)" d="M164.20788602828975,251.44260576923074A3.5,3.5,0,1,1,171.20788602828975,251.44260576923074A3.5,3.5,0,1,1,164.20788602828975,251.44260576923074Z" opacity="1" id="point-2-1"/><path class="data-point" visibility="visible" fill="#c2c2c2" data-type="point" transform="translate(0, 0)" d="M219.54647671381628,241.09631249999995A3.5,3.5,0,1,1,226.54647671381628,241.09631249999995A3.5,3.5,0,1,1,219.54647671381628,241.09631249999995Z" opacity="1" id="point-2-2"/><path class="data-point" visibility="visible" fill="#c2c2c2" data-type="point" transform="translate(0, 0)" d="M274.8850673993428,221.34429807692302A3.5,3.5,0,1,1,281.8850673993428,221.34429807692302A3.5,3.5,0,1,1,274.8850673993428,221.34429807692302Z" opacity="1" id="point-2-3"/><path class="data-point" visibility="visible" fill="#c2c2c2" data-type="point" transform="translate(0, 0)" d="M330.2236580848693,234.04202163461534A3.5,3.5,0,1,1,337.2236580848693,234.04202163461534A3.5,3.5,0,1,1,330.2236580848693,234.04202163461534Z" opacity="1" id="point-2-4"/><path class="data-point" visibility="visible" fill="#c2c2c2" data-type="point" transform="translate(0, 0)" d="M385.56224877039585,202.06256971153843A3.5,3.5,0,1,1,392.56224877039585,202.06256971153843A3.5,3.5,0,1,1,385.56224877039585,202.06256971153843Z" opacity="1" id="point-2-5"/><path class="data-point" visibility="visible" fill="#c2c2c2" data-type="point" transform="translate(0, 0)" d="M440.9008394559224,168.67225961538458A3.5,3.5,0,1,1,447.9008394559224,168.67225961538458A3.5,3.5,0,1,1,440.9008394559224,168.67225961538458Z" opacity="1" id="point-2-6"/><path class="data-point" visibility="visible" fill="#c2c2c2" data-type="point" transform="translate(0, 0)" d="M496.2394301414489,79.31790865384613A3.5,3.5,0,1,1,503.2394301414489,79.31790865384613A3.5,3.5,0,1,1,496.2394301414489,79.31790865384613Z" opacity="1" id="point-2-7"/><path class="data-point" visibility="visible" fill="#c2c2c2" data-type="point" transform="translate(0, 0)" d="M551.5780208269755,223.69572836538458A3.5,3.5,0,1,1,558.5780208269755,223.69572836538458A3.5,3.5,0,1,1,551.5780208269755,223.69572836538458Z" opacity="1" id="point-2-8"/><path class="data-point" visibility="visible" fill="#c2c2c2" data-type="point" transform="translate(0, 0)" d="M606.916611512502,241.56659855769226A3.5,3.5,0,1,1,613.916611512502,241.56659855769226A3.5,3.5,0,1,1,606.916611512502,241.56659855769226Z" opacity="1" id="point-2-9"/><path class="data-point" visibility="visible" fill="#c2c2c2" data-type="point" transform="translate(0, 0)" d="M662.2552021980285,225.57687259615383A3.5,3.5,0,1,1,669.2552021980285,225.57687259615383A3.5,3.5,0,1,1,662.2552021980285,225.57687259615383Z" opacity="1" id="point-2-10"/><path class="data-point" visibility="visible" fill="#c2c2c2" data-type="point" transform="translate(0, 0)" d="M717.5937928835551,200.18142548076915A3.5,3.5,0,1,1,724.5937928835551,200.18142548076915A3.5,3.5,0,1,1,717.5937928835551,200.18142548076915Z" opacity="1" id="point-2-11"/></g></g><g id="lines-secondary"/><g id="data-point-labels"><g class="series" transform="translate(0,0)" clip-path="url(#facet-clip-0)"/><g class="series" transform="translate(0,0)" clip-path="url(#facet-clip-0)"/><g class="series" transform="translate(0,0)" clip-path="url(#facet-clip-0)"/></g><g id="stack-labels"/><g class="annotations above"/></svg></svg>