<svg xmlns='http://www.w3.org/2000/svg' version='1.1' width='786px' height='516px'><svg xmlns="http://www.w3.org/2000/svg" class="fl-legend-icon" height="14" width="0" style="display: none;" x="0" y="0"><path style="fill: rgb(29, 105, 150); stroke: none; stroke-width: 0;"/></svg><svg xmlns="http://www.w3.org/2000/svg" class="fl-legend-icon" height="14" width="0" style="display: none;" x="0" y="0"><path style="fill: rgb(0, 204, 204); stroke: none; stroke-width: 0;"/></svg><svg xmlns="http://www.w3.org/2000/svg" class="fl-legend-icon" height="14" width="0" style="display: none;" x="0" y="0"><path style="fill: rgb(194, 194, 194); stroke: none; stroke-width: 0;"/></svg><svg xmlns="http://www.w3.org/2000/svg" id="graphic" fill="currentColor" font-family="Source Sans Pro" width="774.75" height="341.4609375" x="10.5" y="174.5390625"><g class="facets"><g class="facet" transform="translate(0,0)" opacity="1"><g class="fl-chart"><rect class="fl-chart-debug-rectangle" x="0" y="0" style="stroke-width: 1px; fill: none; display: none; stroke: red;" width="774.75" height="341.46093749999994"/><clipPath class="fl-data-clip-path" id="fl-chart-layout-1-clip-path"><rect x="84.7" y="8.775" width="676.8130882263183" height="305.68593749999997"/></clipPath><clipPath class="fl-grid-clip-path" id="fl-chart-layout-1-grid-clip-path"><rect x="83.20000004470349" y="8.025000022351742" width="679.8130881369113" height="307.1859374552965"/></clipPath><g class="fl-chart-background"><rect class="fl-chart-fill" x="84.7" y="8.775" width="676.8130882263183" height="305.68593749999997" fill="none"/><image class="fl-chart-image" x="84.7" y="8.775" width="676.8130882263183" height="305.68593749999997" preserveAspectRatio="none"/><rect class="fl-chart-interaction" x="84.7" y="8.775" width="676.8130882263183" height="305.68593749999997" style="opacity: 0;"/></g><g class="fl-data-background" clip-path="url(#fl-chart-layout-1-clip-path)"/><g class="fl-gridlines" clip-path="url(#fl-chart-layout-1-grid-clip-path)" style="pointer-events: none;"><g class="fl-gridlines-vertical"/><g class="fl-gridlines-horizontal"><line x1="84.7" x2="761.5130882263184" y1="314.46093749999994" y2="314.46093749999994" style="shape-rendering: crispedges; opacity: 1; stroke: rgb(238, 238, 238); stroke-width: 0.75;"/><line x1="84.7" x2="761.5130882263184" y1="267.4323317307692" y2="267.4323317307692" style="shape-rendering: crispedges; opacity: 1; stroke: rgb(238, 238, 238); stroke-width: 0.75;"/><line x1="84.7" x2="761.5130882263184" y1="220.4037259615384" y2="220.4037259615384" style="shape-rendering: crispedges; opacity: 1; stroke: rgb(238, 238, 238); stroke-width: 0.75;"/><line x1="84.7" x2="761.5130882263184" y1="173.37512019230766" y2="173.37512019230766" style="shape-rendering: crispedges; opacity: 1; stroke: rgb(238, 238, 238); stroke-width: 0.75;"/><line x1="84.7" x2="761.5130882263184" y1="126.3465144230769" y2="126.3465144230769" style="shape-rendering: crispedges; opacity: 1; stroke: rgb(238, 238, 238); stroke-width: 0.75;"/><line x1="84.7" x2="761.5130882263184" y1="79.31790865384613" y2="79.31790865384613" style="shape-rendering: crispedges; opacity: 1; stroke: rgb(238, 238, 238); stroke-width: 0.75;"/><line x1="84.7" x2="761.5130882263184" y1="32.28930288461537" y2="32.28930288461537" style="shape-rendering: crispedges; opacity: 1; stroke: rgb(238, 238, 238); stroke-width: 0.75;"/></g></g><g class="fl-axes"><g class="fl-x-axes"><g class="fl-axis fl-x-axis fl-bottom-axis"><g class="fl-axis-line"><line x1="84.7" y1="314.46093749999994" y2="314.46093749999994" style="shape-rendering: crispedges; stroke-linecap: square; stroke-width: 1.5; opacity: 1; stroke: rgb(238, 238, 238);" x2="761.5130882263184"/></g><g class="fl-axis-ticks"><g transform="translate(112.90054534276324,314.46093749999994)" style="opacity: 1;"><line y2="7" style="stroke: rgb(238, 238, 238); stroke-width: 1.5;"/><text text-anchor="end" transform="translate(12.026687622070312,18.816000000000003)" style="user-select: none; cursor: default; fill: rgb(0, 51, 102); font-size: 12.6px; font-weight: normal;"><tspan x="0" dy="0">Gen.</tspan></text></g><g transform="translate(169.30163602828975,314.46093749999994)" style="opacity: 1;"><line y2="7" style="stroke: rgb(238, 238, 238); stroke-width: 1.5;"/><text text-anchor="end" transform="translate(11.138374328613281,18.816000000000003)" style="user-select: none; cursor: default; fill: rgb(0, 51, 102); font-size: 12.6px; font-weight: normal;"><tspan x="0" dy="0">Feb.</tspan></text></g><g transform="translate(225.70272671381628,314.46093749999994)" style="opacity: 1;"><line y2="7" style="stroke: rgb(238, 238, 238); stroke-width: 1.5;"/><text text-anchor="end" transform="translate(11.150978088378906,18.816000000000003)" style="user-select: none; cursor: default; fill: rgb(0, 51, 102); font-size: 12.6px; font-weight: normal;"><tspan x="0" dy="0">Mar.</tspan></text></g><g transform="translate(282.1038173993428,314.46093749999994)" style="opacity: 1;"><line y2="7" style="stroke: rgb(238, 238, 238); stroke-width: 1.5;"/><text text-anchor="end" transform="translate(12.070777893066406,18.816000000000003)" style="user-select: none; cursor: default; fill: rgb(0, 51, 102); font-size: 12.6px; font-weight: normal;"><tspan x="0" dy="0">Abr.*</tspan></text></g><g transform="translate(338.5049080848693,314.46093749999994)" style="opacity: 1;"><line y2="7" style="stroke: rgb(238, 238, 238); stroke-width: 1.5;"/><text text-anchor="end" transform="translate(12.637779235839844,18.816000000000003)" style="user-select: none; cursor: default; fill: rgb(0, 51, 102); font-size: 12.6px; font-weight: normal;"><tspan x="0" dy="0">Mai.*</tspan></text></g><g transform="translate(394.90599877039585,314.46093749999994)" style="opacity: 1;"><line y2="7" style="stroke: rgb(238, 238, 238); stroke-width: 1.5;"/><text text-anchor="end" transform="translate(11.465980529785156,18.816000000000003)" style="user-select: none; cursor: default; fill: rgb(0, 51, 102); font-size: 12.6px; font-weight: normal;"><tspan x="0" dy="0">Jun.</tspan></text></g><g transform="translate(451.3070894559224,314.46093749999994)" style="opacity: 1;"><line y2="7" style="stroke: rgb(238, 238, 238); stroke-width: 1.5;"/><text text-anchor="end" transform="translate(9.626380920410156,18.816000000000003)" style="user-select: none; cursor: default; fill: rgb(0, 51, 102); font-size: 12.6px; font-weight: normal;"><tspan x="0" dy="0">Jul.</tspan></text></g><g transform="translate(507.7081801414489,314.46093749999994)" style="opacity: 1;"><line y2="7" style="stroke: rgb(238, 238, 238); stroke-width: 1.5;"/><text text-anchor="end" transform="translate(11.434471130371094,18.816000000000003)" style="user-select: none; cursor: default; fill: rgb(0, 51, 102); font-size: 12.6px; font-weight: normal;"><tspan x="0" dy="0">Ago.</tspan></text></g><g transform="translate(564.1092708269755,314.46093749999994)" style="opacity: 1;"><line y2="7" style="stroke: rgb(238, 238, 238); stroke-width: 1.5;"/><text text-anchor="end" transform="translate(10.168174743652344,18.816000000000003)" style="user-select: none; cursor: default; fill: rgb(0, 51, 102); font-size: 12.6px; font-weight: normal;"><tspan x="0" dy="0">Set.</tspan></text></g><g transform="translate(620.510361512502,314.46093749999994)" style="opacity: 1;"><line y2="7" style="stroke: rgb(238, 238, 238); stroke-width: 1.5;"/><text text-anchor="end" transform="translate(10.735176086425781,18.816000000000003)" style="user-select: none; cursor: default; fill: rgb(0, 51, 102); font-size: 12.6px; font-weight: normal;"><tspan x="0" dy="0">Oct.</tspan></text></g><g transform="translate(676.9114521980285,314.46093749999994)" style="opacity: 1;"><line y2="7" style="stroke: rgb(238, 238, 238); stroke-width: 1.5;"/><text text-anchor="end" transform="translate(11.755783081054688,18.816000000000003)" style="user-select: none; cursor: default; fill: rgb(0, 51, 102); font-size: 12.6px; font-weight: normal;"><tspan x="0" dy="0">Nov.</tspan></text></g><g transform="translate(733.3125428835551,314.46093749999994)" style="opacity: 1;"><line y2="7" style="stroke: rgb(238, 238, 238); stroke-width: 1.5;"/><text text-anchor="end" transform="translate(11.207679748535156,18.816000000000003)" style="user-select: none; cursor: default; fill: rgb(0, 51, 102); font-size: 12.6px; font-weight: normal;"><tspan x="0" dy="0">Des.</tspan></text></g></g><g class="fl-axis-title"/></g><g class="fl-axis fl-x-axis fl-top-axis"><g class="fl-axis-line"/><g class="fl-axis-ticks"/><g class="fl-axis-title"/></g></g><g class="fl-y-axes"><g class="fl-axis fl-y-axis fl-left-axis"><g class="fl-axis-line"><line x1="84.7" x2="84.7" y1="314.46093749999994" y2="8.775" style="shape-rendering: crispedges; stroke-linecap: square; stroke-width: 0; opacity: 1; stroke: rgb(238, 238, 238);"/></g><g class="fl-axis-ticks"><g transform="translate(84.7,314.46093749999994)" style="opacity: 1;"><line x2="-7" style="stroke: rgb(238, 238, 238); stroke-width: 0;"/><text text-anchor="end" transform="translate(-10.5,5.082000000000001)" style="user-select: none; cursor: default; fill: rgb(0, 51, 102); font-size: 15.4px; font-weight: normal;"><tspan x="0" dy="0">0%</tspan></text></g><g transform="translate(84.7,32.28930288461537)" style="opacity: 1;"><line x2="-7" style="stroke: rgb(238, 238, 238); stroke-width: 0;"/><text text-anchor="end" transform="translate(-10.5,5.082000000000001)" style="user-select: none; cursor: default; fill: rgb(0, 51, 102); font-size: 15.4px; font-weight: normal;"><tspan x="0" dy="0">60%</tspan></text></g><g transform="translate(84.7,79.31790865384613)" style="opacity: 1;"><line x2="-7" style="stroke: rgb(238, 238, 238); stroke-width: 0;"/><text text-anchor="end" transform="translate(-10.5,5.082000000000001)" style="user-select: none; cursor: default; fill: rgb(0, 51, 102); font-size: 15.4px; font-weight: normal;"><tspan x="0" dy="0">50%</tspan></text></g><g transform="translate(84.7,126.3465144230769)" style="opacity: 1;"><line x2="-7" style="stroke: rgb(238, 238, 238); stroke-width: 0;"/><text text-anchor="end" transform="translate(-10.5,5.082000000000001)" style="user-select: none; cursor: default; fill: rgb(0, 51, 102); font-size: 15.4px; font-weight: normal;"><tspan x="0" dy="0">40%</tspan></text></g><g transform="translate(84.7,173.37512019230766)" style="opacity: 1;"><line x2="-7" style="stroke: rgb(238, 238, 238); stroke-width: 0;"/><text text-anchor="end" transform="translate(-10.5,5.082000000000001)" style="user-select: none; cursor: default; fill: rgb(0, 51, 102); font-size: 15.4px; font-weight: normal;"><tspan x="0" dy="0">30%</tspan></text></g><g transform="translate(84.7,220.4037259615384)" style="opacity: 1;"><line x2="-7" style="stroke: rgb(238, 238, 238); stroke-width: 0;"/><text text-anchor="end" transform="translate(-10.5,5.082000000000001)" style="user-select: none; cursor: default; fill: rgb(0, 51, 102); font-size: 15.4px; font-weight: normal;"><tspan x="0" dy="0">20%</tspan></text></g><g transform="translate(84.7,267.4323317307692)" style="opacity: 1;"><line x2="-7" style="stroke: rgb(238, 238, 238); stroke-width: 0;"/><text text-anchor="end" transform="translate(-10.5,5.082000000000001)" style="user-select: none; cursor: default; fill: rgb(0, 51, 102); font-size: 15.4px; font-weight: normal;"><tspan x="0" dy="0">10%</tspan></text></g></g><g class="fl-axis-title"/></g><g class="fl-axis fl-y-axis fl-right-axis"><g class="fl-axis-line"/><g class="fl-axis-ticks"/><g class="fl-axis-title"/></g></g><g class="axis-highlights" style="opacity: 1;"><g class="line y" transform="translate(84.7, 211.9385769230769)"><line width="0" stroke-dasharray="2 2" stroke="#003366" stroke-width="2" x2="676.8130882263183"/><text transform="translate(5.6000000000000005, -5.6000000000000005)" text-anchor="start" font-size="11.200000000000001"><tspan class="bg-label" y="0px" x="0" font-weight="regular" display="block" fill="none" stroke="#FFFFFF" stroke-width="2">Mitjana 2019: 21,8%</tspan><tspan class="fg-label" y="0px" x="0" font-weight="regular" fill="#003366">Mitjana 2019: 21,8%</tspan></text></g></g></g><g class="fl-data-foreground" clip-path="url(#fl-chart-layout-1-clip-path)"/></g><g class="facet-title" transform="translate(0, 0)"><rect class="facet-title-bg" height="0" fill="#eeeeee" x="84.7" clip-path="url(#facet-clip-0)"/><text class="facet-title-text" font-size="17.5" font-weight="bold" dx="0" dy="0" x="84.7" clip-path="url(#facet-clip-0)" opacity="0"/></g><clipPath class="facet-clip" id="facet-clip-0"><rect transform="translate(-10.5, -10.5)" width="782.5130882263184" height="344.9109375"/></clipPath></g></g><g class="annotations below"/><g id="areas"/><g id="lines"><g class="series"><clipPath id="clip-0-0"><rect width="676.8130882263183" x="84.7" y="5.975" height="311.2859375"/></clipPath><path class="line" opacity="1" pointer-events="none" fill="none" stroke="#1d6996" stroke-width="2.8000000000000003" transform="translate(0,0)" clip-path="url(#clip-0-0)" clip-path-id="0-0" d="M112.90054534276324,300.822641826923C131.7009089046054,302.9389290865384,150.50127246644757,305.05521634615377,169.30163602828975,305.05521634615377C188.10199959013192,305.05521634615377,206.9023631519741,286.24377403846154,225.70272671381628,277.30833894230767C244.50309027565845,268.3729038461538,263.3034538375006,253.6372740384615,282.1038173993428,251.44260576923074C300.904180961185,249.24793749999998,319.70454452302715,250.34527163461536,338.5049080848693,248.1506033653846C357.3052716467115,245.95593509615384,376.1056352085537,220.4037259615384,394.90599877039585,204.41399999999996C413.70636233223803,188.4242740384615,432.5067258940802,172.6696911057692,451.3070894559224,152.21224759615382C470.10745301776456,131.75480408653843,488.90781657960673,81.66933894230769,507.7081801414489,81.66933894230769C526.5085437032911,81.66933894230769,545.3089072651333,222.28487019230764,564.1092708269755,222.28487019230764C582.9096343888176,222.28487019230764,601.7099979506598,212.40886298076916,620.510361512502,212.40886298076916C639.3107250743442,212.40886298076916,658.1110886361863,242.50717067307687,676.9114521980285,242.50717067307687C695.7118157598708,242.50717067307687,714.5121793217129,232.39602043269224,733.3125428835551,222.28487019230764"/></g><g class="series"><clipPath id="clip-0-1"><rect width="676.8130882263183" x="84.7" y="5.975" height="311.2859375"/></clipPath><path class="line" opacity="1" pointer-events="none" fill="none" stroke="#00cccc" stroke-width="2.8000000000000003" transform="translate(0,0)" clip-path="url(#clip-0-1)" clip-path-id="0-1" d="M112.90054534276324,265.08090144230766C131.7009089046054,260.14289783653845,150.50127246644757,255.2048942307692,169.30163602828975,255.2048942307692C188.10199959013192,255.2048942307692,206.9023631519741,273.0757644230769,225.70272671381628,290.9466346153846M394.90599877039585,223.69572836538458C413.70636233223803,202.41528425480766,432.5067258940802,181.13484014423074,451.3070894559224,153.62310576923073C470.10745301776456,126.11137139423074,488.90781657960673,58.62532211538462,507.7081801414489,58.62532211538462C526.5085437032911,58.62532211538462,545.3089072651333,192.97037259615377,564.1092708269755,228.39858894230764C582.9096343888176,263.82680528846146,601.7099979506598,267.82423677884606,620.510361512502,281.54091346153837C639.3107250743442,295.2575901442307,658.1110886361863,310.6986490384615,676.9114521980285,310.6986490384615C695.7118157598708,310.6986490384615,714.5121793217129,290.47634855769223,733.3125428835551,270.254048076923"/></g><g class="series"><clipPath id="clip-0-2"><rect width="676.8130882263183" x="84.7" y="5.975" height="311.2859375"/></clipPath><path class="line" opacity="1" pointer-events="none" fill="none" stroke="#c2c2c2" stroke-width="2.8000000000000003" transform="translate(0,0)" clip-path="url(#clip-0-2)" clip-path-id="0-2" d="M112.90054534276324,275.4271947115384C131.7009089046054,266.2958070913461,150.50127246644757,257.1644194711538,169.30163602828975,251.44260576923074C188.10199959013192,245.72079206730766,206.9023631519741,246.11269711538458,225.70272671381628,241.09631249999995C244.50309027565845,236.07992788461533,263.3034538375006,221.34429807692302,282.1038173993428,221.34429807692302C300.904180961185,221.34429807692302,319.70454452302715,234.04202163461534,338.5049080848693,234.04202163461534C357.3052716467115,234.04202163461534,376.1056352085537,212.95753004807688,394.90599877039585,202.06256971153843C413.70636233223803,191.16760937499998,432.5067258940802,189.12970312499996,451.3070894559224,168.67225961538458C470.10745301776456,148.2148161057692,488.90781657960673,79.31790865384613,507.7081801414489,79.31790865384613C526.5085437032911,79.31790865384613,545.3089072651333,211.7818149038461,564.1092708269755,223.69572836538458C582.9096343888176,235.60964182692302,601.7099979506598,241.56659855769226,620.510361512502,241.56659855769226C639.3107250743442,241.56659855769226,658.1110886361863,232.47440144230768,676.9114521980285,225.57687259615383C695.7118157598708,218.67934375,714.5121793217129,209.43038461538455,733.3125428835551,200.18142548076915"/></g></g><g id="data-points"><g class="series" transform="translate(0,0)" clip-path="url(#facet-clip-0)"><path class="data-point" visibility="visible" fill="#1d6996" data-type="point" transform="translate(0, 0)" d="M109.40054534276324,300.822641826923A3.5,3.5,0,1,1,116.40054534276324,300.822641826923A3.5,3.5,0,1,1,109.40054534276324,300.822641826923Z" opacity="1" id="point-0-0"/><path class="data-point" visibility="visible" fill="#1d6996" data-type="point" transform="translate(0, 0)" d="M165.80163602828975,305.05521634615377A3.5,3.5,0,1,1,172.80163602828975,305.05521634615377A3.5,3.5,0,1,1,165.80163602828975,305.05521634615377Z" opacity="1" id="point-0-1"/><path class="data-point" visibility="visible" fill="#1d6996" data-type="point" transform="translate(0, 0)" d="M222.20272671381628,277.30833894230767A3.5,3.5,0,1,1,229.20272671381628,277.30833894230767A3.5,3.5,0,1,1,222.20272671381628,277.30833894230767Z" opacity="1" id="point-0-2"/><path class="data-point" visibility="visible" fill="#1d6996" data-type="point" transform="translate(0, 0)" d="M278.6038173993428,251.44260576923074A3.5,3.5,0,1,1,285.6038173993428,251.44260576923074A3.5,3.5,0,1,1,278.6038173993428,251.44260576923074Z" opacity="1" id="point-0-3"/><path class="data-point" visibility="visible" fill="#1d6996" data-type="point" transform="translate(0, 0)" d="M335.0049080848693,248.1506033653846A3.5,3.5,0,1,1,342.0049080848693,248.1506033653846A3.5,3.5,0,1,1,335.0049080848693,248.1506033653846Z" opacity="1" id="point-0-4"/><path class="data-point" visibility="visible" fill="#1d6996" data-type="point" transform="translate(0, 0)" d="M391.40599877039585,204.41399999999996A3.5,3.5,0,1,1,398.40599877039585,204.41399999999996A3.5,3.5,0,1,1,391.40599877039585,204.41399999999996Z" opacity="1" id="point-0-5"/><path class="data-point" visibility="visible" fill="#1d6996" data-type="point" transform="translate(0, 0)" d="M447.8070894559224,152.21224759615382A3.5,3.5,0,1,1,454.8070894559224,152.21224759615382A3.5,3.5,0,1,1,447.8070894559224,152.21224759615382Z" opacity="1" id="point-0-6"/><path class="data-point" visibility="visible" fill="#1d6996" data-type="point" transform="translate(0, 0)" d="M504.2081801414489,81.66933894230769A3.5,3.5,0,1,1,511.2081801414489,81.66933894230769A3.5,3.5,0,1,1,504.2081801414489,81.66933894230769Z" opacity="1" id="point-0-7"/><path class="data-point" visibility="visible" fill="#1d6996" data-type="point" transform="translate(0, 0)" d="M560.6092708269755,222.28487019230764A3.5,3.5,0,1,1,567.6092708269755,222.28487019230764A3.5,3.5,0,1,1,560.6092708269755,222.28487019230764Z" opacity="1" id="point-0-8"/><path class="data-point" visibility="visible" fill="#1d6996" data-type="point" transform="translate(0, 0)" d="M617.010361512502,212.40886298076916A3.5,3.5,0,1,1,624.010361512502,212.40886298076916A3.5,3.5,0,1,1,617.010361512502,212.40886298076916Z" opacity="1" id="point-0-9"/><path class="data-point" visibility="visible" fill="#1d6996" data-type="point" transform="translate(0, 0)" d="M673.4114521980285,242.50717067307687A3.5,3.5,0,1,1,680.4114521980285,242.50717067307687A3.5,3.5,0,1,1,673.4114521980285,242.50717067307687Z" opacity="1" id="point-0-10"/><path class="data-point" visibility="visible" fill="#1d6996" data-type="point" transform="translate(0, 0)" d="M729.8125428835551,222.28487019230764A3.5,3.5,0,1,1,736.8125428835551,222.28487019230764A3.5,3.5,0,1,1,729.8125428835551,222.28487019230764Z" opacity="1" id="point-0-11"/></g><g class="series" transform="translate(0,0)" clip-path="url(#facet-clip-0)"><path class="data-point" visibility="visible" fill="#00cccc" data-type="point" transform="translate(0, 0)" d="M109.40054534276324,265.08090144230766A3.5,3.5,0,1,1,116.40054534276324,265.08090144230766A3.5,3.5,0,1,1,109.40054534276324,265.08090144230766Z" opacity="1" id="point-1-0"/><path class="data-point" visibility="visible" fill="#00cccc" data-type="point" transform="translate(0, 0)" d="M165.80163602828975,255.2048942307692A3.5,3.5,0,1,1,172.80163602828975,255.2048942307692A3.5,3.5,0,1,1,165.80163602828975,255.2048942307692Z" opacity="1" id="point-1-1"/><path class="data-point" visibility="visible" fill="#00cccc" data-type="point" transform="translate(0, 0)" d="M222.20272671381628,290.9466346153846A3.5,3.5,0,1,1,229.20272671381628,290.9466346153846A3.5,3.5,0,1,1,222.20272671381628,290.9466346153846Z" opacity="1" id="point-1-2"/><path class="data-point" visibility="visible" fill="#00cccc" data-type="point" transform="translate(0, 0)" d="M391.40599877039585,223.69572836538458A3.5,3.5,0,1,1,398.40599877039585,223.69572836538458A3.5,3.5,0,1,1,391.40599877039585,223.69572836538458Z" opacity="1" id="point-1-5"/><path class="data-point" visibility="visible" fill="#00cccc" data-type="point" transform="translate(0, 0)" d="M447.8070894559224,153.62310576923073A3.5,3.5,0,1,1,454.8070894559224,153.62310576923073A3.5,3.5,0,1,1,447.8070894559224,153.62310576923073Z" opacity="1" id="point-1-6"/><path class="data-point" visibility="visible" fill="#00cccc" data-type="point" transform="translate(0, 0)" d="M504.2081801414489,58.62532211538462A3.5,3.5,0,1,1,511.2081801414489,58.62532211538462A3.5,3.5,0,1,1,504.2081801414489,58.62532211538462Z" opacity="1" id="point-1-7"/><path class="data-point" visibility="visible" fill="#00cccc" data-type="point" transform="translate(0, 0)" d="M560.6092708269755,228.39858894230764A3.5,3.5,0,1,1,567.6092708269755,228.39858894230764A3.5,3.5,0,1,1,560.6092708269755,228.39858894230764Z" opacity="1" id="point-1-8"/><path class="data-point" visibility="visible" fill="#00cccc" data-type="point" transform="translate(0, 0)" d="M617.010361512502,281.54091346153837A3.5,3.5,0,1,1,624.010361512502,281.54091346153837A3.5,3.5,0,1,1,617.010361512502,281.54091346153837Z" opacity="1" id="point-1-9"/><path class="data-point" visibility="visible" fill="#00cccc" data-type="point" transform="translate(0, 0)" d="M673.4114521980285,310.6986490384615A3.5,3.5,0,1,1,680.4114521980285,310.6986490384615A3.5,3.5,0,1,1,673.4114521980285,310.6986490384615Z" opacity="1" id="point-1-10"/><path class="data-point" visibility="visible" fill="#00cccc" data-type="point" transform="translate(0, 0)" d="M729.8125428835551,270.254048076923A3.5,3.5,0,1,1,736.8125428835551,270.254048076923A3.5,3.5,0,1,1,729.8125428835551,270.254048076923Z" opacity="1" id="point-1-11"/></g><g class="series" transform="translate(0,0)" clip-path="url(#facet-clip-0)"><path class="data-point" visibility="visible" fill="#c2c2c2" data-type="point" transform="translate(0, 0)" d="M109.40054534276324,275.4271947115384A3.5,3.5,0,1,1,116.40054534276324,275.4271947115384A3.5,3.5,0,1,1,109.40054534276324,275.4271947115384Z" opacity="1" id="point-2-0"/><path class="data-point" visibility="visible" fill="#c2c2c2" data-type="point" transform="translate(0, 0)" d="M165.80163602828975,251.44260576923074A3.5,3.5,0,1,1,172.80163602828975,251.44260576923074A3.5,3.5,0,1,1,165.80163602828975,251.44260576923074Z" opacity="1" id="point-2-1"/><path class="data-point" visibility="visible" fill="#c2c2c2" data-type="point" transform="translate(0, 0)" d="M222.20272671381628,241.09631249999995A3.5,3.5,0,1,1,229.20272671381628,241.09631249999995A3.5,3.5,0,1,1,222.20272671381628,241.09631249999995Z" opacity="1" id="point-2-2"/><path class="data-point" visibility="visible" fill="#c2c2c2" data-type="point" transform="translate(0, 0)" d="M278.6038173993428,221.34429807692302A3.5,3.5,0,1,1,285.6038173993428,221.34429807692302A3.5,3.5,0,1,1,278.6038173993428,221.34429807692302Z" opacity="1" id="point-2-3"/><path class="data-point" visibility="visible" fill="#c2c2c2" data-type="point" transform="translate(0, 0)" d="M335.0049080848693,234.04202163461534A3.5,3.5,0,1,1,342.0049080848693,234.04202163461534A3.5,3.5,0,1,1,335.0049080848693,234.04202163461534Z" opacity="1" id="point-2-4"/><path class="data-point" visibility="visible" fill="#c2c2c2" data-type="point" transform="translate(0, 0)" d="M391.40599877039585,202.06256971153843A3.5,3.5,0,1,1,398.40599877039585,202.06256971153843A3.5,3.5,0,1,1,391.40599877039585,202.06256971153843Z" opacity="1" id="point-2-5"/><path class="data-point" visibility="visible" fill="#c2c2c2" data-type="point" transform="translate(0, 0)" d="M447.8070894559224,168.67225961538458A3.5,3.5,0,1,1,454.8070894559224,168.67225961538458A3.5,3.5,0,1,1,447.8070894559224,168.67225961538458Z" opacity="1" id="point-2-6"/><path class="data-point" visibility="visible" fill="#c2c2c2" data-type="point" transform="translate(0, 0)" d="M504.2081801414489,79.31790865384613A3.5,3.5,0,1,1,511.2081801414489,79.31790865384613A3.5,3.5,0,1,1,504.2081801414489,79.31790865384613Z" opacity="1" id="point-2-7"/><path class="data-point" visibility="visible" fill="#c2c2c2" data-type="point" transform="translate(0, 0)" d="M560.6092708269755,223.69572836538458A3.5,3.5,0,1,1,567.6092708269755,223.69572836538458A3.5,3.5,0,1,1,560.6092708269755,223.69572836538458Z" opacity="1" id="point-2-8"/><path class="data-point" visibility="visible" fill="#c2c2c2" data-type="point" transform="translate(0, 0)" d="M617.010361512502,241.56659855769226A3.5,3.5,0,1,1,624.010361512502,241.56659855769226A3.5,3.5,0,1,1,617.010361512502,241.56659855769226Z" opacity="1" id="point-2-9"/><path class="data-point" visibility="visible" fill="#c2c2c2" data-type="point" transform="translate(0, 0)" d="M673.4114521980285,225.57687259615383A3.5,3.5,0,1,1,680.4114521980285,225.57687259615383A3.5,3.5,0,1,1,673.4114521980285,225.57687259615383Z" opacity="1" id="point-2-10"/><path class="data-point" visibility="visible" fill="#c2c2c2" data-type="point" transform="translate(0, 0)" d="M729.8125428835551,200.18142548076915A3.5,3.5,0,1,1,736.8125428835551,200.18142548076915A3.5,3.5,0,1,1,729.8125428835551,200.18142548076915Z" opacity="1" id="point-2-11"/></g></g><g id="lines-secondary"/><g id="data-point-labels"><g class="series" transform="translate(0,0)" clip-path="url(#facet-clip-0)"/><g class="series" transform="translate(0,0)" clip-path="url(#facet-clip-0)"/><g class="series" transform="translate(0,0)" clip-path="url(#facet-clip-0)"/></g><g id="stack-labels"/><g class="annotations above"/></svg></svg>