<svg xmlns="http://www.w3.org/2000/svg" id="graphic" fill="currentColor" font-family="Source Sans Pro" width="775.12158203125" height="405.8420066833496"><g class="facets"><g class="facet" transform="translate(0,0)" opacity="1"><g class="fl-chart"><clipPath class="fl-data-clip-path" id="fl-chart-layout-1-clip-path"><rect x="80.5" y="7.000000333786011" width="684.7220866225937" height="307.81166649095053"/></clipPath><clipPath class="fl-grid-clip-path" id="fl-chart-layout-1-grid-clip-path"><rect x="78.83333328918174" y="5.333333622967755" width="688.0554200442302" height="311.144999912587"/></clipPath><g class="fl-chart-background"><rect class="fl-chart-fill" x="80.5" y="7.000000333786011" width="684.7220866225937" height="307.81166649095053" fill="none"/><image class="fl-chart-image" x="80.5" y="7.000000333786011" width="684.7220866225937" height="307.81166649095053" preserveAspectRatio="none"/><rect class="fl-chart-interaction" x="80.5" y="7.000000333786011" width="684.7220866225937" height="307.81166649095053" style="opacity: 0;"/></g><g class="fl-data-background" clip-path="url(#fl-chart-layout-1-clip-path)"/><g class="fl-gridlines" clip-path="url(#fl-chart-layout-1-grid-clip-path)" style="pointer-events: none;"><g class="fl-gridlines-vertical"/><g class="fl-gridlines-horizontal"><line x1="80.5" x2="765.2220866225937" y1="314.81166682473656" y2="314.81166682473656" style="shape-rendering: crispedges; opacity: 1; stroke: rgb(238, 238, 238); stroke-width: 1.66667;"/><line x1="80.5" x2="765.2220866225937" y1="237.85875020199893" y2="237.85875020199893" style="shape-rendering: crispedges; opacity: 1; stroke: rgb(238, 238, 238); stroke-width: 1.66667;"/><line x1="80.5" x2="765.2220866225937" y1="160.9058335792613" y2="160.9058335792613" style="shape-rendering: crispedges; opacity: 1; stroke: rgb(238, 238, 238); stroke-width: 1.66667;"/><line x1="80.5" x2="765.2220866225937" y1="83.95291695652365" y2="83.95291695652365" style="shape-rendering: crispedges; opacity: 1; stroke: rgb(238, 238, 238); stroke-width: 1.66667;"/><line x1="80.5" x2="765.2220866225937" y1="7.000000333786011" y2="7.000000333786011" style="shape-rendering: crispedges; opacity: 1; stroke: rgb(238, 238, 238); stroke-width: 1.66667;"/></g></g><g class="fl-axes"><g class="fl-x-axes"><g class="fl-axis fl-x-axis fl-bottom-axis"><g class="fl-axis-line"><line x1="80.5" x2="765.2220866225937" y1="314.81166682473656" y2="314.81166682473656" style="shape-rendering: crispedges; stroke-linecap: square; stroke-width: 0.555556; opacity: 1; stroke: rgb(15, 51, 98);"/></g><g class="fl-axis-ticks"><g transform="translate(110.48783111572266, 314.8116760253906)" style="opacity: 1;"><line y2="5.6000000000000005" style="stroke: rgb(15, 51, 98); stroke-width: 0.555556;"/><text text-anchor="end" transform="translate(0,16.8) rotate(-45,0,0) translate(0,8.316)" style="user-select: none; cursor: default; fill: rgb(15, 51, 98); font-size: 12.6px; font-weight: normal;"><tspan x="0" dy="0">Maresme</tspan></text></g><g transform="translate(172.9624786376953, 314.8116760253906)" style="opacity: 1;"><line y2="5.6000000000000005" style="stroke: rgb(15, 51, 98); stroke-width: 0.555556;"/><text text-anchor="end" transform="translate(0,16.8) rotate(-45,0,0) translate(0,8.316)" style="user-select: none; cursor: default; fill: rgb(15, 51, 98); font-size: 12.6px; font-weight: normal;"><tspan x="0" dy="0">Osona</tspan></text></g><g transform="translate(235.43711853027344, 314.8116760253906)" style="opacity: 1;"><line y2="5.6000000000000005" style="stroke: rgb(15, 51, 98); stroke-width: 0.555556;"/><text text-anchor="end" transform="translate(0,16.8) rotate(-45,0,0) translate(0,8.316)" style="user-select: none; cursor: default; fill: rgb(15, 51, 98); font-size: 12.6px; font-weight: normal;"><tspan x="0" dy="0">Baix Llobregat</tspan></text></g><g transform="translate(297.9117431640625, 314.8116760253906)" style="opacity: 1;"><line y2="5.6000000000000005" style="stroke: rgb(15, 51, 98); stroke-width: 0.555556;"/><text text-anchor="end" transform="translate(0,16.8) rotate(-45,0,0) translate(0,8.316)" style="user-select: none; cursor: default; fill: rgb(15, 51, 98); font-size: 12.6px; font-weight: normal;"><tspan x="0" dy="0">Vallès Occidental</tspan></text></g><g transform="translate(360.38641357421875, 314.8116760253906)" style="opacity: 1;"><line y2="5.6000000000000005" style="stroke: rgb(15, 51, 98); stroke-width: 0.555556;"/><text text-anchor="end" transform="translate(0,16.8) rotate(-45,0,0) translate(0,8.316)" style="user-select: none; cursor: default; fill: rgb(15, 51, 98); font-size: 12.6px; font-weight: normal;"><tspan x="0" dy="0">Garraf</tspan></text></g><g transform="translate(422.8610534667969, 314.8116760253906)" style="opacity: 1;"><line y2="5.6000000000000005" style="stroke: rgb(15, 51, 98); stroke-width: 0.555556;"/><text text-anchor="end" transform="translate(0,16.8) rotate(-45,0,0) translate(0,8.316)" style="user-select: none; cursor: default; fill: rgb(15, 51, 98); font-size: 12.6px; font-weight: normal;"><tspan x="0" dy="0">Vallès Oriental</tspan></text></g><g transform="translate(485.335693359375, 314.8116760253906)" style="opacity: 1;"><line y2="5.6000000000000005" style="stroke: rgb(15, 51, 98); stroke-width: 0.555556;"/><text text-anchor="end" transform="translate(0,16.8) rotate(-45,0,0) translate(0,8.316)" style="user-select: none; cursor: default; fill: rgb(15, 51, 98); font-size: 12.6px; font-weight: normal;"><tspan x="0" dy="0">Bages</tspan></text></g><g transform="translate(547.810302734375, 314.8116760253906)" style="opacity: 1;"><line y2="5.6000000000000005" style="stroke: rgb(15, 51, 98); stroke-width: 0.555556;"/><text text-anchor="end" transform="translate(0,16.8) rotate(-45,0,0) translate(0,8.316)" style="user-select: none; cursor: default; fill: rgb(15, 51, 98); font-size: 12.6px; font-weight: normal;"><tspan x="0" dy="0">Berguedà</tspan></text></g><g transform="translate(610.2849731445312, 314.8116760253906)" style="opacity: 1;"><line y2="5.6000000000000005" style="stroke: rgb(15, 51, 98); stroke-width: 0.555556;"/><text text-anchor="end" transform="translate(0,16.8) rotate(-45,0,0) translate(0,8.316)" style="user-select: none; cursor: default; fill: rgb(15, 51, 98); font-size: 12.6px; font-weight: normal;"><tspan x="0" dy="0">Alt Penedès</tspan></text></g><g transform="translate(672.7596435546875, 314.8116760253906)" style="opacity: 1;"><line y2="5.6000000000000005" style="stroke: rgb(15, 51, 98); stroke-width: 0.555556;"/><text text-anchor="end" transform="translate(0,16.8) rotate(-45,0,0) translate(0,8.316)" style="user-select: none; cursor: default; fill: rgb(15, 51, 98); font-size: 12.6px; font-weight: normal;"><tspan x="0" dy="0">Moianès</tspan></text></g><g transform="translate(735.2342529296875, 314.8116760253906)" style="opacity: 1;"><line y2="5.6000000000000005" style="stroke: rgb(15, 51, 98); stroke-width: 0.555556;"/><text text-anchor="end" transform="translate(0,16.8) rotate(-45,0,0) translate(0,8.316)" style="user-select: none; cursor: default; fill: rgb(15, 51, 98); font-size: 12.6px; font-weight: normal;"><tspan x="0" dy="0">Anoia</tspan></text></g></g><g class="fl-axis-title"/></g><g class="fl-axis fl-x-axis fl-top-axis"><g class="fl-axis-line"/><g class="fl-axis-ticks"/><g class="fl-axis-title"/></g></g><g class="fl-y-axes"><g class="fl-axis fl-y-axis fl-left-axis"><g class="fl-axis-line"/><g class="fl-axis-ticks"><g transform="translate(80.5, 314.8116760253906)" style="opacity: 1;"><line x2="-7" style="stroke: rgb(238, 238, 238); stroke-width: 1.66667;"/><text text-anchor="end" transform="translate(-10.5,4.158)" style="user-select: none; cursor: default; fill: rgb(0, 51, 102); font-size: 12.6px; font-weight: normal;"><tspan x="0" dy="0">0%</tspan></text></g><g transform="translate(80.5,7.000000333786011)" style="opacity: 1;"><line x2="-7" style="stroke: rgb(238, 238, 238); stroke-width: 1.66667;"/><text text-anchor="end" transform="translate(-10.5,4.158)" style="user-select: none; cursor: default; fill: rgb(0, 51, 102); font-size: 12.6px; font-weight: normal;"><tspan x="0" dy="0">200%</tspan></text></g><g transform="translate(80.5, 160.9058380126953)" style="opacity: 1;"><line x2="-7" style="stroke: rgb(238, 238, 238); stroke-width: 1.66667;"/><text text-anchor="end" transform="translate(-10.5,4.158)" style="user-select: none; cursor: default; fill: rgb(0, 51, 102); font-size: 12.6px; font-weight: normal;"><tspan x="0" dy="0">100%</tspan></text></g><g transform="translate(80.5, 237.85874938964844)" style="opacity: 1;"><line x2="-7" style="stroke: rgb(238, 238, 238); stroke-width: 1.66667;"/><text text-anchor="end" transform="translate(-10.5,4.158)" style="user-select: none; cursor: default; fill: rgb(0, 51, 102); font-size: 12.6px; font-weight: normal;"><tspan x="0" dy="0">50%</tspan></text></g><g transform="translate(80.5, 83.95291900634766)" style="opacity: 1;"><line x2="-7" style="stroke: rgb(238, 238, 238); stroke-width: 1.66667;"/><text text-anchor="end" transform="translate(-10.5,4.158)" style="user-select: none; cursor: default; fill: rgb(0, 51, 102); font-size: 12.6px; font-weight: normal;"><tspan x="0" dy="0">150%</tspan></text></g></g><g class="fl-axis-title"/></g><g class="fl-axis fl-y-axis fl-right-axis"><g class="fl-axis-line"/><g class="fl-axis-ticks"/><g class="fl-axis-title"/></g></g></g><g class="fl-data-foreground" clip-path="url(#fl-chart-layout-1-clip-path)"/></g><g class="facet-title" transform="translate(0, 0)"><rect class="facet-title-bg" width="684.7220866225937" height="0" fill="#eeeeee" x="80.5" clip-path="url(#facet-clip-0)"/><text class="facet-title-text" font-size="17.5" font-weight="bold" dx="0" dy="0" x="422.86104331129684" clip-path="url(#facet-clip-0)" opacity="0"/></g><clipPath class="facet-clip" id="facet-clip-0"><rect transform="translate(-50.75, -10.5)" width="866.7220866225937" height="412.8420060157776"/></clipPath></g></g><g class="annotations below"><g class="axis-highlights" transform="translate(0, 0)" style="opacity: 1;"/></g><g id="areas"/><g id="lines"/><g id="data-points"><g class="series" transform="translate(0,0)" clip-path="url(#facet-clip-0)"><path class="data-point" data-type="column" opacity="0.9" fill="#00cccc" stroke-width="0" d="M586.5446078141432,242.01420769962675L609.0354792725495,242.01420769962675L609.0354792725495,314.81166682473656L586.5446078141432,314.81166682473656Z" transform="translate(0, 0)" visibility="visible" id="point-0-0"/><path class="data-point" data-type="column" opacity="0.9" fill="#00cccc" stroke-width="0" d="M711.4938936941786,281.87581851020485L733.9847651525849,281.87581851020485L733.9847651525849,314.81166682473656L711.4938936941786,314.81166682473656Z" transform="translate(0, 0)" visibility="visible" id="point-0-1"/><path class="data-point" data-type="column" opacity="0.9" fill="#00cccc" stroke-width="0" d="M461.59532193410774,228.162682707534L484.08619339251413,228.162682707534L484.08619339251413,314.81166682473656L461.59532193410774,314.81166682473656Z" transform="translate(0, 0)" visibility="visible" id="point-0-2"/><path class="data-point" data-type="column" opacity="0.9" fill="#00cccc" stroke-width="0" d="M211.69675017403713,220.92910854499667L234.1876216324435,220.92910854499667L234.1876216324435,314.81166682473656L211.69675017403713,314.81166682473656Z" transform="translate(0, 0)" visibility="visible" id="point-0-3"/><path class="data-point" data-type="column" opacity="0.9" fill="#00cccc" stroke-width="0" d="M524.0699648741255,271.2563160162671L546.5608363325318,271.2563160162671L546.5608363325318,314.81166682473656L524.0699648741255,314.81166682473656Z" transform="translate(0, 0)" visibility="visible" id="point-0-4"/><path class="data-point" data-type="column" opacity="0.9" fill="#00cccc" stroke-width="0" d="M336.6460360540724,236.31969186954416L359.13690751247873,236.31969186954416L359.13690751247873,314.81166682473656L336.6460360540724,314.81166682473656Z" transform="translate(0, 0)" visibility="visible" id="point-0-5"/><path class="data-point" data-type="column" opacity="0.9" fill="#00cccc" stroke-width="0" d="M86.74746429400179,47.32332864410051L109.23833575240815,47.32332864410051L109.23833575240815,314.81166682473656L86.74746429400179,314.81166682473656Z" transform="translate(0, 0)" visibility="visible" id="point-0-6"/><path class="data-point" data-type="column" opacity="0.9" fill="#00cccc" stroke-width="0" d="M649.0192507541609,247.09310019672745L671.5101222125672,247.09310019672745L671.5101222125672,314.81166682473656L649.0192507541609,314.81166682473656Z" transform="translate(0, 0)" visibility="visible" id="point-0-7"/><path class="data-point" data-type="column" opacity="0.9" fill="#00cccc" stroke-width="0" d="M149.22210723401946,208.00101855237673L171.71297869242582,208.00101855237673L171.71297869242582,314.81166682473656L149.22210723401946,314.81166682473656Z" transform="translate(0, 0)" visibility="visible" id="point-0-8"/><path class="data-point" data-type="column" opacity="0.9" fill="#00cccc" stroke-width="0" d="M274.17139311405475,224.31503687639707L296.66226457246114,224.31503687639707L296.66226457246114,314.81166682473656L274.17139311405475,314.81166682473656Z" transform="translate(0, 0)" visibility="visible" id="point-0-9"/><path class="data-point" data-type="column" opacity="0.9" fill="#00cccc" stroke-width="0" d="M399.1206789940901,232.62595187165277L421.61155045249643,232.62595187165277L421.61155045249643,314.81166682473656L399.1206789940901,314.81166682473656Z" transform="translate(0, 0)" visibility="visible" id="point-0-10"/></g><g class="series" transform="translate(0,0)" clip-path="url(#facet-clip-0)"><path class="data-point" data-type="column" opacity="0.9" fill="#003366" stroke-width="0" d="M611.5344649901502,287.26252267379647L634.0253364485566,287.26252267379647L634.0253364485566,314.81166682473656L611.5344649901502,314.81166682473656Z" transform="translate(0, 0)" visibility="visible" id="point-1-0"/><path class="data-point" data-type="column" opacity="0.9" fill="#003366" stroke-width="0" d="M736.4837508701856,285.56955850809624L758.974622328592,285.56955850809624L758.974622328592,314.81166682473656L736.4837508701856,314.81166682473656Z" transform="translate(0, 0)" visibility="visible" id="point-1-1"/><path class="data-point" data-type="column" opacity="0.9" fill="#003366" stroke-width="0" d="M486.58517911011484,259.4055668563655L509.07605056852117,259.4055668563655L509.07605056852117,314.81166682473656L486.58517911011484,314.81166682473656Z" transform="translate(0, 0)" visibility="visible" id="point-1-2"/><path class="data-point" data-type="column" opacity="0.9" fill="#003366" stroke-width="0" d="M236.6866073500442,219.85176771227833L259.1774788084506,219.85176771227833L259.1774788084506,314.81166682473656L236.6866073500442,314.81166682473656Z" transform="translate(0, 0)" visibility="visible" id="point-1-3"/><path class="data-point" data-type="column" opacity="0.9" fill="#003366" stroke-width="0" d="M549.0598220501325,255.09620352549217L571.5506935085389,255.09620352549217L571.5506935085389,314.81166682473656L549.0598220501325,314.81166682473656Z" transform="translate(0, 0)" visibility="visible" id="point-1-4"/><path class="data-point" data-type="column" opacity="0.9" fill="#003366" stroke-width="0" d="M361.6358932300795,221.39082604473307L384.1267646884859,221.39082604473307L384.1267646884859,314.81166682473656L361.6358932300795,314.81166682473656Z" transform="translate(0, 0)" visibility="visible" id="point-1-5"/><path class="data-point" data-type="column" opacity="0.9" fill="#003366" stroke-width="0" d="M111.73732147000885,95.49585444993428L134.2281929284152,95.49585444993428L134.2281929284152,314.81166682473656L111.73732147000885,314.81166682473656Z" transform="translate(0, 0)" visibility="visible" id="point-1-6"/><path class="data-point" data-type="column" opacity="0.9" fill="#003366" stroke-width="0" d="M674.0091079301679,284.0305001756415L696.4999793885743,284.0305001756415L696.4999793885743,314.81166682473656L674.0091079301679,314.81166682473656Z" transform="translate(0, 0)" visibility="visible" id="point-1-7"/><path class="data-point" data-type="column" opacity="0.9" fill="#003366" stroke-width="0" d="M174.21196441002652,199.53619772387555L196.70283586843289,199.53619772387555L196.70283586843289,314.81166682473656L174.21196441002652,314.81166682473656Z" transform="translate(0, 0)" visibility="visible" id="point-1-8"/><path class="data-point" data-type="column" opacity="0.9" fill="#003366" stroke-width="0" d="M299.16125029006184,225.85409520885187L321.6521217484682,225.85409520885187L321.6521217484682,314.81166682473656L299.16125029006184,314.81166682473656Z" transform="translate(0, 0)" visibility="visible" id="point-1-9"/><path class="data-point" data-type="column" opacity="0.9" fill="#003366" stroke-width="0" d="M424.1105361700972,244.78451269804532L446.6014076285036,244.78451269804532L446.6014076285036,314.81166682473656L424.1105361700972,314.81166682473656Z" transform="translate(0, 0)" visibility="visible" id="point-1-10"/></g></g><g id="lines-secondary"/><g id="data-point-labels"><g class="series" transform="translate(0,0)" clip-path="url(#facet-clip-0)"/><g class="series" transform="translate(0,0)" clip-path="url(#facet-clip-0)"/></g><g id="stack-labels"/><g class="annotations above"><g class="axis-highlights" transform="translate(0, 0)" style="opacity: 1;"/></g></svg>