<svg id="Capa_1" data-name="Capa 1" xmlns="http://www.w3.org/2000/svg" xmlns:xlink="http://www.w3.org/1999/xlink" viewBox="0 0 535 383"><defs><style>.cls-1{fill:#fff;}.cls-2{font-size:6.35px;fill:#8d8d8d;font-family:OpenSans-Regular, Open Sans;}.cls-3{fill:#44698e;}.cls-4{fill:#e5f8f8;}.cls-5{fill:#cbf4f4;}.cls-6{fill:#e3f1f3;}.cls-7{fill:#e0f3f4;}.cls-8{fill:#e9f9f9;}.cls-9{font-size:13.48px;}.cls-10,.cls-11,.cls-9{fill:#1c3761;}.cls-21,.cls-22,.cls-9{font-family:OpenSans-Bold, Open Sans;font-weight:700;}.cls-10{font-size:9.63px;}.cls-10,.cls-11,.cls-18,.cls-19,.cls-25{font-family:OpenSans-Light, Open Sans;font-weight:300;}.cls-11,.cls-19,.cls-22,.cls-23,.cls-24{font-size:7px;}.cls-12{fill:#195e84;}.cls-12,.cls-13,.cls-14,.cls-15,.cls-16,.cls-20{stroke:#fff;}.cls-12,.cls-14,.cls-15{stroke-width:0.53px;}.cls-13{fill:#66e0e0;stroke-width:0.29px;}.cls-14,.cls-18,.cls-19,.cls-21,.cls-22,.cls-23,.cls-24{fill:#036;}.cls-15{fill:#287796;}.cls-16{stroke-width:0.15px;fill:url(#Degradado_sin_nombre_2);}.cls-17,.cls-18,.cls-19,.cls-21,.cls-22,.cls-23{isolation:isolate;}.cls-18{font-size:6px;}.cls-20{fill:#d6d6d6;stroke-width:0.62px;}.cls-21{font-size:9px;}.cls-23,.cls-24{font-family:OpenSans-SemiBold, Open Sans;font-weight:600;}</style><linearGradient id="Degradado_sin_nombre_2" x1="282.28" y1="2601.84" x2="333.63" y2="2601.84" gradientTransform="matrix(1, 0, 0, -1, 0, 2706)" gradientUnits="userSpaceOnUse"><stop offset="0" stop-color="#83e2e2"/><stop offset="0.96" stop-color="#036"/><stop offset="1"/></linearGradient></defs><rect class="cls-1" x="-24" y="-9" width="590" height="405"/><text class="cls-2" transform="translate(176.47 374)">Font: Elaboració pròpia del LABturisme, en base a dades de l&apos;Enquesta d&apos;ocupació en allotjaments de l&apos;INE</text><path class="cls-3" d="M172,337.64c-.31-.5.32-.68.56-1a.27.27,0,0,1,.44,0"/><path class="cls-4" d="M115.17,340.2a.72.72,0,0,0,0-.32c.37-.78,1-.46,1.61-.55C116.36,339.88,115.58,339.65,115.17,340.2Z"/><path class="cls-5" d="M113,338v-.32c.41.18,1-.23,1.28.32Z"/><path class="cls-6" d="M201.94,203.51c.77.88.17,1-.55,1.05C200.89,204,201.89,204,201.94,203.51Z"/><path class="cls-7" d="M225.42,251c-.06-.49-.28-1,.27-1.32.28.16.5-.88.72,0,.05.27.6.88-.22.88C225.75,250.46,225.69,250.85,225.42,251Z"/><path class="cls-4" d="M283.22,148.62a1.07,1.07,0,0,0-.05-.39c.44-.93,1.21-.55,1.93-.66C284.66,148.23,283.72,148,283.22,148.62Z"/><path class="cls-8" d="M288.24,147.52c.5.27.55.77.66,1.21C288.07,148.79,288,148.23,288.24,147.52Z"/><path class="cls-5" d="M280.67,145.94v-.39c.5.22,1.16-.28,1.55.39Z"/><text class="cls-9" transform="translate(231.45 25.35)">Càmpings</text><text class="cls-10" transform="translate(64.29 40.89)">En càmpings, Girona lidera el rànquing en nombre de viatgers i pernoctacions, just per davant <tspan x="23.23" y="11.56">de Tarragona i de l’Entorn de Barcelona, que manté la tercera posició del grup, amb</tspan><tspan x="44.82" y="23.12" xml:space="preserve"> un creixement del 56% i 63% en viatgers i pernoctacions respectivament.</tspan></text><text class="cls-11" transform="translate(180.63 86.76)">Entre parèntesi, variació iteranual respecte l’any 2020 i 2019</text><g id="regions-layer"><path class="cls-12" d="M260.86,176.44v-.15l.15-.5,1.39-.64.7.79-.85.3-.15,1.14-.84.15Zm-2.48-35.89.5-1.3h1l.5.8-.85,1.59,2,2.08-4.12-.49.15-2.59Zm100.78,18.86-.15-.15.15-.15h.15v.3Zm-5.31,24.43-.15-.15-.15-.15v-.15l.5-.15ZM285.93,202.5l-.34-2.43.84-.79,2.38.49.5,1.15.7-.15,1.68-2.09,1.89.3v.15l1-.15,2.73-2.43-.2-1.44-1.19-.8-.15-.15-1.53-.15.14-1.29-1-.94.35-.79,3.08.29,1-1.44-1.54-.94,2.38-.79-.34-1.94.69-.94-1.74-2.09,1.2-.64-.7-.95h-.15v.15h-.15l-.35-.79-1.39-.15-.84.15-1.69,1.29-1.54-1.14-1-1.94L291,178h-1.54l-.35-1.14-1.39-.3v-.15h-.84L285,177h-.15l-1.69,1.14.5-1.79v-.15l-.5-.94-1.19-.8-.49-.15v-.14l-1.39.49-1.39-.64-1.05.15-.49.14-.15.15h-.15l-.35.8-1.19.79L275,175l-3.22.3-1.2,1.59-2-1-.7-1.93-2.38.79-1.74-.64-.49-1-2,.3V173l-1-2.73-1.89.3-.2-2.08,3.28.64-.69.15.49.8-.69,1.14.69.94,1.19-.15.85-1.29,2.23-.15.15-1.44-.84-.15-.35-2.58v-.15l-1.39.65-.85-1.44.7-.94v-.15l.15-1.15.5-.49v-.15l1.34-1.94v-.15l1.19-1.14-3.92-1.93-2.59,1.29-2.38-1.79-.69.64-.15-.64-2.93-.8-4.62,1.79-.5-4.81,1.54-1.44-2-1.29-1.54,1.29-.7-.8.7-4-1-1.29-1.89.15-2.93-1.14-.69-4.62.49-.5,7.2.5,5,3.82,2.39.15,1.19-.79.35,2.58,1.39.5.34,4.17,1.89,2.23,2,1.14,1.19-.94,4.12-.5.5-1.29,1.68-.64V149L271,147l1.39-.65,3.92.5,3.78-2.08,3.07,1.58,1.2-.64,4.12,2.73,5.11.79.2,1.94,1.39.3,1.89,2.88,1.68-.15,1.74.94h1.39l.84-2.08,1.4-.3,7.54,1.79.5-1.44-1-.8-.85-2.58h1.54l.35-1.74,5.11-1.93,2.58,1.29,1.69-.8,1.19-1.93.85.15,1-2.09,1.54.5.49-1.29,1.39.79,2.93.15.5-1.59,1.34-.64,1.39,1.44,2.24-.8,1.39.8,2-.8,1.19,2.73,2.24,2.09,2.73-1.15,3.92.15-.15.3-.84.3.49.3.15.15v.59l-.15.3h-.3v.3H349l-.5.64.69.3v.15l-.14.15h-.15l-.5.64h.15v.15h.84v.15l-.84.95.2.49h.15l.49.3v.45h-.15l-.15.15.15.14.5.65.35.15.15.15h.34l.35.3-.15.49.35.3.15.3.69.3.35-1.29.5.14.35-.29h1.34l.34.49v.5H355v.15l.7.64.69-.29h.15v-.45l.7.15.49.15h.15v.29l.35.15h.15l.84.3v.15h.65l.35.65v-.5l.14.15.5.15.15.15v.14l-.35.3v.15h-.15l-.15-.15-.14.3h-.15l-.7.65v.15l-.49-.15h-.15l-.15.15.15.14h.15v.3l-.15.15-.35.65h.5l.14.15h.15v.59l-.49.15h-.3l-.7-.65.2,1.15.15.29-.15,2.09-1.88.15.69,1.29v.15l-1.54-1.29H354l.2.49-.15.15-.5.95-1.73-.95-1.39-.3-.55-1.78h-1.19l-2.53,2.73-1,3,.9,6.9h.15v.59l.84.3v.15l.2.94,1.39-.15.49.15.35.15.7.15-.35.8.5.14.49.15v.15h.15l.7,1.44.69,1.14.35.8v.3l.15.29V182h-.15v.15l-.84.15-.3,3.37,1.24,4.32h.69v-.15h.15l.35.15v.3h.3v.65l.2.49v-.29h.15l-.15.29v.15h-.15v.3l-.15.5v.15h0v.14l-.15.15h-.15l-.15.15v.3h-.15v.15l-.15.15h.15l.15.15-.15.49.15.3v.15h-.15l.15.3h-.15v.3l-.69.49.2.5h-.15v.15H353v.44l-.35.15v.45h-.15l-.35.3h-.49l.15.15-.15.15-.15.15H351v.59h-.15l-.15.15V199l.15.15-.15.3v.44l-.49.5h-.3l-.15.15h-.15v.15l-.69-.15h-.15l-.35.3-.35.29v.65h-.3l-.69.79-1.19-.79L344.37,203v.45h-.15l-.35.49h-.15V204h-.15v.15h-.14v.15h-.15l-1.34,2.88v.15l-.15.5H340.5v.29l.15.15-.35.3-.15.15h-.85l.2.5v.14h-.34l-1.89.3v.15l-.15.15-1.39.5-.15.15-.35,1.83v.3h-.34l-.35.65-.15.15-.35.49h-.15l-.34.94-.35.15-.35.3h-.15l-.15.5-2,1.29-1.19.5h-.15l-.7.14-1.19.15v.15h-.69l-1.2.3-.15.15h-.14l-.3.3-.85.15h-.15l-.14.14h-.15l-.35.65H323l-.5.5v.15l-.34.14-.85.3-1,1.94-1.54-2.73,1.19-2.09-.34-2.58v-.15l.49-.79-6.15-.65-1.05-.3v.65l-1.88-.79-1.2.29-.84,1.29-7.05.95-1.54-3.87-3.62-1.79.15-1.14-1.19.49-1.05-.49-.49-1.44-6.36-.3Z"/><path class="cls-13" d="M148,324.73l-6.06-2.63-.35-1.79.9-1.29-3.9,10.18-.15-1-5-.5-4.32-1.93-1.19-1.94.2-1.29,1.94-2.63-2.39-2.14-1.88.5-.85-3.08-2.08.8-2.09-.8-.49-1-.35-.65,1.19.8v-1.49l1,.49,1.74-1.78,1.19.15.7-2.29L128.9,306l-1.39-1.94-.15-.5-.14-2.78-1.2-1,4.17-8.94h-.84v-1.44l-1-1.29.49-.49-1.19-.65.2-.79,1.39-.15-1.39-.5-1-1.44-1.19.65v-1.29l-1.19.15,1-.65-.85-.79.2-1.15-.34-1.29h-1.2l.7-3.22-.7-.65,1.54-1-.49-.35,2.58.65.35-2.09,1.73.15,2.24-1.44,1-5.51L134,265l1.39.64.35-1.14h1.39l-.5-1.29.89-2.93,3.63.35.2-4.52,2.08-1.44,3.23,4.52h1.74l2.08-3.72,2.09.64,1.68,2.73L156,259l2.93-1.44.35-.35h.49l5.86-.79.85-1.79,1.19.35h1v.15l1.89.35.35-.65.14-.5.35-1.93.85-.5,1.88,2.43,6.7-1.44,1.05-.34-.15-1.14,1.39-2.44.84.35.7-1.64,2.08-.49,1.39-2.73.7-.65.15-.15,1-1,.35-.5-1-.64-1.88-1.44.69-.35-.49-1.79,5.16,2.73v.65l5.51-1.94-1.19-2.58.84-1.79-.84-.49.69.34-.34-.79,3.42-1,.2-1.79,2.38-.15,4.27-.15,7.75,1.29-.85-1.79,2.24-.64,2.38,1.29-1.74,1.29.15.65,1-.35.15,1.64-3.07.15-.85,2.28,3.77,1.79.35.79h1.74l.84,1.64h.15l-1.39,2.58.35.8,1.39.14-1.19.65.49.79.5,2.09-1.19,1.79,2.58-1.29,2.38,1,1.05,1.64h1.39l.49,1.14h.15l-1.54,1.29,1.05,2.73L230,257l-.34,1.63,1.73,1,.15-.8,1.74-.34-.69.14-.5,4.07-4-.64.49,1.79,3.63,1.93,1.19-1.14.5,2.28-.15,1.64-10.13,1.79-3.43,1.14-5.51,3.58-2.58.15-5,.14-3.63,1.94-1.74,2.09,1.74-2.09-1.39.8-1.39-.35L199,279.41l-1.39,3.22h-.84L195.53,281l-1.89-.34-2.93,1.29-2.73-.15-5,2.58-3.28,3.23-.35,1.29-2.78,1.64-2.92,3.07-5,7.8-3.28,2.13-.69,2.29-3.28,1.93.5,1.79,2.23,2.14,3.43-.15v-.65l-3.77-1.14.34-.65L166,309l1.54,1,4.12,5.36,1.89-.5,1.53,1-.69,3.07-3.28,2.59-5,2.43-5.28-3.43-5,1.14-1.54-1.49L154.1,319l1.54.15h0L154.87,330,157,318.67v.3l.15.15.5.15.35.15h.14l.15-.15v-.5h.35v-.15l-1,11.52.35-.79,4.12-.15,2.08-3.28.35-1.14h-.5l-.15-.15h-.14l-10.18,1.64-3.9-6.11Z"/><path class="cls-14" d="M238.47,199.28v-.8l1.39.5-.34.64ZM188,244.46l-1.39,2.73-2.08.49-.7,1.64L183,249l-1.39,2.44.15,1.14-1,.34-6.7,1.44-1.88-2.43-.85.5-.35,1.93-.14.5-.35.65-1.89-.35V255h-1l-1.19-.35-.85,1.79-5.86.79h-.49l-.35.35L155.86,259l-1.74-.15-1.68-2.73-2.09-.64-2.08,3.72h-1.74l-3.23-4.52-2.08,1.44-.2,4.52-3.63-.35-1.54-2.58.35-1.44-1.54-.79,1.89-2.59-.84-1.63-3.28-2.58,1.19-1.3,1.59-4.51-.84-.8-.15-2.28,3.27-.15,1.39-1,3.28-5.32L141,231.7l-.15-3.73-1.89.8-4.12-.65-.15-2.28.85-1-2.39-2.92v-1.59l3.28-3.73,1.19-2.58.7.8.34-2.59,5.52-.79.89-3.38,2.58-2.23,2,.3.89-3.23,2,.15v-1.29l2-.79-1.19-1.3.69-2.43-.49-.64,1-.3-3.43-1.44v-.65l2.24-2.88.84.8,1.54-3.23,1.19-.15.15,1.14.35-1.44.84-.29.5-1.44-.69-.3v-1.79l1.19-.94-.15-1.44,2.43-4.52-.35-4.67,1.39-.94-.84-.64v-2.09l.84-3.38,1.54-2.38.9-5.31,1.53-2.09-1.68-.49v-1l2.23-1.44-3.77-1.44L165.2,150l-4.08-9.78.7-1.14,1,.64,2-1.59-1.54-.79v-1.14l.35-.8,1.88-.3-.69-.79,2.08-6.06v-.64l-1.69-.3-2.87-.65-.85-3.67L160,121.23l-1.19-1.44H160l.5-1.44L159,113.74l-1.54-.15,1.89-2.24-1.54-.79,1.88-1.74-.84-3.67,1.54-1-.15-.64,2.23-.65,5.27,2.54,1.54-.5,4.61,1.44,5.12,3.67,2.88-1.59,1.34,1.74h3.92l.84.65,2.24-.15.34-.65,3.93,3.33.34,2.73,2.39,1.94,5.11-1.94,1.54,1.29,5.46-.94,2.38.49-.34,1.94,2.88,1.29-.15,1.94,1.88,1.14.5,3.18,1.69,2.08L217,130.77l1.39,1.29-1.39.79-1,2.38,2.39-.79,1.88,3.38-3.77,2.23L218,141l.15,3.38,1,.79,7.35.3.49-2.58,1.69.79.7-1.44,5.11-.29.85-3.68,1,1.14,1.69.3,1.54-1.44.34,1.29-.49.5.69,4.62,2.93,1.14,1.89-.15,1,1.29-.7,4,.7.8,1.54-1.3,2,1.3-1.54,1.44.5,4.81-.84.5h-2l-1.88.94-3.08.15-.35.65-1.39-.5-3.57.64,1.53.5.35,1.29-.69.8,1.54,1.58-.35,1-1.54.64.35,1.79,1.68,1.59.85-.65,1.54.65-.15.5V171l.15,1.29-.7.3-1.69.94-.69,2.09.69.49-.14,1.79,1.39,1.14-.5.94-1.89-.29-1.39,3L235.4,184l.69.49.35-.94,1.19,2.08-1.89.8-.49,1.59-.15-1.79h-.7l-.69,2.09.49.79.5-1.14v1.14l1.89-.15.84.94v-3.07l1.74,1.58-.35.8.15.79-2.58,1.59-1-.64.49-.95-1.88.5-.15,3.23-.5.49.84,1.29h-1l-4.12,4-.69-.5-.7,1.29,1.19.65,1.19-1.15,1.39.3.35.8.7,2.88-1.54.64v1.94l-1.74,1.29.84,1.59-.49,1.14-1.39-.5-1.05.5v.79l-1-.15-.15,1.44-1.19.5v-1.29l-.5-.15-.84-.5-.15-.15v-.14l-.15-.15-.15-1.29h-1.39l-.49,1.78v-.15l-.7.15v-2.88l-.84.15h-.7l-1.88-.3-.7.65-1,5,1.54,1.3-3.08,2.58,1.19.15-.35.94.7.94,1.54.15-.7.94,1.89,2.59v.14h.84v.65l-1.54,1.14-2.73-.64-2.58,2.08,3.63,1.44-1.19,2.43.84,1.79-7.75-1.29-4.27.15-2.38.15-.2,1.79-3.42,1,.35.79-.7-.34.84.49-.84,1.79,1.19,2.58-5.51,1.94v-.65L187.34,238l.49,1.79-.69.35,1.89,1.44,1,.64-.35.5-1,1-.15.15Zm49.25-67.37-1.54-.3-2,.15,2,.94h1.54Z"/><path class="cls-15" d="M235.69,176.79l1.54.3v.79h-1.54l-2-.94Zm-2,91.79.15-1.64-.5-2.28-1.19,1.14-3.63-1.93-.49-1.79,4,.64.5-4.07.69-.14-1.74.34-.15.8-1.73-1,.34-1.63-1.73-.65-1-2.73,1.54-1.29h-.15l-.49-1.14h-1.39l-1-1.64-2.38-1-2.58,1.29,1.19-1.79-.49-2.09-.5-.79,1.19-.65-1.39-.14-.35-.8,1.39-2.58h-.15l-.84-1.64H219l-.35-.79-3.77-1.79.85-2.28,3.07-.15-.19-1.54-1,.35-.15-.65,1.74-1.29L216.73,230l-2.24.64,1.2-2.43-3.63-1.44,2.58-2.08,2.73.64,1.54-1.14v-.65h-.84v-.14l-1.89-2.59.7-.94-1.54-.15-.7-.94.35-.94-1.19-.15,3.08-2.59-1.54-1.29,1-5,.7-.65,1.88.3h.7l.84-.15v2.88l.7-.15v.15l.49-1.78h1.39l.15,1.29.15.15v.14l.15.15.84.5.5.15V213l1.19-.5.15-1.44,1,.15v-.79l1.05-.5,1.39.5.49-1.14-.84-1.59,1.74-1.29v-1.94l1.53-.65-.69-2.87-.35-.8-1.39-.3L229,201l-1.19-.64.69-1.29.7.49,4.12-4h1l-.84-1.29.5-.49.14-3.23L236,190l-.5,1,1,.64,2.58-1.59-.15-.79.35-.8-1.74-1.58v3.07l-.84-.94-1.89.15V188l-.5,1.14-.49-.8.69-2.08h.7l.15,1.79.49-1.59,1.89-.8-1.19-2.08-.35.94-.7-.49.35-1.3,1.39-3,1.89.29.49-.94-1.39-1.14.15-1.79-.69-.49.69-2.09,1.69-.94.7-.3-.15-1.29v-.94l.15-.5-1.54-.65-.85.65L236.74,168l-.35-1.79,1.54-.64.34-.95L236.74,163l.69-.8-.35-1.29-1.54-.5,3.58-.64,1.39.49.35-.64,3.07-.15,1.89-.94h2l.84-.5,4.62-1.79,2.93.8.15.64.69-.64,2.38,1.79,2.59-1.3,3.92,1.94-1.19,1.14v.15l-1.34,1.94v.15l-.5.49-.15,1.14v.15l-.7,1,.85,1.44,1.39-.65v.15l.35,2.58.84.15-.15,1.44-2.23.15-.85,1.29-1.19.15-.69-.94.69-1.15-.49-.79.69-.15-3.28-.64.2,2.08,1.89-.3,1,2.73v.5l2-.3.49.94,1.74.65,2.38-.79.7,1.93,2,.95,1.2-1.59,3.22-.3.35,1.14,1.19-.79.35-.8H277l.15-.15.49-.15,1.05-.14,1.39.64,1.39-.5v.15l.49.15,1.19.8.5.94v.15l-.5,1.79,1.69-1.15H285l1.89-.64h.84v.15l1.39.3.35,1.14H291l-.35,1.14,1,1.94,1.54,1.14,1.69-1.29.84-.15,1.39.15.35.79h.15v-.15h.15l.7.95-1.2.64,1.74,2.09-.69.94.34,1.94-2.38.79,1.54.94-1,1.44-3.08-.3-.35.8,1,.94-.14,1.29,1.53.15.15.15,1.19.8.2,1.43-2.73,2.44-1,.15v-.15l-1.89-.3L290,201l-.7.15-.5-1.14-2.38-.49-.84.59.34,2.43,1.74,5,6.36.3.49,1.44,1.05.49,1.19-.49-.15,1.14,3.62,1.79,1.54,3.87,7.05-.95.85-1.29,1.19-.29,1.88.79v-.65l1.05.3,6.15.65-.49.79v.15l.34,2.58-1.19,2.09,1.54,2.73v.15l-10.42,4.52h-.15l-13,5.8L289,239.09l-7.89,3.08-6.36,10-.49.65.84-2.74-1.19,2.74-1.54.64-.35,1.64,1.05-1.29-.5,2.08-2.73,3.23-7.1,2.48-6.55.15-6.36,2.93-3.27-.15-1.89,1.29Zm4.76-69.3,1.05.29.34-.64-1.39-.5Zm23.78-23,.85-.3-.7-.79-1.39.64-.15.5v.15l.35,1.14.85-.15Z"/></g><polyline class="cls-16" points="333.63 100.89 333.63 107.43 282.27 107.43 282.27 100.89"/><g class="cls-17"><text class="cls-18" transform="translate(239.72 107.6)">% d’ocupació:</text><text class="cls-19" transform="translate(275.52 107.6)"><tspan xml:space="preserve">  </tspan></text></g><text class="cls-18" transform="translate(278.61 117.54)">menys</text><text class="cls-18" transform="translate(328.73 117.54)">més</text><path class="cls-20" d="M276.85,240.45h0l0,0h0v-.1h.15v-.05l.05-.05,0,0h0v-.05h0v-.2H277l-.05-.06h0l0-.2h0l0,0,.1-.1.1-.1.1-.15v-.1l-.05-.15v-.1h.15l.25-.15.05-.05,0-.05v-.1l.05-.1h.11l.1.05.1-.05.05-.05.1,0h.2l.1,0,.15.05.1.05H279l.1,0h.3v.2h.05v.1h0v0h0v.05h0l1,1.41v.05l0,.1.1.15.1.2,0,.1.1.1.1.15.1.2h-.1l-.05,0h-.05l-.05.05h-.05l0,.05h0v0l-.1.1v.05h0v.05h0l-.05,0h0l-.05.05v.1l0,.05-.05,0v.15h0v.15l-.05,0v.1h0v0h0v.05h0l-.05.1v.1h0v.05h0v0h-.05V243h0v.05h0v0h0v.05h0v0h0l.1-.45-.2-.05-.05.1L280,243l.2.05v.05L280,243v.05h.05v.1l.1,0v-.1h0l-.05.1h-.05l.05.05h0l-.05-.05h0l.1.05h0l-.05-.05h0v.1h0v.15h0v.05h0v.05h0v0h0v.05h0v.3h0V244h0l.05.05h0l-.05-.05h0v.05h0v0h0v.15h.05v-.05h0l-.2.4-.1.2h0l.1-.2.15-.35h0l-.2.1,0,.1h0l0,0-.1,0h0l.05,0-.1-.2h0l-.05.1v0h0v.05h0l0,0,0,.05.05-.1h.1l.05,0h0l.1.1h0l-.05.15h0v0h0l-.05,0h-.05l-.05.05h0v.1h0v.05h0v0h0l-.05.05h0l0-.05V245l0,.05h0l.05,0h-.05l0,.05h0l-.05,0h0l-.05,0-.05,0,.05.05h0l.05.05h0l-.15-.15h0l-.1,0h0l-.05.1v0h0l.1.1h0l-.1-.1h0l-.05.05v.1l-.05.05,0,.1h0l.1.1h0l-.05-.05,0,0h-.05l-.05,0-.05.05-.05.05,0,0-.05.05v.1l.1.1h0l0,0h0l0,0h0l-.1-.1h-.05l-.05.05-.05,0,0,.05-.05,0-.05.05-.05.05v0l.1.1h0l-.1-.1h0l.1.1h0l-.1-.1h-.05l0,.05-.05,0h0v.15h0l.1.1h0l0,.05,0,.05v0l0,.05-.05,0-.05.05-.05.05-.05,0h-.1l.05,0,0-.05h0l.05-.05-.05,0-.1.1h0l-.05.05L278,247l.15-.15-.1-.1-.15.15h0l.1.1h0v.05h0l-.05,0h0l-.05,0v0h0v.05h-.11l-.05,0h0v.05h0v.15h0l.1,0h0l-.1,0h0v0h0l.1.05h0l-.15-.05h0l0,.05-.05.05h0l-.05.1v.1h0v.1h0l-.05.05-.05,0,0,.1-.05.15v.2h0v.15h0v0h.05l0,0h0l-.3.66h0v0h0v.05h0l-.1.4h0l.1-.35h0l0-.15h.05l.15-.3h0l-.1-.06h0v.06h0v.15h0v.05l-.05,0h0v0h0v-.05h0V249h0v.05l.1-.15v-.16h0v-.15h-.1v.15h-.05v-.05h0v-.2h0v-.05h0l.2.05v-.05h-.1v-.15h.1v-.1h-.1l.05-.15-.05-.05-.05.05v.2h0l0-.25h0l.1-.05h0v-.15h0l-.05-.2h0v0l-.1-.05H277l.1.35h0l-.15.25h0l-.1,0V248l.15-.2h0l-.05-.2h0l-.35.55h0l.35.2h0l-.05.1h0l-.35-.2h0v.25h.05v.05h-.05v.2h0v.05l.25.11h0l.05.05h0l-.1.2h-.05v0l-.25-.1-.2.35h.05l.25.1-.1.2-.35-.15-.1.15.25.2-.45.95-.25-.15h-.1l-.7.5-.05.05h-.05v-.15h0V251h-.05v-.05h-.05V251h0v-.05h-.05l-.1,1h-.3l-.1.15.15.05.1,0-.1.25h0v.05l.2.1h0l.05-.05h0v0h0v-.05h0v0h0v-.05h0v-.05h0v0h0v-.05h0v0h0v-.05h0V252h0v0h0l0-.05h0v0h0l.05-.05h0l.15.05h0v0h0l.15.05h0v0h0v.05h.05V252h0v.05h-.05l-.05.1h0v.1h-.05v.2h0v0h0v.05h0v.05h0v0h0v.05h0v0h0v.05l0,.05V253h0v.05h0v.05h0v-.05h-.35v.05h0v.4h0v.05h0l-.05.15h-1.9l-.15-.05-.15,0-.15-.05-.1-.05-.1,0-.1-.05-.1,0-.05-.05h0l-.05-.05-.1,0-.05-.05-.1-.2-.1-.15-.05-.1h0v-.05L269,254.51l-.1-.1-.05,0-.05-.05-.05-.05-.05,0h0l-.1-.05h0v0h0V254h-.1l-.11-.05h-.2l.25-.25h0l-.2-.1-.3-.2.05-.05.1-.1,0-.05.25-.15.36-.2-.2-.45v-.05l-.11-.15-.05-.1h0l-.05-.1-.05-.05-.05,0h0l-.05-.1,0-.1v0l-.15-.1-.05,0v-.2l.1-.2h.2l.1.05v.1l.1,0,.36-.15-.05-.15.2-.4v-.05l-.1-.2.15-.05.05,0v-.05h0l.1-.1h0V250l-.05-.15.05-.1-.15-.15.1-.1v-.21l-.1-.1v0l.05-.05-.05,0,0-.05-.05-.05-.05-.1v-.25l-.05,0-.05-.05v-.2l.05-.1.05,0,.1-.15,0-.1.05-.05.05,0,.05-.1v-.1l.05-.1,0-.1v-.1l0-.05H269v-.2L269,247l-.05-.05-.1,0-.1-.05h-.05v.05l0,0h-.51l-.15,0-.05-.05h-.2l-.05.05v.15l-.05,0-.15.1-.05.05-.05.1,0,.05-.05,0-.05.05-.05.05H267l-.15-.05h-.15l-.1-.2-.1-.15v-.05h.1V247l.05-.1.05,0,.05-.05.1.05h.3l.05-.05.05-.05v0l.05-.1v-.05h0v-.05l0,0v-.05l-.1,0v-.05l-.05-.05.05,0h-.05v-.05h0V246l-.05-.1v-.1l0-.05h.2l.05-.05h.1v-.15l-.05,0-.2-.1h-.35v-.15l0-.1h.1l.05-.05h0l.05,0-.05-.05-.1-.1h-.15l-.05-.15v0l-.05-.05-.05-.05v-.2l.05-.05h.15v.1h.15v.2h0l.1.05.1,0h.15v.1h0v-.1h0l.05.05v0l.05.05v.05h.1l.1,0h.05l.2.05h.1l.05-.1h.1V245l.05-.05.05,0,.05-.1,0-.05v-.05h.05l.06.05.05.05h.05l.05,0v.1l0,.1h.15l.05,0,0,.05v0h.9l.1.05.05.05.05,0,.15.1h.15l.05,0,0-.1v-.1l.05,0,.05-.05.15-.15.1-.1.05-.1.05-.1,0-.1v-.25l.05-.1V244l-.05-.15v-.1l.1,0,.15-.1v-.1l.05,0,.05-.05.05,0h.3l.1,0H272l.1,0h.2l.05,0,.05.05h.35l.05-.05.05-.1.05-.05,0,0h.25l.1-.05h.15l.05.05.05,0h.1v-.1l0,0h.05V243l-.05-.1v-.2l.05,0,.05-.1-.05-.05v-.05h0l.05-.1.05-.1.05-.05.15-.1h.1l0,0h.05l.05-.05h.05l.05-.05,0,0,.05-.05.1,0h.15l.05-.05H275l-.05-.05v0h-.05l0-.05v-.15l0,.05h.1l.25-.05h.05l.1.05.05-.05.15-.3,0,0h.1l.05,0,.05-.05,0,0,.15-.05h.15l.2-.1.05,0,.45.25h.25Zm-11.66,3.6h0l.1.1,0,0h.15v.25l.05.05,0,.05h.2l0,0v.1l0,.1v0h0l.2.15v.3l.05.1v.2l-.05.05h-.1l-.15,0h-.15l.05.05v.2l-.05.15,0,.05-.15,0h-.2v.15l-.05.05h-.2l-.05-.05-.05-.1v-.2l.15-.15.05-.1v-.4l-.05-.15v-.05l-.05,0-.05-.05-.05,0-.1-.05h0l.05-.05.15-.1.1,0,0-.05v-.15l.05-.15v-.2l-.05-.15v-.3h0Zm1.1,1.8h0l.1.1-.05.05,0,.05-.05,0-.05.05v.1l-.05.05-.05,0,0,.05H266v-.05l.05-.1v-.2h0l.1-.05.05-.05h.1Zm11.82.9h0v-.1h0v-.05h0v.15l.05-.05h0l-.05.05Zm0,0h0v.05h0v-.05Zm-.05.05h0v0h0v0Zm-.31.35.05-.05h0v.05h-.05v0h0v0Zm-2.2,2.86h0l.05-.1h0Zm-1.75,3.8h.05v-.15h-.05v-.4h0l-.05,0h0l.05-.4h-.05v-.05h.05l.75-1.55h.05v-.05h0v.05h0v.15h0v0h0v.15h0v.05l-.05,0v.1h0v.05h0l-.05.05h0V252h0v.1h0v.15h0v.2h0v0h0v.05h0v.05h0v0h0v.1h0v.05h0v.05h0v0h0V253h0v0h0v.1h0v.15h0v.05h0v.15h0v0h0v.05h0v.05h0v0h0v.05h0v.15h0v0h0v.1h0v.15h0v.15h0v.1h0v.05h0v-.1l-.05-.15-.05-.15,0-.25-.05-.1-.05-.1h0l.1-.45,0-.3h-.1v0h.05v-.1h0v-.25l-.55,1.25Zm-1.3-.05Z"/><text class="cls-21" transform="translate(37.76 115.79)">LLEIDA</text><text class="cls-22" transform="translate(37.76 125.8)">VARIACIÓ INT. 2020</text><text class="cls-19" transform="translate(106.56 125.8)">|2019</text><text class="cls-21" transform="translate(370.51 150.44)">GIRONA</text><text class="cls-22" transform="translate(370.51 159.62)">VARIACIÓ INT. 2020</text><text class="cls-19" transform="translate(440.31 159.62)">|2019</text><text class="cls-21" transform="translate(320.41 244.21)">ENTORN DE BARCELONA</text><text class="cls-22" transform="translate(320.41 253.14)">VARIACIÓ INT. 2020</text><text class="cls-19" transform="translate(389.21 253.14)">|2019</text><text class="cls-21" transform="translate(194.23 296.92)">TARRAGONA</text><text class="cls-22" transform="translate(194.23 306.59)">VARIACIÓ INT. 2020</text><text class="cls-19" transform="translate(262.04 306.59)">|2019</text><text class="cls-23" transform="translate(437.06 282.53)"> </text><text class="cls-24" transform="translate(38.5 141.56)">Ocupació: <tspan x="0" y="8.4">42,4% (-0,6 pp) </tspan><tspan class="cls-25" x="50.62" y="8.4">| +2,6 pp</tspan><tspan x="0" y="25.2">Viatgers: </tspan><tspan x="0" y="33.6">232.315 (ND)</tspan><tspan class="cls-25" x="42.77" y="33.6">|</tspan><tspan x="46.56" y="33.6"> </tspan><tspan class="cls-25" x="48.38" y="33.6">+16,8%</tspan><tspan x="0" y="50.4">Pernoctacions: </tspan><tspan x="0" y="58.8">806.390 (ND) </tspan><tspan class="cls-25" x="44.59" y="58.8">|+25,2%</tspan></text><text class="cls-24" transform="translate(371.38 174.79)">Ocupació: 38,7% (+6,9 pp) <tspan class="cls-25" x="87.64" y="0">| -3,2 pp</tspan><tspan x="0" y="13">Viatgers: 1.214.369 (ND) </tspan><tspan class="cls-25" x="81.72" y="13" xml:space="preserve"> |-11,2%</tspan><tspan x="0" y="26">Pernoctacions: 5.857.663 (ND) </tspan><tspan class="cls-25" x="102.15" y="26">| -23,3%</tspan></text><text class="cls-24" transform="translate(321.77 266.88)">Ocupació: 42,1% (+2,0 pp) <tspan class="cls-25" x="87.64" y="0">| -5,3 pp</tspan><tspan x="0" y="13">Viatgers: 557.780 (+55,6%) </tspan><tspan class="cls-25" x="89.07" y="13">| -26,2%</tspan><tspan x="0" y="26">Pernoctacions: 2.110.387 (+62,7%)</tspan><tspan class="cls-25" x="113.6" y="26">|</tspan><tspan x="117.39" y="26"> </tspan><tspan class="cls-25" x="119.21" y="26">-28,4%</tspan></text><text class="cls-24" transform="translate(195.88 320.7)">Ocupació: 44,1% (+9,9 pp)<tspan class="cls-25" x="85.82" y="0">|-+3,7 pp</tspan><tspan x="0" y="13">Viatgers: 1.026.391 (ND) </tspan><tspan class="cls-25" x="81.72" y="13">| -3,6%</tspan><tspan x="0" y="26">Pernoctacions: 4.940.766 (ND) </tspan><tspan class="cls-25" x="102.15" y="26">|-16,8%</tspan></text></svg>