<svg xmlns='http://www.w3.org/2000/svg' version='1.1' width='786px' height='516px'><svg xmlns="http://www.w3.org/2000/svg" class="fl-legend-icon" height="14" width="0" style="display: none;" x="0" y="0"><path style="fill: rgb(29, 105, 150); stroke: none; stroke-width: 0;"/></svg><svg xmlns="http://www.w3.org/2000/svg" class="fl-legend-icon" height="14" width="0" style="display: none;" x="0" y="0"><path style="fill: rgb(0, 204, 204); stroke: none; stroke-width: 0;"/></svg><svg xmlns="http://www.w3.org/2000/svg" class="fl-legend-icon" height="14" width="0" style="display: none;" x="0" y="0"><path style="fill: rgb(194, 194, 194); stroke: none; stroke-width: 0;"/></svg><svg xmlns="http://www.w3.org/2000/svg" id="graphic" fill="currentColor" font-family="Source Sans Pro" width="774.75" height="334.46484375" x="10.5" y="181.53515625"><g class="facets"><g class="facet" transform="translate(0,0)" opacity="1"><g class="fl-chart"><rect class="fl-chart-debug-rectangle" x="0" y="0" style="stroke-width: 1px; fill: none; display: none; stroke: red;" width="774.75" height="334.46484374999994"/><clipPath class="fl-data-clip-path" id="fl-chart-layout-1-clip-path"><rect x="84.7" y="8.775" width="676.8130882263183" height="298.68984374999997"/></clipPath><clipPath class="fl-grid-clip-path" id="fl-chart-layout-1-grid-clip-path"><rect x="83.20000004470349" y="8.025000022351742" width="679.8130881369113" height="300.1898437052965"/></clipPath><g class="fl-chart-background"><rect class="fl-chart-fill" x="84.7" y="8.775" width="676.8130882263183" height="298.68984374999997" fill="none"/><image class="fl-chart-image" x="84.7" y="8.775" width="676.8130882263183" height="298.68984374999997" preserveAspectRatio="none"/><rect class="fl-chart-interaction" x="84.7" y="8.775" width="676.8130882263183" height="298.68984374999997" style="opacity: 0;"/></g><g class="fl-data-background" clip-path="url(#fl-chart-layout-1-clip-path)"/><g class="fl-gridlines" clip-path="url(#fl-chart-layout-1-grid-clip-path)" style="pointer-events: none;"><g class="fl-gridlines-vertical"/><g class="fl-gridlines-horizontal"><line x1="84.7" x2="761.5130882263184" y1="307.46484374999994" y2="307.46484374999994" style="shape-rendering: crispedges; opacity: 1; stroke: rgb(238, 238, 238); stroke-width: 0.75;"/><line x1="84.7" x2="761.5130882263184" y1="232.79238281249994" y2="232.79238281249994" style="shape-rendering: crispedges; opacity: 1; stroke: rgb(238, 238, 238); stroke-width: 0.75;"/><line x1="84.7" x2="761.5130882263184" y1="158.11992187499996" y2="158.11992187499996" style="shape-rendering: crispedges; opacity: 1; stroke: rgb(238, 238, 238); stroke-width: 0.75;"/><line x1="84.7" x2="761.5130882263184" y1="83.44746093749998" y2="83.44746093749998" style="shape-rendering: crispedges; opacity: 1; stroke: rgb(238, 238, 238); stroke-width: 0.75;"/><line x1="84.7" x2="761.5130882263184" y1="8.775" y2="8.775" style="shape-rendering: crispedges; opacity: 1; stroke: rgb(238, 238, 238); stroke-width: 0.75;"/></g></g><g class="fl-axes"><g class="fl-x-axes"><g class="fl-axis fl-x-axis fl-bottom-axis"><g class="fl-axis-line"><line x1="84.7" y1="307.46484374999994" y2="307.46484374999994" style="shape-rendering: crispedges; stroke-linecap: square; stroke-width: 1.5; opacity: 1; stroke: rgb(238, 238, 238);" x2="761.5130882263184"/></g><g class="fl-axis-ticks"><g transform="translate(112.90054534276324,307.46484374999994)" style="opacity: 1;"><line y2="7" style="stroke: rgb(238, 238, 238); stroke-width: 1.5;"/><text text-anchor="end" transform="translate(12.02667236328125,18.816000000000003)" style="user-select: none; cursor: default; fill: rgb(0, 51, 102); font-size: 12.6px; font-weight: normal;"><tspan x="0" dy="0">Gen.</tspan></text></g><g transform="translate(169.30163602828975,307.46484374999994)" style="opacity: 1;"><line y2="7" style="stroke: rgb(238, 238, 238); stroke-width: 1.5;"/><text text-anchor="end" transform="translate(11.13836669921875,18.816000000000003)" style="user-select: none; cursor: default; fill: rgb(0, 51, 102); font-size: 12.6px; font-weight: normal;"><tspan x="0" dy="0">Feb.</tspan></text></g><g transform="translate(225.70272671381628,307.46484374999994)" style="opacity: 1;"><line y2="7" style="stroke: rgb(238, 238, 238); stroke-width: 1.5;"/><text text-anchor="end" transform="translate(11.150978088378906,18.816000000000003)" style="user-select: none; cursor: default; fill: rgb(0, 51, 102); font-size: 12.6px; font-weight: normal;"><tspan x="0" dy="0">Mar.</tspan></text></g><g transform="translate(282.1038173993428,307.46484374999994)" style="opacity: 1;"><line y2="7" style="stroke: rgb(238, 238, 238); stroke-width: 1.5;"/><text text-anchor="end" transform="translate(12.070770263671875,18.816000000000003)" style="user-select: none; cursor: default; fill: rgb(0, 51, 102); font-size: 12.6px; font-weight: normal;"><tspan x="0" dy="0">Abr.*</tspan></text></g><g transform="translate(338.5049080848693,307.46484374999994)" style="opacity: 1;"><line y2="7" style="stroke: rgb(238, 238, 238); stroke-width: 1.5;"/><text text-anchor="end" transform="translate(10.873779296875,18.816000000000003)" style="user-select: none; cursor: default; fill: rgb(0, 51, 102); font-size: 12.6px; font-weight: normal;"><tspan x="0" dy="0">Mai.</tspan></text></g><g transform="translate(394.90599877039585,307.46484374999994)" style="opacity: 1;"><line y2="7" style="stroke: rgb(238, 238, 238); stroke-width: 1.5;"/><text text-anchor="end" transform="translate(11.465972900390625,18.816000000000003)" style="user-select: none; cursor: default; fill: rgb(0, 51, 102); font-size: 12.6px; font-weight: normal;"><tspan x="0" dy="0">Jun.</tspan></text></g><g transform="translate(451.3070894559224,307.46484374999994)" style="opacity: 1;"><line y2="7" style="stroke: rgb(238, 238, 238); stroke-width: 1.5;"/><text text-anchor="end" transform="translate(9.626380920410156,18.816000000000003)" style="user-select: none; cursor: default; fill: rgb(0, 51, 102); font-size: 12.6px; font-weight: normal;"><tspan x="0" dy="0">Jul.</tspan></text></g><g transform="translate(507.7081801414489,307.46484374999994)" style="opacity: 1;"><line y2="7" style="stroke: rgb(238, 238, 238); stroke-width: 1.5;"/><text text-anchor="end" transform="translate(11.434471130371094,18.816000000000003)" style="user-select: none; cursor: default; fill: rgb(0, 51, 102); font-size: 12.6px; font-weight: normal;"><tspan x="0" dy="0">Ago.</tspan></text></g><g transform="translate(564.1092708269755,307.46484374999994)" style="opacity: 1;"><line y2="7" style="stroke: rgb(238, 238, 238); stroke-width: 1.5;"/><text text-anchor="end" transform="translate(10.168174743652344,18.816000000000003)" style="user-select: none; cursor: default; fill: rgb(0, 51, 102); font-size: 12.6px; font-weight: normal;"><tspan x="0" dy="0">Set.</tspan></text></g><g transform="translate(620.510361512502,307.46484374999994)" style="opacity: 1;"><line y2="7" style="stroke: rgb(238, 238, 238); stroke-width: 1.5;"/><text text-anchor="end" transform="translate(10.73516845703125,18.816000000000003)" style="user-select: none; cursor: default; fill: rgb(0, 51, 102); font-size: 12.6px; font-weight: normal;"><tspan x="0" dy="0">Oct.</tspan></text></g><g transform="translate(676.9114521980285,307.46484374999994)" style="opacity: 1;"><line y2="7" style="stroke: rgb(238, 238, 238); stroke-width: 1.5;"/><text text-anchor="end" transform="translate(11.755783081054688,18.816000000000003)" style="user-select: none; cursor: default; fill: rgb(0, 51, 102); font-size: 12.6px; font-weight: normal;"><tspan x="0" dy="0">Nov.</tspan></text></g><g transform="translate(733.3125428835551,307.46484374999994)" style="opacity: 1;"><line y2="7" style="stroke: rgb(238, 238, 238); stroke-width: 1.5;"/><text text-anchor="end" transform="translate(11.207679748535156,18.816000000000003)" style="user-select: none; cursor: default; fill: rgb(0, 51, 102); font-size: 12.6px; font-weight: normal;"><tspan x="0" dy="0">Des.</tspan></text></g></g><g class="fl-axis-title"/></g><g class="fl-axis fl-x-axis fl-top-axis"><g class="fl-axis-line"/><g class="fl-axis-ticks"/><g class="fl-axis-title"/></g></g><g class="fl-y-axes"><g class="fl-axis fl-y-axis fl-left-axis"><g class="fl-axis-line"><line x1="84.7" x2="84.7" y1="307.46484374999994" y2="8.775" style="shape-rendering: crispedges; stroke-linecap: square; stroke-width: 0; opacity: 1; stroke: rgb(238, 238, 238);"/></g><g class="fl-axis-ticks"><g transform="translate(84.7,307.46484374999994)" style="opacity: 1;"><line x2="-7" style="stroke: rgb(238, 238, 238); stroke-width: 0;"/><text text-anchor="end" transform="translate(-10.5,5.082000000000001)" style="user-select: none; cursor: default; fill: rgb(0, 51, 102); font-size: 15.4px; font-weight: normal;"><tspan x="0" dy="0">0%</tspan></text></g><g transform="translate(84.7,8.775)" style="opacity: 1;"><line x2="-7" style="stroke: rgb(238, 238, 238); stroke-width: 0;"/><text text-anchor="end" transform="translate(-10.5,5.082000000000001)" style="user-select: none; cursor: default; fill: rgb(0, 51, 102); font-size: 15.4px; font-weight: normal;"><tspan x="0" dy="0">80%</tspan></text></g><g transform="translate(84.7,83.44746093749998)" style="opacity: 1;"><line x2="-7" style="stroke: rgb(238, 238, 238); stroke-width: 0;"/><text text-anchor="end" transform="translate(-10.5,5.082000000000001)" style="user-select: none; cursor: default; fill: rgb(0, 51, 102); font-size: 15.4px; font-weight: normal;"><tspan x="0" dy="0">60%</tspan></text></g><g transform="translate(84.7,158.11992187499996)" style="opacity: 1;"><line x2="-7" style="stroke: rgb(238, 238, 238); stroke-width: 0;"/><text text-anchor="end" transform="translate(-10.5,5.082000000000001)" style="user-select: none; cursor: default; fill: rgb(0, 51, 102); font-size: 15.4px; font-weight: normal;"><tspan x="0" dy="0">40%</tspan></text></g><g transform="translate(84.7,232.79238281249994)" style="opacity: 1;"><line x2="-7" style="stroke: rgb(238, 238, 238); stroke-width: 0;"/><text text-anchor="end" transform="translate(-10.5,5.082000000000001)" style="user-select: none; cursor: default; fill: rgb(0, 51, 102); font-size: 15.4px; font-weight: normal;"><tspan x="0" dy="0">20%</tspan></text></g></g><g class="fl-axis-title"/></g><g class="fl-axis fl-y-axis fl-right-axis"><g class="fl-axis-line"/><g class="fl-axis-ticks"/><g class="fl-axis-title"/></g></g><g class="axis-highlights" style="opacity: 1;"><g class="line y" transform="translate(84.69999694824219, 86.06099700927734)"><line width="0" stroke-dasharray="2 2" stroke="#003366" stroke-width="2" x2="676.8130882263183"/><text transform="translate(671.2130882263183, -5.6000000000000005)" text-anchor="end" font-size="11.200000000000001"><tspan class="bg-label" y="0px" x="0" font-weight="regular" display="block" fill="none" stroke="#FFFFFF" stroke-width="2">Mitjana 2019: 59,3%</tspan><tspan class="fg-label" y="0px" x="0" font-weight="regular" fill="#003366">Mitjana 2019: 59,3%</tspan></text></g></g></g><g class="fl-data-foreground" clip-path="url(#fl-chart-layout-1-clip-path)"/></g><g class="facet-title" transform="translate(0, 0)"><rect class="facet-title-bg" height="0" fill="#eeeeee" x="84.7" clip-path="url(#facet-clip-0)"/><text class="facet-title-text" font-size="17.5" font-weight="bold" dx="0" dy="0" x="84.7" clip-path="url(#facet-clip-0)" opacity="0"/></g><clipPath class="facet-clip" id="facet-clip-0"><rect transform="translate(-10.5, -10.5)" width="782.5130882263184" height="337.91484375"/></clipPath></g></g><g class="annotations below"/><g id="areas"/><g id="lines"><g class="series"><clipPath id="clip-0-0"><rect width="676.8130882263183" x="84.7" y="5.975" height="304.28984375"/></clipPath><path class="line" opacity="1" pointer-events="none" fill="none" stroke="#1d6996" stroke-width="2.8000000000000003" transform="translate(0,0)" clip-path="url(#clip-0-0)" clip-path-id="0-0" d="M112.90054534276324,238.76617968749994C131.7009089046054,235.3125783691406,150.50127246644757,231.85897705078125,169.30163602828975,229.4321220703125C188.10199959013192,227.00526708984373,206.9023631519741,224.7028662109374,225.70272671381628,224.20504980468743C244.50309027565845,223.70723339843747,263.3034538375006,223.95614160156245,282.1038173993428,223.45832519531248C300.904180961185,222.96050878906252,319.70454452302715,216.48889550781246,338.5049080848693,210.76400683593747C357.3052716467115,205.03911816406247,376.1056352085537,198.2563696289062,394.90599877039585,189.10899316406247C413.70636233223803,179.96161669921872,432.5067258940802,171.56096484374996,451.3070894559224,155.87974804687497C470.10745301776456,140.19853124999997,488.90781657960673,95.0216923828125,507.7081801414489,95.0216923828125C526.5085437032911,95.0216923828125,545.3089072651333,171.93432714843746,564.1092708269755,171.93432714843746C582.9096343888176,171.93432714843746,601.7099979506598,161.85354492187497,620.510361512502,161.85354492187497C639.3107250743442,161.85354492187497,658.1110886361863,189.6068095703125,676.9114521980285,192.09589160156247C695.7118157598708,194.58497363281245,714.5121793217129,195.20724414062497,733.3125428835551,195.82951464843745"/></g><g class="series"><clipPath id="clip-0-1"><rect width="676.8130882263183" x="84.7" y="5.975" height="304.28984375"/></clipPath><path class="line" opacity="1" pointer-events="none" fill="none" stroke="#00cccc" stroke-width="2.8000000000000003" transform="translate(0,0)" clip-path="url(#clip-0-1)" clip-path-id="0-1" d="M112.90054534276324,177.53476171875C131.7009089046054,169.320791015625,150.50127246644757,161.10682031249996,169.30163602828975,161.10682031249996C188.10199959013192,161.10682031249996,206.9023631519741,193.5893408203125,225.70272671381628,226.07186132812498M338.5049080848693,250.34041113281245C357.3052716467115,246.23342578124993,376.1056352085537,242.12644042968742,394.90599877039585,233.16574511718744C413.70636233223803,224.20504980468746,432.5067258940802,206.96815673828124,451.3070894559224,196.5762392578125C470.10745301776456,186.18432177734374,488.90781657960673,170.81424023437498,507.7081801414489,170.81424023437498C526.5085437032911,170.81424023437498,545.3089072651333,210.88846093749996,564.1092708269755,220.84478906249996C582.9096343888176,230.80111718749995,601.7099979506598,232.04565820312493,620.510361512502,235.77928124999994C639.3107250743442,239.51290429687495,658.1110886361863,243.24652734374996,676.9114521980285,243.24652734374996C695.7118157598708,243.24652734374996,714.5121793217129,240.07294775390622,733.3125428835551,236.89936816406248"/></g><g class="series"><clipPath id="clip-0-2"><rect width="676.8130882263183" x="84.7" y="5.975" height="304.28984375"/></clipPath><path class="line" opacity="1" pointer-events="none" fill="none" stroke="#c2c2c2" stroke-width="2.8000000000000003" transform="translate(0,0)" clip-path="url(#clip-0-2)" clip-path-id="0-2" d="M112.90054534276324,179.40157324218748C131.7009089046054,167.08061718749997,150.50127246644757,154.75966113281248,169.30163602828975,149.53258886718748C188.10199959013192,144.3055166015625,206.9023631519741,146.919052734375,225.70272671381628,141.69198046875C244.50309027565845,136.464908203125,263.3034538375006,95.3950546875,282.1038173993428,95.3950546875C300.904180961185,95.3950546875,319.70454452302715,100.62212695312499,338.5049080848693,100.62212695312499C357.3052716467115,100.62212695312499,376.1056352085537,55.32083398437507,394.90599877039585,47.60467968750003C413.70636233223803,39.88852539062499,432.5067258940802,41.87979101562498,451.3070894559224,36.030448242187475C470.10745301776456,30.18110546874997,488.90781657960673,12.508623046874986,507.7081801414489,12.508623046874986C526.5085437032911,12.508623046874986,545.3089072651333,37.46167041015622,564.1092708269755,50.96494042968749C582.9096343888176,64.46821044921873,601.7099979506598,76.35357714843752,620.510361512502,93.5282431640625C639.3107250743442,110.70290917968751,658.1110886361863,145.05224121093747,676.9114521980285,154.01293652343747C695.7118157598708,162.97363183593748,714.5121793217129,165.21380566406248,733.3125428835551,167.45397949218747"/></g></g><g id="data-points"><g class="series" transform="translate(0,0)" clip-path="url(#facet-clip-0)"><path class="data-point" visibility="visible" fill="#1d6996" data-type="point" transform="translate(0, 0)" d="M109.40054534276324,238.76617968749994A3.5,3.5,0,1,1,116.40054534276324,238.76617968749994A3.5,3.5,0,1,1,109.40054534276324,238.76617968749994Z" opacity="1" id="point-0-0"/><path class="data-point" visibility="visible" fill="#1d6996" data-type="point" transform="translate(0, 0)" d="M165.80163602828975,229.4321220703125A3.5,3.5,0,1,1,172.80163602828975,229.4321220703125A3.5,3.5,0,1,1,165.80163602828975,229.4321220703125Z" opacity="1" id="point-0-1"/><path class="data-point" visibility="visible" fill="#1d6996" data-type="point" transform="translate(0, 0)" d="M222.20272671381628,224.20504980468743A3.5,3.5,0,1,1,229.20272671381628,224.20504980468743A3.5,3.5,0,1,1,222.20272671381628,224.20504980468743Z" opacity="1" id="point-0-2"/><path class="data-point" visibility="visible" fill="#1d6996" data-type="point" transform="translate(0, 0)" d="M278.6038173993428,223.45832519531248A3.5,3.5,0,1,1,285.6038173993428,223.45832519531248A3.5,3.5,0,1,1,278.6038173993428,223.45832519531248Z" opacity="1" id="point-0-3"/><path class="data-point" visibility="visible" fill="#1d6996" data-type="point" transform="translate(0, 0)" d="M335.0049080848693,210.76400683593747A3.5,3.5,0,1,1,342.0049080848693,210.76400683593747A3.5,3.5,0,1,1,335.0049080848693,210.76400683593747Z" opacity="1" id="point-0-4"/><path class="data-point" visibility="visible" fill="#1d6996" data-type="point" transform="translate(0, 0)" d="M391.40599877039585,189.10899316406247A3.5,3.5,0,1,1,398.40599877039585,189.10899316406247A3.5,3.5,0,1,1,391.40599877039585,189.10899316406247Z" opacity="1" id="point-0-5"/><path class="data-point" visibility="visible" fill="#1d6996" data-type="point" transform="translate(0, 0)" d="M447.8070894559224,155.87974804687497A3.5,3.5,0,1,1,454.8070894559224,155.87974804687497A3.5,3.5,0,1,1,447.8070894559224,155.87974804687497Z" opacity="1" id="point-0-6"/><path class="data-point" visibility="visible" fill="#1d6996" data-type="point" transform="translate(0, 0)" d="M504.2081801414489,95.0216923828125A3.5,3.5,0,1,1,511.2081801414489,95.0216923828125A3.5,3.5,0,1,1,504.2081801414489,95.0216923828125Z" opacity="1" id="point-0-7"/><path class="data-point" visibility="visible" fill="#1d6996" data-type="point" transform="translate(0, 0)" d="M560.6092708269755,171.93432714843746A3.5,3.5,0,1,1,567.6092708269755,171.93432714843746A3.5,3.5,0,1,1,560.6092708269755,171.93432714843746Z" opacity="1" id="point-0-8"/><path class="data-point" visibility="visible" fill="#1d6996" data-type="point" transform="translate(0, 0)" d="M617.010361512502,161.85354492187497A3.5,3.5,0,1,1,624.010361512502,161.85354492187497A3.5,3.5,0,1,1,617.010361512502,161.85354492187497Z" opacity="1" id="point-0-9"/><path class="data-point" visibility="visible" fill="#1d6996" data-type="point" transform="translate(0, 0)" d="M673.4114521980285,192.09589160156247A3.5,3.5,0,1,1,680.4114521980285,192.09589160156247A3.5,3.5,0,1,1,673.4114521980285,192.09589160156247Z" opacity="1" id="point-0-10"/><path class="data-point" visibility="visible" fill="#1d6996" data-type="point" transform="translate(0, 0)" d="M729.8125428835551,195.82951464843745A3.5,3.5,0,1,1,736.8125428835551,195.82951464843745A3.5,3.5,0,1,1,729.8125428835551,195.82951464843745Z" opacity="1" id="point-0-11"/></g><g class="series" transform="translate(0,0)" clip-path="url(#facet-clip-0)"><path class="data-point" visibility="visible" fill="#00cccc" data-type="point" transform="translate(0, 0)" d="M109.40054534276324,177.53476171875A3.5,3.5,0,1,1,116.40054534276324,177.53476171875A3.5,3.5,0,1,1,109.40054534276324,177.53476171875Z" opacity="1" id="point-1-0"/><path class="data-point" visibility="visible" fill="#00cccc" data-type="point" transform="translate(0, 0)" d="M165.80163602828975,161.10682031249996A3.5,3.5,0,1,1,172.80163602828975,161.10682031249996A3.5,3.5,0,1,1,165.80163602828975,161.10682031249996Z" opacity="1" id="point-1-1"/><path class="data-point" visibility="visible" fill="#00cccc" data-type="point" transform="translate(0, 0)" d="M222.20272671381628,226.07186132812498A3.5,3.5,0,1,1,229.20272671381628,226.07186132812498A3.5,3.5,0,1,1,222.20272671381628,226.07186132812498Z" opacity="1" id="point-1-2"/><path class="data-point" visibility="visible" fill="#00cccc" data-type="point" transform="translate(0, 0)" d="M335.0049080848693,250.34041113281245A3.5,3.5,0,1,1,342.0049080848693,250.34041113281245A3.5,3.5,0,1,1,335.0049080848693,250.34041113281245Z" opacity="1" id="point-1-4"/><path class="data-point" visibility="visible" fill="#00cccc" data-type="point" transform="translate(0, 0)" d="M391.40599877039585,233.16574511718744A3.5,3.5,0,1,1,398.40599877039585,233.16574511718744A3.5,3.5,0,1,1,391.40599877039585,233.16574511718744Z" opacity="1" id="point-1-5"/><path class="data-point" visibility="visible" fill="#00cccc" data-type="point" transform="translate(0, 0)" d="M447.8070894559224,196.5762392578125A3.5,3.5,0,1,1,454.8070894559224,196.5762392578125A3.5,3.5,0,1,1,447.8070894559224,196.5762392578125Z" opacity="1" id="point-1-6"/><path class="data-point" visibility="visible" fill="#00cccc" data-type="point" transform="translate(0, 0)" d="M504.2081801414489,170.81424023437498A3.5,3.5,0,1,1,511.2081801414489,170.81424023437498A3.5,3.5,0,1,1,504.2081801414489,170.81424023437498Z" opacity="1" id="point-1-7"/><path class="data-point" visibility="visible" fill="#00cccc" data-type="point" transform="translate(0, 0)" d="M560.6092708269755,220.84478906249996A3.5,3.5,0,1,1,567.6092708269755,220.84478906249996A3.5,3.5,0,1,1,560.6092708269755,220.84478906249996Z" opacity="1" id="point-1-8"/><path class="data-point" visibility="visible" fill="#00cccc" data-type="point" transform="translate(0, 0)" d="M617.010361512502,235.77928124999994A3.5,3.5,0,1,1,624.010361512502,235.77928124999994A3.5,3.5,0,1,1,617.010361512502,235.77928124999994Z" opacity="1" id="point-1-9"/><path class="data-point" visibility="visible" fill="#00cccc" data-type="point" transform="translate(0, 0)" d="M673.4114521980285,243.24652734374996A3.5,3.5,0,1,1,680.4114521980285,243.24652734374996A3.5,3.5,0,1,1,673.4114521980285,243.24652734374996Z" opacity="1" id="point-1-10"/><path class="data-point" visibility="visible" fill="#00cccc" data-type="point" transform="translate(0, 0)" d="M729.8125428835551,236.89936816406248A3.5,3.5,0,1,1,736.8125428835551,236.89936816406248A3.5,3.5,0,1,1,729.8125428835551,236.89936816406248Z" opacity="1" id="point-1-11"/></g><g class="series" transform="translate(0,0)" clip-path="url(#facet-clip-0)"><path class="data-point" visibility="visible" fill="#c2c2c2" data-type="point" transform="translate(0, 0)" d="M109.40054534276324,179.40157324218748A3.5,3.5,0,1,1,116.40054534276324,179.40157324218748A3.5,3.5,0,1,1,109.40054534276324,179.40157324218748Z" opacity="1" id="point-2-0"/><path class="data-point" visibility="visible" fill="#c2c2c2" data-type="point" transform="translate(0, 0)" d="M165.80163602828975,149.53258886718748A3.5,3.5,0,1,1,172.80163602828975,149.53258886718748A3.5,3.5,0,1,1,165.80163602828975,149.53258886718748Z" opacity="1" id="point-2-1"/><path class="data-point" visibility="visible" fill="#c2c2c2" data-type="point" transform="translate(0, 0)" d="M222.20272671381628,141.69198046875A3.5,3.5,0,1,1,229.20272671381628,141.69198046875A3.5,3.5,0,1,1,222.20272671381628,141.69198046875Z" opacity="1" id="point-2-2"/><path class="data-point" visibility="visible" fill="#c2c2c2" data-type="point" transform="translate(0, 0)" d="M278.6038173993428,95.3950546875A3.5,3.5,0,1,1,285.6038173993428,95.3950546875A3.5,3.5,0,1,1,278.6038173993428,95.3950546875Z" opacity="1" id="point-2-3"/><path class="data-point" visibility="visible" fill="#c2c2c2" data-type="point" transform="translate(0, 0)" d="M335.0049080848693,100.62212695312499A3.5,3.5,0,1,1,342.0049080848693,100.62212695312499A3.5,3.5,0,1,1,335.0049080848693,100.62212695312499Z" opacity="1" id="point-2-4"/><path class="data-point" visibility="visible" fill="#c2c2c2" data-type="point" transform="translate(0, 0)" d="M391.40599877039585,47.60467968750003A3.5,3.5,0,1,1,398.40599877039585,47.60467968750003A3.5,3.5,0,1,1,391.40599877039585,47.60467968750003Z" opacity="1" id="point-2-5"/><path class="data-point" visibility="visible" fill="#c2c2c2" data-type="point" transform="translate(0, 0)" d="M447.8070894559224,36.030448242187475A3.5,3.5,0,1,1,454.8070894559224,36.030448242187475A3.5,3.5,0,1,1,447.8070894559224,36.030448242187475Z" opacity="1" id="point-2-6"/><path class="data-point" visibility="visible" fill="#c2c2c2" data-type="point" transform="translate(0, 0)" d="M504.2081801414489,12.508623046874986A3.5,3.5,0,1,1,511.2081801414489,12.508623046874986A3.5,3.5,0,1,1,504.2081801414489,12.508623046874986Z" opacity="1" id="point-2-7"/><path class="data-point" visibility="visible" fill="#c2c2c2" data-type="point" transform="translate(0, 0)" d="M560.6092708269755,50.96494042968749A3.5,3.5,0,1,1,567.6092708269755,50.96494042968749A3.5,3.5,0,1,1,560.6092708269755,50.96494042968749Z" opacity="1" id="point-2-8"/><path class="data-point" visibility="visible" fill="#c2c2c2" data-type="point" transform="translate(0, 0)" d="M617.010361512502,93.5282431640625A3.5,3.5,0,1,1,624.010361512502,93.5282431640625A3.5,3.5,0,1,1,617.010361512502,93.5282431640625Z" opacity="1" id="point-2-9"/><path class="data-point" visibility="visible" fill="#c2c2c2" data-type="point" transform="translate(0, 0)" d="M673.4114521980285,154.01293652343747A3.5,3.5,0,1,1,680.4114521980285,154.01293652343747A3.5,3.5,0,1,1,673.4114521980285,154.01293652343747Z" opacity="1" id="point-2-10"/><path class="data-point" visibility="visible" fill="#c2c2c2" data-type="point" transform="translate(0, 0)" d="M729.8125428835551,167.45397949218747A3.5,3.5,0,1,1,736.8125428835551,167.45397949218747A3.5,3.5,0,1,1,729.8125428835551,167.45397949218747Z" opacity="1" id="point-2-11"/></g></g><g id="lines-secondary"/><g id="data-point-labels"><g class="series" transform="translate(0,0)" clip-path="url(#facet-clip-0)"/><g class="series" transform="translate(0,0)" clip-path="url(#facet-clip-0)"/><g class="series" transform="translate(0,0)" clip-path="url(#facet-clip-0)"/></g><g id="stack-labels"/><g class="annotations above"/></svg></svg>