<?xml version="1.0" encoding="UTF-8"?>
<svg id="Capa_1" data-name="Capa 1" xmlns="http://www.w3.org/2000/svg" viewBox="0 0 141.12 272.24">
  <defs>
    <style>
      .cls-1 {
        fill: #99896e;
      }

      .cls-2 {
        fill: #f29584;
      }

      .cls-3 {
        fill: #c4bba2;
      }

      .cls-4 {
        fill: #d0a99a;
      }

      .cls-5 {
        fill: #6b6664;
      }

      .cls-6 {
        fill: #fff;
      }

      .cls-7 {
        fill: #e84e24;
      }

      .cls-8 {
        fill: #ee7952;
      }

      .cls-9 {
        fill: #30323f;
      }

      .cls-10 {
        fill: #eb6739;
      }
    </style>
  </defs>
  <g>
    <g>
      <g>
        <path class="cls-2" d="M81.97,53.57s-6.83-3.16-7.93-3.97c-4.97-3.66-4.3-4.48-5.69-15.3l-13.76,1.89c4.16,14.4-3.32,14.84-10.93,21.09,9.53,6.78,28.59,6.09,38.3-3.71Z"/>
        <path class="cls-8" d="M55.01,37.73c.61,2.6,1.03,4.83.65,7.38,4.9-4.04,12.15-2.18,12.94-8.6-6.1,3.5-11.29,2.84-13.59,1.22Z"/>
        <path class="cls-1" d="M51.72,33.01c7.89,16.71,25.45,3.26,21.03-17.99-3.6-17.3-35.27-12.16-21.03,17.99Z"/>
      </g>
      <path class="cls-1" d="M48.02,23.55c2.05-.78,2.53,3.61,2.71,5.8.35,4.31-5.95-4.56-2.71-5.8Z"/>
      <path class="cls-2" d="M74.14,21.29c-2.15-.45-1.94,3.96-1.77,6.15.33,4.31,5.16-5.43,1.77-6.15Z"/>
      <path class="cls-8" d="M49.56,28.44c-.08,0-.15-.03-.21-.09-1.03-1.03-1.36-2.4-1-2.99.15-.26.43-.36.72-.28.16.05.25.21.2.37-.05.16-.21.25-.37.2-.02,0-.03,0-.03,0,0,0-.05.08-.06.24-.03.49.26,1.34.96,2.04.12.12.12.3,0,.42-.06.06-.13.09-.21.09Z"/>
      <path class="cls-8" d="M73.48,26.6c-.06,0-.12-.02-.18-.06-.13-.1-.16-.28-.06-.42.59-.8.75-1.68.65-2.16-.03-.16-.09-.22-.1-.23-.15.07-.34.01-.41-.14-.07-.15-.02-.32.13-.39.28-.13.57-.07.76.16.44.53.32,1.94-.54,3.11-.06.08-.15.12-.24.12Z"/>
    </g>
    <g>
      <path class="cls-1" d="M31.22,254.57c1.89,1.86,5.16,1.89,8.31.55l1.34-14.53-9.37-.87-.28,14.85Z"/>
      <path class="cls-10" d="M31.17,253.47c-.05,0-.1.01-.15.04-.09.05-.16.13-.19.23-.09.33-.16.61-.23.87-.54,2.08-.58,2.15-2.31,3.65-.79.69-1.99,1.73-3.8,3.47-2.71,2.61-3.54,4.35-4.13,6.64-.27,1.06-.24,1.85.08,2.35.24.38.65.61,1.24.73,2.97.56,6.71,1.14,9.24.56,1.21-.28,2.58-.59,7.23-4.6,1.91-1.65,1.9-1.82,1.81-6.23-.03-1.48-.08-3.5-.06-6.19,0-.15-.08-.24-.13-.28-.09-.07-.2-.1-.31-.07-3.31.77-6.81-.54-8.16-1.13-.05-.02-.09-.03-.14-.03Z"/>
      <path class="cls-6" d="M28.5,272.21c-.31,0-.63-.01-.96-.04h-.17c-2.65-.21-5.59-.5-6.98-1.51-.34-.25-.42-.73-.17-1.07.25-.34.72-.42,1.07-.17,1.15.83,4.56,1.09,6.19,1.21h.17c1.95.16,3.71-.19,4.96-.98,1.58-.99,2.42-1.75,3.69-2.88.48-.43,1-.9,1.64-1.45.32-.28.8-.24,1.08.08.28.32.24.8-.08,1.08-.63.54-1.15,1.01-1.62,1.43-1.28,1.15-2.2,1.97-3.9,3.04-1.31.82-3.03,1.26-4.93,1.26Z"/>
    </g>
    <g>
      <path class="cls-1" d="M87.52,254.31c-2.05,1.69-5.3,1.43-8.33-.18l-.06-14.59,9.41-.04-1.03,14.82Z"/>
      <path class="cls-10" d="M79.18,253.63c-.07,0-.14.02-.2.06-.05.04-.14.12-.15.26-.22,2.68-.44,4.7-.6,6.16-.49,4.38-.51,4.55,1.25,6.36,4.29,4.41,5.62,4.84,6.8,5.23,2.47.8,6.25.56,9.26.26.6-.06,1.03-.26,1.3-.61.36-.47.46-1.26.29-2.34-.38-2.34-1.05-4.14-3.52-6.98-1.65-1.9-2.75-3.04-3.48-3.79-1.59-1.64-1.62-1.72-1.98-3.84-.04-.26-.09-.55-.15-.88-.02-.1-.08-.19-.17-.25s-.19-.06-.29-.03c-1.4.48-5,1.47-8.23.41-.04-.01-.08-.02-.12-.02Z"/>
      <path class="cls-6" d="M90.98,272.18c-.4,0-.79,0-1.18,0h-.17c-2.28-.03-4.32-.65-5.76-1.74-1.59-1.21-2.44-2.12-3.61-3.37-.43-.46-.91-.97-1.49-1.57-.29-.3-.29-.79.01-1.08.3-.29.79-.29,1.08.01.59.61,1.07,1.12,1.51,1.59,1.16,1.24,1.93,2.07,3.42,3.2,1.18.89,2.9,1.4,4.85,1.43h.17c1.64.02,5.06.07,6.28-.66.36-.22.83-.1,1.05.26.22.36.1.83-.26,1.05-1.25.75-3.59.88-5.9.88Z"/>
    </g>
    <path class="cls-3" d="M41.37,51.78c-.18,0-.37.03-.56.09-3.46,1.15-9.42,5.19-11.66,11.59-1.63,4.65-2.2,8.42-3.25,15.25-1.47,9.6-3.69,24.1-10.69,54.04-.09.39.04.8.34,1.05,2.81,2.37,6.06,3.13,9.67,2.27.36-.09.66-.36.77-.72,20.72-67.3,20.49-68.87,19.98-72.31-.05-.33-.1-.67-.14-1.09-.44-4.81-1.84-8.77-3.49-9.85-.32-.21-.64-.31-.97-.31Z"/>
    <path class="cls-7" d="M82.73,99.8c1.59,9.62,12.02,21.4,14,74.68.78,20.79.5,41.86,5.63,62.02,1.1,4.32,5.49,10.2,2.21,14.46-4.31,3.25-10.12-.75-12.79-2.82-9.35-7.25-22.7-8.92-33.55-4.21-10.85,4.71-10.61,6.44-22.6,2.81-10.89-3.29-22.75.55-33.97,2.37-.96.16-1.8-.67-1.65-1.63,1.43-8.89,8.78-15.91,13.25-23.93,5.51-9.87,7.15-12.43,28.62-126.5,1.02-5.43.19-9.75-.27-15.57,24.31,9.44,32.77,1.35,42.77,2.82-1.06,5.99-2.73,8.99-1.65,15.51Z"/>
    <g>
      <path class="cls-9" d="M87.12,78.09c19.35,11.73,28.58,17.77,33.34,13.28,3.01-2.84,11.38-31.89,13.26-38.88.12-.45,0-.94-.34-1.27-1.74-1.74-3.89-3.01-7-3.25-.52-.04-1.01.23-1.26.68-3.42,6.28-7.17,13.13-10.6,19.43-.26.48-.86.65-1.34.38-12.77-7.21-21.3-13.27-27.64-16.37-12.93-6.34-27.19,8.59,1.57,26.01Z"/>
      <path class="cls-3" d="M116.53,93.14c-5.2,0-13.33-4.94-26.41-12.88l-3.16-1.92c-16-9.7-18.74-18.57-15.96-23.64,2.44-4.46,8.89-5.73,14.68-2.89,3.29,1.61,7.09,3.97,11.9,6.96,4.49,2.79,9.59,5.95,15.75,9.43.16.09.35.11.52.06.17-.05.32-.17.41-.32,1.69-3.1,3.46-6.33,5.22-9.57,1.82-3.33,3.64-6.67,5.38-9.86.3-.56.91-.89,1.54-.84,2.84.21,5.12,1.27,7.18,3.33.41.41.57,1,.42,1.56-1.56,5.82-10.17,36.03-13.34,39.02-1.12,1.06-2.48,1.56-4.13,1.56Z"/>
    </g>
    <g>
      <path class="cls-9" d="M55.14,47.15c-3.13.64-7.08,1.92-13.98,4.32-3.57,20.54,3.02,37.14.68,51.79,14.84,5.89,27.51,8.46,41.27,2.71-1.84-11.09,9.15-40.27,2.67-53.95-4.67-2-9.02-4.18-14.98-5.41-4.88,8.09-8.61,6.7-15.66.54Z"/>
      <path class="cls-7" d="M67.11,109.24c-8.24,0-17.74-2.32-26.74-5.89l.42-.7.11-.78c1.05-6.57.83-12.57.01-20.06-.99-9.07-2.11-19.35-.14-30.67l.03-.17.17-.06c6.61-2.31,10.81-3.68,14.02-4.33l.14-.03.11.1c3.85,3.36,6.75,5.36,9.34,4.95,1.96-.31,3.82-2.03,5.87-5.42l.11-.18.21.04c5.04,1.05,8.99,2.78,12.82,4.47.74.32,1.47.65,2.22.97l.1.04.05.1c3.96,8.36,1.49,22.29-.68,34.58-1.38,7.77.11,14.01-.42,18.58l.17,1.01h0c-5.47,2.29-12.63,3.45-17.9,3.45Z"/>
    </g>
    <path class="cls-4" d="M58.9,58.93c-.14,0-.28-.06-.37-.17-2.44-2.86-5.79-6.78-7.22-10.45-.06-.15.02-.33.17-.39.15-.06.33.02.39.17,1.38,3.52,4.61,7.34,7.02,10.16.92-1.87,2.23-3.41,3.91-4.59.27-.19.63-.17.89.04,1.43,1.18,2.47,2.65,3.08,4.36,3.18-3.22,6.27-6.72,7.48-10.5.05-.16.22-.24.38-.19.16.05.24.22.19.38-1.26,3.95-4.46,7.55-7.74,10.85-.12.12-.29.17-.46.13-.17-.04-.3-.16-.36-.33-.57-1.67-1.56-3.1-2.95-4.25-.05-.04-.11-.04-.16,0-1.64,1.15-2.91,2.66-3.78,4.49-.07.15-.22.26-.39.28-.02,0-.04,0-.06,0Z"/>
    <path class="cls-5" d="M52.25,9.09c6.43-4.58,21.01.09,19.24,3.37-.82,1.52-27.13,2.25-19.24-3.37Z"/>
    <path class="cls-7" d="M37.43,59.88c17.99,10.6,32-.4,37.99-1.17,4.25-.55,15.97-1.93,14.3-4.41-4.77-7.08-11.82-7.37-12.28-9.13-.16-.61-.5-1.16-1.08-1.41-4.92-2.17-4.76-3.77-4.29-7.03.2-1.37.61-2.71,1.21-3.96,6.53-13.55,2.31-21.21.62-25.02-1.98-4.44-3.5-6.96-9.28-7.6-21.47-2.38-25.48,24.31-14.66,35.39,1.22,1.25,1.88,2.98,1.6,4.71-.49,3.07-2.81,3.56-3.83,4.17-3.35,2.03.72,3.71-1.63,4.48-3.36,1.11-9.07,3.44-11.78,6.07-2.1,2.04-.62,2.71,3.1,4.9ZM54.69,10.26c9.84-6.37,20.11,1.72,17.15,19.25-.51,3.04-1.76,6.18-6.37,9.74-.62.48-1.34.81-2.1.97-12.42,2.56-19.8-22.75-8.67-29.96Z"/>
  </g>
  <path class="cls-1" d="M24.9,136.4c-3.47-.19-6.77-1.06-9.96-2.41-2.88,6.16-5.4,12.47-6.95,19.1-.62,2.65.93,3.91,3.5,2.91,3.01-1.16,5.64-2.99,7.77-5.43.98-1.12,1.6-1.31,2.32.19.28.58.83,1.06,1.33,1.49,1.59,1.34,2.98.93,3.66-1.02.37-1.06.38-2.15.32-3.24-.23-3.94-1.21-7.76-2-11.61Z"/>
  <path class="cls-1" d="M125.16,49.83c3.47-.02,6.82.65,10.08,1.81,2.51-6.32,4.65-12.77,5.8-19.48.46-2.68-1.16-3.84-3.67-2.7-2.93,1.34-5.45,3.32-7.43,5.88-.91,1.18-1.52,1.4-2.33-.05-.31-.56-.89-1.01-1.42-1.41-1.67-1.24-3.03-.75-3.59,1.23-.3,1.08-.25,2.17-.13,3.25.46,3.92,1.67,7.68,2.68,11.47Z"/>
</svg>