<?xml version="1.0" encoding="UTF-8"?>
<svg id="Capa_1" data-name="Capa 1" xmlns="http://www.w3.org/2000/svg" viewBox="0 0 84.41 264.94">
  <defs>
    <style>
      .cls-1 {
        fill: #e3dccf;
      }

      .cls-2 {
        fill: #e6eff0;
      }

      .cls-3 {
        fill: #f9cfbf;
      }

      .cls-4 {
        fill: #e6eff1;
      }

      .cls-5 {
        fill: #c4bba2;
      }

      .cls-6 {
        fill: #e84e24;
      }
    </style>
  </defs>
  <path class="cls-1" d="M21.45,128.14c-.03-.16-.05-.34-.06-.51-.35-3.09-.53-6.22-.58-9.34-.06-2.52-.05-5.04,0-7.57.07-3.11.4-6.2.5-9.3.1-3.13-.29-6.09-.69-9.17-.19-1.42-.54-2.88-1.41-3.99-1.47-1.85-3.97-2.15-6.15-1.79-.22.05-.44.1-.64.14-5.88,1.53-4.9,8.34-4.08,12.89,1.29,7.2,3.05,14.31,5.36,21.25.76,2.34,1.61,4.66,2.5,6.94.13.32.32.55.56.72,1.14.77,3.36-.02,4.69-.26Z"/>
  <g>
    <path class="cls-5" d="M29.35,259.11c0,.08,0,.15.05.22-.33.41-.69.79-1.07,1.15-1.19,1.12-2.81,2.28-4.52,2.27-.72,0-1.4-.23-1.93-.69-.26-.2-.66-.59-.68-.95-.02-.46.36-1.14.51-1.58.53-1.69.97-3.39,1.36-5.11-.41-4.35-.86-8.67-1.41-13.01-2.49-20-8.43-39.7-7.14-60.01.04-.47.08-.95.12-1.42t0-.04c2.96.54,5.87,1.36,8.71,2.41,4.08,1.49,7.99,3.42,11.83,5.45,0,.04.93.34.92.37-.3.94-.73,2.3-.92,3.32-1.37,7.23-.14,14.45.68,21.65.54,4.91.8,9.83.18,14.75-.62,5.02-2.1,9.93-3.45,14.8-1.47,5.39-2.89,10.83-3.25,16.43Z"/>
    <path class="cls-5" d="M56.17,159.61c-3.92,7.35-8.87,14.08-13.96,20.65-1,1.28-1.95,2.92-3.12,4.06,0,0-.02.02-.04.03-1.59,2.19-3.1,4.34-3.37,5.05,0,.04-.03.09-.03.13l-21.31-5.42s0-.02,0-.04c.14-.34.81-11.14.97-13.83.27-9.96,1.47-19.89,3.58-29.61.75-3.52,1.66-7.09,3.76-10.01,2.43-3.41,6.32-5.63,10.41-6.58,10.58-2.48,26.13,2.13,28.25,14.31,1.19,6.86-1.7,14.8-5.14,21.26Z"/>
    <g>
      <path class="cls-6" d="M27.49,264.22c-1.17.35-2.39.58-3.6.66-1.65.1-4.07.26-5.35-1.01-.58-.59-.62-1.43-.3-2.15.18-.42.44-.78.74-1.12.26-.33.54-.61.79-.92,0,0,0-.02.03-.05.19-.21.39-.41.56-.63.22-.26.44-.5.67-.76.25-.29.52-.58.76-.87.03-.03.01-.07.04-.11.12-.24.47-.38.71-.22.35.24.72.49,1.11.7.61.37,1.25.69,1.92.9,1.13.4,2.34.55,3.46.17.22-.07.42-.01.55.21.07.11.1.25.13.39,0,.06.01.12.02.17.09.95-.02,1.87.11,2.81.19,1.33-1.25,1.49-2.34,1.82Z"/>
      <g>
        <path class="cls-6" d="M22.99,254.5l6.4.44.3,4.47s-5.83,2.17-8.53-.51l1.83-4.41Z"/>
        <path class="cls-6" d="M24.6,256.58c-.14.24-.3.45-.48.66-.15.18-.3.36-.48.51-.31.32-.67.6-1.06.83-.48.32-.97.58-1.49.78-.35.12-.69.2-1.02.27l-.31.05s0-.02.03-.05c.04-.11.15-.37.29-.7.08-.21.21-.47.32-.75.22-.52.48-1.15.76-1.78.78-1.81,1.58-3.7,1.59-3.74.14-.31,1.47-.04,1.66.07,1.47.79.85,2.71.19,3.85Z"/>
        <path class="cls-2" d="M22.39,262.05c-.42.29-1.01.14-1.29-.26-.04-.07-.09-.11-.14-.16-.01-.04-.03-.06-.06-.09-.03-.04-.04-.07-.06-.07-.14-.14-.29-.27-.44-.37h-.02s-.03-.03-.07-.05c-.08-.06-.19-.11-.27-.15-.12-.06-.24-.11-.37-.15-.23-.08-.47-.13-.71-.14.26-.33.54-.61.79-.92,0,0,0-.02.03-.05.04-.11.15-.37.29-.7.09.02.18.06.27.07.21.08.4.18.61.27.05.03.08.05.13.08.62.33,1.14.82,1.56,1.4.29.42.14,1.01-.26,1.29Z"/>
        <path class="cls-2" d="M25.34,259.27c-.33.41-.95.38-1.32.07-.07-.05-.13-.1-.21-.16,0,0-.17-.11-.2-.14-.15-.09-.32-.18-.5-.25-.09-.04-.16-.07-.23-.1-.04,0-.17-.07-.21-.08-.04,0-.05-.01-.09-.04-.15-.03-.29-.08-.41-.12-.38-.1-.76-.17-1.15-.21-.2-.04-.4-.06-.61-.07.22-.52.48-1.15.76-1.78,1.02.13,2.03.37,2.96.85.4.19.78.44,1.14.72.21.18.31.44.3.69,0,.23-.07.44-.22.62Z"/>
      </g>
    </g>
  </g>
  <g>
    <path class="cls-5" d="M76.68,255.53c.02.07.05.15.1.2-.21.48-.46.94-.74,1.39-.87,1.39-2.13,2.92-3.78,3.36-.7.19-1.41.14-2.04-.18-.31-.13-.79-.4-.9-.75-.14-.44.06-1.2.09-1.66.08-1.77.07-3.52,0-5.29-1.51-4.1-3.06-8.16-4.7-12.21-7.55-18.69-18.35-36.2-22.32-56.16-.08-.46-.17-.94-.25-1.4t0-.04c3-.24,6.02-.2,9.04.09,4.33.39,8.6,1.25,12.84,2.22,0,.04-.01.09-.01.13-.05.99-.09,1.96,0,3,.54,7.34,4.54,14.44,7.18,21.19,1.79,4.6,3.3,9.3,3.97,14.21.69,5.01.52,10.14.47,15.19-.04,5.59-.01,11.21,1.08,16.71Z"/>
    <path class="cls-3" d="M69.88,173.75s-1.67,2.93-3.21,5.84l-.03.04c-1.27,2.39-2.47,4.73-2.63,5.47l-21.87-2.31c.09-.36-.75-11.15-.96-13.83-.02-.37-.04-.59-.04-.59l28.74,5.4Z"/>
    <path class="cls-5" d="M80.16,152.74c-2.86,7.83-6.83,15.18-10.96,22.39-.81,1.41-1.52,3.16-2.53,4.45l-.03.04c-1.27,2.39-2.47,4.73-2.63,5.47,0,.04-.01.09-.01.13l-21.86-2.41s0-.02,0-.04c.09-.36-.75-11.15-.96-13.83-1.12-9.9-1.31-19.9-.57-29.82.25-3.59.66-7.25,2.33-10.44,1.94-3.71,5.48-6.46,9.39-7.96,10.14-3.93,14.79-7.51,18.59,4.25,2.13,6.63,11.75,20.89,9.24,27.76Z"/>
    <g>
      <path class="cls-6" d="M76.53,261.03c-1.04.64-2.16,1.17-3.31,1.56-1.57.52-3.87,1.29-5.43.4-.71-.42-.97-1.23-.85-2,.07-.45.23-.87.43-1.27.16-.38.37-.73.53-1.09,0,0,0-.02.02-.06.13-.25.27-.5.38-.75.15-.31.3-.6.45-.9.17-.35.35-.69.51-1.04.02-.04,0-.07.01-.11.06-.26.36-.49.63-.39.4.14.82.29,1.25.39.68.2,1.38.35,2.09.38,1.2.1,2.4-.07,3.38-.73.2-.12.4-.12.58.06.1.09.16.21.23.34.02.05.04.11.07.16.33.89.46,1.82.83,2.69.52,1.23-.83,1.76-1.79,2.36Z"/>
      <g>
        <path class="cls-6" d="M69.68,252.79l6.3-1.22,1.44,4.25s-5.07,3.6-8.37,1.7l.64-4.73Z"/>
        <path class="cls-6" d="M71.77,254.39c-.08.27-.17.51-.29.76-.1.21-.2.42-.34.62-.22.39-.49.76-.81,1.07-.38.43-.79.81-1.24,1.14-.3.2-.61.37-.92.52l-.29.13s0-.02.02-.06c.01-.11.05-.39.1-.75.02-.22.08-.51.12-.81.08-.56.17-1.24.28-1.92.29-1.95.58-3.98.58-4.02.05-.34,1.41-.42,1.62-.36,1.62.39,1.52,2.4,1.17,3.67Z"/>
        <path class="cls-2" d="M71.05,260.24c-.33.39-.94.39-1.32.08-.06-.05-.12-.09-.17-.12-.02-.04-.04-.05-.08-.07-.04-.03-.06-.05-.08-.05-.17-.1-.35-.18-.52-.25h-.02s-.04-.02-.08-.03c-.09-.03-.21-.06-.3-.07-.13-.03-.26-.04-.39-.05-.24-.02-.48,0-.72.04.16-.38.37-.73.53-1.09,0,0,0-.02.02-.06.01-.11.05-.39.1-.75.09,0,.19,0,.28,0,.22.02.43.07.66.11.06.02.09.03.15.05.68.16,1.32.5,1.86.95.39.33.39.94.08,1.32Z"/>
        <path class="cls-2" d="M73.19,256.8c-.21.48-.82.61-1.26.41-.08-.03-.15-.07-.25-.1,0,0-.19-.06-.23-.08-.17-.05-.36-.09-.55-.12-.09-.01-.17-.03-.24-.04-.04,0-.19-.03-.23-.02-.04,0-.06,0-.09-.01-.15,0-.3,0-.43-.01-.39,0-.78.03-1.17.09-.2.01-.41.04-.61.09.08-.56.17-1.24.28-1.92,1.02-.14,2.06-.16,3.08.06.43.09.87.23,1.29.41.25.12.41.35.46.59.05.22.05.44-.05.65Z"/>
      </g>
    </g>
  </g>
  <path class="cls-4" d="M69.98,9.61c.43-1.3.43-2.7-.13-4.03-.99-2.37-3.45-3-6.2-3.02-.31,0-.62,0-.92.01-.5-.93-1.29-1.72-2.33-2.16-1.58-.66-3.55-.53-4.98.39-.22.14-.43.3-.62.48-1.01-.28-2.11-.26-3.1.15-1.26.52-2.12,1.5-2.5,2.64-.93-.48-1.96-.79-3.08-.84-1.58-.07-3.14.45-4.39,1.33-.48-.06-.95-.13-1.43-.16-3.6-.21-7.38.47-10.11,2.76-1.58,1.3-2.64,3.03-3.72,4.68-.1.16-.19.3-.3.46-.87,1.4-1.71,2.84-2.22,4.39-1.04,3.15-.44,7.11,2.82,8.86-1.19,1.92-1.06,4.45.45,6.21,1.6,1.87,4.47,2.47,6.85,1.67.49.06.98.04,1.47-.06.41-.08.82-.21,1.23-.39,1.15-.46,2.23-1.23,3.16-1.93.32-.24.64-.47.97-.7,1.08-.7,2.24-1.24,3.65-1.19.43.01.86.06,1.29.12-.5,2.6-.37,5.54,1.89,7.42.96.79,2.21,1.34,3.52,1.35.56,0,1.11-.1,1.63-.29.57-.21,1.63-1.03,2.17-.53.39.37.43,1.06.82,1.47.41.43,1.02.62,1.63.56,1.54-.15,3.23-1.22,4.37-2.12,1.75-1.39,3.77-1.87,3.64-3.95,3.4,1.74,7.28-.45,9.7-3.43,2.58-3.18,1.52-7.89-1.69-10.29,2.71-1.25,4.07-4.71,2.41-7.26-1.26-1.94-3.62-2.74-5.94-2.6Z"/>
  <path class="cls-6" d="M13.31,147.22c.03.25.07.49.13.73,1.16,4.73,5.64,6.43,8.3,7.83,3.74,1.96,7.59,3.32,11.47,4.3,8.47,2.12,17.08,1.93,25.56,3.23,7.66,1.17,16.56.49,23.84-3.66,3.5-1.99.95-14.59.27-18.14-2.16-11.38-4.65-22.84-8.22-33.33-2.84-8.36-3.9-25.73-9.05-30.61-9.15-8.68-23.32,3.97-33.68,8-6.89,2.68-9.6,9.78-11.94,19.72-1.67,7.1-3.1,14.35-4.28,21.7-.92,5.73-3.07,14.31-2.4,20.23Z"/>
  <path class="cls-1" d="M28.08,76.92c-2.03,4.06-3.93,8.08-5.64,12.3-1.94,4.78-6.12,11.72-11.95,7.33-1.46-1.1-2.06-3.04-2.16-4.79-.14-2.42.46-4.82.87-7.19.54-3.17,1.31-6.28,2.03-9.41.54-2.34,1.13-4.68,1.79-6.99,1.31-4.61,2.9-9.12,5.13-13.35,1.38-2.6,2.92-5.14,4.77-7.44.86-1.07,1.78-2.09,2.79-3.01.62-.57,1.47-.95,2.17-1.42.64-.43,1.36-1.24,2.15-.82.53.28.78.9.89,1.46.23,1.27,1.43,2.1,2,3.19.02.04.05.1.06.14,3.28,8.24,1.17,16.74-2.29,24.53-.82,1.85-1.71,3.67-2.61,5.48Z"/>
  <path class="cls-6" d="M65.59,52.96c-.82-12.1-18.84-13.12-27.61-12.18-5.01.54-10.22,1.12-14.39,4.17-4.15,3.03-7.59,7.18-9.49,11.97-2.39,6.03-1.83,11.96,2.09,17.16,1.53,2.03,3.29,3.89,4.76,5.97,1.51,2.14,2.22,4.57,3.02,7.03l1.91,6.48c.02.1.02.22.02.32.02.26,0,.59.06.89,0,.06.02.14.04.2.02.24.14.49.37.63.14.1.26.14.43.14.18,0,.37-.06.57-.16.37-.2.73-.49,1.06-.61,1.14-.41,2.42-.06,3.62.2,7.62,1.67,14.95-.45,21.99-3.31,1.38-.55,8.25,0,7.6-2.5-.06-.22-.12-.47-.16-.73-.04-.2-.08-.41-.12-.61-.53-2.72-.89-6.62-.93-9.08v-.67c.08-3.03.45-6.03,1.14-8.96.61-2.64,1.67-5.22,2.58-7.8.1-.35.22-.69.33-1.04.06-.2.14-.41.18-.63.69-2.21,1.12-4.49.96-6.89Z"/>
  <path class="cls-1" d="M32.99,43.29c-1.3-3.12.44-4.97.67-7.54,0,0,11.1.08,11.1.08.44,2.28,3.64,6.56,1.98,8.2-.35.34-.84.51-1.32.65-2.57.74-11.08,1.85-12.43-1.39Z"/>
  <path class="cls-1" d="M26.09,27.27c.35,1.51.93,3.07,1.78,4.5,1.84,3.98,5.59,7.15,10.57,7.1,3.06-.02,6.07-1.21,8.28-3.14l.64-.59c2.42-2.47,3.62-5.49,4.07-8.76.43-3.07.21-6.48-1.04-9.35-1.23-2.85-4.02-4.9-7.06-5.96-1.86-.64-3.73-.79-5.57-.54-.56-.02-1.12.07-1.68.3-3.97,1.04-7.43,3.86-9.13,7.45-.21.42-.37.87-.53,1.31l-.03.05c-.85,2.47-.91,5.12-.32,7.65Z"/>
  <path class="cls-1" d="M22.06,129.41c1.97-.82,1.93-3.48,2.72-5.12.5-1.04,1-2.21,1.97-2.8,0-.03,0-.05.01-.08.04-.35.05-.74.04-1.1h-.01c-.02-.54-.08-1.05-.23-1.56-.29-1.04-.85-1.98-1.51-2.86-.06.02-.12.06-.17.08-.09.04-.17.08-.26.12-2.14.99-4.16,1.97-5.32,2.91-.37.28-.71.57-1.03.89-.71.67-1.03,1.79-.33,2.61.26.32.65.56,1.08.68-.26.52-.49,1.08-.63,1.7-.5,2.07.89,5.67,3.66,4.53Z"/>
  <path class="cls-1" d="M60.15,99.42c-2.8,2.34-6.59,3.62-9.63,1.84-3.79-2.23-3.99-7.54-3.72-11.93.77-12.63-.02-26.26,5.53-38.2,5.28-11.34,19.18-2.61,20.2,7.18.59,5.65-1.29,11.21-2.6,16.73-1.87,7.84-2.85,16.35-7.97,22.57-.53.65-1.14,1.26-1.81,1.81Z"/>
  <path class="cls-1" d="M24.76,122.34c.27.08,1.03-.33,2.01-.92.13-.1.28-.19.44-.28,1.46-.9,3.17-2.06,4.24-2.61l1.51-.78c10.44-5.31,21.26-10.55,27.95-19.03,1.66-2.07-.92-3.72-1.63-5.26-1.12-2.43-4.83-1.96-8.22-.94-3.34.99-6.51,3.03-9.12,5.3-4.45,3.86-8.88,9.23-12.96,13.78-.6.68-1.19,1.33-1.79,1.96-.63.68-1.52,1.53-2.3,2.41-.08.08-.14.15-.21.22-.89,1.04-1.62,2.12-1.55,3.06.08,1.01.62,2.76,1.63,3.08Z"/>
  <path class="cls-6" d="M26.44,19.57c2.24-2.13,5.3-3.19,8.44-3.51,3.44-.37,6.92-.07,9.83,1.81,5.91,3.86,6.34,11.43,2.37,16.65-.19.25-.21.47-.19.69-.08.17-.13.35-.16.52l.64-.59c2.42-2.47,3.62-5.49,4.07-8.76.43-3.07.21-6.48-1.04-9.35-1.23-2.85-4.02-4.9-7.06-5.96-1.86-.64-3.73-.79-5.57-.54-.56-.02-1.12.07-1.68.3-3.97,1.04-7.43,3.86-9.13,7.45-.21.42-.37.87-.53,1.31Z"/>
  <path class="cls-1" d="M48.81,22.11c.91-1.23,2.55-1.66,3.65-.95,1.1.7,1.25,2.27.34,3.51-.91,1.23-2.55,1.66-3.65.95-1.1-.7-1.25-2.27-.34-3.51Z"/>
</svg>