<?xml version="1.0" encoding="UTF-8"?>
<svg id="Capa_1" data-name="Capa 1" xmlns="http://www.w3.org/2000/svg" viewBox="0 0 107.58 273.17">
  <defs>
    <style>
      .cls-1 {
        fill: #99896e;
      }

      .cls-2 {
        fill: #e6eff1;
      }

      .cls-3 {
        fill: #c4bba2;
      }

      .cls-4 {
        fill: #adcdd1;
        fill-rule: evenodd;
      }

      .cls-5 {
        fill: #8bbcc1;
      }
    </style>
  </defs>
  <path class="cls-4" d="M41.18,152.06l9.78,39.93,10.29,71.16h18.22c-.33-8.27-.08-46.4-.41-54.72-.69-17.61,2.99-26.65,1.31-44.69-.55-5.94,1.89-22.56,1.97-22.34l-41.16,10.65Z"/>
  <path class="cls-4" d="M17.52,146.35c-1.08,18.89-2.77,42.9-2.54,54.54l1.23,60.95h16.89l5.02-52.47s1.98-14.35,6.62-25.54c3.35-8.08,7.46-10.41,6.86-19.79-.63-9.72.18-17.26-1.15-20.61-1.33-3.36-7.97-2.01-7.97-2.01l-24.97,4.94Z"/>
  <path class="cls-3" d="M60.58,47.38s-1.85,17.64-9.48,18.05c-7.63.41-11.29-18.35-11.29-18.35,0,0,2.38-.45,2.83-1.61.67-1.74,1.5-4.43,1.39-6.97-.18-4.23,11.74-4.11,11.64-.67-.06,2.05.8,5.04,1.51,7.12.48,1.41,3.4,2.43,3.4,2.43Z"/>
  <path class="cls-3" d="M61.01,16.83c-.45-7.82-1.96-11.84-11.44-11.84-11.03,0-11.77,10-11.78,11.84-.04,7.53-2.41,22.07,6.54,26.41,1.27.62,3.64.79,5.08.8,1.44-.01,4.34-.09,6.65-1.48,8.22-4.96,5.4-18.2,4.96-25.72Z"/>
  <path class="cls-2" d="M64.72,12.64c-.03-5.3-2.89-12.64-14.58-12.64-14.64,0-15.93,9.59-15.9,13.53.03,4.46,1.82,10.87,1.82,10.87,0,0,.02,2.71,2.2,1.06.86-.64.86-4.96.86-4.96v-7.5s2.48-6.32,10.9-5.93c8.4.38,10.44,5.04,10.44,5.04l-.02,6.35s.49,3.91.52,5.61c.05,2.73,2.11-1.31,2.11-1.31,0,0,1.69-4.81,1.66-10.11Z"/>
  <path class="cls-3" d="M61.05,25.79c-1.49.34.82,2.97,1.94,2.68.8-.2,1.69-1.74,1.73-3.86.04-2.33-1.01-3.25-1.82-3.05-1.4.36-.83,3.98-1.85,4.23Z"/>
  <path class="cls-3" d="M38.64,25.79c1.49.34-.82,2.97-1.94,2.68-.8-.2-1.69-1.74-1.73-3.86-.04-2.33,1.01-3.25,1.82-3.05,1.4.36.83,3.98,1.85,4.23Z"/>
  <path class="cls-3" d="M10.11,73.38c-6.08,15.43-8.38,21.33-7.94,32.74.23,5.79,1.26,11.7,7.23,9.99,5.75-1.64,11.66-11.6,12.63-16.84,2.79-15.19,2.95-25.72,4.59-36.08.84-5.3-12.76.68-16.51,10.19Z"/>
  <path class="cls-3" d="M88.7,67.47c5.8,13.84,18.94,37.67,18.51,47.9-.2,4.93-4.79,4.92-11.66,2.87-4.34-1.3-14.8-15.24-15.79-20.3-2.66-13.62-7.16-23.27-8.73-32.56-.8-4.75,1.71-9.12,5.64-8.72,4.26.44,8.45,2.28,12.02,10.81Z"/>
  <path class="cls-5" d="M101.06,93.14c-1.72-4.74-9.25-26.35-12.44-31.62-5.44-9-14.39-11.02-14.39-11.02,0,0-7.6,5.11-5.83,10.35,2.09,6.2,8.69,29.19,12.77,39.48,8.22,0,13.93-1.32,19.89-7.19Z"/>
  <path class="cls-5" d="M84.83,144.02c1.42,9.97-71.01,10.1-71.09-.63-.12-15.51,3.13-30.06,3.13-30.06,0,0-.85-60.01,8.16-62.83,3.81-1.19,12.25-3.31,14.79-3.43.8-.04,11.29,15.2,11.29,15.2l9.48-14.9s9.39,1.63,13.64,3.12c6.67,2.34,7.27,59.28,7.27,59.28,0,0,1.11,18.63,3.33,34.24Z"/>
  <path class="cls-5" d="M0,94.95c1.72-4.74,8.89-29.2,12.07-34.46,5.44-9,12.96-9.98,12.96-9.98,0,0,6.41,5.11,4.64,10.35-2.09,6.2-8.69,29.19-12.77,39.48-5.65-.47-13.97-2.81-16.9-5.38Z"/>
  <path class="cls-1" d="M20.13,255.39s-11.88,9.44-12.89,10.05c-1.01.62-4.06,3.42-1.49,4.54,2.57,1.13,9.34,2.66,12.3,1.31,2.95-1.35,13.94-7.62,14.97-8.93,1.03-1.31-1.85-6.48-1.85-6.48,0,0-3.41,1.3-4.19,1.03-.79-.27-.57-1.42-2.88-1.52-2.31-.1-3.97,0-3.97,0Z"/>
  <path class="cls-1" d="M74.82,256.73s11.88,9.44,12.89,10.05c1.01.62,4.06,3.42,1.49,4.54-2.57,1.13-9.34,2.66-12.3,1.31-2.95-1.35-13.94-7.62-14.97-8.93-1.03-1.31,1.85-6.48,1.85-6.48,0,0,3.41,1.3,4.19,1.03.79-.27.57-1.42,2.88-1.52,2.31-.1,3.97,0,3.97,0Z"/>
  <path class="cls-2" d="M37.91,24.07c-1.2,7.28-.13,15.99,6.42,19.17,1.27.62,3.64.79,5.08.8,1.44-.01,4.34-.09,6.65-1.48,5.95-3.59,6.11-11.53,5.58-18.49h-.68s-.18,6.05-.39,8.18c-.3,3-2.09,4.32-2.09,4.32,0,0-.65-6.74-8.83-6.55-7.28.17-8.22,5.39-8.22,5.39,0,0-1.29-.43-1.97-3.38-.68-2.96-.63-7.96-.63-7.96h-.93Z"/>
  <path class="cls-3" d="M54.79,35.58c0,2.13-2.3,3.85-5.14,3.85s-5.14-1.72-5.14-3.85,2.3-3.85,5.14-3.85,5.14,1.72,5.14,3.85Z"/>
  <path class="cls-3" d="M79.49,146.89h0c-.14.55-.28,1.12-.58,1.57-.32.48-.8.81-1.28,1.14-2.41,1.66-4.82,3.32-7.23,4.98-1.1.76-2.3,2-1.54,3.39.35.65,1.07,1.11,1.36,1.79.26.59.12,1.2-.01,1.75-.42,1.7-.84,3.4-1.26,5.1-.1.41-.2.84-.07,1.28.28.98,1.45,1.5,2.43,1.78,2.23.64,4.49,1.01,6.71,1.11,1.96.08,4.05-.12,5.23-1.45.63-.72.93-1.68,1.22-2.63,1.06-3.46,2.12-6.92,3.18-10.38.43-1.41.86-2.83,1.38-4.2.56-1.5,1.22-2.95,1.88-4.39,4.37-9.48,18.99-24.53,16.36-33.75-.17-.59-5.69,2.04-6.16,1.65-1.54-1.27-3.27-2.37-5.07-3.14-2.48-1.06-3.83-6.57-5.44-4.78-2.03,2.25-1.22,8.42-2.08,11.35-1.12,3.83-4.51,10.71-5.57,14.58-1.2,4.4-2.35,8.82-3.46,13.26Z"/>
  <path class="cls-3" d="M16.63,105.95c1.5,4.33,1.56,33.89.75,40.25-.67,5.24,2.63,12.82,1.43,18.94-.54,2.77-7.61,4.06-7.73,3.78-3.88-9.13-7.1-19.28-8.56-27.07-2.32-12.42-4.6-28.05,1.57-39.72.15,9.46,1.62,1.22,5.57,1.57.61.06,6.78,1.74,6.96,2.26Z"/>
  <path class="cls-3" d="M11.53,160.93c-1.75,3.67-2.22,7.84-1.4,11.82.42,2.04,1.19,4.16,2.39,5.88,1.12,1.6,3.07,2.82,5.02,1.88,1.02-.49,1.52-1.46,1.49-2.57-.02-.61-.2-1.21-.23-1.82-.02-.36,0-.77.22-1.07.48.16.91.39,1.39.57,1.07.41,1.72-.55,1.93-1.48.1-.45.1-.91.06-1.38.11-1.3-.08-2.6-.48-3.88-.63-2-1.62-4-2.81-5.73-1.1-1.59-2.68-3.36-4.59-3.96-1.34-.42-2.74.43-2.99,1.72Z"/>
</svg>