<?xml version="1.0" encoding="UTF-8"?>
<svg id="Capa_1" data-name="Capa 1" xmlns="http://www.w3.org/2000/svg" viewBox="0 0 89.04 272.85">
  <defs>
    <style>
      .cls-1 {
        fill: #5e9982;
      }

      .cls-2 {
        fill: #ece9e2;
      }

      .cls-3 {
        fill: #adcdd1;
      }

      .cls-4 {
        fill: #6b6664;
      }

      .cls-5 {
        fill: #b7ac8e;
      }

      .cls-6 {
        fill: #8bbcc1;
      }
    </style>
  </defs>
  <path class="cls-3" d="M30.09,131.37c-1,10.18-2.37,20.35-2.56,30.57-.22,11.48-1.79,22.89-1.79,34.36,0,6.68-.25,13.34-.61,19.99-.45,8.22-.34,16.42-.4,24.63-.02,2.31.71,3.26,2.95,3.2.54-.02,1.08.11,1.62.17,3.3.15,6.59.3,9.89.45.93.11,1.39-.23,1.53-1.23,2.07-14.41,4.41-28.79,6.18-43.24,1.15-9.38,1.93-18.81,3.03-28.2.14-1.23.35-2.45.6-4.2.88,5.35.76,10.24,1.05,15.1.76,12.77,1.2,25.56,1.94,38.33.45,7.89,1.24,15.76,1.81,23.65.12,1.64.72,2.3,2.34,1.86,1.38-.37,2.78-.12,4.17-.14,3.34.49,6.68.44,10.03.01,1.55.22,1.79-.74,1.84-1.98.33-8.14.86-16.26.95-24.42.16-13.57.64-27.15.96-40.72.1-4.5-.11-8.99.24-13.49.77-9.83.89-19.69-.04-29.53-1.8.55-3.64.49-5.5.49-1.92,0-3.82-.09-5.75.38-8.52,2.06-16.77.71-24.9-2.14-3.27-1.14-6.03-3.53-9.6-3.92Z"/>
  <path class="cls-6" d="M28.65,129.11c.64-6.55.31-13.16,1.32-19.71.58-3.73,1.67-7.41,1.24-11.29-.16-1.43-.5-1.62-1.84-1.25-2.41.66-4.62,1.81-6.95,2.65-3.9,1.4-9.65-1.7-10.83-5.79.14.05.31.07.43.16,4.6,3.58,7.47,2.64,9.39-2.9,1.35-3.91.39-7.72-.13-11.57-.07-.53-.14-1.06-.2-1.58,2.89-4.51,5.51-9.27,6.73-14.42,2.45-10.3,9.75-14.98,18.96-17.86.32.21.66.39.96.63,4.94,3.89,8.24,3.76,13.05-.53,6.34,2.41,12.08,5.85,17.42,10.02,2.69,2.1,4.01,4.8,4.29,8.14.49,5.9,2.99,11.31,4.35,17.01.53,2.23,1,4.43.64,6.64-.32,2.02.02,3.79.69,5.65.83,2.34,1.38,4.68.17,7.19-2.14,4.47-5.56,6.46-10.46,6.05-.6-.05-1.61-.6-1.74.44-.28,2.13-1.11,4.19-.64,6.42,1.64,7.75,1.1,15.54.34,23.32-1.8.55-3.64.49-5.5.49-1.92,0-3.82-.09-5.75.38-8.52,2.06-16.77.71-24.9-2.14-3.27-1.14-6.03-3.53-9.6-3.92-.58-.69-1.55-1.15-1.44-2.26Z"/>
  <path class="cls-5" d="M11.59,93.73c.14.05.31.07.43.16,4.6,3.58,7.47,2.64,9.39-2.9,1.35-3.91.39-7.72-.13-11.57-.07-.53-.14-1.06-.2-1.58-1.69-8.68-4.1-17.18-6.47-25.68-.72-2.57.1-4.9.52-7.32.34-1.9.74-3.8.98-5.72.1-.8.07-1.82-.93-2.18-.86-.31-1.44.34-1.99.89-2.22,2.22-2.17,2.2-3.84-.59-.87-1.46-1.86-2.87-2.96-4.17-1.64-1.94-3.4-1.75-4.65.44-2.03,3.55-2.64,7,.27,10.52,1.47,1.78,2.69,3.81,3.77,5.86,1.34,2.54.97,5.46,1.15,8.19.5,7.65.72,15.32.94,22.99.13,4.35.88,8.47,3.41,12.12.13.18.26.36.38.55l-.05-.02Z"/>
  <path class="cls-5" d="M46.76,45.56c.32.21.66.39.96.63,4.94,3.89,8.24,3.76,13.05-.53-.36-2.13-.78-4.25-1.06-6.39-.44-3.34-.27-6.62,1.51-9.63-1.14-.79-.13-1.29.27-1.84,2.4-3.37,1.98-7.37-1.38-9.69-3.02-2.08-6.55-3.04-10.19-3.64-2.4-.4-3.56,1.41-5.23,2.33-1.76,4.69-1.82,9.5-.81,14.33.4,1.91,1.45,3.62,2.97,4.87,1.3,1.07,1.64,2.24,1.35,3.85-.35,1.94.09,4.06-1.42,5.71Z"/>
  <path class="cls-2" d="M44.68,16.79c1.67-.92,2.84-2.73,5.23-2.33,3.65.6,7.17,1.56,10.19,3.64,3.36,2.32,3.78,6.33,1.38,9.69-.39.55-1.41,1.05-.27,1.84,3.79-2.11,5.56-6,8.05-9.24,1.09-1.42.83-3.44.38-5.1-.51-1.89-.33-3.43.59-5.17.88-1.66-.64-2.53-1.89-3.04-2.05-.84-3.84-1.77-4.26-4.22-.2-1.14-1.4-1.1-2.15-1.58-3.32-2.14-8.32-1.56-10.87,1.36-.94,1.08-1.45.77-2.14-.12-1.06-1.35-1.81-1.27-2.74.3-.76,1.29-1.32,2.78-2.7,3.7-.91.61-.68,1.65-.36,2.56.88,2.49,1.47,5.04,1.54,7.7Z"/>
  <path class="cls-4" d="M63.97,260.1c-1.05,3.65-2.08,7.31-3.17,10.95-.39,1.31.16,1.72,1.34,1.72,6.83-.01,13.66-.02,20.5-.04.53,0,1.13.04,1.43-.55.26-.51.01-.95-.39-1.2-4.78-2.95-7.98-7.53-11.84-11.42-2.63.01-5.26.12-7.86.55Z"/>
  <path class="cls-4" d="M29.34,259.07c-2.45.95-3.4,3.33-4.73,5.25-1.37,1.98-2.92,3.81-4.35,5.72-1.24,1.66-.9,2.65,1.17,2.71,5.42.16,10.84.07,16.26.06,1.12,0,1.52-.85,1.44-1.74-.36-3.76-.77-7.51-2.3-11.03-2.49-.33-4.99-.66-7.48-.98Z"/>
  <path class="cls-5" d="M29.34,259.07c2.49.33,4.99.66,7.48.98,1.23-5.03,1.7-10.19,2.36-15.31-3.3-.15-6.59-.3-9.89-.45.09,4.92.31,9.85.05,14.77Z"/>
  <path class="cls-5" d="M63.97,260.1c2.6-.43,5.23-.54,7.86-.55.02-4.29.04-8.58.05-12.87-3.34.43-6.69.47-10.03-.01.71,4.48,1.41,8.96,2.11,13.44Z"/>
  <path class="cls-1" d="M11.64,93.75c-.13-.18-.26-.36-.38-.55-.01.28.05.51.38.55Z"/>
  <path class="cls-5" d="M71.4,104.31c2.51.48,5.04.72,7.6.62,3.49-.14,5.61-1.4,6.39-3.9.87-2.79-.11-5.35-2.86-7.44-3.08-2.35-6.79-3.28-10.35-4.55-1.23-.44-2.46-.87-3.69-1.3-4.99-1.08-9.84-2.64-14.72-4.08-1.05-.31-1.7-.77-2.35-1.61-2.08-2.69-4.27-5.29-6.47-7.88-.49-.57-1.18-1.1-2.04-.62-.74.42-.67,1.21-.56,1.87.2,1.19.53,2.35.87,3.78-2.33-.73-4.56-.94-6.44-2.23-1.99.16-2.19,1.7-2.29,3.16-.29,4.43,2.2,7.32,5.57,9.67,1.54.08,3.08.18,4.62.23,1.88.06,3.69.38,5.25,1.53,2.36,1.76,5.01,3.04,7.53,4.54,4.63,2.76,9.49,5.15,13.95,8.2Z"/>
</svg>