<?xml version="1.0" encoding="utf-8"?>
<!-- Generator: Adobe Illustrator 24.0.1, SVG Export Plug-In . SVG Version: 6.00 Build 0)  -->
<svg version="1.1" id="Capa_1" xmlns="http://www.w3.org/2000/svg" xmlns:xlink="http://www.w3.org/1999/xlink" x="0px" y="0px"
	 viewBox="0 0 1366.8 1010.4" style="enable-background:new 0 0 1366.8 1010.4;" xml:space="preserve">
<style type="text/css">
	.st0{fill:none;}
	.st1{clip-path:url(#SVGID_2_);}
	.st2{fill:#003366;}
	.st3{font-family:'Arial-BoldMT';}
	.st4{font-size:24.5186px;}
	.st5{clip-path:url(#SVGID_4_);}
	.st6{fill:#EEEEEE;}
	.st7{clip-path:url(#SVGID_6_);}
	.st8{font-size:23.8px;}
	.st9{fill:#8D8D8D;}
	.st10{fill:#012E68;}
	.st11{font-family:'OpenSans-Regular';}
	.st12{font-size:22px;}
	.st13{fill:#00CCCC;}
	.st14{fill:#FFFFFF;}
	.st15{font-family:'OpenSans-SemiBold';}
	.st16{font-size:35px;}
	.st17{font-size:26px;}
	.st18{font-size:25px;}
	.st19{font-size:83px;}
	.st20{font-family:'OpenSans-Light';}
	.st21{font-family:'ArialMT';}
	.st22{font-size:24.9483px;}
</style>
<title>LABTurisme-Sintesi-Viatgers-Pernoctacions-desembre-2020</title>
<rect x="37.8" y="401.4" class="st0" width="1220" height="426.6"/>
<image style="overflow:visible;enable-background:new    ;" width="264" height="86" xlink:href="CBC1D0D5.png"  transform="matrix(0.7065 0 0 0.7065 389.4941 358.4111)">
</image>
<image style="overflow:visible;enable-background:new    ;" width="299" height="294" xlink:href="EEF780AD.png"  transform="matrix(1.2834 0 0 1.2834 34.6518 132.5463)">
</image>
<g>
	<g>
		<defs>
			<rect id="SVGID_1_" x="99.3" y="526.3" width="460.6" height="303.9"/>
		</defs>
		<clipPath id="SVGID_2_">
			<use xlink:href="#SVGID_1_"  style="overflow:visible;"/>
		</clipPath>
		<g class="st1">
			<text transform="matrix(1 0 0 1 285.0466 600.1179)" class="st2 st3 st4">V</text>
			<text transform="matrix(1 0 0 1 300.9572 600.1179)" class="st2 st3 st4">iatgers</text>
		</g>
	</g>
</g>
<g>
	<g>
		<defs>
			<rect id="SVGID_3_" x="764.5" y="526.3" width="447.1" height="294.9"/>
		</defs>
		<clipPath id="SVGID_4_">
			<use xlink:href="#SVGID_3_"  style="overflow:visible;"/>
		</clipPath>
		<g class="st5">
			<rect x="907.2" y="571.6" class="st6" width="0" height="35.7"/>
		</g>
	</g>
</g>
<g>
	<g>
		<defs>
			<rect id="SVGID_5_" x="816.2" y="530.8" width="447.1" height="294.9"/>
		</defs>
		<clipPath id="SVGID_6_">
			<use xlink:href="#SVGID_5_"  style="overflow:visible;"/>
		</clipPath>
		<g class="st7">
			<text transform="matrix(1 0 0 1 964.8737 602.4823)" class="st2 st3 st8">Pernoctacions</text>
		</g>
	</g>
</g>
<g>
	<path class="st9" d="M6.8,1000.2H1.7v4.7h5.7v1.4H0v-13.1h7.1v1.4H1.7v4.1h5.1V1000.2z"/>
	<path class="st9" d="M9.5,992.5h1.7v13.8H9.5V992.5z"/>
	<path class="st9" d="M19.3,1006.3l-0.1-1.2h-0.1c-0.7,0.9-1.7,1.4-2.9,1.4c-1.5,0.1-2.8-1-2.9-2.5c0-0.1,0-0.1,0-0.2
		c0-2.3,2-3.5,5.6-3.5v-0.2c0.1-1.1-0.6-2-1.7-2.2c-0.2,0-0.3,0-0.5,0c-0.9,0-1.7,0.2-2.4,0.7l-0.4-1.1c0.9-0.6,2-0.8,3.1-0.8
		c2.9,0,3.6,2,3.6,3.8v3.5c0,0.8,0,1.5,0.2,2.3H19.3z M19,1001.5c-1.9,0-4,0.3-4,2.1c-0.1,0.8,0.6,1.6,1.4,1.6c0.1,0,0.2,0,0.2,0
		c1,0,1.9-0.6,2.3-1.6c0.1-0.2,0.1-0.4,0.1-0.5V1001.5z"/>
	<path class="st9" d="M23.3,1006.3c0-0.6,0.1-1.6,0.1-2.4v-11.4h1.7v5.9l0,0c0.7-1.1,1.9-1.8,3.2-1.7c2.3,0,4,1.9,4,4.8
		c0,3.4-2.1,5-4.2,5c-1.3,0.1-2.5-0.6-3.1-1.8h-0.1l-0.1,1.6L23.3,1006.3z M25.1,1002.5c0,0.2,0,0.4,0.1,0.6c0.3,1.2,1.3,2,2.6,2
		c1.8,0,2.9-1.5,2.9-3.6c0-1.9-1-3.5-2.8-3.5c-1.2,0-2.3,0.9-2.6,2.1c-0.1,0.2-0.1,0.5-0.1,0.7v1.7H25.1z"/>
	<path class="st9" d="M43,1001.5c0.2,2.5-1.7,4.8-4.2,5c-0.2,0-0.3,0-0.5,0c-2.5,0-4.5-1.9-4.5-4.8c0-3.1,2.1-5,4.7-5
		C41.1,996.7,43,998.7,43,1001.5z M35.5,1001.6c0,2.1,1.2,3.6,2.9,3.6c1.6,0,2.9-1.5,2.9-3.6c0-1.6-0.8-3.6-2.8-3.6
		S35.5,999.8,35.5,1001.6L35.5,1001.6z"/>
	<path class="st9" d="M45.1,999.8c0-1.1,0-2.1-0.1-2.9h1.5l0.1,1.8h0.1c0.3-1.2,1.4-2,2.6-2.1c0.2,0,0.3,0,0.5,0.1v1.6
		c-0.2,0-0.4-0.1-0.6-0.1c-1.2,0-2.2,1-2.3,2.2c0,0.3-0.1,0.5-0.1,0.8v5h-1.7V999.8z"/>
	<path class="st9" d="M56.6,1006.3l-0.1-1.2h-0.1c-0.7,0.9-1.7,1.4-2.9,1.4c-1.5,0.1-2.8-1-2.9-2.5c0-0.1,0-0.1,0-0.2
		c0-2.3,2-3.5,5.6-3.5v-0.2c0.1-1.1-0.6-2-1.7-2.2c-0.2,0-0.3,0-0.5,0c-0.9,0-1.7,0.2-2.4,0.7l-0.4-1.1c0.9-0.6,2-0.8,3.1-0.8
		c2.9,0,3.6,2,3.6,3.8v3.5c0,0.8,0,1.5,0.2,2.3H56.6z M56.3,1001.5c-1.9,0-4,0.3-4,2.1c-0.1,0.8,0.6,1.6,1.4,1.6c0.1,0,0.2,0,0.2,0
		c1,0,1.9-0.6,2.3-1.6c0.1-0.2,0.1-0.4,0.1-0.5V1001.5z"/>
	<path class="st9" d="M67.4,1005.9c-0.8,0.4-1.8,0.6-2.7,0.5c-2.5,0.1-4.6-1.8-4.7-4.2c0-0.2,0-0.4,0-0.6c-0.1-2.6,1.9-4.9,4.5-5
		c0.2,0,0.3,0,0.5,0c0.8,0,1.6,0.2,2.4,0.5l-0.4,1.3c-0.6-0.3-1.3-0.5-2-0.4c-2,0.1-3.4,1.8-3.3,3.8c0.1,1.8,1.5,3.2,3.3,3.3
		c0.7,0,1.4-0.2,2.1-0.5L67.4,1005.9z"/>
	<path class="st9" d="M71.3,994.3c0,0.6-0.5,1.1-1.1,1.1s-1.1-0.5-1.1-1.1s0.4-1.1,1-1.1c0,0,0,0,0.1,0
		C70.8,993.2,71.3,993.6,71.3,994.3C71.3,994.2,71.3,994.2,71.3,994.3z M69.4,1006.3v-9.4h1.7v9.4H69.4z"/>
	<path class="st9" d="M82.5,1001.5c0.2,2.5-1.7,4.8-4.2,5c-0.2,0-0.3,0-0.5,0c-2.5,0-4.5-1.9-4.5-4.8c0-3.1,2.1-5,4.7-5
		C80.6,996.7,82.5,998.7,82.5,1001.5z M75,1001.6c0,2.1,1.2,3.6,2.9,3.6c1.6,0,2.9-1.5,2.9-3.6c0-1.6-0.8-3.6-2.8-3.6
		C75.9,998,75,999.8,75,1001.6L75,1001.6z M80.4,992.8l-2.4,2.8h-1.2l1.7-2.8H80.4z"/>
	<path class="st9" d="M94.3,1000c0-1.2,0-2.2-0.1-3.1h1.5l0.1,1.6l0,0c0.7-1.2,2-1.9,3.3-1.8c2.3,0,4,1.9,4,4.8c0,3.4-2.1,5-4.3,5
		c-1.2,0.1-2.3-0.5-2.9-1.5l0,0v5.1h-1.7L94.3,1000z M96,1002.5c0,0.2,0,0.5,0.1,0.7c0.3,1.2,1.3,2,2.6,2c1.8,0,2.9-1.5,2.9-3.6
		c0-1.9-1-3.5-2.8-3.5c-1.2,0-2.3,0.9-2.6,2.1c-0.1,0.2-0.1,0.5-0.1,0.7L96,1002.5z"/>
	<path class="st9" d="M105.4,999.8c0-1.1,0-2.1-0.1-2.9h1.5l0.1,1.8h0.1c0.3-1.2,1.4-2,2.6-2.1c0.2,0,0.3,0,0.5,0.1v1.6
		c-0.2,0-0.4-0.1-0.6-0.1c-1.2,0-2.2,1-2.3,2.2c0,0.3-0.1,0.5-0.1,0.8v5h-1.7V999.8z"/>
	<path class="st9" d="M120,1001.5c0.2,2.5-1.7,4.8-4.2,5c-0.2,0-0.3,0-0.5,0c-2.5,0-4.5-1.9-4.5-4.8c0-3.1,2.1-5,4.7-5
		C118.2,996.7,120,998.7,120,1001.5z M112.6,1001.6c0,2.1,1.2,3.6,2.9,3.6c1.6,0,2.9-1.5,2.9-3.6c0-1.6-0.8-3.6-2.8-3.6
		S112.6,999.8,112.6,1001.6L112.6,1001.6z M114.8,992.8l1.7,2.8h-1.2l-2.4-2.8H114.8z"/>
	<path class="st9" d="M122.2,1000c0-1.2,0-2.2-0.1-3.1h1.5l0.1,1.6l0,0c0.7-1.2,2-1.9,3.3-1.8c2.3,0,4,1.9,4,4.8c0,3.4-2.1,5-4.3,5
		c-1.2,0.1-2.3-0.5-2.9-1.5l0,0v5.1h-1.7L122.2,1000z M123.8,1002.5c0,0.2,0,0.5,0.1,0.7c0.3,1.2,1.3,2,2.6,2c1.8,0,2.9-1.5,2.9-3.6
		c0-1.9-1-3.5-2.8-3.5c-1.2,0-2.3,0.9-2.6,2.1c-0.1,0.2-0.1,0.5-0.1,0.7L123.8,1002.5z"/>
	<path class="st9" d="M135.1,994.3c0,0.6-0.5,1.1-1.1,1c-0.6,0-1-0.5-1-1c0-0.6,0.4-1.1,1-1.1c0,0,0,0,0.1,0
		C134.6,993.2,135.1,993.6,135.1,994.3C135.1,994.2,135.1,994.2,135.1,994.3z M133.2,1006.3v-9.4h1.7v9.4H133.2z"/>
	<path class="st9" d="M142.9,1006.3l-0.1-1.2h-0.1c-0.7,0.9-1.7,1.4-2.9,1.4c-1.5,0.1-2.8-1-2.9-2.5c0-0.1,0-0.1,0-0.2
		c0-2.3,2-3.5,5.6-3.5v-0.2c0.1-1.1-0.6-2-1.7-2.2c-0.2,0-0.3,0-0.5,0c-0.9,0-1.7,0.2-2.4,0.7l-0.4-1.1c0.9-0.6,2-0.8,3.1-0.8
		c2.9,0,3.6,2,3.6,3.8v3.5c0,0.8,0,1.5,0.2,2.3H142.9z M142.7,1001.5c-1.9,0-4,0.3-4,2.1c-0.1,0.8,0.6,1.6,1.4,1.6
		c0.1,0,0.2,0,0.2,0c1,0,1.9-0.6,2.3-1.6c0.1-0.2,0.1-0.4,0.1-0.5V1001.5z"/>
	<path class="st9" d="M164.9,992.5v11.4c0,0.8,0,1.8,0.1,2.4h-1.5l-0.1-1.6l0,0c-0.6,1.2-1.9,1.9-3.2,1.8c-2.3,0-4-1.9-4-4.8
		c0-3.1,1.9-5,4.2-5c1.1-0.1,2.2,0.5,2.8,1.4l0,0v-5.6L164.9,992.5L164.9,992.5z M163.2,1000.7c0-0.2,0-0.5-0.1-0.7
		c-0.3-1.2-1.3-2-2.5-2c-1.8,0-2.8,1.6-2.8,3.6c0,1.9,0.9,3.5,2.8,3.5c1.2,0,2.3-0.9,2.5-2c0.1-0.2,0.1-0.5,0.1-0.7V1000.7z"/>
	<path class="st9" d="M168.7,1001.9c-0.1,1.7,1.1,3.1,2.7,3.3c0.2,0,0.3,0,0.5,0c0.9,0,1.8-0.1,2.6-0.5l0.3,1.2
		c-1,0.4-2.1,0.6-3.1,0.6c-2.4,0.2-4.5-1.7-4.6-4.1c0-0.2,0-0.4,0-0.7c0-2.8,1.7-5.1,4.4-5.1c3.1,0,3.9,2.7,3.9,4.4
		c0,0.3,0,0.5-0.1,0.8L168.7,1001.9z M173.7,1000.7c0-1.1-0.4-2.8-2.4-2.8c-1.5,0.1-2.6,1.3-2.6,2.8H173.7z"/>
	<path class="st9" d="M177.5,992.5h1.7v13.8h-1.7V992.5z"/>
	<path class="st9" d="M191.8,993.2h1.7v11.7h5.6v1.4h-7.3V993.2z"/>
	<path class="st9" d="M203.1,1002.2l-1.4,4.1H200l4.4-13.1h2l4.5,13.1h-1.8l-1.4-4.1H203.1z M207.4,1000.9l-1.3-3.8
		c-0.3-0.9-0.5-1.6-0.7-2.4l0,0c-0.2,0.8-0.4,1.6-0.7,2.4l-1.3,3.8H207.4z"/>
	<path class="st9" d="M212.8,993.4c1-0.2,2.1-0.3,3.1-0.3c1.3-0.1,2.5,0.2,3.6,1c0.7,0.5,1.1,1.4,1.1,2.3c0,1.3-0.9,2.5-2.2,2.9l0,0
		c1.6,0.3,2.7,1.7,2.7,3.3c0,1-0.4,1.9-1.1,2.6c-0.9,0.8-2.4,1.2-4.5,1.2c-0.9,0-1.8,0-2.6-0.2L212.8,993.4z M214.5,998.7h1.5
		c1.8,0,2.8-0.9,2.8-2.2c0-1.5-1.2-2.1-2.9-2.1c-0.5,0-1,0-1.5,0.1L214.5,998.7L214.5,998.7z M214.5,1005c0.5,0.1,0.9,0.1,1.4,0.1
		c1.7,0,3.4-0.6,3.4-2.5c0-1.8-1.5-2.5-3.4-2.5h-1.4V1005z"/>
	<path class="st9" d="M225.4,994.2v2.7h2.4v1.3h-2.4v5.1c0,1.2,0.3,1.8,1.3,1.8c0.3,0,0.7,0,1-0.1l0.1,1.3c-0.5,0.2-1,0.2-1.5,0.2
		c-0.7,0-1.4-0.2-1.8-0.7c-0.5-0.7-0.8-1.6-0.7-2.4v-5.1h-1.5V997h1.5v-2.3L225.4,994.2z"/>
	<path class="st9" d="M237.6,1003.7c0,1,0,1.8,0.1,2.6h-1.5l-0.1-1.5l0,0c-0.6,1.1-1.8,1.8-3.1,1.7c-1.5,0-3.2-0.8-3.2-4.1v-5.5h1.7
		v5.2c0,1.8,0.5,3,2.1,3c1,0,1.9-0.6,2.3-1.6c0.1-0.3,0.2-0.6,0.2-0.9v-5.8h1.7L237.6,1003.7z"/>
	<path class="st9" d="M240.4,999.8c0-1.1,0-2.1-0.1-2.9h1.5l0.1,1.8h0.1c0.3-1.2,1.4-2,2.6-2.1c0.2,0,0.3,0,0.5,0.1v1.6
		c-0.2,0-0.4-0.1-0.6-0.1c-1.2,0-2.2,1-2.3,2.2c0,0.3-0.1,0.5-0.1,0.8v5h-1.7V999.8z"/>
	<path class="st9" d="M248.7,994.3c0,0.6-0.5,1.1-1.1,1.1s-1.1-0.5-1.1-1.1s0.4-1.1,1-1.1c0,0,0,0,0.1,0
		C248.2,993.2,248.7,993.6,248.7,994.3C248.7,994.2,248.7,994.2,248.7,994.3z M246.8,1006.3v-9.4h1.7v9.4H246.8z"/>
	<path class="st9" d="M251.1,1004.6c0.7,0.4,1.5,0.7,2.3,0.7c1.2,0,1.8-0.6,1.8-1.4c0-0.8-0.5-1.3-1.7-1.7c-1.7-0.6-2.5-1.5-2.5-2.7
		c0-1.5,1.2-2.8,3.2-2.8c0.8,0,1.6,0.2,2.3,0.6l-0.4,1.2c-0.6-0.4-1.2-0.5-1.9-0.5c-1,0-1.6,0.6-1.6,1.3c0,0.8,0.6,1.1,1.8,1.6
		c1.6,0.6,2.5,1.4,2.5,2.8c0,1.6-1.3,2.8-3.5,2.8c-0.9,0-1.8-0.2-2.6-0.6L251.1,1004.6z"/>
	<path class="st9" d="M259.1,999.4c0-1,0-1.8-0.1-2.5h1.5l0.1,1.5h0.1c0.6-1.1,1.7-1.8,3-1.7c1.2,0,2.3,0.7,2.7,1.9l0,0
		c0.3-0.5,0.6-0.9,1-1.2c0.6-0.5,1.3-0.7,2.1-0.7c1.2,0,3.1,0.8,3.1,4.1v5.5h-1.7v-5.3c0-1.8-0.7-2.9-2-2.9c-0.9,0-1.7,0.7-2,1.6
		c-0.1,0.3-0.1,0.6-0.1,0.9v5.8h-1.7v-5.6c0-1.5-0.7-2.6-2-2.6c-1.3,0.2-2.3,1.2-2.3,2.5v5.7h-1.7V999.4z"/>
	<path class="st9" d="M276.2,1001.9c-0.1,1.7,1.1,3.1,2.7,3.3c0.2,0,0.3,0,0.5,0c0.9,0,1.8-0.1,2.6-0.5l0.3,1.2
		c-1,0.4-2.1,0.6-3.1,0.6c-2.4,0.2-4.5-1.7-4.6-4.1c0-0.2,0-0.4,0-0.7c0-2.8,1.7-5.1,4.4-5.1c3.1,0,3.9,2.7,3.9,4.4
		c0,0.3,0,0.5-0.1,0.8L276.2,1001.9z M281.2,1000.7c0-1.1-0.4-2.8-2.4-2.8c-1.5,0.1-2.6,1.3-2.6,2.8H281.2z"/>
	<path class="st9" d="M284.6,1009.5v-0.4c0.5-0.2,1-0.5,1.4-0.9s0.6-1,0.6-1.5l-0.1-0.3l-0.1-0.1l-0.8,0.3c-0.7,0-1-0.4-1-1.1
		c0-0.3,0.1-0.6,0.4-0.8c0.2-0.2,0.5-0.3,0.9-0.3c0.5,0,0.9,0.3,1.2,0.7c0.3,0.4,0.4,0.9,0.4,1.3
		C287.4,1007.9,286.5,1008.9,284.6,1009.5z"/>
	<path class="st9" d="M300.5,1001.9c-0.1,1.7,1.1,3.1,2.7,3.3c0.2,0,0.3,0,0.5,0c0.9,0,1.8-0.1,2.6-0.5l0.3,1.2
		c-1,0.4-2.1,0.6-3.1,0.6c-2.4,0.2-4.5-1.7-4.6-4.1c0-0.2,0-0.4,0-0.7c0-2.8,1.7-5.1,4.4-5.1c3.1,0,3.9,2.7,3.9,4.4
		c0,0.3,0,0.5-0.1,0.8L300.5,1001.9z M305.5,1000.7c0-1.1-0.4-2.8-2.4-2.8c-1.5,0.1-2.6,1.3-2.6,2.8H305.5z"/>
	<path class="st9" d="M309.2,999.4c0-1,0-1.8-0.1-2.5h1.5l0.1,1.6l0,0c0.6-1.1,1.8-1.8,3.1-1.8c1.3,0,3.3,0.8,3.3,4v5.6h-1.7v-5.4
		c0-1.5-0.6-2.8-2.2-2.8c-1.1,0-2,0.7-2.3,1.7c-0.1,0.3-0.1,0.5-0.1,0.8v5.6h-1.7v-6.8H309.2z"/>
	<path class="st9" d="M329.6,1006.3c0-0.6,0.1-1.6,0.1-2.4v-11.4h1.7v5.9l0,0c0.7-1.1,1.9-1.8,3.2-1.7c2.3,0,4,1.9,4,4.8
		c0,3.4-2.1,5-4.2,5c-1.3,0.1-2.5-0.6-3.1-1.8h-0.1l-0.1,1.6L329.6,1006.3z M331.4,1002.5c0,0.2,0,0.4,0.1,0.6c0.3,1.2,1.3,2,2.6,2
		c1.8,0,2.9-1.5,2.9-3.6c0-1.9-1-3.5-2.8-3.5c-1.2,0-2.3,0.9-2.6,2.1c-0.1,0.2-0.1,0.5-0.1,0.7L331.4,1002.5z"/>
	<path class="st9" d="M346,1006.3l-0.1-1.2h-0.1c-0.7,0.9-1.7,1.4-2.9,1.4c-1.5,0.1-2.8-1-2.9-2.5c0-0.1,0-0.1,0-0.2
		c0-2.3,2-3.5,5.6-3.5v-0.2c0.1-1.1-0.6-2-1.7-2.2c-0.2,0-0.3,0-0.5,0c-0.9,0-1.7,0.2-2.4,0.7l-0.4-1.1c0.9-0.6,2-0.8,3.1-0.8
		c2.9,0,3.6,2,3.6,3.8v3.5c0,0.8,0,1.5,0.2,2.3H346z M345.7,1001.5c-1.9,0-4,0.3-4,2.1c-0.1,0.8,0.6,1.6,1.4,1.6c0.1,0,0.2,0,0.2,0
		c1,0,1.9-0.6,2.3-1.6c0.1-0.2,0.1-0.4,0.1-0.5V1001.5z"/>
	<path class="st9" d="M349.9,1004.6c0.7,0.4,1.5,0.7,2.3,0.7c1.2,0,1.8-0.6,1.8-1.4c0-0.8-0.5-1.3-1.7-1.7c-1.7-0.6-2.5-1.5-2.5-2.7
		c0-1.5,1.2-2.8,3.2-2.8c0.8,0,1.6,0.2,2.3,0.6l-0.4,1.2c-0.6-0.4-1.2-0.5-1.9-0.5c-1,0-1.6,0.6-1.6,1.3c0,0.8,0.6,1.1,1.8,1.6
		c1.6,0.6,2.5,1.4,2.5,2.8c0,1.6-1.3,2.8-3.5,2.8c-0.9,0-1.8-0.2-2.6-0.6L349.9,1004.6z"/>
	<path class="st9" d="M358.7,1001.9c-0.1,1.7,1.1,3.1,2.7,3.3c0.2,0,0.3,0,0.5,0c0.9,0,1.8-0.1,2.6-0.5l0.3,1.2
		c-1,0.4-2.1,0.6-3.1,0.6c-2.4,0.2-4.5-1.7-4.6-4.1c0-0.2,0-0.4,0-0.7c0-2.8,1.7-5.1,4.4-5.1c3.1,0,3.9,2.7,3.9,4.4
		c0,0.3,0,0.5-0.1,0.8L358.7,1001.9z M363.8,1000.7c0-1.1-0.4-2.8-2.4-2.8c-1.5,0.1-2.6,1.3-2.6,2.8H363.8z"/>
	<path class="st9" d="M382.4,1006.3l-0.1-1.2h-0.1c-0.7,0.9-1.7,1.4-2.9,1.4c-1.5,0.1-2.8-1-2.9-2.5c0-0.1,0-0.1,0-0.2
		c0-2.3,2-3.5,5.6-3.5v-0.2c0.1-1.1-0.6-2-1.7-2.2c-0.2,0-0.3,0-0.5,0c-0.9,0-1.7,0.2-2.4,0.7l-0.4-1.1c0.9-0.6,2-0.8,3.1-0.8
		c2.9,0,3.6,2,3.6,3.8v3.5c0,0.8,0,1.5,0.2,2.3H382.4z M382.2,1001.5c-1.9,0-4,0.3-4,2.1c-0.1,0.8,0.6,1.6,1.4,1.6
		c0.1,0,0.2,0,0.2,0c1,0,1.9-0.6,2.3-1.6c0.1-0.2,0.1-0.4,0.1-0.5V1001.5z"/>
	<path class="st9" d="M404.4,992.5v11.4c0,0.8,0,1.8,0.1,2.4H403l-0.1-1.6l0,0c-0.6,1.2-1.9,1.9-3.2,1.8c-2.3,0-4-1.9-4-4.8
		c0-3.1,1.9-5,4.2-5c1.1-0.1,2.2,0.5,2.8,1.4l0,0v-5.6L404.4,992.5L404.4,992.5z M402.7,1000.7c0-0.2,0-0.5-0.1-0.7
		c-0.3-1.2-1.3-2-2.5-2c-1.8,0-2.8,1.6-2.8,3.6c0,1.9,0.9,3.5,2.8,3.5c1.2,0,2.3-0.9,2.5-2c0.1-0.2,0.1-0.5,0.1-0.7V1000.7z"/>
	<path class="st9" d="M412.4,1006.3l-0.1-1.2h-0.1c-0.7,0.9-1.7,1.4-2.9,1.4c-1.5,0.1-2.8-1-2.9-2.5c0-0.1,0-0.1,0-0.2
		c0-2.3,2-3.5,5.6-3.5v-0.2c0.1-1.1-0.6-2-1.7-2.2c-0.2,0-0.3,0-0.5,0c-0.9,0-1.7,0.2-2.4,0.7l-0.4-1.1c0.9-0.6,2-0.8,3.1-0.8
		c2.9,0,3.6,2,3.6,3.8v3.5c0,0.8,0,1.5,0.2,2.3H412.4z M412.2,1001.5c-1.9,0-4,0.3-4,2.1c-0.1,0.8,0.6,1.6,1.4,1.6
		c0.1,0,0.2,0,0.2,0c1,0,1.9-0.6,2.3-1.6c0.1-0.2,0.1-0.4,0.1-0.5V1001.5z"/>
	<path class="st9" d="M424.7,992.5v11.4c0,0.8,0,1.8,0.1,2.4h-1.5l-0.1-1.6l0,0c-0.6,1.2-1.9,1.9-3.2,1.8c-2.3,0-4-1.9-4-4.8
		c0-3.1,1.9-5,4.2-5c1.1-0.1,2.2,0.5,2.8,1.4l0,0v-5.6L424.7,992.5L424.7,992.5z M423,1000.7c0-0.2,0-0.5-0.1-0.7
		c-0.3-1.2-1.3-2-2.5-2c-1.8,0-2.8,1.6-2.8,3.6c0,1.9,0.9,3.5,2.8,3.5c1.2,0,2.3-0.9,2.5-2c0.1-0.2,0.1-0.5,0.1-0.7V1000.7z"/>
	<path class="st9" d="M428.5,1001.9c-0.1,1.7,1.1,3.1,2.7,3.3c0.2,0,0.3,0,0.5,0c0.9,0,1.8-0.1,2.6-0.5l0.3,1.2
		c-1,0.4-2.1,0.6-3.1,0.6c-2.4,0.2-4.5-1.7-4.6-4.1c0-0.2,0-0.4,0-0.7c0-2.8,1.7-5.1,4.4-5.1c3.1,0,3.9,2.7,3.9,4.4
		c0,0.3,0,0.5-0.1,0.8L428.5,1001.9z M433.5,1000.7c0-1.1-0.4-2.8-2.4-2.8c-1.5,0.1-2.6,1.3-2.6,2.8H433.5z"/>
	<path class="st9" d="M437,1004.6c0.7,0.4,1.5,0.7,2.3,0.7c1.2,0,1.8-0.6,1.8-1.4c0-0.8-0.5-1.3-1.7-1.7c-1.7-0.6-2.5-1.5-2.5-2.7
		c0-1.5,1.2-2.8,3.2-2.8c0.8,0,1.6,0.2,2.3,0.6l-0.4,1.2c-0.6-0.4-1.2-0.5-1.9-0.5c-1,0-1.6,0.6-1.6,1.3c0,0.8,0.6,1.1,1.8,1.6
		c1.6,0.6,2.5,1.4,2.5,2.8c0,1.6-1.3,2.8-3.5,2.8c-0.9,0-1.8-0.2-2.6-0.6L437,1004.6z"/>
	<path class="st9" d="M462.7,992.5v11.4c0,0.8,0,1.8,0.1,2.4h-1.5l-0.1-1.6l0,0c-0.6,1.2-1.9,1.9-3.2,1.8c-2.3,0-4-1.9-4-4.8
		c0-3.1,1.9-5,4.2-5c1.1-0.1,2.2,0.5,2.8,1.4l0,0v-5.6L462.7,992.5L462.7,992.5z M461,1000.7c0-0.2,0-0.5-0.1-0.7
		c-0.3-1.2-1.3-2-2.5-2c-1.8,0-2.8,1.6-2.8,3.6c0,1.9,0.9,3.5,2.8,3.5c1.2,0,2.3-0.9,2.5-2c0.1-0.2,0.1-0.5,0.1-0.7V1000.7z"/>
	<path class="st9" d="M466.5,1001.9c-0.1,1.7,1.1,3.1,2.7,3.3c0.2,0,0.3,0,0.5,0c0.9,0,1.8-0.1,2.6-0.5l0.3,1.2
		c-1,0.4-2.1,0.6-3.1,0.6c-2.4,0.2-4.5-1.7-4.6-4.1c0-0.2,0-0.4,0-0.7c0-2.8,1.7-5.1,4.4-5.1c3.1,0,3.9,2.7,3.9,4.4
		c0,0.3,0,0.5-0.1,0.8L466.5,1001.9z M471.5,1000.7c0-1.1-0.4-2.8-2.4-2.8c-1.5,0.1-2.6,1.3-2.6,2.8H471.5z"/>
	<path class="st9" d="M485,992.5h1.7v13.8H485V992.5z"/>
	<path class="st9" d="M490.8,993l-0.3,4.7h-1l-0.3-4.7H490.8z"/>
	<path class="st9" d="M500.1,1000.2H495v4.7h5.7v1.4h-7.4v-13.1h7.1v1.4H495v4.1h5.1V1000.2z"/>
	<path class="st9" d="M502.8,999.4c0-1,0-1.8-0.1-2.5h1.5l0.1,1.6l0,0c0.6-1.1,1.8-1.8,3.1-1.8c1.3,0,3.3,0.8,3.3,4v5.6H509v-5.4
		c0-1.5-0.6-2.8-2.2-2.8c-1.1,0-2,0.7-2.3,1.7c-0.1,0.3-0.1,0.5-0.1,0.8v5.6h-1.7L502.8,999.4z"/>
	<path class="st9" d="M519.9,1004.8L519.9,1004.8c-0.7,1.1-1.9,1.7-3.1,1.7c-2.2,0-4-1.9-4-4.8c0-3.5,2.3-5.1,4.3-5.1
		c1.2-0.1,2.3,0.6,2.9,1.6l0,0l0.1-1.4h1.6c0,0.8-0.1,1.6-0.1,2.6v10.7h-1.7V1004.8z M519.9,1000.7c0-0.2,0-0.5-0.1-0.7
		c-0.3-1.1-1.3-1.9-2.4-1.9c-1.8,0-2.8,1.5-2.8,3.6c0,1.9,0.9,3.5,2.8,3.5c1.1,0,2.1-0.8,2.4-1.9c0.1-0.3,0.1-0.5,0.1-0.8V1000.7z"
		/>
	<path class="st9" d="M532.3,1003.7c0,1,0,1.8,0.1,2.6h-1.5l-0.1-1.5l0,0c-0.6,1.1-1.8,1.8-3.1,1.7c-1.5,0-3.2-0.8-3.2-4.1v-5.5h1.7
		v5.2c0,1.8,0.5,3,2.1,3c1,0,1.9-0.6,2.3-1.6c0.1-0.3,0.2-0.6,0.2-0.9v-5.8h1.7L532.3,1003.7z"/>
	<path class="st9" d="M536.1,1001.9c-0.1,1.7,1.1,3.1,2.7,3.3c0.2,0,0.3,0,0.5,0c0.9,0,1.8-0.1,2.6-0.5l0.3,1.2
		c-1,0.4-2.1,0.6-3.1,0.6c-2.4,0.2-4.5-1.7-4.6-4.1c0-0.2,0-0.4,0-0.7c0-2.8,1.7-5.1,4.4-5.1c3.1,0,3.9,2.7,3.9,4.4
		c0,0.3,0,0.5-0.1,0.8L536.1,1001.9z M541.1,1000.7c0-1.1-0.4-2.8-2.4-2.8c-1.5,0.1-2.6,1.3-2.6,2.8H541.1z"/>
	<path class="st9" d="M544.6,1004.6c0.7,0.4,1.5,0.7,2.3,0.7c1.2,0,1.8-0.6,1.8-1.4c0-0.8-0.5-1.3-1.7-1.7c-1.7-0.6-2.5-1.5-2.5-2.7
		c0-1.5,1.2-2.8,3.2-2.8c0.8,0,1.6,0.2,2.3,0.6l-0.4,1.2c-0.6-0.4-1.2-0.5-1.9-0.5c-1,0-1.6,0.6-1.6,1.3c0,0.8,0.6,1.1,1.8,1.6
		c1.6,0.6,2.5,1.4,2.5,2.8c0,1.6-1.3,2.8-3.5,2.8c-0.9,0-1.8-0.2-2.6-0.6L544.6,1004.6z"/>
	<path class="st9" d="M554.6,994.2v2.7h2.4v1.3h-2.4v5.1c0,1.2,0.3,1.8,1.3,1.8c0.3,0,0.7,0,1-0.1l0.1,1.3c-0.5,0.2-1,0.2-1.5,0.2
		c-0.7,0-1.4-0.2-1.8-0.7c-0.5-0.7-0.8-1.6-0.7-2.4v-5.1h-1.5V997h1.5v-2.3L554.6,994.2z"/>
	<path class="st9" d="M564.2,1006.3l-0.1-1.2H564c-0.7,0.9-1.7,1.4-2.9,1.4c-1.5,0.1-2.8-1-2.9-2.5c0-0.1,0-0.1,0-0.2
		c0-2.3,2-3.5,5.6-3.5v-0.2c0.1-1.1-0.6-2-1.7-2.2c-0.2,0-0.3,0-0.5,0c-0.9,0-1.7,0.2-2.4,0.7l-0.4-1.1c0.9-0.6,2-0.8,3.1-0.8
		c2.9,0,3.6,2,3.6,3.8v3.5c0,0.8,0,1.5,0.2,2.3H564.2z M563.9,1001.5c-1.9,0-4,0.3-4,2.1c-0.1,0.8,0.6,1.6,1.4,1.6
		c0.1,0,0.2,0,0.2,0c1,0,1.9-0.6,2.3-1.6c0.1-0.2,0.1-0.4,0.1-0.5V1001.5z"/>
	<path class="st9" d="M586.2,992.5v11.4c0,0.8,0,1.8,0.1,2.4h-1.5l-0.1-1.6l0,0c-0.6,1.2-1.9,1.9-3.2,1.8c-2.3,0-4-1.9-4-4.8
		c0-3.1,1.9-5,4.2-5c1.1-0.1,2.2,0.5,2.8,1.4l0,0v-5.6L586.2,992.5L586.2,992.5z M584.4,1000.7c0-0.2,0-0.5-0.1-0.7
		c-0.3-1.2-1.3-2-2.5-2c-1.8,0-2.8,1.6-2.8,3.6c0,1.9,0.9,3.5,2.8,3.5c1.2,0,2.3-0.9,2.5-2c0.1-0.2,0.1-0.5,0.1-0.7V1000.7z"/>
	<path class="st9" d="M590.3,993l-0.3,4.7h-1l-0.3-4.7H590.3z"/>
	<path class="st9" d="M601,1001.5c0.2,2.5-1.7,4.8-4.2,5c-0.2,0-0.3,0-0.5,0c-2.5,0-4.5-1.9-4.5-4.8c0-3.1,2.1-5,4.7-5
		C599.2,996.7,601,998.7,601,1001.5z M593.5,1001.6c0,2.1,1.2,3.6,2.9,3.6c1.6,0,2.9-1.5,2.9-3.6c0-1.6-0.8-3.6-2.8-3.6
		S593.5,999.8,593.5,1001.6L593.5,1001.6z"/>
	<path class="st9" d="M609.8,1005.9c-0.8,0.4-1.8,0.6-2.7,0.5c-2.5,0.1-4.6-1.8-4.7-4.2c0-0.2,0-0.4,0-0.6c-0.1-2.6,1.9-4.9,4.5-5
		c0.2,0,0.3,0,0.5,0c0.8,0,1.6,0.2,2.4,0.5l-0.4,1.3c-0.6-0.3-1.3-0.5-2-0.4c-2,0.1-3.4,1.8-3.3,3.8c0.1,1.8,1.5,3.2,3.3,3.3
		c0.7,0,1.4-0.2,2.1-0.5L609.8,1005.9z"/>
	<path class="st9" d="M619.7,1003.7c0,1,0,1.8,0.1,2.6h-1.5l-0.1-1.5l0,0c-0.6,1.1-1.8,1.8-3.1,1.7c-1.5,0-3.2-0.8-3.2-4.1v-5.5h1.7
		v5.2c0,1.8,0.5,3,2.1,3c1,0,1.9-0.6,2.3-1.6c0.1-0.3,0.2-0.6,0.2-0.9v-5.8h1.7L619.7,1003.7z"/>
	<path class="st9" d="M622.5,1000c0-1.2,0-2.2-0.1-3.1h1.5l0.1,1.6l0,0c0.7-1.2,2-1.9,3.3-1.8c2.3,0,4,1.9,4,4.8c0,3.4-2.1,5-4.3,5
		c-1.2,0.1-2.3-0.5-2.9-1.5l0,0v5.1h-1.7L622.5,1000z M624.2,1002.5c0,0.2,0,0.5,0.1,0.7c0.3,1.2,1.3,2,2.6,2c1.8,0,2.9-1.5,2.9-3.6
		c0-1.9-1-3.5-2.8-3.5c-1.2,0-2.3,0.9-2.6,2.1c-0.1,0.2-0.1,0.5-0.1,0.7v1.6H624.2z"/>
	<path class="st9" d="M638.8,1006.3l-0.1-1.2h-0.1c-0.7,0.9-1.7,1.4-2.9,1.4c-1.5,0.1-2.8-1-2.9-2.5c0-0.1,0-0.1,0-0.2
		c0-2.3,2-3.5,5.6-3.5v-0.2c0.1-1.1-0.6-2-1.7-2.2c-0.2,0-0.3,0-0.5,0c-0.9,0-1.7,0.2-2.4,0.7l-0.4-1.1c0.9-0.6,2-0.8,3.1-0.8
		c2.9,0,3.6,2,3.6,3.8v3.5c0,0.8,0,1.5,0.2,2.3H638.8z M638.5,1001.5c-1.9,0-4,0.3-4,2.1c-0.1,0.8,0.6,1.6,1.4,1.6
		c0.1,0,0.2,0,0.2,0c1,0,1.9-0.6,2.3-1.6c0.1-0.2,0.1-0.4,0.1-0.5V1001.5z"/>
	<path class="st9" d="M649.6,1005.9c-0.8,0.4-1.8,0.6-2.7,0.5c-2.5,0.1-4.6-1.8-4.7-4.2c0-0.2,0-0.4,0-0.6c-0.1-2.6,1.9-4.9,4.5-5
		c0.2,0,0.3,0,0.5,0c0.8,0,1.6,0.2,2.4,0.5l-0.4,1.3c-0.6-0.3-1.3-0.5-2-0.4c-2,0.1-3.4,1.8-3.3,3.8c0.1,1.8,1.5,3.2,3.3,3.3
		c0.7,0,1.4-0.2,2.1-0.5L649.6,1005.9z"/>
	<path class="st9" d="M653.5,994.3c0,0.6-0.5,1.1-1.1,1.1s-1.1-0.5-1.1-1.1l0,0c0-0.6,0.4-1.1,1-1.1c0,0,0,0,0.1,0
		C653,993.2,653.5,993.6,653.5,994.3C653.5,994.2,653.5,994.2,653.5,994.3z M651.6,1006.3v-9.4h1.7v9.4H651.6z"/>
	<path class="st9" d="M664.7,1001.5c0.2,2.5-1.6,4.8-4.2,5c-0.2,0-0.3,0-0.5,0c-2.5,0-4.5-1.9-4.5-4.8c0-3.1,2.1-5,4.7-5
		C662.8,996.7,664.7,998.7,664.7,1001.5z M657.2,1001.6c0,2.1,1.2,3.6,2.9,3.6c1.6,0,2.9-1.5,2.9-3.6c0-1.6-0.8-3.6-2.8-3.6
		C658.1,998,657.2,999.8,657.2,1001.6L657.2,1001.6z M662.6,992.8l-2.4,2.8H659l1.7-2.8H662.6z"/>
	<path class="st9" d="M677.5,1001.9c-0.1,1.7,1.1,3.1,2.7,3.3c0.2,0,0.3,0,0.5,0c0.9,0,1.8-0.1,2.6-0.5l0.3,1.2
		c-1,0.4-2.1,0.6-3.1,0.6c-2.4,0.2-4.5-1.7-4.6-4.1c0-0.2,0-0.4,0-0.7c0-2.8,1.7-5.1,4.4-5.1c3.1,0,3.9,2.7,3.9,4.4
		c0,0.3,0,0.5-0.1,0.8L677.5,1001.9z M682.5,1000.7c0-1.1-0.4-2.8-2.4-2.8c-1.5,0.1-2.6,1.3-2.6,2.8H682.5z"/>
	<path class="st9" d="M686.2,999.4c0-1,0-1.8-0.1-2.5h1.5l0.1,1.6l0,0c0.6-1.1,1.8-1.8,3.1-1.8s3.3,0.8,3.3,4v5.6h-1.7v-5.4
		c0-1.5-0.6-2.8-2.2-2.8c-1.1,0-2,0.7-2.3,1.7c-0.1,0.3-0.1,0.5-0.1,0.8v5.6h-1.7L686.2,999.4z"/>
	<path class="st9" d="M711.9,1006.3l-0.1-1.2h-0.1c-0.7,0.9-1.7,1.4-2.9,1.4c-1.5,0.1-2.8-1-2.9-2.5c0-0.1,0-0.2,0-0.2
		c0-2.3,2-3.5,5.6-3.5v-0.2c0.1-1.1-0.6-2-1.7-2.2c-0.2,0-0.3,0-0.5,0c-0.9,0-1.7,0.2-2.4,0.7l-0.4-1.1c0.9-0.6,2-0.8,3.1-0.8
		c2.9,0,3.6,2,3.6,3.8v3.5c0,0.8,0,1.5,0.2,2.3H711.9z M711.7,1001.5c-1.9,0-4,0.3-4,2.1c-0.1,0.8,0.6,1.6,1.4,1.6
		c0.1,0,0.2,0,0.2,0c1,0,1.9-0.6,2.3-1.6c0.1-0.2,0.1-0.4,0.1-0.5V1001.5z"/>
	<path class="st9" d="M716.1,992.5h1.7v13.8h-1.7V992.5z"/>
	<path class="st9" d="M720.6,992.5h1.7v13.8h-1.7V992.5z"/>
	<path class="st9" d="M733.7,1001.5c0.2,2.5-1.6,4.8-4.2,5c-0.2,0-0.3,0-0.5,0c-2.5,0-4.5-1.9-4.5-4.8c0-3.1,2.1-5,4.7-5
		C731.9,996.7,733.7,998.7,733.7,1001.5z M726.3,1001.6c0,2.1,1.2,3.6,2.9,3.6c1.6,0,2.9-1.5,2.9-3.6c0-1.6-0.8-3.6-2.8-3.6
		C727.1,998,726.3,999.8,726.3,1001.6L726.3,1001.6z"/>
	<path class="st9" d="M737.9,994.2v2.7h2.4v1.3h-2.4v5.1c0,1.2,0.3,1.8,1.3,1.8c0.3,0,0.7,0,1-0.1l0.1,1.3c-0.5,0.2-1,0.2-1.5,0.2
		c-0.7,0-1.4-0.2-1.8-0.7c-0.5-0.7-0.8-1.6-0.7-2.4v-5.1h-1.5V997h1.5v-2.3L737.9,994.2z"/>
	<path class="st9" d="M740,1009c0.7,0,1.4-0.3,1.9-0.7c0.5-0.5,0.6-1.3,0.6-3.5v-7.9h1.7v8.5c0,1.8-0.3,3-1.1,3.9
		c-0.8,0.7-1.8,1.1-2.9,1.1L740,1009z M744.4,994.3c0,0.6-0.4,1-1,1h-0.1c-0.6,0-1-0.4-1-1c0,0,0,0,0-0.1c0-0.6,0.4-1.1,1-1.1
		c0,0,0,0,0.1,0C743.9,993.2,744.4,993.6,744.4,994.3C744.4,994.2,744.4,994.2,744.4,994.3L744.4,994.3z"/>
	<path class="st9" d="M752.2,1006.3l-0.1-1.2H752c-0.7,0.9-1.7,1.4-2.9,1.4c-1.5,0.1-2.8-1-2.9-2.5c0-0.1,0-0.2,0-0.2
		c0-2.3,2-3.5,5.6-3.5v-0.2c0.1-1.1-0.6-2-1.7-2.2c-0.2,0-0.3,0-0.5,0c-0.9,0-1.7,0.2-2.4,0.7l-0.4-1.1c0.9-0.6,2-0.8,3.1-0.8
		c2.9,0,3.6,2,3.6,3.8v3.5c0,0.8,0,1.5,0.2,2.3H752.2z M752,1001.5c-1.9,0-4,0.3-4,2.1c-0.1,0.8,0.6,1.6,1.4,1.6c0.1,0,0.2,0,0.2,0
		c1,0,1.9-0.6,2.3-1.6c0.1-0.2,0.1-0.4,0.1-0.5V1001.5z"/>
	<path class="st9" d="M756.4,999.4c0-1,0-1.8-0.1-2.5h1.5l0.1,1.5h0.1c0.6-1.1,1.7-1.8,3-1.7c1.2,0,2.3,0.7,2.7,1.9l0,0
		c0.3-0.5,0.6-0.9,1-1.2c0.6-0.5,1.3-0.7,2.1-0.7c1.2,0,3.1,0.8,3.1,4.1v5.5h-1.7v-5.3c0-1.8-0.7-2.9-2-2.9c-0.9,0-1.7,0.7-2,1.6
		c-0.1,0.3-0.1,0.6-0.1,0.9v5.8h-1.7v-5.6c0-1.5-0.7-2.6-2-2.6c-1,0.1-1.8,0.7-2.1,1.7c-0.1,0.3-0.1,0.6-0.1,0.8v5.7h-1.7
		L756.4,999.4z"/>
	<path class="st9" d="M773.5,1001.9c-0.1,1.7,1.1,3.1,2.7,3.3c0.2,0,0.3,0,0.5,0c0.9,0,1.8-0.1,2.6-0.5l0.3,1.2
		c-1,0.4-2.1,0.6-3.1,0.6c-2.4,0.2-4.5-1.7-4.6-4.1c0-0.2,0-0.4,0-0.7c0-2.8,1.7-5.1,4.4-5.1c3.1,0,3.9,2.7,3.9,4.4
		c0,0.3,0,0.5-0.1,0.8L773.5,1001.9z M778.5,1000.7c0-1.1-0.4-2.8-2.4-2.8c-1.5,0.1-2.6,1.3-2.6,2.8H778.5z"/>
	<path class="st9" d="M782.3,999.4c0-1,0-1.8-0.1-2.5h1.5l0.1,1.6l0,0c0.6-1.1,1.8-1.8,3.1-1.8s3.3,0.8,3.3,4v5.6h-1.7v-5.4
		c0-1.5-0.6-2.8-2.2-2.8c-1.1,0-2,0.7-2.3,1.7c-0.1,0.3-0.1,0.5-0.1,0.8v5.6h-1.7L782.3,999.4z"/>
	<path class="st9" d="M795,994.2v2.7h2.4v1.3H795v5.1c0,1.2,0.3,1.8,1.3,1.8c0.3,0,0.7,0,1-0.1l0.1,1.3c-0.5,0.2-1,0.2-1.5,0.2
		c-0.7,0-1.4-0.2-1.8-0.7c-0.5-0.7-0.8-1.6-0.7-2.4v-5.1h-1.5V997h1.5v-2.3L795,994.2z"/>
	<path class="st9" d="M799.1,1004.6c0.7,0.4,1.5,0.7,2.3,0.7c1.2,0,1.8-0.6,1.8-1.4c0-0.8-0.5-1.3-1.7-1.7c-1.7-0.6-2.5-1.5-2.5-2.7
		c0-1.5,1.2-2.8,3.2-2.8c0.8,0,1.6,0.2,2.3,0.6l-0.4,1.2c-0.6-0.4-1.2-0.5-1.9-0.5c-1,0-1.6,0.6-1.6,1.3c0,0.8,0.6,1.1,1.8,1.6
		c1.6,0.6,2.5,1.4,2.5,2.8c0,1.6-1.3,2.8-3.5,2.8c-0.9,0-1.8-0.2-2.6-0.6L799.1,1004.6z"/>
	<path class="st9" d="M824.9,992.5v11.4c0,0.8,0,1.8,0.1,2.4h-1.5l-0.1-1.6l0,0c-0.6,1.2-1.9,1.9-3.2,1.8c-2.3,0-4-1.9-4-4.8
		c0-3.1,1.9-5,4.2-5c1.1-0.1,2.2,0.5,2.8,1.4l0,0v-5.6L824.9,992.5L824.9,992.5z M823.2,1000.7c0-0.2,0-0.5-0.1-0.7
		c-0.3-1.2-1.3-2-2.5-2c-1.8,0-2.8,1.6-2.8,3.6c0,1.9,0.9,3.5,2.8,3.5c1.2,0,2.3-0.9,2.5-2c0.1-0.2,0.1-0.5,0.1-0.7V1000.7z"/>
	<path class="st9" d="M828.7,1001.9c-0.1,1.7,1.1,3.1,2.7,3.3c0.2,0,0.3,0,0.5,0c0.9,0,1.8-0.1,2.6-0.5l0.3,1.2
		c-1,0.4-2.1,0.6-3.1,0.6c-2.4,0.2-4.5-1.7-4.6-4.1c0-0.2,0-0.4,0-0.7c0-2.8,1.7-5.1,4.4-5.1c3.1,0,3.9,2.7,3.9,4.4
		c0,0.3,0,0.5-0.1,0.8L828.7,1001.9z M833.7,1000.7c0-1.1-0.4-2.8-2.4-2.8c-1.5,0.1-2.6,1.3-2.6,2.8H833.7z"/>
	<path class="st9" d="M847.1,992.5h1.7v13.8h-1.7V992.5z"/>
	<path class="st9" d="M853,993l-0.3,4.7h-1l-0.3-4.7H853z"/>
	<path class="st9" d="M857.1,993.2v13.1h-1.7v-13.1H857.1z"/>
	<path class="st9" d="M860.1,1006.3v-13.1h1.8l4.2,6.6c0.9,1.4,1.7,2.8,2.3,4.3l0,0c-0.2-1.7-0.2-3.3-0.2-5.4v-5.5h1.6v13.1h-1.7
		l-4.2-6.6c-0.9-1.4-1.7-2.9-2.4-4.4h-0.1c0.1,1.6,0.1,3.2,0.1,5.4v5.6L860.1,1006.3z"/>
	<path class="st9" d="M879.6,1000.2h-5.1v4.7h5.7v1.4h-7.4v-13.1h7.1v1.4h-5.4v4.1h5.1L879.6,1000.2L879.6,1000.2z"/>
	<path class="st9" d="M882.6,1004.8c0.4-0.4,1.1-0.4,1.5,0c0.2,0.2,0.3,0.5,0.3,0.7c0,0.3-0.1,0.6-0.3,0.8c-0.4,0.4-1,0.4-1.4,0l0,0
		c-0.2-0.2-0.3-0.5-0.3-0.7C882.3,1005.2,882.4,1005,882.6,1004.8z"/>
</g>
<text transform="matrix(1 0 0 1 559.8223 599.9639)" class="st10 st11 st12">Estrangers</text>
<text transform="matrix(1 0 0 1 559.8223 636.25)" class="st10 st11 st12">Domèstics</text>
<path class="st13" d="M698.1,617.7h32.3c5.8,0,10.4,4.7,10.4,10.4l0,0c0,5.8-4.7,10.4-10.4,10.4h-32.3c-5.8,0-10.4-4.7-10.4-10.4
	l0,0C687.6,622.4,692.3,617.7,698.1,617.7z"/>
<path class="st10" d="M698.1,583.9h32.3c5.8,0,10.4,4.7,10.4,10.4l0,0c0,5.8-4.7,10.4-10.4,10.4h-32.3c-5.8,0-10.4-4.7-10.4-10.4
	l0,0C687.6,588.6,692.3,583.9,698.1,583.9z"/>
<rect x="85.8" y="358.4" class="st14" width="1154" height="110"/>
<text transform="matrix(1 0 0 1 100.5997 401.3919)" class="st2 st15 st16">-40,8%</text>
<text transform="matrix(1 0 0 1 100.6001 473.2187)" class="st2 st15 st17">Viatgers</text>
<text transform="matrix(1 0 0 1 100.6002 513.2239)" class="st2 st15 st16">96.819</text>
<text transform="matrix(1 0 0 1 586.2352 401.3922)" class="st2 st15 st16">+28,3%</text>
<text transform="matrix(1 0 0 1 565.2195 473.2187)" class="st2 st15 st18">Pernoctacions</text>
<text transform="matrix(1 0 0 1 586.2351 509.9861)" class="st2 st15 st16">211.206</text>
<text transform="matrix(1 0 0 1 1089.5278 401.3919)" class="st2 st15 st16">+20,4%</text>
<text transform="matrix(1 0 0 1 943.2298 475.07)" class="st2 st15 st18">Establiments allotjaments oberts</text>
<text transform="matrix(1 0 0 1 1114.7722 511.7172)" class="st2 st15 st16">684</text>
<text transform="matrix(1 0 0 1 510.5226 111.9305)" class="st2 st15 st19">Síntesi</text>
<text transform="matrix(1 0 0 1 85.8001 429.3853)" class="st2 st20 st12">-65,8% (2019)</text>
<text transform="matrix(1 0 0 1 576.0101 429.3855)" class="st2 st20 st12">-65,9% (2019)</text>
<text transform="matrix(1 0 0 1 1075.3259 429.3851)" class="st2 st20 st12">-34,4% (2019)</text>
<image style="overflow:visible;enable-background:new    ;" width="177" height="156" xlink:href="EEF780B3.png"  transform="matrix(-1.2834 0 0 -1.2834 764.5309 375.7174)">
</image>
<image style="overflow:visible;enable-background:new    ;" width="177" height="156" xlink:href="EEF780B5.png"  transform="matrix(-1.2834 0 0 -1.2834 1257.8 375.7174)">
</image>
<g transform="translate(10,50.8)">
	<path id="point-0-0" class="st13" d="M327,587.7c91.9,0,166.3,74.5,166.3,166.3S418.9,920.3,327,920.3S160.7,845.9,160.7,754
		c0-47,19.9-91.8,54.8-123.4l72.5,80.2c-23.8,21.6-25.7,58.4-4.1,82.2s58.4,25.7,82.2,4.1c23.8-21.6,25.7-58.4,4.1-82.2
		c-11-12.2-26.7-19.2-43.2-19.2V587.7z"/>
	<path id="point-0-1" class="st2" d="M215.5,630.6c30.6-27.6,70.3-43,111.5-43v108.1c-14.4,0-28.3,5.4-39,15L215.5,630.6z"/>
	<g transform="translate(187.4892289580473,173.85758458961845)" pointer-events="none">
		<text transform="matrix(1 0 0 1 144.4834 684.9236)" class="st21 st22">88,3%</text>
		<text transform="matrix(1 0 0 1 144.4834 684.9236)" class="st14 st21 st22">88,3%</text>
	</g>
	<g transform="translate(135.74343705757764,39.47597498069406)" pointer-events="none">
		<text transform="matrix(1 0 0 1 116.4694 609.7692)" class="st21 st22">11,7%</text>
		<text transform="matrix(1 0 0 1 116.4694 609.7692)" class="st14 st21 st22">11,7%</text>
	</g>
</g>
<g transform="translate(589.232666015625,50.8)">
	<path id="point-1-0" class="st13" d="M459.8,587.7c91.9,0,166.3,74.5,166.3,166.3s-74.5,166.3-166.3,166.3S293.5,845.9,293.5,754
		c0-40.5,14.8-79.6,41.6-110l81.1,71.5c-21.3,24.1-18.9,60.9,5.2,82.2s60.9,18.9,82.2-5.2c21.3-24.1,18.9-60.9-5.2-82.2
		c-10.6-9.4-24.3-14.5-38.5-14.5V587.7z"/>
	<path id="point-1-1" class="st2" d="M335.1,644c31.6-35.8,77-56.3,124.8-56.3v108.1c-16.7,0-32.6,7.2-43.7,19.7L335.1,644z"/>
	<g transform="translate(191.24539824855114,172.2878852930877)" pointer-events="none">
		<text transform="matrix(1 0 0 1 279.4155 684.0441)" class="st21 st22">86,5%</text>
		<text transform="matrix(1 0 0 1 279.4155 684.0441)" class="st14 st21 st22">86,5%</text>
	</g>
	<g transform="translate(131.98726776707383,41.045674277224805)" pointer-events="none">
		<text transform="matrix(1 0 0 1 246.2742 610.6458)" class="st21 st22">13,5%</text>
		<text transform="matrix(1 0 0 1 246.2742 610.6458)" class="st14 st21 st22">13,5%</text>
	</g>
</g>
</svg>
