<?xml version="1.0" encoding="utf-8"?>
<!-- Generator: Adobe Illustrator 24.0.1, SVG Export Plug-In . SVG Version: 6.00 Build 0)  -->
<svg version="1.1" id="graphic" xmlns="http://www.w3.org/2000/svg" xmlns:xlink="http://www.w3.org/1999/xlink" x="0px" y="0px"
	 viewBox="0 0 562.5 611.3" style="enable-background:new 0 0 562.5 611.3;" xml:space="preserve">
<style type="text/css">
	.st0{enable-background:new    ;}
	.st1{fill:#6685A3;}
	.st2{fill:#003366;}
	.st3{font-family:'OpenSans-Bold';}
	.st4{font-size:11px;}
	.st5{font-size:8px;}
	.st6{fill:#E3F1F3;}
	.st7{fill:#E0F3F4;}
	.st8{fill:#E5F8F8;}
	.st9{fill:#E9F9F9;}
	.st10{fill:#CBF4F4;}
	.st11{font-family:'OpenSans-SemiBold';}
	.st12{font-family:'OpenSans-Light';}
	.st13{font-size:9px;}
	.st14{font-size:14px;}
	.st15{fill:#A2CFF6;stroke:#FFFFFF;stroke-width:0.2501;}
	.st16{fill:#003366;stroke:#FFFFFF;stroke-width:0.2501;}
	.st17{fill:#5686B3;stroke:#FFFFFF;stroke-width:0.2501;}
	.st18{fill:#75A3CE;stroke:#FFFFFF;stroke-width:0.2501;}
</style>
<g>
	<g class="st0">
		<path class="st1" d="M15.1,597.6h3.3v0.7h-2.5v2h2.3v0.6h-2.3v2.7h-0.8C15.1,603.6,15.1,597.6,15.1,597.6z"/>
		<path class="st1" d="M23.4,601.4c0,1.6-1.1,2.3-2.2,2.3c-1.2,0-2.1-0.9-2.1-2.2c0-1.5,1-2.3,2.2-2.3
			C22.6,599.2,23.4,600.1,23.4,601.4z M20,601.5c0,1,0.5,1.7,1.3,1.7s1.3-0.7,1.3-1.7c0-0.7-0.4-1.7-1.3-1.7S20,600.6,20,601.5z"/>
		<path class="st1" d="M24.4,600.5c0-0.5,0-0.8,0-1.2h0.7v0.7l0,0c0.2-0.4,0.7-0.8,1.4-0.8c0.6,0,1.5,0.4,1.5,1.9v2.6h-0.8v-2.5
			c0-0.7-0.3-1.3-1-1.3c-0.5,0-0.9,0.4-1.1,0.8c0,0.1-0.1,0.2-0.1,0.4v2.6h-0.8v-3.2H24.4z"/>
		<path class="st1" d="M30.4,598v1.3h1.1v0.6h-1.1v2.3c0,0.5,0.2,0.8,0.6,0.8c0.2,0,0.4,0,0.5-0.1v0.6c-0.2,0.1-0.4,0.1-0.7,0.1
			c-0.4,0-0.7-0.1-0.9-0.3s-0.3-0.6-0.3-1.1v-2.4h-0.7v-0.6h0.7v-1L30.4,598z"/>
		<path class="st1" d="M32.7,602.9c0.1-0.1,0.2-0.1,0.3-0.1s0.2,0,0.3,0.1s0.1,0.2,0.1,0.3s0,0.3-0.1,0.4c-0.1,0.1-0.2,0.1-0.3,0.1
			s-0.2,0-0.3-0.1s-0.1-0.2-0.1-0.3C32.5,603.1,32.6,603,32.7,602.9z M33,599.5c0.1,0,0.2,0,0.3,0.1s0.1,0.2,0.1,0.3s0,0.2-0.1,0.3
			s-0.2,0.1-0.3,0.1s-0.2,0-0.3-0.1s-0.1-0.2-0.1-0.3s0-0.2,0.1-0.3S32.9,599.5,33,599.5z"/>
		<path class="st1" d="M42.6,600.8h-2.4v2.2h2.6v0.7h-3.4v-6.1h3.3v0.7h-2.5v1.9h2.4C42.6,600.2,42.6,600.8,42.6,600.8z"/>
		<path class="st1" d="M43.8,597.2h0.8v6.4h-0.8V597.2z"/>
		<path class="st1" d="M48.4,603.6l-0.1-0.5l0,0c-0.2,0.3-0.7,0.6-1.3,0.6c-0.9,0-1.3-0.6-1.3-1.3c0-1.1,0.9-1.6,2.6-1.6l0,0
			c0-0.4-0.1-1-1-1c-0.4,0-0.8,0.1-1.1,0.3l-0.2-0.5c0.4-0.2,0.9-0.4,1.4-0.4c1.3,0,1.7,0.9,1.7,1.8v1.6c0,0.4,0,0.7,0.1,1
			L48.4,603.6L48.4,603.6z M48.3,601.4c-0.9,0-1.8,0.1-1.8,1c0,0.5,0.3,0.8,0.7,0.8c0.6,0,0.9-0.4,1.1-0.7c0-0.1,0-0.2,0-0.3V601.4z
			"/>
		<path class="st1" d="M50.3,603.6c0-0.3,0-0.7,0-1.1v-5.3h0.8v2.7l0,0c0.3-0.5,0.8-0.8,1.5-0.8c1.1,0,1.8,0.9,1.8,2.2
			c0,1.6-1,2.3-2,2.3c-0.6,0-1.1-0.2-1.5-0.8l0,0v0.7L50.3,603.6L50.3,603.6z M51.1,601.9c0,0.1,0,0.2,0,0.3
			c0.2,0.5,0.6,0.9,1.2,0.9c0.8,0,1.3-0.7,1.3-1.7c0-0.9-0.5-1.6-1.3-1.6c-0.5,0-1,0.4-1.2,1c0,0.1,0,0.2,0,0.3V601.9z"/>
		<path class="st1" d="M59.4,601.4c0,1.6-1.1,2.3-2.2,2.3c-1.2,0-2.1-0.9-2.1-2.2c0-1.5,1-2.3,2.2-2.3
			C58.5,599.2,59.4,600.1,59.4,601.4z M55.9,601.5c0,1,0.5,1.7,1.3,1.7s1.3-0.7,1.3-1.7c0-0.7-0.4-1.7-1.3-1.7
			S55.9,600.6,55.9,601.5z"/>
		<path class="st1" d="M60.4,600.6c0-0.5,0-1,0-1.4h0.7v0.9l0,0c0.2-0.6,0.7-1,1.2-1c0.1,0,0.2,0,0.2,0v0.7c-0.1,0-0.2,0-0.3,0
			c-0.6,0-1,0.4-1.1,1c0,0.1,0,0.2,0,0.4v2.3h-0.8L60.4,600.6L60.4,600.6z"/>
		<path class="st1" d="M65.7,603.6l-0.1-0.5l0,0c-0.2,0.3-0.7,0.6-1.3,0.6c-0.9,0-1.3-0.6-1.3-1.3c0-1.1,0.9-1.6,2.6-1.6l0,0
			c0-0.4-0.1-1-1-1c-0.4,0-0.8,0.1-1.1,0.3l-0.2-0.5c0.4-0.2,0.9-0.4,1.4-0.4c1.3,0,1.7,0.9,1.7,1.8v1.6c0,0.4,0,0.7,0.1,1
			L65.7,603.6L65.7,603.6z M65.6,601.4c-0.9,0-1.8,0.1-1.8,1c0,0.5,0.3,0.8,0.7,0.8c0.6,0,0.9-0.4,1.1-0.7c0-0.1,0-0.2,0-0.3V601.4z
			"/>
		<path class="st1" d="M70.8,603.5c-0.2,0.1-0.7,0.3-1.3,0.3c-1.3,0-2.2-0.9-2.2-2.2s0.9-2.3,2.3-2.3c0.5,0,0.9,0.1,1.1,0.2
			l-0.2,0.6c-0.2-0.1-0.5-0.2-0.9-0.2c-1,0-1.5,0.7-1.5,1.6c0,1,0.6,1.6,1.5,1.6c0.5,0,0.7-0.1,1-0.2L70.8,603.5z"/>
		<path class="st1" d="M72.6,598c0,0.3-0.2,0.5-0.5,0.5s-0.5-0.2-0.5-0.5s0.2-0.5,0.5-0.5C72.4,597.6,72.6,597.8,72.6,598z
			 M71.7,603.6v-4.4h0.8v4.4H71.7z"/>
		<path class="st1" d="M77.7,601.4c0,1.6-1.1,2.3-2.2,2.3c-1.2,0-2.1-0.9-2.1-2.2c0-1.5,1-2.3,2.2-2.3
			C76.9,599.2,77.7,600.1,77.7,601.4z M74.3,601.5c0,1,0.5,1.7,1.3,1.7s1.3-0.7,1.3-1.7c0-0.7-0.4-1.7-1.3-1.7
			S74.3,600.6,74.3,601.5z M76.8,597.4l-1.1,1.3h-0.6l0.8-1.3H76.8z"/>
		<path class="st1" d="M83.2,600.7c0-0.6,0-1,0-1.4h0.7v0.7l0,0c0.3-0.5,0.8-0.8,1.5-0.8c1.1,0,1.8,0.9,1.8,2.2c0,1.6-1,2.3-2,2.3
			c-0.6,0-1.1-0.3-1.3-0.7l0,0v2.4h-0.8v-4.7H83.2z M84,601.9c0,0.1,0,0.2,0,0.3c0.1,0.5,0.6,0.9,1.2,0.9c0.8,0,1.3-0.7,1.3-1.7
			c0-0.9-0.5-1.6-1.3-1.6c-0.5,0-1,0.4-1.2,1c0,0.1-0.1,0.2-0.1,0.3L84,601.9L84,601.9z"/>
		<path class="st1" d="M88.3,600.6c0-0.5,0-1,0-1.4H89v0.9l0,0c0.2-0.6,0.7-1,1.2-1c0.1,0,0.2,0,0.2,0v0.7c-0.1,0-0.2,0-0.3,0
			c-0.6,0-1,0.4-1.1,1c0,0.1,0,0.2,0,0.4v2.3h-0.8v-2.9H88.3z"/>
		<path class="st1" d="M95.2,601.4c0,1.6-1.1,2.3-2.2,2.3c-1.2,0-2.1-0.9-2.1-2.2c0-1.5,1-2.3,2.2-2.3
			C94.4,599.2,95.2,600.1,95.2,601.4z M91.8,601.5c0,1,0.5,1.7,1.3,1.7s1.3-0.7,1.3-1.7c0-0.7-0.4-1.7-1.3-1.7
			S91.8,600.6,91.8,601.5z M92.8,597.4l0.8,1.3H93l-1.1-1.3H92.8z"/>
		<path class="st1" d="M96.2,600.7c0-0.6,0-1,0-1.4h0.7v0.7l0,0c0.3-0.5,0.8-0.8,1.5-0.8c1.1,0,1.8,0.9,1.8,2.2c0,1.6-1,2.3-2,2.3
			c-0.6,0-1.1-0.3-1.3-0.7l0,0v2.4h-0.8v-4.7H96.2z M97,601.9c0,0.1,0,0.2,0,0.3c0.1,0.5,0.6,0.9,1.2,0.9c0.8,0,1.3-0.7,1.3-1.7
			c0-0.9-0.5-1.6-1.3-1.6c-0.5,0-1,0.4-1.2,1c0,0.1-0.1,0.2-0.1,0.3L97,601.9L97,601.9z"/>
		<path class="st1" d="M102.2,598c0,0.3-0.2,0.5-0.5,0.5s-0.5-0.2-0.5-0.5s0.2-0.5,0.5-0.5C102,597.6,102.2,597.8,102.2,598z
			 M101.4,603.6v-4.4h0.8v4.4H101.4z"/>
		<path class="st1" d="M105.9,603.6l-0.1-0.5l0,0c-0.2,0.3-0.7,0.6-1.3,0.6c-0.9,0-1.3-0.6-1.3-1.3c0-1.1,0.9-1.6,2.6-1.6l0,0
			c0-0.4-0.1-1-1-1c-0.4,0-0.8,0.1-1.1,0.3l-0.2-0.5c0.4-0.2,0.9-0.4,1.4-0.4c1.3,0,1.7,0.9,1.7,1.8v1.6c0,0.4,0,0.7,0.1,1
			L105.9,603.6L105.9,603.6z M105.8,601.4c-0.9,0-1.8,0.1-1.8,1c0,0.5,0.3,0.8,0.7,0.8c0.6,0,0.9-0.4,1.1-0.7c0-0.1,0-0.2,0-0.3
			C105.8,602.2,105.8,601.4,105.8,601.4z"/>
		<path class="st1" d="M116.1,597.2v5.3c0,0.4,0,0.8,0,1.1h-0.7v-0.8l0,0c-0.2,0.5-0.8,0.9-1.5,0.9c-1.1,0-1.9-0.9-1.9-2.2
			c0-1.5,0.9-2.3,2-2.3c0.7,0,1.1,0.3,1.3,0.7l0,0v-2.6L116.1,597.2C116.1,597.3,116.1,597.2,116.1,597.2z M115.3,601
			c0-0.1,0-0.2,0-0.3c-0.1-0.5-0.5-0.9-1.1-0.9c-0.8,0-1.3,0.7-1.3,1.7c0,0.9,0.4,1.6,1.3,1.6c0.5,0,1-0.4,1.2-0.9
			c0-0.1,0-0.2,0-0.3L115.3,601L115.3,601z"/>
		<path class="st1" d="M117.8,601.6c0,1.1,0.7,1.5,1.5,1.5c0.6,0,0.9-0.1,1.2-0.2l0.1,0.6c-0.3,0.1-0.8,0.3-1.4,0.3
			c-1.3,0-2.1-0.9-2.1-2.2s0.8-2.3,2-2.3c1.4,0,1.8,1.3,1.8,2.1c0,0.2,0,0.3,0,0.4h-3.1V601.6z M120.1,601c0-0.5-0.2-1.3-1.1-1.3
			c-0.8,0-1.2,0.7-1.2,1.3H120.1z"/>
		<path class="st1" d="M121.9,597.2h0.8v6.4h-0.8V597.2z"/>
		<path class="st1" d="M128.5,597.6h0.8v5.4h2.6v0.7h-3.4L128.5,597.6L128.5,597.6z"/>
		<path class="st1" d="M133.8,601.7l-0.6,1.9h-0.8l2.1-6.1h0.9l2.1,6.1h-0.8l-0.6-1.9H133.8z M135.8,601.1l-0.6-1.7
			c-0.1-0.4-0.2-0.8-0.3-1.1l0,0c-0.1,0.4-0.2,0.7-0.3,1.1l-0.6,1.8L135.8,601.1L135.8,601.1z"/>
		<path class="st1" d="M138.3,597.6c0.3-0.1,0.9-0.1,1.4-0.1c0.8,0,1.3,0.1,1.7,0.4c0.3,0.2,0.5,0.6,0.5,1.1c0,0.6-0.4,1.1-1,1.3
			l0,0c0.6,0.1,1.3,0.6,1.3,1.5c0,0.5-0.2,0.9-0.5,1.2c-0.4,0.4-1.1,0.6-2.1,0.6c-0.5,0-1,0-1.2-0.1L138.3,597.6L138.3,597.6z
			 M139.1,600.1h0.7c0.8,0,1.3-0.4,1.3-1c0-0.7-0.5-1-1.3-1c-0.4,0-0.6,0-0.7,0.1V600.1z M139.1,603c0.2,0,0.4,0,0.7,0
			c0.8,0,1.6-0.3,1.6-1.2c0-0.8-0.7-1.2-1.6-1.2h-0.6L139.1,603L139.1,603z"/>
		<path class="st1" d="M144.1,598v1.3h1.1v0.6h-1.1v2.3c0,0.5,0.2,0.8,0.6,0.8c0.2,0,0.4,0,0.5-0.1v0.6c-0.2,0.1-0.4,0.1-0.7,0.1
			c-0.4,0-0.7-0.1-0.9-0.3s-0.3-0.6-0.3-1.1v-2.4h-0.7v-0.6h0.7v-1L144.1,598z"/>
		<path class="st1" d="M149.8,602.4c0,0.5,0,0.8,0,1.2h-0.7v-0.7l0,0c-0.2,0.4-0.7,0.8-1.4,0.8s-1.5-0.4-1.5-1.9v-2.5h0.8v2.4
			c0,0.8,0.3,1.4,1,1.4c0.5,0,0.9-0.4,1-0.7c0-0.1,0.1-0.3,0.1-0.4v-2.7h0.8v3.1H149.8L149.8,602.4z"/>
		<path class="st1" d="M151.1,600.6c0-0.5,0-1,0-1.4h0.7v0.9l0,0c0.2-0.6,0.7-1,1.2-1c0.1,0,0.2,0,0.2,0v0.7c-0.1,0-0.2,0-0.3,0
			c-0.6,0-1,0.4-1.1,1c0,0.1,0,0.2,0,0.4v2.3H151v-2.9H151.1z"/>
		<path class="st1" d="M154.9,598c0,0.3-0.2,0.5-0.5,0.5s-0.5-0.2-0.5-0.5s0.2-0.5,0.5-0.5C154.7,597.6,154.9,597.8,154.9,598z
			 M154,603.6v-4.4h0.8v4.4H154z"/>
		<path class="st1" d="M156,602.8c0.2,0.2,0.6,0.3,1,0.3c0.6,0,0.8-0.3,0.8-0.6c0-0.4-0.2-0.6-0.8-0.8c-0.8-0.3-1.2-0.7-1.2-1.2
			c0-0.7,0.6-1.3,1.5-1.3c0.4,0,0.8,0.1,1.1,0.3l-0.2,0.6c-0.2-0.1-0.5-0.3-0.9-0.3c-0.5,0-0.7,0.3-0.7,0.6c0,0.4,0.3,0.5,0.8,0.7
			c0.8,0.3,1.1,0.7,1.1,1.3c0,0.8-0.6,1.3-1.6,1.3c-0.5,0-0.9-0.1-1.2-0.3L156,602.8z"/>
		<path class="st1" d="M159.7,600.5c0-0.5,0-0.8,0-1.2h0.7v0.7l0,0c0.2-0.4,0.6-0.8,1.4-0.8c0.6,0,1,0.4,1.2,0.9l0,0
			c0.1-0.2,0.3-0.4,0.5-0.6c0.3-0.2,0.5-0.3,1-0.3c0.6,0,1.4,0.4,1.4,1.9v2.6h-0.8v-2.5c0-0.8-0.3-1.3-0.9-1.3
			c-0.5,0-0.8,0.3-0.9,0.7c0,0.1-0.1,0.3-0.1,0.4v2.7h-0.8v-2.6c0-0.7-0.3-1.2-0.9-1.2c-0.5,0-0.9,0.4-1,0.8c0,0.1-0.1,0.3-0.1,0.4
			v2.6h-0.7L159.7,600.5L159.7,600.5z"/>
		<path class="st1" d="M167.6,601.6c0,1.1,0.7,1.5,1.5,1.5c0.6,0,0.9-0.1,1.2-0.2l0.1,0.6c-0.3,0.1-0.8,0.3-1.4,0.3
			c-1.3,0-2.1-0.9-2.1-2.2s0.8-2.3,2-2.3c1.4,0,1.8,1.3,1.8,2.1c0,0.2,0,0.3,0,0.4h-3.1V601.6z M170,601c0-0.5-0.2-1.3-1.1-1.3
			c-0.8,0-1.2,0.7-1.2,1.3H170z"/>
		<path class="st1" d="M176.6,601.6c0,1.1,0.7,1.5,1.5,1.5c0.6,0,0.9-0.1,1.2-0.2l0.1,0.6c-0.3,0.1-0.8,0.3-1.4,0.3
			c-1.3,0-2.1-0.9-2.1-2.2s0.8-2.3,2-2.3c1.4,0,1.8,1.3,1.8,2.1c0,0.2,0,0.3,0,0.4h-3.1V601.6z M179,601c0-0.5-0.2-1.3-1.1-1.3
			c-0.8,0-1.2,0.7-1.2,1.3H179z"/>
		<path class="st1" d="M180.7,600.5c0-0.5,0-0.8,0-1.2h0.7v0.7l0,0c0.2-0.4,0.7-0.8,1.4-0.8c0.6,0,1.5,0.4,1.5,1.9v2.6h-0.8v-2.5
			c0-0.7-0.3-1.3-1-1.3c-0.5,0-0.9,0.4-1.1,0.8c0,0.1-0.1,0.2-0.1,0.4v2.6h-0.6L180.7,600.5L180.7,600.5z"/>
		<path class="st1" d="M190.2,603.6c0-0.3,0-0.7,0-1.1v-5.3h0.8v2.7l0,0c0.3-0.5,0.8-0.8,1.5-0.8c1.1,0,1.8,0.9,1.8,2.2
			c0,1.6-1,2.3-2,2.3c-0.6,0-1.1-0.2-1.5-0.8l0,0v0.7L190.2,603.6L190.2,603.6z M191,601.9c0,0.1,0,0.2,0,0.3
			c0.2,0.5,0.6,0.9,1.2,0.9c0.8,0,1.3-0.7,1.3-1.7c0-0.9-0.5-1.6-1.3-1.6c-0.5,0-1,0.4-1.2,1c0,0.1,0,0.2,0,0.3V601.9z"/>
		<path class="st1" d="M197.7,603.6l-0.1-0.5l0,0c-0.2,0.3-0.7,0.6-1.3,0.6c-0.9,0-1.3-0.6-1.3-1.3c0-1.1,0.9-1.6,2.6-1.6l0,0
			c0-0.4-0.1-1-1-1c-0.4,0-0.8,0.1-1.1,0.3l-0.2-0.5c0.4-0.2,0.9-0.4,1.4-0.4c1.3,0,1.7,0.9,1.7,1.8v1.6c0,0.4,0,0.7,0.1,1
			L197.7,603.6L197.7,603.6z M197.6,601.4c-0.9,0-1.8,0.1-1.8,1c0,0.5,0.3,0.8,0.7,0.8c0.6,0,0.9-0.4,1.1-0.7c0-0.1,0-0.2,0-0.3
			V601.4z"/>
		<path class="st1" d="M199.6,602.8c0.2,0.2,0.6,0.3,1,0.3c0.6,0,0.8-0.3,0.8-0.6c0-0.4-0.2-0.6-0.8-0.8c-0.8-0.3-1.2-0.7-1.2-1.2
			c0-0.7,0.6-1.3,1.5-1.3c0.4,0,0.8,0.1,1.1,0.3l-0.2,0.6c-0.2-0.1-0.5-0.3-0.9-0.3c-0.5,0-0.7,0.3-0.7,0.6c0,0.4,0.3,0.5,0.8,0.7
			c0.8,0.3,1.1,0.7,1.1,1.3c0,0.8-0.6,1.3-1.6,1.3c-0.5,0-0.9-0.1-1.2-0.3L199.6,602.8z"/>
		<path class="st1" d="M203.7,601.6c0,1.1,0.7,1.5,1.5,1.5c0.6,0,0.9-0.1,1.2-0.2l0.1,0.6c-0.3,0.1-0.8,0.3-1.4,0.3
			c-1.3,0-2.1-0.9-2.1-2.2s0.8-2.3,2-2.3c1.4,0,1.8,1.3,1.8,2.1c0,0.2,0,0.3,0,0.4h-3.1V601.6z M206,601c0-0.5-0.2-1.3-1.1-1.3
			c-0.8,0-1.2,0.7-1.2,1.3H206z"/>
		<path class="st1" d="M214.7,603.6l-0.1-0.5l0,0c-0.2,0.3-0.7,0.6-1.3,0.6c-0.9,0-1.3-0.6-1.3-1.3c0-1.1,0.9-1.6,2.6-1.6l0,0
			c0-0.4-0.1-1-1-1c-0.4,0-0.8,0.1-1.1,0.3l-0.2-0.5c0.4-0.2,0.9-0.4,1.4-0.4c1.3,0,1.7,0.9,1.7,1.8v1.6c0,0.4,0,0.7,0.1,1
			L214.7,603.6L214.7,603.6z M214.5,601.4c-0.9,0-1.8,0.1-1.8,1c0,0.5,0.3,0.8,0.7,0.8c0.6,0,0.9-0.4,1.1-0.7c0-0.1,0-0.2,0-0.3
			V601.4z"/>
		<path class="st1" d="M224.8,597.2v5.3c0,0.4,0,0.8,0,1.1h-0.7v-0.8l0,0c-0.2,0.5-0.8,0.9-1.5,0.9c-1.1,0-1.9-0.9-1.9-2.2
			c0-1.5,0.9-2.3,2-2.3c0.7,0,1.1,0.3,1.3,0.7l0,0v-2.6L224.8,597.2L224.8,597.2L224.8,597.2z M224,601c0-0.1,0-0.2,0-0.3
			c-0.1-0.5-0.5-0.9-1.1-0.9c-0.8,0-1.3,0.7-1.3,1.7c0,0.9,0.4,1.6,1.3,1.6c0.5,0,1-0.4,1.2-0.9c0-0.1,0-0.2,0-0.3L224,601L224,601z
			"/>
		<path class="st1" d="M228.6,603.6l-0.1-0.5l0,0c-0.2,0.3-0.7,0.6-1.3,0.6c-0.9,0-1.3-0.6-1.3-1.3c0-1.1,0.9-1.6,2.6-1.6l0,0
			c0-0.4-0.1-1-1-1c-0.4,0-0.8,0.1-1.1,0.3l-0.2-0.5c0.4-0.2,0.9-0.4,1.4-0.4c1.3,0,1.7,0.9,1.7,1.8v1.6c0,0.4,0,0.7,0.1,1
			L228.6,603.6L228.6,603.6z M228.5,601.4c-0.9,0-1.8,0.1-1.8,1c0,0.5,0.3,0.8,0.7,0.8c0.6,0,0.9-0.4,1.1-0.7c0-0.1,0-0.2,0-0.3
			V601.4z"/>
		<path class="st1" d="M234.3,597.2v5.3c0,0.4,0,0.8,0,1.1h-0.7v-0.8l0,0c-0.2,0.5-0.8,0.9-1.5,0.9c-1.1,0-1.9-0.9-1.9-2.2
			c0-1.5,0.9-2.3,2-2.3c0.7,0,1.1,0.3,1.3,0.7l0,0v-2.6L234.3,597.2L234.3,597.2L234.3,597.2z M233.5,601c0-0.1,0-0.2,0-0.3
			c-0.1-0.5-0.5-0.9-1.1-0.9c-0.8,0-1.3,0.7-1.3,1.7c0,0.9,0.4,1.6,1.3,1.6c0.5,0,1-0.4,1.2-0.9c0-0.1,0-0.2,0-0.3L233.5,601
			L233.5,601z"/>
		<path class="st1" d="M236,601.6c0,1.1,0.7,1.5,1.5,1.5c0.6,0,0.9-0.1,1.2-0.2l0.1,0.6c-0.3,0.1-0.8,0.3-1.4,0.3
			c-1.3,0-2.1-0.9-2.1-2.2s0.8-2.3,2-2.3c1.4,0,1.8,1.3,1.8,2.1c0,0.2,0,0.3,0,0.4H236V601.6z M238.3,601c0-0.5-0.2-1.3-1.1-1.3
			c-0.8,0-1.2,0.7-1.2,1.3H238.3z"/>
		<path class="st1" d="M240,602.8c0.2,0.2,0.6,0.3,1,0.3c0.6,0,0.8-0.3,0.8-0.6c0-0.4-0.2-0.6-0.8-0.8c-0.8-0.3-1.2-0.7-1.2-1.2
			c0-0.7,0.6-1.3,1.5-1.3c0.4,0,0.8,0.1,1.1,0.3l-0.2,0.6c-0.2-0.1-0.5-0.3-0.9-0.3c-0.5,0-0.7,0.3-0.7,0.6c0,0.4,0.3,0.5,0.8,0.7
			c0.8,0.3,1.1,0.7,1.1,1.3c0,0.8-0.6,1.3-1.6,1.3c-0.5,0-0.9-0.1-1.2-0.3L240,602.8z"/>
		<path class="st1" d="M251.9,597.2v5.3c0,0.4,0,0.8,0,1.1h-0.7v-0.8l0,0c-0.2,0.5-0.8,0.9-1.5,0.9c-1.1,0-1.9-0.9-1.9-2.2
			c0-1.5,0.9-2.3,2-2.3c0.7,0,1.1,0.3,1.3,0.7l0,0v-2.6L251.9,597.2L251.9,597.2L251.9,597.2z M251.1,601c0-0.1,0-0.2,0-0.3
			c-0.1-0.5-0.5-0.9-1.1-0.9c-0.8,0-1.3,0.7-1.3,1.7c0,0.9,0.4,1.6,1.3,1.6c0.5,0,1-0.4,1.2-0.9c0-0.1,0-0.2,0-0.3L251.1,601
			L251.1,601z"/>
		<path class="st1" d="M253.7,601.6c0,1.1,0.7,1.5,1.5,1.5c0.6,0,0.9-0.1,1.2-0.2l0.1,0.6c-0.3,0.1-0.8,0.3-1.4,0.3
			c-1.3,0-2.1-0.9-2.1-2.2s0.8-2.3,2-2.3c1.4,0,1.8,1.3,1.8,2.1c0,0.2,0,0.3,0,0.4h-3.1L253.7,601.6L253.7,601.6z M256,601
			c0-0.5-0.2-1.3-1.1-1.3c-0.8,0-1.2,0.7-1.2,1.3H256z"/>
		<path class="st1" d="M262.2,597.2h0.8v6.4h-0.8V597.2z"/>
		<path class="st1" d="M264.9,597.5l-0.2,2.2h-0.5l-0.1-2.2H264.9z"/>
		<path class="st1" d="M269.2,600.8h-2.4v2.2h2.6v0.7H266v-6.1h3.3v0.7h-2.5v1.9h2.4L269.2,600.8L269.2,600.8z"/>
		<path class="st1" d="M270.5,600.5c0-0.5,0-0.8,0-1.2h0.7v0.7l0,0c0.2-0.4,0.7-0.8,1.4-0.8c0.6,0,1.5,0.4,1.5,1.9v2.6h-0.8v-2.5
			c0-0.7-0.3-1.3-1-1.3c-0.5,0-0.9,0.4-1.1,0.8c0,0.1-0.1,0.2-0.1,0.4v2.6h-0.8v-3.2H270.5z"/>
		<path class="st1" d="M278.4,603L278.4,603c-0.3,0.4-0.7,0.8-1.4,0.8c-1,0-1.8-0.9-1.8-2.2c0-1.6,1.1-2.3,2-2.3
			c0.7,0,1.1,0.3,1.3,0.8l0,0v-0.7h0.7c0,0.4,0,0.7,0,1.2v4.9h-0.8L278.4,603L278.4,603z M278.4,601c0-0.1,0-0.2,0-0.3
			c-0.1-0.5-0.5-0.9-1.1-0.9c-0.8,0-1.3,0.7-1.3,1.7c0,0.9,0.4,1.6,1.3,1.6c0.5,0,1-0.3,1.1-0.9c0-0.1,0.1-0.3,0.1-0.4V601
			L278.4,601L278.4,601z"/>
		<path class="st1" d="M284.2,602.4c0,0.5,0,0.8,0,1.2h-0.7v-0.7l0,0c-0.2,0.4-0.7,0.8-1.4,0.8c-0.7,0-1.5-0.4-1.5-1.9v-2.5h0.8v2.4
			c0,0.8,0.3,1.4,1,1.4c0.5,0,0.9-0.4,1-0.7c0-0.1,0.1-0.3,0.1-0.4v-2.7h0.8L284.2,602.4L284.2,602.4z"/>
		<path class="st1" d="M285.9,601.6c0,1.1,0.7,1.5,1.5,1.5c0.6,0,0.9-0.1,1.2-0.2l0.1,0.6c-0.3,0.1-0.8,0.3-1.4,0.3
			c-1.3,0-2.1-0.9-2.1-2.2s0.8-2.3,2-2.3c1.4,0,1.8,1.3,1.8,2.1c0,0.2,0,0.3,0,0.4h-3.1V601.6z M288.3,601c0-0.5-0.2-1.3-1.1-1.3
			c-0.8,0-1.2,0.7-1.2,1.3H288.3z"/>
		<path class="st1" d="M289.9,602.8c0.2,0.2,0.6,0.3,1,0.3c0.6,0,0.8-0.3,0.8-0.6c0-0.4-0.2-0.6-0.8-0.8c-0.8-0.3-1.2-0.7-1.2-1.2
			c0-0.7,0.6-1.3,1.5-1.3c0.4,0,0.8,0.1,1.1,0.3l-0.2,0.6c-0.2-0.1-0.5-0.3-0.9-0.3c-0.5,0-0.7,0.3-0.7,0.6c0,0.4,0.3,0.5,0.8,0.7
			c0.8,0.3,1.1,0.7,1.1,1.3c0,0.8-0.6,1.3-1.6,1.3c-0.5,0-0.9-0.1-1.2-0.3L289.9,602.8z"/>
		<path class="st1" d="M294.5,598v1.3h1.1v0.6h-1.1v2.3c0,0.5,0.2,0.8,0.6,0.8c0.2,0,0.4,0,0.5-0.1v0.6c-0.2,0.1-0.4,0.1-0.7,0.1
			c-0.4,0-0.7-0.1-0.9-0.3c-0.2-0.2-0.3-0.6-0.3-1.1v-2.4H293v-0.6h0.7v-1L294.5,598z"/>
		<path class="st1" d="M299,603.6l-0.1-0.5l0,0c-0.2,0.3-0.7,0.6-1.3,0.6c-0.9,0-1.3-0.6-1.3-1.3c0-1.1,0.9-1.6,2.6-1.6l0,0
			c0-0.4-0.1-1-1-1c-0.4,0-0.8,0.1-1.1,0.3l-0.2-0.5c0.4-0.2,0.9-0.4,1.4-0.4c1.3,0,1.7,0.9,1.7,1.8v1.6c0,0.4,0,0.7,0.1,1
			L299,603.6L299,603.6z M298.8,601.4c-0.9,0-1.8,0.1-1.8,1c0,0.5,0.3,0.8,0.7,0.8c0.6,0,0.9-0.4,1.1-0.7c0-0.1,0-0.2,0-0.3
			L298.8,601.4L298.8,601.4z"/>
		<path class="st1" d="M309.1,597.2v5.3c0,0.4,0,0.8,0,1.1h-0.7v-0.8l0,0c-0.2,0.5-0.8,0.9-1.5,0.9c-1.1,0-1.9-0.9-1.9-2.2
			c0-1.5,0.9-2.3,2-2.3c0.7,0,1.1,0.3,1.3,0.7l0,0v-2.6L309.1,597.2L309.1,597.2L309.1,597.2z M308.4,601c0-0.1,0-0.2,0-0.3
			c-0.1-0.5-0.5-0.9-1.1-0.9c-0.8,0-1.3,0.7-1.3,1.7c0,0.9,0.4,1.6,1.3,1.6c0.5,0,1-0.4,1.2-0.9c0-0.1,0-0.2,0-0.3V601L308.4,601
			L308.4,601z"/>
		<path class="st1" d="M311,597.5l-0.2,2.2h-0.5l-0.1-2.2H311z"/>
		<path class="st1" d="M316.1,601.4c0,1.6-1.1,2.3-2.2,2.3c-1.2,0-2.1-0.9-2.1-2.2c0-1.5,1-2.3,2.2-2.3
			C315.2,599.2,316.1,600.1,316.1,601.4z M312.6,601.5c0,1,0.5,1.7,1.3,1.7s1.3-0.7,1.3-1.7c0-0.7-0.4-1.7-1.3-1.7
			S312.6,600.6,312.6,601.5z"/>
		<path class="st1" d="M320.2,603.5c-0.2,0.1-0.7,0.3-1.3,0.3c-1.3,0-2.2-0.9-2.2-2.2s0.9-2.3,2.3-2.3c0.5,0,0.9,0.1,1.1,0.2
			l-0.2,0.6c-0.2-0.1-0.5-0.2-0.9-0.2c-1,0-1.5,0.7-1.5,1.6c0,1,0.6,1.6,1.5,1.6c0.5,0,0.7-0.1,1-0.2L320.2,603.5z"/>
		<path class="st1" d="M324.8,602.4c0,0.5,0,0.8,0,1.2h-0.7v-0.7l0,0c-0.2,0.4-0.7,0.8-1.4,0.8c-0.7,0-1.5-0.4-1.5-1.9v-2.5h0.8v2.4
			c0,0.8,0.3,1.4,1,1.4c0.5,0,0.9-0.4,1-0.7c0-0.1,0.1-0.3,0.1-0.4v-2.7h0.8L324.8,602.4L324.8,602.4z"/>
		<path class="st1" d="M326.1,600.7c0-0.6,0-1,0-1.4h0.7v0.7l0,0c0.3-0.5,0.8-0.8,1.5-0.8c1.1,0,1.8,0.9,1.8,2.2c0,1.6-1,2.3-2,2.3
			c-0.6,0-1.1-0.3-1.3-0.7l0,0v2.4H326L326.1,600.7L326.1,600.7z M326.9,601.9c0,0.1,0,0.2,0,0.3c0.1,0.5,0.6,0.9,1.2,0.9
			c0.8,0,1.3-0.7,1.3-1.7c0-0.9-0.5-1.6-1.3-1.6c-0.5,0-1,0.4-1.2,1c0,0.1-0.1,0.2-0.1,0.3v0.8H326.9z"/>
		<path class="st1" d="M333.6,603.6l-0.1-0.5l0,0c-0.2,0.3-0.7,0.6-1.3,0.6c-0.9,0-1.3-0.6-1.3-1.3c0-1.1,0.9-1.6,2.6-1.6l0,0
			c0-0.4-0.1-1-1-1c-0.4,0-0.8,0.1-1.1,0.3l-0.2-0.5c0.4-0.2,0.9-0.4,1.4-0.4c1.3,0,1.7,0.9,1.7,1.8v1.6c0,0.4,0,0.7,0.1,1
			L333.6,603.6L333.6,603.6z M333.5,601.4c-0.9,0-1.8,0.1-1.8,1c0,0.5,0.3,0.8,0.7,0.8c0.6,0,0.9-0.4,1.1-0.7c0-0.1,0-0.2,0-0.3
			L333.5,601.4L333.5,601.4z"/>
		<path class="st1" d="M338.6,603.5c-0.2,0.1-0.7,0.3-1.3,0.3c-1.3,0-2.2-0.9-2.2-2.2s0.9-2.3,2.3-2.3c0.5,0,0.9,0.1,1.1,0.2
			l-0.2,0.6c-0.2-0.1-0.5-0.2-0.9-0.2c-1,0-1.5,0.7-1.5,1.6c0,1,0.6,1.6,1.5,1.6c0.5,0,0.7-0.1,1-0.2L338.6,603.5z"/>
		<path class="st1" d="M340.5,598c0,0.3-0.2,0.5-0.5,0.5s-0.5-0.2-0.5-0.5s0.2-0.5,0.5-0.5C340.3,597.6,340.5,597.8,340.5,598z
			 M339.6,603.6v-4.4h0.8v4.4H339.6z"/>
		<path class="st1" d="M345.6,601.4c0,1.6-1.1,2.3-2.2,2.3c-1.2,0-2.1-0.9-2.1-2.2c0-1.5,1-2.3,2.2-2.3
			C344.8,599.2,345.6,600.1,345.6,601.4z M342.2,601.5c0,1,0.5,1.7,1.3,1.7s1.3-0.7,1.3-1.7c0-0.7-0.4-1.7-1.3-1.7
			S342.2,600.6,342.2,601.5z M344.7,597.4l-1.1,1.3H343l0.8-1.3H344.7z"/>
		<path class="st1" d="M351.6,601.6c0,1.1,0.7,1.5,1.5,1.5c0.6,0,0.9-0.1,1.2-0.2l0.1,0.6c-0.3,0.1-0.8,0.3-1.4,0.3
			c-1.3,0-2.1-0.9-2.1-2.2s0.8-2.3,2-2.3c1.4,0,1.8,1.3,1.8,2.1c0,0.2,0,0.3,0,0.4h-3.1V601.6z M353.9,601c0-0.5-0.2-1.3-1.1-1.3
			c-0.8,0-1.2,0.7-1.2,1.3H353.9z"/>
		<path class="st1" d="M355.6,600.5c0-0.5,0-0.8,0-1.2h0.7v0.7l0,0c0.2-0.4,0.7-0.8,1.4-0.8c0.6,0,1.5,0.4,1.5,1.9v2.6h-0.8v-2.5
			c0-0.7-0.3-1.3-1-1.3c-0.5,0-0.9,0.4-1.1,0.8c0,0.1-0.1,0.2-0.1,0.4v2.6h-0.8v-3.2H355.6z"/>
		<path class="st1" d="M367.5,603.6l-0.1-0.5l0,0c-0.2,0.3-0.7,0.6-1.3,0.6c-0.9,0-1.3-0.6-1.3-1.3c0-1.1,0.9-1.6,2.6-1.6l0,0
			c0-0.4-0.1-1-1-1c-0.4,0-0.8,0.1-1.1,0.3l-0.2-0.5c0.4-0.2,0.9-0.4,1.4-0.4c1.3,0,1.7,0.9,1.7,1.8v1.6c0,0.4,0,0.7,0.1,1
			L367.5,603.6L367.5,603.6z M367.4,601.4c-0.9,0-1.8,0.1-1.8,1c0,0.5,0.3,0.8,0.7,0.8c0.6,0,0.9-0.4,1.1-0.7c0-0.1,0-0.2,0-0.3
			L367.4,601.4L367.4,601.4z"/>
		<path class="st1" d="M369.5,597.2h0.8v6.4h-0.8V597.2z"/>
		<path class="st1" d="M371.6,597.2h0.8v6.4h-0.8V597.2z"/>
		<path class="st1" d="M377.7,601.4c0,1.6-1.1,2.3-2.2,2.3c-1.2,0-2.1-0.9-2.1-2.2c0-1.5,1-2.3,2.2-2.3
			C376.8,599.2,377.7,600.1,377.7,601.4z M374.2,601.5c0,1,0.5,1.7,1.3,1.7s1.3-0.7,1.3-1.7c0-0.7-0.4-1.7-1.3-1.7
			S374.2,600.6,374.2,601.5z"/>
		<path class="st1" d="M379.6,598v1.3h1.1v0.6h-1.1v2.3c0,0.5,0.2,0.8,0.6,0.8c0.2,0,0.4,0,0.5-0.1v0.6c-0.2,0.1-0.4,0.1-0.7,0.1
			c-0.4,0-0.7-0.1-0.9-0.3c-0.2-0.2-0.3-0.6-0.3-1.1v-2.4h-0.7v-0.6h0.7v-1L379.6,598z"/>
		<path class="st1" d="M380.6,604.9c0.4,0,0.7-0.1,0.9-0.3c0.2-0.3,0.3-0.6,0.3-1.6v-3.6h0.8v4c0,0.8-0.1,1.4-0.5,1.8
			c-0.4,0.4-0.9,0.5-1.4,0.5L380.6,604.9z M382.6,598c0,0.3-0.2,0.5-0.5,0.5s-0.5-0.2-0.5-0.5s0.2-0.5,0.5-0.5
			C382.4,597.6,382.6,597.8,382.6,598z"/>
		<path class="st1" d="M386.2,603.6l-0.1-0.5l0,0c-0.2,0.3-0.7,0.6-1.3,0.6c-0.9,0-1.3-0.6-1.3-1.3c0-1.1,0.9-1.6,2.6-1.6l0,0
			c0-0.4-0.1-1-1-1c-0.4,0-0.8,0.1-1.1,0.3l-0.2-0.5c0.4-0.2,0.9-0.4,1.4-0.4c1.3,0,1.7,0.9,1.7,1.8v1.6c0,0.4,0,0.7,0.1,1
			L386.2,603.6L386.2,603.6z M386.1,601.4c-0.9,0-1.8,0.1-1.8,1c0,0.5,0.3,0.8,0.7,0.8c0.6,0,0.9-0.4,1.1-0.7c0-0.1,0-0.2,0-0.3
			L386.1,601.4L386.1,601.4z"/>
		<path class="st1" d="M388.2,600.5c0-0.5,0-0.8,0-1.2h0.7v0.7l0,0c0.2-0.4,0.6-0.8,1.4-0.8c0.6,0,1,0.4,1.2,0.9l0,0
			c0.1-0.2,0.3-0.4,0.5-0.6c0.3-0.2,0.5-0.3,1-0.3c0.6,0,1.4,0.4,1.4,1.9v2.6h-0.8v-2.5c0-0.8-0.3-1.3-0.9-1.3
			c-0.5,0-0.8,0.3-0.9,0.7c0,0.1-0.1,0.3-0.1,0.4v2.7h-0.8v-2.6c0-0.7-0.3-1.2-0.9-1.2c-0.5,0-0.9,0.4-1,0.8c0,0.1-0.1,0.3-0.1,0.4
			v2.6h-0.8L388.2,600.5L388.2,600.5z"/>
		<path class="st1" d="M396.1,601.6c0,1.1,0.7,1.5,1.5,1.5c0.6,0,0.9-0.1,1.2-0.2l0.1,0.6c-0.3,0.1-0.8,0.3-1.4,0.3
			c-1.3,0-2.1-0.9-2.1-2.2s0.8-2.3,2-2.3c1.4,0,1.8,1.3,1.8,2.1c0,0.2,0,0.3,0,0.4h-3.1V601.6z M398.4,601c0-0.5-0.2-1.3-1.1-1.3
			c-0.8,0-1.2,0.7-1.2,1.3H398.4z"/>
		<path class="st1" d="M400.2,600.5c0-0.5,0-0.8,0-1.2h0.7v0.7l0,0c0.2-0.4,0.7-0.8,1.4-0.8c0.6,0,1.5,0.4,1.5,1.9v2.6H403v-2.5
			c0-0.7-0.3-1.3-1-1.3c-0.5,0-0.9,0.4-1.1,0.8c0,0.1-0.1,0.2-0.1,0.4v2.6H400v-3.2H400.2z"/>
		<path class="st1" d="M406.1,598v1.3h1.1v0.6h-1.1v2.3c0,0.5,0.2,0.8,0.6,0.8c0.2,0,0.4,0,0.5-0.1v0.6c-0.2,0.1-0.4,0.1-0.7,0.1
			c-0.4,0-0.7-0.1-0.9-0.3c-0.2-0.2-0.3-0.6-0.3-1.1v-2.4h-0.6v-0.6h0.7v-1L406.1,598z"/>
		<path class="st1" d="M408,602.8c0.2,0.2,0.6,0.3,1,0.3c0.6,0,0.8-0.3,0.8-0.6c0-0.4-0.2-0.6-0.8-0.8c-0.8-0.3-1.2-0.7-1.2-1.2
			c0-0.7,0.6-1.3,1.5-1.3c0.4,0,0.8,0.1,1.1,0.3l-0.2,0.6c-0.2-0.1-0.5-0.3-0.9-0.3c-0.5,0-0.7,0.3-0.7,0.6c0,0.4,0.3,0.5,0.8,0.7
			c0.8,0.3,1.1,0.7,1.1,1.3c0,0.8-0.6,1.3-1.6,1.3c-0.5,0-0.9-0.1-1.2-0.3L408,602.8z"/>
		<path class="st1" d="M420,597.2v5.3c0,0.4,0,0.8,0,1.1h-0.7v-0.8l0,0c-0.2,0.5-0.8,0.9-1.5,0.9c-1.1,0-1.9-0.9-1.9-2.2
			c0-1.5,0.9-2.3,2-2.3c0.7,0,1.1,0.3,1.3,0.7l0,0v-2.6L420,597.2L420,597.2L420,597.2z M419.2,601c0-0.1,0-0.2,0-0.3
			c-0.1-0.5-0.5-0.9-1.1-0.9c-0.8,0-1.3,0.7-1.3,1.7c0,0.9,0.4,1.6,1.3,1.6c0.5,0,1-0.4,1.2-0.9c0-0.1,0-0.2,0-0.3V601L419.2,601
			L419.2,601z"/>
		<path class="st1" d="M421.7,601.6c0,1.1,0.7,1.5,1.5,1.5c0.6,0,0.9-0.1,1.2-0.2l0.1,0.6c-0.3,0.1-0.8,0.3-1.4,0.3
			c-1.3,0-2.1-0.9-2.1-2.2s0.8-2.3,2-2.3c1.4,0,1.8,1.3,1.8,2.1c0,0.2,0,0.3,0,0.4h-3.1V601.6z M424,601c0-0.5-0.2-1.3-1.1-1.3
			c-0.8,0-1.2,0.7-1.2,1.3H424z"/>
		<path class="st1" d="M430.3,597.2h0.8v6.4h-0.8V597.2z"/>
		<path class="st1" d="M433,597.5l-0.2,2.2h-0.5l-0.1-2.2H433z"/>
		<path class="st1" d="M434.9,597.6v6.1h-0.8v-6.1H434.9z"/>
		<path class="st1" d="M436.3,603.6v-6.1h0.9l1.9,3.1c0.5,0.7,0.8,1.4,1.1,2l0,0c-0.1-0.8-0.1-1.5-0.1-2.5v-2.5h0.7v6.1H440
			l-1.9-3.1c-0.4-0.7-0.8-1.4-1.1-2l0,0c0,0.8,0.1,1.5,0.1,2.5v2.6L436.3,603.6L436.3,603.6z"/>
		<path class="st1" d="M445.3,600.8h-2.4v2.2h2.6v0.7h-3.4v-6.1h3.3v0.7h-2.5v1.9h2.4V600.8z"/>
	</g>
</g>
<g>
	<text transform="matrix(1 0 0 1 340.17 125.8173)" class="st2 st3 st4">GIRONA</text>
</g>
<text transform="matrix(1 0 0 1 20.7259 171.4601)" class="st2 st3 st4">LLEIDA</text>
<text transform="matrix(1 0 0 1 20.726 183.9125)" class="st2 st3 st5">VARIACIÓ INT. 2020 </text>
<text transform="matrix(1 0 0 1 99.526 183.9125)" class="st1 st3 st5">| 2019</text>
<path class="st6" d="M208.3,333.4c1.4,1.6,0.3,1.8-1,1.9C206.4,334.2,208.2,334.2,208.3,333.4z"/>
<path class="st7" d="M250.9,419.6c-0.1-0.9-0.5-1.8,0.5-2.4c0.5,0.3,0.9-1.6,1.3,0c0.1,0.5,1.1,1.6-0.4,1.6
	C251.5,418.6,251.4,419.3,250.9,419.6z"/>
<path class="st8" d="M355.8,233.8c0-0.2,0-0.5-0.1-0.7c0.8-1.7,2.2-1,3.5-1.2C358.4,233.1,356.7,232.6,355.8,233.8z"/>
<path class="st9" d="M364.9,231.8c0.9,0.5,1,1.4,1.2,2.2C364.6,234.1,364.4,233.1,364.9,231.8z"/>
<path class="st10" d="M351.1,229v-0.7c0.9,0.4,2.1-0.5,2.8,0.7H351.1z"/>
<text transform="matrix(1 0 0 1 20.7258 200.1654)" class="st2 st11 st5">Ocupació:  </text>
<text transform="matrix(1 0 0 1 20.7258 209.7654)" class="st2 st11 st5">39,1% (-2,7 pp)</text>
<text transform="matrix(1 0 0 1 74.6138 209.7655)" class="st1 st11 st5">  | -3,2 pp</text>
<text transform="matrix(1 0 0 1 175.8115 71.674)" class="st1 st12 st13">Entre parèntesi, variació interanual respecte l’any 2020 </text>
<g>
	<text transform="matrix(1 0 0 1 20.7262 223.9946)" class="st2 st11 st5">Viatgers: </text>
	<text transform="matrix(1 0 0 1 20.7262 233.5946)" class="st2 st11 st5">7.413 (+349,0%) </text>
	<text transform="matrix(1 0 0 1 81.7761 233.5949)" class="st1 st11 st5">| -0,7%</text>
</g>
<g>
	<text transform="matrix(1 0 0 1 20.7258 246.1706)" class="st2 st11 st5">Pernoctacions: </text>
	<text transform="matrix(1 0 0 1 20.7258 255.7706)" class="st2 st11 st5">20.914 (372,2%)  </text>
	<text transform="matrix(1 0 0 1 79.2618 255.7706)" class="st1 st11 st5"> | -24,9%</text>
</g>
<text transform="matrix(1 0 0 1 340.17 136.9873)" class="st2 st3 st5">VARIACIÓ INT. 2020 </text>
<text transform="matrix(1 0 0 1 418.97 136.9873)" class="st1 st3 st5">| 2019</text>
<text transform="matrix(1 0 0 1 340.1697 153.0714)" class="st2 st11 st5">Ocupació:  35.1% (8.3 pp)   </text>
<text transform="matrix(1 0 0 1 437.9697 153.0714)" class="st1 st11 st5"> | 5,6 pp</text>
<text transform="matrix(1 0 0 1 340.1698 166.7306)" class="st2 st11 st5">Viatgers: 24.831 (+192,7%)</text>
<text transform="matrix(1 0 0 1 442.0018 166.7306)" class="st1 st11 st5">| -31,7%</text>
<text transform="matrix(1 0 0 1 340.1704 178.61)" class="st2 st11 st5">Pernoctacions: 63.744 (+200,0%)</text>
<text transform="matrix(1 0 0 1 462.4224 178.6102)" class="st1 st11 st5"> | -26,4%</text>
<g>
	<text transform="matrix(1 0 0 1 379.2997 414.951)" class="st2 st3 st4">ENTORN DE BARCELONA</text>
</g>
<text transform="matrix(1 0 0 1 379.2997 426.1211)" class="st2 st3 st5">VARIACIÓ INT. 2020 </text>
<text transform="matrix(1 0 0 1 458.0998 426.1211)" class="st1 st3 st5">| 2019</text>
<text transform="matrix(1 0 0 1 379.2995 442.2051)" class="st2 st11 st5">Ocupació: 33,7% (-7,8 pp) </text>
<text transform="matrix(1 0 0 1 480.6675 442.2057)" class="st1 st11 st5">| -4,4 pp</text>
<text transform="matrix(1 0 0 1 379.2996 455.8644)" class="st2 st11 st5">Viatgers: 26.182 (+291,5%)</text>
<text transform="matrix(1 0 0 1 478.4318 455.864)" class="st1 st11 st5"> | -41,5%</text>
<text transform="matrix(1 0 0 1 379.2997 470.0477)" class="st2 st11 st5">Pernoctacions: 63.006 (+384,4%)</text>
<text transform="matrix(1 0 0 1 501.2557 470.0478)" class="st1 st11 st5"> | -36,5%</text>
<g>
	<text transform="matrix(1 0 0 1 175.812 505.0213)" class="st2 st3 st4">TARRAGONA</text>
</g>
<text transform="matrix(1 0 0 1 175.812 516.1915)" class="st2 st3 st5">VARIACIÓ INT. 2020 </text>
<text transform="matrix(1 0 0 1 254.612 516.1915)" class="st1 st3 st5">| 2019</text>
<text transform="matrix(1 0 0 1 175.8117 532.2756)" class="st2 st11 st5">Ocupació: 31,6% (-0,2 pp) </text>
<text transform="matrix(1 0 0 1 272.2001 532.2752)" class="st1 st11 st5"> | +2,1 pp</text>
<text transform="matrix(1 0 0 1 175.8117 545.9347)" class="st2 st11 st5">Viatgers: 32.339 (+268,8%) </text>
<text transform="matrix(1 0 0 1 275.9998 545.935)" class="st1 st11 st5">| +10,5 %</text>
<text transform="matrix(1 0 0 1 175.812 560.118)" class="st2 st11 st5">Pernoctacions: 90.169 (+164,0%) </text>
<text transform="matrix(1 0 0 1 299.7998 560.1183)" class="st1 st11 st5">| +8,8%</text>
<text transform="matrix(1 0 0 1 254.6118 28.2533)" class="st2 st11 st14">Càmpings</text>
<g id="regions-layer">
	<path class="st15" d="M101.1,583.8l-12-5.2l-0.7-3.6l1.7-2.6l-5.8-2.9l-0.3-1.9l-10-1l-8.6-3.9l-2.4-3.9l0.4-2.6l3.8-5.2l-4.8-4.2
		l-3.8,1l-1.7-6.2l-4.1,1.6l-4.1-1.6l-1-1.9l-0.7-1.3l2.4,1.6v-2.9l2.1,1l3.5-3.6l2.4,0.3l1.4-4.5l6.2-6.8l-2.7-3.9l-0.3-1l-0.3-5.5
		l-2.4-1.9l8.3-17.8h-1.7v-2.9l-2-2.6l1-1l-2.4-1.3l0.4-1.6l2.7-0.3l-2.7-1l-2-2.9l-2.4,1.3v-2.6l-2.4,0.3l2.1-1.3l-1.7-1.6l0.4-2.3
		l-0.7-2.6h-2.4l1.4-6.5l-1.4-1.3l3.1-1.9l-1-0.6L61,462l0.7-4.2l3.3,0.5l4.5-2.9l2.1-11l3.4-2.6l2.7,1.3l0.7-2.3h2.7l-1-2.6
		l1.7-5.8L89,433l0.4-9l4.1-2.9l6.5,9h3.4l4.1-7.4l4.1,1.3l3.4,5.5l3.4,0.3l5.8-2.9l0.7-0.6h0.3h0.7l11.6-1.6l1.7-3.5l2.4,0.6h1h1
		v0.3l3.8,0.6l0.7-1.3l0.3-1l0.7-3.9l1.7-1l3.7,4.8l13.3-2.9l2.1-0.6l-0.3-2.3l2.7-4.8l1.7,0.6l1.4-3.2l4.1-1l2.7-5.5l1.4-1.3
		l0.3-0.3l2.1-1.9l0.7-1l-2-1.3l-3.8-2.9l1.4-0.6l-1-3.5l10.2,5.5v1.3l10.9-3.9l-2.4-5.1l1.7-3.5l-1.7-1l1.4,0.6l-0.7-1.6l6.8-1.9
		l0.3-3.5l4.8-0.3l8.5-0.3l15.4,2.6l-1.7-3.5l4.4-1.3l4.8,2.6l-3.4,2.6l0.3,1.3l2.1-0.6l0.3,3.2l-6.2,0.3l-1.7,4.5l7.5,3.5l0.7,1.6
		h3.4l1.7,3.2h0.3l-2.7,5.1l0.7,1.6l2.7,0.3l-2.4,1.3l1,1.6l1,4.2l-2.4,3.5l5.1-2.6l4.8,1.9l2.1,3.2h2.7l1,2.3h0.3l-3.1,2.6l2.1,5.5
		l3.4,1.3l-0.7,3.2l3.4,1.9l0.3-1.6l3.4-0.6l-1.4,0.3l-1,8.1l-7.9-1.3l1,3.5l7.2,3.9l2.4-2.3l1,4.5l-0.3,3.2l-20.2,3.5l-6.8,2.3
		l-11,7.1l-5.1,0.3l-9.9,0.3l-7.2,3.9l-3.4,4.2l3.4-4.2l-2.7,1.6l-2.7-0.6l-3.4,3.2l-2.7,6.5h-1.7l-2.4-3.2l-3.8-0.6l-5.8,2.6
		l-5.5-0.3l-9.9,5.2l-6.5,6.5l-0.7,2.6l-5.5,3.2l-5.8,6.1l-10,15.5l-6.5,4.2l-1.4,4.5L129,527l1,3.6l4.4,4.2l6.9-0.3v-1.3l-7.5-2.3
		l0.7-1.3l3.8-0.3l3.1,1.9l8.2,10.7l3.8-1l3.1,1.9l-1.4,6.2l-6.1,5.3l-10,4.9l-12.4,16.2l-10,2.3l-3.1-2.9l-0.3-2.3l3.1,0.3h0.3
		h-0.3l0.3-1.6l2.4,0.6v0.3v0.3l0.3,0.3l1,0.3l0.7,0.3h0.3l0.3-0.3v-0.3v-0.6h0.7v-0.3v-0.3l0.7-1.6l8.2-0.3l4.1-6.5l0.7-2.3h-1
		l-0.3-0.3h-0.3l-20.3,3.2l-9.7,11L101.1,583.8z"/>
	<path class="st16" d="M283,311v-1.6l2.7,1l-0.7,1.3L283,311z M182.6,400.9l-2.7,5.5l-4.1,1l-1.4,3.2l-1.7-0.6l-2.7,4.8l0.3,2.3
		l-2.1,0.6l-13.3,2.9l-3.7-4.8l-1.7,1l-0.7,3.9l-0.3,1l-0.7,1.3l-3.8-0.6v-0.3h-1h-1l-2.4-0.6l-1.7,3.5l-11.6,1.6h-0.7h-0.3
		l-0.7,0.6l-5.8,2.9l-3.4-0.3l-3.4-5.5l-4.1-1.3l-4.1,7.4h-3.4l-6.5-9l-4.1,2.9l-0.4,9l-7.2-0.6l-3.1-5.2l0.7-2.9l-3.1-1.6l3.8-5.2
		l-1.7-3.2l-6.5-5.2l2.4-2.6l3.1-9l-1.7-1.6l-0.3-4.5l6.5-0.3l2.7-1.9l6.5-10.6l-2.4-3.2l-0.3-7.4l-3.8,1.6l-8.2-1.3l-0.3-4.5
		l1.7-1.9l-4.8-5.8v-3.2l6.5-7.4l2.4-5.1l1.4,1.6l0.7-5.1l10.9-1.6l1.7-6.7l5.1-4.5l4.1,0.6l1.7-6.4l4.1,0.3v-2.6l4.1-1.6l-2.4-2.6
		l1.4-4.8l-1-1.3l2-0.6l-6.8-2.9v-1.3l4.5-5.8l1.7,1.6l3.1-6.4l2.4-0.3l0.3,2.2l0.7-2.9l1.7-0.6l1-2.9l-1.4-0.6V282l2.4-1.9
		l-0.3-2.9l4.8-9l-0.6-9.3l2.7-1.9l-1.7-1.3v-4.2l1.7-6.7l3.1-4.8l1.7-10.5l3.1-4.1l-3.4-1v-1.9l4.4-2.9l-7.5-2.9l3.4-3.8l-8.1-19.4
		l1.4-2.2l2,1.3l4.1-3.2l-3.1-1.6v-2.2l0.7-1.6l3.7-0.6l-1.4-1.6l4.1-12.1v-1.3l-3.4-0.6l-5.8-1.3l-1.7-7.3l-3-3.5l-2.4-2.9h2.4
		l1-2.9l-3-9.2l-3.1-0.3l3.7-4.4l-3-1.6l3.7-3.5l-1.7-7.3l3.1-1.9l-0.3-1.3l4.4-1.3l10.5,5.1l3.1-1l9.1,2.9l10.2,7.3l5.8-3.2
		l2.7,3.5h7.8l1.7,1.3l4.4-0.3l0.7-1.3l7.8,6.7l0.7,5.4l4.7,3.8l10.2-3.8l3.1,2.5l10.9-1.9l4.8,1l-0.7,3.8l5.8,2.5l-0.3,3.8l3.7,2.2
		l1,6.4l3.4,4.1l-2.4,4.5l2.7,2.5l-2.7,1.6l-2,4.8l4.8-1.6l3.7,6.7l-7.5,4.5l3.1,1.9l0.3,6.7l2,1.6l14.6,0.6l1-5.1l3.4,1.6l1.4-2.9
		l10.2-0.6l1.7-7.3l2,2.2l3.4,0.6l3.1-2.9l0.7,2.5l-1,1l1.4,9.2l5.8,2.2l3.7-0.3l2,2.5l-1.4,8l1.4,1.6l3.1-2.5l4.1,2.5l-3.1,2.9
		l1,9.6l-1.7,1h-4.1l-3.7,1.9l-6.1,0.3l-0.7,1.3l-2.7-1l-7.1,1.3l3.1,1l0.7,2.6l-1.4,1.6l3.1,3.2l-0.7,1.9l-3.1,1.3l0.7,3.5l3.4,3.2
		l1.7-1.3l3.1,1.3l-0.3,1v1.6v0.3l0.3,2.6l-1.4,0.6l-3.4,1.9l-1.4,4.2l1.4,1l-0.3,3.5l2.7,2.2l-1,1.9l-3.7-0.6l-2.7,6.1l-0.7,2.6
		l1.4,1l0.7-1.9l2.4,4.2l-3.7,1.6l-1,3.2l-0.3-3.5h-1.4l-1.4,4.2l1,1.6l1-2.2v2.2l3.7-0.3l1.7,1.9v-6.1l3.4,3.2l-0.7,1.6l0.3,1.6
		L279,296l-2-1.3l1-1.9l-3.7,1l-0.3,6.4l-1,1l1.7,2.6H273h-0.3l-8.2,8l-1.4-1l-1.4,2.6l2.4,1.3l2.4-2.2l2.7,0.6l0.7,1.6l1.4,5.8
		l-3.1,1.3v3.8l-3.4,2.6l1.7,3.2l-1,2.2l-2.7-1l-2,1v1.6l-2-0.3l-0.3,2.9l-2.4,1v-2.6l-1-0.3l-1.7-1l-0.3-0.3v-0.3l-0.3-0.3
		l-0.3-2.6h-2.7l-1,3.5v-0.3l-1.4,0.3v-5.8l-1.7,0.3h-1.4l-3.8-0.6l-1.4,1.3L237,340l3.1,2.6l-6.1,5.1l2.4,0.3l-0.7,1.9l1.4,1.9
		l3.1,0.3l-1.4,1.9l3.8,5.1v0.3h1.7v1.3l-3.1,2.2l-5.5-1.3l-5.1,4.2l7.2,2.9l-2.4,4.8l1.7,3.5l-15.4-2.6l-8.5,0.3l-4.8,0.3l-0.3,3.5
		l-6.8,1.9l0.7,1.6l-1.4-0.6l1.7,1l-1.7,3.5l2.4,5.1l-10.9,3.9v-1.3l-10.2-5.5l1,3.5l-1.4,0.6l3.8,2.9l2,1.3l-0.7,1l-2.1,1.9
		l-0.3,0.3L182.6,400.9z M280.6,266.9l-3.1-0.6l-4.1,0.3l4.1,1.9h3.1V266.9z"/>
	<path class="st17" d="M327.6,265.6v-0.3l0.3-1l2.7-1.3l1.4,1.6l-1.7,0.6l-0.3,2.2l-1.7,0.3L327.6,265.6z M322.7,194.2l1-2.5h2
		l1,1.6l-1.7,3.2l4.1,4.1l-8.2-1l0.3-5.1L322.7,194.2z M523.2,231.8l-0.3-0.3l0.3-0.3h0.3v0.6H523.2z M512.6,280.3l-0.3-0.3
		l-0.3-0.3v-0.3l1-0.3L512.6,280.3z M377.5,317.4l-0.7-4.8l1.7-1.6l4.8,1l1,2.2l1.4-0.3l3.4-4.2l3.8,0.6v0.3l2-0.3l5.4-4.8l-0.4-2.9
		l-2.4-1.6l-0.3-0.3l-3.1-0.3l0.3-2.6l-2.1-1.9l0.7-1.6l6.1,0.6l2-2.9l-3.1-1.9l4.8-1.6l-0.7-3.8l1.4-1.9l-3.4-4.2l2.4-1.3l-1.4-1.9
		h-0.3v0.3h-0.3l-0.7-1.6l-2.7-0.3l-1.7,0.3l-3.4,2.6l-3.1-2.2l-2.1-3.8l0.7-2.2h-3.1l-0.7-2.2l-2.7-0.6v-0.3h-1.7l-3.7,1.3h-0.3
		l-3.4,2.2l1-3.5v-0.3l-1-1.9l-2.4-1.6l-1-0.3V261l-2.7,1l-2.7-1.3l-2,0.3l-1,0.3l-0.3,0.3h-0.3l-0.7,1.6l-2.4,1.6l-0.7-2.2
		l-6.5,0.6l-2.4,3.2l-4.1-1.9l-1.4-3.8l-4.8,1.6l-3.4-1.3l-1-1.9l-4.1,0.6v-1l-2.1-5.4l-3.7,0.6l-0.3-4.2l6.5,1.3l-1.4,0.3l1,1.6
		l-1.4,2.2l1.4,1.9l2.4-0.3l1.7-2.6l4.4-0.3l0.3-2.9l-1.7-0.3l-0.7-5.1v-0.3l-2.7,1.3l-1.7-2.9l1.4-1.9v-0.3l0.3-2.2l1-1v-0.3
		l2.7-3.8v-0.3l2.4-2.2l-7.8-3.8l-5.1,2.6l-4.8-3.5l-1.4,1.3l-0.3-1.3l-5.8-1.6l-9.2,3.5l-1-9.6l3.1-2.9l-4.1-2.5l-3.1,2.5l-1.4-1.6
		l1.4-8l-2-2.5l-3.7,0.3l-5.8-2.2l-1.4-9.2l1-1l14.3,1l9.9,7.6l4.8,0.3l2.4-1.6l0.7,5.1l2.7,1l0.7,8.3l3.7,4.5l4.1,2.2l2.4-1.9
		l8.2-1l1-2.5l3.4-1.3v-2.5l3.4-4.1l2.7-1.3l7.8,1l7.5-4.1l6.1,3.2l2.4-1.3l8.2,5.4l10.2,1.6l0.4,3.8l2.7,0.6l3.8,5.7l3.4-0.3
		l3.4,1.9h2.7l1.7-4.1l2.7-0.6l15,3.5l1-2.9l-2-1.6l-1.7-5.1h3.1l0.7-3.5l10.2-3.8l5.1,2.5l3.4-1.6l2.4-3.8l1.7,0.3l2-4.1l3.1,1
		l1-2.5l2.7,1.6l5.8,0.3l1-3.2l2.7-1.3l2.7,2.9l4.4-1.6l2.7,1.6l4.1-1.6l2.4,5.4l4.4,4.1l5.4-2.2l7.8,0.3l-0.3,0.6l-1.7,0.6l1,0.6
		l0.3,0.3v0.3v0.3v0.3v0.3l-0.3,0.6h-0.3v0.3v0.3h-0.3l-1,1.3l1.4,0.6v0.3l-0.3,0.3h-0.3l-1,1.3h0.3v0.3h1.4h0.3v0.3l-1.7,1.9l0.3,1
		h0.3l1,0.6v0.3v0.3v0.3h-0.3l-0.3,0.3l0.3,0.3l1,1.3l0.7,0.3l0.3,0.3h0.7l0.7,0.6l-0.3,1l0.7,0.6l0.3,0.6l1.4,0.6l0.7-2.6l1,0.3
		l0.7-0.6h0.3h2.4l0.7,1v1h0.3v0.3l1.4,1.3l1.4-0.6h0.3v-0.3v-0.6l1.4,0.3l1,0.3h0.3v0.6l0.7,0.3h0.3l1.7,0.6v0.3h0.3h0.7h0.3
		l0.7,1.3v-1l0.3,0.3l1,0.3l0.3,0.3v0.3l-0.7,0.6v0.3h-0.3l-0.3-0.3l-0.3,0.6h-0.3l-1.4,1.3v0.3l-1-0.3h-0.3l-0.3,0.3l0.3,0.3h0.3
		v0.3v0.3l-0.3,0.3l-0.7,1.3h1l0.3,0.3h0.3v0.3v0.6v0.3l-1,0.3h-0.3h-0.3l-1.4-1.3l0.4,2.2l0.3,0.6l-0.3,4.1l-3.7,0.3l1.4,2.6v0.3
		l-3.1-2.6H513l0.3,1l-0.3,0.3l-1,1.9l-3.4-1.9l-2.7-0.6l-1-3.5h-2.4l-5.1,5.4l-2,6.1l1.8,13.7h0.3v0.6v0.3v0.3l1.7,0.6v0.3l0.4,1.9
		l2.7-0.3l1,0.3l0.7,0.3l1.4,0.3l-0.7,1.6l1,0.3l1,0.3v0.3h0.3l1.4,2.9l1.4,2.2l0.7,1.6v0.3v0.3l0.3,0.6v0.6v0.3h-0.3v0.3l-1.7,0.3
		l-0.6,6.7l2.4,8.6h1.4v-0.3h0.3l0.7,0.3v0.3v0.3h0.3h0.3v0.3v1l0.3,1v-0.6h0.3l-0.3,0.6v0.3h-0.3v0.3v0.3l-0.3,1v0.3H513v0.3
		l-0.3,0.3h-0.3l-0.3,0.3v0.6h-0.3v0.3l-0.3,0.3h0.3l0.3,0.3l-0.3,1l0.3,0.6v0.3h-0.3l0.3,0.6h-0.3v0.6l-1.4,1l0.3,1h-0.3v0.3h0.3
		v0.3v0.3v0.3l-0.7,0.3v0.3v0.3v0.3h-0.3l-0.7,0.6h-0.7H508l0.3,0.3l-0.3,0.3l-0.3,0.3h-0.3h-0.7v0.3v0.3v0.3v0.3h-0.3l-0.3,0.3v0.3
		l0.3,0.3l-0.3,0.6v0.3v0.3v0.3l-1,1h-0.3h-0.3l-0.3,0.3h-0.3v0.3l-1.4-0.3H502l-0.7,0.6l-0.7,0.6v1.3h-0.3H500l-1.4,1.6l-2.4-1.6
		l-3.1,2.2v0.3v0.3v0.3h-0.3l-0.7,1h-0.3v0.3h-0.3v0.3h-0.3v0.3h-0.3l-2.7,5.8v0.3l-0.3,1h-0.3h-1.4v0.3v0.3l0.3,0.3l-0.7,0.6
		l-0.3,0.3h-1.7l0.3,1v0.3h-0.7l-3.7,0.6v0.3l-0.3,0.3l-2.7,1l-0.3,0.3l-0.7,0.3v0.3v0.3H475l-0.7,1.3l-0.3,0.3l-0.7,1H473l-0.7,1.9
		l-0.7,0.3l-0.7,0.6h-0.3l-0.3,1l-4.1,2.6l-2.4,1h-0.3l-1.4,0.3l-2.4,0.3v0.3H459h-0.7l-2.4,0.6l-0.3,0.3h-0.3l-0.3,0.3l-1.7,0.3
		H453l-0.3,0.3h-0.3l-0.7,1.3H451l-1,1v0.3l-0.7,0.3l-1.7,0.6l-2,3.9l-3.1-5.5l2.4-4.2l-0.7-5.1v-0.3l1-1.6l-12.3-1.3l-2.1-0.6v1.3
		l-3.8-1.6l-2.4,0.6l-1.7,2.6l-14,1.9l-3.1-7.7l-7.2-3.5l0.3-2.2l-2.4,1l-2.1-1l-1-2.9l-12.6-0.6L377.5,317.4z"/>
	<path class="st18" d="M277.5,266.2l3.1,0.6v1.6h-3.1l-4.1-1.9L277.5,266.2z M273.6,448.9l0.3-3.2l-1-4.5l-2.4,2.3l-7.2-3.9l-1-3.5
		l7.9,1.3l1-8.1l1.4-0.3l-3.4,0.6l-0.3,1.6l-3.4-1.9l0.7-3.2l-3.4-1.3l-2.1-5.5l3.1-2.6h-0.3l-1-2.3h-2.7l-2.1-3.2l-4.8-1.9
		l-5.1,2.6l2.4-3.5l-1-4.2l-1-1.6l2.4-1.3l-2.7-0.3l-0.7-1.6l2.7-5.1h-0.3l-1.7-3.2h-3.4l-0.7-1.6l-7.5-3.5l1.7-4.5l6.2-0.3
		l-0.3-3.2l-2.1,0.6l-0.3-1.3l3.4-2.6l-4.8-2.6l-4.4,1.3l2.4-4.8l-7.2-2.9l5.1-4.2l5.5,1.3l3.1-2.2v-1.3h-1.7V359l-3.8-5.1l1.4-1.9
		l-3.1-0.3l-1.4-1.9l0.7-1.9l-2.4-0.3l6.1-5.1l-3.1-2.6l2.1-9.9l1.4-1.3l3.8,0.6h1.4l1.7-0.3v5.8l1.4-0.3v0.3l1-3.5h2.7l0.3,2.6
		l0.3,0.3v0.3l0.3,0.3l1.7,1l1,0.3v2.6l2.4-1l0.3-2.9l2,0.3v-1.6l2-1l2.7,1l1-2.2l-1.7-3.2l3.4-2.6v-3.8l3.1-1.3l-1.4-5.8l-0.7-1.6
		l-2.7-0.6l-2.4,2.2l-2.4-1.3l1.4-2.6l1.4,1l8.2-8h0.3h1.7l-1.7-2.6l1-1l0.3-6.4l3.7-1l-1,1.9l2,1.3l5.1-3.2l-0.3-1.6l0.7-1.6
		l-3.4-3.2v6.1l-1.7-1.9l-3.7,0.3v-2.2l-1,2.2l-1-1.6l1.4-4.2h1.4l0.3,3.5l1-3.2l3.7-1.6l-2.4-4.2l-0.7,1.9l-1.4-1l0.7-2.6l2.7-6.1
		l3.7,0.6l1-1.9l-2.7-2.2l0.3-3.5l-1.4-1l1.4-4.2l3.4-1.9l1.4-0.6l-0.3-2.6v-0.3v-1.6l0.3-1l-3.1-1.3l-1.7,1.3l-3.4-3.2l-0.7-3.5
		l3.1-1.3l0.7-1.9l-3.1-3.2l1.4-1.6l-0.7-2.6l-3.1-1l7.1-1.3l2.7,1l0.7-1.3l6.1-0.3l3.7-1.9h4.1l1.7-1l9.2-3.5l5.8,1.6l0.3,1.3
		l1.4-1.3l4.8,3.5l5.1-2.6l7.8,3.8l-2.4,2.2v0.3l-2.7,3.8v0.3l-1,1l-0.3,2.2v0.3l-1.4,1.9l1.7,2.9l2.7-1.3v0.3l0.7,5.1l1.7,0.3
		l-0.3,2.9l-4.4,0.3l-1.7,2.6l-2.4,0.3l-1.4-1.9l1.4-2.2l-1-1.6l1.4-0.3l-6.5-1.3l0.3,4.2l3.7-0.6l2.1,5.4v1l4.1-0.6l1,1.9l3.4,1.3
		l4.8-1.6l1.4,3.8l4.1,1.9l2.4-3.2l6.5-0.6l0.7,2.2l2.4-1.6l0.7-1.6h0.3l0.3-0.3l1-0.3l2-0.3l2.7,1.3l2.7-1v0.3l1,0.3l2.4,1.6l1,1.9
		v0.3l-1,3.5l3.4-2.2h0.3l3.7-1.3h1.7v0.3l2.7,0.6l0.7,2.2h3.1l-0.7,2.2l2.1,3.8l3.1,2.2l3.4-2.6l1.7-0.3l2.7,0.3l0.7,1.6h0.3V275
		h0.3l1.4,1.9l-2.4,1.3l3.4,4.2l-1.4,1.9l0.7,3.8l-4.8,1.6l3.1,1.9l-2,2.9l-6.1-0.6l-0.7,1.6l2.1,1.9L394,300l3.1,0.3l0.3,0.3
		l2.4,1.6l0.4,2.9l-5.4,4.8l-2,0.3v-0.3l-3.8-0.6l-3.4,4.2l-1.4,0.3l-1-2.2l-4.8-1l-1.7,1.6l0.7,4.8l3.4,9.9l12.6,0.6l1,2.9l2.1,1
		l2.4-1l-0.3,2.2l7.2,3.5l3.1,7.7l14-1.9l1.7-2.6l2.4-0.6l3.8,1.6V339l2.1,0.6l12.3,1.3l-1,1.6v0.3l0.7,5.1l-2.4,4.2l3.1,5.5v0.3
		l-20.8,9h-0.3l-25.9,11.6l-15,11.3l-15.7,6.1l-12.6,20l-1,1.3l1.7-5.5l-2.4,5.5l-3.1,1.3l-0.7,3.2l2-2.6l-1,4.2l-5.5,6.4l-14,4.8
		l-13,0.3l-12.7,5.8l-6.5-0.3l-3.8,2.6L273.6,448.9z M283,311l2,0.6l0.7-1.3l-2.7-1V311z M330.3,265.3l1.7-0.6l-1.4-1.6l-2.7,1.3
		l-0.3,1v0.3l0.7,2.2l1.7-0.3L330.3,265.3z"/>
</g>
<text transform="matrix(1 0 0 1 96.8275 45.5721)" class="st0"><tspan x="0" y="0" class="st1 st12 st13">En càmpings, Tarragona està en primera posició en nombre de viatgers, l’entorn de Barcelona </tspan><tspan x="-14.8" y="10.8" class="st1 st12 st13"> és primer en nombre de pernoctacions, l’ocupació més alta és per la província de Lleida aquest mes.</tspan></text>
<image style="overflow:visible;" width="565" height="79" xlink:href="FF2AA21C.jpg"  transform="matrix(0.2365 0 0 0.2365 222.1025 80.392)">
</image>
</svg>
