<?xml version="1.0" encoding="utf-8"?>
<!-- Generator: Adobe Illustrator 24.0.1, SVG Export Plug-In . SVG Version: 6.00 Build 0)  -->
<svg version="1.1" id="graphic" xmlns="http://www.w3.org/2000/svg" xmlns:xlink="http://www.w3.org/1999/xlink" x="0px" y="0px"
	 viewBox="0 0 562.5 621.7" style="enable-background:new 0 0 562.5 621.7;" xml:space="preserve">
<style type="text/css">
	.st0{enable-background:new    ;}
	.st1{fill:#6685A3;}
	.st2{fill:#003366;}
	.st3{font-family:'OpenSans-Bold';}
	.st4{font-size:11px;}
	.st5{font-size:8px;}
	.st6{fill:#E3F1F3;}
	.st7{fill:#E0F3F4;}
	.st8{fill:#E5F8F8;}
	.st9{fill:#E9F9F9;}
	.st10{fill:#CBF4F4;}
	.st11{font-family:'OpenSans-SemiBold';}
	.st12{font-family:'OpenSans-Light';}
	.st13{font-size:9px;}
	.st14{font-size:14px;}
	.st15{fill:#FFFFFF;stroke:#82B0D9;stroke-width:2;stroke-dasharray:2,2,2,2,2,2;}
	.st16{fill:#267494;stroke:#FFFFFF;stroke-width:0.4329;}
	.st17{fill:#66E0E0;stroke:#FFFFFF;stroke-width:0.4329;}
	.st18{fill:#42A3B5;stroke:#42A3B5;}
	.st19{fill:#003366;stroke:#FFFFFF;stroke-width:0.4329;}
	.st20{fill:#52BDC8;stroke:#FFFFFF;stroke-width:0.4329;}
</style>
<g>
	<g class="st0">
		<path class="st1" d="M15.1,608h3.3v0.7h-2.5v2h2.3v0.6h-2.3v2.7h-0.8C15.1,614,15.1,608,15.1,608z"/>
		<path class="st1" d="M23.4,611.8c0,1.6-1.1,2.3-2.2,2.3c-1.2,0-2.1-0.9-2.1-2.2c0-1.5,1-2.3,2.2-2.3
			C22.6,609.6,23.4,610.5,23.4,611.8z M20,611.9c0,1,0.5,1.7,1.3,1.7s1.3-0.7,1.3-1.7c0-0.7-0.4-1.7-1.3-1.7S20,611,20,611.9z"/>
		<path class="st1" d="M24.4,610.9c0-0.5,0-0.8,0-1.2h0.7v0.7l0,0c0.2-0.4,0.7-0.8,1.4-0.8c0.6,0,1.5,0.4,1.5,1.9v2.6h-0.8v-2.5
			c0-0.7-0.3-1.3-1-1.3c-0.5,0-0.9,0.4-1.1,0.8c0,0.1-0.1,0.2-0.1,0.4v2.6h-0.8v-3.2H24.4z"/>
		<path class="st1" d="M30.4,608.4v1.3h1.1v0.6h-1.1v2.3c0,0.5,0.2,0.8,0.6,0.8c0.2,0,0.4,0,0.5-0.1v0.6c-0.2,0.1-0.4,0.1-0.7,0.1
			c-0.4,0-0.7-0.1-0.9-0.3s-0.3-0.6-0.3-1.1v-2.4h-0.7v-0.6h0.7v-1L30.4,608.4z"/>
		<path class="st1" d="M32.7,613.3c0.1-0.1,0.2-0.1,0.3-0.1s0.2,0,0.3,0.1s0.1,0.2,0.1,0.3s0,0.3-0.1,0.4c-0.1,0.1-0.2,0.1-0.3,0.1
			s-0.2,0-0.3-0.1s-0.1-0.2-0.1-0.3C32.5,613.5,32.6,613.4,32.7,613.3z M33,609.9c0.1,0,0.2,0,0.3,0.1s0.1,0.2,0.1,0.3
			s0,0.2-0.1,0.3s-0.2,0.1-0.3,0.1s-0.2,0-0.3-0.1s-0.1-0.2-0.1-0.3s0-0.2,0.1-0.3S32.9,609.9,33,609.9z"/>
		<path class="st1" d="M42.6,611.2h-2.4v2.2h2.6v0.7h-3.4V608h3.3v0.7h-2.5v1.9h2.4C42.6,610.6,42.6,611.2,42.6,611.2z"/>
		<path class="st1" d="M43.8,607.6h0.8v6.4h-0.8V607.6z"/>
		<path class="st1" d="M48.4,614l-0.1-0.5l0,0c-0.2,0.3-0.7,0.6-1.3,0.6c-0.9,0-1.3-0.6-1.3-1.3c0-1.1,0.9-1.6,2.6-1.6l0,0
			c0-0.4-0.1-1-1-1c-0.4,0-0.8,0.1-1.1,0.3L46,610c0.4-0.2,0.9-0.4,1.4-0.4c1.3,0,1.7,0.9,1.7,1.8v1.6c0,0.4,0,0.7,0.1,1L48.4,614
			L48.4,614z M48.3,611.8c-0.9,0-1.8,0.1-1.8,1c0,0.5,0.3,0.8,0.7,0.8c0.6,0,0.9-0.4,1.1-0.7c0-0.1,0-0.2,0-0.3V611.8z"/>
		<path class="st1" d="M50.3,614c0-0.3,0-0.7,0-1.1v-5.3h0.8v2.7l0,0c0.3-0.5,0.8-0.8,1.5-0.8c1.1,0,1.8,0.9,1.8,2.2
			c0,1.6-1,2.3-2,2.3c-0.6,0-1.1-0.2-1.5-0.8l0,0v0.7L50.3,614L50.3,614z M51.1,612.3c0,0.1,0,0.2,0,0.3c0.2,0.5,0.6,0.9,1.2,0.9
			c0.8,0,1.3-0.7,1.3-1.7c0-0.9-0.5-1.6-1.3-1.6c-0.5,0-1,0.4-1.2,1c0,0.1,0,0.2,0,0.3V612.3z"/>
		<path class="st1" d="M59.4,611.8c0,1.6-1.1,2.3-2.2,2.3c-1.2,0-2.1-0.9-2.1-2.2c0-1.5,1-2.3,2.2-2.3
			C58.5,609.6,59.4,610.5,59.4,611.8z M55.9,611.9c0,1,0.5,1.7,1.3,1.7s1.3-0.7,1.3-1.7c0-0.7-0.4-1.7-1.3-1.7S55.9,611,55.9,611.9z
			"/>
		<path class="st1" d="M60.4,611c0-0.5,0-1,0-1.4h0.7v0.9l0,0c0.2-0.6,0.7-1,1.2-1c0.1,0,0.2,0,0.2,0v0.7c-0.1,0-0.2,0-0.3,0
			c-0.6,0-1,0.4-1.1,1c0,0.1,0,0.2,0,0.4v2.3h-0.8L60.4,611L60.4,611z"/>
		<path class="st1" d="M65.7,614l-0.1-0.5l0,0c-0.2,0.3-0.7,0.6-1.3,0.6c-0.9,0-1.3-0.6-1.3-1.3c0-1.1,0.9-1.6,2.6-1.6l0,0
			c0-0.4-0.1-1-1-1c-0.4,0-0.8,0.1-1.1,0.3l-0.2-0.5c0.4-0.2,0.9-0.4,1.4-0.4c1.3,0,1.7,0.9,1.7,1.8v1.6c0,0.4,0,0.7,0.1,1L65.7,614
			L65.7,614z M65.6,611.8c-0.9,0-1.8,0.1-1.8,1c0,0.5,0.3,0.8,0.7,0.8c0.6,0,0.9-0.4,1.1-0.7c0-0.1,0-0.2,0-0.3V611.8z"/>
		<path class="st1" d="M70.8,613.9c-0.2,0.1-0.7,0.3-1.3,0.3c-1.3,0-2.2-0.9-2.2-2.2s0.9-2.3,2.3-2.3c0.5,0,0.9,0.1,1.1,0.2
			l-0.2,0.6c-0.2-0.1-0.5-0.2-0.9-0.2c-1,0-1.5,0.7-1.5,1.6c0,1,0.6,1.6,1.5,1.6c0.5,0,0.7-0.1,1-0.2L70.8,613.9z"/>
		<path class="st1" d="M72.6,608.4c0,0.3-0.2,0.5-0.5,0.5s-0.5-0.2-0.5-0.5s0.2-0.5,0.5-0.5C72.4,608,72.6,608.2,72.6,608.4z
			 M71.7,614v-4.4h0.8v4.4H71.7z"/>
		<path class="st1" d="M77.7,611.8c0,1.6-1.1,2.3-2.2,2.3c-1.2,0-2.1-0.9-2.1-2.2c0-1.5,1-2.3,2.2-2.3
			C76.9,609.6,77.7,610.5,77.7,611.8z M74.3,611.9c0,1,0.5,1.7,1.3,1.7s1.3-0.7,1.3-1.7c0-0.7-0.4-1.7-1.3-1.7S74.3,611,74.3,611.9z
			 M76.8,607.8l-1.1,1.3h-0.6l0.8-1.3H76.8z"/>
		<path class="st1" d="M83.2,611.1c0-0.6,0-1,0-1.4h0.7v0.7l0,0c0.3-0.5,0.8-0.8,1.5-0.8c1.1,0,1.8,0.9,1.8,2.2c0,1.6-1,2.3-2,2.3
			c-0.6,0-1.1-0.3-1.3-0.7l0,0v2.4h-0.8v-4.7H83.2z M84,612.3c0,0.1,0,0.2,0,0.3c0.1,0.5,0.6,0.9,1.2,0.9c0.8,0,1.3-0.7,1.3-1.7
			c0-0.9-0.5-1.6-1.3-1.6c-0.5,0-1,0.4-1.2,1c0,0.1-0.1,0.2-0.1,0.3L84,612.3L84,612.3z"/>
		<path class="st1" d="M88.3,611c0-0.5,0-1,0-1.4H89v0.9l0,0c0.2-0.6,0.7-1,1.2-1c0.1,0,0.2,0,0.2,0v0.7c-0.1,0-0.2,0-0.3,0
			c-0.6,0-1,0.4-1.1,1c0,0.1,0,0.2,0,0.4v2.3h-0.8V611H88.3z"/>
		<path class="st1" d="M95.2,611.8c0,1.6-1.1,2.3-2.2,2.3c-1.2,0-2.1-0.9-2.1-2.2c0-1.5,1-2.3,2.2-2.3
			C94.4,609.6,95.2,610.5,95.2,611.8z M91.8,611.9c0,1,0.5,1.7,1.3,1.7s1.3-0.7,1.3-1.7c0-0.7-0.4-1.7-1.3-1.7S91.8,611,91.8,611.9z
			 M92.8,607.8l0.8,1.3H93l-1.1-1.3H92.8z"/>
		<path class="st1" d="M96.2,611.1c0-0.6,0-1,0-1.4h0.7v0.7l0,0c0.3-0.5,0.8-0.8,1.5-0.8c1.1,0,1.8,0.9,1.8,2.2c0,1.6-1,2.3-2,2.3
			c-0.6,0-1.1-0.3-1.3-0.7l0,0v2.4h-0.8v-4.7H96.2z M97,612.3c0,0.1,0,0.2,0,0.3c0.1,0.5,0.6,0.9,1.2,0.9c0.8,0,1.3-0.7,1.3-1.7
			c0-0.9-0.5-1.6-1.3-1.6c-0.5,0-1,0.4-1.2,1c0,0.1-0.1,0.2-0.1,0.3L97,612.3L97,612.3z"/>
		<path class="st1" d="M102.2,608.4c0,0.3-0.2,0.5-0.5,0.5s-0.5-0.2-0.5-0.5s0.2-0.5,0.5-0.5C102,608,102.2,608.2,102.2,608.4z
			 M101.4,614v-4.4h0.8v4.4H101.4z"/>
		<path class="st1" d="M105.9,614l-0.1-0.5l0,0c-0.2,0.3-0.7,0.6-1.3,0.6c-0.9,0-1.3-0.6-1.3-1.3c0-1.1,0.9-1.6,2.6-1.6l0,0
			c0-0.4-0.1-1-1-1c-0.4,0-0.8,0.1-1.1,0.3l-0.2-0.5c0.4-0.2,0.9-0.4,1.4-0.4c1.3,0,1.7,0.9,1.7,1.8v1.6c0,0.4,0,0.7,0.1,1
			L105.9,614L105.9,614z M105.8,611.8c-0.9,0-1.8,0.1-1.8,1c0,0.5,0.3,0.8,0.7,0.8c0.6,0,0.9-0.4,1.1-0.7c0-0.1,0-0.2,0-0.3
			C105.8,612.6,105.8,611.8,105.8,611.8z"/>
		<path class="st1" d="M116.1,607.6v5.3c0,0.4,0,0.8,0,1.1h-0.7v-0.8l0,0c-0.2,0.5-0.8,0.9-1.5,0.9c-1.1,0-1.9-0.9-1.9-2.2
			c0-1.5,0.9-2.3,2-2.3c0.7,0,1.1,0.3,1.3,0.7l0,0v-2.6L116.1,607.6C116.1,607.7,116.1,607.6,116.1,607.6z M115.3,611.4
			c0-0.1,0-0.2,0-0.3c-0.1-0.5-0.5-0.9-1.1-0.9c-0.8,0-1.3,0.7-1.3,1.7c0,0.9,0.4,1.6,1.3,1.6c0.5,0,1-0.4,1.2-0.9
			c0-0.1,0-0.2,0-0.3L115.3,611.4L115.3,611.4z"/>
		<path class="st1" d="M117.8,612c0,1.1,0.7,1.5,1.5,1.5c0.6,0,0.9-0.1,1.2-0.2l0.1,0.6c-0.3,0.1-0.8,0.3-1.4,0.3
			c-1.3,0-2.1-0.9-2.1-2.2s0.8-2.3,2-2.3c1.4,0,1.8,1.3,1.8,2.1c0,0.2,0,0.3,0,0.4h-3.1V612z M120.1,611.4c0-0.5-0.2-1.3-1.1-1.3
			c-0.8,0-1.2,0.7-1.2,1.3H120.1z"/>
		<path class="st1" d="M121.9,607.6h0.8v6.4h-0.8V607.6z"/>
		<path class="st1" d="M128.5,608h0.8v5.4h2.6v0.7h-3.4L128.5,608L128.5,608z"/>
		<path class="st1" d="M133.8,612.1l-0.6,1.9h-0.8l2.1-6.1h0.9l2.1,6.1h-0.8l-0.6-1.9H133.8z M135.8,611.5l-0.6-1.7
			c-0.1-0.4-0.2-0.8-0.3-1.1l0,0c-0.1,0.4-0.2,0.7-0.3,1.1l-0.6,1.8L135.8,611.5L135.8,611.5z"/>
		<path class="st1" d="M138.3,608c0.3-0.1,0.9-0.1,1.4-0.1c0.8,0,1.3,0.1,1.7,0.4c0.3,0.2,0.5,0.6,0.5,1.1c0,0.6-0.4,1.1-1,1.3l0,0
			c0.6,0.1,1.3,0.6,1.3,1.5c0,0.5-0.2,0.9-0.5,1.2c-0.4,0.4-1.1,0.6-2.1,0.6c-0.5,0-1,0-1.2-0.1L138.3,608L138.3,608z M139.1,610.5
			h0.7c0.8,0,1.3-0.4,1.3-1c0-0.7-0.5-1-1.3-1c-0.4,0-0.6,0-0.7,0.1V610.5z M139.1,613.4c0.2,0,0.4,0,0.7,0c0.8,0,1.6-0.3,1.6-1.2
			c0-0.8-0.7-1.2-1.6-1.2h-0.6L139.1,613.4L139.1,613.4z"/>
		<path class="st1" d="M144.1,608.4v1.3h1.1v0.6h-1.1v2.3c0,0.5,0.2,0.8,0.6,0.8c0.2,0,0.4,0,0.5-0.1v0.6c-0.2,0.1-0.4,0.1-0.7,0.1
			c-0.4,0-0.7-0.1-0.9-0.3s-0.3-0.6-0.3-1.1v-2.4h-0.7v-0.6h0.7v-1L144.1,608.4z"/>
		<path class="st1" d="M149.8,612.8c0,0.5,0,0.8,0,1.2h-0.7v-0.7l0,0c-0.2,0.4-0.7,0.8-1.4,0.8s-1.5-0.4-1.5-1.9v-2.5h0.8v2.4
			c0,0.8,0.3,1.4,1,1.4c0.5,0,0.9-0.4,1-0.7c0-0.1,0.1-0.3,0.1-0.4v-2.7h0.8v3.1L149.8,612.8L149.8,612.8z"/>
		<path class="st1" d="M151.1,611c0-0.5,0-1,0-1.4h0.7v0.9l0,0c0.2-0.6,0.7-1,1.2-1c0.1,0,0.2,0,0.2,0v0.7c-0.1,0-0.2,0-0.3,0
			c-0.6,0-1,0.4-1.1,1c0,0.1,0,0.2,0,0.4v2.3H151V611H151.1z"/>
		<path class="st1" d="M154.9,608.4c0,0.3-0.2,0.5-0.5,0.5s-0.5-0.2-0.5-0.5s0.2-0.5,0.5-0.5C154.7,608,154.9,608.2,154.9,608.4z
			 M154,614v-4.4h0.8v4.4H154z"/>
		<path class="st1" d="M156,613.2c0.2,0.2,0.6,0.3,1,0.3c0.6,0,0.8-0.3,0.8-0.6c0-0.4-0.2-0.6-0.8-0.8c-0.8-0.3-1.2-0.7-1.2-1.2
			c0-0.7,0.6-1.3,1.5-1.3c0.4,0,0.8,0.1,1.1,0.3l-0.2,0.6c-0.2-0.1-0.5-0.3-0.9-0.3c-0.5,0-0.7,0.3-0.7,0.6c0,0.4,0.3,0.5,0.8,0.7
			c0.8,0.3,1.1,0.7,1.1,1.3c0,0.8-0.6,1.3-1.6,1.3c-0.5,0-0.9-0.1-1.2-0.3L156,613.2z"/>
		<path class="st1" d="M159.7,610.9c0-0.5,0-0.8,0-1.2h0.7v0.7l0,0c0.2-0.4,0.6-0.8,1.4-0.8c0.6,0,1,0.4,1.2,0.9l0,0
			c0.1-0.2,0.3-0.4,0.5-0.6c0.3-0.2,0.5-0.3,1-0.3c0.6,0,1.4,0.4,1.4,1.9v2.6h-0.8v-2.5c0-0.8-0.3-1.3-0.9-1.3
			c-0.5,0-0.8,0.3-0.9,0.7c0,0.1-0.1,0.3-0.1,0.4v2.7h-0.8v-2.6c0-0.7-0.3-1.2-0.9-1.2c-0.5,0-0.9,0.4-1,0.8c0,0.1-0.1,0.3-0.1,0.4
			v2.6h-0.7L159.7,610.9L159.7,610.9z"/>
		<path class="st1" d="M167.6,612c0,1.1,0.7,1.5,1.5,1.5c0.6,0,0.9-0.1,1.2-0.2l0.1,0.6c-0.3,0.1-0.8,0.3-1.4,0.3
			c-1.3,0-2.1-0.9-2.1-2.2s0.8-2.3,2-2.3c1.4,0,1.8,1.3,1.8,2.1c0,0.2,0,0.3,0,0.4h-3.1V612z M170,611.4c0-0.5-0.2-1.3-1.1-1.3
			c-0.8,0-1.2,0.7-1.2,1.3H170z"/>
		<path class="st1" d="M176.6,612c0,1.1,0.7,1.5,1.5,1.5c0.6,0,0.9-0.1,1.2-0.2l0.1,0.6c-0.3,0.1-0.8,0.3-1.4,0.3
			c-1.3,0-2.1-0.9-2.1-2.2s0.8-2.3,2-2.3c1.4,0,1.8,1.3,1.8,2.1c0,0.2,0,0.3,0,0.4h-3.1V612z M179,611.4c0-0.5-0.2-1.3-1.1-1.3
			c-0.8,0-1.2,0.7-1.2,1.3H179z"/>
		<path class="st1" d="M180.7,610.9c0-0.5,0-0.8,0-1.2h0.7v0.7l0,0c0.2-0.4,0.7-0.8,1.4-0.8c0.6,0,1.5,0.4,1.5,1.9v2.6h-0.8v-2.5
			c0-0.7-0.3-1.3-1-1.3c-0.5,0-0.9,0.4-1.1,0.8c0,0.1-0.1,0.2-0.1,0.4v2.6h-0.6L180.7,610.9L180.7,610.9z"/>
		<path class="st1" d="M190.2,614c0-0.3,0-0.7,0-1.1v-5.3h0.8v2.7l0,0c0.3-0.5,0.8-0.8,1.5-0.8c1.1,0,1.8,0.9,1.8,2.2
			c0,1.6-1,2.3-2,2.3c-0.6,0-1.1-0.2-1.5-0.8l0,0v0.7L190.2,614L190.2,614z M191,612.3c0,0.1,0,0.2,0,0.3c0.2,0.5,0.6,0.9,1.2,0.9
			c0.8,0,1.3-0.7,1.3-1.7c0-0.9-0.5-1.6-1.3-1.6c-0.5,0-1,0.4-1.2,1c0,0.1,0,0.2,0,0.3V612.3z"/>
		<path class="st1" d="M197.7,614l-0.1-0.5l0,0c-0.2,0.3-0.7,0.6-1.3,0.6c-0.9,0-1.3-0.6-1.3-1.3c0-1.1,0.9-1.6,2.6-1.6l0,0
			c0-0.4-0.1-1-1-1c-0.4,0-0.8,0.1-1.1,0.3l-0.2-0.5c0.4-0.2,0.9-0.4,1.4-0.4c1.3,0,1.7,0.9,1.7,1.8v1.6c0,0.4,0,0.7,0.1,1
			L197.7,614L197.7,614z M197.6,611.8c-0.9,0-1.8,0.1-1.8,1c0,0.5,0.3,0.8,0.7,0.8c0.6,0,0.9-0.4,1.1-0.7c0-0.1,0-0.2,0-0.3V611.8z"
			/>
		<path class="st1" d="M199.6,613.2c0.2,0.2,0.6,0.3,1,0.3c0.6,0,0.8-0.3,0.8-0.6c0-0.4-0.2-0.6-0.8-0.8c-0.8-0.3-1.2-0.7-1.2-1.2
			c0-0.7,0.6-1.3,1.5-1.3c0.4,0,0.8,0.1,1.1,0.3l-0.2,0.6c-0.2-0.1-0.5-0.3-0.9-0.3c-0.5,0-0.7,0.3-0.7,0.6c0,0.4,0.3,0.5,0.8,0.7
			c0.8,0.3,1.1,0.7,1.1,1.3c0,0.8-0.6,1.3-1.6,1.3c-0.5,0-0.9-0.1-1.2-0.3L199.6,613.2z"/>
		<path class="st1" d="M203.7,612c0,1.1,0.7,1.5,1.5,1.5c0.6,0,0.9-0.1,1.2-0.2l0.1,0.6c-0.3,0.1-0.8,0.3-1.4,0.3
			c-1.3,0-2.1-0.9-2.1-2.2s0.8-2.3,2-2.3c1.4,0,1.8,1.3,1.8,2.1c0,0.2,0,0.3,0,0.4h-3.1V612z M206,611.4c0-0.5-0.2-1.3-1.1-1.3
			c-0.8,0-1.2,0.7-1.2,1.3H206z"/>
		<path class="st1" d="M214.7,614l-0.1-0.5l0,0c-0.2,0.3-0.7,0.6-1.3,0.6c-0.9,0-1.3-0.6-1.3-1.3c0-1.1,0.9-1.6,2.6-1.6l0,0
			c0-0.4-0.1-1-1-1c-0.4,0-0.8,0.1-1.1,0.3l-0.2-0.5c0.4-0.2,0.9-0.4,1.4-0.4c1.3,0,1.7,0.9,1.7,1.8v1.6c0,0.4,0,0.7,0.1,1
			L214.7,614L214.7,614z M214.5,611.8c-0.9,0-1.8,0.1-1.8,1c0,0.5,0.3,0.8,0.7,0.8c0.6,0,0.9-0.4,1.1-0.7c0-0.1,0-0.2,0-0.3V611.8z"
			/>
		<path class="st1" d="M224.8,607.6v5.3c0,0.4,0,0.8,0,1.1h-0.7v-0.8l0,0c-0.2,0.5-0.8,0.9-1.5,0.9c-1.1,0-1.9-0.9-1.9-2.2
			c0-1.5,0.9-2.3,2-2.3c0.7,0,1.1,0.3,1.3,0.7l0,0v-2.6L224.8,607.6L224.8,607.6L224.8,607.6z M224,611.4c0-0.1,0-0.2,0-0.3
			c-0.1-0.5-0.5-0.9-1.1-0.9c-0.8,0-1.3,0.7-1.3,1.7c0,0.9,0.4,1.6,1.3,1.6c0.5,0,1-0.4,1.2-0.9c0-0.1,0-0.2,0-0.3L224,611.4
			L224,611.4z"/>
		<path class="st1" d="M228.6,614l-0.1-0.5l0,0c-0.2,0.3-0.7,0.6-1.3,0.6c-0.9,0-1.3-0.6-1.3-1.3c0-1.1,0.9-1.6,2.6-1.6l0,0
			c0-0.4-0.1-1-1-1c-0.4,0-0.8,0.1-1.1,0.3l-0.2-0.5c0.4-0.2,0.9-0.4,1.4-0.4c1.3,0,1.7,0.9,1.7,1.8v1.6c0,0.4,0,0.7,0.1,1
			L228.6,614L228.6,614z M228.5,611.8c-0.9,0-1.8,0.1-1.8,1c0,0.5,0.3,0.8,0.7,0.8c0.6,0,0.9-0.4,1.1-0.7c0-0.1,0-0.2,0-0.3V611.8z"
			/>
		<path class="st1" d="M234.3,607.6v5.3c0,0.4,0,0.8,0,1.1h-0.7v-0.8l0,0c-0.2,0.5-0.8,0.9-1.5,0.9c-1.1,0-1.9-0.9-1.9-2.2
			c0-1.5,0.9-2.3,2-2.3c0.7,0,1.1,0.3,1.3,0.7l0,0v-2.6L234.3,607.6L234.3,607.6L234.3,607.6z M233.5,611.4c0-0.1,0-0.2,0-0.3
			c-0.1-0.5-0.5-0.9-1.1-0.9c-0.8,0-1.3,0.7-1.3,1.7c0,0.9,0.4,1.6,1.3,1.6c0.5,0,1-0.4,1.2-0.9c0-0.1,0-0.2,0-0.3L233.5,611.4
			L233.5,611.4z"/>
		<path class="st1" d="M236,612c0,1.1,0.7,1.5,1.5,1.5c0.6,0,0.9-0.1,1.2-0.2l0.1,0.6c-0.3,0.1-0.8,0.3-1.4,0.3
			c-1.3,0-2.1-0.9-2.1-2.2s0.8-2.3,2-2.3c1.4,0,1.8,1.3,1.8,2.1c0,0.2,0,0.3,0,0.4H236V612z M238.3,611.4c0-0.5-0.2-1.3-1.1-1.3
			c-0.8,0-1.2,0.7-1.2,1.3H238.3z"/>
		<path class="st1" d="M240,613.2c0.2,0.2,0.6,0.3,1,0.3c0.6,0,0.8-0.3,0.8-0.6c0-0.4-0.2-0.6-0.8-0.8c-0.8-0.3-1.2-0.7-1.2-1.2
			c0-0.7,0.6-1.3,1.5-1.3c0.4,0,0.8,0.1,1.1,0.3l-0.2,0.6c-0.2-0.1-0.5-0.3-0.9-0.3c-0.5,0-0.7,0.3-0.7,0.6c0,0.4,0.3,0.5,0.8,0.7
			c0.8,0.3,1.1,0.7,1.1,1.3c0,0.8-0.6,1.3-1.6,1.3c-0.5,0-0.9-0.1-1.2-0.3L240,613.2z"/>
		<path class="st1" d="M251.9,607.6v5.3c0,0.4,0,0.8,0,1.1h-0.7v-0.8l0,0c-0.2,0.5-0.8,0.9-1.5,0.9c-1.1,0-1.9-0.9-1.9-2.2
			c0-1.5,0.9-2.3,2-2.3c0.7,0,1.1,0.3,1.3,0.7l0,0v-2.6L251.9,607.6L251.9,607.6L251.9,607.6z M251.1,611.4c0-0.1,0-0.2,0-0.3
			c-0.1-0.5-0.5-0.9-1.1-0.9c-0.8,0-1.3,0.7-1.3,1.7c0,0.9,0.4,1.6,1.3,1.6c0.5,0,1-0.4,1.2-0.9c0-0.1,0-0.2,0-0.3L251.1,611.4
			L251.1,611.4z"/>
		<path class="st1" d="M253.7,612c0,1.1,0.7,1.5,1.5,1.5c0.6,0,0.9-0.1,1.2-0.2l0.1,0.6c-0.3,0.1-0.8,0.3-1.4,0.3
			c-1.3,0-2.1-0.9-2.1-2.2s0.8-2.3,2-2.3c1.4,0,1.8,1.3,1.8,2.1c0,0.2,0,0.3,0,0.4h-3.1L253.7,612L253.7,612z M256,611.4
			c0-0.5-0.2-1.3-1.1-1.3c-0.8,0-1.2,0.7-1.2,1.3H256z"/>
		<path class="st1" d="M262.2,607.6h0.8v6.4h-0.8V607.6z"/>
		<path class="st1" d="M264.9,607.9l-0.2,2.2h-0.5l-0.1-2.2H264.9z"/>
		<path class="st1" d="M269.2,611.2h-2.4v2.2h2.6v0.7H266V608h3.3v0.7h-2.5v1.9h2.4L269.2,611.2L269.2,611.2z"/>
		<path class="st1" d="M270.5,610.9c0-0.5,0-0.8,0-1.2h0.7v0.7l0,0c0.2-0.4,0.7-0.8,1.4-0.8c0.6,0,1.5,0.4,1.5,1.9v2.6h-0.8v-2.5
			c0-0.7-0.3-1.3-1-1.3c-0.5,0-0.9,0.4-1.1,0.8c0,0.1-0.1,0.2-0.1,0.4v2.6h-0.8v-3.2H270.5z"/>
		<path class="st1" d="M278.4,613.4L278.4,613.4c-0.3,0.4-0.7,0.8-1.4,0.8c-1,0-1.8-0.9-1.8-2.2c0-1.6,1.1-2.3,2-2.3
			c0.7,0,1.1,0.3,1.3,0.8l0,0v-0.7h0.7c0,0.4,0,0.7,0,1.2v4.9h-0.8L278.4,613.4L278.4,613.4z M278.4,611.4c0-0.1,0-0.2,0-0.3
			c-0.1-0.5-0.5-0.9-1.1-0.9c-0.8,0-1.3,0.7-1.3,1.7c0,0.9,0.4,1.6,1.3,1.6c0.5,0,1-0.3,1.1-0.9c0-0.1,0.1-0.3,0.1-0.4v-0.8
			L278.4,611.4L278.4,611.4z"/>
		<path class="st1" d="M284.2,612.8c0,0.5,0,0.8,0,1.2h-0.7v-0.7l0,0c-0.2,0.4-0.7,0.8-1.4,0.8c-0.7,0-1.5-0.4-1.5-1.9v-2.5h0.8v2.4
			c0,0.8,0.3,1.4,1,1.4c0.5,0,0.9-0.4,1-0.7c0-0.1,0.1-0.3,0.1-0.4v-2.7h0.8L284.2,612.8L284.2,612.8z"/>
		<path class="st1" d="M285.9,612c0,1.1,0.7,1.5,1.5,1.5c0.6,0,0.9-0.1,1.2-0.2l0.1,0.6c-0.3,0.1-0.8,0.3-1.4,0.3
			c-1.3,0-2.1-0.9-2.1-2.2s0.8-2.3,2-2.3c1.4,0,1.8,1.3,1.8,2.1c0,0.2,0,0.3,0,0.4h-3.1V612z M288.3,611.4c0-0.5-0.2-1.3-1.1-1.3
			c-0.8,0-1.2,0.7-1.2,1.3H288.3z"/>
		<path class="st1" d="M289.9,613.2c0.2,0.2,0.6,0.3,1,0.3c0.6,0,0.8-0.3,0.8-0.6c0-0.4-0.2-0.6-0.8-0.8c-0.8-0.3-1.2-0.7-1.2-1.2
			c0-0.7,0.6-1.3,1.5-1.3c0.4,0,0.8,0.1,1.1,0.3l-0.2,0.6c-0.2-0.1-0.5-0.3-0.9-0.3c-0.5,0-0.7,0.3-0.7,0.6c0,0.4,0.3,0.5,0.8,0.7
			c0.8,0.3,1.1,0.7,1.1,1.3c0,0.8-0.6,1.3-1.6,1.3c-0.5,0-0.9-0.1-1.2-0.3L289.9,613.2z"/>
		<path class="st1" d="M294.5,608.4v1.3h1.1v0.6h-1.1v2.3c0,0.5,0.2,0.8,0.6,0.8c0.2,0,0.4,0,0.5-0.1v0.6c-0.2,0.1-0.4,0.1-0.7,0.1
			c-0.4,0-0.7-0.1-0.9-0.3c-0.2-0.2-0.3-0.6-0.3-1.1v-2.4H293v-0.6h0.7v-1L294.5,608.4z"/>
		<path class="st1" d="M299,614l-0.1-0.5l0,0c-0.2,0.3-0.7,0.6-1.3,0.6c-0.9,0-1.3-0.6-1.3-1.3c0-1.1,0.9-1.6,2.6-1.6l0,0
			c0-0.4-0.1-1-1-1c-0.4,0-0.8,0.1-1.1,0.3l-0.2-0.5c0.4-0.2,0.9-0.4,1.4-0.4c1.3,0,1.7,0.9,1.7,1.8v1.6c0,0.4,0,0.7,0.1,1L299,614
			L299,614z M298.8,611.8c-0.9,0-1.8,0.1-1.8,1c0,0.5,0.3,0.8,0.7,0.8c0.6,0,0.9-0.4,1.1-0.7c0-0.1,0-0.2,0-0.3L298.8,611.8
			L298.8,611.8z"/>
		<path class="st1" d="M309.1,607.6v5.3c0,0.4,0,0.8,0,1.1h-0.7v-0.8l0,0c-0.2,0.5-0.8,0.9-1.5,0.9c-1.1,0-1.9-0.9-1.9-2.2
			c0-1.5,0.9-2.3,2-2.3c0.7,0,1.1,0.3,1.3,0.7l0,0v-2.6L309.1,607.6L309.1,607.6L309.1,607.6z M308.4,611.4c0-0.1,0-0.2,0-0.3
			c-0.1-0.5-0.5-0.9-1.1-0.9c-0.8,0-1.3,0.7-1.3,1.7c0,0.9,0.4,1.6,1.3,1.6c0.5,0,1-0.4,1.2-0.9c0-0.1,0-0.2,0-0.3v-0.9L308.4,611.4
			L308.4,611.4z"/>
		<path class="st1" d="M311,607.9l-0.2,2.2h-0.5l-0.1-2.2H311z"/>
		<path class="st1" d="M316.1,611.8c0,1.6-1.1,2.3-2.2,2.3c-1.2,0-2.1-0.9-2.1-2.2c0-1.5,1-2.3,2.2-2.3S316.1,610.5,316.1,611.8z
			 M312.6,611.9c0,1,0.5,1.7,1.3,1.7s1.3-0.7,1.3-1.7c0-0.7-0.4-1.7-1.3-1.7S312.6,611,312.6,611.9z"/>
		<path class="st1" d="M320.2,613.9c-0.2,0.1-0.7,0.3-1.3,0.3c-1.3,0-2.2-0.9-2.2-2.2s0.9-2.3,2.3-2.3c0.5,0,0.9,0.1,1.1,0.2
			l-0.2,0.6c-0.2-0.1-0.5-0.2-0.9-0.2c-1,0-1.5,0.7-1.5,1.6c0,1,0.6,1.6,1.5,1.6c0.5,0,0.7-0.1,1-0.2L320.2,613.9z"/>
		<path class="st1" d="M324.8,612.8c0,0.5,0,0.8,0,1.2h-0.7v-0.7l0,0c-0.2,0.4-0.7,0.8-1.4,0.8c-0.7,0-1.5-0.4-1.5-1.9v-2.5h0.8v2.4
			c0,0.8,0.3,1.4,1,1.4c0.5,0,0.9-0.4,1-0.7c0-0.1,0.1-0.3,0.1-0.4v-2.7h0.8L324.8,612.8L324.8,612.8z"/>
		<path class="st1" d="M326.1,611.1c0-0.6,0-1,0-1.4h0.7v0.7l0,0c0.3-0.5,0.8-0.8,1.5-0.8c1.1,0,1.8,0.9,1.8,2.2c0,1.6-1,2.3-2,2.3
			c-0.6,0-1.1-0.3-1.3-0.7l0,0v2.4H326L326.1,611.1L326.1,611.1z M326.9,612.3c0,0.1,0,0.2,0,0.3c0.1,0.5,0.6,0.9,1.2,0.9
			c0.8,0,1.3-0.7,1.3-1.7c0-0.9-0.5-1.6-1.3-1.6c-0.5,0-1,0.4-1.2,1c0,0.1-0.1,0.2-0.1,0.3v0.8H326.9z"/>
		<path class="st1" d="M333.6,614l-0.1-0.5l0,0c-0.2,0.3-0.7,0.6-1.3,0.6c-0.9,0-1.3-0.6-1.3-1.3c0-1.1,0.9-1.6,2.6-1.6l0,0
			c0-0.4-0.1-1-1-1c-0.4,0-0.8,0.1-1.1,0.3l-0.2-0.5c0.4-0.2,0.9-0.4,1.4-0.4c1.3,0,1.7,0.9,1.7,1.8v1.6c0,0.4,0,0.7,0.1,1
			L333.6,614L333.6,614z M333.5,611.8c-0.9,0-1.8,0.1-1.8,1c0,0.5,0.3,0.8,0.7,0.8c0.6,0,0.9-0.4,1.1-0.7c0-0.1,0-0.2,0-0.3
			L333.5,611.8L333.5,611.8z"/>
		<path class="st1" d="M338.6,613.9c-0.2,0.1-0.7,0.3-1.3,0.3c-1.3,0-2.2-0.9-2.2-2.2s0.9-2.3,2.3-2.3c0.5,0,0.9,0.1,1.1,0.2
			l-0.2,0.6c-0.2-0.1-0.5-0.2-0.9-0.2c-1,0-1.5,0.7-1.5,1.6c0,1,0.6,1.6,1.5,1.6c0.5,0,0.7-0.1,1-0.2L338.6,613.9z"/>
		<path class="st1" d="M340.5,608.4c0,0.3-0.2,0.5-0.5,0.5s-0.5-0.2-0.5-0.5s0.2-0.5,0.5-0.5C340.3,608,340.5,608.2,340.5,608.4z
			 M339.6,614v-4.4h0.8v4.4H339.6z"/>
		<path class="st1" d="M345.6,611.8c0,1.6-1.1,2.3-2.2,2.3c-1.2,0-2.1-0.9-2.1-2.2c0-1.5,1-2.3,2.2-2.3
			C344.8,609.6,345.6,610.5,345.6,611.8z M342.2,611.9c0,1,0.5,1.7,1.3,1.7s1.3-0.7,1.3-1.7c0-0.7-0.4-1.7-1.3-1.7
			S342.2,611,342.2,611.9z M344.7,607.8l-1.1,1.3H343l0.8-1.3H344.7z"/>
		<path class="st1" d="M351.6,612c0,1.1,0.7,1.5,1.5,1.5c0.6,0,0.9-0.1,1.2-0.2l0.1,0.6c-0.3,0.1-0.8,0.3-1.4,0.3
			c-1.3,0-2.1-0.9-2.1-2.2s0.8-2.3,2-2.3c1.4,0,1.8,1.3,1.8,2.1c0,0.2,0,0.3,0,0.4h-3.1V612z M353.9,611.4c0-0.5-0.2-1.3-1.1-1.3
			c-0.8,0-1.2,0.7-1.2,1.3H353.9z"/>
		<path class="st1" d="M355.6,610.9c0-0.5,0-0.8,0-1.2h0.7v0.7l0,0c0.2-0.4,0.7-0.8,1.4-0.8c0.6,0,1.5,0.4,1.5,1.9v2.6h-0.8v-2.5
			c0-0.7-0.3-1.3-1-1.3c-0.5,0-0.9,0.4-1.1,0.8c0,0.1-0.1,0.2-0.1,0.4v2.6h-0.8v-3.2H355.6z"/>
		<path class="st1" d="M367.5,614l-0.1-0.5l0,0c-0.2,0.3-0.7,0.6-1.3,0.6c-0.9,0-1.3-0.6-1.3-1.3c0-1.1,0.9-1.6,2.6-1.6l0,0
			c0-0.4-0.1-1-1-1c-0.4,0-0.8,0.1-1.1,0.3l-0.2-0.5c0.4-0.2,0.9-0.4,1.4-0.4c1.3,0,1.7,0.9,1.7,1.8v1.6c0,0.4,0,0.7,0.1,1
			L367.5,614L367.5,614z M367.4,611.8c-0.9,0-1.8,0.1-1.8,1c0,0.5,0.3,0.8,0.7,0.8c0.6,0,0.9-0.4,1.1-0.7c0-0.1,0-0.2,0-0.3
			L367.4,611.8L367.4,611.8z"/>
		<path class="st1" d="M369.5,607.6h0.8v6.4h-0.8V607.6z"/>
		<path class="st1" d="M371.6,607.6h0.8v6.4h-0.8V607.6z"/>
		<path class="st1" d="M377.7,611.8c0,1.6-1.1,2.3-2.2,2.3c-1.2,0-2.1-0.9-2.1-2.2c0-1.5,1-2.3,2.2-2.3
			C376.8,609.6,377.7,610.5,377.7,611.8z M374.2,611.9c0,1,0.5,1.7,1.3,1.7s1.3-0.7,1.3-1.7c0-0.7-0.4-1.7-1.3-1.7
			S374.2,611,374.2,611.9z"/>
		<path class="st1" d="M379.6,608.4v1.3h1.1v0.6h-1.1v2.3c0,0.5,0.2,0.8,0.6,0.8c0.2,0,0.4,0,0.5-0.1v0.6c-0.2,0.1-0.4,0.1-0.7,0.1
			c-0.4,0-0.7-0.1-0.9-0.3c-0.2-0.2-0.3-0.6-0.3-1.1v-2.4h-0.7v-0.6h0.7v-1L379.6,608.4z"/>
		<path class="st1" d="M380.6,615.3c0.4,0,0.7-0.1,0.9-0.3c0.2-0.3,0.3-0.6,0.3-1.6v-3.6h0.8v4c0,0.8-0.1,1.4-0.5,1.8
			c-0.4,0.4-0.9,0.5-1.4,0.5L380.6,615.3z M382.6,608.4c0,0.3-0.2,0.5-0.5,0.5s-0.5-0.2-0.5-0.5s0.2-0.5,0.5-0.5
			C382.4,608,382.6,608.2,382.6,608.4z"/>
		<path class="st1" d="M386.2,614l-0.1-0.5l0,0c-0.2,0.3-0.7,0.6-1.3,0.6c-0.9,0-1.3-0.6-1.3-1.3c0-1.1,0.9-1.6,2.6-1.6l0,0
			c0-0.4-0.1-1-1-1c-0.4,0-0.8,0.1-1.1,0.3l-0.2-0.5c0.4-0.2,0.9-0.4,1.4-0.4c1.3,0,1.7,0.9,1.7,1.8v1.6c0,0.4,0,0.7,0.1,1
			L386.2,614L386.2,614z M386.1,611.8c-0.9,0-1.8,0.1-1.8,1c0,0.5,0.3,0.8,0.7,0.8c0.6,0,0.9-0.4,1.1-0.7c0-0.1,0-0.2,0-0.3
			L386.1,611.8L386.1,611.8z"/>
		<path class="st1" d="M388.2,610.9c0-0.5,0-0.8,0-1.2h0.7v0.7l0,0c0.2-0.4,0.6-0.8,1.4-0.8c0.6,0,1,0.4,1.2,0.9l0,0
			c0.1-0.2,0.3-0.4,0.5-0.6c0.3-0.2,0.5-0.3,1-0.3c0.6,0,1.4,0.4,1.4,1.9v2.6h-0.8v-2.5c0-0.8-0.3-1.3-0.9-1.3
			c-0.5,0-0.8,0.3-0.9,0.7c0,0.1-0.1,0.3-0.1,0.4v2.7h-0.8v-2.6c0-0.7-0.3-1.2-0.9-1.2c-0.5,0-0.9,0.4-1,0.8c0,0.1-0.1,0.3-0.1,0.4
			v2.6h-0.8L388.2,610.9L388.2,610.9z"/>
		<path class="st1" d="M396.1,612c0,1.1,0.7,1.5,1.5,1.5c0.6,0,0.9-0.1,1.2-0.2l0.1,0.6c-0.3,0.1-0.8,0.3-1.4,0.3
			c-1.3,0-2.1-0.9-2.1-2.2s0.8-2.3,2-2.3c1.4,0,1.8,1.3,1.8,2.1c0,0.2,0,0.3,0,0.4h-3.1V612z M398.4,611.4c0-0.5-0.2-1.3-1.1-1.3
			c-0.8,0-1.2,0.7-1.2,1.3H398.4z"/>
		<path class="st1" d="M400.2,610.9c0-0.5,0-0.8,0-1.2h0.7v0.7l0,0c0.2-0.4,0.7-0.8,1.4-0.8c0.6,0,1.5,0.4,1.5,1.9v2.6H403v-2.5
			c0-0.7-0.3-1.3-1-1.3c-0.5,0-0.9,0.4-1.1,0.8c0,0.1-0.1,0.2-0.1,0.4v2.6H400v-3.2H400.2z"/>
		<path class="st1" d="M406.1,608.4v1.3h1.1v0.6h-1.1v2.3c0,0.5,0.2,0.8,0.6,0.8c0.2,0,0.4,0,0.5-0.1v0.6c-0.2,0.1-0.4,0.1-0.7,0.1
			c-0.4,0-0.7-0.1-0.9-0.3c-0.2-0.2-0.3-0.6-0.3-1.1v-2.4h-0.6v-0.6h0.7v-1L406.1,608.4z"/>
		<path class="st1" d="M408,613.2c0.2,0.2,0.6,0.3,1,0.3c0.6,0,0.8-0.3,0.8-0.6c0-0.4-0.2-0.6-0.8-0.8c-0.8-0.3-1.2-0.7-1.2-1.2
			c0-0.7,0.6-1.3,1.5-1.3c0.4,0,0.8,0.1,1.1,0.3l-0.2,0.6c-0.2-0.1-0.5-0.3-0.9-0.3c-0.5,0-0.7,0.3-0.7,0.6c0,0.4,0.3,0.5,0.8,0.7
			c0.8,0.3,1.1,0.7,1.1,1.3c0,0.8-0.6,1.3-1.6,1.3c-0.5,0-0.9-0.1-1.2-0.3L408,613.2z"/>
		<path class="st1" d="M420,607.6v5.3c0,0.4,0,0.8,0,1.1h-0.7v-0.8l0,0c-0.2,0.5-0.8,0.9-1.5,0.9c-1.1,0-1.9-0.9-1.9-2.2
			c0-1.5,0.9-2.3,2-2.3c0.7,0,1.1,0.3,1.3,0.7l0,0v-2.6L420,607.6L420,607.6L420,607.6z M419.2,611.4c0-0.1,0-0.2,0-0.3
			c-0.1-0.5-0.5-0.9-1.1-0.9c-0.8,0-1.3,0.7-1.3,1.7c0,0.9,0.4,1.6,1.3,1.6c0.5,0,1-0.4,1.2-0.9c0-0.1,0-0.2,0-0.3v-0.9L419.2,611.4
			L419.2,611.4z"/>
		<path class="st1" d="M421.7,612c0,1.1,0.7,1.5,1.5,1.5c0.6,0,0.9-0.1,1.2-0.2l0.1,0.6c-0.3,0.1-0.8,0.3-1.4,0.3
			c-1.3,0-2.1-0.9-2.1-2.2s0.8-2.3,2-2.3c1.4,0,1.8,1.3,1.8,2.1c0,0.2,0,0.3,0,0.4h-3.1V612z M424,611.4c0-0.5-0.2-1.3-1.1-1.3
			c-0.8,0-1.2,0.7-1.2,1.3H424z"/>
		<path class="st1" d="M430.3,607.6h0.8v6.4h-0.8V607.6z"/>
		<path class="st1" d="M433,607.9l-0.2,2.2h-0.5l-0.1-2.2H433z"/>
		<path class="st1" d="M434.9,608v6.1h-0.8V608H434.9z"/>
		<path class="st1" d="M436.3,614v-6.1h0.9l1.9,3.1c0.5,0.7,0.8,1.4,1.1,2l0,0c-0.1-0.8-0.1-1.5-0.1-2.5V608h0.7v6.1H440l-1.9-3.1
			c-0.4-0.7-0.8-1.4-1.1-2l0,0c0,0.8,0.1,1.5,0.1,2.5v2.6L436.3,614L436.3,614z"/>
		<path class="st1" d="M445.3,611.2h-2.4v2.2h2.6v0.7h-3.4V608h3.3v0.7h-2.5v1.9h2.4V611.2z"/>
	</g>
</g>
<g>
	<text transform="matrix(1 0 0 1 345.2759 140.7933)" class="st2 st3 st4">GIRONA</text>
</g>
<text transform="matrix(1 0 0 1 20.7259 181.8281)" class="st2 st3 st4">LLEIDA</text>
<text transform="matrix(1 0 0 1 20.726 194.2805)" class="st2 st3 st5">VARIACIÓ INT. 2020 </text>
<text transform="matrix(1 0 0 1 99.526 194.2805)" class="st1 st3 st5">| 2019</text>
<path class="st6" d="M208.3,343.8c1.4,1.6,0.3,1.8-1,1.9C206.4,344.6,208.2,344.6,208.3,343.8z"/>
<path class="st7" d="M250.9,430c-0.1-0.9-0.5-1.8,0.5-2.4c0.5,0.3,0.9-1.6,1.3,0c0.1,0.5,1.1,1.6-0.4,1.6
	C251.5,429,251.4,429.7,250.9,430z"/>
<path class="st8" d="M355.8,244.2c0-0.2,0-0.5-0.1-0.7c0.8-1.7,2.2-1,3.5-1.2C358.4,243.5,356.7,243,355.8,244.2z"/>
<path class="st9" d="M364.9,242.2c0.9,0.5,1,1.4,1.2,2.2C364.6,244.5,364.4,243.5,364.9,242.2z"/>
<path class="st10" d="M351.1,239.4v-0.7c0.9,0.4,2.1-0.5,2.8,0.7H351.1z"/>
<text transform="matrix(1 0 0 1 20.7258 210.5334)" class="st2 st11 st5">Ocupació:  </text>
<text transform="matrix(1 0 0 1 20.7258 220.1334)" class="st2 st11 st5">18,3% (-5,7 pp)</text>
<text transform="matrix(1 0 0 1 74.6138 220.1335)" class="st1 st11 st5">  | -19,5 pp</text>
<text transform="matrix(1 0 0 1 167.2977 75.1302)" class="st1 st12 st13">Entre parèntesi, variació interanual respecte l’any 2020 </text>
<g>
	<text transform="matrix(1 0 0 1 20.7262 234.3626)" class="st2 st11 st5">Viatgers: </text>
	<text transform="matrix(1 0 0 1 20.7262 243.9626)" class="st2 st11 st5">25.264 (-38,7%) </text>
	<text transform="matrix(1 0 0 1 79.8561 243.9628)" class="st1 st11 st5">| -71,5%</text>
</g>
<g>
	<text transform="matrix(1 0 0 1 20.7258 256.5386)" class="st2 st11 st5">Pernoctacions: </text>
	<text transform="matrix(1 0 0 1 20.7258 266.1386)" class="st2 st11 st5">48.119 (-53,2%) </text>
	<text transform="matrix(1 0 0 1 77.7258 266.1386)" class="st1 st11 st5"> | -76,1%</text>
</g>
<text transform="matrix(1 0 0 1 345.276 151.9633)" class="st2 st3 st5">VARIACIÓ INT. 2020 </text>
<text transform="matrix(1 0 0 1 424.076 151.9633)" class="st1 st3 st5">| 2019</text>
<text transform="matrix(1 0 0 1 345.2757 168.0474)" class="st2 st11 st5">Ocupació:  19,7% (-1,6 pp)   </text>
<text transform="matrix(1 0 0 1 443.0757 168.0474)" class="st1 st11 st5"> | -20,1 pp</text>
<text transform="matrix(1 0 0 1 345.2758 181.7066)" class="st2 st11 st5">Viatgers: 63.650 (-6,6%)</text>
<text transform="matrix(1 0 0 1 435.8757 181.7066)" class="st1 st11 st5">| -72,1%</text>
<text transform="matrix(1 0 0 1 345.2764 193.586)" class="st2 st11 st5">Pernoctacions: 101.873 (-30,2%)</text>
<text transform="matrix(1 0 0 1 464.9364 193.5861)" class="st1 st11 st5"> | -79,1%</text>
<g>
	<text transform="matrix(1 0 0 1 394.4001 405.0307)" class="st2 st3 st4">ENTORN DE BARCELONA</text>
</g>
<text transform="matrix(1 0 0 1 394.4001 416.2009)" class="st2 st3 st5">VARIACIÓ INT. 2020 </text>
<text transform="matrix(1 0 0 1 473.2002 416.2009)" class="st1 st3 st5">| 2019</text>
<text transform="matrix(1 0 0 1 394.3999 432.2849)" class="st2 st11 st5">Ocupació: 22,3% (+0,5 pp) </text>
<text transform="matrix(1 0 0 1 495.7679 432.2854)" class="st1 st11 st5">| -22,1 pp</text>
<text transform="matrix(1 0 0 1 394.4 445.9441)" class="st2 st11 st5">Viatgers: 67.334 (-7,4%)</text>
<text transform="matrix(1 0 0 1 485.4681 445.9437)" class="st1 st11 st5"> | -70,2%</text>
<text transform="matrix(1 0 0 1 394.4001 460.1274)" class="st2 st11 st5">Pernoctacions: 140.378 (-5,3%)</text>
<text transform="matrix(1 0 0 1 512.9001 460.1274)" class="st1 st11 st5"> | -71,7%</text>
<g>
	<text transform="matrix(1 0 0 1 175.812 515.3893)" class="st2 st3 st4">TARRAGONA</text>
</g>
<text transform="matrix(1 0 0 1 175.812 526.5595)" class="st2 st3 st5">VARIACIÓ INT. 2020 </text>
<text transform="matrix(1 0 0 1 254.612 526.5595)" class="st1 st3 st5">| 2019</text>
<text transform="matrix(1 0 0 1 175.8117 542.6436)" class="st2 st11 st5">Ocupació: 20,8% (3,5 pp) </text>
<text transform="matrix(1 0 0 1 269.4117 542.6436)" class="st1 st11 st5"> | -17,2 pp</text>
<text transform="matrix(1 0 0 1 175.8117 556.3027)" class="st2 st11 st5">Viatgers: 26.088 (+24,0%) </text>
<text transform="matrix(1 0 0 1 272.2 556.3031)" class="st1 st11 st5">| -69,0 %</text>
<text transform="matrix(1 0 0 1 175.812 570.486)" class="st2 st11 st5">Pernoctacions: 45.219 (+0,2%) </text>
<text transform="matrix(1 0 0 1 290.9998 570.4861)" class="st1 st11 st5">| -76,1%</text>
<text transform="matrix(1 0 0 1 208.9619 29.9816)" class="st2 st11 st14">Establiments hotelers</text>
<g>
	<text transform="matrix(1 0 0 1 394.3999 496.6243)" class="st2 st3 st4">BARCELONÈS</text>
</g>
<text transform="matrix(1 0 0 1 394.3999 507.7945)" class="st2 st3 st5">VARIACIÓ INT. 2020 </text>
<text transform="matrix(1 0 0 1 473.2 507.7945)" class="st1 st3 st5">| 2019</text>
<text transform="matrix(1 0 0 1 394.3998 523.8786)" class="st2 st11 st5">Ocupació: 19,1% (-12,6 pp) </text>
<text transform="matrix(1 0 0 1 495.7678 523.879)" class="st1 st11 st5">| -47,6 pp</text>
<text transform="matrix(1 0 0 1 394.3999 537.5377)" class="st2 st11 st5">Viatgers: 98.331 (-58,2%) </text>
<text transform="matrix(1 0 0 1 485.4679 537.5374)" class="st1 st11 st5">  | -86,6%</text>
<text transform="matrix(1 0 0 1 394.3999 551.7211)" class="st2 st11 st5">Pernoctacions: 211.206 (+28,3%) </text>
<text transform="matrix(1 0 0 1 512.8999 551.7211)" class="st1 st11 st5">   | -65,9%</text>
<polyline class="st15" points="361.1,423.1 361.1,504.6 385.2,504.6 "/>
<text transform="matrix(1 0 0 1 57.9116 49.8919)" class="st1 st12 st13">La província de Tarragona és l’única província catalana que aconsegueix creixements en viatgers, pernoctacions  </text>
<text transform="matrix(1 0 0 1 30.7116 60.6919)" class="st1 st12 st13"> i ocupació durant el mes de març de 2021. L’entorn de Barcelona, però, continua per davant en volum en tots tres  indicadors.</text>
<image style="overflow:visible;enable-background:new    ;" width="580" height="65" xlink:href="874D5530.jpg"  transform="matrix(0.2291 0 0 0.2291 220.0674 85.5078)">
</image>
<g id="regions-layer_1_">
	<path class="st16" d="M108.3,583.8l-11.5-5l-0.6-3.4l1.7-2.5l-5.6-2.8l-0.3-1.9l-9.6-0.9l-8.2-3.7l-2.3-3.7l0.3-2.5l3.7-5l-4.6-4.1
		l-3.6,0.9l-1.6-5.9l-4,1.6l-4-1.6l-1-1.9l-0.7-1.2l2.3,1.6V539l2,0.9l3.3-3.4l2.3,0.3l1.3-4.4l6-6.5l-2.6-3.7l-0.3-0.9l-0.3-5.3
		l-2.4-2l8-17.1h-1.6v-2.8l-2-2.5l1-0.9l-2.3-1.2l0.3-1.6l2.6-0.3l-2.6-0.9l-2-2.8l-2.3,1.2v-2.5l-2.3,0.3l2-1.2l-1.6-1.6l0.3-2.2
		l-0.6-2.5h-2.3l1.4-6.2l-1.3-1.2l3-1.9l-1-0.6l4.9,1.2l0.7-4l3.3,0.3l4.3-2.8l2-10.5l3.3-2.5l2.6,1.2l0.7-2.2h2.6l-1-2.5l1.7-5.6
		l6.9,0.6l0.4-8.7l4-2.8l6.2,8.7h3.3l4-7.1l3.9,1.2l3.3,5.3l3.3,0.3l5.6-2.8l0.7-0.6h0.3h0.7l11.2-1.5l1.7-3.4l2.3,0.6h1h1v0.3
		l3.6,0.6l0.7-1.2l0.3-0.9l0.7-3.7l1.6-0.9l3.6,4.6l12.8-2.8l2-0.6l-0.3-2.2l2.6-4.6l1.6,0.6l1.3-3.1l3.9-0.9l2.6-5.3l1.3-1.2
		l0.3-0.3l2-1.9l0.7-0.9l-2-1.2l-3.6-2.8l1.3-0.6l-1-3.4l9.8,5.3v1.2l10.5-3.7l-2.3-4.9l1.6-3.4l-1.6-0.9l1.3,0.6l-0.7-1.5l6.6-1.9
		l0.3-3.4l4.6-0.3l8.2-0.3l14.8,2.5l-1.6-3.4l4.3-1.2l4.6,2.5l-3.3,2.5l0.3,1.2l2-0.6l0.3,3.1l-5.9,0.3l-1.6,4.3l7.2,3.4l0.7,1.5
		h3.3l1.6,3.1h0.3l-2.6,4.9l0.7,1.5l2.6,0.3l-2.3,1.2l1,1.5l1,4l-2.3,3.4l4.9-2.5l4.6,1.9l2,3.1h2.6l1,2.2h0.3l-3,2.5l2,5.3l3.3,1.2
		l-0.7,3.1l3.3,1.9l0.3-1.5l3.3-0.6l-1.3,0.3l-1,7.7l-7.6-1.2l1,3.4l6.9,3.7l2.3-2.2l1,4.3l-0.3,3.1l-19.4,3.4l-6.6,2.2l-10.5,6.8
		l-4.9,0.3l-9.6,0.3l-6.9,3.7l-3.3,4l3.3-4l-2.6,1.6l-2.6-0.6l-3.3,3.1l-2.6,6.2h-1.6l-2.3-3l-3.6-0.6l-5.6,2.5l-5.3-0.3l-9.6,5
		l-6.3,6.2l-0.7,2.5l-5.3,3.1l-5.6,5.9l-9.6,14.9l-6.3,4l-1.3,4.4l-6.3,3.7l1,3.4l4.3,4l6.6-0.3v-1.2l-7.3-2.2l0.7-1.2l3.6-0.3
		l3,1.9l7.9,10.3l3.6-0.9l3,1.9l-1.3,5.9l-6.3,5l-9.6,4.7l-11.9,15.6l-9.6,2.2l-3-2.8l-0.3-2.2l3,0.3h0.3h-0.3l0.3-1.6l2.3,0.6v0.3
		v0.3l0.3,0.3l1,0.3l0.7,0.3h0.3l0.3-0.3v-0.3v-0.6h0.7v-0.3v-0.3l0.7-1.6l7.9-0.3l4-6.2l0.7-2.2h-1l-0.3-0.3h-0.3l-19.5,3.1
		l-9.3,10.6L108.3,583.8z"/>
	<path class="st17" d="M283.2,321.5V320l2.6,0.9l-0.7,1.2L283.2,321.5z M186.6,408l-2.6,5.3l-3.9,0.9l-1.3,3.1l-1.6-0.6l-2.6,4.6
		l0.3,2.2l-2,0.6l-12.8,2.8l-3.6-4.6l-1.6,0.9l-0.7,3.7l-0.3,0.9L153,429l-3.6-0.6v-0.3h-1h-1l-2.3-0.6l-1.7,3.4l-11.2,1.5h-0.7
		h-0.3l-0.7,0.6l-5.6,2.8l-3.3-0.3l-3.3-5.3l-3.9-1.2l-4,7.1h-3.3l-6.2-8.7l-4,2.8l-0.4,8.7l-6.9-0.6l-2.9-5l0.7-2.8l-3-1.5l3.6-5
		l-1.6-3.1l-6.2-5l2.3-2.5l3-8.7l-1.6-1.5l-0.3-4.3l6.2-0.3l2.6-1.9l6.3-10.2l-2.3-3.1l-0.3-7.1l-3.6,1.5l-7.9-1.2l-0.3-4.3l1.7-1.9
		l-4.6-5.6v-3.1l6.3-7.1l2.3-4.9l1.3,1.5l0.7-4.9l10.5-1.5l1.7-6.5l4.9-4.3l3.9,0.6l1.7-6.2l3.9,0.3v-2.5l3.9-1.5l-2.3-2.5l1.3-4.6
		l-1-1.2l2-0.6L116,313v-1.2l4.3-5.5l1.6,1.5l3-6.2l2.3-0.3l0.3,2.2l0.7-2.8l1.6-0.6l1-2.8l-1.3-0.6v-3.4l2.3-1.8l-0.3-2.8l4.6-8.6
		l-0.6-8.9l2.6-1.8l-1.6-1.2v-4l1.7-6.4l3-4.6l1.7-10.1l3-4l-3.3-0.9v-1.8l4.3-2.8l-7.2-2.8l3.3-3.7l-7.8-18.7l1.3-2.1l2,1.2
		l3.9-3.1l-2.9-1.5v-2.1l0.7-1.5l3.6-0.6l-1.3-1.5l4-11.6v-1.2l-3.3-0.6l-5.5-1.2l-1.6-7l-2.9-3.4l-2.3-2.7h2.3l1-2.7l-2.9-8.9
		l-2.9-0.3l3.6-4.3l-2.9-1.5l3.6-3.4l-1.6-7l2.9-1.8l-0.3-1.2l4.2-1.2l10.1,4.9l2.9-0.9l8.8,2.7l9.8,7l5.6-3.1l2.6,3.4h7.5l1.6,1.2
		l4.2-0.3l0.7-1.2l7.5,6.4l0.6,5.2l4.6,3.7l9.8-3.7l2.9,2.4l10.4-1.8l4.6,0.9l-0.7,3.7l5.5,2.4l-0.3,3.7l3.6,2.1l1,6.1l3.3,4
		l-2.3,4.3l2.6,2.4l-2.6,1.5l-2,4.6l4.6-1.5l3.6,6.4l-7.2,4.3l2.9,1.8l0.3,6.4l2,1.5l14.1,0.6l1-4.9l3.3,1.5l1.3-2.8l9.8-0.6l1.6-7
		l2,2.1l3.3,0.6l2.9-2.8l0.7,2.4l-1,0.9l1.3,8.9l5.6,2.1l3.6-0.3l2,2.5l-1.3,7.7l1.3,1.5l2.9-2.5l3.9,2.5l-2.9,2.8l1,9.2l-1.6,0.9
		h-3.9l-3.6,1.8l-5.9,0.3l-0.7,1.2l-2.6-0.9l-6.9,1.2l2.9,0.9l0.7,2.5l-1.3,1.5l2.9,3.1l-0.7,1.8l-2.9,1.2l0.7,3.4l3.3,3.1l1.6-1.2
		l2.9,1.2l-0.3,0.9v1.5v0.3l0.3,2.5l-1.3,0.6l-3.3,1.8l-1.3,4l1.3,0.9l-0.3,3.4l2.6,2.2l-1,1.8l-3.6-0.6l-2.6,5.8l-0.7,2.5l1.3,0.9
		l0.7-1.8l2.3,4l-3.6,1.5l-1,3.1l-0.3-3.4h-1.3l-1.3,4l1,1.5l1-2.2v2.2l3.6-0.3l1.6,1.8v-5.8l3.3,3.1l-0.7,1.5l0.3,1.5l-4.9,3.1
		l-2-1.2l1-1.8l-3.6,0.9l-0.3,6.2l-1,0.9l1.6,2.5h-1.6h-0.3l-7.9,7.7l-1.3-0.9l-1.3,2.5l2.3,1.2l2.3-2.2l2.6,0.6l0.7,1.5l1.3,5.5
		l-3,1.2v3.7l-3.3,2.5l1.6,3.1l-1,2.2l-2.6-0.9l-2,0.9v1.5l-2-0.3l-0.3,2.8l-2.3,0.9v-2.5l-1-0.3l-1.6-0.9l-0.3-0.3v-0.3l-0.3-0.3
		l-0.3-2.5H251l-1,3.4v-0.3l-1.3,0.3v-5.5l-1.6,0.3h-1.3l-3.6-0.6l-1.3,1.2l-2,9.6l3,2.5l-5.9,4.9l2.3,0.3l-0.7,1.9l1.3,1.9l3,0.3
		l-1.3,1.9l3.6,4.9v0.3h1.6v1.2l-3,2.2l-5.3-1.2l-4.9,4l6.9,2.8l-2.3,4.6l1.6,3.4l-14.8-2.5l-8.2,0.3l-4.6,0.3l-0.3,3.4l-6.6,1.9
		l0.7,1.5l-1.3-0.6l1.6,0.9l-1.6,3.4l2.3,4.9l-10.5,3.7v-1.2l-9.8-5.3l1,3.4l-1.3,0.6l3.6,2.8l2,1.2l-0.7,0.9l-2,1.9l-0.3,0.3
		L186.6,408z M280.9,279.1l-2.9-0.6l-3.9,0.3l3.9,1.8h2.9V279.1z"/>
	<path class="st18" d="M326.1,279.1v-0.3l0.3-0.9l2.6-1.2l1.3,1.5l-1.6,0.6l-0.3,2.2l-1.6,0.3L326.1,279.1z M321.3,210.4l1-2.4h2
		l1,1.5l-1.6,3.1l3.9,4l-7.8-0.9l0.3-4.9L321.3,210.4z M514.1,246.6l-0.3-0.3l0.3-0.3h0.3v0.6H514.1z M504,293.3l-0.3-0.3l-0.3-0.3
		v-0.3l1-0.3L504,293.3z M374,329l-0.7-4.6l1.6-1.5l4.6,0.9l1,2.2l1.3-0.3l3.3-4l3.6,0.6v0.3l2-0.3l5.2-4.6l-0.3-2.8l-2.3-1.5
		l-0.3-0.3l-3-0.3l0.3-2.5l-2-1.8l0.6-1.5l5.9,0.6l2-2.8l-3-1.8l4.6-1.5l-0.7-3.7l1.3-1.8l-3.3-4l2.3-1.2l-1.3-1.8h-0.3v0.3h-0.3
		l-0.7-1.5l-2.6-0.3l-1.6,0.3l-3.3,2.5l-3-2.2l-2-3.7l0.6-2.2h-2.9l-0.7-2.2l-2.6-0.6v-0.3h-1.6l-3.6,1.2h-0.3l-3.3,2.2l1-3.4v-0.3
		l-1-1.8l-2.3-1.5l-1-0.3v-0.3l-2.6,0.9l-2.6-1.2l-2,0.3l-1,0.3l-0.3,0.3h-0.3l-0.7,1.5l-2.3,1.5l-0.7-2.2l-6.2,0.6l-2.3,3.1
		l-3.9-1.8l-1.3-3.7l-4.6,1.5l-3.3-1.2l-1-1.8l-3.9,0.6v-0.9l-2-5.2l-3.6,0.6l-0.3-4l6.2,1.2l-1.3,0.3l1,1.5l-1.3,2.1l1.3,1.8
		l2.3-0.3l1.6-2.5l4.3-0.3l0.3-2.8l-1.6-0.3l-0.7-4.9v-0.3l-2.6,1.2l-1.6-2.8l1.3-1.8v-0.3l0.3-2.1l1-0.9v-0.3l2.6-3.7v-0.3l2.3-2.1
		l-7.5-3.7l-4.9,2.5l-4.6-3.4l-1.3,1.2l-0.3-1.2l-5.6-1.5l-8.8,3.4l-1-9.2l2.9-2.8l-3.9-2.5l-2.9,2.5l-1.3-1.5l1.3-7.7l-2-2.5
		l-3.6,0.3l-5.6-2.1l-1.3-8.9l1-0.9l13.7,0.9l9.5,7.3l4.6,0.3l2.3-1.5l0.7,4.9l2.6,0.9l0.7,8l3.6,4.3l3.9,2.1l2.3-1.8l7.8-0.9l1-2.5
		l3.3-1.2v-2.5l3.3-4l2.6-1.2l7.5,0.9l7.2-4l5.9,3.1l2.3-1.2l7.9,5.2l9.8,1.5l0.3,3.7l2.6,0.6l3.6,5.5l3.3-0.3l3.3,1.8h2.6l1.6-4
		l2.6-0.6l14.4,3.4l1-2.8l-2-1.5l-1.7-4.9h2.9l0.6-3.4l9.8-3.7l4.9,2.5l3.3-1.5l2.3-3.7l1.6,0.3l1.9-4l2.9,0.9l1-2.4l2.6,1.5
		l5.6,0.3l1-3.1l2.6-1.2l2.6,2.8l4.2-1.5l2.6,1.5l3.9-1.5l2.3,5.2l4.3,4l5.2-2.1l7.5,0.3l-0.3,0.6l-1.6,0.6l1,0.6l0.3,0.3v0.3v0.3
		v0.3v0.3l-0.3,0.6H495v0.3v0.3h-0.3l-1,1.2l1.3,0.6v0.3l-0.3,0.3h-0.3l-1,1.2h0.3v0.3h1.3h0.3v0.3l-1.6,1.8l0.3,0.9h0.3l1,0.6v0.3
		v0.3v0.3H495l-0.3,0.3l0.3,0.3l1,1.2l0.7,0.3l0.3,0.3h0.7l0.7,0.6l-0.3,0.9l0.7,0.6l0.3,0.6l1.3,0.6l0.6-2.5l1,0.3l0.6-0.6h0.3h2.3
		l0.7,0.9v0.9h0.3v0.3l1.3,1.2l1.3-0.6h0.3v-0.3v-0.6l1.3,0.3l1,0.3h0.3v0.6l0.7,0.3h0.3l1.6,0.6v0.3h0.3h0.7h0.3l0.7,1.2v-0.9
		l0.3,0.3l1,0.3l0.3,0.3v0.3l-0.6,0.6v0.3H517l-0.3-0.3l-0.3,0.6H516l-1.3,1.2v0.3l-1-0.3h-0.3l-0.3,0.3l0.3,0.3h0.3v0.3v0.3
		l-0.3,0.3l-0.6,1.2h1l0.3,0.3h0.3v0.3v0.6v0.3l-1,0.3h-0.3h-0.3l-1.3-1.2l0.3,2.1l0.3,0.6l-0.3,4l-3.6,0.3l1.3,2.5v0.3l-3-2.5h-2.3
		l0.3,0.9l-0.3,0.3l-1,1.8l-3.3-1.8l-2.6-0.6l-1-3.4H494l-4.9,5.2l-1.9,5.8l1.7,13.2h0.3v0.6v0.3v0.3l1.6,0.6v0.3l0.3,1.8l2.6-0.3
		l1,0.3l0.7,0.3l1.3,0.3l-0.6,1.5l1,0.3l1,0.3v0.3h0.3l1.3,2.8l1.3,2.2l0.7,1.5v0.3v0.3l0.3,0.6v0.6v0.3h0v0.3l-1.6,0.3l-0.6,6.5
		l2.4,8.3h1.3v-0.3h0.3l0.7,0.3v0.3v0.3h0.3h0.3v0.3v0.9l0.3,0.9v-0.6h0.3l-0.3,0.6v0.3h-0.3v0.3v0.3l-0.3,0.9v0.3h-0.3v0.3
		l-0.3,0.3h-0.3l-0.3,0.3v0.6h-0.3v0.3l-0.3,0.3h0.3l0.3,0.3l-0.3,0.9l0.3,0.6v0.3h-0.3l0.3,0.6h-0.3v0.6l-1.3,0.9l0.3,0.9H502v0.3
		h0.3v0.3v0.3v0.3l-0.7,0.3v0.3v0.3v0.3h-0.3l-0.7,0.6h-0.7h-0.3l0.3,0.3l-0.3,0.3l-0.3,0.3H499h-0.7v0.3v0.3v0.3v0.3H498l-0.3,0.3
		v0.3l0.3,0.3l-0.3,0.6v0.3v0.3v0.3l-1,0.9h-0.3H496l-0.3,0.3h-0.3v0.3l-1.3-0.3h-0.3l-0.7,0.6l-0.7,0.6v1.2h-0.3h-0.3l-1.3,1.5
		l-2.3-1.5l-2.9,2.2v0.3v0.3v0.3H485l-0.6,0.9h-0.3v0.3h-0.3v0.3h-0.3v0.3H483l-2.6,5.5v0.3l-0.3,0.9h-0.3h-1.3v0.3v0.3l0.3,0.3
		l-0.7,0.6l-0.3,0.3h-1.6l0.3,0.9v0.3h-0.7l-3.6,0.6v0.3l-0.3,0.3l-2.6,0.9l-0.3,0.3l-0.7,0.3v0.3v0.3h-0.7l-0.6,1.2l-0.3,0.3
		l-0.7,0.9h-0.3l-0.6,1.9l-0.7,0.3l-0.7,0.6h-0.3l-0.3,0.9l-3.9,2.5l-2.3,0.9h-0.3l-1.3,0.3l-2.3,0.3v0.3h-0.7h-0.7l-2.3,0.6
		l-0.3,0.3h-0.3l-0.3,0.3l-1.6,0.3h-0.3l-0.3,0.3h-0.3l-0.6,1.2H445l-1,0.9v0.3l-0.7,0.3l-1.6,0.6l-1.9,3.7l-3-5.2l2.3-4l-0.7-4.9
		v-0.3l1-1.5l-11.8-1.2l-2-0.6v1.2l-3.6-1.5l-2.3,0.6l-1.6,2.5l-13.4,1.9l-3-7.4l-6.9-3.4l0.3-2.2l-2.3,0.9l-2-0.9l-1-2.8l-12.1-0.6
		L374,329z"/>
	<path class="st19" d="M277.9,278.5l2.9,0.6v1.5h-2.9l-3.9-1.8L277.9,278.5z M274.1,454.1l0.3-3.1l-1-4.3l-2.3,2.2l-6.9-3.7l-1-3.4
		l7.6,1.2l1-7.7l1.3-0.3l-3.3,0.6l-0.3,1.5l-3.3-1.9l0.7-3.1l-3.3-1.2l-2-5.3l3-2.5h-0.3l-1-2.2h-2.6l-2-3.1L254,416l-4.9,2.5
		l2.3-3.4l-1-4l-1-1.5l2.3-1.2l-2.6-0.3l-0.7-1.5l2.6-4.9h-0.3l-1.6-3.1h-3.3l-0.7-1.5l-7.2-3.4l1.6-4.3l5.9-0.3l-0.3-3.1l-2,0.6
		l-0.3-1.2l3.3-2.5l-4.6-2.5l-4.3,1.2l2.3-4.6l-6.9-2.8l4.9-4l5.3,1.2l3-2.2V368h-1.6v-0.3l-3.6-4.9l1.3-1.9l-3-0.3l-1.3-1.9
		l0.7-1.9l-2.3-0.3l5.9-4.9l-3-2.5l2-9.6l1.3-1.2l3.6,0.6h1.3l1.6-0.3v5.5l1.3-0.3v0.3l1-3.4h2.6l0.3,2.5l0.3,0.3v0.3l0.3,0.3
		l1.6,0.9l1,0.3v2.5l2.3-0.9l0.3-2.8l2,0.3v-1.5l2-0.9l2.6,0.9l1-2.2l-1.6-3.1l3.3-2.5v-3.7l3-1.2l-1.3-5.5l-0.7-1.5l-2.6-0.6
		l-2.3,2.2l-2.3-1.2l1.3-2.5l1.3,0.9l7.9-7.7h0.3h1.6l-1.6-2.5l1-0.9l0.3-6.2l3.6-0.9l-1,1.8l2,1.2l4.9-3.1l-0.3-1.5l0.7-1.5
		l-3.3-3.1v5.8l-1.6-1.8l-3.6,0.3v-2.2l-1,2.2l-1-1.5l1.3-4h1.3l0.3,3.4l1-3.1l3.6-1.5l-2.3-4l-0.7,1.8l-1.3-0.9l0.7-2.5l2.6-5.8
		l3.6,0.6l1-1.8l-2.6-2.2l0.3-3.4l-1.3-0.9l1.3-4l3.3-1.8l1.3-0.6l-0.3-2.5v-0.3v-1.5l0.3-0.9l-2.9-1.2l-1.6,1.2l-3.3-3.1l-0.7-3.4
		l2.9-1.2l0.7-1.8l-2.9-3.1l1.3-1.5l-0.7-2.5l-2.9-0.9l6.9-1.2l2.6,0.9l0.7-1.2l5.9-0.3l3.6-1.8h3.9l1.6-0.9l8.8-3.4l5.6,1.5
		l0.3,1.2l1.3-1.2l4.6,3.4l4.9-2.5l7.5,3.7l-2.3,2.1v0.3l-2.6,3.7v0.3l-1,0.9l-0.3,2.1v0.3l-1.3,1.8l1.6,2.8l2.6-1.2v0.3l0.7,4.9
		l1.6,0.3l-0.3,2.8l-4.3,0.3l-1.6,2.5l-2.3,0.3l-1.3-1.8l1.3-2.1l-1-1.5l1.3-0.3l-6.2-1.2l0.3,4l3.6-0.6l2,5.2v0.9l3.9-0.6l1,1.8
		l3.3,1.2l4.6-1.5l1.3,3.7l3.9,1.8l2.3-3.1l6.2-0.6l0.7,2.2l2.3-1.5l0.7-1.5h0.3l0.3-0.3l1-0.3l2-0.3l2.6,1.2l2.6-0.9v0.3l1,0.3
		l2.3,1.5l1,1.8v0.3l-1,3.4l3.3-2.2h0.3l3.6-1.2h1.6v0.3l2.6,0.6l0.7,2.2h2.9l-0.6,2.2l2,3.7l3,2.2l3.3-2.5l1.6-0.3l2.6,0.3l0.7,1.5
		h0.3v-0.3h0.3l1.3,1.8l-2.3,1.2l3.3,4l-1.3,1.8l0.7,3.7l-4.6,1.5l3,1.8l-2,2.8l-5.9-0.6l-0.6,1.5l2,1.8l-0.3,2.5l3,0.3l0.3,0.3
		l2.3,1.5l0.3,2.8l-5.2,4.6l-2,0.3V321l-3.6-0.6l-3.3,4l-1.3,0.3l-1-2.2l-4.6-0.9l-1.6,1.5l0.7,4.6l3.3,9.6l12.1,0.6l1,2.8l2,0.9
		l2.3-0.9l-0.3,2.2l6.9,3.4l3,7.4l13.4-1.9l1.6-2.5l2.3-0.6l3.6,1.5V349l2,0.6l11.8,1.2l-1,1.5v0.3l0.7,4.9l-2.3,4l3,5.2v0.3
		l-20,8.6h-0.3l-24.9,11.1l-14.4,10.8l-15.1,5.9l-12.1,19.2l-1,1.2l1.6-5.3L351,424l-3,1.2l-0.6,3.1l2-2.5l-1,4l-5.2,6.2l-13.5,4.6
		l-12.5,0.3l-12.2,5.6l-6.3-0.3l-3.6,2.5L274.1,454.1z M283.2,321.5l2,0.6l0.7-1.2l-2.6-0.9L283.2,321.5z M328.7,277.5l1.6-0.6
		l-1.3-1.5l-2.6,1.2l-0.3,0.9v0.3l0.7,2.2l1.6-0.3L328.7,277.5z"/>
	<path class="st20" d="M356.8,401.4L356.8,401.4L356.8,401.4L356.8,401.4L356.8,401.4l0.1-0.1l0,0l0,0l0,0v-0.1l0,0l0,0l0,0l0,0h0.1
		h0.1h0.1l0,0l0,0l0,0v-0.1V401l0,0l0,0v-0.1l0,0l0,0v-0.1v-0.1l0,0l0,0l0,0l0,0l0,0l0,0l0,0l0,0l0,0l0,0l0,0h-0.1H357l0,0l0,0l0,0
		l0,0l0,0l0,0l0,0l0,0l0,0l0,0h-0.1l0,0l0,0l0,0h-0.1l-0.1-0.1l0,0l0,0l0,0l0,0l-0.1-0.4l0,0l0.1-0.1l0.2-0.2l0.1-0.2l0.2-0.3v-0.1
		v-0.1l-0.1-0.3v-0.1v-0.1l0,0l0,0h0.2h0.1l0.5-0.3l0.1-0.1l0.1-0.1v-0.1V398l0.1-0.2h0.1h0.1l0.2,0.1l0.2-0.1h0.1l0.1-0.1h0.2h0.2
		l0.2,0.1l0.3,0.1h0.2h0.2h0.1h0.1l0,0h0.1l0.1,0.1h0.1h0.2h0.2h0.1l0,0v0.1v0.1v0.1v0.1l0,0l0,0h0.1v0.1v0.1l0,0l0,0l0,0l0,0l0,0
		l0,0l0,0l0,0l0,0v0.1l0,0v0.1l0,0l0,0l0,0l0,0l0,0l0,0l0,0l0,0l1.9,2.7v0.1l0.1,0.2l0.1,0.3l0.2,0.4l0.1,0.2l0.2,0.2l0.2,0.3
		l0.2,0.4l0,0l0,0l0,0l0,0l0,0l0,0l0,0l0,0l0,0l0,0l0,0l0,0l0,0l0,0l0,0l0,0l0,0l0,0h-0.1l-0.1,0.1l0,0l0,0l0,0l0,0h-0.1l0,0l0,0
		l0,0l0,0l0,0l0,0l-0.1,0.1l0,0l0,0l0,0l0,0l0,0l0,0l0,0l0,0l0,0l0,0l0,0l0,0l0,0l0,0l0,0l0,0l0,0l0,0l0,0l0,0l0,0l0,0l0,0l0,0l0,0
		l0,0l0,0l0,0l0,0l0,0l0,0l0,0l0,0l0,0l0,0l0,0l0,0l0,0l0,0l0,0l0,0l0,0l-0.1,0.1l0,0l0,0l0,0l0,0l0,0l0,0l0,0l0,0l0,0l0,0l0,0l0,0
		l0,0l0,0l0,0l0,0l-0.1,0.2v0.1l0,0v0.1l0,0l-0.1,0.1l0,0l0,0l0,0l0,0l0,0l0,0l0,0l0,0v0.1v0.1v0.1l-0.1,0.1l-0.1,0.1v0.1v0.1l0,0
		l0,0v0.1v0.1v0.1l-0.1,0.1v0.1v0.1l0,0l0,0l0,0v0.1l0,0v0.1l0,0l0,0l0,0l0,0l0,0l0,0l0,0l0,0l0,0l-0.1,0.2v0.1v0.1l0,0v0.1l0,0v0.1
		l0,0l0,0l0,0l0,0l0,0l0,0l0,0l0,0l0,0l0,0l0,0l0,0l0,0h-0.1l0,0h-0.1l0,0l0,0l0,0l0,0l0,0l0,0h0.1l0,0l0,0l0,0l0,0l0,0l0,0l0,0l0,0
		l0,0l0,0l0,0l0,0v0.1l0,0l0,0l0,0l0,0l0,0l0,0l0,0l0,0l0,0v0.1l0,0l0,0l0,0l0,0l0,0l0,0l0,0l0,0l0,0l0,0v0.1l0,0v0.1l0,0l0,0l0,0
		l0,0v0.1l0,0l0,0l0,0l0,0l0,0l0,0l0,0l0,0l0,0l0,0l0,0l0,0l0,0l0,0l0,0l0,0l0.2-0.8l-0.4-0.1l-0.1,0.2l-0.1,0.3l0.3,0.1v0.1
		l-0.4-0.1v0.1h0.1l0,0l0,0l0,0l0,0v0.1l0.2,0.1v-0.1l0,0l-0.1,0.2h-0.1l0,0l0,0l0,0l0,0l0,0l0,0l0,0l0,0l0,0l0,0l0.1,0.1l0,0l0,0
		l0,0l0,0l0,0l0,0l-0.1-0.1l0,0l0.1,0.1l0,0l0,0l0,0l0,0l0,0l0,0l-0.1-0.1l0,0l0,0l0,0l0,0l0,0l0,0v0.1v0.1l0,0v0.1v0.1v0.1l0,0l0,0
		l0,0l0,0l0,0l0,0l0,0l0,0l0,0l0,0l0,0l0,0l0,0l0,0l0,0l0,0l0,0l0,0l0,0l0,0l0,0l0,0l0,0v0.1l0,0l0,0l0,0l0,0l0,0l0,0l0,0l0,0l0,0
		v0.1l0,0v0.1l0,0l0,0l0,0l0,0l0,0l0,0l0,0l0,0l0,0l0,0l0,0l0,0v0.1l0,0l0,0l0,0l0,0l0,0v0.1v0.1v0.1v0.1v0.1l0,0v0.1l0,0l0,0l0,0
		l0,0l0,0l0,0l0,0l0,0l0,0l0,0l0,0l0,0l0,0l0,0l0,0l0.1,0.1l0,0l0,0l0,0l0,0l0,0l0,0l-0.1-0.1l0,0l0,0l0,0l0,0l0,0l0,0l0,0l0,0l0,0
		v0.1l0,0l0,0v0.1v0.1l0,0l0,0l0,0l0,0l0,0h0.1l0,0l0,0v-0.1l0,0l0,0l0,0l0,0l0,0l0,0l-0.4,0.7l-0.2,0.4l0,0l0,0l0,0l0,0l0,0l0,0
		l0,0l0,0l0,0l0,0l0,0l0,0l0,0l0,0l0,0l0,0l0,0l0,0l0,0l0,0l0,0l0.2-0.4l0.3-0.6l0,0l-0.4,0.2l0.1,0.2l0,0l0,0l0,0l-0.1-0.1
		l-0.2,0.1l0,0l0.1-0.1l-0.2-0.4l0,0l-0.1,0.1v0.1l0,0l0,0l0,0l0,0l0,0l0,0l0,0l-0.1,0.1l0.1,0.1l0.1-0.1h0.2l0,0l0,0l0.1,0.1l0,0
		l0,0l0,0l0.2,0.2l0,0h-0.1l0,0h0.1l0,0l-0.1,0.2l0,0l0,0l0,0l0,0l0,0l0,0l0,0l0,0l0,0l0,0l0,0l0,0l0,0l0,0l0,0l0,0l0,0l0,0l0,0l0,0
		l0,0l0,0l0,0l0,0l0,0v-0.1h-0.1l-0.1,0.1h-0.1l0,0l-0.1,0.1l0,0l0,0l0,0l0,0v0.1v0.1l0,0l0,0l0,0l0,0l0,0l0,0l0,0l0,0l0,0v0.1l0,0
		v0.1l0,0l0,0l0,0l0,0l0,0l-0.1,0.1l0,0l0,0l0,0l0,0l0,0l0,0l0,0l0,0l0,0l0,0l0,0l0,0l0,0l0,0l0,0l0,0l0,0l0,0l0,0l0,0l0,0l0,0l0,0
		l0,0l0,0l0,0l0,0l0,0l-0.1-0.1v0.1l0.1,0.1l0,0l0,0l0.1,0.1l0,0l0,0l0,0l0,0l0,0l0,0l0,0l0,0l0,0l0,0l0,0l0,0l0,0l0,0l0,0l0,0l0,0
		l0,0H362l0,0l0,0v0.1l0,0l0,0l-0.1,0.1l0,0l0,0l0,0l0,0l0,0l0,0l0,0l0,0l0,0l-0.1-0.1l-0.1,0.1l0.1,0.1l0,0l0,0l0,0v0.1l0,0l0,0
		l0,0l0,0l0,0l0,0l-0.2-0.2l0,0l0,0l-0.2,0.1l0,0l0,0l-0.1,0.2v0.1l0,0l0.2,0.2l0,0l0,0l0,0l0,0l0,0l-0.2-0.2l0,0l0,0l-0.1,0.1l0,0
		v0.1v0.1l-0.1,0.2l0,0l0.2,0.2l0,0l0,0l0,0l0,0l0,0l0,0l0,0l-0.1-0.1l-0.1-0.1H361l-0.1,0.1l-0.1,0.1l-0.1,0.1l-0.1,0.1l-0.1,0.1
		v0.1v0.1l0.2,0.2l0,0l-0.1-0.1l0,0l0.1,0.1l0,0l-0.2-0.2h-0.1h-0.1l-0.1,0.1l-0.1,0.1l-0.1,0.1l-0.1,0.1l-0.1,0.1v0.1l0.1,0.2l0,0
		l-0.2-0.2l0,0l0.2,0.2l0,0l-0.2-0.2l0,0l0,0l0,0h-0.1l-0.1,0.1l-0.1,0.1l0,0l0,0v0.1v0.1l0,0l0,0l0,0l0.2,0.2l0,0l0,0l0,0l0,0l0,0
		l0,0l0,0l0,0l0,0l0,0l0,0l0,0l-0.1,0.1l0.1,0.1v0.1l-0.1,0.1l-0.1,0.1l-0.1,0.1l-0.1,0.1l-0.1,0.1H359h-0.1l0,0l0,0l0,0l0,0l0,0
		l0,0l0,0l0,0l0,0l0,0l0,0l0,0l0,0l0,0l0,0l0,0l0,0l0,0l0,0l0,0l0,0l0,0l0,0l0,0l0,0l0,0l0,0l0,0l0,0l0,0l0,0l0,0l0,0l0,0l0,0l0,0
		l0,0l0,0l0,0l0,0l0,0l0,0l0,0l0,0l0,0l0,0l0,0l0,0l0,0l0,0l0,0l0,0l0,0l0,0l0,0l0,0l0,0l0,0l0,0l0,0l0,0l0,0l0,0l0,0l0,0l0,0h0.1
		l0,0l0,0l0,0l0.1-0.1l0.1-0.1l0,0l0.1-0.1h-0.1l-0.2,0.2l0,0l-0.1,0.1l-0.1-0.1l0.3-0.3l-0.2-0.2l-0.3,0.3l0,0l0,0l0.2,0.2l0,0l0,0
		l0,0v0.1l0,0l0,0l0,0l0,0l0,0l-0.1,0.1h-0.1l-0.1-0.1v0.1l0,0l0,0l0,0l0,0h-0.1l0,0l0,0h-0.1l0,0l0,0v0.1l0,0v0.1l0,0v0.1v0.1v0.1
		l0,0l0,0l0,0l0,0l0.2,0.1l0,0l-0.2-0.1l0,0l0,0l0,0v0.1l0,0l0,0l0,0l0.2,0.1l0,0l-0.3-0.1l0,0l-0.1,0.1l-0.1,0.1l0,0l-0.1,0.2v0.1
		v0.1l0,0v0.1v0.1l0,0l0,0l-0.1,0.1l-0.1,0.1l-0.1,0.2l-0.1,0.3v0.1v0.1v0.1v0.1l0,0v0.1l0,0v0.1l0,0v0.1l0,0l0,0l0,0h0.1l0.1-0.1
		l0,0l0,0l0,0l0,0l0,0l0,0l0,0l0,0l0,0l-0.6,1.2l0,0l0,0l0,0l0,0l0,0l0,0v0.1l0,0l0,0v0.1l0,0l0,0l0,0l-0.2,0.7h-0.1l0,0h0.1l0,0
		l0,0l0.2-0.7l0,0l0,0l0,0l0.1-0.2l0,0l0,0l0,0l0,0l0,0l0,0l0,0l0,0l0,0h0.1l0,0l0,0l0,0l0,0l0,0l0.3-0.5l0,0l0,0l0,0l-0.2-0.1l0,0
		l0,0v0.1l0,0l0,0v0.1v0.1l0,0v0.1l-0.1,0.1l0,0l0,0l0,0l0,0l0,0l0,0h0.1l0,0l0,0l0,0l0,0l0,0h-0.1l0,0l0,0l0,0V418l0,0l0,0l0,0l0,0
		v-0.1l0,0l0,0v-0.1l0,0l0,0l0,0v0.1l0.2-0.3v-0.1v-0.2l0,0V417h-0.1v0.3l0,0l0,0l0,0l0,0l0,0l0,0l0,0h-0.1l0,0l0,0v-0.1h-0.1l0,0
		l0,0v-0.3l0,0l0,0v-0.1l0,0l0.4,0.1v-0.1h-0.2v-0.1v-0.1h0.2v-0.2h-0.1l0,0l0.1-0.2l-0.1-0.1l-0.1,0.1v0.4h-0.1l0.1-0.4l0,0
		l0.2-0.1l0,0V416v-0.2h-0.1l0,0h0.1l-0.1-0.4l0,0v-0.1l-0.2-0.1h-0.1l0.2,0.7l0,0l0,0l0,0l-0.3,0.5l0,0l-0.2-0.1v-0.1l0.2-0.4l0,0
		l-0.1-0.4l0,0l-0.6,1l0,0l0,0l0.7,0.4l0,0l0,0l0,0L357,417l0,0l0,0l0,0l-0.6-0.4l0,0l0,0l0,0v0.4h0.1v0.1h-0.1v0.4l0,0v0.1l0.5,0.2
		l0,0l0.1,0.1l0,0l0,0l-0.2,0.4l0,0v-0.1l-0.5-0.2l-0.4,0.6h0.1l0,0l0.4,0.2l-0.2,0.4l-0.7-0.3l-0.2,0.3l0.5,0.4l-0.9,1.8l-0.5-0.2
		l0,0l0,0l0,0l0,0l0,0l0,0l0,0l0,0l-1.3,1l-0.1,0.1h-0.1l0,0l0,0V422h-0.1v-0.2h-0.1v-0.1h-0.1v0.1l0,0v-0.1h-0.1l-0.2,1.9h-0.5l0,0
		l0,0l0,0l-0.1,0.3l0.2,0.1l0.2,0.1l-0.2,0.4l0,0v0.1l0.4,0.2l0,0l0,0l0,0l0,0l0,0l0.1-0.1l0,0l0,0l0,0l0,0l0,0l0,0l0,0l0,0l0,0l0,0
		l0,0v-0.1l0,0l0,0l0,0l0,0l0,0v-0.1l0,0l0,0v-0.1l0,0l0,0l0,0l0,0l0,0l0,0l0,0l0,0l0,0l0,0l0,0l0,0l0,0l0,0l0,0v-0.1l0,0l0,0l0,0
		l0,0l0,0l0,0l0,0l0,0l0,0l0,0l0,0l0,0l0,0l0,0l0,0l0,0l0,0l0,0l0,0l0,0l0,0l0,0l0,0v-0.1l0,0l0,0l0,0l0,0l0,0l0,0l0,0l0,0l0,0l0,0
		l0,0l0,0l0,0l0,0l0,0v-0.1l0,0l0,0V424l0,0l0,0l0,0l0,0l0,0l0,0l0,0l0,0l0,0l0,0l0,0l0,0l0,0l0,0v-0.1l0,0l0,0l0,0l0,0l0,0l0,0l0,0
		l0,0l0,0l0,0l0,0l0,0l0,0l0,0l0,0l0,0l0,0l0,0l0,0l0,0l0,0l0,0l0,0l0,0l0,0l0,0l0,0l0,0l0,0l0,0l0,0l0,0l0,0l0,0l0,0l0,0l0,0l0,0
		l0,0l0,0l0,0l0,0l0,0l0,0l0,0l0,0l0,0l0,0l0,0l0,0l0,0l0,0l0,0v-0.1l0,0l0,0l0,0v-0.1l0,0v-0.1l0,0l0,0l0.1-0.1l0,0v-0.1l0,0l0,0
		l0,0l0,0l0,0l0,0l0,0l0,0l0,0l0,0l0,0l0,0l0,0l0,0l0,0l0,0l0,0l0,0l0,0l0,0l0,0l0,0l0,0l0,0l0,0l0,0l0,0l0,0l0,0l0,0l0,0l0,0
		l0.1-0.1l0,0l0,0l0,0l0,0l0,0l0,0l0.3,0.1l0,0v0.1l0,0l0,0l0,0l0,0l0,0l0,0l0,0l0,0l0,0l0,0l0,0l0,0l0,0l0,0l0,0l0,0l0,0l0,0l0,0
		l0,0l0,0l0,0l0,0l0.3,0.1l0,0l0,0l0,0l0,0l0,0l0,0l0,0l0,0l0,0l0,0l0,0l0,0l0,0l0,0l0,0h0.1l0,0l0,0l0,0l0,0l0,0l0,0l0,0l0,0l0,0
		l0,0l0,0l0,0l0,0l0,0l0,0l0,0h-0.1l0,0l0,0v0.1l0,0l0,0l0,0l0,0l0,0l0,0l0,0l0,0h0.1v-0.1l0,0v0.1h-0.1l0,0l0,0l0,0l0,0l0,0l0,0
		l-0.1,0.2l0,0l0,0v0.1l0,0l0,0l0,0h0.1l0,0l0,0l0,0h-0.1l0,0l0,0v0.1v0.1v0.1v0.1l0,0v0.1l0,0l0,0v0.1l0,0v0.1l0,0l0,0v0.1l0,0l0,0
		l0,0l0,0v0.1l0,0v0.1l0,0l0,0l0,0v0.1v0.1v0.1v0.1v0.1l0,0v0.1l0,0l0,0l0,0l0,0l0,0l0,0l0,0l0,0v0.1l0,0l0,0l0,0l0,0l0,0l0,0l0,0
		l0,0v-0.1l0,0l0,0l0,0H353h-0.1h-0.4h-0.1l0,0l0,0l0,0l0,0l0,0l0,0l0,0l0,0l0,0l0,0l0,0l0,0l0,0l0,0l0,0l0,0l0,0l0,0l0,0l0,0l0,0
		l0,0l0,0l0,0l0,0l0,0l0,0v0.1l0,0l0,0l0,0l0,0l0,0l0,0v0.1v0.1v0.1v0.1v0.1v0.1v0.1v0.1l0,0v0.1l0,0l-0.1,0.3h-0.1h-0.1h-0.2h-0.2
		h-0.2h-0.7h-0.2h-0.3h-0.4h-0.2h-0.1h-0.2h-0.2h-0.3h-0.1h-0.2l-0.2-0.1l-0.3-0.1l-0.3-0.1l-0.2-0.1l-0.2-0.1l-0.2-0.1l-0.2-0.1
		l-0.1-0.1h-0.1l-0.1-0.1l-0.1-0.1l-0.1-0.1l-0.2-0.3l-0.1-0.3l-0.1-0.2l0,0v-0.1l-0.1-0.2l-0.2-0.2l-0.1-0.1l-0.1-0.1l-0.1-0.1
		l-0.1-0.1l0,0l0,0l0,0l0,0l0,0l0,0l-0.1-0.1l0,0l0,0v-0.1l0,0l0,0l0,0v-0.1l0,0l0,0l0,0l0,0l0,0l0,0l0,0h-0.1l0,0l0,0h-0.1l0,0l0,0
		l0,0l0,0l0,0l-0.2-0.1h-0.1h-0.1h-0.1l0,0l0,0l0,0l0,0l0,0h-0.1l0,0l0,0l0,0l0.5-0.4l0,0l-0.3-0.2l-0.6-0.4l0.1-0.1l0.2-0.2
		l0.1-0.1l0.4-0.3l0.7-0.4l-0.4-0.8v-0.1l-0.1-0.3l-0.1-0.2h-0.1l0,0l0,0l0,0l-0.1-0.2l-0.1-0.1l-0.1-0.1l0,0l-0.1-0.2l-0.1-0.2
		v-0.1l-0.3-0.2L344,419v-0.1v-0.2v-0.1l0.2-0.4h0.1h0.3l0.2,0.1v0.2l0.2,0.1l0.7-0.3l-0.1-0.3l0.4-0.8v-0.1l-0.2-0.4l0.3-0.1
		l0.1-0.1v-0.1l0,0l0.2-0.1l0,0v-0.1l-0.1-0.2l0.1-0.2l-0.3-0.3l0.2-0.2v-0.1v-0.1V415v-0.1l-0.2-0.2v-0.1l0.1-0.1l-0.1-0.1H346
		l-0.1-0.1l-0.1-0.2V414v-0.1v-0.1v-0.2l-0.1-0.1l-0.1-0.1v-0.1v-0.1v-0.1V413l0.1-0.2v-0.1l0.2-0.3l0.1-0.1l0.1-0.1l0.1-0.1
		l0.1-0.2v-0.2l0.1-0.1l0.1-0.2v-0.2l-0.1-0.1h-0.2v-0.2v-0.1v-0.1v-0.1l-0.1-0.1l-0.2-0.1h-0.2h-0.1l0,0v0.1l-0.1,0.1h-0.2h-0.2
		h-0.4h-0.2l-0.2-0.1l-0.1-0.1h-0.1H344h-0.2l-0.1,0.1v0.1v0.1v0.1l-0.1,0.1l-0.2,0.2l-0.1,0.1l-0.1,0.2l-0.1,0.1H343l-0.1,0.1
		l-0.1,0.1h-0.1h-0.1h-0.1l-0.3-0.1H342h-0.1l-0.2-0.4l-0.2-0.3v-0.1l0,0h0.2v-0.1v-0.2l0.1-0.2v-0.1l0.1-0.1l0.2,0.1h0.1h0.2h0.2
		l0.1-0.1l0.1-0.1v-0.1l0.1-0.2v-0.1h0.1v-0.1l-0.1-0.1v-0.1l-0.2-0.1v-0.1l-0.1-0.1v-0.1h-0.1l0,0l0,0v-0.1l0,0v-0.2v-0.2v-0.1
		v-0.1l-0.1-0.1h0.2h0.2l0.1-0.1h0.2v-0.2v-0.1l-0.1,0.1l-0.4-0.1h-0.1h-0.1h-0.2h-0.1H342v-0.2v-0.1l0.1-0.2h0.1h0.1l0.1-0.1l0,0
		l0.1-0.1l-0.1-0.1l-0.2-0.1h-0.1H342h-0.1l-0.1-0.2v-0.1l-0.1-0.1l-0.1-0.1v-0.1v-0.1V406v-0.1l0.1-0.1h0.1h0.2l0,0l0,0v0.1l0,0
		l0,0l0,0h0.1h0.1h0.1l0,0l0,0v0.1v0.2v0.1l0,0l0,0l0.2,0.1l0.2,0.1h0.1h0.2l0,0l0,0v0.1v0.1l0,0l0,0l0,0l0,0v-0.1v-0.1h0.1l0,0l0,0
		l0.1,0.1v0.1l0.1,0.1v0.1h0.1h0.1l0.2,0.1h0.1l0.4,0.1h0.2l0.1-0.2h0.1h0.1l0,0v-0.1l0.1-0.1l0.1-0.1l0.1-0.2l0.1-0.1v-0.1l0,0h0.1
		l0.1,0.1h0.1h0.1l0.1,0.1v0.1v0.1l0.1,0.2h0.1h0.1h0.1l0.1,0.1l0.1,0.1v0.1l0,0h0.1h0.2h0.1h0.2h0.3h0.1h0.1h0.2h0.2h0.1l0.2,0.1
		l0.1,0.1l0.1,0.1l0.3,0.1h0.2h0.1l0.1-0.1l0.1-0.2v-0.1V407l0.1-0.1l0.1-0.1l0.3-0.3l0.2-0.2l0.1-0.2l0.1-0.2l0.1-0.2v-0.3v-0.2
		l0.1-0.2v-0.1v-0.3v-0.3v-0.2l0.2-0.1l0.3-0.2v-0.2l0.1-0.1l0.1-0.1l0.1-0.1h0.1h0.1h0.1h0.1h0.1h0.2h0.1h0.1h0.1h0.1l0.2-0.1h0.1
		h0.2h0.1l0.1,0.1l0.1,0.1h0.1h0.1h0.1h0.1h0.2h0.1l0,0l0,0l0.1-0.1l0.1-0.2l0.1-0.1l0.1-0.1h0.1h0.1h0.2h0.1l0.2-0.1h0.2h0.1
		l0.1,0.1l0.1,0.1h0.1h0.1v-0.1v-0.1l0.1-0.1l0,0v-0.1l-0.1-0.1v-0.1v-0.1v-0.1v-0.1l0.1-0.1l0.1-0.2v-0.1v-0.1l0,0l0.1-0.2l0.1-0.2
		l0.1-0.1l0.3-0.2l0,0h0.1l0,0h0.1l0.1-0.1h0.1l0.1-0.1l0,0h0.1l0.1-0.1l0.1-0.1l0.1-0.1l0.2-0.1h0.1h0.1h0.1l0.1-0.1h0.4h0.1
		l-0.1-0.1V400h-0.1l-0.1-0.1v-0.2v-0.1l0.1,0.1h0.2l0.4-0.1h0.1l0.2,0.1l0.1-0.1l0.3-0.5l0.1,0.1h0.1h0.1h0.1l0.1-0.1l0.1-0.1
		l0.2-0.1h0.3l0.4-0.2l0.1,0.1l0.9,0.5h0.1h0.1h0.1h0.1h0.1L356.8,401.4z M334.7,408.3L334.7,408.3l0.2,0.2l0.1,0.1h0.1h0.2v0.1v0.1
		v0.2v0.1l0.1,0.1l0.1,0.1h0.3h0.1l0.1,0.1v0.1v0.1l-0.1,0.2v0.1l0,0l0.4,0.3v0.2v0.2v0.2l0.1,0.2v0.2v0.2l-0.1,0.1h-0.1h-0.1
		l-0.3,0.1h-0.1h-0.2l0,0l0.1,0.1v0.1v0.3l-0.1,0.2l-0.1,0.1l-0.2,0.1l0,0l0,0H335h-0.1l0,0v0.1v0.1v0.1l-0.1,0.1h-0.1h-0.1h-0.1
		l-0.1-0.1l-0.1-0.1v-0.1v-0.1v-0.2l0.3-0.3l0.1-0.2v-0.2v-0.1l0,0v-0.1v-0.1v-0.1l-0.1-0.3v-0.1l-0.1-0.1l-0.1-0.1l-0.1-0.1
		l-0.2-0.1l0,0h0.1l0.3-0.1l0.2-0.1l0.1-0.1V410v-0.2l0.1-0.3v-0.2v-0.2l-0.1-0.3v-0.2v-0.1v-0.1L334.7,408.3L334.7,408.3
		L334.7,408.3z M336.8,411.7L336.8,411.7L336.8,411.7l0.2,0.2l-0.1,0.1l-0.1,0.1l-0.1,0.1l-0.1,0.1v0.1v0.1l-0.1,0.1l-0.1,0.1
		l-0.1,0.1h-0.1l0,0l0,0v-0.1l0.1-0.2v-0.1v-0.1v-0.1v-0.1l0,0l0.1-0.1l0.1-0.1h0.1h0.1l0,0l0,0l0,0L336.8,411.7z M359.2,413.4
		L359.2,413.4L359.2,413.4v-0.1l0,0v-0.1l0,0l0,0l0,0l0,0l0,0l0,0l0,0l0,0l0,0l0,0l0,0V413.4L359.2,413.4l0.1-0.1l0,0l0,0l0,0l0,0
		l0,0l0,0L359.2,413.4L359.2,413.4L359.2,413.4L359.2,413.4L359.2,413.4L359.2,413.4L359.2,413.4L359.2,413.4L359.2,413.4
		L359.2,413.4L359.2,413.4z M359.2,413.4L359.2,413.4L359.2,413.4L359.2,413.4L359.2,413.4L359.2,413.4L359.2,413.4v0.1l0,0V413.4
		L359.2,413.4L359.2,413.4z M359.1,413.5L359.1,413.5L359.1,413.5L359.1,413.5L359.1,413.5L359.1,413.5L359.1,413.5v0.1l0,0V413.5
		L359.1,413.5L359.1,413.5z M358.5,414.2l0.1-0.1l0,0l0,0l0,0l0,0l0,0l0,0l0,0l0,0l0,0l0,0v0.1H358.5L358.5,414.2L358.5,414.2
		L358.5,414.2L358.5,414.2v0.1l0,0l0,0l0,0l0,0l0,0l0,0V414.2L358.5,414.2L358.5,414.2L358.5,414.2L358.5,414.2z M354.4,419.6
		L354.4,419.6L354.4,419.6L354.4,419.6L354.4,419.6L354.4,419.6l0.1-0.2l0,0l0,0l0,0l0,0l0,0L354.4,419.6z M351,426.8L351,426.8h0.1
		l0,0l0,0l0,0l0,0v-0.1v-0.1v-0.1l0,0H351v-0.1v-0.2v-0.1V426v-0.1v-0.1v-0.1l0,0l-0.1-0.1l0,0l0,0l0,0l0,0l0.1-0.8l0,0l0,0l0,0
		v-0.1h0.1l1.4-3h0.1v-0.1l0,0l0,0l0,0v0.1l0,0v0.1v0.2l0,0l0,0l0,0l0,0l0,0l0,0l0,0l0,0l0,0l0,0l0,0l0,0l0,0l0,0v0.1l0,0v0.1l0,0
		l0,0l0,0v0.1l-0.1,0.1v0.1v0.1l0,0l0,0l0,0l0,0l0,0l0,0l0,0v0.1l0,0l0,0l0,0l-0.1,0.1l0,0v0.1v0.1v0.1l0,0l0,0l0,0l0,0v0.1v0.1l0,0
		v0.1v0.1l0,0l0,0l0,0v0.1v0.1v0.1v0.1l0,0l0,0l0,0l0,0l0,0l0,0l0,0l0,0l0,0l0,0l0,0l0,0l0,0l0,0l0,0l0,0l0,0l0,0l0,0v0.1l0,0l0,0
		l0,0l0,0v0.1l0,0l0,0l0,0l0,0l0,0l0,0l0,0l0,0v0.1l0,0l0,0l0,0l0,0l0,0l0,0l0,0l0,0l0,0v0.1l0,0l0,0v0.1v0.1l0,0l0,0l0,0l0,0l0,0
		l0,0l0,0l0,0l0,0l0,0l0,0l0,0l0,0l0,0l0,0l0,0l0,0l0,0l0,0l0,0v0.1l0,0l0,0l0,0l0,0l0,0v0.1l0,0l0,0l0,0l0,0l0,0l0,0v0.1l0,0l0,0
		l0,0v0.1l0,0l0,0l0,0l0,0v0.1v0.1l0,0l0,0l0,0l0,0l0,0v0.1v0.1l0,0l0,0l0,0l0,0l0,0l0,0l0,0l0,0v0.1l0,0l0,0l0,0v0.1l0,0v0.1l0,0
		v0.1l0,0l0,0l0,0l0,0l0,0l0,0l0,0l0,0l0,0l0,0l0,0l0,0l0,0l0,0l0,0l0,0l0,0v0.1l0,0l0,0l0,0l0,0l0,0v0.1l0,0l0,0l0,0l0,0v0.1l0,0
		l0,0l0,0l0,0l0,0l0,0l0,0l0,0l0,0l0,0l0,0l0,0l0,0v0.1v0.1v0.1l0,0l0,0l0,0l0,0l0,0l0,0l0,0l0,0l0,0l0,0l0,0l0,0l0,0l0,0l0,0v0.1
		l0,0l0,0v0.1v0.1l0,0l0,0l0,0l0,0v0.1v0.1v0.1l0,0v0.1v0.1l0,0l0,0l0,0l0,0l0,0l0,0v0.1v0.1l0,0l0,0v0.1l0,0l0,0l0,0l0,0l0,0l0,0
		l0,0l0,0l0,0l0,0l0,0l0,0l0,0l0,0v-0.1v-0.1l-0.1-0.3l-0.1-0.3l-0.1-0.5l-0.1-0.2l-0.1-0.2l0,0l0,0l0.1-0.9l0.1-0.6H352l0,0h-0.1
		l0,0l0,0l0,0l0,0l0,0l0,0l0,0l0,0v0.1h0.1v-0.2l0,0l0,0l0,0l0,0l0,0l0,0l0,0V424v-0.1v-0.1v-0.1v-0.1L351,426.8L351,426.8
		L351,426.8L351,426.8z M348.6,426.7L348.6,426.7L348.6,426.7L348.6,426.7L348.6,426.7z"/>
</g>
</svg>
