<?xml version="1.0" encoding="utf-8"?>
<!-- Generator: Adobe Illustrator 24.0.1, SVG Export Plug-In . SVG Version: 6.00 Build 0)  -->
<svg version="1.1" id="graphic" xmlns="http://www.w3.org/2000/svg" xmlns:xlink="http://www.w3.org/1999/xlink" x="0px" y="0px"
	 viewBox="0 0 543.5 610.5" style="enable-background:new 0 0 543.5 610.5;" xml:space="preserve">
<style type="text/css">
	.st0{fill:#6685A3;}
	.st1{fill:#003366;}
	.st2{font-family:'OpenSans-Bold';}
	.st3{font-size:11px;}
	.st4{font-size:8px;}
	.st5{fill:#E3F1F3;}
	.st6{fill:#E0F3F4;}
	.st7{fill:#E5F8F8;}
	.st8{fill:#E9F9F9;}
	.st9{fill:#CBF4F4;}
	.st10{font-family:'OpenSans-SemiBold';}
	.st11{font-family:'OpenSans-Light';}
	.st12{font-size:9px;}
	.st13{font-size:14px;}
	.st14{fill:#A2CFF6;stroke:#FFFFFF;stroke-width:0.256;}
	.st15{fill:#5989B5;stroke:#FFFFFF;stroke-width:0.256;}
	.st16{fill:#003366;stroke:#FFFFFF;stroke-width:0.256;}
	.st17{fill:#16497A;stroke:#FFFFFF;stroke-width:0.256;}
</style>
<title>LABTurisme-provincies-turisme-rural-marc-2021</title>
<g>
	<path class="st0" d="M7.4,590.7h3.3v0.7H8.2v2h2.3v0.6H8.2v2.7H7.4L7.4,590.7z"/>
	<path class="st0" d="M15.7,594.5c0.1,1.2-0.8,2.2-1.9,2.3c-0.1,0-0.2,0-0.3,0c-1.1,0-2.1-0.9-2.1-2c0-0.1,0-0.1,0-0.2
		c-0.1-1.2,0.8-2.2,1.9-2.3c0.1,0,0.2,0,0.3,0c1.1,0,2.1,0.8,2.1,1.9C15.7,594.3,15.7,594.4,15.7,594.5z M12.3,594.6
		c0,1,0.5,1.7,1.3,1.7s1.3-0.7,1.3-1.7c0-0.7-0.4-1.7-1.3-1.7S12.3,593.7,12.3,594.6z"/>
	<path class="st0" d="M16.7,593.6v-1.2h0.7v0.7l0,0c0.3-0.5,0.8-0.8,1.4-0.8c0.6,0,1.5,0.4,1.5,1.9v2.6h-0.8v-2.5
		c0-0.7-0.3-1.3-1-1.3c-0.5,0-0.9,0.4-1.1,0.8c0,0.1-0.1,0.2-0.1,0.4v2.6h-0.8v-3.2H16.7z"/>
	<path class="st0" d="M22.7,591.1v1.3h1.1v0.6h-1.1v2.3c0,0.5,0.2,0.8,0.6,0.8c0.2,0,0.4,0,0.5-0.1v0.6c-0.2,0.1-0.5,0.1-0.7,0.1
		c-0.3,0-0.7-0.1-0.9-0.3c-0.2-0.3-0.3-0.7-0.3-1.1v-2.4h-0.7v-0.6h0.7v-1L22.7,591.1z"/>
	<path class="st0" d="M25,596c0.1-0.2,0.4-0.2,0.6,0c0.1,0.1,0.1,0.2,0.1,0.3c0,0.1,0,0.3-0.1,0.4c-0.1,0.2-0.4,0.2-0.6,0
		c-0.1-0.1-0.1-0.2-0.1-0.3C24.8,596.2,24.9,596.1,25,596z M25.3,592.6c0.2,0,0.3,0.2,0.3,0.4c0,0.2-0.2,0.3-0.4,0.3
		c-0.2,0-0.3-0.2-0.3-0.4c0-0.1,0-0.1,0.1-0.2C25.1,592.6,25.2,592.6,25.3,592.6z"/>
	<path class="st0" d="M34.9,593.9h-2.4v2.2h2.6v0.7h-3.4v-6.1H35v0.7h-2.5v1.9h2.4L34.9,593.9z"/>
	<path class="st0" d="M36.1,590.3h0.8v6.4h-0.8V590.3z"/>
	<path class="st0" d="M40.7,596.7l-0.1-0.5l0,0c-0.3,0.4-0.8,0.6-1.3,0.6c-0.7,0.1-1.2-0.4-1.3-1.1c0-0.1,0-0.1,0-0.2
		c0-1.1,0.9-1.6,2.6-1.6l0,0c0.1-0.5-0.3-0.9-0.7-1c-0.1,0-0.2,0-0.3,0c-0.4,0-0.8,0.1-1.1,0.3l-0.2-0.5c0.4-0.2,0.9-0.4,1.4-0.4
		c0.9-0.1,1.6,0.6,1.7,1.5c0,0.1,0,0.2,0,0.3v1.6c0,0.3,0,0.7,0.1,1L40.7,596.7z M40.6,594.5c-0.9,0-1.8,0.1-1.8,1
		c0,0.4,0.2,0.7,0.6,0.8c0,0,0.1,0,0.1,0c0.5,0,0.9-0.3,1.1-0.7V594.5z"/>
	<path class="st0" d="M42.6,596.7v-6.4h0.8v2.7l0,0c0.3-0.5,0.9-0.8,1.5-0.8c1.1,0,1.8,0.9,1.8,2.2c0.1,1.1-0.6,2.1-1.7,2.3
		c-0.1,0-0.2,0-0.3,0c-0.6,0-1.2-0.3-1.5-0.8l0,0v0.7L42.6,596.7z M43.4,595v0.3c0.2,0.5,0.6,0.9,1.2,0.9c0.8,0,1.3-0.7,1.3-1.7
		c0-0.9-0.5-1.6-1.3-1.6c-0.6,0-1,0.4-1.2,1V595z"/>
	<path class="st0" d="M51.7,594.5c0.1,1.2-0.8,2.2-1.9,2.3c-0.1,0-0.2,0-0.3,0c-1.1,0-2.1-0.9-2.1-2c0-0.1,0-0.1,0-0.2
		c-0.1-1.2,0.8-2.2,1.9-2.3c0.1,0,0.2,0,0.3,0c1.1,0,2.1,0.9,2.1,2C51.7,594.4,51.7,594.4,51.7,594.5z M48.2,594.6
		c0,1,0.5,1.7,1.3,1.7s1.3-0.7,1.3-1.7c0-0.7-0.4-1.7-1.3-1.7S48.2,593.7,48.2,594.6z"/>
	<path class="st0" d="M52.7,593.7v-1.4h0.7v0.9l0,0c0.2-0.6,0.6-1,1.2-1h0.2v0.7h-0.3c-0.6,0-1.1,0.4-1.1,1v2.7h-0.8
		C52.6,596.6,52.7,593.7,52.7,593.7z"/>
	<path class="st0" d="M58,596.7l-0.1-0.5l0,0c-0.3,0.4-0.8,0.6-1.3,0.6c-0.7,0.1-1.2-0.4-1.3-1.1c0-0.1,0-0.1,0-0.2
		c0-1.1,0.9-1.6,2.6-1.6l0,0c0.1-0.5-0.3-0.9-0.7-1c-0.1,0-0.2,0-0.3,0c-0.4,0-0.8,0.1-1.1,0.3l-0.2-0.5c0.4-0.2,0.9-0.4,1.4-0.4
		c0.9-0.1,1.6,0.6,1.7,1.5c0,0.1,0,0.2,0,0.3v1.6c0,0.3,0,0.7,0.1,1L58,596.7z M57.9,594.5c-0.9,0-1.8,0.1-1.8,1
		c0,0.4,0.2,0.7,0.6,0.8c0,0,0.1,0,0.1,0c0.5,0,0.9-0.3,1.1-0.7V594.5z"/>
	<path class="st0" d="M63.1,596.6c-0.4,0.2-0.8,0.3-1.3,0.3c-1.2,0.1-2.1-0.8-2.2-2c0-0.1,0-0.1,0-0.2c-0.1-1.2,0.9-2.2,2.1-2.3
		c0.1,0,0.1,0,0.2,0c0.4,0,0.8,0.1,1.1,0.2l-0.2,0.6c-0.3-0.1-0.6-0.2-0.9-0.2c-0.9,0.1-1.6,0.8-1.5,1.7c0.1,0.8,0.7,1.4,1.5,1.5
		c0.3,0,0.7-0.1,1-0.2L63.1,596.6z"/>
	<path class="st0" d="M64.9,591.1c0,0.3-0.2,0.5-0.5,0.5s-0.5-0.2-0.5-0.5s0.2-0.5,0.5-0.5C64.7,590.7,64.9,590.9,64.9,591.1z
		 M64,596.7v-4.4h0.8v4.4H64z"/>
	<path class="st0" d="M70,594.5c0.1,1.2-0.8,2.2-1.9,2.3c-0.1,0-0.2,0-0.3,0c-1.1,0-2.1-0.9-2.1-2c0-0.1,0-0.1,0-0.2
		c-0.1-1.2,0.8-2.2,1.9-2.3c0.1,0,0.2,0,0.3,0c1.1,0,2.1,0.8,2.1,1.9C70,594.3,70,594.4,70,594.5z M66.6,594.6c0,1,0.5,1.7,1.3,1.7
		s1.3-0.7,1.3-1.7c0-0.7-0.4-1.7-1.3-1.7S66.6,593.7,66.6,594.6z M69.1,590.5l-1.1,1.3h-0.6l0.8-1.3H69.1z"/>
	<path class="st0" d="M75.5,593.8v-1.4h0.7v0.7l0,0c0.3-0.5,0.9-0.8,1.5-0.8c1.1,0,1.8,0.9,1.8,2.2c0.1,1.1-0.6,2.1-1.7,2.3
		c-0.1,0-0.2,0-0.3,0c-0.5,0-1-0.2-1.3-0.7l0,0v2.4h-0.8v-4.7H75.5z M76.3,595v0.3c0.1,0.5,0.6,0.9,1.2,0.9c0.8,0,1.3-0.7,1.3-1.7
		c0-0.9-0.5-1.6-1.3-1.6c-0.6,0-1,0.4-1.2,1c0,0.1-0.1,0.2-0.1,0.3L76.3,595z"/>
	<path class="st0" d="M80.6,593.7v-1.4h0.7v0.9l0,0c0.2-0.6,0.6-1,1.2-1h0.2v0.7h-0.3c-0.6,0-1.1,0.4-1.1,1v2.7h-0.8v-2.9H80.6z"/>
	<path class="st0" d="M87.5,594.5c0.1,1.2-0.8,2.2-1.9,2.3c-0.1,0-0.2,0-0.3,0c-1.1,0-2.1-0.9-2.1-2c0-0.1,0-0.1,0-0.2
		c-0.1-1.2,0.8-2.2,1.9-2.3c0.1,0,0.2,0,0.3,0c1.1,0,2.1,0.8,2.1,1.9C87.5,594.3,87.5,594.4,87.5,594.5z M84.1,594.6
		c0,1,0.5,1.7,1.3,1.7s1.3-0.7,1.3-1.7c0-0.7-0.4-1.7-1.3-1.7S84.1,593.7,84.1,594.6z M85.1,590.5l0.8,1.3h-0.6l-1.1-1.3H85.1z"/>
	<path class="st0" d="M88.5,593.8v-1.4h0.7v0.7l0,0c0.3-0.5,0.9-0.8,1.5-0.8c1.1,0,1.8,0.9,1.8,2.2c0.1,1.1-0.6,2.1-1.7,2.3
		c-0.1,0-0.2,0-0.3,0c-0.5,0-1-0.2-1.3-0.7l0,0v2.4h-0.8v-4.7H88.5z M89.3,595v0.3c0.1,0.5,0.6,0.9,1.2,0.9c0.8,0,1.3-0.7,1.3-1.7
		c0-0.9-0.5-1.6-1.3-1.6c-0.6,0-1,0.4-1.2,1c0,0.1-0.1,0.2-0.1,0.3L89.3,595z"/>
	<path class="st0" d="M94.5,591.1c0,0.3-0.2,0.5-0.5,0.5s-0.5-0.2-0.5-0.5s0.2-0.5,0.5-0.5C94.3,590.7,94.5,590.9,94.5,591.1z
		 M93.7,596.7v-4.4h0.8v4.4H93.7z"/>
	<path class="st0" d="M98.2,596.7l-0.1-0.5l0,0c-0.3,0.4-0.8,0.6-1.3,0.6c-0.7,0.1-1.2-0.4-1.3-1.1c0-0.1,0-0.1,0-0.2
		c0-1.1,0.9-1.6,2.6-1.6l0,0c0.1-0.5-0.3-0.9-0.7-1c-0.1,0-0.2,0-0.3,0c-0.4,0-0.8,0.1-1.1,0.3l-0.2-0.5c0.4-0.2,0.9-0.4,1.4-0.4
		c0.9-0.1,1.6,0.6,1.7,1.5c0,0.1,0,0.2,0,0.3v1.6c0,0.3,0,0.7,0.1,1L98.2,596.7z M98.1,594.5c-0.9,0-1.8,0.1-1.8,1
		c0,0.4,0.2,0.7,0.6,0.8c0,0,0.1,0,0.1,0c0.5,0,0.9-0.3,1.1-0.7C98.1,595.6,98.1,594.5,98.1,594.5z"/>
	<path class="st0" d="M108.4,590.3v6.4h-0.7v-0.8l0,0c-0.3,0.6-0.9,0.9-1.5,0.9c-1.1,0-2-1-1.9-2.1c0,0,0-0.1,0-0.1
		c-0.1-1.1,0.6-2.1,1.8-2.3c0.1,0,0.2,0,0.2,0c0.5-0.1,1,0.2,1.3,0.7l0,0v-2.6L108.4,590.3L108.4,590.3z M107.6,594.1v-0.3
		c-0.1-0.5-0.6-0.9-1.1-0.9c-0.8,0-1.3,0.7-1.3,1.7c0,0.9,0.4,1.6,1.3,1.6c0.5,0,1-0.4,1.2-0.9V595L107.6,594.1L107.6,594.1z"/>
	<path class="st0" d="M110.1,594.7c-0.1,0.7,0.5,1.4,1.2,1.5c0.1,0,0.2,0,0.3,0c0.4,0,0.8-0.1,1.2-0.2l0.1,0.6
		c-0.4,0.2-0.9,0.3-1.4,0.3c-1.1,0-2.1-0.8-2.1-1.9c0-0.1,0-0.2,0-0.3c-0.1-1.1,0.7-2.2,1.9-2.3c0,0,0.1,0,0.1,0c1,0,1.9,0.9,1.8,2
		c0,0,0,0.1,0,0.1v0.4h-3.1V594.7z M112.4,594.1c0-0.5-0.2-1.3-1.1-1.3c-0.7,0-1.2,0.6-1.2,1.3c0,0,0,0,0,0H112.4z"/>
	<path class="st0" d="M114.2,590.3h0.8v6.4h-0.8V590.3z"/>
	<path class="st0" d="M120.8,590.7h0.8v5.4h2.6v0.7h-3.4L120.8,590.7L120.8,590.7z"/>
	<path class="st0" d="M126.1,594.8l-0.6,1.9h-0.8l2.1-6.1h0.9l2.1,6.1H129l-0.6-1.9H126.1z M128.1,594.2l-0.6-1.7
		c-0.1-0.4-0.2-0.8-0.3-1.1l0,0c-0.1,0.4-0.2,0.7-0.3,1.1l-0.6,1.8L128.1,594.2L128.1,594.2z"/>
	<path class="st0" d="M130.6,590.7c0.5-0.1,0.9-0.1,1.4-0.1c0.6-0.1,1.2,0.1,1.7,0.4c0.3,0.3,0.5,0.7,0.5,1.1c0,0.6-0.4,1.1-1,1.3
		l0,0c0.7,0.1,1.3,0.7,1.3,1.5c0,0.5-0.2,0.9-0.5,1.2c-0.6,0.5-1.3,0.7-2.1,0.6c-0.4,0-0.8,0-1.2-0.1L130.6,590.7L130.6,590.7z
		 M131.4,593.2h0.7c0.8,0,1.3-0.4,1.3-1c0-0.7-0.5-1-1.3-1c-0.4,0-0.6,0-0.7,0.1V593.2z M131.4,596.1h0.7c0.8,0,1.6-0.3,1.6-1.2
		c0-0.8-0.7-1.2-1.6-1.2h-0.6L131.4,596.1L131.4,596.1z"/>
	<path class="st0" d="M136.4,591.1v1.3h1.1v0.6h-1.1v2.3c0,0.5,0.2,0.8,0.6,0.8c0.2,0,0.4,0,0.5-0.1v0.6c-0.2,0.1-0.5,0.1-0.7,0.1
		c-0.3,0-0.7-0.1-0.9-0.3c-0.2-0.3-0.3-0.7-0.3-1.1v-2.4h-0.7v-0.6h0.7v-1L136.4,591.1z"/>
	<path class="st0" d="M142.1,595.5v1.2h-0.7V596l0,0c-0.3,0.5-0.8,0.8-1.4,0.8c-0.7,0-1.5-0.4-1.5-1.9v-2.5h0.8v2.4
		c0,0.8,0.3,1.4,1,1.4c0.4,0,0.8-0.3,1-0.7c0-0.1,0.1-0.3,0.1-0.4v-2.7h0.8v3.1L142.1,595.5z"/>
	<path class="st0" d="M143.4,593.7v-1.4h0.7v0.9l0,0c0.2-0.6,0.6-1,1.2-1h0.2v0.7h-0.3c-0.6,0-1.1,0.4-1.1,1v2.7h-0.8v-2.9H143.4z"
		/>
	<path class="st0" d="M147.2,591.1c0,0.3-0.2,0.5-0.5,0.5s-0.5-0.2-0.5-0.5s0.2-0.5,0.5-0.5C147,590.7,147.2,590.9,147.2,591.1z
		 M146.3,596.7v-4.4h0.8v4.4H146.3z"/>
	<path class="st0" d="M148.3,595.9c0.3,0.2,0.6,0.3,1,0.3c0.6,0,0.8-0.3,0.8-0.6c0-0.4-0.2-0.6-0.8-0.8c-0.8-0.3-1.2-0.7-1.2-1.2
		c0-0.8,0.7-1.3,1.4-1.3c0,0,0,0,0.1,0c0.4,0,0.8,0.1,1.1,0.3l-0.2,0.6c-0.3-0.2-0.6-0.3-0.9-0.3c-0.5,0-0.7,0.3-0.7,0.6
		c0,0.4,0.3,0.5,0.8,0.7c0.8,0.3,1.1,0.7,1.1,1.3c0,0.8-0.6,1.3-1.6,1.3c-0.4,0-0.8-0.1-1.2-0.3L148.3,595.9z"/>
	<path class="st0" d="M152,593.6v-1.2h0.7v0.7l0,0c0.3-0.5,0.8-0.8,1.4-0.8c0.6,0,1,0.4,1.2,0.9l0,0c0.1-0.2,0.3-0.4,0.5-0.6
		c0.3-0.2,0.6-0.3,1-0.3c0.6,0,1.4,0.4,1.4,1.9v2.6h-0.8v-2.5c0-0.8-0.3-1.3-0.9-1.3c-0.4,0-0.8,0.3-0.9,0.7c0,0.1-0.1,0.3-0.1,0.4
		v2.7h-0.8v-2.6c0-0.7-0.3-1.2-0.9-1.2c-0.5,0-0.9,0.3-1,0.8c0,0.1-0.1,0.3-0.1,0.4v2.6H152L152,593.6L152,593.6z"/>
	<path class="st0" d="M159.9,594.7c-0.1,0.7,0.5,1.4,1.2,1.5c0.1,0,0.2,0,0.3,0c0.4,0,0.8-0.1,1.2-0.2l0.1,0.6
		c-0.4,0.2-0.9,0.3-1.4,0.3c-1.1,0-2.1-0.8-2.1-1.9c0-0.1,0-0.2,0-0.3c-0.1-1.1,0.7-2.2,1.9-2.3c0,0,0.1,0,0.1,0c1,0,1.9,0.9,1.8,2
		c0,0,0,0.1,0,0.1v0.4h-3.1V594.7z M162.3,594.1c0-0.5-0.2-1.3-1.1-1.3c-0.7,0-1.2,0.6-1.2,1.3c0,0,0,0,0,0H162.3z"/>
	<path class="st0" d="M168.9,594.7c-0.1,0.7,0.5,1.4,1.2,1.5c0.1,0,0.2,0,0.3,0c0.4,0,0.8-0.1,1.2-0.2l0.1,0.6
		c-0.4,0.2-0.9,0.3-1.4,0.3c-1.1,0-2.1-0.8-2.1-1.9c0-0.1,0-0.2,0-0.3c-0.1-1.1,0.7-2.2,1.9-2.3c0,0,0.1,0,0.1,0c1,0,1.9,0.9,1.8,2
		c0,0,0,0.1,0,0.1v0.4h-3.1V594.7z M171.3,594.1c0-0.5-0.2-1.3-1.1-1.3c-0.7,0-1.2,0.6-1.2,1.3c0,0,0,0,0,0H171.3z"/>
	<path class="st0" d="M173,593.6v-1.2h0.7v0.7l0,0c0.3-0.5,0.8-0.8,1.4-0.8c0.6,0,1.5,0.4,1.5,1.9v2.6h-0.8v-2.5
		c0-0.7-0.3-1.3-1-1.3c-0.5,0-0.9,0.4-1.1,0.8c0,0.1-0.1,0.2-0.1,0.4v2.6H173L173,593.6L173,593.6z"/>
	<path class="st0" d="M182.5,596.7v-6.4h0.8v2.7l0,0c0.3-0.5,0.9-0.8,1.5-0.8c1.1,0,1.8,0.9,1.8,2.2c0.1,1.1-0.6,2.1-1.7,2.3
		c-0.1,0-0.2,0-0.3,0c-0.6,0-1.2-0.3-1.5-0.8l0,0v0.7L182.5,596.7z M183.3,595v0.3c0.2,0.5,0.6,0.9,1.2,0.9c0.8,0,1.3-0.7,1.3-1.7
		c0-0.9-0.5-1.6-1.3-1.6c-0.6,0-1,0.4-1.2,1V595z"/>
	<path class="st0" d="M190,596.7l-0.1-0.5l0,0c-0.3,0.4-0.8,0.6-1.3,0.6c-0.7,0.1-1.2-0.4-1.3-1.1c0-0.1,0-0.1,0-0.2
		c0-1.1,0.9-1.6,2.6-1.6l0,0c0.1-0.5-0.3-0.9-0.7-1c-0.1,0-0.2,0-0.3,0c-0.4,0-0.8,0.1-1.1,0.3l-0.2-0.5c0.4-0.2,0.9-0.4,1.4-0.4
		c0.9-0.1,1.6,0.6,1.7,1.5c0,0.1,0,0.2,0,0.3v1.6c0,0.3,0,0.7,0.1,1L190,596.7z M189.9,594.5c-0.9,0-1.8,0.1-1.8,1
		c0,0.4,0.2,0.7,0.6,0.8c0,0,0.1,0,0.1,0c0.5,0,0.9-0.3,1.1-0.7V594.5z"/>
	<path class="st0" d="M191.9,595.9c0.3,0.2,0.6,0.3,1,0.3c0.6,0,0.8-0.3,0.8-0.6c0-0.4-0.2-0.6-0.8-0.8c-0.8-0.3-1.2-0.7-1.2-1.2
		c0-0.8,0.7-1.3,1.4-1.3c0,0,0,0,0.1,0c0.4,0,0.8,0.1,1.1,0.3l-0.2,0.6c-0.3-0.2-0.6-0.3-0.9-0.3c-0.5,0-0.7,0.3-0.7,0.6
		c0,0.4,0.3,0.5,0.8,0.7c0.8,0.3,1.1,0.7,1.1,1.3c0,0.8-0.6,1.3-1.6,1.3c-0.4,0-0.8-0.1-1.2-0.3L191.9,595.9z"/>
	<path class="st0" d="M196,594.7c-0.1,0.7,0.5,1.4,1.2,1.5c0.1,0,0.2,0,0.3,0c0.4,0,0.8-0.1,1.2-0.2l0.1,0.6
		c-0.4,0.2-0.9,0.3-1.4,0.3c-1.1,0-2.1-0.8-2.1-1.9c0-0.1,0-0.2,0-0.3c-0.1-1.1,0.7-2.2,1.9-2.3c0,0,0.1,0,0.1,0c1,0,1.9,0.9,1.8,2
		c0,0,0,0.1,0,0.1v0.4H196V594.7z M198.3,594.1c0-0.5-0.2-1.3-1.1-1.3c-0.7,0-1.2,0.6-1.2,1.3c0,0,0,0,0,0H198.3z"/>
	<path class="st0" d="M207,596.7l-0.1-0.5l0,0c-0.3,0.4-0.8,0.6-1.3,0.6c-0.7,0.1-1.2-0.4-1.3-1.1c0-0.1,0-0.1,0-0.2
		c0-1.1,0.9-1.6,2.6-1.6l0,0c0.1-0.5-0.3-0.9-0.7-1c-0.1,0-0.2,0-0.3,0c-0.4,0-0.8,0.1-1.1,0.3l-0.2-0.5c0.4-0.2,0.9-0.4,1.4-0.4
		c0.9-0.1,1.6,0.6,1.7,1.5c0,0.1,0,0.2,0,0.3v1.6c0,0.3,0,0.7,0.1,1L207,596.7z M206.8,594.5c-0.9,0-1.8,0.1-1.8,1
		c0,0.4,0.2,0.7,0.6,0.8c0,0,0.1,0,0.1,0c0.5,0,0.9-0.3,1.1-0.7V594.5z"/>
	<path class="st0" d="M217.1,590.3v6.4h-0.7v-0.8l0,0c-0.3,0.6-0.9,0.9-1.5,0.9c-1.1,0-2-1-1.9-2.1c0,0,0-0.1,0-0.1
		c-0.1-1.1,0.6-2.1,1.8-2.3c0.1,0,0.2,0,0.2,0c0.5-0.1,1,0.2,1.3,0.7l0,0v-2.6L217.1,590.3L217.1,590.3z M216.3,594.1v-0.3
		c-0.1-0.5-0.6-0.9-1.1-0.9c-0.8,0-1.3,0.7-1.3,1.7c0,0.9,0.4,1.6,1.3,1.6c0.5,0,1-0.4,1.2-0.9V595L216.3,594.1L216.3,594.1z"/>
	<path class="st0" d="M220.9,596.7l-0.1-0.5l0,0c-0.3,0.4-0.8,0.6-1.3,0.6c-0.7,0.1-1.2-0.4-1.3-1.1c0-0.1,0-0.1,0-0.2
		c0-1.1,0.9-1.6,2.6-1.6l0,0c0.1-0.5-0.3-0.9-0.7-1c-0.1,0-0.2,0-0.3,0c-0.4,0-0.8,0.1-1.1,0.3l-0.2-0.5c0.4-0.2,0.9-0.4,1.4-0.4
		c0.9-0.1,1.6,0.6,1.7,1.5c0,0.1,0,0.2,0,0.3v1.6c0,0.3,0,0.7,0.1,1L220.9,596.7z M220.8,594.5c-0.9,0-1.8,0.1-1.8,1
		c0,0.4,0.2,0.7,0.6,0.8c0,0,0.1,0,0.1,0c0.5,0,0.9-0.3,1.1-0.7V594.5z"/>
	<path class="st0" d="M226.6,590.3v6.4h-0.7v-0.8l0,0c-0.3,0.6-0.9,0.9-1.5,0.9c-1.1,0-2-1-1.9-2.1c0,0,0-0.1,0-0.1
		c-0.1-1.1,0.6-2.1,1.8-2.3c0.1,0,0.2,0,0.2,0c0.5-0.1,1,0.2,1.3,0.7l0,0v-2.6L226.6,590.3L226.6,590.3z M225.8,594.1v-0.3
		c-0.1-0.5-0.6-0.9-1.1-0.9c-0.8,0-1.3,0.7-1.3,1.7c0,0.9,0.4,1.6,1.3,1.6c0.5,0,1-0.4,1.2-0.9V595L225.8,594.1L225.8,594.1z"/>
	<path class="st0" d="M228.3,594.7c-0.1,0.7,0.5,1.4,1.2,1.5c0.1,0,0.2,0,0.3,0c0.4,0,0.8-0.1,1.2-0.2l0.1,0.6
		c-0.4,0.2-0.9,0.3-1.4,0.3c-1.1,0-2.1-0.8-2.1-1.9c0-0.1,0-0.2,0-0.3c-0.1-1.1,0.7-2.2,1.9-2.3c0,0,0.1,0,0.1,0c1,0,1.9,0.9,1.8,2
		c0,0,0,0.1,0,0.1v0.4h-3.1V594.7z M230.6,594.1c0-0.5-0.2-1.3-1.1-1.3c-0.7,0-1.2,0.6-1.2,1.3c0,0,0,0,0,0H230.6z"/>
	<path class="st0" d="M232.3,595.9c0.3,0.2,0.6,0.3,1,0.3c0.6,0,0.8-0.3,0.8-0.6c0-0.4-0.2-0.6-0.8-0.8c-0.8-0.3-1.2-0.7-1.2-1.2
		c0-0.8,0.7-1.3,1.4-1.3c0,0,0,0,0.1,0c0.4,0,0.8,0.1,1.1,0.3l-0.2,0.6c-0.3-0.2-0.6-0.3-0.9-0.3c-0.5,0-0.7,0.3-0.7,0.6
		c0,0.4,0.3,0.5,0.8,0.7c0.8,0.3,1.1,0.7,1.1,1.3c0,0.8-0.6,1.3-1.6,1.3c-0.4,0-0.8-0.1-1.2-0.3L232.3,595.9z"/>
	<path class="st0" d="M244.2,590.3v6.4h-0.7v-0.8l0,0c-0.3,0.6-0.9,0.9-1.5,0.9c-1.1,0-2-1-1.9-2.1c0,0,0-0.1,0-0.1
		c-0.1-1.1,0.6-2.1,1.8-2.3c0.1,0,0.2,0,0.2,0c0.5-0.1,1,0.2,1.3,0.7l0,0v-2.6L244.2,590.3L244.2,590.3z M243.4,594.1v-0.3
		c-0.1-0.5-0.6-0.9-1.1-0.9c-0.8,0-1.3,0.7-1.3,1.7c0,0.9,0.4,1.6,1.3,1.6c0.5,0,1-0.4,1.2-0.9V595L243.4,594.1L243.4,594.1z"/>
	<path class="st0" d="M246,594.7c-0.1,0.7,0.5,1.4,1.2,1.5c0.1,0,0.2,0,0.3,0c0.4,0,0.8-0.1,1.2-0.2l0.1,0.6
		c-0.4,0.2-0.9,0.3-1.4,0.3c-1.1,0-2.1-0.8-2.1-1.9c0-0.1,0-0.2,0-0.3c-0.1-1.1,0.7-2.2,1.9-2.3c0,0,0.1,0,0.1,0c1,0,1.9,0.9,1.8,2
		c0,0,0,0.1,0,0.1v0.4H246L246,594.7L246,594.7z M248.3,594.1c0-0.5-0.2-1.3-1.1-1.3c-0.7,0-1.2,0.6-1.2,1.3c0,0,0,0,0,0H248.3z"/>
	<path class="st0" d="M254.5,590.3h0.8v6.4h-0.8V590.3z"/>
	<path class="st0" d="M257.2,590.6l-0.2,2.2h-0.5l-0.1-2.2H257.2z"/>
	<path class="st0" d="M261.5,593.9h-2.4v2.2h2.6v0.7h-3.4v-6.1h3.3v0.7h-2.5v1.9h2.4L261.5,593.9L261.5,593.9z"/>
	<path class="st0" d="M262.8,593.6v-1.2h0.7v0.7l0,0c0.3-0.5,0.8-0.8,1.4-0.8c0.6,0,1.5,0.4,1.5,1.9v2.6h-0.8v-2.5
		c0-0.7-0.3-1.3-1-1.3c-0.5,0-0.9,0.4-1.1,0.8c0,0.1-0.1,0.2-0.1,0.4v2.6h-0.8v-3.2H262.8z"/>
	<path class="st0" d="M270.7,596.1L270.7,596.1c-0.3,0.5-0.8,0.8-1.4,0.8c-1.1-0.1-1.9-1-1.8-2.1c0,0,0,0,0-0.1
		c-0.1-1.1,0.7-2.2,1.9-2.3c0,0,0.1,0,0.1,0c0.6-0.1,1.1,0.3,1.3,0.8l0,0v-0.7h0.7v6.1h-0.8L270.7,596.1L270.7,596.1z M270.7,594.1
		v-0.3c-0.1-0.5-0.6-0.9-1.1-0.9c-0.8,0-1.3,0.7-1.3,1.7c0,0.9,0.4,1.6,1.3,1.6c0.5,0,1-0.4,1.1-0.9c0-0.1,0.1-0.3,0.1-0.4v-0.8
		L270.7,594.1z"/>
	<path class="st0" d="M276.5,595.5v1.2h-0.7V596l0,0c-0.3,0.5-0.8,0.8-1.4,0.8c-0.7,0-1.5-0.4-1.5-1.9v-2.5h0.8v2.4
		c0,0.8,0.3,1.4,1,1.4c0.4,0,0.8-0.3,1-0.7c0-0.1,0.1-0.3,0.1-0.4v-2.7h0.8L276.5,595.5L276.5,595.5z"/>
	<path class="st0" d="M278.2,594.7c-0.1,0.7,0.5,1.4,1.2,1.5c0.1,0,0.2,0,0.3,0c0.4,0,0.8-0.1,1.2-0.2l0.1,0.6
		c-0.4,0.2-0.9,0.3-1.4,0.3c-1.1,0-2.1-0.8-2.1-1.9c0-0.1,0-0.2,0-0.3c-0.1-1.1,0.7-2.2,1.9-2.3c0,0,0.1,0,0.1,0c1,0,1.9,0.9,1.8,2
		c0,0,0,0.1,0,0.1v0.4h-3.1V594.7z M280.6,594.1c0-0.5-0.2-1.3-1.1-1.3c-0.7,0-1.2,0.6-1.2,1.3c0,0,0,0,0,0H280.6z"/>
	<path class="st0" d="M282.2,595.9c0.3,0.2,0.6,0.3,1,0.3c0.6,0,0.8-0.3,0.8-0.6c0-0.4-0.2-0.6-0.8-0.8c-0.8-0.3-1.2-0.7-1.2-1.2
		c0-0.8,0.7-1.3,1.4-1.3c0,0,0,0,0.1,0c0.4,0,0.8,0.1,1.1,0.3l-0.2,0.6c-0.3-0.2-0.6-0.3-0.9-0.3c-0.5,0-0.7,0.3-0.7,0.6
		c0,0.4,0.3,0.5,0.8,0.7c0.8,0.3,1.1,0.7,1.1,1.3c0,0.8-0.6,1.3-1.6,1.3c-0.4,0-0.8-0.1-1.2-0.3L282.2,595.9z"/>
	<path class="st0" d="M286.8,591.1v1.3h1.1v0.6h-1.1v2.3c0,0.5,0.2,0.8,0.6,0.8c0.2,0,0.4,0,0.5-0.1v0.6c-0.2,0.1-0.5,0.1-0.7,0.1
		c-0.3,0-0.7-0.1-0.9-0.3c-0.2-0.3-0.3-0.7-0.3-1.1v-2.4h-0.7v-0.6h0.7v-1L286.8,591.1z"/>
	<path class="st0" d="M291.3,596.7l-0.1-0.5l0,0c-0.3,0.4-0.8,0.6-1.3,0.6c-0.7,0.1-1.2-0.4-1.3-1.1c0-0.1,0-0.1,0-0.2
		c0-1.1,0.9-1.6,2.6-1.6l0,0c0.1-0.5-0.3-0.9-0.7-1c-0.1,0-0.2,0-0.3,0c-0.4,0-0.8,0.1-1.1,0.3l-0.2-0.5c0.4-0.2,0.9-0.4,1.4-0.4
		c0.9-0.1,1.6,0.6,1.7,1.5c0,0.1,0,0.2,0,0.3v1.6c0,0.3,0,0.7,0.1,1L291.3,596.7z M291.1,594.5c-0.9,0-1.8,0.1-1.8,1
		c0,0.4,0.2,0.7,0.6,0.8c0,0,0.1,0,0.1,0c0.5,0,0.9-0.3,1.1-0.7L291.1,594.5L291.1,594.5z"/>
	<path class="st0" d="M301.4,590.3v6.4h-0.7v-0.8l0,0c-0.3,0.6-0.9,0.9-1.5,0.9c-1.1,0-2-1-1.9-2.1c0,0,0-0.1,0-0.1
		c-0.1-1.1,0.6-2.1,1.8-2.3c0.1,0,0.2,0,0.2,0c0.5-0.1,1,0.2,1.3,0.7l0,0v-2.6L301.4,590.3L301.4,590.3z M300.7,594.1v-0.3
		c-0.1-0.5-0.6-0.9-1.1-0.9c-0.8,0-1.3,0.7-1.3,1.7c0,0.9,0.4,1.6,1.3,1.6c0.5,0,1-0.4,1.2-0.9v-1.2L300.7,594.1z"/>
	<path class="st0" d="M303.3,590.6l-0.2,2.2h-0.5l-0.1-2.2H303.3z"/>
	<path class="st0" d="M308.4,594.5c0.1,1.2-0.8,2.2-1.9,2.3c-0.1,0-0.2,0-0.3,0c-1.1,0-2.1-0.9-2.1-2c0-0.1,0-0.1,0-0.2
		c-0.1-1.2,0.8-2.2,1.9-2.3c0.1,0,0.2,0,0.3,0c1.1,0,2.1,0.9,2.1,2C308.4,594.4,308.4,594.4,308.4,594.5z M304.9,594.6
		c0,1,0.5,1.7,1.3,1.7s1.3-0.7,1.3-1.7c0-0.7-0.4-1.7-1.3-1.7S304.9,593.7,304.9,594.6z"/>
	<path class="st0" d="M312.5,596.6c-0.4,0.2-0.8,0.3-1.3,0.3c-1.2,0.1-2.1-0.8-2.2-2c0-0.1,0-0.1,0-0.2c-0.1-1.2,0.9-2.2,2.1-2.3
		c0.1,0,0.1,0,0.2,0c0.4,0,0.8,0.1,1.1,0.2l-0.2,0.6c-0.3-0.1-0.6-0.2-0.9-0.2c-0.9,0.1-1.6,0.8-1.5,1.7c0.1,0.8,0.7,1.4,1.5,1.5
		c0.3,0,0.7-0.1,1-0.2L312.5,596.6z"/>
	<path class="st0" d="M317.1,595.5v1.2h-0.7V596l0,0c-0.3,0.5-0.8,0.8-1.4,0.8c-0.7,0-1.5-0.4-1.5-1.9v-2.5h0.8v2.4
		c0,0.8,0.3,1.4,1,1.4c0.4,0,0.8-0.3,1-0.7c0-0.1,0.1-0.3,0.1-0.4v-2.7h0.8L317.1,595.5L317.1,595.5z"/>
	<path class="st0" d="M318.4,593.8v-1.4h0.7v0.7l0,0c0.3-0.5,0.9-0.8,1.5-0.8c1.1,0,1.8,0.9,1.8,2.2c0.1,1.1-0.6,2.1-1.7,2.3
		c-0.1,0-0.2,0-0.3,0c-0.5,0-1-0.2-1.3-0.7l0,0v2.4h-0.8L318.4,593.8z M319.2,595v0.3c0.1,0.5,0.6,0.9,1.2,0.9
		c0.8,0,1.3-0.7,1.3-1.7c0-0.9-0.5-1.6-1.3-1.6c-0.6,0-1,0.4-1.2,1c0,0.1-0.1,0.2-0.1,0.3v0.8H319.2z"/>
	<path class="st0" d="M325.9,596.7l-0.1-0.5l0,0c-0.3,0.4-0.8,0.6-1.3,0.6c-0.7,0.1-1.2-0.4-1.3-1.1c0-0.1,0-0.1,0-0.2
		c0-1.1,0.9-1.6,2.6-1.6l0,0c0.1-0.5-0.3-0.9-0.7-1c-0.1,0-0.2,0-0.3,0c-0.4,0-0.8,0.1-1.1,0.3l-0.2-0.5c0.4-0.2,0.9-0.4,1.4-0.4
		c0.9-0.1,1.6,0.6,1.7,1.5c0,0.1,0,0.2,0,0.3v1.6c0,0.3,0,0.7,0.1,1L325.9,596.7z M325.8,594.5c-0.9,0-1.8,0.1-1.8,1
		c0,0.4,0.2,0.7,0.6,0.8c0,0,0.1,0,0.1,0c0.5,0,0.9-0.3,1.1-0.7L325.8,594.5L325.8,594.5z"/>
	<path class="st0" d="M330.9,596.6c-0.4,0.2-0.8,0.3-1.3,0.3c-1.2,0.1-2.1-0.8-2.2-2c0-0.1,0-0.1,0-0.2c-0.1-1.2,0.9-2.2,2.1-2.3
		c0.1,0,0.1,0,0.2,0c0.4,0,0.8,0.1,1.1,0.2l-0.2,0.6c-0.3-0.1-0.6-0.2-0.9-0.2c-0.9,0.1-1.6,0.8-1.5,1.7c0.1,0.8,0.7,1.4,1.5,1.5
		c0.3,0,0.7-0.1,1-0.2L330.9,596.6z"/>
	<path class="st0" d="M332.8,591.1c0,0.3-0.2,0.5-0.5,0.5s-0.5-0.2-0.5-0.5s0.2-0.5,0.5-0.5C332.6,590.7,332.8,590.9,332.8,591.1z
		 M331.9,596.7v-4.4h0.8v4.4H331.9z"/>
	<path class="st0" d="M337.9,594.5c0.1,1.2-0.8,2.2-1.9,2.3c-0.1,0-0.2,0-0.3,0c-1.1,0-2.1-0.9-2.1-2c0-0.1,0-0.1,0-0.2
		c-0.1-1.2,0.8-2.2,1.9-2.3c0.1,0,0.2,0,0.3,0c1.1,0,2.1,0.8,2.1,1.9C337.9,594.3,337.9,594.4,337.9,594.5z M334.5,594.6
		c0,1,0.5,1.7,1.3,1.7s1.3-0.7,1.3-1.7c0-0.7-0.4-1.7-1.3-1.7S334.5,593.7,334.5,594.6z M337,590.5l-1.1,1.3h-0.6l0.8-1.3H337z"/>
	<path class="st0" d="M343.9,594.7c-0.1,0.7,0.5,1.4,1.2,1.5c0.1,0,0.2,0,0.3,0c0.4,0,0.8-0.1,1.2-0.2l0.1,0.6
		c-0.4,0.2-0.9,0.3-1.4,0.3c-1.1,0-2.1-0.8-2.1-1.9c0-0.1,0-0.2,0-0.3c-0.1-1.1,0.7-2.2,1.9-2.3c0,0,0.1,0,0.1,0c1,0,1.9,0.9,1.8,2
		c0,0,0,0.1,0,0.1v0.4h-3.1V594.7z M346.2,594.1c0-0.5-0.2-1.3-1.1-1.3c-0.7,0-1.2,0.6-1.2,1.3c0,0,0,0,0,0H346.2z"/>
	<path class="st0" d="M347.9,593.6v-1.2h0.7v0.7l0,0c0.3-0.5,0.8-0.8,1.4-0.8c0.6,0,1.5,0.4,1.5,1.9v2.6h-0.8v-2.5
		c0-0.7-0.3-1.3-1-1.3c-0.5,0-0.9,0.4-1.1,0.8c0,0.1-0.1,0.2-0.1,0.4v2.6h-0.8v-3.2H347.9z"/>
	<path class="st0" d="M359.8,596.7l-0.1-0.5l0,0c-0.3,0.4-0.8,0.6-1.3,0.6c-0.7,0.1-1.2-0.4-1.3-1.1c0-0.1,0-0.1,0-0.2
		c0-1.1,0.9-1.6,2.6-1.6l0,0c0.1-0.5-0.3-0.9-0.7-1c-0.1,0-0.2,0-0.3,0c-0.4,0-0.8,0.1-1.1,0.3l-0.2-0.5c0.4-0.2,0.9-0.4,1.4-0.4
		c0.9-0.1,1.6,0.6,1.7,1.5c0,0.1,0,0.2,0,0.3v1.6c0,0.3,0,0.7,0.1,1L359.8,596.7z M359.7,594.5c-0.9,0-1.8,0.1-1.8,1
		c0,0.4,0.2,0.7,0.6,0.8c0,0,0.1,0,0.1,0c0.5,0,0.9-0.3,1.1-0.7L359.7,594.5L359.7,594.5z"/>
	<path class="st0" d="M361.8,590.3h0.8v6.4h-0.8V590.3z"/>
	<path class="st0" d="M363.9,590.3h0.8v6.4h-0.8V590.3z"/>
	<path class="st0" d="M370,594.5c0.1,1.2-0.8,2.2-1.9,2.3c-0.1,0-0.2,0-0.3,0c-1.1,0-2.1-0.9-2.1-2c0-0.1,0-0.1,0-0.2
		c-0.1-1.2,0.8-2.2,1.9-2.3c0.1,0,0.2,0,0.3,0c1.1,0,2.1,0.9,2.1,2C370,594.4,370,594.4,370,594.5z M366.5,594.6
		c0,1,0.5,1.7,1.3,1.7s1.3-0.7,1.3-1.7c0-0.7-0.4-1.7-1.3-1.7S366.5,593.7,366.5,594.6z"/>
	<path class="st0" d="M371.9,591.1v1.3h1.1v0.6h-1.1v2.3c0,0.5,0.2,0.8,0.6,0.8c0.2,0,0.4,0,0.5-0.1v0.6c-0.2,0.1-0.5,0.1-0.7,0.1
		c-0.3,0-0.7-0.1-0.9-0.3c-0.2-0.3-0.3-0.7-0.3-1.1v-2.4h-0.7v-0.6h0.7v-1L371.9,591.1z"/>
	<path class="st0" d="M372.9,598c0.3,0,0.7-0.1,0.9-0.3c0.3-0.5,0.4-1,0.3-1.6v-3.6h0.8v4c0.1,0.6-0.1,1.3-0.5,1.8
		c-0.4,0.4-0.9,0.5-1.4,0.5L372.9,598z M374.9,591.1c0,0.3-0.2,0.5-0.5,0.5s-0.5-0.2-0.5-0.5s0.2-0.5,0.5-0.5
		C374.7,590.7,374.9,590.9,374.9,591.1z"/>
	<path class="st0" d="M378.5,596.7l-0.1-0.5l0,0c-0.3,0.4-0.8,0.6-1.3,0.6c-0.7,0.1-1.2-0.4-1.3-1.1c0-0.1,0-0.1,0-0.2
		c0-1.1,0.9-1.6,2.6-1.6l0,0c0.1-0.5-0.3-0.9-0.7-1c-0.1,0-0.2,0-0.3,0c-0.4,0-0.8,0.1-1.1,0.3l-0.2-0.5c0.4-0.2,0.9-0.4,1.4-0.4
		c0.9-0.1,1.6,0.6,1.7,1.5c0,0.1,0,0.2,0,0.3v1.6c0,0.3,0,0.7,0.1,1L378.5,596.7z M378.4,594.5c-0.9,0-1.8,0.1-1.8,1
		c0,0.4,0.2,0.7,0.6,0.8c0,0,0.1,0,0.1,0c0.5,0,0.9-0.3,1.1-0.7L378.4,594.5L378.4,594.5z"/>
	<path class="st0" d="M380.5,593.6v-1.2h0.7v0.7l0,0c0.3-0.5,0.8-0.8,1.4-0.8c0.6,0,1,0.4,1.2,0.9l0,0c0.1-0.2,0.3-0.4,0.5-0.6
		c0.3-0.2,0.6-0.3,1-0.3c0.6,0,1.4,0.4,1.4,1.9v2.6h-0.8v-2.5c0-0.8-0.3-1.3-0.9-1.3c-0.4,0-0.8,0.3-0.9,0.7c0,0.1-0.1,0.3-0.1,0.4
		v2.7h-0.8v-2.6c0-0.7-0.3-1.2-0.9-1.2c-0.5,0-0.9,0.3-1,0.8c0,0.1-0.1,0.3-0.1,0.4v2.6h-0.8L380.5,593.6L380.5,593.6z"/>
	<path class="st0" d="M388.4,594.7c-0.1,0.7,0.5,1.4,1.2,1.5c0.1,0,0.2,0,0.3,0c0.4,0,0.8-0.1,1.2-0.2l0.1,0.6
		c-0.4,0.2-0.9,0.3-1.4,0.3c-1.1,0-2.1-0.8-2.1-1.9c0-0.1,0-0.2,0-0.3c-0.1-1.1,0.7-2.2,1.9-2.3c0,0,0.1,0,0.1,0c1,0,1.9,0.9,1.8,2
		c0,0,0,0.1,0,0.1v0.4h-3.1V594.7z M390.7,594.1c0-0.5-0.2-1.3-1.1-1.3c-0.7,0-1.2,0.6-1.2,1.3c0,0,0,0,0,0H390.7z"/>
	<path class="st0" d="M392.5,593.6v-1.2h0.7v0.7l0,0c0.3-0.5,0.8-0.8,1.4-0.8c0.6,0,1.5,0.4,1.5,1.9v2.6h-0.8v-2.5
		c0-0.7-0.3-1.3-1-1.3c-0.5,0-0.9,0.4-1.1,0.8c0,0.1-0.1,0.2-0.1,0.4v2.6h-0.8v-3.2H392.5z"/>
	<path class="st0" d="M398.4,591.1v1.3h1.1v0.6h-1.1v2.3c0,0.5,0.2,0.8,0.6,0.8c0.2,0,0.4,0,0.5-0.1v0.6c-0.2,0.1-0.5,0.1-0.7,0.1
		c-0.3,0-0.7-0.1-0.9-0.3c-0.2-0.3-0.3-0.7-0.3-1.1v-2.4H397v-0.6h0.7v-1L398.4,591.1z"/>
	<path class="st0" d="M400.3,595.9c0.3,0.2,0.6,0.3,1,0.3c0.6,0,0.8-0.3,0.8-0.6c0-0.4-0.2-0.6-0.8-0.8c-0.8-0.3-1.2-0.7-1.2-1.2
		c0-0.8,0.7-1.3,1.4-1.3c0,0,0,0,0.1,0c0.4,0,0.8,0.1,1.1,0.3l-0.2,0.6c-0.3-0.2-0.6-0.3-0.9-0.3c-0.5,0-0.7,0.3-0.7,0.6
		c0,0.4,0.3,0.5,0.8,0.7c0.8,0.3,1.1,0.7,1.1,1.3c0,0.8-0.6,1.3-1.6,1.3c-0.4,0-0.8-0.1-1.2-0.3L400.3,595.9z"/>
	<path class="st0" d="M412.3,590.3v6.4h-0.7v-0.8l0,0c-0.3,0.6-0.9,0.9-1.5,0.9c-1.1,0-2-1-1.9-2.1c0,0,0-0.1,0-0.1
		c-0.1-1.1,0.6-2.1,1.8-2.3c0.1,0,0.2,0,0.2,0c0.5-0.1,1,0.2,1.3,0.7l0,0v-2.6L412.3,590.3L412.3,590.3z M411.5,594.1v-0.3
		c-0.1-0.5-0.6-0.9-1.1-0.9c-0.8,0-1.3,0.7-1.3,1.7c0,0.9,0.4,1.6,1.3,1.6c0.5,0,1-0.4,1.2-0.9v-1.2L411.5,594.1z"/>
	<path class="st0" d="M414,594.7c-0.1,0.7,0.5,1.4,1.2,1.5c0.1,0,0.2,0,0.3,0c0.4,0,0.8-0.1,1.2-0.2l0.1,0.6
		c-0.4,0.2-0.9,0.3-1.4,0.3c-1.1,0-2.1-0.8-2.1-1.9c0-0.1,0-0.2,0-0.3c-0.1-1.1,0.7-2.2,1.9-2.3c0,0,0.1,0,0.1,0c1,0,1.9,0.9,1.8,2
		c0,0,0,0.1,0,0.1v0.4H414V594.7z M416.3,594.1c0-0.5-0.2-1.3-1.1-1.3c-0.7,0-1.2,0.6-1.2,1.3c0,0,0,0,0,0H416.3z"/>
	<path class="st0" d="M422.6,590.3h0.8v6.4h-0.8V590.3z"/>
	<path class="st0" d="M425.3,590.6l-0.2,2.2h-0.5l-0.1-2.2H425.3z"/>
	<path class="st0" d="M427.2,590.7v6.1h-0.8v-6.1H427.2z"/>
	<path class="st0" d="M428.6,596.7v-6.1h0.9l1.9,3.1c0.4,0.6,0.8,1.3,1.1,2l0,0c-0.1-0.8-0.1-1.7-0.1-2.5v-2.5h0.7v6.1h-0.8
		l-1.9-3.1c-0.4-0.7-0.8-1.4-1.1-2l0,0c0,0.8,0.1,1.5,0.1,2.5v2.6L428.6,596.7L428.6,596.7z"/>
	<path class="st0" d="M437.6,593.9h-2.4v2.2h2.6v0.7h-3.4v-6.1h3.3v0.7h-2.5v1.9h2.4V593.9z"/>
</g>
<text transform="matrix(1 0 0 1 353.2897 107.0977)" class="st1 st2 st3">GIRONA</text>
<text transform="matrix(1 0 0 1 13.0659 164.4982)" class="st1 st2 st3">LLEIDA</text>
<text transform="matrix(1 0 0 1 13.066 176.9506)" class="st1 st2 st4">VARIACIÓ INT. 2020</text>
<text transform="matrix(1 0 0 1 91.866 176.9506)" class="st0 st2 st4">| 2019</text>
<path class="st5" d="M200.6,326.5c1.4,1.6,0.3,1.8-1,1.9C198.7,327.3,200.5,327.3,200.6,326.5z"/>
<path class="st6" d="M243.2,412.7c-0.1-0.9-0.5-1.8,0.5-2.4c0.5,0.3,0.9-1.6,1.3,0c0.1,0.5,1.1,1.6-0.4,1.6
	C243.8,411.7,243.7,412.4,243.2,412.7z"/>
<path class="st7" d="M348.1,226.9c0-0.2,0-0.5-0.1-0.7c0.8-1.7,2.2-1,3.5-1.2C350.7,226.2,349,225.7,348.1,226.9z"/>
<path class="st8" d="M357.2,224.9c0.9,0.5,1,1.4,1.2,2.2C356.9,227.2,356.7,226.2,357.2,224.9z"/>
<path class="st9" d="M343.4,222.1v-0.7c0.9,0.4,2.1-0.5,2.8,0.7H343.4z"/>
<text transform="matrix(1 0 0 1 13.0658 193.2034)" class="st1 st10 st4">Ocupació:  </text>
<text transform="matrix(1 0 0 1 13.0658 202.8035)" class="st1 st10 st4">5,5% (-2,8 pp)</text>
<text transform="matrix(1 0 0 1 64.2658 202.8035)" class="st0 st10 st4"> | -4.0 pp</text>
<g>
	<text transform="matrix(1 0 0 1 71.0402 37.9283)" class="st0 st11 st12">Els creixements més alts aquest més en turisme rural s’han obtingut a l’entorn de Barcelona, tot i que</text>
	<text transform="matrix(1 0 0 1 108.5402 48.7283)" class="st0 st11 st12"> la província de Girona presenta els valors absoluts més alts en els tres indicadors.. </text>
	<text transform="matrix(1 0 0 1 163.7402 59.5284)" class="st0 st11 st12">Entre parèntesi, variació interanual respecte l’any 2020</text>
</g>
<image style="overflow:visible;enable-background:new    ;" width="564" height="62" xlink:href="32476878.jpg"  transform="matrix(0.2243 0 0 0.2243 212.5873 72.8391)">
</image>
<text transform="matrix(1 0 0 1 13.0662 217.0327)" class="st1 st10 st4">Viatgers:</text>
<text transform="matrix(1 0 0 1 13.0662 226.6326)" class="st1 st10 st4">1.862 (+41,5%)</text>
<text transform="matrix(1 0 0 1 13.0658 239.2087)" class="st1 st10 st4">Pernoctacions:</text>
<text transform="matrix(1 0 0 1 13.0658 248.8087)" class="st1 st10 st4">4.526 (+15,7%)</text>
<text transform="matrix(1 0 0 1 70.0658 248.8087)" class="st0 st10 st4">| -59,5%%</text>
<text transform="matrix(1 0 0 1 353.2898 118.2678)" class="st1 st2 st4">VARIACIÓ INT. 2020</text>
<text transform="matrix(1 0 0 1 432.0898 118.2678)" class="st0 st2 st4">| 2019</text>
<text transform="matrix(1 0 0 1 353.2895 134.3519)" class="st1 st10 st4">Ocupació:  8,7% (-1,3 pp)  </text>
<text transform="matrix(1 0 0 1 451.0895 134.3519)" class="st0 st10 st4">| +13,8 pp</text>
<text transform="matrix(1 0 0 1 353.2896 148.011)" class="st1 st10 st4">Viatgers: 5.318 (+39,4%)</text>
<text transform="matrix(1 0 0 1 443.8896 148.011)" class="st0 st10 st4"> | -62,3%</text>
<text transform="matrix(1 0 0 1 353.2896 159.8904)" class="st1 st10 st4">Pernoctacions: 13.349 (+78,1%)</text>
<text transform="matrix(1 0 0 1 470.2617 159.8902)" class="st0 st10 st4"> | -47,8%</text>
<text transform="matrix(1 0 0 1 383.8902 407.0171)" class="st1 st2 st3">ENTORN DE BARCELONA</text>
<text transform="matrix(1 0 0 1 383.8902 418.1873)" class="st1 st2 st4">VARIACIÓ INT. 2020</text>
<text transform="matrix(1 0 0 1 462.6902 418.1873)" class="st0 st2 st4">| 2019</text>
<text transform="matrix(1 0 0 1 383.89 434.2712)" class="st1 st10 st4">Ocupació: 7,9% (2,9 pp)</text>
<text transform="matrix(1 0 0 1 474.89 434.2712)" class="st0 st10 st4">| -7,7 pp</text>
<text transform="matrix(1 0 0 1 383.8901 447.9305)" class="st1 st10 st4">Viatgers: 3.303 (+119,2%)</text>
<text transform="matrix(1 0 0 1 478.9901 447.9305)" class="st0 st10 st4"> | -74,3%</text>
<text transform="matrix(1 0 0 1 383.8902 462.1137)" class="st1 st10 st4">Pernoctacions: 7.822 (+132,2%)</text>
<text transform="matrix(1 0 0 1 502.3902 462.1137)" class="st0 st10 st4"> | -68,3%</text>
<text transform="matrix(1 0 0 1 176.8401 498.3532)" class="st1 st2 st3">TARRAGONA</text>
<text transform="matrix(1 0 0 1 176.8401 509.5234)" class="st1 st2 st4">VARIACIÓ INT. 2020</text>
<text transform="matrix(1 0 0 1 255.6401 509.5234)" class="st0 st2 st4">| 2019</text>
<text transform="matrix(1 0 0 1 176.8399 525.6075)" class="st1 st10 st4">Ocupació: 2,9% (-1,5 pp)</text>
<text transform="matrix(1 0 0 1 270.4399 525.6075)" class="st0 st10 st4">| -6,4 pp</text>
<text transform="matrix(1 0 0 1 176.8399 539.2667)" class="st1 st10 st4">Viatgers: 697 (-11,2%)</text>
<text transform="matrix(1 0 0 1 264.5398 539.2664)" class="st0 st10 st4">| -82,0 %</text>
<text transform="matrix(1 0 0 1 176.8401 553.45)" class="st1 st10 st4">Pernoctacions: 1.640 (+12,6%)</text>
<text transform="matrix(1 0 0 1 294.5601 553.4504)" class="st0 st10 st4">| -75,3%</text>
<text transform="matrix(1 0 0 1 224.7426 23.5569)" class="st1 st10 st13">Turisme rural</text>
<g id="regions-layer">
	<path class="st14" d="M101.7,576.3L89.4,571l-0.7-3.7l1.8-2.7l-6-3l-0.3-2l-10.2-1l-8.8-4l-2.4-4l0.4-2.7l3.9-5.3l-4.9-4.3l-3.9,1
		l-1.7-6.3l-4.2,1.7l-4.2-1.7l-1-2l-0.7-1.3l2.5,1.7l0-3l2.1,1l3.5-3.6l2.5,0.3l1.4-4.6l6.4-7l-2.8-4l-0.3-1l-0.3-5.6l-2.4-2
		l8.5-18.2h-1.8l0-3l-2.1-2.6l1.1-1l-2.4-1.3l0.4-1.7l2.8-0.3l-2.8-1l-2.1-3l-2.5,1.3l0-2.6l-2.5,0.3l2.1-1.3l-1.7-1.7l0.4-2.3
		l-0.7-2.6h-2.5l1.4-6.6l-1.4-1.3l3.2-2l-1-0.7l5.3,1.3l0.7-4.3l3.5,0.3l4.6-3l2.2-11.2L75,431l2.8,1.3l0.7-2.3h2.8l-1-2.6l1.8-5.9
		l7.4,0.7l0.4-9.2l4.2-3l6.6,9.2h3.5l4.2-7.6l4.2,1.3l3.5,5.6l3.5,0.3l6-3l0.7-0.7h1.1l11.9-1.6l1.8-3.6l2.4,0.7h2.1l0,0.3l3.9,0.7
		l0.7-1.3l0.4-1l0.7-4l1.8-1l3.8,4.9l13.7-3l2.1-0.7l-0.3-2.3l2.8-4.9l1.7,0.7l1.4-3.3l4.2-1l2.8-5.6l1.4-1.3l0.4-0.3l2.1-2l0.7-1
		l-2.1-1.3l-3.8-3l1.4-0.7l-1-3.6l10.5,5.6l0,1.3l11.2-4l-2.4-5.3l1.8-3.6l-1.7-1l1.4,0.7L204,368l7-2l0.4-3.6l4.9-0.3l8.7-0.3
		l15.7,2.6l-1.7-3.6l4.5-1.3l4.9,2.6l-3.5,2.6l0.3,1.3l2.1-0.7l0.3,3.3l-6.3,0.3l-1.8,4.6l7.7,3.6l0.7,1.6h3.5l1.7,3.3h0.4l-2.8,5.3
		l0.7,1.6l2.8,0.3l-2.5,1.3l1,1.6l1,4.3l-2.5,3.6l5.3-2.6l4.9,2l2.1,3.3h2.8l1.1,2.3h0.4l-3.2,2.6l2.1,5.6l3.5,1.3l-0.7,3.3l3.5,2
		l0.4-1.6l3.5-0.7l-1.4,0.3l-1,8.2l-8.1-1.3l1.1,3.6l7.4,4l2.5-2.3l1.1,4.6l-0.3,3.3l-20.7,3.6l-7,2.3l-11.2,7.3l-5.3,0.3l-10.2,0.3
		l-7.4,4l-3.5,4.3l3.5-4.3l-2.8,1.7l-2.8-0.7l-3.5,3.3l-2.8,6.6h-1.8l-2.4-3.3l-3.9-0.7l-6,2.6l-5.6-0.3l-10.2,5.3l-6.7,6.6
		l-0.7,2.6l-5.6,3.3l-6,6.3l-10.2,15.9l-6.7,4.3l-1.4,4.6l-6.7,4l1,3.6l4.6,4.3l7-0.3l0-1.3l-7.7-2.3l0.7-1.3l3.9-0.3l3.2,2
		l8.4,10.9l3.9-1l3.2,2l-1.4,6.3l-6.7,5.3l-10.2,5l-12.7,16.6l-10.2,2.3l-3.2-3l-0.3-2.3l3.2,0.3l0,0l0.4-1.7l2.5,0.7l0,0.3l0,0.3
		l0.3,0.3l1.1,0.3l0.7,0.3h0.4l0.4-0.3l0-0.3l0-0.7h0.7l0-0.3l0-0.3l0.7-1.7l8.4-0.3l4.2-6.6l0.7-2.3h-1.1l-0.4-0.3h-0.4l-20.8,3.3
		l-9.9,11.3L101.7,576.3z"/>
	<path class="st15" d="M287.9,297.1l0-1.6l2.8,1l-0.7,1.3L287.9,297.1z M185.1,389.1l-2.8,5.6l-4.2,1l-1.4,3.3l-1.7-0.7l-2.8,4.9
		l0.3,2.3l-2.1,0.7l-13.7,3l-3.8-4.9l-1.8,1l-0.7,4l-0.4,1l-0.7,1.3l-3.9-0.7l0-0.3h-2.1l-2.4-0.7l-1.8,3.6l-11.9,1.6h-1.1l-0.7,0.7
		l-6,3l-3.5-0.3l-3.5-5.6l-4.2-1.3l-4.2,7.6h-3.5l-6.6-9.2l-4.2,3l-0.4,9.2l-7.4-0.7l-3.1-5.3l0.7-3l-3.1-1.6l3.9-5.3l-1.7-3.3
		l-6.6-5.3l2.5-2.6l3.2-9.2l-1.7-1.6l-0.3-4.6l6.7-0.3l2.8-2l6.7-10.9l-2.4-3.3l-0.3-7.6l-3.9,1.6l-8.4-1.3l-0.3-4.6l1.8-2l-4.9-5.9
		l0-3.3l6.7-7.6l2.5-5.3l1.4,1.6l0.7-5.3l11.2-1.6l1.8-6.9l5.3-4.6l4.2,0.7l1.8-6.6l4.2,0.3l0-2.6l4.2-1.6l-2.4-2.6l1.4-4.9l-1-1.3
		l2.1-0.7l-7-3l0-1.3l4.6-5.9l1.7,1.6l3.2-6.6l2.4-0.3l0.3,2.3l0.7-2.9l1.7-0.7l1.1-2.9l-1.4-0.7l0-3.6l2.4-2l-0.3-2.9l4.9-9.2
		l-0.7-9.5l2.8-2l-1.7-1.3l0-4.3l1.8-6.9l3.2-4.9l1.8-10.8l3.1-4.2l-3.5-1l0-2l4.5-2.9l-7.6-2.9l3.5-3.9l-8.3-19.9l1.4-2.3l2.1,1.3
		l4.2-3.3l-3.1-1.6l0-2.3l0.7-1.6l3.8-0.7l-1.4-1.6l4.2-12.4l0-1.3l-3.5-0.7l-5.9-1.3l-1.7-7.5l-3.1-3.6l-2.4-2.9h2.4l1.1-2.9
		l-3.1-9.4l-3.1-0.3l3.8-4.6l-3.1-1.6l3.8-3.6l-1.7-7.5l3.1-1.9l-0.3-1.3l4.5-1.3l10.7,5.2l3.1-1l9.4,2.9l10.4,7.5l5.9-3.2l2.8,3.6
		h8l1.7,1.3l4.5-0.3l0.7-1.3l8,6.8l0.7,5.5l4.9,3.9l10.4-3.9l3.1,2.6l11.1-2l4.9,1l-0.7,3.9l5.9,2.6l-0.4,3.9l3.8,2.3l1,6.5l3.5,4.2
		l-2.4,4.6l2.8,2.6l-2.8,1.6l-2.1,4.9l4.9-1.6l3.8,6.8l-7.7,4.6l3.1,2l0.3,6.8l2.1,1.6l15,0.7l1-5.2l3.5,1.6l1.4-2.9l10.4-0.7
		l1.7-7.5l2.1,2.3l3.5,0.7l3.1-2.9l0.7,2.6l-1,1l1.4,9.5l5.9,2.3l3.8-0.3l2.1,2.6l-1.4,8.2l1.4,1.6l3.1-2.6l4.2,2.6l-3.1,2.9
		l1.1,9.8l-1.7,1h-4.2l-3.8,2l-6.3,0.3l-0.7,1.3l-2.8-1l-7.3,1.3l3.1,1l0.7,2.6l-1.4,1.6l3.1,3.3l-0.7,2l-3.1,1.3l0.7,3.6l3.5,3.3
		l1.7-1.3l3.1,1.3l-0.3,1l0,1.6v0.3l0.4,2.6l-1.4,0.7l-3.5,2l-1.4,4.3l1.4,1l-0.3,3.6l2.8,2.3l-1,2l-3.8-0.7l-2.8,6.2l-0.7,2.6
		l1.4,1l0.7-2l2.4,4.3l-3.8,1.6l-1,3.3l-0.4-3.6h-1.4l-1.4,4.3l1,1.6l1-2.3l0,2.3l3.8-0.3l1.7,2l0-6.2l3.5,3.3l-0.7,1.6l0.4,1.6
		l-5.2,3.3L282,280l1-2l-3.8,1l-0.3,6.6l-1,1l1.7,2.6h-2.1l-8.4,8.2l-1.4-1l-1.4,2.6l2.4,1.3l2.4-2.3l2.8,0.7l0.7,1.6l1.4,5.9
		l-3.1,1.3l0,3.9l-3.5,2.6l1.7,3.3l-1,2.3l-2.8-1l-2.1,1v1.6l-2.1-0.3l-0.3,3l-2.4,1v-2.6l-1-0.3l-1.7-1l-0.3-0.3v-0.3l-0.3-0.3
		l-0.3-2.6h-2.8l-1,3.6v-0.3l-1.4,0.3l0-5.9l-1.7,0.3h-1.4l-3.8-0.7l-1.4,1.3l-2.1,10.2l3.1,2.6l-6.3,5.3l2.4,0.3l-0.7,2l1.4,2
		l3.1,0.3l-1.4,2l3.8,5.3v0.3h1.7v1.3l-3.1,2.3l-5.6-1.3l-5.2,4.3l7.3,3l-2.5,4.9l1.7,3.6l-15.7-2.6l-8.7,0.3l-4.9,0.3l-0.4,3.6
		l-7,2l0.7,1.6l-1.4-0.7l1.7,1l-1.8,3.6l2.4,5.3l-11.2,4l0-1.3l-10.5-5.6l1,3.6l-1.4,0.7l3.8,3l2.1,1.3l-0.7,1l-2.1,2l-0.4,0.3
		L185.1,389.1z M285.4,251.9l-3.1-0.7l-4.2,0.3l4.2,2h3.1L285.4,251.9z"/>
	<path class="st16" d="M333.6,250.6l0-0.3l0.3-1l2.8-1.3l1.4,1.6l-1.7,0.7l-0.3,2.3l-1.7,0.3L333.6,250.6z M328.5,177.4l1-2.6h2.1
		l1,1.6l-1.7,3.3l4.2,4.2l-8.4-1l0.3-5.2L328.5,177.4z M533.8,215.9l-0.4-0.3l0.3-0.3h0.3l0,0.7H533.8z M523,265.6l-0.4-0.3
		l-0.4-0.3l0-0.3l1-0.3L523,265.6z M384.6,303.6l-0.7-4.9l1.7-1.6l4.9,1l1.1,2.3l1.4-0.3l3.5-4.3l3.8,0.7l0,0.3l2.1-0.3l5.6-4.9
		l-0.4-3l-2.5-1.6l-0.4-0.3l-3.1-0.3l0.3-2.6l-2.1-2l0.7-1.6l6.3,0.7l2.1-2.9l-3.1-2l4.9-1.6l-0.7-3.9l1.4-2l-3.5-4.3l2.4-1.3
		l-1.4-2h-0.3l0,0.3h-0.3l-0.7-1.6l-2.8-0.3l-1.7,0.3l-3.5,2.6l-3.1-2.3l-2.1-3.9l0.7-2.3h-3.1l-0.7-2.3l-2.8-0.7l0-0.3h-1.7
		l-3.8,1.3h-0.3l-3.5,2.3l1-3.6l0-0.3l-1.1-2l-2.4-1.6l-1-0.3l0-0.3l-2.8,1l-2.8-1.3l-2.1,0.3l-1,0.3l-0.3,0.3H366l-0.7,1.6
		l-2.4,1.6l-0.7-2.3l-6.6,0.7l-2.4,3.3l-4.2-2l-1.4-3.9l-4.9,1.6l-3.5-1.3l-1-2l-4.2,0.7l0-1l-2.1-5.6l-3.8,0.7l-0.4-4.3l6.6,1.3
		l-1.4,0.3l1,1.6l-1.4,2.3l1.4,2l2.4-0.3l1.7-2.6l4.5-0.3l0.3-2.9l-1.7-0.3l-0.7-5.2l0-0.3l-2.8,1.3L336,228l1.4-2l0-0.3l0.3-2.3
		l1-1l0-0.3l2.8-3.9l0-0.3l2.4-2.3l-8-3.9l-5.2,2.6l-4.9-3.6l-1.4,1.3l-0.4-1.3l-5.9-1.6l-9.4,3.6l-1.1-9.8l3.1-2.9l-4.2-2.6
		l-3.1,2.6l-1.4-1.6l1.4-8.2l-2.1-2.6l-3.8,0.3l-5.9-2.3l-1.4-9.5l1-1l14.6,1L316,184l4.9,0.3l2.4-1.6l0.7,5.2l2.8,1l0.7,8.5
		l3.8,4.6l4.2,2.3l2.4-2l8.4-1l1-2.6l3.5-1.3l0-2.6l3.5-4.2l2.8-1.3l8,1l7.6-4.2l6.3,3.3l2.4-1.3l8.4,5.5l10.4,1.6l0.4,3.9l2.8,0.7
		l3.9,5.9l3.5-0.3l3.5,2h2.8l1.7-4.2l2.8-0.7l15.3,3.6l1-2.9l-2.1-1.6L434,196h3.1l0.7-3.6l10.4-3.9l5.2,2.6l3.5-1.6l2.4-3.9
		l1.7,0.3l2.1-4.2l3.1,1l1-2.6l2.8,1.6l5.9,0.3l1-3.3l2.8-1.3l2.8,2.9l4.5-1.6l2.8,1.6l4.2-1.6l2.5,5.5l4.6,4.2l5.6-2.3l8,0.3
		l-0.3,0.7l-1.7,0.7l1,0.7l0.3,0.3l0,0.3l0,0.3l0,0.3l0,0.3l-0.3,0.7h-0.3l0,0.3l0,0.3H513l-1,1.3l1.4,0.7l0,0.3l-0.3,0.3h-0.3
		l-1,1.3h0.3l0,0.3h1.7l0,0.3l-1.7,2l0.4,1h0.3l1,0.7l0,0.3l0,0.3l0,0.3h-0.3l-0.3,0.3l0.4,0.3l1.1,1.3l0.7,0.3l0.4,0.3h0.7l0.7,0.7
		l-0.3,1l0.7,0.7l0.4,0.7l1.4,0.7l0.7-2.6l1,0.3l0.7-0.7h2.8l0.7,1l0,1h0.3l0,0.3l1.4,1.3l1.4-0.7h0.3l0-0.3l0-0.7l1.4,0.3l1,0.3
		h0.3l0,0.7l0.7,0.3h0.3l1.7,0.7l0,0.3h1.4l0.7,1.3l0-1l0.4,0.3l1,0.3l0.4,0.3l0,0.3l-0.7,0.7l0,0.3h-0.3l-0.4-0.3l-0.3,0.7h-0.3
		l-1.4,1.3l0,0.3l-1-0.3H533l-0.3,0.3l0.4,0.3h0.3l0,0.3l0,0.3l-0.3,0.3l-0.7,1.3h1l0.4,0.3h0.3l0,0.3l0,0.7l0,0.3l-1,0.3h-0.7
		l-1.4-1.3l0.4,2.3l0.4,0.7l-0.3,4.2l-3.8,0.3l1.4,2.6l0,0.3l-3.2-2.6h-2.4l0.4,1l-0.3,0.3l-1,2l-3.5-2l-2.8-0.7l-1.1-3.6h-2.4
		l-5.2,5.6l-2,6.2l1.8,14.1h0.3l0,0.7l0,0.3l0,0.3l1.7,0.7l0,0.3l0.4,2l2.8-0.3l1,0.3l0.7,0.3l1.4,0.3l-0.7,1.6l1,0.3l1,0.3l0,0.3
		h0.3l1.4,2.9l1.4,2.3l0.7,1.6l0,0.3l0,0.3l0.4,0.7l0,0.7l0,0.3h-0.3l0,0.3l-1.7,0.3l-0.6,6.9l2.5,8.8h1.4l0-0.3h0.3l0.7,0.3l0,0.3
		l0,0.3h0.7l0,0.3l0,1l0.4,1l0-0.7h0.3l-0.3,0.7l0,0.3h-0.3l0,0.3l0,0.3l-0.3,1l0,0.3h-0.3l0,0.3l-0.3,0.3h-0.3l-0.3,0.3l0,0.7h-0.3
		l0,0.3l-0.3,0.3h0.3l0.4,0.3l-0.3,1l0.4,0.7l0,0.3h-0.3l0.4,0.7h-0.3l0,0.7l-1.4,1l0.4,1h-0.3l0,0.3h0.3l0,0.3l0,0.3l0,0.3
		l-0.7,0.3l0,0.3l0,0.3l0,0.3h-0.3l-0.7,0.7h-1l0.4,0.3l-0.3,0.3l-0.3,0.3h-1l0,0.3l0,0.3l0,0.3l0,0.3h-0.3l-0.3,0.3l0,0.3l0.4,0.3
		l-0.3,0.7l0,0.3l0,0.3l0,0.3l-1,1h-0.7l-0.3,0.3h-0.3l0,0.3l-1.4-0.3h-0.3l-0.7,0.7l-0.7,0.7l0,1.3H510l-1.4,1.6l-2.5-1.6l-3.1,2.3
		l0,0.3l0,0.3l0,0.3h-0.3l-0.7,1h-0.3l0,0.3h-0.3l0,0.3H501l0,0.3h-0.3l-2.8,5.9l0,0.3l-0.3,1h-1.7l0,0.3l0,0.3l0.4,0.3l-0.7,0.7
		l-0.3,0.3h-1.7l0.4,1l0,0.3H493l-3.8,0.7l0,0.3l-0.3,0.3l-2.8,1l-0.3,0.3L485,324l0,0.3l0,0.3h-0.7l-0.7,1.3l-0.3,0.3l-0.7,1h-0.3
		l-0.7,2l-0.7,0.3l-0.7,0.7h-0.3l-0.3,1l-4.2,2.6l-2.4,1h-0.3l-1.4,0.3l-2.4,0.3l0,0.3h-1.4l-2.4,0.7l-0.3,0.3h-0.4l-0.3,0.3
		l-1.7,0.3h-0.3l-0.3,0.3H461l-0.7,1.3h-0.4l-1,1l0,0.3l-0.7,0.3l-1.7,0.7l-2.1,3.9l-3.2-5.6l2.4-4.3l-0.7-5.3l0-0.3l1-1.6
		l-12.6-1.3l-2.1-0.7l0,1.3l-3.9-1.6l-2.4,0.7l-1.7,2.6l-14.3,2l-3.2-7.9l-7.4-3.6l0.3-2.3l-2.4,1l-2.1-1l-1.1-3l-12.9-0.7
		L384.6,303.6z"/>
	<path class="st17" d="M282.3,251.2l3.1,0.7l0,1.6h-3.1l-4.2-2L282.3,251.2z M278.2,438.2l0.3-3.3l-1.1-4.6l-2.5,2.3l-7.4-4
		l-1.1-3.6l8.1,1.3l1-8.2l1.4-0.3l-3.5,0.7l-0.4,1.6l-3.5-2l0.7-3.3l-3.5-1.3l-2.1-5.6l3.2-2.6h-0.4l-1.1-2.3h-2.8l-2.1-3.3l-4.9-2
		l-5.3,2.6l2.5-3.6l-1-4.3l-1-1.6l2.5-1.3l-2.8-0.3l-0.7-1.6l2.8-5.3h-0.4l-1.7-3.3h-3.5l-0.7-1.6l-7.7-3.6l1.8-4.6l6.3-0.3
		l-0.3-3.3l-2.1,0.7l-0.3-1.3l3.5-2.6l-4.9-2.6l-4.5,1.3l2.5-4.9l-7.3-3l5.2-4.3l5.6,1.3l3.1-2.3v-1.3h-1.7V346l-3.8-5.3l1.4-2
		l-3.1-0.3l-1.4-2l0.7-2l-2.4-0.3l6.3-5.3l-3.1-2.6l2.1-10.2l1.4-1.3l3.8,0.7h1.4l1.7-0.3l0,5.9l1.4-0.3v0.3l1-3.6h2.8l0.3,2.6
		l0.3,0.3v0.3l0.3,0.3l1.7,1l1,0.3v2.6l2.4-1l0.3-3l2.1,0.3v-1.6l2.1-1l2.8,1l1-2.3l-1.7-3.3l3.5-2.6l0-3.9l3.1-1.3l-1.4-5.9
		l-0.7-1.6l-2.8-0.7l-2.4,2.3l-2.4-1.3l1.4-2.6l1.4,1l8.4-8.2h2.1l-1.7-2.6l1-1l0.3-6.6l3.8-1l-1,2l2.1,1.3l5.2-3.3l-0.4-1.6
		l0.7-1.6l-3.5-3.3l0,6.2l-1.7-2l-3.8,0.3l0-2.3l-1,2.3l-1-1.6l1.4-4.3h1.4l0.4,3.6l1-3.3l3.8-1.6l-2.4-4.3l-0.7,2l-1.4-1l0.7-2.6
		l2.8-6.2l3.8,0.7l1-2l-2.8-2.3l0.3-3.6l-1.4-1l1.4-4.3l3.5-2l1.4-0.7l-0.4-2.6v-0.3l0-1.6l0.3-1l-3.1-1.3l-1.7,1.3l-3.5-3.3
		l-0.7-3.6l3.1-1.3l0.7-2l-3.1-3.3l1.4-1.6l-0.7-2.6l-3.1-1l7.3-1.3l2.8,1l0.7-1.3l6.3-0.3l3.8-2h4.2l1.7-1l9.4-3.6l5.9,1.6l0.4,1.3
		l1.4-1.3l4.9,3.6l5.2-2.6l8,3.9l-2.4,2.3l0,0.3l-2.8,3.9l0,0.3l-1,1l-0.3,2.3l0,0.3l-1.4,2l1.7,2.9l2.8-1.3l0,0.3l0.7,5.2l1.7,0.3
		l-0.3,2.9l-4.5,0.3l-1.7,2.6l-2.4,0.3l-1.4-2l1.4-2.3l-1-1.6l1.4-0.3l-6.6-1.3l0.4,4.3l3.8-0.7l2.1,5.6l0,1l4.2-0.7l1,2l3.5,1.3
		l4.9-1.6l1.4,3.9l4.2,2l2.4-3.3l6.6-0.7l0.7,2.3l2.4-1.6l0.7-1.6h0.3l0.3-0.3l1-0.3l2.1-0.3l2.8,1.3l2.8-1l0,0.3l1,0.3l2.4,1.6
		l1.1,2l0,0.3l-1,3.6l3.5-2.3h0.3l3.8-1.3h1.7l0,0.3l2.8,0.7l0.7,2.3h3.1l-0.7,2.3l2.1,3.9l3.1,2.3l3.5-2.6l1.7-0.3l2.8,0.3l0.7,1.6
		h0.3l0-0.3h0.3l1.4,2l-2.4,1.3l3.5,4.3l-1.4,2l0.7,3.9l-4.9,1.6l3.1,2l-2.1,2.9l-6.3-0.7l-0.7,1.6l2.1,2l-0.3,2.6l3.1,0.3l0.4,0.3
		l2.5,1.6l0.4,3l-5.6,4.9l-2.1,0.3l0-0.3l-3.8-0.7L393,300l-1.4,0.3l-1.1-2.3l-4.9-1l-1.7,1.6l0.7,4.9l3.5,10.2l12.9,0.7l1.1,3
		l2.1,1l2.4-1l-0.3,2.3l7.4,3.6l3.2,7.9l14.3-2l1.7-2.6l2.4-0.7l3.9,1.6l0-1.3l2.1,0.7l12.6,1.3l-1,1.6l0,0.3l0.7,5.3l-2.4,4.3
		l3.2,5.6l0,0.3l-21.3,9.2h-0.4l-26.5,11.8l-15.3,11.5l-16.1,6.3l-12.9,20.4l-1,1.3l1.7-5.6l-2.4,5.6l-3.1,1.3l-0.7,3.3l2.1-2.6
		l-1,4.3l-5.6,6.6l-14.4,4.9l-13.3,0.3l-13,5.9l-6.7-0.3l-3.9,2.6L278.2,438.2z M287.9,297.1l2.1,0.7l0.7-1.3l-2.8-1L287.9,297.1z
		 M336.3,250.3l1.7-0.7l-1.4-1.6l-2.8,1.3l-0.3,1l0,0.3l0.7,2.3l1.7-0.3L336.3,250.3z"/>
</g>
<text transform="matrix(1 0 0 1 67.2075 226.6325)" class="st0 st10 st4"> | -69,6%</text>
</svg>
