<?xml version="1.0" encoding="utf-8"?>
<!-- Generator: Adobe Illustrator 24.0.1, SVG Export Plug-In . SVG Version: 6.00 Build 0)  -->
<svg version="1.1" id="Capa_1" xmlns="http://www.w3.org/2000/svg" xmlns:xlink="http://www.w3.org/1999/xlink" x="0px" y="0px"
	 viewBox="0 0 697.3 682.7" style="enable-background:new 0 0 697.3 682.7;" xml:space="preserve">
<style type="text/css">
	.st0{fill:#FFFFFF;}
	.st1{fill:#1C3761;}
	.st2{font-family:'OpenSans-Bold';}
	.st3{font-size:19.23px;}
	.st4{fill:#79C8D1;}
	.st5{enable-background:new    ;}
	.st6{font-family:'OpenSans-Light';}
	.st7{font-size:13.74px;}
	.st8{fill:#878787;}
	.st9{font-family:'OpenSans-SemiBold';}
	.st10{font-size:10.3px;}
	.st11{fill:#1D1D1B;}
	.st12{fill:none;}
	.st13{display:none;fill:none;stroke:#EEEEEE;stroke-width:0.7718;stroke-dasharray:0;}
	.st14{fill:none;stroke:#EEEEEE;stroke-width:0.7718;stroke-dasharray:0;}
	.st15{fill:#003366;}
	.st16{font-family:'SourceSansPro-Regular';}
	.st17{font-size:11.3592px;}
	.st18{fill:none;stroke:#003366;stroke-width:0.7718;stroke-dasharray:0;}
	.st19{font-family:'ArialMT';}
	.st20{font-size:9.7365px;}
	.st21{fill:none;stroke:#003366;stroke-width:0.7718;stroke-dasharray:0.7718,0.7718;}
	.st22{clip-path:url(#SVGID_2_);fill:none;stroke:#003366;stroke-width:4.6311;}
	.st23{fill:none;stroke:#CCD6E0;stroke-width:4.6311;}
	.st24{fill:#66E0E0;}
	.st25{fill:#CCD6E0;}
	.st26{clip-path:url(#SVGID_4_);fill:none;stroke:#66E0E0;stroke-width:4.6311;}
	.st27{clip-path:url(#SVGID_6_);fill:none;stroke:#66E0E0;stroke-width:4.6311;}
	.st28{font-size:11.68px;}
</style>
<rect class="st0" width="697.3" height="682.7"/>
<g>
	<text transform="matrix(1 0 0 1 300.0986 52.4772)" class="st1 st2 st3">Càmpings</text>
</g>
<g>
	<path class="st1" d="M271.6,123.5h11.2c1.1,0,2,0.9,2,2v4c0,1.1-0.9,2-2,2h-11.2c-1.1,0-2-0.9-2-2v-4
		C269.6,124.4,270.5,123.5,271.6,123.5z"/>
	<path class="st4" d="M327.3,123.5h11.2c1.1,0,2,0.9,2,2v4c0,1.1-0.9,2-2,2h-11.2c-1.1,0-2-0.9-2-2v-4
		C325.3,124.4,326.2,123.5,327.3,123.5z"/>
</g>
<text transform="matrix(1 0 0 1 106.6621 78.4901)" class="st5"><tspan x="0" y="0" class="st1 st6 st7">L’ocupació mitjana en càmpings (36,7%) s’ha situat 10pp per sota del valor del  </tspan><tspan x="103.3" y="16.5" class="st1 st6 st7">2020 i lleugerament per sota de 2019 (-5pp).</tspan></text>
<g>
	<text transform="matrix(1 0 0 1 45.5947 648.0065)" class="st8 st9 st10">Font: Elaboració pròpia del LABturisme en base a dades de l&apos;Enquesta d&apos;ocupació en allotjaments de l&apos;INE.        </text>
</g>
<text transform="matrix(1 0 0 1 45.5947 664.4489)" class="st8 st9 st10">*Les dades d’abril i maig de 2020 no estan disponibles, degut al tancament d’establiments per la crisi de la COVID-19.</text>
<text transform="matrix(1 0 0 1 347.082 131.551)" class="st11 st9 st10">2020</text>
<text transform="matrix(1 0 0 1 291.812 131.551)" class="st11 st9 st10">2021</text>
<g id="facets_1_">
	<g transform="translate(45,10)">
		<g>
			<g>
				<polyline class="st12" points="619.2,585.2 16.4,585.2 16.4,145.6 619.2,145.6 				"/>
			</g>
			<g>
				<g>
					<path class="st13" d="M16.7,585.6V146"/>
					<g transform="translate(0,542.3645922851563)">
						<line class="st14" x1="16.4" y1="43.3" x2="619.2" y2="43.3"/>
						<text transform="matrix(0.9049 0 0 1 0.5947 46.9938)" class="st15 st16 st17">0%</text>
					</g>
					<g transform="translate(0,406.8984442138672)">
						<line class="st14" x1="16.4" y1="68.8" x2="619.2" y2="68.8"/>
						<text transform="matrix(0.9049 0 0 1 -4.5137 65.6338)" class="st15 st16 st17">20%</text>
					</g>
					<g transform="translate(0,271.43229614257814)">
						<line class="st14" x1="16.4" y1="94.4" x2="619.2" y2="94.4"/>
						<text transform="matrix(0.9049 0 0 1 -4.5137 98.099)" class="st15 st16 st17">40%</text>
					</g>
					<g transform="translate(0,135.96614807128907)">
						<line class="st14" x1="16.4" y1="119.9" x2="619.2" y2="119.9"/>
						<text transform="matrix(0.9049 0 0 1 -4.5137 123.651)" class="st15 st16 st17">60%</text>
					</g>
					<g transform="translate(0,0.5)">
						<line class="st14" x1="16.4" y1="145.5" x2="619.2" y2="145.5"/>
						<text transform="matrix(0.9049 0 0 1 -4.5137 149.2031)" class="st15 st16 st17">80%</text>
					</g>
				</g>
				<g transform="translate(0,541.8645922851563)">
					<path class="st18" d="M16.7,43.8h602.8"/>
					<g transform="translate(0.5,0)">
						<line class="st18" x1="16.2" y1="43.4" x2="16.2" y2="48.2"/>
						<text transform="matrix(0.9049 0 0 1 7.3062 65.2751)" class="st15 st16 st17">Gen.</text>
					</g>
					<g transform="translate(75.1369961825284,0)">
						<line class="st18" x1="-3.6" y1="43.4" x2="-3.6" y2="48.2"/>
						<text transform="matrix(0.9049 0 0 1 -11.8035 65.2751)" class="st15 st16 st17">Feb.</text>
					</g>
					<g transform="translate(149.7739923650568,0)">
						<line class="st18" x1="-23.4" y1="43.4" x2="-23.4" y2="48.2"/>
						<text transform="matrix(0.9049 0 0 1 -33.088 65.2751)" class="st15 st16 st17">Mar.*</text>
					</g>
					<g transform="translate(224.41098854758522,0)">
						<line class="st18" x1="-43.3" y1="43.4" x2="-43.3" y2="48.2"/>
						<text transform="matrix(0.9049 0 0 1 -50.7948 65.2751)" class="st15 st16 st17">Abr.</text>
					</g>
					<g transform="translate(299.0479847301136,0)">
						<line class="st18" x1="-63.1" y1="43.4" x2="-63.1" y2="48.2"/>
						<text transform="matrix(0.9049 0 0 1 -72.5314 65.2751)" class="st15 st16 st17">Mai.*</text>
					</g>
					<g transform="translate(373.684980912642,0)">
						<line class="st18" x1="-82.9" y1="43.4" x2="-82.9" y2="48.2"/>
						<text transform="matrix(0.9049 0 0 1 -91.4096 65.2751)" class="st15 st16 st17">Jun.</text>
					</g>
					<g transform="translate(448.32197709517044,0)">
						<line class="st18" x1="-102.8" y1="43.4" x2="-102.8" y2="48.2"/>
						<text transform="matrix(0.9049 0 0 1 -109.7439 65.2751)" class="st15 st16 st17">Jul.</text>
					</g>
					<g transform="translate(522.9589732776989,0)">
						<line class="st18" x1="-122.6" y1="43.4" x2="-122.6" y2="48.2"/>
						<text transform="matrix(0.9049 0 0 1 -131.0537 65.2751)" class="st15 st16 st17">Ago.</text>
					</g>
					<g transform="translate(597.5959694602273,0)">
						<line class="st18" x1="-142.4" y1="43.4" x2="-142.4" y2="48.2"/>
						<text transform="matrix(0.9049 0 0 1 -149.8557 65.2751)" class="st15 st16 st17">Set.</text>
					</g>
					<g transform="translate(672.2329656427556,0)">
						<line class="st18" x1="-162.3" y1="43.4" x2="-162.3" y2="48.2"/>
						<text transform="matrix(0.9049 0 0 1 -170.1519 65.2751)" class="st15 st16 st17">Oct.</text>
					</g>
					<g transform="translate(746.869961825284,0)">
						<line class="st18" x1="-182.1" y1="43.4" x2="-182.1" y2="48.2"/>
						<text transform="matrix(0.9049 0 0 1 -190.8201 65.2751)" class="st15 st16 st17">Nov.</text>
					</g>
					<g transform="translate(821.5069580078125,0)">
						<line class="st18" x1="-201.9" y1="43.4" x2="-201.9" y2="48.2"/>
						<text transform="matrix(0.9049 0 0 1 -210.2072 65.2751)" class="st15 st16 st17">Des.</text>
					</g>
				</g>
			</g>
		</g>
	</g>
</g>
<g>
	<g transform="translate(45, 10)">
		<g transform="translate(0, 230.29245172119144)">
			<text transform="matrix(0.9049 0 0 1 534.4648 97.2417)" class="st15 st19 st20">Mitjana 2019: 46,5%</text>
			<line class="st21" x1="16.4" y1="102.1" x2="619.2" y2="102.1"/>
		</g>
	</g>
</g>
<g>
	<g>
		<g>
			<g>
				<g>
					<g>
						<g>
							<g>
								<g>
									<g>
										<g>
											<g>
												<g>
													<g>
														<g>
															<g>
																<g>
																	<g>
																		<g>
																			<g>
																				<g>
																					<defs>
																						<polyline id="SVGID_1_" points="664.2,603.3 61.4,603.3 61.4,147.5 664.2,147.5 																						"/>
																					</defs>
																					<clipPath id="SVGID_2_">
																						<use xlink:href="#SVGID_1_"  style="overflow:visible;"/>
																					</clipPath>
																					<path pointer-events="none" class="st22" d="M61.4,490.3c18.3-4,36.5-8.1,54.8-21.4
																						c18.3-13.4,36.5-36.1,54.8-58.8c5.7-5.3,12.7-7.9,21.3-9.7c11.9-2.5,21.9-5.1,29.7-5.5
																						c19.4-4.3,38.8-8.6,58.2-12.9c17.6-2.7,35.3-5.4,52.9-8.1c12.8-6,31.4-17.1,46.6-37.1
																						c4.1-5.4,7.4-10.8,10.1-15.8c8.3-7.2,18.9-15.2,32.2-22.4c8-4.4,14.9-8.8,22.5-10.4
																						c15.4,3.5,26.5,16.1,35.2,29c8.5,12.7,13.8,18.9,20.4,27.9c7.2,0.7,15.3,1,24.1,0.8c11.4-0.3,20-5.1,31.2-4.1
																						c11.8,5.2,18,15,28.3,25.5c11.7,11.9,20.3,23.6,26.5,33.4c6.5,2,20.1,5.1,35.9,0.7c7-2,14-2.4,18.1-5"/>
																				</g>
																			</g>
																		</g>
																	</g>
																</g>
															</g>
														</g>
													</g>
												</g>
											</g>
										</g>
									</g>
								</g>
							</g>
						</g>
					</g>
				</g>
			</g>
		</g>
	</g>
</g>
<g>
	<g>
		<path pointer-events="none" class="st23" d="M61.4,442.4c18.3-0.5,36.5-0.9,54.8-2.7s36.5-39.8,54.8-53.9s36.5-25.6,54.8-30.8
			s36.5-2.6,54.8-7.7s36.5-25.2,54.8-36.3s36.5-20.3,54.8-30.2c18.3-9.9,36.5-29.1,54.8-29.1s36.5,55.2,54.8,72.5
			c18.3,17.3,36.5,20.2,54.8,31.3c18.3,11.1,36.5,24.5,54.8,35.2c18.3,10.6,36.5,19.6,54.8,28.6"/>
	</g>
</g>
<path id="point-0-2" class="st15" d="M659.2,396.3c0-2.7,2.2-4.9,5-4.9s5,2.2,5,4.9s-2.2,4.9-5,4.9S659.2,399,659.2,396.3z"/>
<g transform="translate(45,10)">
	<path id="point-1-0" class="st24" d="M15.6,436.8c0-0.4,0.3-0.8,0.7-0.8c0.4,0,0.7,0.4,0.7,0.8s-0.3,0.8-0.7,0.8
		S15.6,437.3,15.6,436.8z"/>
	<path id="point-1-1" class="st24" d="M70.4,377.5c0-0.4,0.3-0.8,0.7-0.8s0.7,0.4,0.7,0.8s-0.3,0.8-0.7,0.8S70.4,377.9,70.4,377.5z"
		/>
	<path id="point-1-2" class="st24" d="M125.2,357.2c0-0.4,0.3-0.8,0.7-0.8s0.7,0.4,0.7,0.8s-0.3,0.8-0.7,0.8
		S125.2,357.6,125.2,357.2z"/>
	<path id="point-1-3" class="st24" d="M180,585.2c0-0.4,0.3-0.8,0.7-0.8s0.7,0.4,0.7,0.8s-0.3,0.8-0.7,0.8S180,585.7,180,585.2z"/>
	<path id="point-1-5" class="st24" d="M289.7,353.3c0-0.4,0.3-0.8,0.7-0.8s0.7,0.4,0.7,0.8s-0.3,0.8-0.7,0.8
		S289.7,353.8,289.7,353.3z"/>
	<path id="point-1-6" class="st24" d="M344.5,335.2c0-0.4,0.3-0.8,0.7-0.8s0.7,0.4,0.7,0.8s-0.3,0.8-0.7,0.8
		S344.5,335.6,344.5,335.2z"/>
	<path id="point-1-7" class="st24" d="M399.3,330.8c0-0.4,0.3-0.8,0.7-0.8c0.4,0,0.7,0.4,0.7,0.8s-0.3,0.8-0.7,0.8
		C399.6,331.6,399.3,331.2,399.3,330.8z"/>
	<path id="point-1-8" class="st24" d="M454.1,376.9c0-0.4,0.3-0.8,0.7-0.8c0.4,0,0.7,0.4,0.7,0.8s-0.3,0.8-0.7,0.8
		C454.4,377.8,454.1,377.4,454.1,376.9z"/>
	<path id="point-1-9" class="st24" d="M508.9,363.8c0-0.4,0.3-0.8,0.7-0.8s0.7,0.4,0.7,0.8s-0.3,0.8-0.7,0.8
		C509.2,364.6,508.9,364.2,508.9,363.8z"/>
	<path id="point-1-10" class="st24" d="M563.7,420.4c0-0.4,0.3-0.8,0.7-0.8s0.7,0.4,0.7,0.8s-0.3,0.8-0.7,0.8
		S563.7,420.8,563.7,420.4z"/>
	<path id="point-1-11" class="st24" d="M614.8,440.7c0-2.7,2-4.9,4.4-4.9s4.4,2.2,4.4,4.9s-2,4.9-4.4,4.9S614.8,443.4,614.8,440.7z"
		/>
</g>
<g transform="translate(45,10)">
	<path id="point-2-0" class="st25" d="M15.6,432.4c0-0.4,0.3-0.8,0.7-0.8c0.4,0,0.7,0.4,0.7,0.8s-0.3,0.8-0.7,0.8
		S15.6,432.9,15.6,432.4z"/>
	<path id="point-2-1" class="st25" d="M70.4,429.7c0-0.4,0.3-0.8,0.7-0.8s0.7,0.4,0.7,0.8s-0.3,0.8-0.7,0.8S70.4,430.1,70.4,429.7z"
		/>
	<path id="point-2-2" class="st25" d="M125.2,375.8c0-0.4,0.3-0.8,0.7-0.8s0.7,0.4,0.7,0.8s-0.3,0.8-0.7,0.8
		S125.2,376.3,125.2,375.8z"/>
	<path id="point-2-3" class="st25" d="M180,345.1c0-0.4,0.3-0.8,0.7-0.8s0.7,0.4,0.7,0.8s-0.3,0.8-0.7,0.8S180,345.5,180,345.1z"/>
	<path id="point-2-4" class="st25" d="M234.9,337.4c0-0.4,0.3-0.8,0.7-0.8s0.7,0.4,0.7,0.8s-0.3,0.8-0.7,0.8
		C235.2,338.2,234.9,337.8,234.9,337.4z"/>
	<path id="point-2-5" class="st25" d="M289.7,301.1c0-0.4,0.3-0.8,0.7-0.8s0.7,0.4,0.7,0.8s-0.3,0.8-0.7,0.8
		S289.7,301.5,289.7,301.1z"/>
	<path id="point-2-6" class="st25" d="M344.5,270.9c0-0.4,0.3-0.8,0.7-0.8s0.7,0.4,0.7,0.8s-0.3,0.8-0.7,0.8
		S344.5,271.3,344.5,270.9z"/>
	<path id="point-2-7" class="st25" d="M399.3,241.7c0-0.4,0.3-0.8,0.7-0.8c0.4,0,0.7,0.4,0.7,0.8s-0.3,0.8-0.7,0.8
		C399.6,242.6,399.3,242.2,399.3,241.7z"/>
	<path id="point-2-8" class="st25" d="M454.1,314.3c0-0.4,0.3-0.8,0.7-0.8c0.4,0,0.7,0.4,0.7,0.8s-0.3,0.8-0.7,0.8
		C454.4,315.1,454.1,314.7,454.1,314.3z"/>
	<path id="point-2-9" class="st25" d="M508.9,345.6c0-0.4,0.3-0.8,0.7-0.8s0.7,0.4,0.7,0.8s-0.3,0.8-0.7,0.8
		S508.9,346.1,508.9,345.6z"/>
	<path id="point-2-10" class="st25" d="M563.7,380.8c0-0.4,0.3-0.8,0.7-0.8s0.7,0.4,0.7,0.8s-0.3,0.8-0.7,0.8
		S563.7,381.2,563.7,380.8z"/>
	<path id="point-2-11" class="st25" d="M614.8,409.4c0-2.7,2-4.9,4.4-4.9s4.4,2.2,4.4,4.9s-2,4.9-4.4,4.9
		C616.8,414.2,614.8,412.1,614.8,409.4z"/>
</g>
<path id="point-0-2_1_" class="st15" d="M56.7,490.8c0-2.7,2.3-4.9,5.2-4.9c2.8,0,5.2,2.2,5.2,4.9s-2.3,4.9-5.2,4.9
	C59,495.7,56.7,493.5,56.7,490.8z"/>
<path id="point-0-6-5_1_" class="st25" d="M113.8,439.5c0-2,1.6-3.6,3.6-3.6s3.6,1.6,3.6,3.6s-1.6,3.6-3.6,3.6l0,0
	C115.4,443.1,113.8,441.4,113.8,439.5z"/>
<path id="point-0-2_3_" class="st25" d="M55.5,440.5c0-2.7,2.3-4.9,5.2-4.9s5.2,2.2,5.2,4.9s-2.3,4.9-5.2,4.9S55.5,443.2,55.5,440.5
	z"/>
<path id="point-0-2_2_" class="st24" d="M56.4,447.4c0-2.7,2.3-4.9,5.2-4.9c2.8,0,5.2,2.2,5.2,4.9s-2.3,4.9-5.2,4.9
	C58.7,452.2,56.4,450.1,56.4,447.4z"/>
<g>
	<g>
		<g>
			<g>
				<g>
					<g>
						<g>
							<g>
								<g>
									<g>
										<g>
											<g>
												<g>
													<g>
														<g>
															<g>
																<g>
																	<g>
																		<g>
																			<g>
																				<defs>
																					<polyline id="SVGID_3_" points="664.2,603.3 61.4,603.3 61.4,147.5 664.2,147.5 																					"/>
																				</defs>
																				<clipPath id="SVGID_4_">
																					<use xlink:href="#SVGID_3_"  style="overflow:visible;"/>
																				</clipPath>
																				<path class="st26" d="M336.1,363.3c21.1-17,44.3-19.2,70.3-23.2c18,1,40-6,55,8c11,11,16,29,31,36
																					c11,5,24,1,35-3c11-5,22-11,34-6c5,2,10,4,13,9c14,21,24,43,46,55c14,7,29,9,43.8,11.6"/>
																			</g>
																		</g>
																	</g>
																</g>
															</g>
														</g>
													</g>
												</g>
											</g>
										</g>
									</g>
								</g>
							</g>
						</g>
					</g>
				</g>
			</g>
		</g>
	</g>
	<g>
		<g>
			<g>
				<g>
					<g>
						<g>
							<g>
								<g>
									<g>
										<g>
											<g>
												<g>
													<g>
														<g>
															<g>
																<g>
																	<g>
																		<g>
																			<g>
																				<defs>
																					<polyline id="SVGID_5_" points="664.2,603.3 61.4,603.3 61.4,147.5 664.2,147.5 																					"/>
																				</defs>
																				<clipPath id="SVGID_6_">
																					<use xlink:href="#SVGID_5_"  style="overflow:visible;"/>
																				</clipPath>
																				<path class="st27" d="M61.4,446.8c16-19.7,30-40.7,51-56.7c18-13,38-25,60.2-22.3"/>
																			</g>
																		</g>
																	</g>
																</g>
															</g>
														</g>
													</g>
												</g>
											</g>
										</g>
									</g>
								</g>
							</g>
						</g>
					</g>
				</g>
			</g>
		</g>
	</g>
</g>
<path id="point-0-6-5_2_" class="st15" d="M112.6,468.5c0-1.9,1.6-3.5,3.5-3.5s3.5,1.6,3.5,3.5s-1.6,3.5-3.5,3.5l0,0
	C114.2,472,112.6,470.4,112.6,468.5z"/>
<path id="point-0-6-5_3_" class="st24" d="M113.8,386.7c0-1.9,1.6-3.5,3.5-3.5s3.5,1.6,3.5,3.5s-1.6,3.5-3.5,3.5l0,0
	C115.4,390.2,113.8,388.6,113.8,386.7z"/>
<path id="point-0-6-5_4_" class="st25" d="M166.8,386.7c0-1.9,1.6-3.5,3.5-3.5s3.5,1.6,3.5,3.5s-1.6,3.5-3.5,3.5l0,0
	C168.4,390.2,166.8,388.6,166.8,386.7z"/>
<path id="point-0-6-5_5_" class="st24" d="M167.7,367.7c0-1.9,1.6-3.5,3.5-3.5s3.5,1.6,3.5,3.5s-1.6,3.5-3.5,3.5l0,0
	C169.3,371.3,167.7,369.7,167.7,367.7z"/>
<path id="point-0-6-5_7_" class="st24" d="M332.3,363.6c0-1.9,1.6-3.5,3.5-3.5s3.5,1.6,3.5,3.5s-1.6,3.5-3.5,3.5l0,0
	C333.9,367.1,332.3,365.5,332.3,363.6z"/>
<path id="point-0-6-5_8_" class="st24" d="M386.6,342.4c0-1.9,1.6-3.5,3.5-3.5s3.5,1.6,3.5,3.5s-1.6,3.5-3.5,3.5l0,0
	C388.2,346,386.6,344.4,386.6,342.4z"/>
<path id="point-0-6-5_9_" class="st24" d="M442.2,340c0-1.9,1.6-3.5,3.5-3.5s3.5,1.6,3.5,3.5s-1.6,3.5-3.5,3.5l0,0
	C443.8,343.5,442.2,341.9,442.2,340z"/>
<path id="point-0-6-5_10_" class="st24" d="M497,386.1c0-1.9,1.6-3.5,3.5-3.5s3.5,1.6,3.5,3.5s-1.6,3.5-3.5,3.5l0,0
	C498.6,389.7,497,388.1,497,386.1z"/>
<path id="point-0-6-5_11_" class="st24" d="M551.9,373.8c0-1.9,1.6-3.5,3.5-3.5s3.5,1.6,3.5,3.5s-1.6,3.5-3.5,3.5l0,0
	C553.5,377.3,551.9,375.7,551.9,373.8z"/>
<path id="point-0-6-5_12_" class="st24" d="M606.6,432.4c0-1.9,1.6-3.5,3.5-3.5s3.5,1.6,3.5,3.5s-1.6,3.5-3.5,3.5l0,0
	C608.2,436,606.6,434.4,606.6,432.4z"/>
<path id="point-0-6-5_13_" class="st25" d="M222.5,355.1c0-1.9,1.6-3.5,3.5-3.5s3.5,1.6,3.5,3.5s-1.6,3.5-3.5,3.5l0,0
	C224.1,358.7,222.5,357.1,222.5,355.1z"/>
<path id="point-0-6-5_14_" class="st25" d="M331.7,310.8c0-1.9,1.6-3.5,3.5-3.5s3.5,1.6,3.5,3.5s-1.6,3.5-3.5,3.5l0,0
	C333.3,314.4,331.7,312.8,331.7,310.8z"/>
<path id="point-0-6-5_15_" class="st25" d="M276.8,347.7c0-1.9,1.6-3.5,3.5-3.5s3.5,1.6,3.5,3.5s-1.6,3.5-3.5,3.5l0,0
	C278.4,351.2,276.8,349.6,276.8,347.7z"/>
<path id="point-0-6-5_16_" class="st25" d="M386.8,281.2c0-1.9,1.6-3.5,3.5-3.5s3.5,1.6,3.5,3.5s-1.6,3.5-3.5,3.5l0,0
	C388.4,284.7,386.8,283.1,386.8,281.2z"/>
<path id="point-0-6-5_17_" class="st25" d="M441.7,251.2c0-1.9,1.6-3.5,3.5-3.5s3.5,1.6,3.5,3.5s-1.6,3.5-3.5,3.5l0,0
	C443.3,254.8,441.7,253.2,441.7,251.2z"/>
<path id="point-0-6-5_18_" class="st25" d="M496,324c0-1.9,1.6-3.5,3.5-3.5s3.5,1.6,3.5,3.5s-1.6,3.5-3.5,3.5l0,0
	C497.6,327.5,496,325.9,496,324z"/>
<path id="point-0-6-5_19_" class="st25" d="M551.8,356.3c0-1.9,1.6-3.5,3.5-3.5s3.5,1.6,3.5,3.5s-1.6,3.5-3.5,3.5l0,0
	C553.4,359.9,551.8,358.3,551.8,356.3z"/>
<path id="point-0-6-5_20_" class="st25" d="M606.7,390.8c0-1.9,1.6-3.5,3.5-3.5s3.5,1.6,3.5,3.5s-1.6,3.5-3.5,3.5l0,0
	C608.3,394.4,606.7,392.8,606.7,390.8z"/>
<path id="point-0-6-5_21_" class="st24" d="M222.6,592.5c0-1.9,1.6-3.5,3.5-3.5s3.5,1.6,3.5,3.5s-1.6,3.5-3.5,3.5l0,0
	C224.2,596,222.6,594.4,222.6,592.5z"/>
<text transform="matrix(1 0 0 1 55.4917 510.4763)" class="st1 st16 st28">19,1</text>
<text transform="matrix(1 0 0 1 66.9844 461.6686)" class="st1 st16 st28">27,0</text>
<text transform="matrix(1 0 0 1 45.5947 424.2097)" class="st1 st16 st28">27,8</text>
<text transform="matrix(1 0 0 1 218.6167 580.0363)" class="st1 st16 st28">0,0</text>
<text transform="matrix(1 0 0 1 433.4492 238.7565)" class="st1 st16 st28">62,5</text>
<text transform="matrix(1 0 0 1 436.9053 329.9089)" class="st1 st16 st28">46,3</text>
<text transform="matrix(1 0 0 1 653.4198 435.9047)" class="st1 st16 st28">32,0</text>
<text transform="matrix(1 0 0 1 653.4198 466.9885)" class="st1 st16 st28">26,3</text>
<path class="st25" d="M384.5,123.5h11.2c1.1,0,2,0.9,2,2v4c0,1.1-0.9,2-2,2h-11.2c-1.1,0-2-0.9-2-2v-4
	C382.5,124.4,383.4,123.5,384.5,123.5z"/>
<text transform="matrix(1 0 0 1 405.0576 131.551)" class="st11 st9 st10">2019</text>
<text transform="matrix(1 0 0 1 436.9053 280.1003)" class="st1 st16 st28">57,2</text>
<path id="point-0-6-5_6_" class="st15" d="M167.1,410.8c0-1.9,1.6-3.5,3.5-3.5s3.5,1.6,3.5,3.5s-1.6,3.5-3.5,3.5l0,0
	C168.7,414.3,167.1,412.7,167.1,410.8z"/>
<path id="point-0-6-5_22_" class="st15" d="M222.9,393.7c0-1.9,1.6-3.5,3.5-3.5s3.5,1.6,3.5,3.5s-1.6,3.5-3.5,3.5l0,0
	C224.5,397.2,222.9,395.6,222.9,393.7z"/>
<path id="point-0-6-5_23_" class="st15" d="M276.4,382.1c0-1.9,1.6-3.5,3.5-3.5s3.5,1.6,3.5,3.5s-1.6,3.5-3.5,3.5l0,0
	C278,385.6,276.4,384,276.4,382.1z"/>
<path id="point-0-6-5_24_" class="st15" d="M331.5,373.7c0-1.9,1.6-3.5,3.5-3.5s3.5,1.6,3.5,3.5s-1.6,3.5-3.5,3.5l0,0
	C333.1,377.2,331.5,375.6,331.5,373.7z"/>
<path id="point-0-6-5_25_" class="st15" d="M386.6,320.7c0-1.9,1.6-3.5,3.5-3.5s3.5,1.6,3.5,3.5s-1.6,3.5-3.5,3.5l0,0
	C388.2,324.2,386.6,322.6,386.6,320.7z"/>
<path id="point-0-6-5_26_" class="st15" d="M440.8,288c0-1.9,1.6-3.5,3.5-3.5s3.5,1.6,3.5,3.5s-1.6,3.5-3.5,3.5l0,0
	C442.4,291.5,440.8,289.9,440.8,288z"/>
<text transform="matrix(1 0 0 1 653.4203 384.9997)" class="st1 st16 st28">36,7</text>
<path id="point-0-6-5_27_" class="st15" d="M497,345.2c0-1.9,1.6-3.5,3.5-3.5s3.5,1.6,3.5,3.5s-1.6,3.5-3.5,3.5l0,0
	C498.6,348.7,497,347.1,497,345.2z"/>
<path id="point-0-6-5_28_" class="st15" d="M551.6,341.8c0-1.9,1.6-3.5,3.5-3.5s3.5,1.6,3.5,3.5s-1.6,3.5-3.5,3.5l0,0
	C553.2,345.3,551.6,343.7,551.6,341.8z"/>
<path id="point-0-6-5_29_" class="st15" d="M606.7,400.7c0-1.9,1.6-3.5,3.5-3.5s3.5,1.6,3.5,3.5s-1.6,3.5-3.5,3.5l0,0
	C608.3,404.2,606.7,402.6,606.7,400.7z"/>
</svg>
