<?xml version="1.0" encoding="utf-8"?>
<!-- Generator: Adobe Illustrator 24.0.1, SVG Export Plug-In . SVG Version: 6.00 Build 0)  -->
<svg version="1.1" id="Capa_1" xmlns="http://www.w3.org/2000/svg" xmlns:xlink="http://www.w3.org/1999/xlink" x="0px" y="0px"
	 viewBox="0 0 1311.5 994.9" style="enable-background:new 0 0 1311.5 994.9;" xml:space="preserve">
<style type="text/css">
	.st0{fill:none;}
	.st1{clip-path:url(#SVGID_2_);}
	.st2{fill:#003366;}
	.st3{font-family:'Arial-BoldMT';}
	.st4{font-size:24.5186px;}
	.st5{clip-path:url(#SVGID_4_);}
	.st6{font-size:23.8px;}
	.st7{fill:#8D8D8D;}
	.st8{fill:#012E68;}
	.st9{font-family:'OpenSans-Regular';}
	.st10{font-size:22px;}
	.st11{fill:#00CCCC;}
	.st12{fill:#FFFFFF;}
	.st13{font-family:'OpenSans-SemiBold';}
	.st14{font-size:35px;}
	.st15{font-size:25px;}
	.st16{font-size:83px;}
	.st17{font-family:'ArialMT';}
	.st18{font-size:21.4972px;}
</style>
<title>LABTurisme-Sintesi-Viatgers-Pernoctacions-desembre-2020</title>
<rect x="47.4" y="358.8" class="st0" width="1220" height="426.6"/>
<image style="overflow:visible;enable-background:new    ;" width="264" height="86" xlink:href="CBC1D0D5.png"  transform="matrix(0.7065 0 0 0.7065 399.117 315.8191)">
</image>
<image style="overflow:visible;enable-background:new    ;" width="946" height="294" xlink:href="CBC1D0DB.png"  transform="matrix(1.2834 0 0 1.2834 44.3047 110.8191)">
</image>
<g>
	<g>
		<g>
			<g>
				<defs>
					<rect id="SVGID_1_" x="110.2" y="479.7" width="460.6" height="303.9"/>
				</defs>
				<clipPath id="SVGID_2_">
					<use xlink:href="#SVGID_1_"  style="overflow:visible;"/>
				</clipPath>
				<g class="st1">
					<text transform="matrix(1 0 0 1 295.9695 553.5259)" class="st2 st3 st4">V</text>
					<text transform="matrix(1 0 0 1 311.8801 553.5259)" class="st2 st3 st4">iatgers</text>
				</g>
			</g>
		</g>
	</g>
</g>
<g>
	<g>
		<g>
			<g>
				<defs>
					<rect id="SVGID_3_" x="774.1" y="483.7" width="447.1" height="294.9"/>
				</defs>
				<clipPath id="SVGID_4_">
					<use xlink:href="#SVGID_3_"  style="overflow:visible;"/>
				</clipPath>
				<g class="st5">
					<text transform="matrix(1 0 0 1 922.7966 555.3903)" class="st2 st3 st6">Pernoctacions</text>
				</g>
			</g>
		</g>
	</g>
</g>
<g>
	<path class="st7" d="M31.4,979.1h-5.1v4.7H32v1.4h-7.4v-13.1h7.1v1.4h-5.4v4.1h5.1C31.4,977.6,31.4,979.1,31.4,979.1z"/>
	<path class="st7" d="M34.1,971.4h1.7v13.8h-1.7V971.4z"/>
	<path class="st7" d="M43.9,985.2l-0.1-1.2h-0.1c-0.7,0.9-1.7,1.4-2.9,1.4c-1.5,0.1-2.8-1-2.9-2.5c0-0.1,0-0.1,0-0.2
		c0-2.3,2-3.5,5.6-3.5V979c0.1-1.1-0.6-2-1.7-2.2c-0.2,0-0.3,0-0.5,0c-0.9,0-1.7,0.2-2.4,0.7l-0.4-1.1c0.9-0.6,2-0.8,3.1-0.8
		c2.9,0,3.6,2,3.6,3.8v3.5c0,0.8,0,1.5,0.2,2.3H43.9z M43.6,980.4c-1.9,0-4,0.3-4,2.1c-0.1,0.8,0.6,1.6,1.4,1.6c0.1,0,0.2,0,0.2,0
		c1,0,1.9-0.6,2.3-1.6c0.1-0.2,0.1-0.4,0.1-0.5V980.4z"/>
	<path class="st7" d="M47.9,985.2c0-0.6,0.1-1.6,0.1-2.4v-11.4h1.7v5.9l0,0c0.7-1.1,1.9-1.8,3.2-1.7c2.3,0,4,1.9,4,4.8
		c0,3.4-2.1,5-4.2,5c-1.3,0.1-2.5-0.6-3.1-1.8h-0.1l-0.1,1.6L47.9,985.2z M49.7,981.4c0,0.2,0,0.4,0.1,0.6c0.3,1.2,1.3,2,2.6,2
		c1.8,0,2.9-1.5,2.9-3.6c0-1.9-1-3.5-2.8-3.5c-1.2,0-2.3,0.9-2.6,2.1c-0.1,0.2-0.1,0.5-0.1,0.7v1.7H49.7z"/>
	<path class="st7" d="M67.6,980.4c0.2,2.5-1.7,4.8-4.2,5c-0.2,0-0.3,0-0.5,0c-2.5,0-4.5-1.9-4.5-4.8c0-3.1,2.1-5,4.7-5
		C65.7,975.6,67.6,977.6,67.6,980.4z M60.1,980.5c0,2.1,1.2,3.6,2.9,3.6c1.6,0,2.9-1.5,2.9-3.6c0-1.6-0.8-3.6-2.8-3.6
		C61.1,976.9,60.1,978.7,60.1,980.5L60.1,980.5z"/>
	<path class="st7" d="M69.7,978.7c0-1.1,0-2.1-0.1-2.9h1.5l0.1,1.8h0.1c0.3-1.2,1.4-2,2.6-2.1c0.2,0,0.3,0,0.5,0.1v1.6
		c-0.2,0-0.4-0.1-0.6-0.1c-1.2,0-2.2,1-2.3,2.2c0,0.3-0.1,0.5-0.1,0.8v5h-1.7V978.7z"/>
	<path class="st7" d="M81.2,985.2l-0.1-1.2H81c-0.7,0.9-1.7,1.4-2.9,1.4c-1.5,0.1-2.8-1-2.9-2.5c0-0.1,0-0.1,0-0.2
		c0-2.3,2-3.5,5.6-3.5V979c0.1-1.1-0.6-2-1.7-2.2c-0.2,0-0.3,0-0.5,0c-0.9,0-1.7,0.2-2.4,0.7l-0.4-1.1c0.9-0.6,2-0.8,3.1-0.8
		c2.9,0,3.6,2,3.6,3.8v3.5c0,0.8,0,1.5,0.2,2.3H81.2z M80.9,980.4c-1.9,0-4,0.3-4,2.1c-0.1,0.8,0.6,1.6,1.4,1.6c0.1,0,0.2,0,0.2,0
		c1,0,1.9-0.6,2.3-1.6c0.1-0.2,0.1-0.4,0.1-0.5V980.4z"/>
	<path class="st7" d="M92,984.8c-0.8,0.4-1.8,0.6-2.7,0.5c-2.5,0.1-4.6-1.8-4.7-4.2c0-0.2,0-0.4,0-0.6c-0.1-2.6,1.9-4.9,4.5-5
		c0.2,0,0.3,0,0.5,0c0.8,0,1.6,0.2,2.4,0.5l-0.4,1.3c-0.6-0.3-1.3-0.5-2-0.4c-2,0.1-3.4,1.8-3.3,3.8c0.1,1.8,1.5,3.2,3.3,3.3
		c0.7,0,1.4-0.2,2.1-0.5L92,984.8z"/>
	<path class="st7" d="M95.9,973.2c0,0.6-0.5,1.1-1.1,1.1s-1.1-0.5-1.1-1.1s0.4-1.1,1-1.1c0,0,0,0,0.1,0
		C95.4,972.1,95.9,972.5,95.9,973.2C95.9,973.1,95.9,973.1,95.9,973.2z M94,985.2v-9.4h1.7v9.4H94z"/>
	<path class="st7" d="M107.1,980.4c0.2,2.5-1.7,4.8-4.2,5c-0.2,0-0.3,0-0.5,0c-2.5,0-4.5-1.9-4.5-4.8c0-3.1,2.1-5,4.7-5
		C105.2,975.6,107.1,977.6,107.1,980.4z M99.6,980.5c0,2.1,1.2,3.6,2.9,3.6c1.6,0,2.9-1.5,2.9-3.6c0-1.6-0.8-3.6-2.8-3.6
		C100.5,976.9,99.6,978.7,99.6,980.5L99.6,980.5z M105,971.7l-2.4,2.8h-1.2l1.7-2.8H105z"/>
	<path class="st7" d="M118.9,978.9c0-1.2,0-2.2-0.1-3.1h1.5l0.1,1.6l0,0c0.7-1.2,2-1.9,3.3-1.8c2.3,0,4,1.9,4,4.8c0,3.4-2.1,5-4.3,5
		c-1.2,0.1-2.3-0.5-2.9-1.5l0,0v5.1h-1.7L118.9,978.9z M120.6,981.4c0,0.2,0,0.5,0.1,0.7c0.3,1.2,1.3,2,2.6,2c1.8,0,2.9-1.5,2.9-3.6
		c0-1.9-1-3.5-2.8-3.5c-1.2,0-2.3,0.9-2.6,2.1c-0.1,0.2-0.1,0.5-0.1,0.7L120.6,981.4z"/>
	<path class="st7" d="M130,978.7c0-1.1,0-2.1-0.1-2.9h1.5l0.1,1.8h0.1c0.3-1.2,1.4-2,2.6-2.1c0.2,0,0.3,0,0.5,0.1v1.6
		c-0.2,0-0.4-0.1-0.6-0.1c-1.2,0-2.2,1-2.3,2.2c0,0.3-0.1,0.5-0.1,0.8v5H130V978.7z"/>
	<path class="st7" d="M144.6,980.4c0.2,2.5-1.7,4.8-4.2,5c-0.2,0-0.3,0-0.5,0c-2.5,0-4.5-1.9-4.5-4.8c0-3.1,2.1-5,4.7-5
		C142.8,975.6,144.6,977.6,144.6,980.4z M137.2,980.5c0,2.1,1.2,3.6,2.9,3.6c1.6,0,2.9-1.5,2.9-3.6c0-1.6-0.8-3.6-2.8-3.6
		S137.2,978.7,137.2,980.5L137.2,980.5z M139.4,971.7l1.7,2.8h-1.2l-2.4-2.8H139.4z"/>
	<path class="st7" d="M146.8,978.9c0-1.2,0-2.2-0.1-3.1h1.5l0.1,1.6l0,0c0.7-1.2,2-1.9,3.3-1.8c2.3,0,4,1.9,4,4.8c0,3.4-2.1,5-4.3,5
		c-1.2,0.1-2.3-0.5-2.9-1.5l0,0v5.1h-1.7L146.8,978.9z M148.4,981.4c0,0.2,0,0.5,0.1,0.7c0.3,1.2,1.3,2,2.6,2c1.8,0,2.9-1.5,2.9-3.6
		c0-1.9-1-3.5-2.8-3.5c-1.2,0-2.3,0.9-2.6,2.1c-0.1,0.2-0.1,0.5-0.1,0.7L148.4,981.4z"/>
	<path class="st7" d="M159.7,973.2c0,0.6-0.5,1.1-1.1,1c-0.6,0-1-0.5-1-1c0-0.6,0.4-1.1,1-1.1c0,0,0,0,0.1,0
		C159.2,972.1,159.7,972.5,159.7,973.2C159.7,973.1,159.7,973.1,159.7,973.2z M157.8,985.2v-9.4h1.7v9.4H157.8z"/>
	<path class="st7" d="M167.5,985.2l-0.1-1.2h-0.1c-0.7,0.9-1.7,1.4-2.9,1.4c-1.5,0.1-2.8-1-2.9-2.5c0-0.1,0-0.1,0-0.2
		c0-2.3,2-3.5,5.6-3.5V979c0.1-1.1-0.6-2-1.7-2.2c-0.2,0-0.3,0-0.5,0c-0.9,0-1.7,0.2-2.4,0.7l-0.4-1.1c0.9-0.6,2-0.8,3.1-0.8
		c2.9,0,3.6,2,3.6,3.8v3.5c0,0.8,0,1.5,0.2,2.3H167.5z M167.3,980.4c-1.9,0-4,0.3-4,2.1c-0.1,0.8,0.6,1.6,1.4,1.6c0.1,0,0.2,0,0.2,0
		c1,0,1.9-0.6,2.3-1.6c0.1-0.2,0.1-0.4,0.1-0.5V980.4z"/>
	<path class="st7" d="M189.5,971.4v11.4c0,0.8,0,1.8,0.1,2.4h-1.5l-0.1-1.6l0,0c-0.6,1.2-1.9,1.9-3.2,1.8c-2.3,0-4-1.9-4-4.8
		c0-3.1,1.9-5,4.2-5c1.1-0.1,2.2,0.5,2.8,1.4l0,0v-5.6L189.5,971.4L189.5,971.4z M187.8,979.6c0-0.2,0-0.5-0.1-0.7
		c-0.3-1.2-1.3-2-2.5-2c-1.8,0-2.8,1.6-2.8,3.6c0,1.9,0.9,3.5,2.8,3.5c1.2,0,2.3-0.9,2.5-2c0.1-0.2,0.1-0.5,0.1-0.7V979.6z"/>
	<path class="st7" d="M193.3,980.8c-0.1,1.7,1.1,3.1,2.7,3.3c0.2,0,0.3,0,0.5,0c0.9,0,1.8-0.1,2.6-0.5l0.3,1.2
		c-1,0.4-2.1,0.6-3.1,0.6c-2.4,0.2-4.5-1.7-4.6-4.1c0-0.2,0-0.4,0-0.7c0-2.8,1.7-5.1,4.4-5.1c3.1,0,3.9,2.7,3.9,4.4
		c0,0.3,0,0.5-0.1,0.8L193.3,980.8z M198.3,979.6c0-1.1-0.4-2.8-2.4-2.8c-1.5,0.1-2.6,1.3-2.6,2.8H198.3z"/>
	<path class="st7" d="M202.1,971.4h1.7v13.8h-1.7V971.4z"/>
	<path class="st7" d="M216.4,972.1h1.7v11.7h5.6v1.4h-7.3V972.1z"/>
	<path class="st7" d="M227.7,981.1l-1.4,4.1h-1.7l4.4-13.1h2l4.5,13.1h-1.8l-1.4-4.1H227.7z M232,979.8l-1.3-3.8
		c-0.3-0.9-0.5-1.6-0.7-2.4l0,0c-0.2,0.8-0.4,1.6-0.7,2.4l-1.3,3.8H232z"/>
	<path class="st7" d="M237.4,972.3c1-0.2,2.1-0.3,3.1-0.3c1.3-0.1,2.5,0.2,3.6,1c0.7,0.5,1.1,1.4,1.1,2.3c0,1.3-0.9,2.5-2.2,2.9l0,0
		c1.6,0.3,2.7,1.7,2.7,3.3c0,1-0.4,1.9-1.1,2.6c-0.9,0.8-2.4,1.2-4.5,1.2c-0.9,0-1.8,0-2.6-0.2L237.4,972.3z M239.1,977.6h1.5
		c1.8,0,2.8-0.9,2.8-2.2c0-1.5-1.2-2.1-2.9-2.1c-0.5,0-1,0-1.5,0.1L239.1,977.6L239.1,977.6z M239.1,983.9c0.5,0.1,0.9,0.1,1.4,0.1
		c1.7,0,3.4-0.6,3.4-2.5c0-1.8-1.5-2.5-3.4-2.5h-1.4V983.9z"/>
	<path class="st7" d="M250,973.1v2.7h2.4v1.3H250v5.1c0,1.2,0.3,1.8,1.3,1.8c0.3,0,0.7,0,1-0.1l0.1,1.3c-0.5,0.2-1,0.2-1.5,0.2
		c-0.7,0-1.4-0.2-1.8-0.7c-0.5-0.7-0.8-1.6-0.7-2.4v-5.1h-1.5v-1.3h1.5v-2.3L250,973.1z"/>
	<path class="st7" d="M262.2,982.6c0,1,0,1.8,0.1,2.6h-1.5l-0.1-1.5l0,0c-0.6,1.1-1.8,1.8-3.1,1.7c-1.5,0-3.2-0.8-3.2-4.1v-5.5h1.7
		v5.2c0,1.8,0.5,3,2.1,3c1,0,1.9-0.6,2.3-1.6c0.1-0.3,0.2-0.6,0.2-0.9v-5.8h1.7L262.2,982.6z"/>
	<path class="st7" d="M265,978.7c0-1.1,0-2.1-0.1-2.9h1.5l0.1,1.8h0.1c0.3-1.2,1.4-2,2.6-2.1c0.2,0,0.3,0,0.5,0.1v1.6
		c-0.2,0-0.4-0.1-0.6-0.1c-1.2,0-2.2,1-2.3,2.2c0,0.3-0.1,0.5-0.1,0.8v5H265V978.7z"/>
	<path class="st7" d="M273.3,973.2c0,0.6-0.5,1.1-1.1,1.1s-1.1-0.5-1.1-1.1s0.4-1.1,1-1.1c0,0,0,0,0.1,0
		C272.8,972.1,273.3,972.5,273.3,973.2C273.3,973.1,273.3,973.1,273.3,973.2z M271.4,985.2v-9.4h1.7v9.4H271.4z"/>
	<path class="st7" d="M275.7,983.5c0.7,0.4,1.5,0.7,2.3,0.7c1.2,0,1.8-0.6,1.8-1.4c0-0.8-0.5-1.3-1.7-1.7c-1.7-0.6-2.5-1.5-2.5-2.7
		c0-1.5,1.2-2.8,3.2-2.8c0.8,0,1.6,0.2,2.3,0.6l-0.4,1.2c-0.6-0.4-1.2-0.5-1.9-0.5c-1,0-1.6,0.6-1.6,1.3c0,0.8,0.6,1.1,1.8,1.6
		c1.6,0.6,2.5,1.4,2.5,2.8c0,1.6-1.3,2.8-3.5,2.8c-0.9,0-1.8-0.2-2.6-0.6L275.7,983.5z"/>
	<path class="st7" d="M283.7,978.3c0-1,0-1.8-0.1-2.5h1.5l0.1,1.5h0.1c0.6-1.1,1.7-1.8,3-1.7c1.2,0,2.3,0.7,2.7,1.9l0,0
		c0.3-0.5,0.6-0.9,1-1.2c0.6-0.5,1.3-0.7,2.1-0.7c1.2,0,3.1,0.8,3.1,4.1v5.5h-1.7v-5.3c0-1.8-0.7-2.9-2-2.9c-0.9,0-1.7,0.7-2,1.6
		c-0.1,0.3-0.1,0.6-0.1,0.9v5.8h-1.7v-5.6c0-1.5-0.7-2.6-2-2.6c-1.3,0.2-2.3,1.2-2.3,2.5v5.7h-1.7V978.3z"/>
	<path class="st7" d="M300.8,980.8c-0.1,1.7,1.1,3.1,2.7,3.3c0.2,0,0.3,0,0.5,0c0.9,0,1.8-0.1,2.6-0.5l0.3,1.2
		c-1,0.4-2.1,0.6-3.1,0.6c-2.4,0.2-4.5-1.7-4.6-4.1c0-0.2,0-0.4,0-0.7c0-2.8,1.7-5.1,4.4-5.1c3.1,0,3.9,2.7,3.9,4.4
		c0,0.3,0,0.5-0.1,0.8L300.8,980.8z M305.8,979.6c0-1.1-0.4-2.8-2.4-2.8c-1.5,0.1-2.6,1.3-2.6,2.8H305.8z"/>
	<path class="st7" d="M309.2,988.4V988c0.5-0.2,1-0.5,1.4-0.9s0.6-1,0.6-1.5l-0.1-0.3l-0.1-0.1l-0.8,0.3c-0.7,0-1-0.4-1-1.1
		c0-0.3,0.1-0.6,0.4-0.8c0.2-0.2,0.5-0.3,0.9-0.3c0.5,0,0.9,0.3,1.2,0.7c0.3,0.4,0.4,0.9,0.4,1.3C312,986.8,311.1,987.8,309.2,988.4
		z"/>
	<path class="st7" d="M325.1,980.8c-0.1,1.7,1.1,3.1,2.7,3.3c0.2,0,0.3,0,0.5,0c0.9,0,1.8-0.1,2.6-0.5l0.3,1.2
		c-1,0.4-2.1,0.6-3.1,0.6c-2.4,0.2-4.5-1.7-4.6-4.1c0-0.2,0-0.4,0-0.7c0-2.8,1.7-5.1,4.4-5.1c3.1,0,3.9,2.7,3.9,4.4
		c0,0.3,0,0.5-0.1,0.8L325.1,980.8z M330.1,979.6c0-1.1-0.4-2.8-2.4-2.8c-1.5,0.1-2.6,1.3-2.6,2.8H330.1z"/>
	<path class="st7" d="M333.8,978.3c0-1,0-1.8-0.1-2.5h1.5l0.1,1.6l0,0c0.6-1.1,1.8-1.8,3.1-1.8c1.3,0,3.3,0.8,3.3,4v5.6H340v-5.4
		c0-1.5-0.6-2.8-2.2-2.8c-1.1,0-2,0.7-2.3,1.7c-0.1,0.3-0.1,0.5-0.1,0.8v5.6h-1.7v-6.8L333.8,978.3L333.8,978.3z"/>
	<path class="st7" d="M354.2,985.2c0-0.6,0.1-1.6,0.1-2.4v-11.4h1.7v5.9l0,0c0.7-1.1,1.9-1.8,3.2-1.7c2.3,0,4,1.9,4,4.8
		c0,3.4-2.1,5-4.2,5c-1.3,0.1-2.5-0.6-3.1-1.8h-0.1l-0.1,1.6L354.2,985.2z M356,981.4c0,0.2,0,0.4,0.1,0.6c0.3,1.2,1.3,2,2.6,2
		c1.8,0,2.9-1.5,2.9-3.6c0-1.9-1-3.5-2.8-3.5c-1.2,0-2.3,0.9-2.6,2.1c-0.1,0.2-0.1,0.5-0.1,0.7L356,981.4z"/>
	<path class="st7" d="M370.6,985.2l-0.1-1.2h-0.1c-0.7,0.9-1.7,1.4-2.9,1.4c-1.5,0.1-2.8-1-2.9-2.5c0-0.1,0-0.1,0-0.2
		c0-2.3,2-3.5,5.6-3.5V979c0.1-1.1-0.6-2-1.7-2.2c-0.2,0-0.3,0-0.5,0c-0.9,0-1.7,0.2-2.4,0.7l-0.4-1.1c0.9-0.6,2-0.8,3.1-0.8
		c2.9,0,3.6,2,3.6,3.8v3.5c0,0.8,0,1.5,0.2,2.3H370.6z M370.3,980.4c-1.9,0-4,0.3-4,2.1c-0.1,0.8,0.6,1.6,1.4,1.6c0.1,0,0.2,0,0.2,0
		c1,0,1.9-0.6,2.3-1.6c0.1-0.2,0.1-0.4,0.1-0.5V980.4z"/>
	<path class="st7" d="M374.5,983.5c0.7,0.4,1.5,0.7,2.3,0.7c1.2,0,1.8-0.6,1.8-1.4c0-0.8-0.5-1.3-1.7-1.7c-1.7-0.6-2.5-1.5-2.5-2.7
		c0-1.5,1.2-2.8,3.2-2.8c0.8,0,1.6,0.2,2.3,0.6l-0.4,1.2c-0.6-0.4-1.2-0.5-1.9-0.5c-1,0-1.6,0.6-1.6,1.3c0,0.8,0.6,1.1,1.8,1.6
		c1.6,0.6,2.5,1.4,2.5,2.8c0,1.6-1.3,2.8-3.5,2.8c-0.9,0-1.8-0.2-2.6-0.6L374.5,983.5z"/>
	<path class="st7" d="M383.3,980.8c-0.1,1.7,1.1,3.1,2.7,3.3c0.2,0,0.3,0,0.5,0c0.9,0,1.8-0.1,2.6-0.5l0.3,1.2
		c-1,0.4-2.1,0.6-3.1,0.6c-2.4,0.2-4.5-1.7-4.6-4.1c0-0.2,0-0.4,0-0.7c0-2.8,1.7-5.1,4.4-5.1c3.1,0,3.9,2.7,3.9,4.4
		c0,0.3,0,0.5-0.1,0.8L383.3,980.8z M388.4,979.6c0-1.1-0.4-2.8-2.4-2.8c-1.5,0.1-2.6,1.3-2.6,2.8H388.4z"/>
	<path class="st7" d="M407,985.2l-0.1-1.2h-0.1c-0.7,0.9-1.7,1.4-2.9,1.4c-1.5,0.1-2.8-1-2.9-2.5c0-0.1,0-0.1,0-0.2
		c0-2.3,2-3.5,5.6-3.5V979c0.1-1.1-0.6-2-1.7-2.2c-0.2,0-0.3,0-0.5,0c-0.9,0-1.7,0.2-2.4,0.7l-0.4-1.1c0.9-0.6,2-0.8,3.1-0.8
		c2.9,0,3.6,2,3.6,3.8v3.5c0,0.8,0,1.5,0.2,2.3H407z M406.8,980.4c-1.9,0-4,0.3-4,2.1c-0.1,0.8,0.6,1.6,1.4,1.6c0.1,0,0.2,0,0.2,0
		c1,0,1.9-0.6,2.3-1.6c0.1-0.2,0.1-0.4,0.1-0.5V980.4z"/>
	<path class="st7" d="M429,971.4v11.4c0,0.8,0,1.8,0.1,2.4h-1.5l-0.1-1.6l0,0c-0.6,1.2-1.9,1.9-3.2,1.8c-2.3,0-4-1.9-4-4.8
		c0-3.1,1.9-5,4.2-5c1.1-0.1,2.2,0.5,2.8,1.4l0,0v-5.6L429,971.4L429,971.4z M427.3,979.6c0-0.2,0-0.5-0.1-0.7c-0.3-1.2-1.3-2-2.5-2
		c-1.8,0-2.8,1.6-2.8,3.6c0,1.9,0.9,3.5,2.8,3.5c1.2,0,2.3-0.9,2.5-2c0.1-0.2,0.1-0.5,0.1-0.7V979.6z"/>
	<path class="st7" d="M437,985.2l-0.1-1.2h-0.1c-0.7,0.9-1.7,1.4-2.9,1.4c-1.5,0.1-2.8-1-2.9-2.5c0-0.1,0-0.1,0-0.2
		c0-2.3,2-3.5,5.6-3.5V979c0.1-1.1-0.6-2-1.7-2.2c-0.2,0-0.3,0-0.5,0c-0.9,0-1.7,0.2-2.4,0.7l-0.4-1.1c0.9-0.6,2-0.8,3.1-0.8
		c2.9,0,3.6,2,3.6,3.8v3.5c0,0.8,0,1.5,0.2,2.3H437z M436.8,980.4c-1.9,0-4,0.3-4,2.1c-0.1,0.8,0.6,1.6,1.4,1.6c0.1,0,0.2,0,0.2,0
		c1,0,1.9-0.6,2.3-1.6c0.1-0.2,0.1-0.4,0.1-0.5V980.4z"/>
	<path class="st7" d="M449.3,971.4v11.4c0,0.8,0,1.8,0.1,2.4h-1.5l-0.1-1.6l0,0c-0.6,1.2-1.9,1.9-3.2,1.8c-2.3,0-4-1.9-4-4.8
		c0-3.1,1.9-5,4.2-5c1.1-0.1,2.2,0.5,2.8,1.4l0,0v-5.6L449.3,971.4L449.3,971.4z M447.6,979.6c0-0.2,0-0.5-0.1-0.7
		c-0.3-1.2-1.3-2-2.5-2c-1.8,0-2.8,1.6-2.8,3.6c0,1.9,0.9,3.5,2.8,3.5c1.2,0,2.3-0.9,2.5-2c0.1-0.2,0.1-0.5,0.1-0.7V979.6z"/>
	<path class="st7" d="M453.1,980.8c-0.1,1.7,1.1,3.1,2.7,3.3c0.2,0,0.3,0,0.5,0c0.9,0,1.8-0.1,2.6-0.5l0.3,1.2
		c-1,0.4-2.1,0.6-3.1,0.6c-2.4,0.2-4.5-1.7-4.6-4.1c0-0.2,0-0.4,0-0.7c0-2.8,1.7-5.1,4.4-5.1c3.1,0,3.9,2.7,3.9,4.4
		c0,0.3,0,0.5-0.1,0.8L453.1,980.8z M458.1,979.6c0-1.1-0.4-2.8-2.4-2.8c-1.5,0.1-2.6,1.3-2.6,2.8H458.1z"/>
	<path class="st7" d="M461.6,983.5c0.7,0.4,1.5,0.7,2.3,0.7c1.2,0,1.8-0.6,1.8-1.4c0-0.8-0.5-1.3-1.7-1.7c-1.7-0.6-2.5-1.5-2.5-2.7
		c0-1.5,1.2-2.8,3.2-2.8c0.8,0,1.6,0.2,2.3,0.6l-0.4,1.2c-0.6-0.4-1.2-0.5-1.9-0.5c-1,0-1.6,0.6-1.6,1.3c0,0.8,0.6,1.1,1.8,1.6
		c1.6,0.6,2.5,1.4,2.5,2.8c0,1.6-1.3,2.8-3.5,2.8c-0.9,0-1.8-0.2-2.6-0.6L461.6,983.5z"/>
	<path class="st7" d="M487.3,971.4v11.4c0,0.8,0,1.8,0.1,2.4h-1.5l-0.1-1.6l0,0c-0.6,1.2-1.9,1.9-3.2,1.8c-2.3,0-4-1.9-4-4.8
		c0-3.1,1.9-5,4.2-5c1.1-0.1,2.2,0.5,2.8,1.4l0,0v-5.6L487.3,971.4L487.3,971.4z M485.6,979.6c0-0.2,0-0.5-0.1-0.7
		c-0.3-1.2-1.3-2-2.5-2c-1.8,0-2.8,1.6-2.8,3.6c0,1.9,0.9,3.5,2.8,3.5c1.2,0,2.3-0.9,2.5-2c0.1-0.2,0.1-0.5,0.1-0.7V979.6z"/>
	<path class="st7" d="M491.1,980.8c-0.1,1.7,1.1,3.1,2.7,3.3c0.2,0,0.3,0,0.5,0c0.9,0,1.8-0.1,2.6-0.5l0.3,1.2
		c-1,0.4-2.1,0.6-3.1,0.6c-2.4,0.2-4.5-1.7-4.6-4.1c0-0.2,0-0.4,0-0.7c0-2.8,1.7-5.1,4.4-5.1c3.1,0,3.9,2.7,3.9,4.4
		c0,0.3,0,0.5-0.1,0.8L491.1,980.8z M496.1,979.6c0-1.1-0.4-2.8-2.4-2.8c-1.5,0.1-2.6,1.3-2.6,2.8H496.1z"/>
	<path class="st7" d="M509.6,971.4h1.7v13.8h-1.7V971.4z"/>
	<path class="st7" d="M515.4,971.9l-0.3,4.7h-1l-0.3-4.7H515.4z"/>
	<path class="st7" d="M524.7,979.1h-5.1v4.7h5.7v1.4h-7.4v-13.1h7.1v1.4h-5.4v4.1h5.1L524.7,979.1L524.7,979.1z"/>
	<path class="st7" d="M527.4,978.3c0-1,0-1.8-0.1-2.5h1.5l0.1,1.6l0,0c0.6-1.1,1.8-1.8,3.1-1.8s3.3,0.8,3.3,4v5.6h-1.7v-5.4
		c0-1.5-0.6-2.8-2.2-2.8c-1.1,0-2,0.7-2.3,1.7c-0.1,0.3-0.1,0.5-0.1,0.8v5.6h-1.7L527.4,978.3z"/>
	<path class="st7" d="M544.5,983.7L544.5,983.7c-0.7,1.1-1.9,1.7-3.1,1.7c-2.2,0-4-1.9-4-4.8c0-3.5,2.3-5.1,4.3-5.1
		c1.2-0.1,2.3,0.6,2.9,1.6l0,0l0.1-1.4h1.6c0,0.8-0.1,1.6-0.1,2.6V989h-1.7V983.7z M544.5,979.6c0-0.2,0-0.5-0.1-0.7
		c-0.3-1.1-1.3-1.9-2.4-1.9c-1.8,0-2.8,1.5-2.8,3.6c0,1.9,0.9,3.5,2.8,3.5c1.1,0,2.1-0.8,2.4-1.9c0.1-0.3,0.1-0.5,0.1-0.8V979.6z"/>
	<path class="st7" d="M556.9,982.6c0,1,0,1.8,0.1,2.6h-1.5l-0.1-1.5l0,0c-0.6,1.1-1.8,1.8-3.1,1.7c-1.5,0-3.2-0.8-3.2-4.1v-5.5h1.7
		v5.2c0,1.8,0.5,3,2.1,3c1,0,1.9-0.6,2.3-1.6c0.1-0.3,0.2-0.6,0.2-0.9v-5.8h1.7L556.9,982.6z"/>
	<path class="st7" d="M560.7,980.8c-0.1,1.7,1.1,3.1,2.7,3.3c0.2,0,0.3,0,0.5,0c0.9,0,1.8-0.1,2.6-0.5l0.3,1.2
		c-1,0.4-2.1,0.6-3.1,0.6c-2.4,0.2-4.5-1.7-4.6-4.1c0-0.2,0-0.4,0-0.7c0-2.8,1.7-5.1,4.4-5.1c3.1,0,3.9,2.7,3.9,4.4
		c0,0.3,0,0.5-0.1,0.8L560.7,980.8z M565.7,979.6c0-1.1-0.4-2.8-2.4-2.8c-1.5,0.1-2.6,1.3-2.6,2.8H565.7z"/>
	<path class="st7" d="M569.2,983.5c0.7,0.4,1.5,0.7,2.3,0.7c1.2,0,1.8-0.6,1.8-1.4c0-0.8-0.5-1.3-1.7-1.7c-1.7-0.6-2.5-1.5-2.5-2.7
		c0-1.5,1.2-2.8,3.2-2.8c0.8,0,1.6,0.2,2.3,0.6l-0.4,1.2c-0.6-0.4-1.2-0.5-1.9-0.5c-1,0-1.6,0.6-1.6,1.3c0,0.8,0.6,1.1,1.8,1.6
		c1.6,0.6,2.5,1.4,2.5,2.8c0,1.6-1.3,2.8-3.5,2.8c-0.9,0-1.8-0.2-2.6-0.6L569.2,983.5z"/>
	<path class="st7" d="M579.2,973.1v2.7h2.4v1.3h-2.4v5.1c0,1.2,0.3,1.8,1.3,1.8c0.3,0,0.7,0,1-0.1l0.1,1.3c-0.5,0.2-1,0.2-1.5,0.2
		c-0.7,0-1.4-0.2-1.8-0.7c-0.5-0.7-0.8-1.6-0.7-2.4v-5.1h-1.5v-1.3h1.5v-2.3L579.2,973.1z"/>
	<path class="st7" d="M588.8,985.2l-0.1-1.2h-0.1c-0.7,0.9-1.7,1.4-2.9,1.4c-1.5,0.1-2.8-1-2.9-2.5c0-0.1,0-0.1,0-0.2
		c0-2.3,2-3.5,5.6-3.5V979c0.1-1.1-0.6-2-1.7-2.2c-0.2,0-0.3,0-0.5,0c-0.9,0-1.7,0.2-2.4,0.7l-0.4-1.1c0.9-0.6,2-0.8,3.1-0.8
		c2.9,0,3.6,2,3.6,3.8v3.5c0,0.8,0,1.5,0.2,2.3H588.8z M588.5,980.4c-1.9,0-4,0.3-4,2.1c-0.1,0.8,0.6,1.6,1.4,1.6c0.1,0,0.2,0,0.2,0
		c1,0,1.9-0.6,2.3-1.6c0.1-0.2,0.1-0.4,0.1-0.5V980.4z"/>
	<path class="st7" d="M610.8,971.4v11.4c0,0.8,0,1.8,0.1,2.4h-1.5l-0.1-1.6l0,0c-0.6,1.2-1.9,1.9-3.2,1.8c-2.3,0-4-1.9-4-4.8
		c0-3.1,1.9-5,4.2-5c1.1-0.1,2.2,0.5,2.8,1.4l0,0v-5.6L610.8,971.4L610.8,971.4z M609,979.6c0-0.2,0-0.5-0.1-0.7
		c-0.3-1.2-1.3-2-2.5-2c-1.8,0-2.8,1.6-2.8,3.6c0,1.9,0.9,3.5,2.8,3.5c1.2,0,2.3-0.9,2.5-2c0.1-0.2,0.1-0.5,0.1-0.7V979.6z"/>
	<path class="st7" d="M614.9,971.9l-0.3,4.7h-1l-0.3-4.7H614.9z"/>
	<path class="st7" d="M625.6,980.4c0.2,2.5-1.7,4.8-4.2,5c-0.2,0-0.3,0-0.5,0c-2.5,0-4.5-1.9-4.5-4.8c0-3.1,2.1-5,4.7-5
		C623.8,975.6,625.6,977.6,625.6,980.4z M618.1,980.5c0,2.1,1.2,3.6,2.9,3.6c1.6,0,2.9-1.5,2.9-3.6c0-1.6-0.8-3.6-2.8-3.6
		S618.1,978.7,618.1,980.5L618.1,980.5z"/>
	<path class="st7" d="M634.4,984.8c-0.8,0.4-1.8,0.6-2.7,0.5c-2.5,0.1-4.6-1.8-4.7-4.2c0-0.2,0-0.4,0-0.6c-0.1-2.6,1.9-4.9,4.5-5
		c0.2,0,0.3,0,0.5,0c0.8,0,1.6,0.2,2.4,0.5l-0.4,1.3c-0.6-0.3-1.3-0.5-2-0.4c-2,0.1-3.4,1.8-3.3,3.8c0.1,1.8,1.5,3.2,3.3,3.3
		c0.7,0,1.4-0.2,2.1-0.5L634.4,984.8z"/>
	<path class="st7" d="M644.3,982.6c0,1,0,1.8,0.1,2.6h-1.5l-0.1-1.5l0,0c-0.6,1.1-1.8,1.8-3.1,1.7c-1.5,0-3.2-0.8-3.2-4.1v-5.5h1.7
		v5.2c0,1.8,0.5,3,2.1,3c1,0,1.9-0.6,2.3-1.6c0.1-0.3,0.2-0.6,0.2-0.9v-5.8h1.7L644.3,982.6z"/>
	<path class="st7" d="M647.1,978.9c0-1.2,0-2.2-0.1-3.1h1.5l0.1,1.6l0,0c0.7-1.2,2-1.9,3.3-1.8c2.3,0,4,1.9,4,4.8c0,3.4-2.1,5-4.3,5
		c-1.2,0.1-2.3-0.5-2.9-1.5l0,0v5.1H647L647.1,978.9z M648.8,981.4c0,0.2,0,0.5,0.1,0.7c0.3,1.2,1.3,2,2.6,2c1.8,0,2.9-1.5,2.9-3.6
		c0-1.9-1-3.5-2.8-3.5c-1.2,0-2.3,0.9-2.6,2.1c-0.1,0.2-0.1,0.5-0.1,0.7v1.6H648.8z"/>
	<path class="st7" d="M663.4,985.2l-0.1-1.2h-0.1c-0.7,0.9-1.7,1.4-2.9,1.4c-1.5,0.1-2.8-1-2.9-2.5c0-0.1,0-0.1,0-0.2
		c0-2.3,2-3.5,5.6-3.5V979c0.1-1.1-0.6-2-1.7-2.2c-0.2,0-0.3,0-0.5,0c-0.9,0-1.7,0.2-2.4,0.7l-0.4-1.1c0.9-0.6,2-0.8,3.1-0.8
		c2.9,0,3.6,2,3.6,3.8v3.5c0,0.8,0,1.5,0.2,2.3H663.4z M663.1,980.4c-1.9,0-4,0.3-4,2.1c-0.1,0.8,0.6,1.6,1.4,1.6c0.1,0,0.2,0,0.2,0
		c1,0,1.9-0.6,2.3-1.6c0.1-0.2,0.1-0.4,0.1-0.5V980.4z"/>
	<path class="st7" d="M674.2,984.8c-0.8,0.4-1.8,0.6-2.7,0.5c-2.5,0.1-4.6-1.8-4.7-4.2c0-0.2,0-0.4,0-0.6c-0.1-2.6,1.9-4.9,4.5-5
		c0.2,0,0.3,0,0.5,0c0.8,0,1.6,0.2,2.4,0.5l-0.4,1.3c-0.6-0.3-1.3-0.5-2-0.4c-2,0.1-3.4,1.8-3.3,3.8c0.1,1.8,1.5,3.2,3.3,3.3
		c0.7,0,1.4-0.2,2.1-0.5L674.2,984.8z"/>
	<path class="st7" d="M678.1,973.2c0,0.6-0.5,1.1-1.1,1.1s-1.1-0.5-1.1-1.1l0,0c0-0.6,0.4-1.1,1-1.1c0,0,0,0,0.1,0
		C677.6,972.1,678.1,972.5,678.1,973.2C678.1,973.1,678.1,973.1,678.1,973.2z M676.2,985.2v-9.4h1.7v9.4H676.2z"/>
	<path class="st7" d="M689.3,980.4c0.2,2.5-1.6,4.8-4.2,5c-0.2,0-0.3,0-0.5,0c-2.5,0-4.5-1.9-4.5-4.8c0-3.1,2.1-5,4.7-5
		C687.4,975.6,689.3,977.6,689.3,980.4z M681.8,980.5c0,2.1,1.2,3.6,2.9,3.6c1.6,0,2.9-1.5,2.9-3.6c0-1.6-0.8-3.6-2.8-3.6
		C682.7,976.9,681.8,978.7,681.8,980.5L681.8,980.5z M687.2,971.7l-2.4,2.8h-1.2l1.7-2.8H687.2z"/>
	<path class="st7" d="M702.1,980.8c-0.1,1.7,1.1,3.1,2.7,3.3c0.2,0,0.3,0,0.5,0c0.9,0,1.8-0.1,2.6-0.5l0.3,1.2
		c-1,0.4-2.1,0.6-3.1,0.6c-2.4,0.2-4.5-1.7-4.6-4.1c0-0.2,0-0.4,0-0.7c0-2.8,1.7-5.1,4.4-5.1c3.1,0,3.9,2.7,3.9,4.4
		c0,0.3,0,0.5-0.1,0.8L702.1,980.8z M707.1,979.6c0-1.1-0.4-2.8-2.4-2.8c-1.5,0.1-2.6,1.3-2.6,2.8H707.1z"/>
	<path class="st7" d="M710.8,978.3c0-1,0-1.8-0.1-2.5h1.5l0.1,1.6l0,0c0.6-1.1,1.8-1.8,3.1-1.8s3.3,0.8,3.3,4v5.6H717v-5.4
		c0-1.5-0.6-2.8-2.2-2.8c-1.1,0-2,0.7-2.3,1.7c-0.1,0.3-0.1,0.5-0.1,0.8v5.6h-1.7L710.8,978.3z"/>
	<path class="st7" d="M736.5,985.2l-0.1-1.2h-0.1c-0.7,0.9-1.7,1.4-2.9,1.4c-1.5,0.1-2.8-1-2.9-2.5c0-0.1,0-0.2,0-0.2
		c0-2.3,2-3.5,5.6-3.5V979c0.1-1.1-0.6-2-1.7-2.2c-0.2,0-0.3,0-0.5,0c-0.9,0-1.7,0.2-2.4,0.7l-0.4-1.1c0.9-0.6,2-0.8,3.1-0.8
		c2.9,0,3.6,2,3.6,3.8v3.5c0,0.8,0,1.5,0.2,2.3H736.5z M736.3,980.4c-1.9,0-4,0.3-4,2.1c-0.1,0.8,0.6,1.6,1.4,1.6c0.1,0,0.2,0,0.2,0
		c1,0,1.9-0.6,2.3-1.6c0.1-0.2,0.1-0.4,0.1-0.5V980.4z"/>
	<path class="st7" d="M740.7,971.4h1.7v13.8h-1.7V971.4z"/>
	<path class="st7" d="M745.2,971.4h1.7v13.8h-1.7V971.4z"/>
	<path class="st7" d="M758.3,980.4c0.2,2.5-1.6,4.8-4.2,5c-0.2,0-0.3,0-0.5,0c-2.5,0-4.5-1.9-4.5-4.8c0-3.1,2.1-5,4.7-5
		C756.5,975.6,758.3,977.6,758.3,980.4z M750.9,980.5c0,2.1,1.2,3.6,2.9,3.6c1.6,0,2.9-1.5,2.9-3.6c0-1.6-0.8-3.6-2.8-3.6
		C751.7,976.9,750.9,978.7,750.9,980.5L750.9,980.5z"/>
	<path class="st7" d="M762.5,973.1v2.7h2.4v1.3h-2.4v5.1c0,1.2,0.3,1.8,1.3,1.8c0.3,0,0.7,0,1-0.1l0.1,1.3c-0.5,0.2-1,0.2-1.5,0.2
		c-0.7,0-1.4-0.2-1.8-0.7c-0.5-0.7-0.8-1.6-0.7-2.4v-5.1h-1.5v-1.3h1.5v-2.3L762.5,973.1z"/>
	<path class="st7" d="M764.6,987.9c0.7,0,1.4-0.3,1.9-0.7c0.5-0.5,0.6-1.3,0.6-3.5v-7.9h1.7v8.5c0,1.8-0.3,3-1.1,3.9
		c-0.8,0.7-1.8,1.1-2.9,1.1L764.6,987.9z M769,973.2c0,0.6-0.4,1-1,1h-0.1c-0.6,0-1-0.4-1-1c0,0,0,0,0-0.1c0-0.6,0.4-1.1,1-1.1
		c0,0,0,0,0.1,0C768.5,972.1,769,972.5,769,973.2C769,973.1,769,973.1,769,973.2L769,973.2z"/>
	<path class="st7" d="M776.8,985.2l-0.1-1.2h-0.1c-0.7,0.9-1.7,1.4-2.9,1.4c-1.5,0.1-2.8-1-2.9-2.5c0-0.1,0-0.2,0-0.2
		c0-2.3,2-3.5,5.6-3.5V979c0.1-1.1-0.6-2-1.7-2.2c-0.2,0-0.3,0-0.5,0c-0.9,0-1.7,0.2-2.4,0.7l-0.4-1.1c0.9-0.6,2-0.8,3.1-0.8
		c2.9,0,3.6,2,3.6,3.8v3.5c0,0.8,0,1.5,0.2,2.3H776.8z M776.6,980.4c-1.9,0-4,0.3-4,2.1c-0.1,0.8,0.6,1.6,1.4,1.6c0.1,0,0.2,0,0.2,0
		c1,0,1.9-0.6,2.3-1.6c0.1-0.2,0.1-0.4,0.1-0.5V980.4z"/>
	<path class="st7" d="M781,978.3c0-1,0-1.8-0.1-2.5h1.5l0.1,1.5h0.1c0.6-1.1,1.7-1.8,3-1.7c1.2,0,2.3,0.7,2.7,1.9l0,0
		c0.3-0.5,0.6-0.9,1-1.2c0.6-0.5,1.3-0.7,2.1-0.7c1.2,0,3.1,0.8,3.1,4.1v5.5h-1.7v-5.3c0-1.8-0.7-2.9-2-2.9c-0.9,0-1.7,0.7-2,1.6
		c-0.1,0.3-0.1,0.6-0.1,0.9v5.8H787v-5.6c0-1.5-0.7-2.6-2-2.6c-1,0.1-1.8,0.7-2.1,1.7c-0.1,0.3-0.1,0.6-0.1,0.8v5.7h-1.7L781,978.3z
		"/>
	<path class="st7" d="M798.1,980.8c-0.1,1.7,1.1,3.1,2.7,3.3c0.2,0,0.3,0,0.5,0c0.9,0,1.8-0.1,2.6-0.5l0.3,1.2
		c-1,0.4-2.1,0.6-3.1,0.6c-2.4,0.2-4.5-1.7-4.6-4.1c0-0.2,0-0.4,0-0.7c0-2.8,1.7-5.1,4.4-5.1c3.1,0,3.9,2.7,3.9,4.4
		c0,0.3,0,0.5-0.1,0.8L798.1,980.8z M803.1,979.6c0-1.1-0.4-2.8-2.4-2.8c-1.5,0.1-2.6,1.3-2.6,2.8H803.1z"/>
	<path class="st7" d="M806.9,978.3c0-1,0-1.8-0.1-2.5h1.5l0.1,1.6l0,0c0.6-1.1,1.8-1.8,3.1-1.8s3.3,0.8,3.3,4v5.6h-1.7v-5.4
		c0-1.5-0.6-2.8-2.2-2.8c-1.1,0-2,0.7-2.3,1.7c-0.1,0.3-0.1,0.5-0.1,0.8v5.6h-1.7L806.9,978.3z"/>
	<path class="st7" d="M819.6,973.1v2.7h2.4v1.3h-2.4v5.1c0,1.2,0.3,1.8,1.3,1.8c0.3,0,0.7,0,1-0.1l0.1,1.3c-0.5,0.2-1,0.2-1.5,0.2
		c-0.7,0-1.4-0.2-1.8-0.7c-0.5-0.7-0.8-1.6-0.7-2.4v-5.1h-1.5v-1.3h1.5v-2.3L819.6,973.1z"/>
	<path class="st7" d="M823.7,983.5c0.7,0.4,1.5,0.7,2.3,0.7c1.2,0,1.8-0.6,1.8-1.4c0-0.8-0.5-1.3-1.7-1.7c-1.7-0.6-2.5-1.5-2.5-2.7
		c0-1.5,1.2-2.8,3.2-2.8c0.8,0,1.6,0.2,2.3,0.6l-0.4,1.2c-0.6-0.4-1.2-0.5-1.9-0.5c-1,0-1.6,0.6-1.6,1.3c0,0.8,0.6,1.1,1.8,1.6
		c1.6,0.6,2.5,1.4,2.5,2.8c0,1.6-1.3,2.8-3.5,2.8c-0.9,0-1.8-0.2-2.6-0.6L823.7,983.5z"/>
	<path class="st7" d="M849.5,971.4v11.4c0,0.8,0,1.8,0.1,2.4h-1.5l-0.1-1.6l0,0c-0.6,1.2-1.9,1.9-3.2,1.8c-2.3,0-4-1.9-4-4.8
		c0-3.1,1.9-5,4.2-5c1.1-0.1,2.2,0.5,2.8,1.4l0,0v-5.6L849.5,971.4L849.5,971.4z M847.8,979.6c0-0.2,0-0.5-0.1-0.7
		c-0.3-1.2-1.3-2-2.5-2c-1.8,0-2.8,1.6-2.8,3.6c0,1.9,0.9,3.5,2.8,3.5c1.2,0,2.3-0.9,2.5-2c0.1-0.2,0.1-0.5,0.1-0.7V979.6z"/>
	<path class="st7" d="M853.3,980.8c-0.1,1.7,1.1,3.1,2.7,3.3c0.2,0,0.3,0,0.5,0c0.9,0,1.8-0.1,2.6-0.5l0.3,1.2
		c-1,0.4-2.1,0.6-3.1,0.6c-2.4,0.2-4.5-1.7-4.6-4.1c0-0.2,0-0.4,0-0.7c0-2.8,1.7-5.1,4.4-5.1c3.1,0,3.9,2.7,3.9,4.4
		c0,0.3,0,0.5-0.1,0.8L853.3,980.8z M858.3,979.6c0-1.1-0.4-2.8-2.4-2.8c-1.5,0.1-2.6,1.3-2.6,2.8H858.3z"/>
	<path class="st7" d="M871.7,971.4h1.7v13.8h-1.7V971.4z"/>
	<path class="st7" d="M877.6,971.9l-0.3,4.7h-1l-0.3-4.7H877.6z"/>
	<path class="st7" d="M881.7,972.1v13.1H880v-13.1H881.7z"/>
	<path class="st7" d="M884.7,985.2v-13.1h1.8l4.2,6.6c0.9,1.4,1.7,2.8,2.3,4.3l0,0c-0.2-1.7-0.2-3.3-0.2-5.4v-5.5h1.6v13.1h-1.7
		l-4.2-6.6c-0.9-1.4-1.7-2.9-2.4-4.4H886c0.1,1.6,0.1,3.2,0.1,5.4v5.6L884.7,985.2z"/>
	<path class="st7" d="M904.2,979.1h-5.1v4.7h5.7v1.4h-7.4v-13.1h7.1v1.4h-5.4v4.1h5.1L904.2,979.1L904.2,979.1z"/>
	<path class="st7" d="M907.2,983.7c0.4-0.4,1.1-0.4,1.5,0c0.2,0.2,0.3,0.5,0.3,0.7c0,0.3-0.1,0.6-0.3,0.8c-0.4,0.4-1,0.4-1.4,0l0,0
		c-0.2-0.2-0.3-0.5-0.3-0.7C906.9,984.1,907,983.9,907.2,983.7z"/>
</g>
<text transform="matrix(1 0 0 1 569.4452 557.3719)" class="st8 st9 st10">Estrangers</text>
<text transform="matrix(1 0 0 1 569.4452 593.658)" class="st8 st9 st10">Domèstics</text>
<path class="st11" d="M707.7,575.1H740c5.8,0,10.4,4.7,10.4,10.4l0,0c0,5.8-4.7,10.4-10.4,10.4h-32.3c-5.8,0-10.4-4.7-10.4-10.4l0,0
	C697.2,579.8,701.9,575.1,707.7,575.1z"/>
<path class="st8" d="M707.7,541.3H740c5.8,0,10.4,4.7,10.4,10.4l0,0c0,5.8-4.7,10.4-10.4,10.4h-32.3c-5.8,0-10.4-4.7-10.4-10.4l0,0
	C697.2,546,701.9,541.3,707.7,541.3z"/>
<rect x="95.4" y="336.8" class="st12" width="1154" height="110"/>
<text transform="matrix(1 0 0 1 104.4955 381.0428)" class="st2 st13 st14">-74,2%</text>
<text transform="matrix(1 0 0 1 110.7953 411.0428)" class="st2 st13 st15">Viatgers</text>
<text transform="matrix(1 0 0 1 108.3386 453.352)" class="st2 st13 st14">57.033</text>
<text transform="matrix(1 0 0 1 605.0229 381.3518)" class="st2 st13 st14">-72,8%</text>
<text transform="matrix(1 0 0 1 574.8423 411.3518)" class="st2 st13 st15">Pernoctacions</text>
<text transform="matrix(1 0 0 1 595.8578 453.352)" class="st2 st13 st14">121.607</text>
<text transform="matrix(1 0 0 1 1099.1509 381.352)" class="st2 st13 st14">-59,1%</text>
<text transform="matrix(1 0 0 1 1098.853 411.352)" class="st2 st13 st15">Empleats</text>
<text transform="matrix(1 0 0 1 1109.7383 453.352)" class="st2 st13 st14">2.018</text>
<text transform="matrix(1 0 0 1 520.1453 90.0744)" class="st2 st13 st16">Síntesi</text>
<g transform="translate(10,58.96)">
	<path id="point-0-0_1_" class="st11" d="M331.7,528.2c93.8,0,169.8,76,169.8,169.8s-76,169.8-169.8,169.8s-169.8-76-169.8-169.8
		c0-30.1,8-59.6,23.1-85.5l95.4,55.6c-16.5,28.4-6.9,64.8,21.4,81.3s64.8,6.9,81.3-21.4c16.5-28.4,6.9-64.8-21.4-81.3
		c-9.1-5.3-19.4-8.1-29.9-8.1V528.2H331.7z"/>
	<path id="point-0-1_1_" class="st2" d="M184.9,612.5c30.4-52.2,86.3-84.3,146.7-84.3v110.4c-21.1,0-40.7,11.2-51.4,29.5
		L184.9,612.5z"/>
	<g pointer-events="none" transform="translate(234.0504771683276,200.4043072147666)">
		<text transform="matrix(1 0 0 1 124.2604 597.0932)" class="st17 st18">83,4%</text>
		<text transform="matrix(1 0 0 1 124.2604 597.0932)" class="st12 st17 st18">83,4%</text>
	</g>
	<g pointer-events="none" transform="translate(149.02921033167237,52.42828653523338)">
		<text transform="matrix(1 0 0 1 95.0492 546.2518)" class="st17 st18">16,6%</text>
		<text transform="matrix(1 0 0 1 95.0492 546.2518)" class="st12 st17 st18">16,6%</text>
	</g>
</g>
<g transform="translate(700.2796874999999,58.96)">
	<path id="point-1-0" class="st11" d="M293.1,528.2c96.2,0,174.1,76,174.1,169.8s-78,169.8-174.1,169.8S119,791.9,119,698.1
		c0-18.9,3.2-37.7,9.6-55.5l107,36.1c-11,31,5.9,64.9,37.7,75.6s66.5-5.7,77.5-36.7s-5.9-64.9-37.7-75.6c-6.4-2.2-13.1-3.3-19.9-3.3
		V528.2H293.1z"/>
	<path id="point-1-1" class="st2" d="M128.6,642.6c24.3-68.4,90.3-114.3,164.6-114.3v110.4c-26,0-49.1,16.1-57.6,40L128.6,642.6z"/>
	<g pointer-events="none" transform="translate(241.0432971043259,195.9201653548258)">
		<text transform="matrix(1.0252 0 0 1 89.0159 595.5529)" class="st17 st18">80,3%</text>
		<text transform="matrix(1.0252 0 0 1 89.0159 595.5529)" class="st12 st17 st18">80,3%</text>
	</g>
	<g pointer-events="none" transform="translate(142.03639039567415,56.912428395174146)">
		<text transform="matrix(1.0252 0 0 1 51.6507 547.7931)" class="st17 st18">19,7%</text>
		<text transform="matrix(1.0252 0 0 1 51.6507 547.7931)" class="st12 st17 st18">19,7%</text>
	</g>
</g>
</svg>
