<?xml version="1.0" encoding="utf-8"?>
<!-- Generator: Adobe Illustrator 24.0.1, SVG Export Plug-In . SVG Version: 6.00 Build 0)  -->
<svg version="1.1" id="Capa_1" xmlns="http://www.w3.org/2000/svg" xmlns:xlink="http://www.w3.org/1999/xlink" x="0px" y="0px"
	 viewBox="0 0 707 738" style="enable-background:new 0 0 707 738;" xml:space="preserve">
<style type="text/css">
	.st0{fill:none;stroke:#EFEFEF;stroke-dasharray:0;}
	.st1{fill:#1C3761;}
	.st2{font-family:'SourceSansPro-Regular';}
	.st3{font-size:9.62px;}
	.st4{fill:none;stroke:#1C3761;stroke-dasharray:0;}
	.st5{fill:#79C8D1;}
	.st6{fill:#79C9D1;}
	.st7{fill:none;stroke:#1C3761;stroke-dasharray:1,1;}
	.st8{fill:none;stroke:#79C8D1;stroke-width:4;}
	.st9{font-size:11.68px;}
	.st10{fill:none;stroke:#79C8D1;stroke-width:4;stroke-linejoin:round;}
	.st11{fill:#878787;}
	.st12{font-family:'OpenSans-SemiBold';}
	.st13{font-size:10.3px;}
	.st14{font-family:'OpenSans-Bold';}
	.st15{font-size:19.23px;}
	.st16{font-size:13.74px;}
	.st17{fill:#1D1D1B;}
	.st18{font-family:'ArialMT';}
	.st19{font-size:8.24px;}
	.st20{fill:none;stroke:#1C3761;stroke-width:4;}
</style>
<g id="facets">
	<line class="st0" x1="85.5" y1="520.3" x2="649.5" y2="520.3"/>
	<text transform="matrix(1 0 0 1 58.8607 523.4053)" class="st1 st2 st3">0%</text>
	<line class="st0" x1="85.5" y1="445.9" x2="649.5" y2="445.9"/>
	<text transform="matrix(1 0 0 1 54.0807 448.9654)" class="st1 st2 st3">20%</text>
	<line class="st0" x1="85.5" y1="371.4" x2="649.5" y2="371.4"/>
	<text transform="matrix(1 0 0 1 54.0807 374.5255)" class="st1 st2 st3">40%</text>
	<line class="st0" x1="85.5" y1="297" x2="649.5" y2="297"/>
	<text transform="matrix(1 0 0 1 54.0807 300.0855)" class="st1 st2 st3">60%</text>
	<line class="st0" x1="85.5" y1="222.5" x2="649.5" y2="222.5"/>
	<text transform="matrix(1 0 0 1 54.0807 225.6355)" class="st1 st2 st3">80%</text>
	<path class="st4" d="M85.9,520.3h564"/>
	<line class="st4" x1="85.9" y1="520" x2="85.9" y2="524.1"/>
	<line class="st4" x1="137.1" y1="520" x2="137.1" y2="524.1"/>
	<line class="st4" x1="188.4" y1="520" x2="188.4" y2="524.1"/>
	<line class="st4" x1="239.7" y1="520" x2="239.7" y2="524.1"/>
	<line class="st4" x1="291" y1="520" x2="291" y2="524.1"/>
	<line class="st4" x1="342.2" y1="520" x2="342.2" y2="524.1"/>
	<line class="st4" x1="393.5" y1="520" x2="393.5" y2="524.1"/>
	<line class="st4" x1="444.8" y1="520" x2="444.8" y2="524.1"/>
	<line class="st4" x1="496" y1="520" x2="496" y2="524.1"/>
	<line class="st4" x1="547.3" y1="520" x2="547.3" y2="524.1"/>
	<line class="st4" x1="598.6" y1="520" x2="598.6" y2="524.1"/>
	<line class="st4" x1="649.8" y1="520" x2="649.8" y2="524.1"/>
</g>
<path id="point-0-0" class="st1" d="M84.9,339.4c0-0.4,0.3-0.7,0.7-0.7l0,0l0,0c0.4,0,0.7,0.3,0.7,0.6l0,0l0,0
	c0,0.4-0.3,0.7-0.7,0.7l0,0l0,0C85.1,340.1,84.8,339.8,84.9,339.4C84.8,339.4,84.8,339.4,84.9,339.4L84.9,339.4L84.9,339.4z"/>
<path id="point-0-1" class="st5" d="M134.1,333.5c0-1.5,1.2-2.8,2.8-2.8s2.8,1.2,2.8,2.8s-1.2,2.8-2.8,2.8l0,0l0,0
	C135.3,336.2,134.1,335,134.1,333.5z"/>
<path id="point-0-3" class="st1" d="M238.7,520c0-0.4,0.3-0.7,0.7-0.7s0.7,0.3,0.7,0.7s-0.3,0.7-0.7,0.7S238.7,520.3,238.7,520
	L238.7,520z"/>
<path id="point-0-5" class="st5" d="M339.1,461.5c0-1.5,1.2-2.8,2.8-2.8s2.8,1.2,2.8,2.8s-1.2,2.8-2.8,2.8l0,0l0,0
	C340.3,464.3,339.1,463,339.1,461.5z"/>
<path id="point-0-5-2" class="st5" d="M390.5,420.9c0-1.5,1.2-2.8,2.8-2.8s2.8,1.2,2.8,2.8s-1.2,2.8-2.8,2.8l0,0l0,0
	C391.7,423.7,390.5,422.4,390.5,420.9z"/>
<path id="point-0-5-2-2" class="st5" d="M443.1,415.5c0-1.5,1.2-2.8,2.8-2.8s2.8,1.2,2.8,2.8s-1.2,2.8-2.8,2.8l0,0l0,0
	C444.3,418.2,443.1,417,443.1,415.5z"/>
<path id="point-0-5-2-2-2" class="st5" d="M494,451.5c0-1.5,1.2-2.8,2.8-2.8s2.8,1.2,2.8,2.8s-1.2,2.8-2.8,2.8l0,0
	C495.3,454.2,494,453,494,451.5L494,451.5z"/>
<path id="point-1-0" class="st6" d="M84.9,340.2c0-0.4,0.3-0.7,0.6-0.7l0,0l0,0c0.4,0,0.7,0.3,0.7,0.7l0,0l0,0
	c0,0.4-0.3,0.7-0.7,0.7l0,0l0,0C85.2,340.9,84.9,340.6,84.9,340.2L84.9,340.2L84.9,340.2L84.9,340.2z"/>
<line class="st7" x1="85.5" y1="402.9" x2="649.5" y2="402.9"/>
<text transform="matrix(1 0 0 1 77.6907 537.6854)" class="st1 st2 st3">Gen.</text>
<text transform="matrix(1 0 0 1 129.6407 537.6854)" class="st1 st2 st3">F</text>
<text transform="matrix(1 0 0 1 134.2607 537.6854)" class="st1 st2 st3">e</text>
<text transform="matrix(1 0 0 1 139.0307 537.6854)" class="st1 st2 st3">b</text>
<text transform="matrix(1 0 0 1 144.2507 537.6854)" class="st1 st2 st3">.</text>
<text transform="matrix(1 0 0 1 179.5507 537.6854)" class="st1 st2 st3">Ma</text>
<text transform="matrix(1 0 0 1 191.3907 537.6854)" class="st1 st2 st3">r</text>
<text transform="matrix(1 0 0 1 194.1807 537.6854)" class="st1 st2 st3">.</text>
<text transform="matrix(1 0 0 1 195.2407 537.6854)" class="st1 st2 st3">*</text>
<text transform="matrix(1 0 0 1 232.8107 537.6854)" class="st1 st2 st3">Ab</text>
<text transform="matrix(1 0 0 1 243.3607 537.6854)" class="st1 st2 st3">r</text>
<text transform="matrix(1 0 0 1 246.1507 537.6854)" class="st1 st2 st3">.</text>
<text transform="matrix(1 0 0 1 282.3007 537.6854)" class="st1 st2 st3">Mai</text>
<text transform="matrix(1 0 0 1 296.5007 537.6854)" class="st1 st2 st3">.</text>
<text transform="matrix(1 0 0 1 297.5707 537.6854)" class="st1 st2 st3">*</text>
<text transform="matrix(1 0 0 1 334.4607 537.6854)" class="st1 st2 st3">Jun.</text>
<text transform="matrix(1 0 0 1 387.1407 537.6854)" class="st1 st2 st3">Jul.</text>
<text transform="matrix(1 0 0 1 437.0307 537.6854)" class="st1 st2 st3">A</text>
<text transform="matrix(1 0 0 1 442.2607 537.6854)" class="st1 st2 st3">g</text>
<text transform="matrix(1 0 0 1 446.9707 537.6854)" class="st1 st2 st3">o</text>
<text transform="matrix(1 0 0 1 452.0907 537.6854)" class="st1 st2 st3">.</text>
<text transform="matrix(1 0 0 1 489.2607 537.6854)" class="st1 st2 st3">S</text>
<text transform="matrix(1 0 0 1 494.4007 537.6854)" class="st1 st2 st3">e</text>
<text transform="matrix(1 0 0 1 499.0707 537.6854)" class="st1 st2 st3">t</text>
<text transform="matrix(1 0 0 1 502.3907 537.6854)" class="st1 st2 st3">.</text>
<text transform="matrix(1 0 0 1 540.1007 537.6854)" class="st1 st2 st3">O</text>
<text transform="matrix(1 0 0 1 546.4908 537.6854)" class="st1 st2 st3">c</text>
<text transform="matrix(1 0 0 1 550.7708 537.6854)" class="st1 st2 st3">t</text>
<text transform="matrix(1 0 0 1 554.0908 537.6854)" class="st1 st2 st3">.</text>
<text transform="matrix(1 0 0 1 590.5807 537.6854)" class="st1 st2 st3">N</text>
<text transform="matrix(1 0 0 1 596.8007 537.6854)" class="st1 st2 st3">o</text>
<text transform="matrix(1 0 0 1 601.9807 537.6854)" class="st1 st2 st3">v</text>
<text transform="matrix(1 0 0 1 606.1307 537.6854)" class="st1 st2 st3">.</text>
<text transform="matrix(1 0 0 1 642.2708 537.6854)" class="st1 st2 st3">Des.</text>
<path class="st8" d="M85.5,339.4c17.1-3,34.2-6,51.3-6h0.7"/>
<path id="point-0-6-2" class="st5" d="M81.4,340c0-2.3,1.8-4.1,4.1-4.1s4.1,1.8,4.1,4.1c0,2.3-1.8,4.1-4.1,4.1l0,0l0,0
	C83.2,344.1,81.4,342.3,81.4,340L81.4,340L81.4,340L81.4,340z"/>
<text transform="matrix(1 0 0 1 60.3107 331.5255)" class="st1 st2 st9">48,6</text>
<text transform="matrix(1 0 0 1 139.6007 343.5454)" class="st1 st2 st9">50,1</text>
<text transform="matrix(1 0 0 1 344.1207 472.3254)" class="st1 st2 st9">15,7</text>
<text transform="matrix(1 0 0 1 385.0007 412.5455)" class="st1 st2 st9">26,8</text>
<path id="point-0-6-3" class="st5" d="M236.2,520.1c0-2.3,1.8-4.1,4.1-4.1s4.1,1.8,4.1,4.1s-1.8,4.1-4.1,4.1l0,0l0,0
	C238.1,524.3,236.2,522.4,236.2,520.1L236.2,520.1z"/>
<text transform="matrix(1 0 0 1 232.8907 509.2454)" class="st1 st2 st9">0,0</text>
<path class="st8" d="M340.7,462.2c17.6-12.5,35.1-38,52.7-41.5"/>
<path id="point-0-7" class="st5" d="M645.6,458.7c0-2.4,1.8-4.3,4.2-4.3s4.3,1.8,4.3,4.2c0,2.4-1.8,4.3-4.2,4.3h-0.1
	C647.6,463,645.6,461.1,645.6,458.7z"/>
<text transform="matrix(1 0 0 1 437.2487 431.8088)" class="st1 st2 st9">28,2</text>
<text transform="matrix(1 0 0 1 498.5604 444.2598)" class="st1 st2 st9">18,5</text>
<text transform="matrix(1 0 0 1 550.7706 462.125)" class="st1 st2 st9">15,1</text>
<path class="st10" d="M599.4,477.7c-9.3-1-22.7-2.6-39-5.5c-5.5-1-9.3-1.8-13.2-2.6c-31.5-6.3-41.5-10.1-50.5-18.1
	c-6.9-6.2-6.7-8.7-14.5-16.2c-12.3-11.8-26.4-17.1-36.7-19.8c0.3,0,0.4,0,0.4,0c-17.6,1.7-35.1,3.5-52.7,5.2"/>
<path id="point-0-5-2-2-2_1_" class="st5" d="M543.7,469.6c0-1.5,1.2-2.8,2.8-2.8s2.8,1.2,2.8,2.8s-1.2,2.8-2.8,2.8
	S543.7,471.1,543.7,469.6z"/>
<text transform="matrix(1 0 0 1 596.8011 468.219)" class="st1 st2 st9">12,8</text>
<g>
	<text transform="matrix(1 0 0 1 60.4494 627.4197)" class="st11 st12 st13">Font: Elaboració pròpia del LABturisme en base a dades de l&apos;Enquesta d&apos;ocupació en allotjaments de l&apos;INE.        </text>
</g>
<text transform="matrix(1 0 0 1 60.6894 593.2698)" class="st11 st12 st13">* Les dades dels mesos de març i maig de 2020 no estan disponibles, degut al tancament d’establiments per la gestió de la</text>
<text transform="matrix(1 0 0 1 60.6894 605.6296)" class="st11 st12 st13">crisi sanitària ocasionada per la Covid-19.</text>
<g>
	<text transform="matrix(1 0 0 1 247.0913 52.4509)" class="st1 st14 st15">Establiments hotelers</text>
	<text transform="matrix(1 0 0 1 231.5313 77.6808)" class="st1 st12 st16">Ocupació en percentatge per places.</text>
	<path class="st1" d="M305.4,94.7h11.2c1.1,0,2,0.9,2,2v4c0,1.1-0.9,2-2,2h-11.2c-1.1,0-2-0.9-2-2v-4
		C303.4,95.6,304.3,94.7,305.4,94.7z"/>
	<path class="st5" d="M361.1,94.7h11.2c1.1,0,2,0.9,2,2v4c0,1.1-0.9,2-2,2h-11.2c-1.1,0-2-0.9-2-2v-4
		C359.1,95.6,360,94.7,361.1,94.7z"/>
	<text transform="matrix(1 0 0 1 377.0314 101.5909)" class="st17 st12 st13">2020</text>
	<text transform="matrix(1 0 0 1 323.5313 101.5909)" class="st17 st12 st13">2021</text>
</g>
<path class="st10" d="M599.4,477.7c6.2-0.5,11.3-1.2,15-1.9c9.6-1.8,15.4-2.7,21.9-6.1c3.2-1.6,7.8-4.5,12.7-9.6"/>
<path id="point-0-5-2-2-2_2_" class="st5" d="M595.8,477.7c0-1.5,1.2-2.8,2.8-2.8s2.8,1.2,2.8,2.8s-1.2,2.8-2.8,2.8
	S595.8,479.2,595.8,477.7z"/>
<text transform="matrix(1 0 0 1 634.2073 448.6357)" class="st1 st2 st9">16,6</text>
<g>
	<text transform="matrix(1 0 0 1 90.8037 398.8907)" class="st1 st18 st19">Mitjana 2020: 31,0%</text>
</g>
<path id="point-0-6-2_1_" class="st1" d="M82.2,465.8c0-2.3,1.8-4.1,4.1-4.1s4.1,1.8,4.1,4.1c0,2.3-1.8,4.1-4.1,4.1l0,0l0,0
	C84,469.9,82.2,468.1,82.2,465.8L82.2,465.8L82.2,465.8L82.2,465.8z"/>
<text transform="matrix(1 0 0 1 77.6905 482.9403)" class="st1 st2 st9">15,5</text>
<line class="st0" x1="85.5" y1="146.8" x2="649.5" y2="146.8"/>
<text transform="matrix(1 0 0 1 50.6245 149.8732)" class="st1 st2 st3">100%</text>
<path id="point-0-1_1_" class="st1" d="M134.1,451.8c0-1.5,1.2-2.8,2.8-2.8s2.8,1.2,2.8,2.8s-1.2,2.8-2.8,2.8l0,0l0,0
	C135.3,454.5,134.1,453.3,134.1,451.8z"/>
<path class="st20" d="M86.3,465.8c19.3-6.4,32.8-11.2,50.5-14.2h0.7"/>
<text transform="matrix(1 0 0 1 127.1646 468.2186)" class="st1 st2 st9">18,7</text>
</svg>
