<?xml version="1.0" encoding="UTF-8"?>
<svg id="Capa_1" data-name="Capa 1" xmlns="http://www.w3.org/2000/svg" viewBox="0 0 55.87 150.32">
  <defs>
    <style>
      .cls-1 {
        fill: #6b6664;
      }

      .cls-2 {
        fill: #e84e24;
      }

      .cls-3 {
        fill: #b7ac8e;
      }
    </style>
  </defs>
  <path class="cls-1" d="M36.14,28.19h-17.01c-3.63,0-6.61-2.97-6.61-6.61l3.64-14.97C17.35,1.5,19.14,0,22.77,0h10.62c3.63,0,5.62,1.68,6.61,6.61l2.75,14.97c0,3.63-2.97,6.61-6.61,6.61Z"/>
  <rect class="cls-3" x="19.51" y="9.61" width="16.25" height="16.24" rx="1.3" ry="1.3"/>
  <rect class="cls-3" x="12.71" y="95.69" width="11.9" height="54.63" rx="1.3" ry="1.3"/>
  <rect class="cls-3" x="30.54" y="95.69" width="11.9" height="54.63" rx="1.3" ry="1.3"/>
  <rect class="cls-3" x="39.43" y="32.74" width="11.9" height="49.05" rx="2.97" ry="2.97" transform="translate(-11.19 11.02) rotate(-12.34)"/>
  <rect class="cls-3" x="4.54" y="32.74" width="11.9" height="49.05" rx="2.97" ry="2.97" transform="translate(8.49 115.44) rotate(-167.66)"/>
  <rect class="cls-3" x="21.91" y="22.64" width="11.47" height="11.3"/>
  <path class="cls-2" d="M39.54,71.7h-23.22c-3.63,0-6.61-2.97-6.61-6.61l2-26.51c0-3.63,2.97-6.61,6.61-6.61h19.22c3.63,0,6.61,2.97,6.61,6.61l2,26.51c0,3.63-2.97,6.61-6.61,6.61Z"/>
  <path class="cls-2" d="M47.46,102.76H7.04c-4.01,0-6.31-3.07-5.19-6.56l7.74-24.23c.53-1.66,3.01-2.95,5.54-2.95l25.53.06c2.52,0,4.94,1.3,5.41,2.97l6.79,24.17c.98,3.47-1.42,6.53-5.4,6.53Z"/>
  <ellipse class="cls-1" cx="27.87" cy="12.67" rx="9.98" ry="5.12"/>
</svg>