<?xml version="1.0" encoding="UTF-8"?>
<svg id="Capa_1" data-name="Capa 1" xmlns="http://www.w3.org/2000/svg" viewBox="0 0 118.15 274.72">
  <defs>
    <style>
      .cls-1 {
        fill: #f3a19d;
      }

      .cls-2 {
        fill: #de8080;
      }

      .cls-3 {
        fill: #99896e;
      }

      .cls-4 {
        fill: #e6eff1;
      }

      .cls-5 {
        fill: #c4bba2;
      }

      .cls-6 {
        fill: #6b6765;
      }

      .cls-7 {
        fill: #fff;
      }

      .cls-8 {
        fill: #e84e24;
      }

      .cls-9 {
        fill: #eb6739;
      }
    </style>
  </defs>
  <path class="cls-5" d="M73.85,90.72c15.08-4.37,33.57-33.1,33.57-33.1l-2.12-4.91s-21.62,19.44-40.07,24c-9.14,2.26-2.8,17.32,8.62,14.01Z"/>
  <path class="cls-5" d="M103.77,54.25s3.71-7.35,3.9-9.18c.09-.86,1.34.24,1.28,1.49-.06,1.24-.33,2.47-.33,2.47l3.28-2.83s1.31-2.85,1.61-3.58c.3-.73,1.17-.29.92,1.01-.16.83-.54,2.51-.83,3.12-.39.81-2.06,2.75-2.06,2.75,0,0,1.73-1.55,2.22-2.6.32-.68,1.05-2.49,1.21-2.95.27-.76,1.43-.57,1.25.46-.18,1.03-.39,2.71-.75,3.55-.36.83-2.53,3.13-2.53,3.13,0,0,2.21-1.84,2.65-2.56.45-.72,1.01-2.65,1.18-3.45.18-.81,1.07.37,1.07,1.55s-.23,1.88-.9,3.02c-.67,1.14-2.53,2.59-2.53,2.59,0,0,2.06-1.21,2.55-1.99.49-.78.89-1.88.89-1.88,0,0,.72,1.3-.09,2.91-.65,1.31-3.54,3.91-5.19,4.9-.62.37-5.75,2.28-5.75,2.28l-3.05-4.21Z"/>
  <path class="cls-5" d="M45.11,264.42c.72,1.41,4.87.41,7.89,3.03,3.6,3.12,6.57,3.44,8.41,3.46,1.84.02,6.43-4.13,5.27-5.92-1.16-1.79-5.85-3.9-7.53-5.2-1.67-1.3-4.89-5.45-4.89-5.45l-4.64-1.28-4.39,2.7s-2.13,4.71-.12,8.67Z"/>
  <path class="cls-5" d="M73.41,112.71c-2.81-18.49-40.55-21.95-42.69,5.68-2.13,27.62,21.23,69.98,21.23,69.98,0,0-5.11,3.76-6.63,18.32-1.02,9.8-.1,49.07-.1,49.07l9.03-1.41s15.49-52.9,18.38-74.33c2.89-21.44,3.94-46.39.76-67.3Z"/>
  <path class="cls-2" d="M65.11,188.12c.17-.05.34-.11.5-.19.17-.08.32-.19.46-.31.28-.23.52-.52.68-.84.1-.19.18-.44.12-.65-.03-.1-.12-.18-.24-.18-.1,0-.18.06-.24.14h0s-.05.07-.05.07c-.12.15-.19.33-.29.5l-.13.21-.08.11-.03.04-.02.02c-.23.29-.51.56-.82.76-.16.1-.06.37.13.32Z"/>
  <path class="cls-2" d="M67.91,187.82l.25-.04h.02s-.02,0-.02,0h.04s.16-.03.16-.03l.28-.13.25-.2c.12-.15.24-.31.33-.48.05-.1.08-.19.09-.3v-.12c0-.14-.06-.35-.21-.42l.08.08h0c-.05-.11-.2-.15-.29-.09l.03-.02-.12.04.03-.02-.22.14-.18.24c-.06.14-.14.27-.23.4l-.12.18-.11.17-.04.09-.02.03v.02s0-.02,0-.02l-.07.06h-.01s-.04.04-.04.04l-.09.23.2.15Z"/>
  <path class="cls-9" d="M59.49,259.57c-1.43.55-3.99,3.71-4.6,5.09-3.76-1.67-10.06-8.54-10.06-8.54,0,0-2.06,4.5-.31,7.58,1.55,2.75,5.23,3.1,7.99,4.54,2.15,1.13,4.33,2.87,6.85,3.05,3.39.24,7.92-2.02,7.92-5.75,0-1.83-6.83-6.34-7.79-5.97Z"/>
  <path class="cls-5" d="M28.42,266.74c.72,1.41,4.87.41,7.89,3.03,3.6,3.12,6.57,3.44,8.41,3.46,1.84.02,6.43-4.13,5.27-5.92-1.16-1.79-5.85-3.89-7.53-5.2-1.67-1.3-4.89-5.45-4.89-5.45l-4.64-1.28-4.39,2.7s-2.13,4.71-.12,8.67Z"/>
  <path class="cls-5" d="M56.72,115.02c-2.81-18.49-40.55-21.95-42.69,5.68-2.13,27.62,21.23,69.98,21.23,69.98,0,0-5.11,3.77-6.63,18.32-1.02,9.8-.1,49.07-.1,49.07l9.03-1.41s15.49-52.9,18.38-74.33c2.89-21.44,3.94-46.39.76-67.3Z"/>
  <path class="cls-2" d="M48.42,190.43c.17-.05.34-.11.5-.19.17-.08.32-.18.46-.3.28-.23.52-.52.68-.85.1-.19.18-.43.12-.65-.03-.1-.12-.18-.24-.18-.1,0-.17.06-.24.14h0s-.05.07-.05.07c-.13.15-.19.33-.29.5l-.13.21-.07.11-.03.04-.02.02c-.23.29-.51.56-.82.76-.16.1-.06.37.13.32Z"/>
  <path class="cls-2" d="M51.21,190.13l.25-.04h.02s-.02,0-.02,0h.04s.16-.03.16-.03l.27-.13.25-.21c.13-.15.24-.31.33-.48.05-.1.08-.19.09-.3v-.12c0-.14-.06-.35-.21-.42l.08.08h0c-.05-.11-.2-.15-.29-.09l.03-.02-.12.04.03-.02-.22.14-.18.24c-.06.14-.14.27-.23.4l-.12.18-.11.17-.04.09-.02.03v.02s0-.02,0-.02l-.07.06h-.01s-.04.04-.04.04l-.09.23.2.15Z"/>
  <path class="cls-9" d="M42.8,261.88c-1.43.55-3.99,3.71-4.6,5.09-3.76-1.67-10.06-8.54-10.06-8.54,0,0-2.06,4.49-.31,7.58,1.55,2.75,5.23,3.1,7.99,4.54,2.15,1.12,4.33,2.87,6.85,3.05,3.39.24,7.92-2.02,7.92-5.75,0-1.83-6.83-6.34-7.8-5.97Z"/>
  <path class="cls-4" d="M44.31,9.59c0-2.1-1.7-3.81-3.81-3.81s-3.81,1.7-3.81,3.81c0,.29.04.57.1.84-.11-.02-.22-.03-.33-.03-1.15,0-2.08.93-2.08,2.08,0,.34.09.66.24.95-1.5.51-2.59,1.92-2.59,3.59,0,.68.19,1.31.5,1.86-.8.29-1.37,1.05-1.37,1.95,0,.53.21,1.01.54,1.38-.69.69-1.13,1.64-1.13,2.7,0,1.9,1.4,3.47,3.23,3.75-.16.62-.25,1.27-.25,1.94,0,4.37,3.55,7.92,7.92,7.92s7.92-3.55,7.92-7.92-5.09-18.9-5.09-21Z"/>
  <path class="cls-4" d="M54.41,9.99c0-2.1,1.7-3.81,3.81-3.81s3.81,1.7,3.81,3.81c0,.29-.04.57-.1.84.11-.02.22-.03.33-.03,1.15,0,2.08.93,2.08,2.08,0,.34-.09.66-.24.95,1.5.51,2.59,1.92,2.59,3.59,0,.68-.19,1.31-.5,1.86.8.29,1.36,1.05,1.36,1.95,0,.53-.21,1.01-.53,1.38.69.69,1.13,1.64,1.13,2.7,0,1.9-1.4,3.47-3.23,3.75.16.62.25,1.27.25,1.94,0,4.38-3.55,7.92-7.92,7.92s-7.92-3.55-7.92-7.92,5.09-18.9,5.09-21Z"/>
  <path class="cls-3" d="M75.9,117.47c2.51,10.37,1.3,42.09-1.88,61.86-3.18,19.77-15.91,64.54-15.91,64.54h-13.86s-5.35-35.95-3.85-43.87c1.51-7.92,2.57-20.43,2.57-20.43,0,0-13.09-56.5-11.87-59.05,1.22-2.55,42.34-13.18,44.8-3.05Z"/>
  <path class="cls-3" d="M13.76,112.55s-8.18,14.69-4.75,34.5c2.85,16.44,18.23,44.75,18.23,44.75,0,0-3.78,11.92-2.99,20.03.71,7.29,2.88,32.03,2.88,32.03h14.89s9.6-42.69,10.9-51.4c2.74-18.39,3.87-26.42,5.98-40.51,0,0,13.39-12.15,14.46-28.78,1.08-16.64-59.6-10.62-59.6-10.62Z"/>
  <path class="cls-8" d="M8.81,123.51c12.96,11.5,55.59,9.45,68.21,0-1.34-18.46-7.06-30.36-7.06-30.36,0,0,1.52-12.44.53-25.83-.7-9.45-6.34-26.25-7.23-26.64-3.1-1.36-5.42-1.76-5.42-1.76l-21.64.54s-8.38.19-11.73,8.04c-3.19,7.47-4.76,46.15-4.76,46.15,0,0-10.07,13.26-10.9,29.86Z"/>
  <path class="cls-7" d="M49.71,57.05c2.45,0,5.12-4.85,7.02-9,2-4.35,1.65-9,1.65-9l-22.18.42s.99,4.95,3.14,8.58c2.66,4.51,7.91,9,10.36,9Z"/>
  <path class="cls-1" d="M28.79,42.09C18.23,48.04,1.05,72.19.67,79.79c-.41,8.37,16.26-.32,16.26-.32l14.09-13.57-2.23-23.81Z"/>
  <path class="cls-5" d="M1.67,85.15c7.87,15.9,16.97,24.83,16.97,24.83l4.44-3.81s.55-9.11-6.15-26.7c-3.35-8.8-20.54-4.97-15.26,5.69Z"/>
  <path class="cls-5" d="M58.88,32.82c-2.32,1.83-4.94,1.56-4.94,1.56l.43,4.13s.97,3.17-4.26,3.17c-6.35,0-10.12-3.18-10.12-3.18,1.7-10.22,2-18.16,2-18.16,0,0-.66-1-.31-5.83.44-6.08,11.53-8.67,11.53-8.67l7.45,2.79s1.51,2.48,1.42,5.61c-.15,4.8.87,15.37-3.18,18.57Z"/>
  <path class="cls-4" d="M51.38,1.91c8.37.19,11.42,5.25,11.52,8.19.11,3.14-.86,4.15-.86,4.15,0,0-.13-1.97-.95-2.97-2.35-1.63-11.38-3.58-15.11,1.88-1.58,2.31-1.22,7.84-1.83,8.83-.91,1.49-2.19,2.32-2.71.81-.38-1.11-3.54-4.89-3.16-11.85.38-6.98,7.9-9.15,13.09-9.03Z"/>
  <path class="cls-4" d="M44.16,21.99c1.64-.28-.45,2.07-1.68,2.26-.89.14-1.7-.42-2.04-1.69-.37-1.4.24-2.39,1.13-2.53,1.54-.24,1.47,2.14,2.59,1.95Z"/>
  <path class="cls-5" d="M55.25,44.15c-1.83,1.34-7.11,2.48-10.5,1.63-4.44-1.11-8.55-6.32-8.55-6.32l3.78-.96,14.34-.4,4.06.95s-1.01,3.56-3.13,5.11Z"/>
  <path class="cls-6" d="M31.63,273.25s.87-34.11,1.62-73.37c.38-19.63,1.54-33.31,1.82-48.73.28-15.43.47-26.38.47-28.28,0-3.77-.19-7.07-.93-9.65-.38-1.28-.89-2.41-1.73-3.31-.42-.44-.92-.81-1.5-1.06-.57-.25-1.21-.38-1.86-.37-.91,0-1.72.42-2.28.94-.5.46-.88,1.01-1.2,1.61-.56,1.04-.97,2.25-1.3,3.51-.98,3.76-1.24,7.98-1.25,8.02-.05.83.57,1.55,1.4,1.6.83.05,1.55-.57,1.6-1.4v-.13c.06-.65.32-3.74.97-6.57.32-1.41.75-2.75,1.22-3.6.23-.43.47-.72.62-.86.17-.14.19-.11.2-.12.28,0,.48.05.65.12.3.13.6.39.92.93.48.8.88,2.19,1.11,3.97.24,1.78.32,3.95.32,6.35,0,1.81-.19,12.81-.47,28.22-.43,23.13-1.96,45.85-2.49,73.2-.27,13.67-.51,25.9-.68,34.71-.17,8.81-.28,14.2-.28,14.2-.02.83.64,1.52,1.48,1.53.83.02,1.52-.64,1.53-1.48h0Z"/>
  <path class="cls-5" d="M23.08,106.17l6.22,2.39s-1.89,1.72-.83,3.22c1.06,1.49,2.18,2.06,2.11,3.79-.04.93-1.61,4.1-2.96,3.95-4.16-.46-5.59-2.01-6.71-3.58-.42-.59-2.27-5.96-2.27-5.96l4.44-3.81Z"/>
  <path class="cls-4" d="M62.72,11.32c.96-.6,1.63-2.37,1.24-3.42-.32-.84-1.16-1.43-2-1.6-.05-.79.08-1.45-.51-2.11-.36-.4-1-.67-1.52-.39-.01-1.35-1.08-2.8-2.44-3.09-1.45-.32-2.54.1-3.7.89-.36-.88-1.4-1.53-2.38-1.25-.38.11-.56.38-.87.57-.17.1-.08.27-.32.26-.08,0-.55-.54-.68-.61-1.15-.68-2.88-.81-3.99-.03-.34.23-.61.55-.82.89-.11.18-.26.82-.43.89-.18.07-.99-.36-1.33-.35-.59.03-.96.31-1.37.71-.74.73-1.63,2.08-1.43,3.16.21,1.11,1.52,1.85,2.59,1.85.95,0,1.99-.54,2.85-.91,1.13-.49,2.39-.78,3.57-1.16,1.6-.52,3.2-.7,4.88-.49,1.51.18,2.57.77,3.83,1.55,1.55.97,2.88,2.29,3.99,3.74.23.3.47.61.7.91.14.18.27.29.12,0Z"/>
  <path class="cls-4" d="M43.16,21.22c.25.94,1.54,1.17,2.06.31.53-.87.16-2.35-.15-3.22,1.01.1.93-1.53.48-2.03.88.03,1.73-1.08,1.84-1.89.11-.79-.13-1.34-.47-1.98,1.27.21,2.02-.05,2.44-1.43.96,2.24,3.35,1.34,4.17-.5.49,1.05,1.56,1.03,2.09.08.36,2.18,2.43,2,3.68.81-.03,1.12.69,1.5,1.61,1.03-.18.53-.12,1.73.71,1.42.06.52-.15.98.07,1.49.21.49.62.98,1.01.37.44-.68-.05-2.63-.27-3.34-.53-1.66-1.65-2.87-3.24-3.58-2.66-1.18-5.88-1.61-8.75-1.17-3.4.52-5.88,2.92-6.8,6.22-.55,1.98-.2,3.94-.19,5.94,0,.58.04,1.12-.3,1.46Z"/>
  <path class="cls-8" d="M17.46,108.74c-2.1,0-17.46-17.83-17.46-27.37,0-4.97,6.23-17.76,13.9-26.5,9.19-10.47,16.36-13.7,16.36-13.7l1.34,24.72-14.67,13.57s6.16,15.98,6.8,23.37c.17,2.02-4.17,5.91-6.27,5.91Z"/>
</svg>