<?xml version="1.0" encoding="UTF-8"?>
<svg id="Capa_1" data-name="Capa 1" xmlns="http://www.w3.org/2000/svg" viewBox="0 0 87.06 271.44">
  <defs>
    <style>
      .cls-1 {
        fill: #c4bba2;
      }

      .cls-2 {
        fill: #6b6664;
      }

      .cls-3 {
        fill: #e84e24;
      }

      .cls-4 {
        fill: #9a8a6f;
      }
    </style>
  </defs>
  <path class="cls-1" d="M84.09,245.97c-7.56-1.89-14.16-2.83-19.04-3.78-17.98-3.53-41.3,2.67-58.64,8.61,1.85-10.17,8.02-25.3,8.49-35.62.3-6.55.12-13.29,2.47-19.41.34-.89.76-1.8,1.49-2.42,1.03-.87,2.48-1.02,3.83-1.12,12.59-.94,25.21-1.49,37.83-1.63,3.75-.04,7.53-.05,11.23.56,1.57.26,3.27.73,4.15,2.06.65.98.71,2.23.75,3.41.5,15.57,4.83,24.96,5.33,40.53l2.1,8.82Z"/>
  <g>
    <path class="cls-1" d="M24.84,264.39c.6.72,1.09,1.58,1.9,2.06.93.56,2.09.52,3.17.44,1.71-.13,3.41-.33,5.1-.59.88-.14,1.81-.32,2.46-.93.54-.52.72-1.31.59-2.04,2.98,2.47,6.84,4.59,5.86,6.94-8.79-.09-21.34,2.08-21.78-1.38-.15-1.18.58-3.46.88-6.06.68.43,1.3.95,1.82,1.57Z"/>
    <path class="cls-4" d="M18.98,133.72c8-16.65,6.49-26.64,6.49-26.64,0,0,5.85,9.15,22.05,9.42-.86,3.72-2.72,10.23-6.66,20.18-1.75,4.43-.46,9.95,2.07,19.52-.69,12.66-1.89,34.5-2.41,41.85-.74,10.59-1.55,10.06-2.85,19.89-.66,4.99-2.27,25.7-2.79,40.47-.06,1.84,1.4,3.43,3.17,4.9.13.73-.05,1.52-.59,2.04-.64.62-1.58.8-2.46.93-1.69.26-3.39.46-5.1.59-1.08.08-2.24.13-3.17-.44-.8-.49-1.3-1.34-1.9-2.06-.51-.62-1.14-1.14-1.82-1.57.16-1.39.2-2.86-.09-4.32-.98-10.12-3.88-19.9-3.37-33.65.92-24.98-3.52-14.43-3.65-25.81-.27-24.63-3.5-51.64,3.07-65.31Z"/>
    <path class="cls-4" d="M48.96,116.52c-.5,0-.95-.02-1.43-.03.29-1.24.46-2.16.57-2.81.15,1.67,2.13,4.36,14.43,2.31,0,0,12.87,31.48,11.87,81.15-.21,10.61-4.52,15.19-4.34,25.11.18,9.92-.26,39.26-.39,39.32.08,1.06,4.44,2.32,7.91,3.55-2.61.82-5.25,1.51-7.97,1.74-1.87.16-3.95.02-5.31-1.27-.57-.54-.97-1.26-1.54-1.8-.71-.68-1.6-1.04-2.57-1.23-.93-5.17-5.02-29.01-7.5-51.01-2.8-24.84,1.49-.46-.27-11.71-3.2-20.53-6.96-34.1-9.48-43.64.3-5.57.51-9.37.51-9.37,6.39-3.07,5.51-30.31,5.51-30.31Z"/>
    <path class="cls-1" d="M64.31,265.59c1.36,1.29,3.44,1.43,5.31,1.27,2.72-.23,5.36-.92,7.97-1.74,2.02.71,3.73,1.41,4.12,2.05.03.06,4.86,1.22,5.17,1.78.47.86-.02,1.92-.97,2.13-4.34.99-23.57-.38-26.03-.84-2.11-1.7.76-5.69.51-6.65,0,0-.07-.37-.19-1.04.96.19,1.86.54,2.57,1.23.57.55.97,1.26,1.54,1.8Z"/>
    <path class="cls-4" d="M40.87,136.67c3.94-9.95,5.8-16.46,6.66-20.18.48,0,.93.04,1.43.03,0,0,.87,27.24-5.51,30.31,0,0-.2,3.8-.51,9.37-2.53-9.58-3.83-15.1-2.07-19.52Z"/>
  </g>
  <path class="cls-4" d="M58.31,62.41s6.24-.8,11.46,11c5.22,11.8,8.13,36.58,11.67,45.98,3.53,9.4,1.68,40.3,1.68,40.3l-5.41,15.64s-9.73-36.51-15.13-48.01c-5.4-11.51-12.08-57.76-4.27-64.91Z"/>
  <path class="cls-2" d="M51.66,48.81s13.85,3.21,15.02-5.88c.17-1.34.8-2.6,1.79-3.52,1.92-1.78,4.44-5.46,1.51-11.15-.61-1.18-.86-2.52-.58-3.82.55-2.53.78-6.82-3.36-8.26-2.01-.7-3.53-2.4-3.8-4.51-.4-3.11-2.18-6.87-8.5-6.8-1.53.02-2.98-.62-4.06-1.7-2.24-2.27-6.71-5.26-12.34-1-1.35,1.02-3.09,1.39-4.73.99-2.69-.66-6.77-.68-8.72,4.31-.62,1.59-2,2.78-3.63,3.28-2.39.74-5.36,2.68-5.06,7.78.08,1.39-.44,2.73-1.29,3.83-1.78,2.33-3.99,6.74-.39,11.44.89,1.16,1.35,2.62,1.17,4.07-.36,2.83-.05,7.46,5.49,8.77,1.1.26,2.12.78,2.89,1.61,2.32,2.49,8.1,7.18,15.24,2.25,9.16-6.32,13.34-1.69,13.34-1.69Z"/>
  <path class="cls-3" d="M56.13,38.15s4.86-8.7.03-18.63c-4.83-9.94-17.46-6.63-17.46-6.63,0,0-11.7,2.31-12.34,13.97-.64,11.66,8,15.36,8,15.36l21.77-4.07Z"/>
  <path class="cls-2" d="M56.16,34.84s5.22-18.02-11.39-17.97c-19.3.06-17.65,14.87-14.54,19.95,3.12,5.08,26.54,5.93,25.93-1.99Z"/>
  <path class="cls-4" d="M22.39,83.88s.02.02.03.06c6.34,9.98,4.62,22.66,3.24,28.7,12.54,3.08,22.56,3.21,29.89,2.36,3.63-1.61,5.76-3.1,5.76-3.1,0,0,2.37-20.61,4.34-26.14.47-1.32.68-3.41.71-5.81.12-7.59-1.41-18.33-1.41-18.33-1.55-.85-3.92-1.47-6.29-1.89-.39-.06-.77-.12-1.15-.19-3.6-.54-6.87-.7-6.87-.7l-.37-3.85-.25-2.6-.41-4.22c-.54-5.59-12-3.19-12-3.19,0,0,0,.56,0,1.46v12.27c0,.22-2.6.39-5.7.64-.34.02-.68.05-1.02.08-3.73.33-7.83.77-9.07,1.6-2.43,1.61-2.12,18.66.56,22.86Z"/>
  <path class="cls-4" d="M54.41,27c1.24,1.74,1.6,5,1.73,8.82.37,11.57-5.21,15.82-9,15.82-3.89,0-12.09-1.64-13.36-12.36-.64-5.36-.6-9.87.64-12.64,2.59-5.8,14.57-7.28,20,.36Z"/>
  <path class="cls-2" d="M45.35,23.25c-.19.85-.61,1.68-1.31,2.18-.72.51-1.63.59-2.48.78-.85.19-1.76.56-2.14,1.38-.26.55-.22,1.2-.34,1.81-.18.9-.75,1.72-1.53,2.17-.7.41-1.58.56-2.09,1.21-.36.46-.46,1.08-.72,1.61-.26.53-.86.99-1.37.73-1.01-1.77-1.96-3.64-2.24-5.68-.43-3.2.97-6.55,3.39-8.57,2.42-2.02,5.75-2.74,8.79-2.09,2.31.49,2.51,2.32,2.04,4.47Z"/>
  <path class="cls-4" d="M34.6,36.74s-1.81-4.79-4.66-2.25c-2.85,2.54,1.07,9.4,5.44,8.86,0,0,.62-4.97-.77-6.61Z"/>
  <path class="cls-4" d="M21.88,63.52s-5.79-.99-9.73,11.38c-3.94,12.37,1.89,39.14-.62,48.94-2.51,9.8-9.21,69.58-9.21,69.58l9.27,7.46s5.88-62.86,10.03-74.95c4.15-12.09,8.95-56.02.25-62.4Z"/>
  <path class="cls-1" d="M25.28,97.34c.82,4.31,1.03,8.52.77,13.02-.14,2.51-.84,3.74,1.1,5.13,1.16.83,3.01,1.24,4.34,1.7,10.09,3.44,21.37,3.77,31.04-1.17-.02-.03-1.92-7.76,2.1-22.73,0,0,1.88-5.35,2.17-8.49.15-1.6-.05-3.29-.43-4.85-.5-2-1.29-3.77-1.97-4.87,0,0-7.19,1.32-17.62,1.47-5.36.06-11.14-.93-16.32-1.74-2.03-.34-3.97-.62-5.75-.82l-2.32,9.9s.02.02.03.06c1.26,3.62,1.45,7.28,2.33,10.91.2.83.38,1.66.54,2.48Z"/>
  <path class="cls-1" d="M79.99,199.81s-22.25,12.37-62.24,2.34c0,0,6.28-74.57,13.84-86.7,7.55-12.13,34.16,1.49,34.16,1.49l14.24,82.88Z"/>
  <path class="cls-3" d="M0,252.69c3.36-.6,11.1-2.15,16.67-7.18,1.02-.9,1.97-1.92,2.79-3.07,1.72-2.36,2.96-5.25,3.39-8.82.06-.45.11-.95.17-1.5.05-.57.11-1.21.17-1.89.28-3.15.57-7.42.9-12.48.06-.88.11-1.78.17-2.71.22-3.35,2.03-25.81,2.35-30.37.06-.9.12-1.78.19-2.67.25-3.42.51-6.77.77-10.01.08-.81.14-1.61.2-2.4.29-3.46.6-6.76.93-9.84.08-.76.15-1.52.25-2.25.4-3.77.85-7.14,1.3-9.98.14-.88.29-1.74.43-2.51.4-2.09.81-3.78,1.24-4.97.51-1.41,1.24-3.33,2.14-5.58.17-.46.36-.95.56-1.44.99-2.51,2.12-5.32,3.29-8.17.36-.88.71-1.77,1.08-2.67,1.02-2.51,2.03-5.01,2.98-7.28.34-.81.67-1.6.96-2.34,1.97-4.73,3.36-8.09,3.36-8.09,0,0,.64,2.88,2.36,7.81.23.7.5,1.43.79,2.22.74,2.01,1.64,4.31,2.73,6.82.34.81.71,1.64,1.1,2.5,1.27,2.8,2.74,5.83,4.46,9.03.08.15.15.29.23.45.19.36.37.74.56,1.18.88,2.09,1.7,5.11,2.45,8.83.15.74.29,1.52.43,2.31.54,2.96,1.04,6.28,1.49,9.87.09.62.17,1.26.25,1.89.39,3.22.76,6.65,1.12,10.21.08.9.15,1.8.25,2.71.34,3.8.67,7.75.96,11.76.05.7.11,1.41.15,2.12.28,3.98,2.64,41.32,2.75,44.58.02.73.05,1.44.06,2.14.12,4.22.22,7.8.29,10.55.02.73.03,1.41.05,2.01.05,2.67.08,4.15.08,4.15,7.66,1.8,15.11-1.39,15.11-1.39,0,0-.09-1.32-.26-4.15-.02-.4-.05-.82-.06-1.29-.15-2.5-.34-5.92-.57-10.34-.02-.53-.05-1.05-.08-1.6-.17-3.52-.36-7.62-.57-12.35-.03-.64-.05-1.27-.08-1.94-.2-4.53-1.48-25.22-1.59-28.51-.03-.88-.06-1.75-.11-2.6-.02-.56-.05-1.13-.08-1.67-.25-4.94-.6-9.58-1.04-13.9-.06-.53-.11-1.04-.17-1.55-.45-4.08-.96-7.87-1.55-11.41-.06-.46-.14-.91-.22-1.36-.62-3.61-1.29-6.94-1.98-10.01-.12-.51-.23-1.01-.36-1.5-.85-3.55-1.74-6.73-2.63-9.55-.14-.46-.28-.91-.43-1.36-1.41-4.31-2.82-7.75-4.01-10.38-.28-.59-.54-1.13-.79-1.63-.68-1.38-1.29-2.48-1.77-3.32-.73-1.26-1.24-2.6-1.52-4.03-.09-.48-.15-.96-.19-1.46,0-.05,0-.08-.02-.12-.2-2.85-.29-6.96.5-10.18.17-.7.37-1.35.65-1.94.67-1.55,1.67-2.65,3.16-2.91,6.51-1.16,12.44-9.41,12.44-9.41,0,0-.45-1.43-1.24-3.58-.19-.51-.39-1.07-.62-1.67-.82-2.17-1.88-4.8-3.05-7.36-.2-.42-.4-.84-.59-1.26-.76-1.55-1.55-3.04-2.36-4.37-.31-.48-.6-.95-.9-1.38-.19-.28-.39-.54-.57-.79-1.08-1.44-2.49-2.56-4-3.44-.54-.31-1.08-.6-1.64-.85-4.74-2.19-9.87-2.37-9.87-2.37-.45,2.28-.95,4.62-1.47,6.97-.15.7-.31,1.41-.46,2.12-.48,2.06-.96,4.11-1.44,6.12-.17.71-.34,1.41-.51,2.11-.74,3.07-1.49,5.98-2.17,8.65-.19.73-.37,1.43-.56,2.11-.57,2.2-1.1,4.17-1.53,5.81-.19.68-.36,1.32-.53,1.88-.59,2.22-.96,3.5-.96,3.5-.42-1.08-.82-2.15-1.22-3.21-.2-.56-.4-1.1-.62-1.66-.68-1.84-1.32-3.64-1.94-5.39-.23-.64-.45-1.26-.67-1.88-.99-2.87-1.89-5.58-2.71-8.11-.19-.57-.37-1.15-.56-1.7-.81-2.6-1.53-4.97-2.17-7.08-.23-.79-.45-1.57-.65-2.28-1.5-5.22-2.26-8.32-2.26-8.32,0,0-6.8-.45-13.19,3.19-.22.12-.45.26-.67.42-.62.43-1.26.98-1.91,1.63-1.78,1.74-3.66,4.2-5.47,6.87-.26.39-.51.76-.76,1.15-1.18,1.78-2.31,3.63-3.35,5.41-.31.54-.62,1.07-.93,1.6-1.21,2.14-2.26,4.11-3.1,5.67-.26.53-.51,1.01-.73,1.43-.65,1.29-1.02,2.05-1.02,2.05,3.32,3.68,7.64,6.3,12.28,7.98,2.74.99,8.16.88,10.38,2.3,1.2.77.6,5.16.56,6.46-.06,2.09-.33,4.28-.7,6.48-.15.82-.31,1.63-.5,2.46-.45,2.14-1.02,4.31-1.66,6.46-.23.85-.5,1.69-.76,2.54-.91,2.91-1.92,5.8-2.93,8.57-.28.76-.54,1.52-.82,2.26-4.33,11.91-8.54,22.6-9.73,35.4-1.49,16.21-3.03,19.62-3.07,35.9-.04,16.62.6,32.39-5.31,48.13Z"/>
</svg>