<?xml version="1.0" encoding="UTF-8"?>
<svg id="Capa_1" data-name="Capa 1" xmlns="http://www.w3.org/2000/svg" viewBox="0 0 116.61 267.35">
  <defs>
    <style>
      .cls-1 {
        fill: #99896e;
      }

      .cls-2 {
        fill: #c4bba2;
      }

      .cls-3 {
        fill: #6b6664;
      }

      .cls-4 {
        fill: #e84e24;
      }
    </style>
  </defs>
  <path class="cls-3" d="M32.1,58.15c-.98-1.88,21.29-8.66,21.64,9.91,0,0,41.71-1.03,21.79-24.27-6.89-8.05-6.18-14.7-5.98-20.9.21-6.19-4.29-24.2-19.73-22.39,0,0-4.04-1.64-9.09.97-11.47,5.95-37.18,63.51-8.64,56.67Z"/>
  <path class="cls-1" d="M100.28,78.91s2.71-4.13,4.9-4.21c2.19-.08,6.24-1.22,5.92-.41-.32.81-2.84.89-3.08,1.38-.24.49,3.73,1.22,4.86,1.3,1.13.08,3.81,0,3.73.57-.08.57-4.82,2.92-8.16,2.59-3.34-.32-7.48.97-7.48.97l-.69-2.19Z"/>
  <path class="cls-4" d="M61.02,80.25s1.48,2.92,4.15,6.28c3.23,4.04,8.2,8.71,14.45,9.63,2.98.44,5.9-.2,8.58-1.39,0,0,0,0,0,0,7.58-3.37,13.29-11.11,13.29-11.11,1.34-3.65-.85-6.12-.85-6.12,0,0-15.32,3.44-16.77,2.72-1.46-.73-9.97-25.24-11.99-28.32-2.03-3.08-8.93-4.68-8.93-4.68l-1.93,33Z"/>
  <path class="cls-4" d="M65.17,86.53c3.23,4.04,8.2,8.71,14.45,9.63,2.98.44,5.9-.2,8.58-1.39-.3.04-7.87.98-10.89-4.43-3.08-5.51-6.41-14.26-10.99-11.35-1.97,1.26-1.89,4.39-1.15,7.54Z"/>
  <path class="cls-3" d="M3.88,245.57s-4.67,4.27-3.76,7.3c.91,3.03,5.13,5.05,5.7,8.75.57,3.7,2.85,5.72,4.9,5.72,2.05,0,9.78,0,9.78,0,0,0,1.51-2.61-2.14-3.39-3.65-.79-5.02-5.14-4.79-9.18.23-4.04-.34-9.43-.34-9.43l-7.75-1.8-1.6,2.02Z"/>
  <path class="cls-3" d="M43.43,247.38s-1.68,18.07.37,19.08l26.26-.05s0-3.03-4.22-3.7c-4.22-.67-11.63-3.14-12.88-8.64-1.25-5.5-9.53-6.68-9.53-6.68Z"/>
  <path class="cls-1" d="M24.72,117.76c5.4-12.12,8.71-15.6,8.08-19.36-.47-2.8,1.43-52.19,1.43-52.19.64-.2,1.93-.38,2.63-.53,2.22-.49,4.05-2.05,4.81-4.19.92-2.58,1.65-6.38,1.63-11.14l.69.14,11.64,2.3s-.26,3.66-.27,7.11c0,.03,0,.06,0,.09-.01,3,1.95,5.64,4.83,6.47,1.47.42,2.75.79,2.75.79,0,0,4.27,12.2,5.09,24.73.82,12.53-7.77,17.98.06,43.03,8,25.58-46.36,9.45-43.38,2.75Z"/>
  <path class="cls-1" d="M57.81,36.06s-15.41.25-15.42-9.34c-.01-9.6-2.01-16.03,7.83-16.6,9.84-.57,11.75,3.09,12.54,6.3.78,3.2-.94,19.33-4.95,19.65Z"/>
  <path class="cls-3" d="M57.24,9.88s-4.22,11.26-10.69,12.93c-6.47,1.67-9.28-.07-9.28-.07,0,0,4.97-3.95,6-10.83,0,0,10.8-7.38,13.98-2.02Z"/>
  <path class="cls-3" d="M56.2,10.79s3.13,1.17,4.42,3.45c1.26,2.23,2.33,5.19,2.08,8.81,0,0,3.18-7.65-.39-11.98-3.79-4.59-6.11-.28-6.11-.28Z"/>
  <path class="cls-4" d="M23.24,68.06s-.39,5.52,0,12.14c.26,4.39,4.7,10.27,5.33,11.72,1.58,3.65,3.36,4.24,3.36,4.24l13.79,3.38,4.85,1.19,15.29-4.57s6.96-19.43,4.17-30.37c-2.8-10.94-7.07-18.54-7.07-18.54,0,0-12.47,12.21-28.72-1.04l-11,21.85Z"/>
  <path class="cls-4" d="M27.27,81.99c.26,4.39.66,8.47,1.29,9.93,1.58,3.65,3.36,4.24,3.36,4.24l13.79,3.38,5.99-1.76s-19.99-3.03-17.77-20.23l-6.66,4.44Z"/>
  <path class="cls-2" d="M64.88,99.11s7.57,23.56,8.06,31.59c.49,8.02-14.47,113.97-15.07,117.66-.57,3.48-4.89,5.71-4.89,5.71,0,0-1.99,1.17-4.83.37-3.94-1.11-5.19-2.44-5.19-2.44,0,0-5.89-75.56-2.25-102.55,3.65-26.99,3.69-50.33,3.69-50.33h20.48Z"/>
  <path class="cls-2" d="M32.8,98.4s-11.55,15.49-12.62,25.97c-1.08,10.47-1.69,47.26-3.98,57.47-2.29,10.21-10.72,29.86-10.72,61.71,0,0,.88,1.83,3.58,2.8.86.31,2.02.61,3.15.87,2.23.51,4.52-.58,5.54-2.63,5.7-11.47,23.84-48.47,24.77-56.14.66-5.43,6.39-41.4,18.89-62.51,3-5.07-1.84-25.22-1.84-25.22l-26.76-2.32Z"/>
  <path class="cls-3" d="M66.08,95.47s-3.04,2.4-9.08,2.53c-7.21.15-25.08-1.84-25.08-1.84,0,0-.79,2.22-.76,4.56,0,0,21.82,5.5,34.47.8,0,0,1.63-3.07.45-6.05Z"/>
  <path class="cls-1" d="M36.97,99.8s8.19.96,8.17,2.9c-.03,1.94-2.04,5.94-3.05,6.12-1.01.18-6.67-5.4-6.67-5.4l1.55-3.62Z"/>
  <path class="cls-4" d="M34.23,46.21s-10.94.77-15.13,10.96c-4.19,10.19-12.15,27.3-12.15,30.18s4.44,11.75,28.31,16.86c0,0,2.47-2.6,2.32-4.65,0,0-14.9-12.8-14.86-14.29.08-2.83,2.44-6.56,15.52-19.65,3.56-3.56-4.01-19.41-4.01-19.41Z"/>
</svg>