<?xml version="1.0" encoding="UTF-8"?>
<svg id="Capa_1" data-name="Capa 1" xmlns="http://www.w3.org/2000/svg" viewBox="0 0 55.79 150.54">
  <defs>
    <style>
      .cls-1 {
        fill: #a4cfd8;
      }

      .cls-2 {
        fill: #6b6664;
      }

      .cls-3 {
        fill: #b7ac8e;
      }
    </style>
  </defs>
  <ellipse class="cls-2" cx="28.02" cy="11.95" rx="13" ry="11.95"/>
  <rect class="cls-3" x="3.54" y="30.1" width="11.94" height="51.86" rx="2.97" ry="2.97" transform="translate(10.17 112.86) rotate(-171.03)"/>
  <path class="cls-2" d="M30.53,23.11h-10.5c-1.44,0-2.62-1.18-2.62-2.62v-10.96c0-3.47,2.84-6.32,6.32-6.32h9.15c3.41,0,5.73,3.08,5.73,5.22v6.59c0,4.45-3.64,8.09-8.09,8.09Z"/>
  <rect class="cls-3" x="19.86" y="9.33" width="16.31" height="16.3" rx="1.3" ry="1.3"/>
  <rect class="cls-3" x="12.91" y="95.66" width="11.94" height="54.88" rx="1.3" ry="1.3"/>
  <rect class="cls-3" x="31.29" y="95.66" width="11.94" height="54.88" rx="1.3" ry="1.3"/>
  <rect class="cls-3" x="40.31" y="30.1" width="11.94" height="51.86" rx="2.97" ry="2.97" transform="translate(-8.17 7.9) rotate(-8.97)"/>
  <rect class="cls-3" x="22.27" y="22.4" width="11.51" height="11.34"/>
  <ellipse class="cls-2" cx="27.7" cy="9.88" rx="10.01" ry="3.25" transform="translate(-1.27 4.8) rotate(-9.69)"/>
  <path class="cls-1" d="M44.6,104.82h-12.68c-1.44,0-2.62-1.09-2.62-2.41v-40.73c0-1.33,1.18-2.41,2.62-2.41h10.67c1.44,0,2.62,1.09,2.62,2.41l2.01,40.73c0,1.33-1.18,2.41-2.62,2.41Z"/>
  <path class="cls-1" d="M24.21,104.82h-12.68c-1.44,0-2.62-1.09-2.62-2.41l2.01-40.73c0-1.33,1.18-2.41,2.62-2.41h10.67c1.44,0,2.62,1.09,2.62,2.41v40.73c0,1.33-1.18,2.41-2.62,2.41Z"/>
  <rect class="cls-1" x="15.74" y="63.56" width="24.31" height="31.96" rx="4.03" ry="4.03"/>
  <rect class="cls-1" x="9.15" y="30.29" width="37.49" height="43.15" rx="2.05" ry="2.05"/>
</svg>