<?xml version="1.0" encoding="UTF-8"?>
<svg id="Capa_1" data-name="Capa 1" xmlns="http://www.w3.org/2000/svg" viewBox="0 0 91.11 264.94">
  <defs>
    <style>
      .cls-1 {
        fill: #e6eff0;
      }

      .cls-2 {
        fill: #adcdd1;
      }

      .cls-3 {
        fill: #ebe9e2;
      }

      .cls-4 {
        fill: #6b6664;
      }

      .cls-5 {
        fill: #8bbcc1;
      }

      .cls-6 {
        fill: #9a8a6f;
      }
    </style>
  </defs>
  <path class="cls-4" d="M58.17,253.11c4.03,2.73,8.06,5.45,12.07,8.21.53.37,1.11.89.94,1.67-.2.94-1.08,1-1.8,1.03-2.55.1-5.1.15-7.64.16-4.57,0-9.15.04-13.7.5-1.13.12-2.28-.26-1.34-1.58,1.36-1.92,1.78-4.11,2.38-6.25.29-1.04.69-1.79,1.73-2.13,2.53-.18,4.96-.83,7.36-1.61Z"/>
  <path class="cls-4" d="M33.17,254.9c1.09,2.61,1.38,5.35,1.44,8.14.03,1.33-.53,1.84-1.89,1.87-5.7.12-11.38-.23-17.07-.45-.58-.02-1.28.03-1.45-.75-.15-.68.29-1.12.77-1.51,3.41-2.82,6.92-5.48,10.56-8,2.5.78,5.16-.23,7.65.7Z"/>
  <g>
    <path class="cls-1" d="M6.43,147.21c.32,8.06,3.84,44.67,5.12,51.91.64,13.03,10.12,57.72,10.12,57.72,4.94-2.04,10.46,3.46,13.09,1.16,2.92-2.55-.22-7.91.66-16.09,1.51-14.03,4.25-34.83.85-42.87-.48-1.67.1-3.52.63-5.51,3.23-11.98,5.5-39.81,5.5-39.81,2.17,5.15,7.66,26.01,11.75,32.38,2.74,4.28,1.36,6.82,1.36,6.82,0,0-4.27,9.57-5.05,13.38-1.62,7.91-1.33,24.03-1.81,34.9-.22,4.88-3.12,15.06-3.12,15.06,7.2,2.93,19.19.29,19.19.29,0,0,16.14-53.25,16.14-67.59,0-1.37-.22-17.83-.22-17.86-2.93-18.03-10.61-40.57-11.94-43.73-2.49.55-13.1,1.72-23.27,1.97-11.14.27-29.88-.29-38.3-1.62-3.41,5.19-.86,15.08-.68,19.49Z"/>
    <g>
      <g>
        <path class="cls-6" d="M56.3,10.77s1.54,10.64-2.89,12.82c-3.52,1.74-1.75-10.93-1.75-10.93"/>
        <path class="cls-3" d="M29.57,45.39s2.97,2.71,4.16,5.31c5.53,1.17,8.65,1.28,12.55.16,2.26-.66,6.52-3.28,6.83-4.9-.85-1.52-3.69-1.84-4.89-2.25-.42-.07-.92-.12-1.07-.24l-.04-.04c-.18-.12-.32-.23-.35-.36-.24-.76-.33-1.1-.35-1.5-.03-.32-.01-.67-.01-1.3-.05-1.56-.06-3.29-.06-3.29l-3.14-1.48-12.65-9.4.24,3.56s1.44,10.26.63,14.84c-.07.4-1.51.62-1.85.88Z"/>
        <path class="cls-3" d="M37.32,34.25s1.44,4.94,9.09,7.32c-.03-.32-.01-.67-.01-1.3-.05-1.56-.06-3.29-.06-3.29l-3.14-1.48-5.87-1.26Z"/>
        <path class="cls-3" d="M54.98,26.62c0,.15-.01.31-.02.47-.15,2.93-.45,7.2-2.38,9.29-2.16,2.33-4.25,2.08-7.49,1.62-2.56-.36-5.44-1.33-7.91-2.69-1.85-1.02-3.46-2.27-4.54-3.65-1.17-1.5-3.18-1.83-3.97-3.52-2.33-4.98-.41-9.43,3.51-13.42,3.63-3.69,14.57-8.59,19.85-6.75,3.32,1.16,3.19,13.92,2.96,18.64Z"/>
        <path class="cls-6" d="M52.18,14.09s-.04.02-.06.02c-2.87,1.11-5.96,1.67-9.06,1.69-1.15,0-2.31.22-3.45.14-.68-.05-1.9-.62-2.52-.19-.78.54-.19,3.86-.24,4.72-.13,1.99-.46,4.08-1.2,5.32-.69,1.14-.55-4.13-3.57-4.68-1.87-.34-.45,7.41-1.44,7.93.45,2.23,1.03,7.4,1,10.17-1.54,1.11-1.69-6.42-2.98-7.78-1.29-1.36-8.3-9.21-9.05-13.62-.83-4.84,1.28-8.45,5.94-9.07-1.3-3.02,1.25-6.03,4.13-7.24,2.81-1.19,7-2.18,11.66.01.32.15,2.57-.85,3.02-.96,1.1-.26,2.22-.43,3.35-.51,2.15-.15,4.44.02,6.41.92,4.49,2.04,4.66,8.3,1.14,11.41-.87.77-1.95,1.29-3.06,1.72Z"/>
        <path class="cls-3" d="M34.46,23.36c-.18-.4-.58-1.23-1.37-1.81-.83-.61-3.25-1.05-4.43,1.28-1.29,2.57,1.88,9.86,4.8,6.9,2.31-2.34,1.68-4.85.99-6.37Z"/>
        <path class="cls-3" d="M30.14,23.41s.92-1.38,2.37-.29c1.18.89,1.44,4.39,0,5.04-1.46.66-2.65-1.03-1.8-2.44.17-.28.39-.44.64-.51,1.24-.33,1.06-1.54.5-1.93-.36-.24-1.1-.29-1.72.12Z"/>
      </g>
      <g>
        <path class="cls-5" d="M70.79,133.43c.15.59.22,1.2.26,1.9.02.35-.14,4.03-.14,4.03-7.74-2.56-16.34-2.72-24.19-.45-4.76,1.37-12.29,1.83-17.17.86-2.48-.5-4.9-1.28-7.18-2.33-.76-.35-6.24-2.9-6.09-3.74.61-3.4,2.39-15.54,3.38-18.85.74-2.48-3.65-15.64-3.17-18.12,2.79-14.23,9.07-27.15,9.43-33.37.83-14.21,3.96-18.14,4.07-18.26l1.54.63c6.1,2.49,13.1,1.92,18.66-1.51,0,0,.75.81,1.91,3.47.37.84.78,1.87,1.23,3.11.95,2.68,2.05,6.38,3.19,11.41,2.67,11.81,16.44,30.71,18.57,36.38,1.46,3.89-9.04,26.44-6.93,30.05.67,1.16,1.45,2.28,2.09,3.45.25.46.42.91.54,1.36Z"/>
        <path class="cls-2" d="M25.91,63.35c-.42,7.3-1.23,34.72-6.26,51.49-.62,2.08-1.84,12.59-2.31,13.97-1.04,3.09-1.7,4.62-2.09,5.36-.7.32-1.37.64-2,.96-.98.5-3.41,2.52-4.59,2.02-.35-.15-.6-.45-.81-.75-1.18-1.69-.5-3.47-.18-5.32.09-.56.19-1.13.28-1.73.29-1.77,1.26-12.5,1.54-14.53.96-7.12,4.1-25.56,3.81-32.62-.37-8.87-2.45-14.98-4.03-19.24-1.28-3.45-2.23-5.68-1.7-7.2.08-.21.24-.44.51-.7,1.5-1.5,5.89-3.61,10.57-5.57,4.13-1.74,8.5-3.38,11.31-4.4-.09.12-3.23,4.05-4.06,18.26Z"/>
        <path class="cls-2" d="M72.77,134.23c.21,2.53-.16,4.98-2.56,6.57-1.31-.53-2.32-1.59-3.01-2.76-.7-1.18-1.11-2.48-1.51-3.77-1.02-3.29.06-15.25,1.39-18.42,3.08-7.4-1.99-23.88-3.08-30.84-1.19-7.6-5.77-15.29-7.47-22.81-1.67-7.37-3.25-11.87-4.41-14.53-1.13-2.57-1.87-3.42-1.91-3.46,2.07.73,5.68,2.04,9.4,3.58,4.89,2.01,9.98,4.41,12.07,6.4.31.29.58.59.79.88,1.4,1.89.95,3.76.01,6.17-1.04,2.69-2.67,6.05-2.99,10.84-.11,1.63-.08,3.93.05,6.64.15,3.1.44,6.73.79,10.48.34,3.68.74,7.48,1.14,11.01.18,1.66.31,13.01.48,14.51.04.32.07.63.11.94.18,1.51-.33,11.71-.18,12.93.21,1.69.73,3.69.9,5.65Z"/>
        <g>
          <path class="cls-3" d="M80.2,138.28s.99,6.18-3.97,12.57c-1.25,3.49-.32,5.94-3.79,7.91-.94,1.82-1.37,3.46-2.71,2.83-1.19,1.27-2.4,2.16-3.14-.5-1.31,1.24-3.23-.64-2.73-9.76.05-3.89,2.18-7.64,9.16-14.58,4.41-1.47,7.17,1.53,7.17,1.53Z"/>
          <path class="cls-3" d="M64.28,148.59s-3.74,3.45-2.55,4.66c.96.47,2.08-.61,2.08-.61,0,0,8.67-7.64.47-4.05Z"/>
        </g>
        <path class="cls-2" d="M87.42,130.65c-.05.17-2.42,4.77-2.47,4.93-2.28,8.81-5.26,8.37-5.26,8.37-1.62,0-10.21-3.49-10.21-3.49l.86-8.23.2-1.92,1.39-15.6-3.64-15.52s1.01-7.67-.62-11.1c-3.3-6.96-6.18-16.95-9.19-20.25l11.19-10.24,2.77-2.54c6.51,7.84,17.19,21.05,18.58,35.92.55,5.91-1.88,32.93-3.61,39.67Z"/>
        <g>
          <path class="cls-3" d="M9.22,137.82s2.42,5.38,9.68,8.16c2.8,2.19,3.33,4.57,7.11,4.53,1.69,1.01,2.88,2.11,3.62.99,1.6.46,3.03.6,2.24-1.86,1.68.38,2.24-2.01-2.89-9.03-2.05-3.08-5.69-5.06-14.85-7.34-4.27.88-4.92,4.55-4.92,4.55Z"/>
          <path class="cls-3" d="M27.23,138.62s4.76,1.01,4.45,2.52c-.52.82-1.98.48-1.98.48,0,0-10.86-2.05-2.47-3Z"/>
        </g>
        <path class="cls-2" d="M18.9,134.58s-2.14.49-4.26,1.6c-1.7.9-3.38,2.19-3.9,3.97,0,0-.83-.92-2.01-2.41-.54-.69-1.16-1.49-1.81-2.38-1.55-2.12-3.26-4.75-4.5-7.38-3.74-7.94-1.99-28.45-2.14-34.54-.17-6.92.36-13.81,1.44-20.65.93-5.9,2.36-11.99,5.87-17.04.16-.23.32-.46.49-.68,0,0,0-.01.01-.02h0s3.17,4,3.17,4l8.38,10.54c1.57,5-3.18,25.68-3.18,25.68l.95,22.39-.28,10.32.22.82,1.54,5.77Z"/>
      </g>
    </g>
  </g>
</svg>