<?xml version="1.0" encoding="UTF-8"?>
<svg id="Capa_1" data-name="Capa 1" xmlns="http://www.w3.org/2000/svg" viewBox="0 0 97.15 270.61">
  <defs>
    <style>
      .cls-1 {
        fill: #6b6664;
      }

      .cls-2 {
        fill: #d0c8b1;
      }

      .cls-3 {
        fill: #8bbcc1;
      }

      .cls-4 {
        fill: #9a8a6f;
      }
    </style>
  </defs>
  <path class="cls-4" d="M29.84,34.02c-1.33-3.5-4.53-5.18-7.2-7.36-4.58-3.75-5.03-7.97-1.27-12.51.92-1.11,1.97-2.06,2.15-3.7.44-4,2.13-5.29,6.22-4.73,1.28.17,1.77.12,2.24-1.28,1.12-3.33,4.95-4.76,8.61-2.79,3.75,2.01,6.31.04,9.15-1.64h2.2c.48.72,1.33.75,2,1.12,2.16,1.19,3.66,2.94,3.75,5.48.09,2.45-1.48,3.85-3.59,4.66-2.02.77-2.68,2.78-4.02,4.15-1.12.88-2.32,1.52-3.81,1.35-2.66-.3-4.48.86-5.72,3.17-.68,1.28-1.66,2.33-3.21,2.34-2.21,0-2.34,1.29-1.96,2.93.15.65.53,1.36-.25,1.75-.92.46-1.25-.4-1.65-.98-.78-1.14-1.39-2.43-2.67-3.14-.64-.35-1.33-.73-2.05-.2-.68.5-.7,1.26-.58,2,.08.5.23,1.02.49,1.44,1.15,1.83,1.42,3.99,2.27,5.93.5,1.14.17,1.84-1.1,2.02Z"/>
  <path class="cls-3" d="M59.37,130.08c.46,7.35.63,14.73,1.44,22.03,1.44,12.85,1.92,25.73,2.21,38.64.18,7.88.35,15.78.93,23.63.5,6.86.64,13.7.81,20.56.08,3.27.36,6.57.93,9.78.53,3.02,1.25,3.79-3.61,4.24-2.36.16-4.7.62-7.08.46-.63-.04-1.32-.14-1.81.45-2.21-.24-4.38.05-6.5.63-1.37.37-1.92.27-2.34-1.42-2.28-9.09-1.98-18.4-2.55-27.63-.59-9.54-1.37-19.06-1.91-28.6-.33-5.83-.59-11.66-.79-17.49-.1-2.93-.39-5.87-.67-8.83-.62,1.41-.96,2.82-.97,4.31-.06,10.45-1.36,20.83-1.44,31.29-.07,7.87-1.32,15.68-1.75,23.55-.44,8.17-.89,16.34-.77,24.53.03,2.26-.44,2.56-2.71,2.37-2.04-.17-4.1-.08-6.14-.11-2.89-.58-5.83-.39-8.75-.44-.59,0-1.18-.05-1.76,0-1.75.16-2.34-.64-2.23-2.34.61-9.77,1.05-19.55,1.52-29.31.33-6.8.05-13.73-.47-20.59-.22-2.84-.05-5.71-.19-8.57-.72-14.63,1.36-29.19,1.04-43.81-.1-4.56.77-9.15,1.19-13.72,5.58,1.43,11.16,2.77,16.97,3.01,7.71.31,14.78-2.22,21.87-4.68,1.85-.64,3.56-1.69,5.55-1.95Z"/>
  <path class="cls-3" d="M59.37,130.08c-1.99.25-3.7,1.31-5.55,1.95-7.09,2.46-14.16,5-21.87,4.68-5.81-.24-11.39-1.58-16.97-3.01-.91-3.61-.86-7.34-1.35-11.01-.84-6.32-.3-12.63.28-18.94,1.63-1.75,4-2.45,5.74-4.01,4.74-4.25,9.39-8.6,14.17-12.81,4.16-3.67,7.42-8.3,12.19-11.34,1.61-1.02,2.15-2.78,1.96-4.63-.32-3.05-.11-5.84,2.91-7.61.33-.2.56-.68.7-1.08.45-1.28-.37-2.4-1.71-2.38-3.54.05-8.13,3.67-8.86,7.15-.55,2.63-1.78,4.64-3.97,6.31-4.74,3.61-10,6.36-15.11,9.35-5.16,3.02-10.67,5.58-14.56,10.39-3.14,3.88-3.2,6.17-.26,10.22-3.87-.3-6.25-2.31-7.08-6.12,0-2.19-.02-4.38-.03-6.57.75-5.23,2.46-10.19,4.01-15.22.93-3.04,1.12-6.31,1.63-9.48.21-1.33.73-2.53,1.48-3.62,1.42-2.05,2.56-4.24,3.59-6.52,1.56-3.44,3.85-6.05,7.9-6.88,3.71-.76,7.38-1.82,10.94-3.16,1.35.26,2.05,1.37,2.88,2.26,1.46,1.55,3.02,2.95,4.8,4.14,1.54,1.03,2.6.78,3.79-.53,1.27-1.39,1.92-3.07,2.69-4.71,3.36.8,6.49,2.38,9.5,3.86,3.32,1.62,4.86,5.33,5.82,8.95,2.39,8.97,3.99,18.14,7.04,26.94-.74.3-1.47.6-2.21.89-4.17,1.67-6.85,8.19-4.96,12.06-1.43,2.33-.68,4.86-.49,7.27.55,6.84,2.07,13.59,2.01,20.5,0,1.11-.19,2.01-1.05,2.71Z"/>
  <path class="cls-2" d="M7.11,103.32c-2.95-4.06-2.88-6.35.26-10.22,3.9-4.81,9.4-7.36,14.56-10.39,5.11-2.99,10.36-5.74,15.11-9.35,2.19-1.67,3.42-3.68,3.97-6.31.73-3.48,5.32-7.1,8.86-7.15,1.33-.02,2.16,1.1,1.71,2.38-.14.4-.37.88-.7,1.08-3.02,1.78-3.22,4.56-2.91,7.61.19,1.85-.35,3.61-1.96,4.63-4.77,3.04-8.02,7.67-12.19,11.34-4.78,4.21-9.43,8.56-14.17,12.81-1.74,1.56-4.11,2.26-5.74,4.01-2.32.63-4.6.67-6.8-.45Z"/>
  <path class="cls-2" d="M43.71,46.89c-.77,1.64-1.42,3.32-2.69,4.71-1.19,1.31-2.25,1.56-3.79.53-1.78-1.19-3.34-2.59-4.8-4.14-.84-.89-1.54-2-2.88-2.26.62-3.89.35-7.81.29-11.72,1.27-.18,1.6-.88,1.1-2.02-.84-1.94-1.11-4.1-2.27-5.93-.26-.42-.41-.94-.49-1.44-.12-.73-.1-1.5.58-2,.72-.53,1.41-.16,2.05.2,1.28.71,1.89,2,2.67,3.14.4.59.73,1.45,1.65.98.78-.39.4-1.1.25-1.75-.39-1.64-.26-2.92,1.96-2.93,1.55,0,2.53-1.06,3.21-2.34,1.23-2.31,3.06-3.47,5.72-3.17,1.49.17,2.69-.47,3.81-1.35.97,5.21,1.5,10.42.11,15.65-.55,2.06-1.12,4.07-2.33,5.88-1.05,1.57-2.32,2.63-4.28,2.62-1.18-.01-1.31.54-1.08,1.54.45,1.92.81,3.86,1.2,5.79Z"/>
  <path class="cls-2" d="M53.68,88.96c2.04-3.79,8.91-5.42,12.69-3,.67.43,1.34.85,2.01,1.27,3.39,3.12,6.66,6.36,10.25,9.24,1.2.96,2.49,1.86,3.46,3.02,6.2,7.41-8.05-2.66,9.1,3.93.61.24,1.26.39,1.89.57.89.25,1.69.69,1.88,1.65.22,1.12-.69,1.58-1.5,1.87-1.25.44-.67.94-.21,1.55,1.05,1.41,2.07,2.84,3.11,4.26.99,1.36,1.09,2.75-.06,4.01-1.16,1.26-2.48,1.14-3.99.4-4.41-2.17-7.79-5.68-11.5-8.75-2.91-2.4-5.83-4.66-9.4-5.93-5.08-1.81-9.65-4.61-14.11-7.56-2.2-1.45-3.27-3.89-3.64-6.54Z"/>
  <path class="cls-1" d="M62.11,256.67c4.14,2.34,8.28,4.66,12.4,7.03.55.31,1.15.78,1.05,1.55-.12.94-.97,1.06-1.67,1.14-2.47.3-4.94.55-7.42.76-4.45.37-8.89.77-13.29,1.58-1.09.2-2.24-.07-1.43-1.43,1.17-1.97,1.4-4.14,1.82-6.27.2-1.04.53-1.79,1.51-2.21,2.45-.38,4.76-1.21,7.03-2.15Z"/>
  <path class="cls-1" d="M23.79,259.09c1.38,2.38,2.01,5,2.42,7.69.19,1.28-.28,1.85-1.59,2.05-5.5.84-11.05,1.22-16.58,1.73-.57.05-1.23.19-1.5-.54-.23-.64.14-1.12.55-1.56,2.94-3.16,6-6.18,9.2-9.08,2.52.44,4.97-.88,7.49-.29Z"/>
  <path class="cls-2" d="M62.11,256.67c-2.27.95-4.59,1.77-7.03,2.15-.57-2.99-1.61-5.89-1.89-8.95.49-.59,1.18-.5,1.8-.45,2.38.16,4.72-.3,7.08-.46.01,2.57.02,5.14.04,7.7Z"/>
  <path class="cls-2" d="M23.79,259.09c-2.52-.59-4.97.73-7.49.29-.1-2.45.2-4.92-.42-7.34,2.92.05,5.86-.15,8.75.44-.28,2.2-.56,4.4-.84,6.61Z"/>
</svg>