<?xml version="1.0" encoding="UTF-8"?>
<svg id="Capa_1" data-name="Capa 1" xmlns="http://www.w3.org/2000/svg" xmlns:xlink="http://www.w3.org/1999/xlink" viewBox="0 0 100.99 268.55">
  <defs>
    <style>
      .cls-1 {
        fill: none;
      }

      .cls-2 {
        fill: #99896e;
      }

      .cls-3 {
        fill: #242d56;
      }

      .cls-4 {
        fill: #e6eff0;
      }

      .cls-5 {
        fill: #f5f3ee;
      }

      .cls-6 {
        fill: #adcdd1;
      }

      .cls-7 {
        fill: #6b6664;
      }

      .cls-8 {
        fill: #d0c8b1;
      }

      .cls-9 {
        fill: #8bbcc1;
      }

      .cls-10 {
        clip-path: url(#clippath);
      }
    </style>
    <clipPath id="clippath">
      <path class="cls-1" d="M30.3,117.93s-11.72,56.49-12.39,76.64c-.29,8.57,4.19,37.42.9,52.46.38,2.79,8.75,3.47,9.13,1.92,3.16-12.81,11.05-31.83,11.63-43.08.13-2.51-2.49-6.89-4.04-10.67,3.41-9.55,17.47-45.14,17.47-45.14l-12.39-43.32-10.32,11.18Z"/>
    </clipPath>
  </defs>
  <path class="cls-8" d="M11.93,135.79c-1.06,8.3-5.84,14.55-6.9,14.32-1.06-.23-.63-2.96.07-4.1-1.54.71-1.78,6.58-3.03,6.58-1.36,0-2.36-5.44-1.71-6.74,2.18-4.39,6.58-12.47,7.94-12.52,1.77-.07,3.8,1.07,3.62,2.46Z"/>
  <g id="dad">
    <g>
      <path class="cls-5" d="M22.87,48.38c-9.12,5.95-9.8,54.15-9.8,58.38,0,4.23-6.93,28.64-6.93,28.64,0,0,.85,2.18,5.23,2.11,4.38-.07,16.93-22.5,16.93-22.5l-5.43-66.63Z"/>
      <path class="cls-4" d="M5.82,135.52l-.04-.11.03-.11c.07-.24,6.91-24.41,6.91-28.55,0-.52.27-52.34,9.96-58.67l.49-.32s5.48,67.21,5.44,67.41c-1.29,2.31-12.78,22.61-17.23,22.68-.07,0-.14,0-.2,0-4.39,0-5.32-2.24-5.36-2.34Z"/>
    </g>
    <g>
      <g>
        <path class="cls-7" d="M27.1,262.69c1.09-.18.94,2.49.54,2.7-2.67,1.42-9.25,1.6-14.42,1.97-6.04.43-12.25.11-12.77-.8-.46-.8-1.08-2.42,1.08-3.46.99-.48,14.7-1.33,15.01-1.25.31.08,10.56.84,10.56.84Z"/>
        <path class="cls-8" d="M20.37,243.75c-.22,3.99-2.45,11.51-3.16,12.99-.28.58-3.24,3.94-1.62,5.67,2.49,2.64,8.73,3,10.33-3.23-1.63-6.63,2.84-12.51,2.84-14.48s-8.27-3.06-8.39-.95Z"/>
        <path class="cls-7" d="M25.89,256.08c-.16,3.74,2.02,4.47,1.17,7.43-.44,1.53-22.38,4-25.52,1.96-1.67-1.09-.19-2.33,1.71-3.12,2.2-.92,7.54-3.13,9.59-4.04,2.76-1.23,3.4-3.58,3.97-3.17,1.33.96.74,5.39,1.81,5.96,2.19,1.17,5.96-4.21,6.8-5.18.22-.26.49-.13.48.16Z"/>
        <path class="cls-8" d="M80.78,245.08c1.89,4.94,1.23,11.66.66,13.07-.28.7-2.79,8.61,4.22,6.43,4.56-1.42,5.47-2.97,4.89-3.93-2.81-4.66-1.25-13.29-1.25-15.18,0-1.88-9.22-2.22-8.52-.4Z"/>
        <path class="cls-7" d="M91.67,264.05c.89-.2.56,2.91.32,3.23-.24.32-5.03,1.39-10.15,1.26-4.64-.12-7.59-.37-7.96-1.23-.19-.44.1-2.45,1-3.03.8-.51,8.46-.98,8.71-.91.26.07,8.07.68,8.07.68Z"/>
        <path class="cls-7" d="M82.69,255.83c-1.02.04-2.49,2.29-3.3,4.67-.95,1-2.68,1.36-3.58,2.7-.63.93-1.42,2.57-1.08,3.01,1.18,1.54,16.26,1.28,16.8-.11.7-1.81-.77-3.47-.98-5.25-.19-1.63,0-2.45-.57-3.31-.18-.27-.63-.11-.61.41.04,1.13.21,3.12-1.42,3.35-1.41-4.14-3.58-5.54-5.25-5.48Z"/>
        <g class="cls-10">
          <rect class="cls-6" x="17.62" y="106.75" width="35.38" height="143.75"/>
          <path class="cls-3" d="M48.18,173.44c1.03.26,1.58,1.58,1.23,2.95-.35,1.37-1.47,2.27-2.49,2-1.03-.26-1.57-1.58-1.22-2.95.35-1.37,1.47-2.27,2.49-2Z"/>
          <path class="cls-3" d="M47.97,174.27c.68.17,1.05,1.06.82,1.97-.23.91-.98,1.51-1.66,1.34-.68-.17-1.05-1.06-.82-1.97.23-.91.98-1.51,1.66-1.34Z"/>
          <path class="cls-3" d="M47.76,175.09c.34.09.53.53.41.98-.12.46-.49.75-.83.67-.34-.09-.53-.53-.41-.98.12-.46.49-.76.83-.67Z"/>
        </g>
        <path class="cls-6" d="M73.88,120.24c3.8,18.41,5.89,52.16,5.89,68.62,5.33,4.05,8.8,9.07,9.39,11.43,2.93,11.73.72,46.16.72,47.53-.98,1.83-9.22,3.68-9.14.57-10.68-45.07-14.47-45.16-17.53-53.24-12.47-32.94-28.22-70.1-28.22-70.1l38.88-4.81Z"/>
      </g>
      <g>
        <path class="cls-5" d="M46.32,41.23c5.69.88,31.56,1.49,38.59,12.07,2.96,4.46-8.58,69.03-10.35,70.98-2.84,3.13-40.34,7.34-46.18,0-1.66-2.08-16.91-66.31-5.51-75.91,5.76-4.85,23.45-7.15,23.45-7.15Z"/>
        <path class="cls-4" d="M43.98,128.66c-5.88-.19-13.4-1.06-15.87-4.16-.86-1.09-5.13-17.8-7.72-35.3-2.35-15.89-3.87-35.92,2.26-41.09,5.77-4.86,22.9-7.14,23.73-7.23.88.14,2.25.27,3.98.43,9.36.88,28.83,2.73,34.85,11.79,1.87,2.82-1.72,26.59-3.35,36.68-2.56,15.85-6,33.59-7.03,34.73-1.75,1.93-15.47,4.19-27.85,4.19-1.01,0-2.01-.01-2.99-.05Z"/>
      </g>
      <path class="cls-2" d="M31.26,11.14c.09.67-.23,1.32-.29,1.99-.68,7.95,4.74,9.54,10.04,10.45,6.88,1.18,13.65,8.35,16.16-7.45,1.12-7.06-3.91-16.96-12.25-14.35-3.81,1.19-2.03-2.96-10.05-1.43-9.06,1.73-3.85,9.06-3.61,10.79Z"/>
      <path class="cls-8" d="M51.74,22.81c.06.54,1.62-5.94,1.69-5.35,1.04,8.88,3.11,23.22,3.72,24.66.64,1.54-5.62,4.98-10.15,5.01-6.24.05-9.89-2.31-9.89-3.73,0-1.41,2.06-15.69,2.06-15.69l4.89-10.81,7.7,5.91Z"/>
      <path class="cls-8" d="M39.82,11.4c-1.61.73-3.28-1.78-4.32-.58-1.45,1.69-2.13,3.19-1.92,7.5.37,7.81,4.51,16.66,7.21,16.82,8.36.48,11.79-10.48,11.87-11,.58-3.6.47-4.24.43-4.57,1.81-.21,2.07-4.1,1.11-5.01-2.32-2.17-1,7.09-2.9,7-2.76-.13-.55-7.99-3.43-10.52-1.78-1.57-4.04-1.44-8.04.37Z"/>
      <path class="cls-4" d="M37.67,38.47c-.71-.26-3.93,4.78-4.13,5.91-.2,1.13,5.85,8.19,7.29,7.47,1.44-.72,2.59-3.62,3.15-3.84.88-.35,1.41,4.56,3.17,4.56s14.95-5.72,15.03-9.48c0-.43-5.86-7.25-6.2-7.07-.78.4-5.98,5.21-12.34,5.21-3.32,0-5.36-2.53-5.97-2.76Z"/>
      <path class="cls-9" d="M44.11,43.01l-2.65,7.82s.83,3.33,1.33,4.77c-1.33,2.59-4.82,37.29,0,49.21,4.96-6.15,8.12-12.3,8.12-12.3,0,0-6.95-26.91-6.18-36.9.89-1.92,1.65-5.48,1.65-5.48l-2.26-7.11Z"/>
    </g>
    <g>
      <path class="cls-5" d="M84.91,53.3c11.86,15.8,15.83,43.49,15.72,51.51-.1,8.12-16.39,30.92-22.87,33.01-2.92.94-6.01-1.23-5.65-3.96.43-3.22,10.84-25.81,10.84-31.29,0-5.48-7.5-21.28-9.23-28.66-1.73-7.38,4.5-29.53,11.19-20.61Z"/>
      <path class="cls-4" d="M73.19,137.27c-1.08-.9-1.6-2.16-1.43-3.45.17-1.28,1.77-5.27,3.79-10.32,3.14-7.85,7.05-17.61,7.05-20.92,0-3.12-2.53-9.79-4.98-16.24-1.8-4.75-3.51-9.23-4.24-12.34-1.33-5.68,2.09-20.53,6.97-22.81,1.15-.54,2.92-.64,4.83,1.91,11.52,15.35,15.91,42.85,15.79,51.73-.11,8.67-16.68,31.27-23.12,33.34-.5.16-1.01.24-1.52.24-1.14,0-2.27-.39-3.15-1.13Z"/>
    </g>
    <path class="cls-8" d="M73.24,132.37c-3.35,4.18-5.89,8.65-5.86,11.17.01.83.48,5.39,2.93,7.3,2.45,1.9,4.37-5.74,4.18-6.24-.19-.5,2.68-2.71,2.69-8.86,0-3.36-3.13-4.37-3.94-3.36Z"/>
  </g>
</svg>