<?xml version="1.0" encoding="utf-8"?>
<!-- Generator: Adobe Illustrator 24.0.1, SVG Export Plug-In . SVG Version: 6.00 Build 0)  -->
<svg version="1.1" id="Capa_1" xmlns="http://www.w3.org/2000/svg" xmlns:xlink="http://www.w3.org/1999/xlink" x="0px" y="0px"
	 viewBox="0 0 696 733.3" style="enable-background:new 0 0 696 733.3;" xml:space="preserve">
<style type="text/css">
	.st0{fill:#1C3761;}
	.st1{font-family:'OpenSans-Bold';}
	.st2{font-size:19.23px;}
	.st3{font-family:'OpenSans-SemiBold';}
	.st4{font-size:13.74px;}
	.st5{fill:#79C8D1;}
	.st6{fill:#878787;}
	.st7{font-size:10.3px;}
	.st8{fill:#1D1D1B;}
	.st9{fill:#EEEEEE;}
	.st10{fill-opacity:0;}
	.st11{display:none;fill:none;stroke:#EEEEEE;stroke-width:0.6914;stroke-dasharray:0;}
	.st12{fill:none;stroke:#EEEEEE;stroke-width:0.6914;stroke-dasharray:0;}
	.st13{fill:#003366;}
	.st14{font-family:'SourceSansPro-Regular';}
	.st15{font-size:9.6789px;}
	.st16{fill:none;stroke:#003366;stroke-width:0.6914;stroke-dasharray:0;}
	.st17{fill:none;stroke:#003366;stroke-width:2.7654;}
	.st18{fill:none;stroke:#79C8D1;stroke-width:2.7654;}
	.st19{fill:#66E0E0;}
	.st20{fill:none;stroke:#1C3761;stroke-dasharray:1,1;}
	.st21{font-family:'ArialMT';}
	.st22{font-size:8.24px;}
	.st23{font-size:11.68px;}
</style>
<path id="point-0-3" class="st0" d="M233.3,528.7c0-0.4,0.3-0.7,0.7-0.7s0.7,0.3,0.7,0.7s-0.3,0.7-0.7,0.7S233.3,529.1,233.3,528.7
	L233.3,528.7z"/>
<text transform="matrix(1 0 0 1 290.2436 54.5009)" class="st0 st1 st2">Turisme Rural</text>
<text transform="matrix(1 0 0 1 237.1387 79.7308)" class="st0 st3 st4">Ocupació en percentatge per places.</text>
<g>
	<path class="st0" d="M311,96.6h11.2c1.1,0,2,0.9,2,2v4c0,1.1-0.9,2-2,2H311c-1.1,0-2-0.9-2-2v-4C309,97.5,309.9,96.6,311,96.6z"/>
	<path class="st5" d="M369,96.6h11.2c1.1,0,2,0.9,2,2v4c0,1.1-0.9,2-2,2H369c-1.1,0-2-0.9-2-2v-4C367,97.5,367.9,96.6,369,96.6z"/>
</g>
<g>
	<text transform="matrix(1 0 0 1 52.4011 640.011)" class="st6 st3 st7">Font: Elaboració pròpia del LABturisme en base a dades de l&apos;Enquesta d&apos;ocupació en allotjaments de l&apos;INE.        </text>
</g>
<text transform="matrix(1 0 0 1 52.6411 605.8609)" class="st6 st3 st7">* Les dades dels mesos de març i maig de 2020 no estan disponibles, degut al tancament d’establiments per la gestió de la</text>
<text transform="matrix(1 0 0 1 52.6411 618.2209)" class="st6 st3 st7">crisi sanitària ocasionada per la Covid-19.</text>
<text transform="matrix(1 0 0 1 387.8938 104.6358)" class="st8 st3 st7">2020</text>
<text transform="matrix(1 0 0 1 329.7857 104.6357)" class="st8 st3 st7">2021</text>
<g id="facets_1_">
	<g transform="translate(45,10)">
		<g>
			<path class="st9" d="M33.3,141.5L33.3,141.5L33.3,141.5z"/>
		</g>
		<g>
			<g>
				<g>
					<path class="st10" d="M518.1,517.4l30.7-65.1l39.7,65.1H518.1z"/>
				</g>
			</g>
			<g>
				<g>
					<path class="st11" d="M33.7,517.8v-376"/>
					<g transform="translate(0,544.34)">
						<line class="st12" x1="33.3" y1="-26.5" x2="603" y2="-26.5"/>
						<text transform="matrix(1 0 0 1 7.5211 -23.3522)" class="st13 st14 st15">0%</text>
					</g>
					<g transform="translate(0, 435.5719909667969)">
						<line class="st12" x1="33.3" y1="7" x2="603" y2="7"/>
						<text transform="matrix(1 0 0 1 7.521 10.2196)" class="st13 st14 st15">20%</text>
					</g>
					<g transform="translate(0, 326.8039855957031)">
						<line class="st12" x1="33.3" y1="40.6" x2="603" y2="40.6"/>
						<text transform="matrix(1 0 0 1 7.521 43.7903)" class="st13 st14 st15">40%</text>
					</g>
					<g transform="translate(0, 218.03599548339844)">
						<line class="st12" x1="33.3" y1="74.2" x2="603" y2="74.2"/>
						<text transform="matrix(1 0 0 1 7.521 77.3605)" class="st13 st14 st15">60%</text>
					</g>
					<g transform="translate(0, 109.26799774169922)">
						<line class="st12" x1="33.3" y1="107.7" x2="603" y2="107.7"/>
						<text transform="matrix(1 0 0 1 7.521 110.9327)" class="st13 st14 st15">80%</text>
					</g>
					<g transform="translate(0, 0.5)">
						<line class="st12" x1="33.3" y1="141.3" x2="603" y2="141.3"/>
						<text transform="matrix(1 0 0 1 2.22 144.503)" class="st13 st14 st15">100%</text>
					</g>
				</g>
				<g transform="translate(0,543.84)">
					<path class="st16" d="M33.7-26h569.7"/>
					<g transform="translate(0.5,0)">
						<line class="st16" x1="33.2" y1="-26.4" x2="33.2" y2="-22.2"/>
						<text transform="matrix(1 0 0 1 23.9328 -8.2457)" class="st13 st14 st15">Gen.</text>
					</g>
					<g transform="translate(75.4090909090909,0)">
						<line class="st16" x1="10" y1="-26.4" x2="10" y2="-22.2"/>
						<text transform="matrix(1 0 0 1 1.4939 -8.2461)" class="st13 st14 st15">Feb.</text>
					</g>
					<g transform="translate(150.3181818181818,0)">
						<line class="st16" x1="-13.1" y1="-26.4" x2="-13.1" y2="-22.2"/>
						<text transform="matrix(1 0 0 1 -22.9913 -8.2461)" class="st13 st14 st15">Mar.*</text>
					</g>
					<g transform="translate(225.22727272727272,0)">
						<line class="st16" x1="-36.2" y1="-26.4" x2="-36.2" y2="-22.2"/>
						<text transform="matrix(1 0 0 1 -44.1084 -8.2461)" class="st13 st14 st15">Abr.</text>
					</g>
					<g transform="translate(300.1363636363636,0)">
						<line class="st16" x1="-59.3" y1="-26.4" x2="-59.3" y2="-22.2"/>
						<text transform="matrix(1 0 0 1 -69.02 -8.2465)" class="st13 st14 st15">Mai.*</text>
					</g>
					<g transform="translate(375.0454545454545,0)">
						<line class="st16" x1="-82.4" y1="-26.4" x2="-82.4" y2="-22.2"/>
						<text transform="matrix(1 0 0 1 -91.2401 -8.2469)" class="st13 st14 st15">Jun.</text>
					</g>
					<g transform="translate(449.95454545454544,0)">
						<line class="st16" x1="-105.6" y1="-26.4" x2="-105.6" y2="-22.2"/>
						<text transform="matrix(1 0 0 1 -112.9485 -8.2472)" class="st13 st14 st15">Jul.</text>
					</g>
					<g transform="translate(524.8636363636364,0)">
						<line class="st16" x1="-128.7" y1="-26.4" x2="-128.7" y2="-22.2"/>
						<text transform="matrix(1 0 0 1 -137.4572 -8.2476)" class="st13 st14 st15">Ago.</text>
					</g>
					<g transform="translate(599.7727272727273,0)">
						<line class="st16" x1="-151.8" y1="-26.4" x2="-151.8" y2="-22.2"/>
						<text transform="matrix(1 0 0 1 -159.6055 -8.2461)" class="st13 st14 st15">Set.</text>
					</g>
					<g transform="translate(674.6818181818181,0)">
						<line class="st16" x1="-174.9" y1="-26.4" x2="-174.9" y2="-22.2"/>
						<text transform="matrix(1 0 0 1 -183.1621 -8.2461)" class="st13 st14 st15">Oct.</text>
					</g>
					<g transform="translate(749.590909090909,0)">
						<line class="st16" x1="-198" y1="-26.4" x2="-198" y2="-22.2"/>
						<text transform="matrix(1 0 0 1 -207.0663 -8.2461)" class="st13 st14 st15">Nov.</text>
					</g>
					<g transform="translate(824.5,0)">
						<line class="st16" x1="-221.2" y1="-26.4" x2="-221.2" y2="-22.2"/>
						<text transform="matrix(1 0 0 1 -229.7654 -8.248)" class="st13 st14 st15">Des.</text>
					</g>
				</g>
			</g>
		</g>
	</g>
</g>
<g id="lines">
	<g>
		<g>
			<path pointer-events="none" class="st17" d="M78.3,516.5"/>
		</g>
	</g>
	<g>
		<g>
			<path class="st18" d="M337.6,452c3.9-3.8,6.9-7.8,10.9-12.8c11-11,21-21,31-33c17-21,27-44,40-67c5-8,12-18,23-16
				c13,9,15,25,19,39c8,27,12,53,21,79c4,12,11,23,21,32c9,8,19,14,30,20c14,7,26,15,40,23c2,1,5,2,7,3c24,9,47-9,63-27
				c1-1,3-1,3.8-2.3"/>
			<path class="st18" d="M78.3,487.3c17.5-3.4,34.9-11.9,52.8-11.1"/>
		</g>
	</g>
</g>
<g id="data-points">
	<g transform="translate(45,10)">
		<path id="point-0-0" class="st13" d="M29.2,506.5c0-2.3,1.9-4.1,4.1-4.1s4.1,1.9,4.1,4.1c0,2.3-1.9,4.1-4.1,4.1
			S29.2,508.8,29.2,506.5z"/>
	</g>
	<g transform="translate(45,10)">
		<path id="point-1-0" class="st19" d="M32.6,478c0-0.4,0.3-0.7,0.7-0.7s0.7,0.3,0.7,0.7c0,0.4-0.3,0.7-0.7,0.7
			C32.9,478.7,32.6,478.4,32.6,478z"/>
		<path id="point-1-3" class="st19" d="M188,517.4c0-0.4,0.3-0.7,0.7-0.7s0.7,0.3,0.7,0.7s-0.3,0.7-0.7,0.7
			C188.3,518.1,188,517.8,188,517.4z"/>
		<path id="point-1-5" class="st19" d="M291.6,444.1c0-0.4,0.3-0.7,0.7-0.7c0.4,0,0.7,0.3,0.7,0.7c0,0.4-0.3,0.7-0.7,0.7
			C291.9,444.8,291.6,444.5,291.6,444.1z"/>
		<path id="point-1-6" class="st19" d="M343.4,385.5c0-0.4,0.3-0.7,0.7-0.7c0.4,0,0.7,0.3,0.7,0.7c0,0.4-0.3,0.7-0.7,0.7
			C343.7,386.2,343.4,385.9,343.4,385.5z"/>
		<path id="point-1-7" class="st19" d="M395.2,316.7c0-0.4,0.3-0.7,0.7-0.7s0.7,0.3,0.7,0.7c0,0.4-0.3,0.7-0.7,0.7
			S395.2,317.1,395.2,316.7z"/>
		<path id="point-1-8" class="st19" d="M446.9,449c0-0.4,0.3-0.7,0.7-0.7c0.4,0,0.7,0.3,0.7,0.7c0,0.4-0.3,0.7-0.7,0.7
			C447.3,449.7,446.9,449.4,446.9,449z"/>
		<path id="point-1-9" class="st19" d="M498.7,490c0-0.4,0.3-0.7,0.7-0.7s0.7,0.3,0.7,0.7c0,0.4-0.3,0.7-0.7,0.7
			S498.7,490.4,498.7,490z"/>
		<path id="point-1-10" class="st19" d="M550.5,514.4c0-0.4,0.3-0.7,0.7-0.7s0.7,0.3,0.7,0.7s-0.3,0.7-0.7,0.7
			S550.5,514.8,550.5,514.4z"/>
		<path id="point-1-11" class="st5" d="M598.8,482.9c0-2.3,1.9-4.1,4.1-4.1c2.3,0,4.1,1.9,4.1,4.1s-1.9,4.1-4.1,4.1
			S598.8,485.1,598.8,482.9z"/>
	</g>
</g>
<line class="st20" x1="77.6" y1="464.4" x2="641.6" y2="464.4"/>
<g>
	<text transform="matrix(1 0 0 1 82.9209 460.3591)" class="st0 st21 st22">Mitjana 2020: 18,4%</text>
</g>
<g transform="translate(45,10)">
	<path id="point-0-0_1_" class="st5" d="M29.4,478.5c0-2.3,1.9-4.1,4.1-4.1s4.1,1.9,4.1,4.1c0,2.3-1.9,4.1-4.1,4.1
		S29.4,480.8,29.4,478.5z"/>
</g>
<path id="point-0-1" class="st5" d="M127.5,476.2c0-1.5,1.2-2.8,2.8-2.8s2.8,1.2,2.8,2.8s-1.2,2.8-2.8,2.8l0,0l0,0
	C128.7,478.9,127.5,477.7,127.5,476.2z"/>
<path id="point-0-1_1_" class="st5" d="M231.1,527.3c0-1.5,1.2-2.8,2.8-2.8s2.8,1.2,2.8,2.8s-1.2,2.8-2.8,2.8l0,0l0,0
	C232.3,530,231.1,528.8,231.1,527.3z"/>
<path id="point-0-1_2_" class="st5" d="M334.6,454.7c0-1.5,1.2-2.8,2.8-2.8s2.8,1.2,2.8,2.8s-1.2,2.8-2.8,2.8l0,0l0,0
	C335.8,457.4,334.6,456.2,334.6,454.7z"/>
<path id="point-0-1_3_" class="st5" d="M386.6,395.3c0-1.5,1.2-2.8,2.8-2.8s2.8,1.2,2.8,2.8s-1.2,2.8-2.8,2.8l0,0l0,0
	C387.8,398,386.6,396.8,386.6,395.3z"/>
<path id="point-0-1_4_" class="st5" d="M438.7,326c0-1.5,1.2-2.8,2.8-2.8s2.8,1.2,2.8,2.8s-1.2,2.8-2.8,2.8l0,0l0,0
	C439.9,328.7,438.7,327.5,438.7,326z"/>
<path id="point-0-1_5_" class="st5" d="M489.1,461.1c0-1.5,1.2-2.8,2.8-2.8s2.8,1.2,2.8,2.8s-1.2,2.8-2.8,2.8l0,0l0,0
	C490.3,463.8,489.1,462.6,489.1,461.1z"/>
<path id="point-0-1_6_" class="st5" d="M542,502.1c0-1.5,1.2-2.8,2.8-2.8s2.8,1.2,2.8,2.8s-1.2,2.8-2.8,2.8l0,0l0,0
	C543.2,504.8,542,503.6,542,502.1z"/>
<path id="point-0-1_7_" class="st5" d="M592.7,523.7c0-1.5,1.2-2.8,2.8-2.8s2.8,1.2,2.8,2.8s-1.2,2.8-2.8,2.8l0,0l0,0
	C593.9,526.4,592.7,525.2,592.7,523.7z"/>
<text transform="matrix(1 0 0 1 65.4604 509.2489)" class="st0 st14 st23">2,9</text>
<text transform="matrix(1 0 0 1 63.5409 481.0581)" class="st0 st14 st23">10,5</text>
<text transform="matrix(1 0 0 1 134.5324 488.7005)" class="st0 st14 st23">12,6</text>
<text transform="matrix(1 0 0 1 226.119 518.7723)" class="st0 st14 st23">0,0</text>
<text transform="matrix(1 0 0 1 312.5164 449.7192)" class="st0 st14 st23">19,5</text>
<text transform="matrix(1 0 0 1 363.1609 396.169)" class="st0 st14 st23">35,1</text>
<text transform="matrix(1 0 0 1 430.4048 318.4103)" class="st0 st14 st23">53,4</text>
<text transform="matrix(1 0 0 1 497.9886 457.5073)" class="st0 st14 st23">18,2</text>
<text transform="matrix(1 0 0 1 547.5664 497.0058)" class="st0 st14 st23">7,3</text>
<text transform="matrix(1 0 0 1 587.5243 516.5447)" class="st0 st14 st23">0,8</text>
<text transform="matrix(1 0 0 1 641.6326 484.5614)" class="st0 st14 st23">9,2</text>
<path id="point-0-1_8_" class="st13" d="M127.3,521.6c0-1.5,1.2-2.8,2.8-2.8s2.8,1.2,2.8,2.8s-1.2,2.8-2.8,2.8l0,0l0,0
	C128.5,524.3,127.3,523.1,127.3,521.6z"/>
<path class="st17" d="M79.4,516.9c17.1,1.2,33.9,3.4,51,4.6"/>
<text transform="matrix(1 0 0 1 136.2605 517.8007)" class="st0 st14 st23">2,0</text>
</svg>
