<?xml version="1.0" encoding="utf-8"?>
<!-- Generator: Adobe Illustrator 24.0.1, SVG Export Plug-In . SVG Version: 6.00 Build 0)  -->
<svg version="1.1" id="graphic" xmlns="http://www.w3.org/2000/svg" xmlns:xlink="http://www.w3.org/1999/xlink" x="0px" y="0px"
	 viewBox="0 0 543.5 657.2" style="enable-background:new 0 0 543.5 657.2;" xml:space="preserve">
<style type="text/css">
	.st0{fill:#003366;}
	.st1{font-family:'OpenSans-Bold';}
	.st2{font-size:11px;}
	.st3{fill:#E3F1F3;}
	.st4{fill:#E0F3F4;}
	.st5{fill:#E5F8F8;}
	.st6{fill:#E9F9F9;}
	.st7{fill:#CBF4F4;}
	.st8{font-family:'OpenSans-SemiBold';}
	.st9{font-size:8px;}
	.st10{fill:#6685A3;}
	.st11{font-family:'OpenSans-Light';}
	.st12{font-size:9px;}
	.st13{font-size:14px;}
	.st14{font-size:7px;}
	.st15{fill:#40A0B3;stroke:#FFFFFF;stroke-width:0.3977;}
	.st16{fill:#66E0E0;stroke:#FFFFFF;stroke-width:0.3977;}
	.st17{fill:#64DCDD;stroke:#FFFFFF;stroke-width:0.3977;}
	.st18{fill:#003366;stroke:#FFFFFF;stroke-width:0.3977;}
</style>
<title>LABTurisme-provincies-turisme-rural-marc-2021</title>
<text transform="matrix(1 0 0 1 353.29 142.038)" class="st0 st1 st2">GIRONA</text>
<text transform="matrix(1 0 0 1 42.6339 191.8824)" class="st0 st1 st2">LLEIDA</text>
<path class="st3" d="M200.6,353.9c1.4,1.6,0.3,1.8-1,1.9C198.7,354.7,200.5,354.7,200.6,353.9z"/>
<path class="st4" d="M243.2,440.1c-0.1-0.9-0.5-1.8,0.5-2.4c0.5,0.3,0.9-1.6,1.3,0c0.1,0.5,1.1,1.6-0.4,1.6
	C243.8,439.1,243.7,439.8,243.2,440.1z"/>
<path class="st5" d="M348.1,254.3c0-0.2,0-0.5-0.1-0.7c0.8-1.7,2.2-1,3.5-1.2C350.7,253.6,349,253.1,348.1,254.3z"/>
<path class="st6" d="M357.2,252.3c0.9,0.5,1,1.4,1.2,2.2C356.9,254.6,356.7,253.6,357.2,252.3z"/>
<path class="st7" d="M343.4,249.5v-0.7c0.9,0.4,2.1-0.5,2.8,0.7H343.4z"/>
<text transform="matrix(1 0 0 1 42.6338 207.5316)" class="st0 st8 st9">Ocupació:  </text>
<text transform="matrix(1 0 0 1 42.6338 217.1317)" class="st0 st8 st9">8,3% (-3,3 pp)</text>
<g>
	<text transform="matrix(1 0 0 1 45.2592 52.8138)" class="st10 st11 st12">Lleida és la província que aconsegueix incrementar més el nombre de viatgers, amb creixement d’un 8% respecte  </text>
	<text transform="matrix(1 0 0 1 57.3592 63.6138)" class="st10 st11 st12">el maig del 2019. Pel que fa a ocupació destaca Girona, amb una ocupació similar al 2019. La resta obtenen  </text>
	<text transform="matrix(1 0 0 1 190.1592 74.4138)" class="st10 st11 st12">resultats inferiors a l’època pre-pandèmia.</text>
	<text transform="matrix(1 0 0 1 163.5923 93.4219)" class="st10 st11 st12">Entre parèntesis, variació interanual respecte l’any 2019</text>
</g>
<text transform="matrix(1 0 0 1 42.6342 231.3608)" class="st0 st8 st9">Viatgers:</text>
<text transform="matrix(1 0 0 1 42.6342 240.9608)" class="st0 st8 st9">4.784 (+7,7%)</text>
<text transform="matrix(1 0 0 1 42.6338 253.5369)" class="st0 st8 st9">Pernoctacions:</text>
<text transform="matrix(1 0 0 1 42.6338 263.1368)" class="st0 st8 st9">9.643 (-37,3%)</text>
<text transform="matrix(1 0 0 1 353.2898 156.5228)" class="st0 st8 st9">Ocupació: 14,6% (-1,3 pp)  </text>
<text transform="matrix(1 0 0 1 353.29 170.1819)" class="st0 st8 st9">Viatgers: 13.063 (-21,8%)</text>
<text transform="matrix(1 0 0 1 353.2903 183.2133)" class="st0 st8 st9">Pernoctacions: 27.439 (-15,4%)</text>
<text transform="matrix(1 0 0 1 383.8902 434.4011)" class="st0 st1 st2">ENTORN DE BARCELONA</text>
<text transform="matrix(1 0 0 1 383.89 450.6837)" class="st0 st8 st9">Ocupació: 14,1% (-2,9 pp)</text>
<text transform="matrix(1 0 0 1 383.8895 464.3431)" class="st0 st8 st9">Viatgers: 9.774 (-31,4%)</text>
<text transform="matrix(1 0 0 1 383.8902 478.5262)" class="st0 st8 st9">Pernoctacions: 19.058 (-31,8%)</text>
<text transform="matrix(1 0 0 1 176.8401 525.7372)" class="st0 st1 st2">TARRAGONA</text>
<text transform="matrix(1 0 0 1 176.8401 541.4715)" class="st0 st8 st9">Ocupació: 7,9% (-3,5 pp)</text>
<text transform="matrix(1 0 0 1 176.8401 555.1307)" class="st0 st8 st9">Viatgers: 2.614 (-39,0%)</text>
<text transform="matrix(1 0 0 1 176.8403 569.314)" class="st0 st8 st9">Pernoctacions: 5.249 (-37,3%)</text>
<text transform="matrix(1 0 0 1 224.7424 34.6196)" class="st0 st8 st13">Turisme rural</text>
<text transform="matrix(1 0 0 1 25.3048 638.897)" class="st10 st8 st14">Nota: Les variacions 21/20 estan disponibles, tant sols, per algunes províncies i algunes tipologies d’allotjament. La resta no són calculables (nc)  </text>
<text transform="matrix(1 0 0 1 25.3048 648.897)" class="st10 st8 st14">degut a que les dades de 2020 són “0” o prop de “0”  pel tancament forçós arrel de la crisi sanitària de la COVID-19. </text>
<text transform="matrix(1 0 0 1 25.3052 629.2384)" class="st10 st8 st14">Font: Elaboració pròpia del LABTurisme en base a dades de l’Enquesta d’ocupació en allotjaments de l’INE</text>
<image style="overflow:visible;enable-background:new    ;" width="264" height="44" xlink:href="3EA028DA.png"  transform="matrix(0.5421 0 0 0.5421 199.9443 100.434)">
</image>
<g id="regions-layer">
	<path class="st15" d="M313,277.4v-0.3l0.3-1l2.7-1.3l1.4,1.6l-1.7,0.6l-0.3,2.2l-1.7,0.3L313,277.4z M308.1,206.4l1-2.5h2l1,1.6
		l-1.7,3.2l4.1,4.1l-8.1-0.9l0.3-5.1L308.1,206.4z M507.3,243.8l-0.3-0.3l0.3-0.3h0.3v0.6H507.3z M496.9,292l-0.3-0.3l-0.3-0.3v-0.3
		l1-0.3L496.9,292z M362.6,328.9l-0.7-4.8l1.7-1.6l4.7,1l1,2.2l1.4-0.3l3.4-4.1l3.7,0.6v0.3l2-0.3l5.4-4.8l-0.4-2.9l-2.4-1.6
		l-0.3-0.3L379,312l0.3-2.5l-2-1.9l0.7-1.6l6.1,0.6l2-2.9l-3.1-1.9l4.7-1.6l-0.7-3.8l1.3-1.9l-3.4-4.1l2.4-1.3l-1.4-1.9h-0.3v0.3
		h-0.3l-0.7-1.6l-2.7-0.3l-1.7,0.3l-3.4,2.5l-3.1-2.2l-2-3.8l0.7-2.2h-3l-0.7-2.2l-2.7-0.6v-0.3h-1.7l-3.7,1.3h-0.3l-3.4,2.2l1-3.5
		v-0.3l-1-1.9l-2.4-1.6l-1-0.3v-0.3l-2.7,1l-2.7-1.3l-2,0.3l-1,0.3l-0.3,0.3h-0.3l-0.7,1.6l-2.4,1.6l-0.7-2.2l-6.4,0.6l-2.4,3.2
		l-4.1-1.9l-1.4-3.8l-4.7,1.6l-3.4-1.3l-1-1.9l-4.1,0.6v-1l-2-5.4l-3.7,0.6l-0.3-4.1l6.4,1.3l-1.4,0.3l1,1.6l-1.3,2.2l1.4,1.9
		l2.4-0.3l1.7-2.5l4.4-0.3l0.3-2.9l-1.7-0.3l-0.7-5.1v-0.3l-2.7,1.3l-1.7-2.9l1.3-1.9v-0.3l0.3-2.2l1-1v-0.3l2.7-3.8v-0.3l2.4-2.2
		l-7.8-3.8l-5.1,2.5l-4.7-3.5L304,240l-0.3-1.3l-5.8-1.6l-9.1,3.5l-1-9.5l3-2.9l-4.1-2.5l-3,2.5l-1.4-1.6l1.3-7.9l-2-2.5l-3.7,0.3
		l-5.7-2.2l-1.4-9.2l1-0.9l14.2,0.9l9.8,7.6l4.7,0.3l2.4-1.6l0.7,5.1l2.7,0.9l0.7,8.2l3.7,4.4l4.1,2.2l2.4-1.9l8.1-1l1-2.5l3.4-1.3
		V223l3.4-4.1l2.7-1.3l7.8,0.9l7.4-4.1l6.1,3.2l2.4-1.3l8.1,5.4l10.1,1.6l0.4,3.8l2.7,0.6l3.7,5.7l3.4-0.3l3.4,1.9h2.7l1.7-4.1
		l2.7-0.6l14.9,3.5l1-2.9l-2-1.6l-1.7-5.1h3l0.7-3.5l10.1-3.8l5.1,2.5l3.4-1.6l2.3-3.8l1.7,0.3l2-4.1l3,0.9l1-2.5l2.7,1.6l5.7,0.3
		l1-3.2l2.7-1.3l2.7,2.8l4.4-1.6l2.7,1.6l4-1.6l2.4,5.4l4.4,4.1l5.4-2.2l7.8,0.3l-0.3,0.6l-1.7,0.6l1,0.6l0.3,0.3v0.3v0.3v0.3v0.3
		l-0.3,0.6h-0.3v0.3v0.3h-0.3l-1,1.3l1.4,0.6v0.3l-0.3,0.3H487l-1,1.3h0.3v0.3h1.4h0.3v0.3l-1.7,1.9l0.3,1h0.3l1,0.6v0.3v0.3v0.3
		h-0.3l-0.3,0.3l0.3,0.3l1,1.3l0.7,0.3l0.3,0.3h0.7l0.7,0.6l-0.3,1l0.7,0.6l0.3,0.6l1.4,0.6l0.7-2.5l1,0.3l0.7-0.6h0.3h2.4l0.7,1v1
		h0.3v0.3l1.4,1.3l1.3-0.6h0.3v-0.3v-0.6l1.4,0.3l1,0.3h0.3v0.6l0.7,0.3h0.3l1.7,0.6v0.3h0.3h0.7h0.3l0.7,1.3v-1l0.3,0.3l1,0.3
		l0.3,0.3v0.3l-0.7,0.6v0.3h-0.3l-0.3-0.3l-0.3,0.6h-0.3l-1.3,1.3v0.3l-1-0.3h-0.3l-0.3,0.3l0.3,0.3h0.3v0.3v0.3l-0.3,0.3l-0.7,1.3
		h1l0.3,0.3h0.3v0.3v0.6v0.3l-1,0.3h-0.3H506l-1.4-1.3l0.4,2.2l0.3,0.6l-0.3,4.1l-3.7,0.3l1.4,2.5v0.3l-3.1-2.5h-2.4l0.3,1l-0.3,0.3
		l-1,1.9l-3.4-1.9l-2.7-0.6l-1-3.5h-2.4l-5,5.4l-2,6l1.8,13.7h0.3v0.6v0.3v0.3l1.7,0.6v0.3l0.4,1.9l2.7-0.3l1,0.3l0.7,0.3l1.4,0.3
		L489,279l1,0.3l1,0.3v0.3h0.3l1.4,2.9l1.4,2.2l0.7,1.6v0.3v0.3l0.3,0.6v0.6v0.3h-0.3v0.3l-1.7,0.3l-0.6,6.7l2.4,8.6h1.4v-0.3h0.3
		l0.7,0.3v0.3v0.3h0.3h0.3v0.3v1l0.3,1v-0.6h0.3l-0.3,0.6v0.3H498v0.3v0.3l-0.3,1v0.3h-0.3v0.3l-0.3,0.3h-0.3l-0.3,0.3v0.6H496v0.3
		l-0.3,0.3h0.3l0.3,0.3l-0.3,1l0.3,0.6v0.3H496l0.3,0.6H496v0.6l-1.3,1l0.3,1h-0.3v0.3h0.3v0.3v0.3v0.3l-0.7,0.3v0.3v0.3v0.3H494
		l-0.7,0.6h-0.7h-0.3l0.3,0.3l-0.3,0.3l-0.3,0.3h-0.3H491v0.3v0.3v0.3v0.3h-0.3l-0.3,0.3v0.3l0.3,0.3l-0.3,0.6v0.3v0.3v0.3l-1,1H489
		h-0.3l-0.3,0.3H488v0.3l-1.4-0.3h-0.3l-0.7,0.6l-0.7,0.6v1.3h-0.3h-0.3l-1.3,1.6l-2.4-1.6l-3,2.2v0.3v0.3v0.3h-0.3l-0.7,1h-0.3v0.3
		H476v0.3h-0.3v0.3h-0.3l-2.7,5.7v0.3l-0.3,1h-0.3h-1.4v0.3v0.3l0.3,0.3l-0.7,0.6l-0.3,0.3h-1.7l0.3,1v0.3h-0.7l-3.7,0.6v0.3
		l-0.3,0.3l-2.7,1l-0.3,0.3l-0.7,0.3v0.3v0.3h-0.7l-0.7,1.3l-0.3,0.3l-0.7,1h-0.3l-0.7,1.9l-0.7,0.3l-0.7,0.6h-0.3l-0.3,1l-4.1,2.6
		l-2.4,1H448l-1.4,0.3l-2.4,0.3v0.3h-0.7h-0.7l-2.4,0.6l-0.3,0.3h-0.3l-0.3,0.3l-1.7,0.3h-0.3l-0.3,0.3h-0.3l-0.7,1.3h-0.3l-1,1v0.3
		l-0.7,0.3l-1.7,0.6l-2,3.8l-3.1-5.4l2.4-4.1l-0.7-5.1v-0.3l1-1.6l-12.2-1.3l-2-0.6v1.3l-3.7-1.6l-2.4,0.6l-1.7,2.6l-13.9,1.9
		l-3.1-7.7l-7.1-3.5l0.3-2.2l-2.4,1l-2-1l-1-2.9l-12.5-0.6L362.6,328.9z"/>
	<path class="st16" d="M87.8,593.7l-11.9-5.2l-0.7-3.5l1.7-2.6l-5.8-2.9l-0.3-1.9l-9.9-1l-8.5-3.9l-2.4-3.9l0.4-2.6l3.8-5.2
		l-4.8-4.2l-3.8,1l-1.7-6.1l-4.1,1.6l-4.1-1.6l-1-1.9l-0.7-1.3l2.4,1.6v-2.9l2,1l3.4-3.5l2.4,0.3l1.4-4.5l6.2-6.8l-2.7-3.9l-0.3-1
		l-0.3-5.5l-2.4-1.9l8.3-17.7h-1.7v-2.9l-2-2.6l1-1l-2.4-1.3l0.3-1.6l2.7-0.3l-2.7-1l-2-2.9l-2.4,1.3v-2.6l-2.4,0.3l2.1-1.3
		l-1.7-1.6l0.4-2.2l-0.7-2.6h-2.4l1.4-6.4l-1.4-1.3l3.1-1.9l-1-0.6l5.1,1.3l0.7-4.2l3.4,0.3l4.4-2.9l2.1-10.9l3.4-2.6l2.7,1.3
		l0.7-2.2H68l-1-2.6l1.7-5.8l7.1,0.6l0.4-9l4.1-2.9l6.4,9h3.4l4.1-7.4l4.1,1.3l3.4,5.4l3.4,0.3l5.8-2.9l0.7-0.6h0.3h0.7l11.6-1.6
		l1.7-3.5l2.4,0.6h1h1v0.3l3.7,0.6l0.7-1.3l0.3-1l0.7-3.8l1.7-1l3.7,4.8l13.3-2.9l2-0.6l-0.3-2.2l2.7-4.8l1.7,0.6l1.4-3.2l4.1-1
		l2.7-5.4l1.4-1.3l0.3-0.3l2-1.9l0.7-1l-2-1.3l-3.7-2.9l1.4-0.6l-1-3.5l10.2,5.4v1.3l10.9-3.8l-2.4-5.1l1.7-3.5l-1.7-1l1.4,0.6
		l-0.7-1.6l6.8-1.9l0.3-3.5l4.8-0.3l8.5-0.3l15.3,2.6l-1.7-3.5l4.4-1.3l4.8,2.6l-3.4,2.6l0.3,1.3l2-0.6l0.3,3.2l-6.1,0.3l-1.7,4.5
		l7.5,3.5l0.7,1.6h3.4l1.7,3.2h0.3l-2.7,5.1l0.7,1.6l2.7,0.3l-2.4,1.3l1,1.6l1,4.2l-2.4,3.5l5.1-2.6l4.8,1.9l2,3.2h2.7l1,2.2h0.3
		l-3.1,2.6l2,5.4l3.4,1.3l-0.7,3.2l3.4,1.9l0.3-1.6l3.4-0.6l-1.4,0.3l-1,8l-7.8-1.3l1,3.5l7.1,3.8l2.4-2.2l1,4.5l-0.3,3.2l-20.1,3.5
		l-6.8,2.2l-10.9,7.1l-5.1,0.3l-9.9,0.3l-7.2,3.8l-3.4,4.2l3.4-4.2l-2.7,1.6l-2.7-0.6l-3.4,3.2l-2.7,6.4H186l-2.4-3.2l-3.7-0.6
		l-5.8,2.6l-5.4-0.3l-9.9,5.1l-6.5,6.4l-0.7,2.6l-5.5,3.2l-5.8,6.1l-9.9,15.4l-6.5,4.2l-1.4,4.5l-6.5,3.9l1,3.5l4.4,4.2l6.8-0.3
		v-1.3l-7.5-2.3l0.7-1.3l3.8-0.3l3.1,1.9l8.2,10.6l3.8-1l3.1,1.9l-1.4,6.1l-6.5,5.2l-9.9,4.8l-12.3,16.1l-9.9,2.3l-3.1-2.9l-0.3-2.3
		l3.1,0.3h0.3h-0.3l0.3-1.6l2.4,0.6v0.3v0.3l0.3,0.3l1,0.3l0.7,0.3h0.3l0.3-0.3v-0.3v-0.6h0.7V581v-0.3l0.7-1.6l8.2-0.3l4.1-6.4
		l0.7-2.3h-1l-0.3-0.3H121l-20.2,3.2l-9.6,11L87.8,593.7z"/>
	<path class="st17" d="M268.7,322.6V321l2.7,1l-0.7,1.3L268.7,322.6z M168.8,411.9l-2.7,5.4l-4.1,1l-1.4,3.2l-1.7-0.6l-2.7,4.8
		l0.3,2.2l-2,0.6l-13.3,2.9l-3.7-4.8l-1.7,1l-0.7,3.8l-0.3,1l-0.7,1.3l-3.7-0.6v-0.3h-1h-1l-2.4-0.6l-1.7,3.5l-11.6,1.6H112h-0.3
		l-0.7,0.6l-5.8,2.9l-3.4-0.3l-3.4-5.4l-4.1-1.3l-4.1,7.4h-3.4l-6.4-9l-4.1,2.9l-0.4,9l-7.1-0.6l-3-5.1l0.7-2.9l-3.1-1.6l3.8-5.1
		l-1.7-3.2l-6.4-5.1l2.4-2.6l3.1-9l-1.7-1.6l-0.3-4.5l6.5-0.3l2.7-1.9l6.5-10.5l-2.4-3.2l-0.3-7.3l-3.7,1.6l-8.1-1.3l-0.3-4.5
		l1.7-1.9l-4.7-5.7v-3.2l6.5-7.3l2.4-5.1l1.3,1.6l0.7-5.1l10.9-1.6l1.7-6.7l5.1-4.5l4.1,0.6l1.7-6.4l4.1,0.3v-2.5l4.1-1.6l-2.4-2.5
		l1.4-4.8l-1-1.3l2-0.6l-6.8-2.9v-1.3l4.4-5.7l1.7,1.6l3.1-6.4l2.4-0.3l0.3,2.2l0.7-2.9l1.7-0.6l1-2.9l-1.4-0.6v-3.5l2.4-1.9
		l-0.3-2.9l4.8-8.9l-0.6-9.2l2.7-1.9l-1.7-1.3v-4.1l1.7-6.7l3.1-4.8l1.7-10.5l3.1-4.1l-3.4-1v-1.9l4.4-2.9l-7.4-2.9l3.4-3.8l-8-19.3
		l1.4-2.2l2,1.3l4.1-3.2l-3-1.6v-2.2l0.7-1.6l3.7-0.6l-1.3-1.6l4.1-12v-1.3l-3.4-0.6l-5.7-1.3l-1.7-7.3l-3-3.5l-2.4-2.8h2.4l1-2.8
		l-3-9.2l-3-0.3l3.7-4.4l-3-1.6l3.7-3.5l-1.7-7.3l3-1.9l-0.3-1.3l4.4-1.3l10.4,5l3-0.9l9.1,2.8l10.1,7.3l5.7-3.2l2.7,3.5h7.8
		l1.7,1.3l4.4-0.3l0.7-1.3l7.7,6.6l0.7,5.4l4.7,3.8l10.1-3.8l3,2.5l10.8-1.9l4.7,0.9l-0.7,3.8l5.7,2.5l-0.3,3.8l3.7,2.2l1,6.3
		l3.4,4.1l-2.4,4.4l2.7,2.5l-2.7,1.6l-2,4.7l4.7-1.6l3.7,6.6l-7.4,4.4l3,1.9l0.3,6.6l2,1.6l14.5,0.6l1-5.1l3.4,1.6l1.4-2.8l10.1-0.6
		l1.7-7.3l2,2.2l3.4,0.6l3-2.8l0.7,2.5l-1,0.9l1.4,9.2l5.7,2.2l3.7-0.3l2,2.5l-1.3,7.9l1.4,1.6l3-2.5l4.1,2.5l-3,2.9l1,9.5l-1.7,1
		h-4.1l-3.7,1.9l-6.1,0.3l-0.7,1.3l-2.7-1l-7.1,1.3l3,1l0.7,2.5l-1.4,1.6l3,3.2l-0.7,1.9l-3,1.3l0.7,3.5l3.4,3.2l1.7-1.3l3,1.3
		l-0.3,1v1.6v0.3l0.3,2.5l-1.4,0.6l-3.4,1.9l-1.4,4.1l1.4,1l-0.3,3.5l2.7,2.2l-1,1.9l-3.7-0.6l-2.7,6l-0.7,2.5l1.4,1l0.7-1.9
		l2.4,4.1l-3.7,1.6l-1,3.2l-0.3-3.5h-1.4l-1.4,4.1l1,1.6l1-2.2v2.2l3.7-0.3l1.7,1.9v-6l3.4,3.2l-0.7,1.6l0.3,1.6l-5.1,3.2l-2-1.3
		l1-1.9l-3.7,1l-0.3,6.4l-1,1l1.7,2.5h-1.7h-0.3l-8.1,8l-1.4-1l-1.4,2.5l2.4,1.3l2.4-2.2l2.7,0.6l0.7,1.6l1.4,5.7l-3.1,1.3v3.8
		l-3.4,2.5l1.7,3.2l-1,2.2l-2.7-1l-2,1v1.6l-2-0.3l-0.3,2.9l-2.4,1v-2.6l-1-0.3l-1.7-1l-0.3-0.3v-0.3l-0.3-0.3l-0.3-2.5h-2.7l-1,3.5
		v-0.3l-1.4,0.3v-5.7l-1.7,0.3H230l-3.7-0.6l-1.4,1.3l-2,9.9l3.1,2.6l-6.1,5.1l2.4,0.3l-0.7,1.9l1.4,1.9l3.1,0.3l-1.4,1.9l3.7,5.1
		v0.3h1.7v1.3l-3.1,2.2l-5.4-1.3l-5.1,4.1l7.1,2.9l-2.4,4.8l1.7,3.5l-15.3-2.6l-8.5,0.3l-4.8,0.3l-0.3,3.5l-6.8,1.9l0.7,1.6
		l-1.4-0.6l1.7,1l-1.7,3.5l2.4,5.1l-10.9,3.8v-1.3l-10.2-5.4l1,3.5l-1.4,0.6l3.7,2.9l2,1.3l-0.7,1l-2,1.9l-0.3,0.3L168.8,411.9z
		 M266.2,278.7l-3-0.6l-4.1,0.3l4.1,1.9h3V278.7z"/>
	<path class="st18" d="M263.2,278l3,0.6v1.6h-3l-4.1-1.9L263.2,278z M259.2,459.6l0.3-3.2l-1-4.5l-2.4,2.2l-7.1-3.8l-1-3.5l7.8,1.3
		l1-8l1.4-0.3l-3.4,0.6l-0.3,1.6l-3.4-1.9l0.7-3.2l-3.4-1.3l-2-5.4l3.1-2.6H249l-1-2.2h-2.7l-2-3.2l-4.8-1.9l-5.1,2.6l2.4-3.5
		l-1-4.2l-1-1.6l2.4-1.3l-2.7-0.3l-0.7-1.6l2.7-5.1h-0.3l-1.7-3.2H230l-0.7-1.6l-7.5-3.5l1.7-4.5l6.1-0.3l-0.3-3.2l-2,0.6l-0.3-1.3
		l3.4-2.6l-4.8-2.6l-4.4,1.3l2.4-4.8l-7.1-2.9l5.1-4.1l5.4,1.3l3.1-2.2v-1.3h-1.7v-0.3l-3.7-5.1l1.4-1.9l-3.1-0.3l-1.4-1.9l0.7-1.9
		l-2.4-0.3l6.1-5.1l-3.1-2.6l2-9.9l1.4-1.3l3.7,0.6h1.4l1.7-0.3v5.7l1.4-0.3v0.3l1-3.5h2.7l0.3,2.5l0.3,0.3v0.3l0.3,0.3l1.7,1l1,0.3
		v2.6l2.4-1l0.3-2.9l2,0.3v-1.6l2-1l2.7,1l1-2.2l-1.7-3.2l3.4-2.5v-3.8l3.1-1.3l-1.4-5.7l-0.7-1.6l-2.7-0.6l-2.4,2.2l-2.4-1.3
		l1.4-2.5l1.4,1l8.1-8h0.3h1.7l-1.7-2.5l1-1l0.3-6.4l3.7-1l-1,1.9l2,1.3l5.1-3.2l-0.3-1.6l0.7-1.6l-3.4-3.2v6l-1.7-1.9l-3.7,0.3
		v-2.2l-1,2.2l-1-1.6l1.4-4.1h1.4l0.3,3.5l1-3.2l3.7-1.6l-2.4-4.1l-0.7,1.9l-1.4-1l0.7-2.5l2.7-6l3.7,0.6l1-1.9l-2.7-2.2l0.3-3.5
		l-1.4-1l1.4-4.1l3.4-1.9l1.4-0.6l-0.3-2.5v-0.3v-1.6l0.3-1l-3-1.3l-1.7,1.3l-3.4-3.2l-0.7-3.5l3-1.3l0.7-1.9l-3-3.2l1.4-1.6
		l-0.7-2.5l-3-1l7.1-1.3l2.7,1l0.7-1.3l6.1-0.3l3.7-1.9h4.1l1.7-1l9.1-3.5l5.8,1.6l0.3,1.3l1.4-1.3l4.7,3.5l5.1-2.5l7.8,3.8
		l-2.4,2.2v0.3l-2.7,3.8v0.3l-1,1l-0.3,2.2v0.3l-1.3,1.9l1.7,2.9l2.7-1.3v0.3l0.7,5.1l1.7,0.3l-0.3,2.9l-4.4,0.3l-1.7,2.5l-2.4,0.3
		l-1.4-1.9l1.3-2.2l-1-1.6l1.4-0.3l-6.4-1.3l0.3,4.1l3.7-0.6l2,5.4v1l4.1-0.6l1,1.9l3.4,1.3l4.7-1.6l1.4,3.8l4.1,1.9l2.4-3.2
		l6.4-0.6l0.7,2.2l2.4-1.6l0.7-1.6h0.3l0.3-0.3l1-0.3l2-0.3l2.7,1.3l2.7-1v0.3l1,0.3l2.4,1.6l1,1.9v0.3l-1,3.5l3.4-2.2h0.3l3.7-1.3
		h1.7v0.3l2.7,0.6l0.7,2.2h3l-0.7,2.2l2,3.8l3.1,2.2l3.4-2.5l1.7-0.3l2.7,0.3l0.7,1.6h0.3v-0.3h0.3l1.4,1.9l-2.4,1.3l3.4,4.1
		l-1.3,1.9l0.7,3.8l-4.7,1.6l3.1,1.9l-2,2.9l-6.1-0.6l-0.7,1.6l2,1.9l-0.3,2.5l3.1,0.3l0.3,0.3l2.4,1.6l0.4,2.9l-5.4,4.8l-2,0.3
		v-0.3l-3.7-0.6l-3.4,4.1l-1.4,0.3l-1-2.2l-4.7-1l-1.7,1.6l0.7,4.8l3.4,9.9l12.5,0.6l1,2.9l2,1l2.4-1l-0.3,2.2l7.1,3.5l3.1,7.7
		l13.9-1.9l1.7-2.6l2.4-0.6l3.7,1.6v-1.3l2,0.6l12.2,1.3l-1,1.6v0.3l0.7,5.1l-2.4,4.1l3.1,5.4v0.3l-20.7,8.9h-0.3l-25.8,11.5
		l-14.9,11.2l-15.6,6.1l-12.5,19.8l-1,1.3l1.7-5.4l-2.4,5.4l-3.1,1.3L335,433l2-2.6l-1,4.2l-5.4,6.4l-13.9,4.8l-12.9,0.3l-12.6,5.8
		l-6.5-0.3l-3.7,2.6L259.2,459.6z M268.7,322.6l2,0.6l0.7-1.3l-2.7-1V322.6z M315.7,277.1l1.7-0.6l-1.4-1.6l-2.7,1.3l-0.3,1v0.3
		l0.7,2.2l1.7-0.3L315.7,277.1z"/>
</g>
</svg>
