<?xml version="1.0" encoding="utf-8"?>
<!-- Generator: Adobe Illustrator 24.0.1, SVG Export Plug-In . SVG Version: 6.00 Build 0)  -->
<svg version="1.1" id="graphic" xmlns="http://www.w3.org/2000/svg" xmlns:xlink="http://www.w3.org/1999/xlink" x="0px" y="0px"
	 viewBox="0 0 562.5 673.9" style="enable-background:new 0 0 562.5 673.9;" xml:space="preserve">
<style type="text/css">
	.st0{fill:#003366;}
	.st1{font-family:'OpenSans-Bold';}
	.st2{font-size:11px;}
	.st3{fill:#E3F1F3;}
	.st4{fill:#E0F3F4;}
	.st5{fill:#E5F8F8;}
	.st6{fill:#E9F9F9;}
	.st7{fill:#CBF4F4;}
	.st8{font-family:'OpenSans-SemiBold';}
	.st9{font-size:8px;}
	.st10{font-size:14px;}
	.st11{fill:#6685A3;}
	.st12{font-family:'OpenSans-Light';}
	.st13{font-size:9px;}
	.st14{font-size:7px;}
	.st15{fill:#66E0E0;stroke:#FFFFFF;stroke-width:0.6;}
	.st16{fill:#297997;stroke:#FFFFFF;stroke-width:0.6;}
	.st17{fill:#0B4573;stroke:#FFFFFF;stroke-width:0.6;}
	.st18{fill:#003366;stroke:#FFFFFF;stroke-width:0.6;}
</style>
<text transform="matrix(1 0 0 1 340.17 158.452)" class="st0 st1 st2">GIRONA</text>
<text transform="matrix(1 0 0 1 41.082 208.5151)" class="st0 st1 st2">LLEIDA</text>
<path class="st3" d="M208.3,366.1c1.4,1.6,0.3,1.8-1,1.9C206.4,366.9,208.2,366.9,208.3,366.1z"/>
<path class="st4" d="M250.9,452.3c-0.1-0.9-0.5-1.8,0.5-2.4c0.5,0.3,0.9-1.6,1.3,0c0.1,0.5,1.1,1.6-0.4,1.6
	C251.5,451.3,251.4,452,250.9,452.3z"/>
<path class="st5" d="M355.8,266.5c0-0.2,0-0.5-0.1-0.7c0.8-1.7,2.2-1,3.5-1.2C358.4,265.8,356.7,265.3,355.8,266.5z"/>
<path class="st6" d="M364.9,264.5c0.9,0.5,1,1.4,1.2,2.2C364.6,266.8,364.4,265.8,364.9,264.5z"/>
<path class="st7" d="M351.1,261.7V261c0.9,0.4,2.1-0.5,2.8,0.7H351.1z"/>
<text transform="matrix(1 0 0 1 41.082 225.321)" class="st0 st8 st9">Ocupació:  </text>
<text transform="matrix(1 0 0 1 41.082 234.921)" class="st0 st8 st9">37,4% (+3,2 pp)</text>
<text transform="matrix(1 0 0 1 41.082 249.141)" class="st0 st8 st9">Viatgers:</text>
<text transform="matrix(1 0 0 1 41.082 258.741)" class="st0 st8 st9">13.612 (+31,8%)</text>
<text transform="matrix(1 0 0 1 41.082 271.321)" class="st0 st8 st9">Pernoctacions:</text>
<text transform="matrix(1 0 0 1 41.082 280.921)" class="st0 st8 st9">34.919 (-34,4%)  </text>
<text transform="matrix(1 0 0 1 340.1701 175.718)" class="st0 st8 st9">Ocupació:  21,9% (-5,5 pp)   </text>
<text transform="matrix(1 0 0 1 340.1701 189.378)" class="st0 st8 st9">Viatgers: 88.322 (-19,2%)</text>
<text transform="matrix(1 0 0 1 340.1702 204.092)" class="st0 st8 st9">Pernoctacions: 246.003 (-43,1%)</text>
<text transform="matrix(1 0 0 1 379.3 447.582)" class="st0 st1 st2">ENTORN DE BARCELONA</text>
<text transform="matrix(1 0 0 1 379.3002 464.474)" class="st0 st8 st9">Ocupació: 39,2% (-5,8 pp)</text>
<text transform="matrix(1 0 0 1 379.3002 478.124)" class="st0 st8 st9">Viatgers: 54.456 (-35,2%)</text>
<text transform="matrix(1 0 0 1 379.3002 492.314)" class="st0 st8 st9">Pernoctacions: 148.062 (-37,6%)</text>
<text transform="matrix(1 0 0 1 175.81 537.652)" class="st0 st1 st2">TARRAGONA</text>
<text transform="matrix(1 0 0 1 175.8099 554.16)" class="st0 st8 st9">Ocupació: 32,2% (-5,5 pp)</text>
<text transform="matrix(1 0 0 1 175.8099 567.81)" class="st0 st8 st9">Viatgers: 105.123 (+3,1%)</text>
<text transform="matrix(1 0 0 1 175.8099 582)" class="st0 st8 st9">Pernoctacions: 325.111 (-34,4%)</text>
<text transform="matrix(1 0 0 1 256.7802 35.538)" class="st0 st8 st10">Càmpings</text>
<text transform="matrix(1 0 0 1 63.4518 53.434)" class="st11 st12 st13">Lleida, tal i com ja passava a l’abril és, de nou la província amb uns millors resultats de les àrees territorials  </text>
<text transform="matrix(1 0 0 1 57.2518 64.234)" class="st11 st12 st13">analitzades, seguida en menor mesura per Tarragona. De fet, l’ocupació de Lleida al maig del 2021 és 3 punts  </text>
<text transform="matrix(1 0 0 1 214.8518 75.034)" class="st11 st12 st13">superiors a l’ocupació del 2019.</text>
<text transform="matrix(1 0 0 1 175.8098 95.914)" class="st11 st12 st13"> Entre parèntesis, variació interanual respecte a l’any 2019 </text>
<text transform="matrix(1 0 0 1 23.1692 645.4676)" class="st11 st8 st14">Font: Elaboració pròpia del LABTurisme en base a dades de l’Enquesta d’ocupació en allotjaments de l’INE</text>
<text transform="matrix(1 0 0 1 23.1693 654.4275)" class="st11 st8 st14">Nota: Les variacions 21/20 estan disponibles, tant sols, per algunes províncies i algunes tipologies d’allotjament. La resta no són calculables (nc) degut  </text>
<text transform="matrix(1 0 0 1 23.1693 662.8275)" class="st11 st8 st14">a que les dades de 2020 són “0” o prop de “0”  pel tancament forçós arrel de la crisi sanitària de la COVID-19.</text>
<g id="regions-layer">
	<path class="st15" d="M328.2,287.4v-0.3l0.3-1l2.8-1.3l1.4,1.6L331,287l-0.3,2.3l-1.7,0.3L328.2,287.4z M323.2,215.1l1-2.6h2.1
		l1,1.6l-1.7,3.2l4.1,4.2l-8.3-1l0.3-5.2L323.2,215.1z M526.2,253.1l-0.3-0.3l0.3-0.3h0.3v0.6H526.2z M515.5,302.3l-0.3-0.3
		l-0.3-0.3v-0.3l1-0.3L515.5,302.3z M378.7,339.9L378,335l1.7-1.6l4.8,1l1,2.3l1.4-0.3l3.4-4.2l3.8,0.6v0.3l2.1-0.3l5.5-4.9
		l-0.4-2.9l-2.4-1.6l-0.3-0.3l-3.1-0.3l0.3-2.6l-2.1-1.9l0.7-1.6l6.2,0.6l2.1-2.9l-3.1-1.9l4.8-1.6l-0.7-3.9l1.4-1.9l-3.5-4.2
		l2.4-1.3l-1.4-1.9h-0.3v0.3H402l-0.7-1.6l-2.8-0.3l-1.7,0.3l-3.4,2.6l-3.1-2.3l-2.1-3.9l0.7-2.3h-3.1l-0.7-2.3l-2.8-0.6v-0.3h-1.7
		l-3.8,1.3h-0.3l-3.4,2.3l1-3.6V287l-1-1.9l-2.4-1.6l-1-0.3v-0.3l-2.8,1l-2.8-1.3l-2.1,0.3l-1,0.3l-0.3,0.3h-0.3l-0.7,1.6l-2.4,1.6
		l-0.7-2.3l-6.5,0.6l-2.4,3.2l-4.1-1.9l-1.4-3.9l-4.8,1.6l-3.5-1.3l-1-1.9l-4.1,0.6v-1l-2.1-5.5l-3.8,0.6l-0.4-4.2l6.6,1.3l-1.4,0.3
		l1,1.6l-1.4,2.3l1.4,1.9l2.4-0.3l1.7-2.6l4.5-0.3l0.3-2.9l-1.7-0.3l-0.7-5.2v-0.3l-2.8,1.3l-1.7-2.9l1.4-1.9V263l0.3-2.3l1-1v-0.3
		l2.7-3.9v-0.3l2.4-2.3l-7.9-3.9l-5.2,2.6l-4.8-3.6l-1.4,1.3l-0.3-1.3l-5.9-1.6l-9.3,3.6l-1-9.7l3.1-2.9l-4.1-2.6l-3.1,2.6l-1.4-1.6
		l1.4-8.1l-2.1-2.6l-3.8,0.3l-5.9-2.3l-1.4-9.3l1-1l14.5,1l10,7.7l4.8,0.3l2.4-1.6l0.7,5.2l2.8,1l0.7,8.4l3.8,4.5l4.1,2.3l2.4-1.9
		l8.3-1l1-2.6l3.4-1.3v-2.6l3.4-4.2l2.8-1.3l7.9,1l7.6-4.2l6.2,3.2l2.4-1.3l8.3,5.5l10.3,1.6l0.4,3.9l2.8,0.6l3.8,5.8l3.4-0.3
		l3.5,1.9h2.8l1.7-4.2l2.8-0.6l15.2,3.6l1-2.9l-2.1-1.6l-1.7-5.2h3.1l0.7-3.5l10.3-3.9l5.2,2.6l3.4-1.6l2.4-3.9l1.7,0.3l2-4.2l3.1,1
		l1-2.6l2.8,1.6l5.9,0.3l1-3.2l2.7-1.3l2.8,2.9l4.5-1.6l2.8,1.6l4.1-1.6l2.4,5.5l4.5,4.2l5.5-2.3l7.9,0.3l-0.3,0.6l-1.7,0.6l1,0.6
		l0.3,0.3v0.3v0.3v0.3v0.3l-0.3,0.6H506v0.3v0.3h-0.3l-1,1.3l1.4,0.6v0.3l-0.3,0.3h-0.3l-1,1.3h0.3v0.3h1.4h0.3v0.3l-1.7,1.9l0.4,1
		h0.3l1,0.6v0.3v0.3v0.3h-0.3l-0.3,0.3l0.3,0.3l1,1.3l0.7,0.3l0.3,0.3h0.7l0.7,0.6l-0.3,1l0.7,0.6l0.3,0.6l1.4,0.6l0.7-2.6l1,0.3
		l0.7-0.6h0.3h2.4l0.7,1v1h0.3v0.3l1.4,1.3l1.4-0.6h0.3v-0.3v-0.6l1.4,0.3l1,0.3h0.3v0.6l0.7,0.3h0.3l1.7,0.6v0.3h0.3h0.7h0.3
		l0.7,1.3v-1l0.3,0.3l1,0.3l0.3,0.3v0.3l-0.7,0.6v0.3h-0.3l-0.3-0.3l-0.3,0.6H528l-1.4,1.3v0.3l-1-0.3h-0.3l-0.3,0.3l0.3,0.3h0.3
		v0.3v0.3l-0.3,0.3l-0.7,1.3h1l0.3,0.3h0.3v0.3v0.6v0.3l-1,0.3h-0.3h-0.3l-1.4-1.3l0.4,2.3l0.3,0.6l-0.3,4.2l-3.8,0.3l1.4,2.6v0.3
		l-3.1-2.6h-2.4l0.4,1l-0.3,0.3l-1,1.9l-3.5-1.9l-2.8-0.6l-1.1-3.6H505l-5.1,5.5l-2,6.1l1.8,13.9h0.3v0.6v0.3v0.3l1.7,0.6v0.3
		l0.4,1.9l2.8-0.3l1,0.3l0.7,0.3l1.4,0.3l-0.7,1.6l1,0.3l1,0.3v0.3h0.3l1.4,2.9l1.4,2.3l0.7,1.6v0.3v0.3l0.3,0.6v0.6v0.3h-0.3v0.3
		l-1.7,0.3l-0.6,6.8l2.5,8.7h1.4v-0.3h0.3l0.7,0.3v0.3v0.3h0.3h0.3v0.3v1l0.4,1v-0.6h0.3l-0.3,0.6v0.3h-0.3v0.3v0.3l-0.3,1v0.3H516
		v0.3l-0.3,0.3h-0.3l-0.3,0.3v0.6h-0.3v0.3l-0.3,0.3h0.3l0.3,0.3l-0.3,1l0.3,0.6v0.3h-0.3l0.3,0.6h-0.3v0.6l-1.4,1l0.4,1h-0.3v0.3
		h0.3v0.3v0.3v0.3l-0.7,0.3v0.3v0.3v0.3h-0.3l-0.7,0.6h-0.7h-0.3l0.3,0.3l-0.3,0.3l-0.3,0.3h-0.3h-0.7v0.3v0.3v0.3v0.3h-0.3
		l-0.3,0.3v0.3l0.3,0.3l-0.3,0.6v0.3v0.3v0.3l-1,1h-0.3h-0.3l-0.3,0.3H507v0.3l-1.4-0.3h-0.3l-0.7,0.6l-0.7,0.6v1.3h-0.3h-0.3
		l-1.4,1.6l-2.4-1.6l-3.1,2.3v0.3v0.3v0.3h-0.3l-0.7,1h-0.3v0.3h-0.3v0.3h-0.3v0.3h-0.3l-2.7,5.8v0.3l-0.3,1H490h-1.4v0.3v0.3
		l0.3,0.3l-0.7,0.6l-0.3,0.3h-1.7l0.4,1v0.3h-0.7l-3.8,0.6v0.3l-0.3,0.3l-2.8,1l-0.3,0.3L478,360v0.3v0.3h-0.7l-0.7,1.3l-0.3,0.3
		l-0.7,1h-0.3l-0.7,1.9l-0.7,0.3l-0.7,0.6h-0.3l-0.3,1l-4.1,2.6l-2.4,1h-0.3l-1.4,0.3l-2.4,0.3v0.3h-0.7h-0.7l-2.4,0.6l-0.3,0.3
		h-0.3L457,373l-1.7,0.3H455l-0.3,0.3h-0.3l-0.7,1.3h-0.3l-1,1v0.3l-0.7,0.3l-1.7,0.6l-2.1,3.9l-3.1-5.5l2.4-4.2l-0.7-5.2v-0.3
		l1-1.6l-12.4-1.3l-2.1-0.6v1.3l-3.8-1.6l-2.4,0.6l-1.7,2.6l-14.2,1.9l-3.1-7.8l-7.3-3.6l0.3-2.3l-2.4,1l-2.1-1l-1-2.9l-12.8-0.6
		L378.7,339.9z"/>
	<path class="st16" d="M98.9,609.6l-12.2-5.3l-0.7-3.6l1.8-2.6l-5.9-3l-0.3-2l-10.1-1l-8.7-3.9l-2.4-3.9l0.4-2.6l3.9-5.3l-4.8-4.3
		l-3.8,1l-1.7-6.2l-4.2,1.6l-4.2-1.6l-1-2l-0.7-1.3l2.4,1.6v-3l2.1,1l3.5-3.6l2.4,0.3l1.4-4.6l6.3-6.9l-2.8-3.9l-0.3-1l-0.3-5.6
		l-2.4-2l8.4-18h-1.7V515l-2.1-2.6l1-1l-2.4-1.3l0.4-1.6l2.8-0.3l-2.8-1l-2.1-2.9l-2.4,1.3V503l-2.4,0.3l2.1-1.3l-1.7-1.6l0.4-2.3
		l-0.7-2.6H51l1.4-6.5l-1.4-1.3l3.1-2l-1-0.7l5.2,1.3l0.7-4.2l3.5,0.3l4.5-2.9l2.1-11.1l3.5-2.6l2.8,1.3l0.7-2.3h2.8l-1-2.6l1.8-5.9
		L87,457l0.4-9.1l4.2-2.9l6.5,9.1h3.5l4.2-7.5l4.2,1.3l3.4,5.5l3.5,0.3l5.9-2.9l0.7-0.7h0.3h0.7l11.8-1.6l1.7-3.6l2.4,0.7h1h1v0.3
		l3.8,0.7l0.7-1.3l0.3-1l0.7-3.9l1.7-1l3.8,4.9l13.5-2.9l2.1-0.7l-0.3-2.3l2.8-4.9l1.7,0.7l1.4-3.3l4.2-1l2.8-5.5l1.4-1.3l0.3-0.3
		l2.1-2l0.7-1l-2.1-1.3l-3.8-2.9l1.4-0.7l-1-3.6l10.4,5.5v1.3l11.1-3.9l-2.4-5.2l1.7-3.6l-1.7-1l1.4,0.7l-0.7-1.6l6.9-2l0.4-3.6
		l4.8-0.3l8.6-0.3l15.6,2.6l-1.7-3.6l4.5-1.3l4.8,2.6l-3.5,2.6l0.3,1.3l2.1-0.7l0.3,3.3l-6.2,0.3l-1.7,4.6l7.6,3.6l0.7,1.6h3.5
		l1.7,3.3h0.3l-2.8,5.2l0.7,1.6l2.8,0.3l-2.4,1.3l1,1.6l1,4.2l-2.4,3.6l5.2-2.6l4.8,2l2.1,3.3h2.8l1,2.3h0.3l-3.1,2.6l2.1,5.5
		l3.5,1.3l-0.7,3.3l3.5,2l0.3-1.6l3.5-0.7l-1.4,0.3l-1,8.2l-8-1.3l1,3.6l7.3,3.9l2.4-2.3l1,4.6l-0.3,3.3l-20.4,3.6l-6.9,2.3
		l-11.1,7.2l-5.2,0.3l-10.1,0.3l-7.3,3.9l-3.5,4.2l3.5-4.2l-2.8,1.6l-2.8-0.7l-3.5,3.3l-2.8,6.5H199l-2.4-3.3l-3.8-0.7l-5.9,2.6
		l-5.5-0.3l-10.1,5.2l-6.6,6.5l-0.7,2.6l-5.6,3.3l-5.9,6.2l-10.1,15.7l-6.6,4.3l-1.4,4.6l-6.6,3.9l1,3.6l4.5,4.3l6.9-0.3v-1.3
		l-7.6-2.3l0.7-1.3l3.8-0.3l3.1,2l8.3,10.8l3.8-1l3.1,2l-1.4,6.2l-6.6,5.2l-10.1,4.9L124.7,601l-10.1,2.3l-3.1-3l-0.3-2.3l3.1,0.3
		h0.3h-0.3l0.4-1.6l2.4,0.7v0.3v0.3l0.3,0.3l1,0.3l0.7,0.3h0.3l0.3-0.3v-0.3v-0.7h0.7v-0.3V597l0.7-1.6l8.3-0.3l4.2-6.6l0.7-2.3h-1
		l-0.3-0.3h-0.3l-20.5,3.3l-9.8,11.2L98.9,609.6z"/>
	<path class="st17" d="M283.1,333.4v-1.6l2.8,1l-0.7,1.3L283.1,333.4z M181.4,424.4l-2.8,5.5l-4.2,1l-1.4,3.3l-1.7-0.7l-2.8,4.9
		l0.3,2.3l-2.1,0.7l-13.5,2.9l-3.8-4.9l-1.7,1l-0.7,3.9l-0.3,1l-0.7,1.3l-3.8-0.7v-0.3h-1h-1l-2.4-0.7l-1.7,3.6l-11.8,1.6h-0.7h-0.3
		l-0.7,0.7l-5.9,2.9l-3.5-0.3l-3.4-5.5l-4.2-1.3l-4.2,7.5h-3.5l-6.5-9.1l-4.2,2.9l-0.4,9.1l-7.3-0.7l-3.1-5.2l0.7-2.9l-3.1-1.6
		l3.8-5.2l-1.7-3.3l-6.6-5.2l2.4-2.6l3.2-9.1l-1.7-1.6l-0.3-4.6l6.6-0.3l2.8-2l6.6-10.7l-2.4-3.3l-0.3-7.5l-3.8,1.6l-8.3-1.3
		l-0.3-4.6l1.7-2l-4.8-5.9v-3.2l6.6-7.5l2.4-5.2l1.4,1.6l0.7-5.2l11.1-1.6l1.8-6.8l5.2-4.5l4.1,0.6l1.8-6.5l4.1,0.3v-2.6l4.1-1.6
		l-2.4-2.6l1.4-4.9l-1-1.3l2.1-0.6l-6.9-2.9v-1.3l4.5-5.8l1.7,1.6l3.1-6.5l2.4-0.3l0.3,2.3l0.7-2.9l1.7-0.6l1-2.9l-1.4-0.6v-3.6
		l2.4-1.9l-0.3-2.9l4.9-9.1l-0.7-9.4l2.8-1.9l-1.7-1.3v-4.2l1.7-6.8l3.1-4.8l1.8-10.7l3.1-4.2l-3.4-1v-1.9l4.5-2.9L132,238l3.5-3.9
		l-8.2-19.7l1.4-2.3l2.1,1.3l4.1-3.2l-3.1-1.6v-2.3l0.7-1.6l3.8-0.6l-1.4-1.6l4.2-12.2V189l-3.4-0.6l-5.8-1.3l-1.7-7.4l-3.1-3.5
		l-2.4-2.9h2.4l1-2.9l-3.1-9.3l-3.1-0.3l3.8-4.5l-3.1-1.6l3.8-3.5l-1.7-7.4l3.1-1.9l-0.3-1.3l4.5-1.3l10.6,5.1l3.1-1l9.3,2.9
		l10.3,7.4l5.8-3.2l2.7,3.5h7.9l1.7,1.3l4.5-0.3l0.7-1.3l7.9,6.7l0.7,5.5l4.8,3.9l10.3-3.9l3.1,2.6l11-1.9l4.8,1l-0.7,3.9l5.8,2.6
		L234,178l3.8,2.3l1,6.4l3.4,4.2l-2.4,4.5l2.8,2.6l-2.8,1.6l-2.1,4.8l4.8-1.6l3.8,6.8l-7.6,4.5l3.1,1.9l0.3,6.8l2.1,1.6L259,225
		l1-5.2l3.4,1.6l1.4-2.9l10.3-0.6l1.7-7.4l2.1,2.3l3.4,0.6l3.1-2.9l0.7,2.6l-1,1l1.4,9.3l5.9,2.3l3.8-0.3l2.1,2.6l-1.4,8.1l1.4,1.6
		l3.1-2.6l4.1,2.6l-3.1,2.9l1,9.7l-1.7,1h-4.1l-3.8,1.9l-6.2,0.3l-0.7,1.3l-2.8-1l-7.2,1.3l3.1,1l0.7,2.6l-1.4,1.6l3.1,3.2l-0.7,1.9
		l-3.1,1.3l0.7,3.6l3.4,3.2l1.7-1.3l3.1,1.3l-0.3,1v1.6v0.3l0.3,2.6l-1.4,0.6l-3.4,1.9l-1.4,4.2l1.4,1l-0.3,3.6l2.8,2.3l-1,1.9
		l-3.8-0.6l-2.8,6.1l-0.7,2.6l1.4,1l0.7-1.9l2.4,4.2l-3.8,1.6l-1,3.2l-0.3-3.6h-1.4l-1.4,4.2l1,1.6l1-2.3v2.3l3.8-0.3l1.7,1.9v-6.2
		l3.5,3.2l-0.7,1.6l0.3,1.6l-5.2,3.2l-2.1-1.3l1-1.9l-3.8,1l-0.3,6.5l-1,1l1.7,2.6h-1.7h-0.3l-8.3,8.1l-1.4-1l-1.4,2.6l2.4,1.3
		l2.4-2.3l2.8,0.6l0.7,1.6l1.4,5.8l-3.1,1.3v3.9l-3.5,2.6l1.7,3.2l-1,2.3l-2.8-1l-2.1,1v1.6l-2.1-0.3l-0.3,2.9l-2.4,1v-2.6l-1-0.3
		l-1.7-1l-0.3-0.3v-0.3l-0.3-0.3l-0.3-2.6H249l-1,3.6v-0.3l-1.4,0.3v-5.8l-1.7,0.3h-1.4l-3.8-0.6l-1.4,1.3l-2.1,10.1l3.1,2.6
		l-6.2,5.2l2.4,0.3l-0.7,1.9l1.4,1.9l3.1,0.3l-1.4,1.9l3.8,5.2v0.3h1.7v1.3l-3.1,2.3l-5.5-1.3l-5.2,4.2l7.3,2.9l-2.4,4.9l1.7,3.6
		l-15.6-2.6l-8.6,0.3l-4.8,0.3l-0.4,3.6l-6.9,2l0.7,1.6l-1.4-0.7l1.7,1l-1.7,3.6l2.4,5.2l-11.1,3.9v-1.3l-10.4-5.5l1,3.6l-1.4,0.7
		l3.8,2.9l2.1,1.3l-0.7,1l-2.1,2l-0.3,0.3L181.4,424.4z M280.6,288.7l-3.1-0.6l-4.1,0.3l4.1,1.9h3.1V288.7z"/>
	<path class="st18" d="M277.5,288.1l3.1,0.6v1.6h-3.1l-4.1-1.9L277.5,288.1z M273.5,473l0.3-3.3l-1-4.6l-2.4,2.3l-7.3-3.9l-1-3.6
		l8,1.3l1-8.2l1.4-0.3l-3.5,0.7l-0.3,1.6l-3.5-2l0.7-3.3l-3.5-1.3l-2.1-5.5l3.1-2.6h-0.3l-1-2.3h-2.8l-2.1-3.3l-4.8-2l-5.2,2.6
		l2.4-3.6l-1-4.2l-1-1.6l2.4-1.3l-2.8-0.3l-0.7-1.6l2.8-5.2H249l-1.7-3.3h-3.5l-0.7-1.6l-7.6-3.6l1.7-4.6l6.2-0.3L243,401l-2.1,0.7
		l-0.3-1.3l3.5-2.6l-4.8-2.6l-4.5,1.3l2.4-4.9l-7.3-2.9l5.2-4.2l5.5,1.3l3.1-2.3v-1.3H242v-0.3l-3.8-5.2l1.4-1.9l-3.1-0.3l-1.4-1.9
		l0.7-1.9l-2.4-0.3l6.2-5.2l-3.1-2.6l2.1-10.1l1.4-1.3l3.8,0.6h1.4l1.7-0.3v5.8l1.4-0.3v0.3l1-3.6h2.8l0.3,2.6l0.3,0.3v0.3l0.3,0.3
		l1.7,1l1,0.3v2.6l2.4-1l0.3-2.9l2.1,0.3v-1.6l2.1-1l2.8,1l1-2.3l-1.7-3.2l3.5-2.6v-3.9l3.1-1.3l-1.4-5.8l-0.7-1.6l-2.8-0.6
		l-2.4,2.3l-2.4-1.3l1.4-2.6l1.4,1l8.3-8.1h0.3h1.7l-1.7-2.6l1-1l0.3-6.5l3.8-1l-1,1.9l2.1,1.3l5.2-3.2l-0.3-1.6l0.7-1.6l-3.5-3.2
		v6.2l-1.7-1.9l-3.8,0.3v-2.3l-1,2.3l-1-1.6l1.4-4.2h1.4l0.3,3.6l1-3.2l3.8-1.6l-2.4-4.2l-0.7,1.9l-1.4-1l0.7-2.6l2.8-6.1l3.8,0.6
		l1-1.9l-2.8-2.3l0.3-3.6l-1.4-1l1.4-4.2l3.4-1.9l1.4-0.6l-0.3-2.6v-0.3v-1.6l0.3-1l-3.1-1.3l-1.7,1.3l-3.4-3.2l-0.7-3.6l3.1-1.3
		l0.7-1.9l-3.1-3.2l1.4-1.6l-0.7-2.6l-3.1-1l7.2-1.3l2.8,1l0.7-1.3l6.2-0.3l3.8-1.9h4.1l1.7-1l9.3-3.6l5.9,1.6l0.3,1.3l1.4-1.3
		l4.8,3.6l5.2-2.6l7.9,3.9l-2.4,2.3v0.3l-2.7,3.9v0.3l-1,1l-0.3,2.3v0.3l-1.4,1.9l1.7,2.9l2.8-1.3v0.3l0.7,5.2l1.7,0.3l-0.3,2.9
		l-4.5,0.3l-1.7,2.6l-2.4,0.3l-1.4-1.9l1.4-2.3l-1-1.6l1.4-0.3l-6.6-1.3l0.4,4.2l3.8-0.6l2.1,5.5v1l4.1-0.6l1,1.9l3.5,1.3l4.8-1.6
		l1.4,3.9l4.1,1.9l2.4-3.2l6.5-0.6l0.7,2.3l2.4-1.6l0.7-1.6h0.3l0.3-0.3l1-0.3l2.1-0.3l2.8,1.3l2.8-1v0.3l1,0.3l2.4,1.6l1,1.9v0.3
		l-1,3.6l3.4-2.3h0.3l3.8-1.3h1.7v0.3l2.8,0.6l0.7,2.3h3.1l-0.7,2.3l2.1,3.9l3.1,2.3l3.4-2.6l1.7-0.3l2.8,0.3l0.7,1.6h0.3v-0.3h0.3
		l1.4,1.9l-2.4,1.3l3.5,4.2l-1.4,1.9l0.7,3.9l-4.8,1.6l3.1,1.9l-2.1,2.9l-6.2-0.6l-0.7,1.6l2.1,1.9l-0.3,2.6l3.1,0.3l0.3,0.3
		l2.4,1.6l0.4,2.9l-5.5,4.9l-2.1,0.3v-0.3l-3.8-0.6l-3.4,4.2l-1.4,0.3l-1-2.3l-4.8-1L378,335l0.7,4.9l3.5,10.1l12.8,0.6l1,2.9l2.1,1
		l2.4-1l-0.3,2.3l7.3,3.6l3.1,7.8l14.2-1.9l1.7-2.6l2.4-0.6l3.8,1.6v-1.3l2.1,0.6l12.4,1.3l-1,1.6v0.3l0.7,5.2l-2.4,4.2l3.1,5.5v0.3
		l-21,9.1h-0.3l-26.2,11.7l-15.2,11.4l-15.9,6.2L356.2,440l-1,1.3l1.7-5.5l-2.4,5.5l-3.1,1.3l-0.7,3.3l2.1-2.6l-1,4.2l-5.5,6.5
		l-14.3,5l-13.2,0.3l-12.8,5.9l-6.6-0.3l-3.8,2.6L273.5,473z M283.1,333.4l2.1,0.6l0.7-1.3l-2.8-1L283.1,333.4z M331,287.1l1.7-0.6
		l-1.4-1.6l-2.8,1.3l-0.3,1v0.3l0.7,2.3l1.7-0.3L331,287.1z"/>
</g>
<image style="overflow:visible;enable-background:new    ;" width="264" height="40" xlink:href="FDFA5C64.png"  transform="matrix(0.6043 0 0 0.6043 210.2751 106.0604)">
</image>
</svg>
