<svg xmlns="http://www.w3.org/2000/svg" viewBox="0 0 43.06 82.73"><defs><style>.cls-1,.cls-2{fill:none;stroke:#036;stroke-miterlimit:10;stroke-width:3px;}.cls-2{stroke-linecap:round;}.cls-3{fill:#036;}</style></defs><g id="Capa_2" data-name="Capa 2"><g id="Colors_1_Blaus_Infos" data-name="Colors 1 Blaus Infos"><rect class="cls-1" x="1.5" y="22.44" width="40.06" height="54.92" rx="3.1"/><line class="cls-2" x1="31.68" y1="65.34" x2="9.78" y2="65.34"/><line class="cls-2" x1="31.68" y1="51.29" x2="9.78" y2="51.29"/><path class="cls-1" d="M41.56,33.22a33.53,33.53,0,0,1-20,6.23A33.31,33.31,0,0,1,1,32.85"/><rect class="cls-3" x="7.55" y="76.28" width="8.96" height="6.45" rx="3.16"/><rect class="cls-3" x="26.55" y="76.28" width="8.96" height="6.45" rx="3.16"/><path class="cls-1" d="M12.53,22.78V4.65A3.16,3.16,0,0,1,15.68,1.5h11.7a3.16,3.16,0,0,1,3.15,3.15V22.78"/><line class="cls-1" x1="30.53" y1="10.4" x2="12.53" y2="10.4"/></g></g></svg>