<?xml version="1.0" encoding="UTF-8"?>
<svg id="Capa_1" xmlns="http://www.w3.org/2000/svg" xmlns:xlink="http://www.w3.org/1999/xlink" version="1.1" viewBox="0 0 83.6 83.6">
  <!-- Generator: Adobe Illustrator 29.3.1, SVG Export Plug-In . SVG Version: 2.1.0 Build 151)  -->
  <defs>
    <style>
      .st0 {
        fill: #a52030;
        stroke: #af2030;
        stroke-miterlimit: 10;
        stroke-width: .5px;
      }

      .st1 {
        fill: none;
        stroke: #a52030;
        stroke-linecap: round;
        stroke-linejoin: round;
        stroke-width: 4.2px;
      }
    </style>
  </defs>
  <path class="st1" d="M-90.7,16.6c-1.3-5.5-1.1-11.2.6-16.6,1.7-5.4,4.8-10.2,9.1-13.9-10.6-2.8-21.8.2-29.6,7.9-7.8,7.6-11,18.8-8.5,29.4,2.5,10.6,10.4,19.1,20.8,22.4,10.4,3.3,21.8.9,30-6.3-5.5-1.4-10.4-4.3-14.4-8.3-3.9-4.1-6.7-9.1-8-14.6h0Z"/>
  <g>
    <g>
      <path class="st0" d="M54.4,57.4h-.3c-1.1,0-2,.9-2,2s.9,2,2,2h.3c1.1,0,2-.9,2-2,0-1.1-.9-2-2-2Z"/>
      <path class="st0" d="M59.2,51.3h-.3c-1.1,0-2,.9-2,2s.9,2,2,2h.3c1.1,0,2-.9,2-2s-.9-2-2-2Z"/>
      <path class="st0" d="M44.8,57.4h-.3c-1.1,0-2,.9-2,2s.9,2,2,2h.3c1.1,0,2-.9,2-2,0-1.1-.9-2-2-2Z"/>
      <path class="st0" d="M49.6,51.3h-.3c-1.1,0-2,.9-2,2s.9,2,2,2h.3c1.1,0,2-.9,2-2s-.9-2-2-2Z"/>
      <path class="st0" d="M73.7,57.4h-.3c-1.1,0-2,.9-2,2s.9,2,2,2h.3c1.1,0,2-.9,2-2s-.9-2-2-2Z"/>
      <path class="st0" d="M64,57.4h-.3c-1.1,0-2,.9-2,2s.9,2,2,2h.3c1.1,0,2-.9,2-2s-.9-2-2-2Z"/>
      <path class="st0" d="M68.9,51.3h-.3c-1.1,0-2,.9-2,2s.9,2,2,2h.3c1.1,0,2-.9,2-2s-.9-2-2-2Z"/>
    </g>
    <path class="st0" d="M81.2,79.7h-5.6c-.7,0-1.3-.6-1.3-1.3v-3.1H10.6v3.1c0,.7-.6,1.3-1.3,1.3H3.7c-.7,0-1.3-.6-1.3-1.3V11.5c0-2.3,1.8-4.1,4.1-4.1s4.1,1.8,4.1,4.1v26.9h.1c.9-.6,1.9-.9,3-.9h12c3.1,0,5.7,2.6,5.7,5.7s-.3,2.1-.8,3h0c0,.1,29.1.1,29.1.1h0c0-.3,0-.4,0-.6,0-.7.6-1.3,1.3-1.3h8.8c.7,0,1.3.6,1.3,1.3s0,.3,0,.5h0c0,.1,7.1.1,7.1.1,2.6,0,4.7,2.1,4.7,4.7v27.4c0,.7-.6,1.3-1.3,1.3ZM76.8,77.1h3v-1.8h-3v1.8ZM5,77.1h3v-1.8h-3v1.8ZM5,72.7h74.9v-6.2h-45.5c-3.1,0-5.6-2.5-5.6-5.6v-12H10.6v3.8c0,.7-.6,1.3-1.3,1.3s-1.3-.6-1.3-1.3V11.5c0-.8-.7-1.5-1.5-1.5s-1.5.7-1.5,1.5c0,0,0,61.2,0,61.2ZM31.4,48.9v12c0,1.6,1.3,3,3,3h45.5v-12.9c0-1.2-.9-2.1-2.1-2.1H31.4ZM13.7,40.1c-1.7,0-3.1,1.4-3.1,3.1s1.4,3.1,3.1,3.1h12c1.7,0,3.1-1.4,3.1-3.1s-1.4-3.1-3.1-3.1h-12Z"/>
  </g>
</svg>