<?xml version="1.0" encoding="utf-8"?>
<!-- Generator: Adobe Illustrator 24.0.1, SVG Export Plug-In . SVG Version: 6.00 Build 0)  -->
<svg version="1.1" id="graphic" xmlns="http://www.w3.org/2000/svg" xmlns:xlink="http://www.w3.org/1999/xlink" x="0px" y="0px"
	 viewBox="0 0 590.1 709.2" style="enable-background:new 0 0 590.1 709.2;" xml:space="preserve">
<style type="text/css">
	.st0{fill:#FFFFFF;}
	.st1{fill:#E3F1F3;}
	.st2{fill:#E0F3F4;}
	.st3{fill:#E5F8F8;}
	.st4{fill:#E9F9F9;}
	.st5{fill:#CBF4F4;}
	.st6{fill:#003366;}
	.st7{font-family:'OpenSans-SemiBold';}
	.st8{font-size:14px;}
	.st9{enable-background:new    ;}
	.st10{fill:#6685A3;}
	.st11{font-family:'OpenSans-Light';}
	.st12{font-size:9px;}
	.st13{font-size:7px;}
	.st14{fill:#53C0C9;stroke:#FFFFFF;stroke-width:0.4755;}
	.st15{fill:#003366;stroke:#FFFFFF;stroke-width:0.4755;}
	.st16{fill:#50BBC6;stroke:#FFFFFF;stroke-width:0.4755;}
	.st17{fill:#66E0E0;stroke:#FFFFFF;stroke-width:0.4755;}
	.st18{fill:url(#SVGID_1_);stroke:#FFFFFF;stroke-width:0.2147;}
	.st19{font-size:8px;}
	.st20{font-family:'OpenSans-Bold';}
	.st21{font-size:11px;}
	.st22{fill:#D8D8D8;stroke:#FFFFFF;stroke-width:0.4755;}
</style>
<rect class="st0" width="590.1" height="712.9"/>
<path class="st1" d="M220.3,420.5c1.4,1.6,0.3,1.8-1,1.9C218.4,421.3,220.2,421.3,220.3,420.5z"/>
<path class="st2" d="M262.9,506.7c-0.1-0.9-0.5-1.8,0.5-2.4c0.5,0.3,0.9-1.6,1.3,0c0.1,0.5,1.1,1.6-0.4,1.6
	C263.5,505.7,263.4,506.4,262.9,506.7z"/>
<path class="st3" d="M367.8,320.9c0-0.2,0-0.5-0.1-0.7c0.8-1.7,2.2-1,3.5-1.2C370.4,320.2,368.7,319.7,367.8,320.9z"/>
<path class="st4" d="M376.9,318.9c0.9,0.5,1,1.4,1.2,2.2C376.6,321.2,376.4,320.2,376.9,318.9z"/>
<path class="st5" d="M363.1,316.1v-0.7c0.9,0.4,2.1-0.5,2.8,0.7H363.1z"/>
<text transform="matrix(1 0 0 1 263.6732 47.9841)" class="st6 st7 st8">Càmpings</text>
<text transform="matrix(1 0 0 1 66.6566 68.1842)" class="st9"><tspan x="0" y="0" class="st10 st11 st12">En càmpings, Girona torna a liderar el rànquing en nombre de viatgers i pernoctacions. A l’entorn de Barcelona ha  </tspan><tspan x="-6.7" y="10.8" class="st10 st11 st12">augmentat l’activitat en un 30%, però encara per sota dels valors de 2019 (-20%). Els càmpings de Lleida són els únics  </tspan><tspan x="125.9" y="21.6" class="st10 st11 st12">que ja han superat inclús els resultats de l’any 2019.</tspan></text>
<text transform="matrix(1 0 0 1 165.4233 114.1197)" class="st10 st7 st12"> Entre parèntesis, variació interanual respecte a l’any 2020 i 2019 </text>
<text transform="matrix(1 0 0 1 22.2615 698.6744)" class="st10 st7 st13">Font: Elaboració pròpia del LABTurisme en base a dades de l’Enquesta d’ocupació en allotjaments de l’INE</text>
<g id="regions-layer">
	<path class="st14" d="M340.2,341.8v-0.3l0.3-1l2.8-1.3l1.4,1.6l-1.7,0.6l-0.3,2.3L341,344L340.2,341.8z M335.2,269.5l1-2.6h2.1
		l1,1.6l-1.7,3.2l4.1,4.2l-8.3-1l0.3-5.2L335.2,269.5z M538.2,307.5l-0.3-0.3l0.3-0.3h0.3v0.6L538.2,307.5L538.2,307.5z
		 M527.5,356.7l-0.3-0.3l-0.3-0.3v-0.3l1-0.3L527.5,356.7z M390.7,394.3l-0.7-4.9l1.7-1.6l4.8,1l1,2.3l1.4-0.3l3.4-4.2l3.8,0.6v0.3
		l2.1-0.3l5.5-4.9l-0.4-2.9l-2.4-1.6l-0.3-0.3l-3.1-0.3l0.3-2.6l-2.1-1.9l0.7-1.6l6.2,0.6l2.1-2.9l-3.1-1.9l4.8-1.6l-0.7-3.9
		l1.4-1.9l-3.5-4.2l2.4-1.3l-1.4-1.9h-0.3v0.3H414l-0.7-1.6l-2.8-0.3l-1.7,0.3l-3.4,2.6l-3.1-2.3l-2.1-3.9l0.7-2.3h-3.1l-0.7-2.3
		l-2.8-0.6v-0.3h-1.7l-3.8,1.3h-0.3l-3.4,2.3l1-3.6v-0.3l-1-1.9l-2.4-1.6l-1-0.3v-0.3l-2.8,1l-2.8-1.3l-2.1,0.3l-1,0.3l-0.3,0.3
		h-0.3l-0.7,1.6l-2.4,1.6l-0.7-2.3l-6.5,0.6l-2.4,3.2l-4.1-1.9l-1.4-3.9l-4.8,1.6l-3.5-1.3l-1-1.9l-4.1,0.6v-1l-2.1-5.5l-3.8,0.6
		l-0.4-4.2l6.6,1.3l-1.4,0.3l1,1.6l-1.4,2.3l1.4,1.9l2.4-0.3l1.7-2.6l4.5-0.3l0.3-2.9l-1.7-0.3l-0.7-5.2v-0.3l-2.8,1.3l-1.7-2.9
		l1.4-1.9v-0.3l0.3-2.3l1-1v-0.3l2.7-3.9v-0.3l2.4-2.3l-7.9-3.9l-5.2,2.6l-4.8-3.6l-1.4,1.3l-0.3-1.3l-5.9-1.6l-9.3,3.6l-1-9.7
		l3.1-2.9l-4.1-2.6l-3.1,2.6l-1.4-1.6l1.4-8.1l-2.1-2.6l-3.8,0.3l-5.9-2.3l-1.4-9.3l1-1l14.5,1l10,7.7l4.8,0.3l2.4-1.6l0.7,5.2
		l2.8,1l0.7,8.4l3.8,4.5l4.1,2.3l2.4-1.9l8.3-1l1-2.6l3.4-1.3v-2.6l3.4-4.2l2.8-1.3l7.9,1l7.6-4.2l6.2,3.2l2.4-1.3l8.3,5.5l10.3,1.6
		l0.4,3.9l2.8,0.6l3.8,5.8l3.4-0.3l3.5,1.9h2.8l1.7-4.2l2.8-0.6l15.2,3.6l1-2.9l-2.1-1.6l-1.7-5.2h3.1l0.7-3.5l10.3-3.9l5.2,2.6
		l3.4-1.6l2.4-3.9l1.7,0.3l2-4.2l3.1,1l1-2.6l2.8,1.6l5.9,0.3l1-3.2l2.7-1.3l2.8,2.9l4.5-1.6l2.8,1.6l4.1-1.6l2.4,5.5l4.5,4.2
		l5.5-2.3l7.9,0.3l-0.3,0.6l-1.7,0.6l1,0.6l0.3,0.3v0.3v0.3v0.3v0.3l-0.3,0.6H518v0.3v0.3h-0.3l-1,1.3l1.4,0.6v0.3l-0.3,0.3h-0.3
		l-1,1.3h0.3v0.3h1.4h0.3v0.3l-1.7,1.9l0.4,1h0.3l1,0.6v0.3v0.3v0.3h-0.3l-0.3,0.3l0.3,0.3l1,1.3l0.7,0.3l0.3,0.3h0.7l0.7,0.6
		l-0.3,1l0.7,0.6l0.3,0.6l1.4,0.6l0.7-2.6l1,0.3l0.7-0.6h0.3h2.4l0.7,1v1h0.3v0.3l1.4,1.3l1.4-0.6h0.3v-0.3v-0.6l1.4,0.3l1,0.3h0.3
		v0.6l0.7,0.3h0.3l1.7,0.6v0.3h0.3h0.7h0.3l0.7,1.3v-1l0.3,0.3l1,0.3l0.3,0.3v0.3l-0.7,0.6v0.3h-0.3l-0.3-0.3l-0.3,0.6H540l-1.4,1.3
		v0.3l-1-0.3h-0.3l-0.3,0.3l0.3,0.3h0.3v0.3v0.3l-0.3,0.3l-0.7,1.3h1l0.3,0.3h0.3v0.3v0.6v0.3l-1,0.3h-0.3h-0.3l-1.4-1.3l0.4,2.3
		l0.3,0.6l-0.3,4.2l-3.8,0.3l1.4,2.6v0.3l-3.1-2.6h-2.4l0.4,1l-0.3,0.3l-1,1.9l-3.5-1.9l-2.8-0.6l-1.1-3.6H517l-5.1,5.5l-2,6.1
		l1.8,13.9h0.3v0.6v0.3v0.3l1.7,0.6v0.3l0.4,1.9l2.8-0.3l1,0.3l0.7,0.3l1.4,0.3l-0.7,1.6l1,0.3l1,0.3v0.3h0.3l1.4,2.9l1.4,2.3
		l0.7,1.6v0.3v0.3l0.3,0.6v0.6v0.3h-0.3v0.3l-1.7,0.3l-0.6,6.8l2.5,8.7h1.4v-0.3h0.3l0.7,0.3v0.3v0.3h0.3h0.3v0.3v1l0.4,1v-0.6h0.3
		l-0.3,0.6v0.3h-0.3v0.3v0.3l-0.3,1v0.3H528v0.3l-0.3,0.3h-0.3l-0.3,0.3v0.6h-0.3v0.3l-0.3,0.3h0.3l0.3,0.3l-0.3,1l0.3,0.6v0.3h-0.3
		l0.3,0.6h-0.3v0.6l-1.4,1l0.4,1h-0.3v0.3h0.3v0.3v0.3v0.3l-0.7,0.3v0.3v0.3v0.3h-0.3l-0.7,0.6h-0.7h-0.3l0.3,0.3l-0.3,0.3l-0.3,0.3
		h-0.3h-0.7v0.3v0.3v0.3v0.3h-0.3l-0.3,0.3v0.3l0.3,0.3l-0.3,0.6v0.3v0.3v0.3l-1,1h-0.3h-0.3l-0.3,0.3H519v0.3l-1.4-0.3h-0.3
		l-0.7,0.6l-0.7,0.6v1.3h-0.3h-0.3l-1.4,1.6l-2.4-1.6l-3.1,2.3v0.3v0.3v0.3h-0.3l-0.7,1h-0.3v0.3h-0.3v0.3h-0.3v0.3h-0.3l-2.7,5.8
		v0.3l-0.3,1H502h-1.4v0.3v0.3l0.3,0.3l-0.7,0.6l-0.3,0.3h-1.7l0.4,1v0.3h-0.7l-3.8,0.6v0.3l-0.3,0.3l-2.8,1l-0.3,0.3l-0.7,3.7v0.3
		v0.3h-0.7l-0.7,1.3l-0.3,0.3l-0.7,1h-0.3l-0.7,1.9l-0.7,0.3l-0.7,0.6h-0.3l-0.3,1l-4.1,2.6l-2.4,1h-0.3l-1.4,0.3l-2.4,0.3v0.3h-0.7
		h-0.7l-2.4,0.6l-0.3,0.3h-0.3l-0.6,0.6l-1.7,0.3H467l-0.3,0.3h-0.3l-0.7,1.3h-0.3l-1,1v0.3l-0.7,0.3l-1.7,0.6l-2.1,3.9l-3.1-5.5
		l2.4-4.2l-0.7-5.2v-0.3l1-1.6l-12.4-1.3l-2.1-0.6v1.3l-3.8-1.6l-2.4,0.6l-1.7,2.6l-14.2,1.9l-3.1-7.8l-7.3-3.6l0.3-2.3l-2.4,1
		l-2.1-1l-1-2.9l-12.8-0.6L390.7,394.3z"/>
	<path class="st15" d="M110.9,664l-12.2-5.3l-0.7-3.6l1.8-2.6l-5.9-3l-0.3-2l-10.1-1l-8.7-3.9l-2.4-3.9l0.4-2.6l3.9-5.3l-4.8-4.3
		l-3.8,1l-1.7-6.2l-4.2,1.6l-4.2-1.6l-1-2l-0.7-1.3l2.4,1.6v-3l2.1,1l3.5-3.6l2.4,0.3l1.4-4.6l6.3-6.9l-2.8-3.9l-0.3-1l-0.3-5.6
		l-2.4-2l8.4-18h-1.7v-2.9l-2.1-2.6l1-1l-2.4-1.3l0.4-1.6l2.8-0.3l-2.8-1l-2.1-2.9l-2.4,1.3v-2.6l-2.4,0.3l2.1-1.3l-1.7-1.6l0.4-2.3
		l-0.7-2.6H63l1.4-6.5l-1.4-1.3l3.1-2l-1-0.7l5.2,1.3l0.7-4.2l3.5,0.3l4.5-2.9l2.1-11.1l3.5-2.6l2.8,1.3l0.7-2.3h2.8l-1-2.6l1.8-5.9
		l7.3,0.7l0.4-9.1l4.2-2.9l6.5,9.1h3.5l4.2-7.5l4.2,1.3l3.4,5.5l3.5,0.3l5.9-2.9l0.7-0.7h0.3h0.7l11.8-1.6l1.7-3.6l2.4,0.7h1h1v0.3
		l3.8,0.7l0.7-1.3l0.3-1l0.7-3.9l1.7-1l3.8,4.9l13.5-2.9l2.1-0.7l-0.3-2.3l2.8-4.9l1.7,0.7l1.4-3.3l4.2-1l2.8-5.5l1.4-1.3l0.3-0.3
		l2.1-2l0.7-1l-2.1-1.3l-3.8-2.9l1.4-0.7l-1-3.6l10.4,5.5v1.3l11.1-3.9l-2.4-5.2l1.7-3.6l-1.7-1l1.4,0.7l-0.7-1.6l6.9-2l0.4-3.6
		l4.8-0.3l8.6-0.3l15.6,2.6l-1.7-3.6l4.5-1.3l4.8,2.6l-3.5,2.6l0.3,1.3l2.1-0.7l0.3,3.3l-6.2,0.3l-1.7,4.6l7.6,3.6l0.7,1.6h3.5
		l1.7,3.3h0.3l-2.8,5.2l0.7,1.6l2.8,0.3l-2.4,1.3l1,1.6l1,4.2l-2.4,3.6l5.2-2.6l4.8,2l2.1,3.3h2.8l1,2.3h0.3l-3.1,2.6l2.1,5.5
		l3.5,1.3l-0.7,3.3l3.5,2l0.3-1.6l3.5-0.7l-1.4,0.3l-1,8.2l-8-1.3l1,3.6l7.3,3.9l2.4-2.3l1,4.6l-0.3,3.3l-20.4,3.6l-6.9,2.3
		l-11.1,7.2l-5.2,0.3l-10.1,0.3l-7.3,3.9l-3.5,4.2l3.5-4.2l-2.8,1.6l-2.8-0.7l-3.5,3.3l-2.8,6.5H211l-2.4-3.3l-3.8-0.7l-5.9,2.6
		l-5.5-0.3l-10.1,5.2l-6.6,6.5l-0.7,2.6l-5.6,3.3l-5.9,6.2l-10.1,15.7l-6.6,4.3l-1.4,4.6l-6.6,3.9l1,3.6l4.5,4.3l6.9-0.3v-1.3
		l-7.6-2.3l0.7-1.3l3.8-0.3l3.1,2l8.3,10.8l3.8-1l3.1,2l-1.4,6.2l-6.6,5.2l-10.1,4.9l-12.6,16.6l-10.1,2.3l-3.1-3l-0.3-2.3l3.1,0.3
		h0.3h-0.3l0.4-1.6l2.4,0.7v0.3v0.3l0.3,0.3l1,0.3l0.7,0.3h0.3l0.3-0.3v-0.3V652h0.7v-0.3v-0.3l0.7-1.6l8.3-0.3l4.2-6.6l0.7-2.3h-1
		l-0.3-0.3h-0.3l-20.5,3.3l-9.8,11.2L110.9,664z"/>
	<path class="st16" d="M295.1,387.8v-1.6l2.8,1l-0.7,1.3L295.1,387.8z M193.4,478.8l-2.8,5.5l-4.2,1l-1.4,3.3l-1.7-0.7l-2.8,4.9
		l0.3,2.3l-2.1,0.7l-13.5,2.9l-3.8-4.9l-1.7,1l-0.7,3.9l-0.3,1L158,501l-3.8-0.7V500h-1h-1l-2.4-0.7l-1.7,3.6l-11.8,1.6h-0.7h-0.3
		l-0.7,0.7l-5.9,2.9l-3.5-0.3l-3.4-5.5l-4.2-1.3l-4.2,7.5h-3.5l-6.5-9.1l-4.2,2.9l-0.4,9.1l-7.3-0.7l-3.1-5.2l0.7-2.9L86,501
		l3.8-5.2l-1.7-3.3l-6.6-5.2l2.4-2.6l3.2-9.1l-1.7-1.6l-0.3-4.6l6.6-0.3l2.8-2l6.6-10.7l-2.4-3.3l-0.3-7.5l-3.8,1.6l-8.3-1.3
		l-0.3-4.6l1.7-2l-4.8-5.9v-3.2l6.6-7.5l2.4-5.2l1.4,1.6l0.7-5.2l11.1-1.6l1.8-6.8l5.2-4.5l4.1,0.6l1.8-6.5l4.1,0.3v-2.6l4.1-1.6
		l-2.4-2.6l1.4-4.9l-1-1.3l2.1-0.6l-6.9-2.9v-1.3l4.5-5.8l1.7,1.6l3.1-6.5l2.4-0.3l0.3,2.3l0.7-2.9l1.7-0.6l1-2.9l-1.4-0.6v-3.6
		l2.4-1.9l-0.3-2.9l4.9-9.1l-0.7-9.4l2.8-1.9l-1.7-1.3v-4.2l1.7-6.8l3.1-4.8l1.8-10.7l3.1-4.2l-3.4-1v-1.9l4.5-2.9l-7.6-2.9l3.5-3.9
		l-8.2-19.7l1.4-2.3l2.1,1.3l4.1-3.2l-3.1-1.6v-2.3l0.7-1.6l3.8-0.6l-1.4-1.6l4.2-12.2v-1.3l-3.4-0.6l-5.8-1.3l-1.7-7.4l-3.1-3.5
		l-2.4-2.9h2.4l1-2.9l-3.1-9.3l-3.1-0.3l3.8-4.5l-3.1-1.6l3.8-3.5l-1.7-7.4l3.1-1.9l-0.3-1.3l4.5-1.3l10.6,5.1l3.1-1l9.3,2.9
		l10.3,7.4l5.8-3.2l2.7,3.5h7.9l1.7,1.3l4.5-0.3l0.7-1.3l7.9,6.7l0.7,5.5l4.8,3.9l10.3-3.9l3.1,2.6l11-1.9l4.8,1l-0.7,3.9l5.8,2.6
		l-0.3,3.9l3.8,2.3l1,6.4l3.4,4.2l-2.4,4.5l2.8,2.6l-2.8,1.6l-2.1,4.8l4.8-1.6l3.8,6.8l-7.6,4.5l3.1,1.9l0.3,6.8l2.1,1.6l14.8,0.6
		l1-5.2l3.4,1.6l1.4-2.9l10.3-0.6l1.7-7.4l2.1,2.3l3.4,0.6l3.1-2.9l0.7,2.6l-1,1l1.4,9.3l5.9,2.3l3.8-0.3l2.1,2.6l-1.4,8.1l1.4,1.6
		l3.1-2.6l4.1,2.6l-3.1,2.9l1,9.7l-1.7,1h-4.1l-3.8,1.9l-6.2,0.3l-0.7,1.3l-2.8-1l-7.2,1.3l3.1,1l0.7,2.6l-1.4,1.6l3.1,3.2l-0.7,1.9
		l-3.1,1.3l0.7,3.6l3.4,3.2l1.7-1.3l3.1,1.3l-0.3,1v1.6v0.3l0.3,2.6l-1.4,0.6l-3.4,1.9l-1.4,4.2l1.4,1l-0.3,3.6l2.8,2.3l-1,1.9
		l-3.8-0.6l-2.8,6.1l-0.7,2.6l1.4,1l0.7-1.9l2.4,4.2l-3.8,1.6l-1,3.2l-0.3-3.6h-1.4l-1.4,4.2l1,1.6l1-2.3v2.3l3.8-0.3l1.7,1.9v-6.2
		l3.5,3.2l-0.7,1.6l0.3,1.6l-5.2,3.2l-2.1-1.3l1-1.9l-3.8,1l-0.3,6.5l-1,1l1.7,2.6h-1.7h-0.3l-8.3,8.1l-1.4-1l-1.4,2.6l2.4,1.3
		l2.4-2.3l2.8,0.6l0.7,1.6l1.4,5.8l-3.1,1.3v3.9l-3.5,2.6l1.7,3.2l-1,2.3l-2.8-1l-2.1,1v1.6l-2.1-0.3l-0.3,2.9l-2.4,1v-2.6l-1-0.3
		l-1.7-1l-0.3-0.3v-0.3l-0.3-0.3l-0.3-2.6H261l-1,3.6v-0.3l-1.4,0.3v-5.8l-1.7,0.3h-1.4l-3.8-0.6l-1.4,1.3l-2.1,10.1l3.1,2.6
		l-6.2,5.2l2.4,0.3l-0.7,1.9l1.4,1.9l3.1,0.3l-1.4,1.9l3.8,5.2v0.3h1.7v1.3l-3.1,2.3l-5.5-1.3l-5.2,4.2l7.3,2.9l-2.4,4.9l1.7,3.6
		l-15.6-2.6l-8.6,0.3l-4.8,0.3l-0.4,3.6l-6.9,2l0.7,1.6l-1.4-0.7l1.7,1l-1.7,3.6l2.4,5.2l-11.1,3.9v-1.3l-10.4-5.5l1,3.6l-1.4,0.7
		l3.8,2.9l2.1,1.3l-0.7,1l-2.1,2l-0.3,0.3L193.4,478.8z M292.6,343.1l-3.1-0.6l-4.1,0.3l4.1,1.9h3.1V343.1z"/>
	<path class="st17" d="M289.5,342.5l3.1,0.6v1.6h-3.1l-4.1-1.9L289.5,342.5z M285.5,527.4l0.3-3.3l-1-4.6l-2.4,2.3l-7.3-3.9l-1-3.6
		l8,1.3l1-8.2l1.4-0.3l-3.5,0.7l-0.3,1.6l-3.5-2l0.7-3.3l-3.5-1.3l-2.1-5.5l3.1-2.6h-0.3l-1-2.3h-2.8l-2.1-3.3l-4.8-2l-5.2,2.6
		l2.4-3.6l-1-4.2l-1-1.6l2.4-1.3l-2.8-0.3l-0.7-1.6l2.8-5.2H261l-1.7-3.3h-3.5l-0.7-1.6l-7.6-3.6l1.7-4.6l6.2-0.3l-0.4-3.1l-2.1,0.7
		l-0.3-1.3l3.5-2.6l-4.8-2.6l-4.5,1.3l2.4-4.9l-7.3-2.9l5.2-4.2l5.5,1.3l3.1-2.3v-1.3H254v-0.3l-3.8-5.2l1.4-1.9l-3.1-0.3l-1.4-1.9
		l0.7-1.9l-2.4-0.3l6.2-5.2l-3.1-2.6l2.1-10.1l1.4-1.3l3.8,0.6h1.4l1.7-0.3v5.8l1.4-0.3v0.3l1-3.6h2.8l0.3,2.6l0.3,0.3v0.3l0.3,0.3
		l1.7,1l1,0.3v2.6l2.4-1l0.3-2.9l2.1,0.3v-1.6l2.1-1l2.8,1l1-2.3l-1.7-3.2l3.5-2.6v-3.9l3.1-1.3l-1.4-5.8l-0.7-1.6l-2.8-0.6
		l-2.4,2.3l-2.4-1.3l1.4-2.6l1.4,1l8.3-8.1h0.3h1.7l-1.7-2.6l1-1l0.3-6.5l3.8-1l-1,1.9l2.1,1.3l5.2-3.2l-0.3-1.6l0.7-1.6l-3.5-3.2
		v6.2l-1.7-1.9l-3.8,0.3v-2.3l-1,2.3l-1-1.6l1.4-4.2h1.4l0.3,3.6l1-3.2l3.8-1.6l-2.4-4.2l-0.7,1.9l-1.4-1l0.7-2.6l2.8-6.1l3.8,0.6
		l1-1.9l-2.8-2.3l0.3-3.6l-1.4-1l1.4-4.2l3.4-1.9l1.4-0.6l-0.3-2.6v-0.3V329l0.3-1l-3.1-1.3L295,328l-3.4-3.2l-0.7-3.6l3.1-1.3
		l0.7-1.9l-3.1-3.2l1.4-1.6l-0.7-2.6l-3.1-1l7.2-1.3l2.8,1l0.7-1.3l6.2-0.3l3.8-1.9h4.1l1.7-1l9.3-3.6l5.9,1.6l0.3,1.3l1.4-1.3
		l4.8,3.6l5.2-2.6l7.9,3.9l-2.4,2.3v0.3l-2.7,3.9v0.3l-1,1l-0.3,2.3v0.3l-1.4,1.9l1.7,2.9l2.8-1.3v0.3l0.7,5.2l1.7,0.3l-0.3,2.9
		l-4.5,0.3l-1.7,2.6l-2.4,0.3l-1.4-1.9l1.4-2.3l-1-1.6l1.4-0.3l-6.6-1.3l0.4,4.2l3.8-0.6l2.1,5.5v1l4.1-0.6l1,1.9l3.5,1.3l4.8-1.6
		l1.4,3.9l4.1,1.9l2.4-3.2l6.5-0.6l0.7,2.3l2.4-1.6l0.7-1.6h0.3l0.3-0.3l1-0.3l2.1-0.3l2.8,1.3l2.8-1v0.3l1,0.3l2.4,1.6l1,1.9v0.3
		l-1,3.6l3.4-2.3h0.3l3.8-1.3h1.7v0.3l2.8,0.6l0.7,2.3h3.1l-0.7,2.3l2.1,3.9l3.1,2.3l3.4-2.6l1.7-0.3l2.8,0.3l0.7,1.6h0.3v-0.3h0.3
		l1.4,1.9l-2.4,1.3l3.5,4.2l-1.4,1.9l0.7,3.9l-4.8,1.6l3.1,1.9l-2.1,2.9l-6.2-0.6l-0.7,1.6l2.1,1.9l-0.3,2.6l3.1,0.3l0.3,0.3
		l2.4,1.6l0.4,2.9l-5.5,4.9l-2.1,0.3v-0.3l-3.8-0.6l-3.4,4.2l-1.4,0.3l-1-2.3l-4.8-1l-1.7,1.2l0.7,4.9l3.5,10.1L407,405l1,2.9l2.1,1
		l2.4-1l-0.3,2.3l7.3,3.6l3.1,7.8l14.2-1.9l1.7-2.6l2.4-0.6l3.8,1.6v-1.3l2.1,0.6l12.4,1.3l-1,1.6v0.3l0.7,5.2l-2.4,4.2l3.1,5.5v0.3
		l-21,9.1h-0.3l-26.2,11.7L396.9,468l-15.9,6.2l-12.8,20.2l-1,1.3l1.7-5.5l-2.4,5.5l-3.1,1.3l-0.7,3.3l2.1-2.6l-1,4.2l-5.5,6.5
		l-14.3,5l-13.2,0.3l-12.8,5.9l-6.6-0.3l-3.8,2.6L285.5,527.4z M295.1,387.8l2.1,0.6l0.7-1.3l-2.8-1L295.1,387.8z M343,341.5
		l1.7-0.6l-1.4-1.6l-2.8,1.3l-0.3,1v0.3l0.7,2.3l1.7-0.3L343,341.5z"/>
</g>
<linearGradient id="SVGID_1_" gradientUnits="userSpaceOnUse" x1="294.4" y1="436.75" x2="373" y2="436.75" gradientTransform="matrix(1 0 0 -1 0 577.15)">
	<stop  offset="0" style="stop-color:#83E2E2"/>
	<stop  offset="0.9637" style="stop-color:#003366"/>
	<stop  offset="1" style="stop-color:#000000"/>
</linearGradient>
<rect x="294.4" y="136.2" class="st18" width="78.6" height="8.4"/>
<text transform="matrix(1 0 0 1 238.8472 142.9552)" class="st6 st11 st13">% d’ocupació:</text>
<text transform="matrix(1 0 0 1 281.6472 142.9552)" class="st6 st11 st19">  </text>
<text transform="matrix(1 0 0 1 290.7326 152.8963)" class="st6 st11 st13">menys</text>
<text transform="matrix(1 0 0 1 368.8478 152.8963)" class="st6 st11 st13">més</text>
<text transform="matrix(1 0 0 1 24.4829 253.9903)" class="st6 st20 st21">LLEIDA</text>
<text transform="matrix(1 0 0 1 24.4828 283.3304)" class="st6 st7 st19">Ocupació:  </text>
<text transform="matrix(1 0 0 1 24.4828 292.9304)" class="st6 st7 st19">59,4% (+5,7 pp) </text>
<text transform="matrix(1 0 0 1 83.2828 292.9304)" class="st6 st11 st19">|+7,0 pp</text>
<g>
	<text transform="matrix(1 0 0 1 24.4832 307.1596)" class="st6 st7 st19">Viatgers: </text>
	<text transform="matrix(1 0 0 1 24.4832 316.7596)" class="st6 st7 st19">65.492 (+10,4%) </text>
	<text transform="matrix(1 0 0 1 85.0832 316.7596)" class="st6 st11 st19">|</text>
	<text transform="matrix(1 0 0 1 89.4832 316.7596)" class="st6 st11 st19">+17,3%</text>
</g>
<g>
	<text transform="matrix(1 0 0 1 24.4828 329.3356)" class="st6 st7 st19">Pernoctacions: </text>
	<text transform="matrix(1 0 0 1 24.4828 338.9356)" class="st6 st7 st19">288.722 (+61,4%) </text>
	<text transform="matrix(1 0 0 1 90.5828 338.9356)" class="st6 st11 st19">|-6,5%</text>
	<text transform="matrix(1 0 0 1 81.4828 338.9356)" class="st10 st7 st19"> </text>
</g>
<text transform="matrix(1 0 0 1 24.4834 265.0026)" class="st6 st20 st19">VARIACIÓ INT. 2020</text>
<text transform="matrix(1 0 0 1 101.2834 265.0026)" class="st6 st11 st19">|2019</text>
<g>
	<text transform="matrix(1 0 0 1 399.9513 200.0348)" class="st6 st20 st21">GIRONA</text>
</g>
<text transform="matrix(1 0 0 1 399.9511 228.4516)" class="st6 st7 st19">Ocupació:  59,1% (+18,5 pp)| </text>
<text transform="matrix(1 0 0 1 508.6511 228.4516)" class="st6 st11 st19">-4,4 pp</text>
<text transform="matrix(1 0 0 1 538.2511 228.4516)" class="st6 st7 st19"> </text>
<text transform="matrix(1 0 0 1 399.9512 242.1108)" class="st6 st7 st19">Viatgers: 345.519 (+43,8%) </text>
<text transform="matrix(1 0 0 1 501.7512 242.1108)" class="st6 st11 st19">|-5,2%</text>
<text transform="matrix(1 0 0 1 399.9518 253.9902)" class="st6 st7 st19">Pernoctacions: 2.219.132 (+62,1%) </text>
<text transform="matrix(1 0 0 1 531.8518 253.9902)" class="st6 st11 st19">|-13,8%</text>
<text transform="matrix(1 0 0 1 399.9516 211.2193)" class="st6 st20 st19">VARIACIÓ INT. 2020</text>
<text transform="matrix(1 0 0 1 476.7516 211.2193)" class="st6 st11 st19">|2019</text>
<g>
	<text transform="matrix(1 0 0 1 399.9514 513.591)" class="st6 st20 st21">ENTORN DE BARCELONA</text>
</g>
<text transform="matrix(1 0 0 1 399.9514 545.8959)" class="st6 st7 st19">Ocupació: 57,2% (+9,7 pp) </text>
<text transform="matrix(1 0 0 1 500.1514 545.8959)" class="st6 st11 st19">|-5,4 pp</text>
<text transform="matrix(1 0 0 1 399.9515 559.8174)" class="st6 st7 st19">Viatgers: 107.101 (+28,6%) </text>
<text transform="matrix(1 0 0 1 497.1515 559.8174)" class="st6 st11 st19">  |-18,2%</text>
<text transform="matrix(1 0 0 1 528.0515 559.8174)" class="st6 st7 st19"> </text>
<text transform="matrix(1 0 0 1 399.9516 573.7385)" class="st6 st7 st19">Pernoctacions: 577.481 (+33,1%) </text>
<text transform="matrix(1 0 0 1 525.0516 573.7385)" class="st6 st11 st19">|-24,2%</text>
<text transform="matrix(1 0 0 1 399.9514 525.5204)" class="st6 st20 st19">VARIACIÓ INT. 2020</text>
<text transform="matrix(1 0 0 1 476.7514 525.5204)" class="st6 st11 st19">|2019</text>
<g>
	<text transform="matrix(1 0 0 1 191.837 587.2499)" class="st6 st20 st21">TARRAGONA</text>
</g>
<text transform="matrix(1 0 0 1 191.8371 617.9391)" class="st6 st7 st19">Ocupació: 67,5% (+19,8 pp) </text>
<text transform="matrix(1 0 0 1 296.5371 617.9391)" class="st6 st11 st19">| -3,9 pp</text>
<text transform="matrix(1 0 0 1 191.8371 631.5981)" class="st6 st7 st19">Viatgers: 230.455 (+39,0%) </text>
<text transform="matrix(1 0 0 1 293.6371 631.5981)" class="st6 st11 st19">| +1,5%</text>
<text transform="matrix(1 0 0 1 191.8374 645.7816)" class="st6 st7 st19">Pernoctacions: 1.511.672 (+61,4%)</text>
<text transform="matrix(1 0 0 1 323.7374 645.7816)" class="st6 st11 st19">| -6,5%</text>
<text transform="matrix(1 0 0 1 191.8371 598.9193)" class="st6 st20 st19">VARIACIÓ INT. 2020</text>
<text transform="matrix(1 0 0 1 268.6371 598.9193)" class="st6 st11 st19">|2019</text>
<path class="st22" d="M372.4,471.2L372.4,471.2L372.4,471.2L372.4,471.2L372.4,471.2l0.2-0.1l0,0l0,0l0,0l0-0.1l0-0.1l0,0l0,0l0,0
	l0.1,0l0.1,0l0.1,0l0,0l0,0l0,0l0-0.1l0.1-0.1l0.1-0.1l0,0l0-0.1l0,0l0,0l0-0.1l0-0.1l0-0.1l0-0.1l0,0l0,0l0,0l0,0l0,0l0,0l0,0l0,0
	l0,0l-0.1,0l-0.1,0l0,0l0,0l0,0l0,0l0,0l0,0l0,0l0,0l0,0l0,0l-0.1,0l0,0l0,0l0,0l-0.1,0l-0.1-0.1l0,0l0,0l0,0l0,0l-0.2-0.5l0,0
	l0.1-0.1l0.2-0.2l0.2-0.3l0.2-0.3l0-0.1l0-0.1l-0.1-0.3l0-0.1l0-0.1l0,0l0,0l0.2,0l0.1,0l0.6-0.3l0.1-0.1l0.1-0.1l0-0.1l0-0.1
	l0.2-0.2l0.1,0l0.1,0l0.2,0.1l0.2-0.1l0.1-0.1l0.2-0.1l0.2,0l0.2,0l0.2,0.1l0.3,0.1l0.2,0.1l0.2,0l0.1,0l0.1,0l0,0l0.1,0l0.2,0.1
	l0.1,0l0.2,0l0.2,0l0.1,0l0,0l0,0.1l0,0.1l0,0.1l0,0.1l0,0l0,0l0.1,0l0,0.1l0,0.1l0,0l0,0l0,0l0,0l0,0l0,0l0,0l0,0l0,0l0,0.1l0,0
	l0,0.1l0,0l0,0l0,0l0,0l0,0l0,0l0,0l0,0l2.1,2.9l0,0.1l0.1,0.2l0.2,0.3l0.3,0.5l0.1,0.2l0.2,0.3l0.2,0.3l0.3,0.4l-0.1,0l0,0l0,0l0,0
	l0,0l0,0l0,0l0,0l0,0l0,0l0,0l0,0l0,0l0,0l0,0l0,0l0,0l0,0l-0.1,0l-0.1,0.1l0,0l0,0l0,0l0,0l-0.1,0l0,0l0,0l0,0l0,0l0,0l0,0
	l-0.1,0.1l0,0l0,0l0,0l0,0l0,0l0,0l0,0l-0.1,0l0,0l0,0l0,0l0,0l0,0l0,0l0,0l0,0l0,0l0,0l0,0l0,0l0,0l0,0l0,0l0,0l0,0l0,0l0,0l0,0
	l0,0l0,0l0,0l0,0l0,0l0,0l0,0l0,0l0,0l0,0l0,0l0,0l0,0l0,0L380,475l0,0l0,0l0,0l0,0l0,0l0,0l0,0l0,0.1l0,0.1l0,0l0,0l0,0l0,0l0,0
	l0,0l0,0.1l-0.2,0.2l0,0.1l0,0.1l0,0.1l0,0l-0.1,0.1l0,0l0,0l0,0l0,0l0,0l0,0l0,0l0,0l-0.1,0.1l0,0.1l0,0.1l-0.1,0.1l-0.1,0.1l0,0.1
	l0,0.1l0,0.1l0,0l0,0.1l0,0.1l0,0.1l-0.1,0.1l0,0.1l0,0.1l0,0l0,0l0,0l0,0.1l0,0l0,0.1l0,0l0,0l0,0l0,0l0,0l0,0l0,0l0,0l0,0
	l-0.1,0.2l0,0.1l0,0.1l0,0l0,0.1l0,0l-0.1,0.1l0,0l0,0l0,0l0,0l0,0l0,0l0,0l0,0l0,0l0,0l0,0l0,0l0,0l-0.1,0l0,0l-0.1,0l0,0l0,0l0,0
	l0,0l0,0l0,0l0.1,0l0,0l0,0l0,0l0,0l0,0l0,0l0,0l0,0l0,0l0,0l0,0l0,0l0,0.1l0,0l0,0l0,0l0,0l0,0l0,0l0,0l0,0l0,0l0,0.1l0,0l0,0l0,0
	l0,0l0,0l0,0l0,0l0,0l0,0l0,0l0,0.1l0,0l0,0.1l0,0l0,0l0,0l0,0l0,0.1l0,0l0,0l0,0l0,0l0,0l0,0l0,0l0,0l0,0l0,0l0,0l0,0l0,0l0,0l0,0
	l0,0l0.2-0.9l-0.4-0.1l-0.1,0.2l-0.1,0.3l0.4,0.1l0,0.1l-0.4-0.1l0,0.1l0.1,0l0,0l0,0l0,0l0,0l0,0.2l0.2,0.1l0-0.2l0,0l-0.1,0.2
	l-0.1,0l0,0l0,0l-0.1,0.1l0,0l0,0l0,0l0,0l0,0l0,0l0,0l0.1,0.1l0,0l0,0l0,0l0,0l0,0l0,0l-0.2-0.1l0,0l0.2,0.1l0,0l0,0l0,0l0,0l0,0
	l0,0l-0.1-0.1l0,0l0,0l0,0l0,0l0,0l0,0l0,0.1l0,0.1l0,0l0,0.1l0,0.1l0,0.1l0,0l0,0l0,0l0,0l0,0l0,0l0,0l0,0l0,0l0,0l0,0l0,0l0,0l0,0
	l0,0l0,0l0,0l0,0l0,0l0,0l0,0l0,0l0,0l0,0.1l0,0l0,0l0,0l0,0l0,0l0,0l0,0l0,0l0,0l0,0.1l0,0l0,0.1l0,0l0,0l0,0l0,0l0,0l0,0l0,0l0,0
	l0,0l0,0l0,0l0,0l0,0.1l0,0l0,0l0,0l0,0l0,0.1l0,0.1l0,0.1l0,0.1l0,0.1l0,0.1l0,0l0,0.1l0,0l0,0l0,0l0,0l0,0l0,0l0,0l0,0l0,0l0,0
	l0,0l0,0l0,0l0,0l0,0l0.1,0.1l0,0l0,0l0,0l0,0l0,0l0,0l-0.1-0.1l0,0l0,0l0,0l0,0l0,0.1l0,0l0,0l0,0l0,0l0,0.1l0,0l0,0l0,0.1l0,0.1
	l0,0.1l0,0l0,0l0,0.1l0,0l0.2,0l0,0l0,0l0-0.1l0,0l0,0l0,0l0,0l0,0l0,0l-0.4,0.8l-0.2,0.4l0,0l0,0l0,0l0,0l0,0l0,0l0,0l0,0l0,0l0,0
	l0,0l0,0l0,0l0,0l0,0l0,0l0,0l0,0l0,0l0,0l0,0l0.2-0.5l0.3-0.7l0,0l-0.4,0.3l0.1,0.2l0,0l0,0l0,0l-0.1-0.1l-0.2,0.1l0,0l0.1-0.1
	l-0.2-0.4l0,0l-0.1,0.2l0,0.1l0,0l0,0.1l0,0l0,0l0,0l0,0l0,0l-0.2,0.2l0.1,0.1l0.1-0.2l0.2,0l0,0l0,0l0.1,0.1l0,0l0,0l0,0l0.2,0.2
	l0,0l-0.1,0l0,0l0.1,0l0,0l-0.1,0.3l0,0l0,0l0,0l0,0l0,0l0,0l0,0l0,0l0,0l0,0l0,0l0,0l0,0l0,0l0,0l0,0l0,0l0,0l0,0l0,0l0,0l0,0l0,0
	l0,0l0,0l0-0.1l-0.1,0l-0.1,0.1l-0.1,0l0,0l-0.1,0.1l0,0l0,0l0,0l0,0l0,0.1l0,0.1l0,0l0,0l0,0l0,0l0,0l0,0l0,0l0,0l0,0l0,0.1l0,0
	l0,0.1l0,0l0,0l0,0l0,0l0,0l-0.1,0.1l0,0l0,0l0,0l0,0l0,0l0,0l0,0l0,0l0,0l0,0l0,0l0,0l0,0l0,0l0,0l0,0l0,0l0,0l0,0l0,0l0,0l0,0l0,0
	l0,0l0,0l0,0l0,0l0,0l-0.1-0.1l0,0.1l0.1,0.1l0,0l0,0l0.1,0.1l0,0l0,0l0,0l0,0l0,0l0,0l0,0l0,0l0,0l0,0l0-0.1l0,0l0,0l0,0l0,0l0,0
	l0,0l0,0l-0.1,0l0,0l0,0l-0.1,0.1l0,0l0,0l-0.1,0.1l0,0l0,0l0,0l0,0l0,0l0,0l0,0l0,0l0,0l-0.1-0.1L374,485l0.1,0.1l0,0l0,0l0,0
	l0.1,0.1l0,0l0,0l0,0l0,0l0,0l0,0l-0.3-0.3l0,0l0,0l-0.2,0.1l-0.1,0l0,0l-0.1,0.2l0,0.1l0,0l0.2,0.2l0,0l0,0l0,0l0,0l0,0l-0.2-0.2
	l0,0l0,0l-0.2,0.1l0,0.1l0,0.1l-0.1,0.1l-0.1,0.2l0,0l0.2,0.2l0.1,0.1l0,0l0,0l0,0l0,0l0,0l0,0l-0.1-0.1l-0.1-0.1l-0.1,0l-0.1,0.1
	l-0.1,0.1l-0.1,0.1l-0.1,0.1l-0.1,0.1l0,0.1l0,0.1l0.2,0.2l0,0l-0.1-0.1l0,0l0.1,0.1l0,0l-0.2-0.2l-0.1,0l-0.1,0.1l-0.1,0.1
	l-0.1,0.1l-0.1,0.1l-0.1,0.1l-0.1,0.1l0,0.1l0.2,0.2l0,0l-0.2-0.2l0,0l0.2,0.2l0,0l-0.2-0.2l0,0l0,0l0,0l-0.1,0l-0.1,0.1l-0.1,0.1
	l0,0l0,0.1l0,0.1l0,0.1l0,0l0,0.1l0,0l0.2,0.2l0,0l0,0l0,0l0,0l0,0l0,0l0,0l0,0l0,0l0,0l0,0l0,0l-0.1,0.1l0.1,0.1l0,0.1l-0.1,0.1
	l-0.1,0.1l-0.1,0.1l-0.1,0.1l-0.1,0.1l-0.1,0.1l-0.1,0l0,0l-0.1,0l0,0l0,0l0,0l0,0l0,0l0,0l0,0l0,0l0,0h0l0,0l0,0l0,0l0,0l0,0l0,0
	l0,0l0,0l0,0l0,0l0,0l0,0l0,0l0,0l0,0l0,0l0,0l0,0l0,0l0,0l0,0l0,0l0,0l0,0l0,0l0,0l0,0h0l0,0l0,0l0,0h0l0,0l0,0l0,0l0,0l0,0l0,0
	l0,0l0,0l0,0l0,0l0,0l0,0l0,0h0l0,0l0,0l0,0l0,0l0,0l0,0l0,0l0,0l0.1,0l0,0l0.1,0l0,0l0.1-0.1l0.1-0.2l0,0l0.1-0.1l-0.1-0.1
	l-0.2,0.2l0,0l-0.1,0.1l-0.1-0.1l0.3-0.3l-0.3-0.3l-0.3,0.3l0,0l0,0l0.2,0.2l0,0l0,0l0,0l0,0.1l0,0l0,0l0,0l0,0l0,0l-0.1,0.1l-0.1,0
	l-0.1-0.1l0,0.1l0,0l0,0.1l0,0l0,0l-0.1,0l0,0l0,0l-0.1,0.1l0,0l0,0l-0.1,0.1l0,0l0,0.1l0,0l0,0.1l0,0.1l0,0.1l0,0l0,0l0,0l0,0
	l0.2,0.1l0,0L370,490l0,0l0,0l0,0l0,0.1l0,0l0,0l0,0l0.2,0.1l0,0l-0.3-0.1l0,0l-0.1,0.1l-0.1,0.1l0,0l-0.1,0.2l0,0.1l0,0.1l0,0
	l0,0.1l0,0.1l0,0l0,0l-0.1,0.1l-0.1,0.1l-0.1,0.2l-0.1,0.4l0,0.1l0,0.1l0,0.1l0,0.1l0,0l0,0.1l0,0.1l0,0.1l0,0l0,0.1l0,0l0,0l0,0
	l0.1,0l0.1-0.1l0,0l0,0l0,0l0,0l0,0l0,0l0,0l0,0l0,0l-0.6,1.3l0,0l0,0l0,0l0,0l0,0l0,0l0,0.1l0,0l0,0l0,0.1l0,0l0,0l0,0l-0.2,0.8
	l-0.1,0l0,0l0.1,0l0,0l0,0l0.2-0.7l0,0l0,0l0,0l0.1-0.3l0,0l0,0l0,0l0,0l0,0l0,0l0,0l0,0l0,0l0.1,0l0,0l0,0l0,0l0,0l0,0l0.3-0.6l0,0
	l0,0l0,0l-0.2-0.1l0,0l0,0l0,0.1l0,0l0,0.1l0,0.1l0,0.1l0,0l0,0.1l-0.1,0.1l0,0l0,0l0,0l0,0l0,0l0,0l0.1,0l0,0l0,0l0,0l0,0l0,0
	l-0.1,0l0,0l0,0l0,0l0-0.1l0,0l0,0l0,0l0,0l0-0.1l0,0l0,0l0-0.1l0,0l0,0l0,0l0,0.1l0.2-0.3l0-0.1l0-0.2l0,0l0.1-0.4l-0.2,0l0,0.3
	l0,0l0,0l0,0l0,0l0,0l0,0l0,0l-0.1,0l0,0l0,0l0-0.1l-0.1,0l0,0l0,0l0.1-0.4l-0.1,0l0,0l0-0.1l0,0l0.4,0.1l0-0.1l-0.2,0l0-0.1l0-0.2
	l0.2,0l0-0.2l-0.1,0l-0.1,0l0.1-0.3l-0.1-0.1l-0.1,0.1l-0.1,0.4l-0.1,0l0.1-0.5l0,0l0.3-0.1l0,0l0-0.1l0-0.3l-0.1,0l0,0l0.1,0
	l-0.1-0.4l0,0l0-0.1l-0.2-0.1l-0.2,0l0.2,0.7l0,0l0,0l0,0l-0.3,0.5l0,0l-0.2-0.1l0-0.1l0.3-0.4l0,0l-0.1-0.4l0,0l-0.7,1.1l0,0l0,0
	l0.8,0.5l0,0l0,0l0,0l-0.1,0.2l0,0l0,0l0,0l-0.7-0.4l0,0l0,0l0,0l-0.1,0.5l0.1,0l0,0.1l-0.1,0l0,0.4l0,0l0,0.1l0.5,0.2l0,0l0.1,0.1
	l0,0l0,0l-0.2,0.5l-0.1,0l0-0.1l-0.5-0.3l-0.4,0.7l0.1,0l0,0l0.5,0.2l-0.2,0.4l-0.7-0.3l-0.2,0.3l0.5,0.5l-1,2l-0.5-0.3l0,0l0,0l0,0
	l-0.1,0l-0.1,0l0,0l0,0l0,0l-1.4,1.1l-0.1,0.1l-0.1,0.1l0,0l0,0l0-0.3l-0.1,0l0-0.2l-0.1,0l0-0.2l-0.1,0l0,0.1l0,0l0-0.2l-0.1,0
	l-0.2,2.1l-0.6,0l0,0l0,0l0,0l-0.2,0.4l0.3,0.1l0.2,0.1l-0.2,0.5l0,0l0,0.1l0.4,0.2l0,0l0,0l0,0l0,0l0,0l0.1-0.2l0,0l0,0l0,0l0,0
	l0,0l0,0l0,0l0,0l0,0l0,0l0,0l0-0.1l0,0l0,0l0,0l0,0l0,0l0-0.1l0,0l0,0l0-0.1l0,0l0,0l0,0l0,0l0,0l0,0l0,0l0,0l0,0l0,0l0,0l0,0l0,0
	l0,0l0,0l0-0.1l0,0l0,0l0,0l0,0l0,0l0,0l0,0l0,0l0,0l0,0l0,0l0,0l0,0l0,0l0,0l0,0l0,0l0,0l0,0l0,0l0,0l0,0l0,0l0-0.1l0,0l0,0l0,0
	l0,0l0,0l0,0l0,0l0,0l0,0l0,0l0,0l0,0l0,0l0,0l0,0l0-0.1l0,0l0,0l0-0.1l0,0l0,0l0,0l0,0l0,0l0,0l0,0l0,0l0,0l0,0l0,0l0,0l0,0l0,0
	l0-0.1l0,0l0,0l0,0l0,0l0,0l0,0l0,0l0,0l0,0l0,0l0,0l0,0l0,0l0,0l0,0l0,0l0,0l0,0l0,0l0,0l0,0l0,0l0,0v0l0,0l0,0l0,0l0,0l0,0l0,0
	l0,0l0,0l0,0l0,0l0,0l0,0l0,0l0,0l0,0l0,0l0,0l0,0l0,0l0,0l0,0l0,0l0,0l0,0l0,0l0,0l0,0l0,0l0,0l0-0.1l0,0l0,0l0,0l0-0.1l0,0l0-0.1
	l0,0l0,0l0.1-0.1l0,0l0-0.1l0,0l0,0l0,0l0,0l0,0l0,0l0,0l0,0l0,0l0,0l0,0l0,0l0,0l0,0l0,0l0,0l0,0l0,0l0,0l0,0l0,0l0,0l0,0l0,0l0,0
	l0,0l0,0l0,0l0,0l0,0l0,0l0,0l0.1-0.1l0,0l0,0l0,0h0l0,0l0,0l0.3,0.1l0,0l0,0.1l0,0l0,0l0,0l0,0l0,0l0,0l0,0l0,0l0,0l0,0l0,0l0,0
	l0,0l0,0l0,0l0,0l0,0l0,0l0,0l0,0l0,0l0,0l0,0l0.3,0.1l0,0l0,0l0,0l0,0l0,0l0,0l0,0l0,0l0,0l0,0l0,0l0,0l0,0l0,0l0,0l0.1,0l0,0l0,0
	l0,0l0,0l0,0l0,0l0,0l0,0l0,0l0,0l0,0l0,0l0,0l0,0l0,0l0,0l-0.1,0l0,0l0,0l0,0.1l0,0l0,0l0,0l0,0l0,0l0,0l0,0l0,0.1l0.1,0l0-0.1l0,0
	l0,0.1l-0.1,0l0,0l0,0l0,0l0,0l0,0l0,0l-0.1,0.2l0,0l0,0l0,0.1l0,0.1l0,0l0,0l0.1,0l0,0l0,0l0,0l-0.1,0l0,0l-0.1,0l0,0.1l0,0.1
	l0,0.1l0,0.1l0,0l0,0.1l0,0l0,0l0,0.1l0,0l0,0.1l0,0l0,0l0,0.1l0,0l0,0l0,0l0,0l0,0.1l0,0l0,0.1l0,0l0,0l0,0l0,0.1l-0.1,0.2l0,0.1
	l0,0.1l0,0.1l0,0l0,0.1l0,0l0,0l0,0l0,0l0,0l0,0l0,0l0,0l0,0.1l0,0l0,0l0,0l0,0l0,0l0,0l0,0l0,0l0-0.1l0,0l0,0l0,0l-0.1,0l-0.1,0
	l-0.4,0l-0.1,0l0,0l0,0l0,0l0,0l0,0l0,0l0,0l0,0l0,0l0,0l0,0l0,0l0,0l0,0l0,0l0,0l0,0l0,0l0,0l0,0l0,0l0,0l0,0l0,0l0,0l0,0l0,0
	l0,0.1l0,0l0,0l0,0l0,0l0,0l0,0l0,0.1l0,0.1l0,0.1l0,0.1l0,0.1l0,0.1l0,0.1l0,0.1l0,0l-0.1,0.1l0,0l-0.2,0.3l-0.1,0l-0.2,0l-0.2,0
	l-0.2,0l-0.2,0l-0.7,0l-0.2,0l-0.3,0l-0.4,0l-0.3,0l-0.1,0l-0.2,0l-0.2,0l-0.3,0l-0.1,0l-0.2,0l-0.3-0.1l-0.3-0.1l-0.3-0.1l-0.2-0.1
	l-0.2-0.1l-0.2-0.1l-0.2-0.1l-0.1-0.1l-0.1,0l-0.2-0.1l-0.2-0.1l-0.1-0.1l-0.3-0.4l-0.2-0.3l-0.1-0.2l0,0l0-0.1l-0.1-0.2l-0.3-0.3
	l-0.1-0.1l-0.2-0.1l-0.1-0.1l-0.1-0.1l0,0l0,0l0,0l-0.1,0l0,0l0,0l-0.2-0.1l0,0l0,0l0-0.1l0,0l0,0l0,0l0-0.1l0-0.1l0-0.1l0,0l-0.1,0
	l0,0l0,0l0,0l-0.1,0l0,0l0,0l-0.1,0l0,0l0,0l0,0l0,0l0,0l-0.2-0.1l-0.1,0l-0.1,0l-0.1,0l0,0l0,0l0,0l0,0l0,0l-0.1,0l0,0l0,0l0,0
	l0.5-0.5l0,0l-0.4-0.2l-0.6-0.4l0.1-0.1l0.2-0.2l0.1-0.1l0.5-0.4l0.7-0.5l-0.5-0.9l0-0.1l-0.2-0.3l-0.1-0.2l-0.1,0l0,0l0,0l0,0
	l-0.1-0.2l-0.1-0.1l-0.2-0.1l0,0l-0.1-0.2l-0.1-0.2l0-0.1l-0.4-0.2l-0.1-0.1l0-0.1l0-0.2l0-0.1l0.3-0.5l0.1,0l0.3,0l0.2,0.1l0,0.2
	l0.2,0.1l0.7-0.4l-0.1-0.3l0.4-0.9l0-0.1l-0.2-0.4l0.3-0.1l0.1-0.1l0-0.1l0,0l0.2-0.2l0,0l0-0.1l-0.1-0.3l0.1-0.2l-0.3-0.3l0.2-0.2
	l0-0.1l0-0.1l0-0.1l0-0.1l-0.2-0.2l0-0.1l0.1-0.1l-0.1-0.1l-0.1-0.1l-0.1-0.1l-0.1-0.2l0-0.1l0-0.1l0-0.1l0-0.2l-0.1-0.1l-0.1-0.1
	l0-0.1l0-0.1l0-0.1l0-0.1l0.1-0.2l0.1-0.1l0.2-0.3l0.1-0.2l0.1-0.1l0.1-0.1l0.1-0.2l0-0.2l0.1-0.2l0.1-0.2l0-0.2l-0.1-0.1l-0.2-0.1
	l0-0.2l0-0.1l0-0.2l-0.1-0.1l-0.1-0.1l-0.2-0.1l-0.2-0.1l-0.1,0l0,0l0,0.1l-0.1,0.1l-0.3,0l-0.2,0l-0.4,0l-0.2,0l-0.3-0.1l-0.2-0.1
	l-0.1,0l-0.1,0l-0.2,0l-0.1,0.1l0,0.1l0,0.1l0,0.1l-0.1,0.1l-0.3,0.3l-0.1,0.1l-0.1,0.2l-0.1,0.1l-0.1,0.1l-0.1,0.1l-0.1,0.1
	l-0.1,0.1l-0.1,0l-0.1,0l-0.3-0.1l-0.2,0l-0.1,0l-0.2-0.4l-0.2-0.4l0-0.1l0,0l0.2,0l0-0.1l0-0.2l0.1-0.2l0.1-0.1l0.1-0.1l0.2,0.1
	l0.2,0l0.2,0l0.2,0l0.1-0.1l0.1-0.1l0-0.1l0.1-0.2l0-0.1l0.1,0l0-0.1l-0.1-0.1l0-0.1l-0.2-0.1l0-0.1l-0.1-0.1l0.1-0.1l-0.1,0l0,0
	l0,0l0-0.1l0,0l0-0.2l-0.1-0.2l0-0.1l0-0.1l-0.1-0.1l0.2,0l0.2,0l0.1-0.1l0.2,0l0-0.3l0-0.1l-0.1,0.1l-0.4-0.2l-0.1,0l-0.2,0l-0.2,0
	l-0.1,0l-0.1,0l0-0.2l0-0.1l0.1-0.2l0.1,0l0.1,0l0.1-0.1l0,0l0.1-0.1l-0.1-0.1l-0.2-0.2l-0.1,0l-0.1,0l-0.1,0l-0.1-0.3l0-0.1
	l-0.1-0.1l-0.1-0.1l0-0.1l0-0.1l0-0.1l0-0.1l0.1-0.1l0.1,0l0.2,0l0,0l0,0.1l0,0.1l0,0l0,0l0,0l0.1,0l0.1,0l0.1,0l0,0l0,0l0,0.1
	l0,0.2l0,0.1l0,0l0.1,0l0.2,0.1l0.2,0.2l0.2,0l0.2,0l0,0l0,0l0,0.1l0,0.1l0,0l0,0l0,0l0,0l0-0.1l0.1-0.1l0.1,0l0,0l0,0l0.1,0.1
	l0.1,0.1l0.1,0.1l0,0.1l0.1,0l0.1,0l0.2,0.1l0.1,0l0.4,0.1l0.2,0l0.1-0.2l0.2,0l0.1,0l0-0.1l0-0.1l0.1-0.1l0.1-0.1l0.1-0.2l0.1-0.1
	l0-0.1l0.1,0l0.1,0l0.1,0.1l0.1,0.1l0.1,0l0.1,0.1l0,0.1l0,0.1l0.1,0.2l0.1,0l0.1,0l0.1,0l0.1,0.1l0.1,0.1l0,0.1l0,0l0.1,0l0.3,0
	l0.1,0l0.2,0l0.3,0l0.2,0l0.1,0l0.2,0l0.2,0l0.1,0l0.3,0.1l0.1,0.1l0.1,0.1l0.3,0.2l0.2,0l0.2,0l0.1-0.1l0.1-0.2l0-0.1l0-0.1
	l0.1-0.1l0.1-0.1l0.3-0.3l0.2-0.2l0.1-0.2l0.1-0.2l0.1-0.2l0-0.3l0-0.2l0.1-0.2l0.1-0.2l0-0.4l-0.1-0.3l0-0.2l0.2-0.2l0.3-0.2l0-0.2
	l0.1-0.2l0.1-0.1l0.1-0.1l0.1,0l0.1,0l0.1,0l0.1,0l0.2,0l0.2,0.1l0.1,0l0.2,0l0.1,0l0.2,0l0.2-0.1l0.1,0l0.2,0l0.1,0l0.1,0.1
	l0.1,0.1l0.1,0l0.1,0l0.1,0l0.1,0l0.2,0l0.1,0l0,0l0,0l0.1-0.1l0.1-0.2l0.1-0.1l0.1-0.1l0.1,0l0.1,0l0.2,0l0.1,0l0.2-0.1l0.3,0
	l0.1,0l0.1,0.1l0.1,0.1l0.1,0l0.1,0l0-0.1l0-0.1l0.1-0.1l0.1-0.1l0-0.1l-0.1-0.2l-0.1-0.1l0-0.2l0-0.1l0-0.1l0.1-0.1l0.1-0.2
	l-0.1-0.1l0-0.1l0-0.1l0.1-0.2l0.1-0.3l0.1-0.1l0.3-0.2l0,0l0.1,0l0,0l0.1,0l0.1-0.1l0.1,0l0.2-0.1l0,0l0.1,0l0.1-0.1l0.1-0.1
	l0.1-0.1l0.2-0.1l0.1,0l0.1,0l0.1,0l0.1-0.1l0.4,0l0.1,0l-0.1-0.1l0-0.1l-0.2,0l-0.1-0.1l0-0.2l0-0.1l0.1,0.1l0.2-0.1l0.5-0.1l0.1,0
	l0.2,0.1l0.1-0.1l0.3-0.6l0.1,0.1l0.1,0l0.1,0l0.1-0.1l0.1-0.1l0.1-0.1l0.3-0.1l0.3,0l0.5-0.2l0.1,0.1l1,0.5l0.1,0l0.1,0l0.1,0
	l0.1,0l0.1,0L372.4,471.2z M348,478.8l0.1,0.1l0.1,0.1l0.1,0.1l0.1,0l0.2,0l0,0.1l0,0.1l0,0.2l0,0.1l0.1,0.1l0.1,0.1l0.3,0l0.1,0
	l0.1,0.1l0,0.1l0,0.1l-0.1,0.2l0,0.1l0,0l0.4,0.3l0,0.2l0,0.3l0,0.2l0.1,0.2l0,0.2l0,0.2l-0.1,0.1l-0.1,0l-0.1,0l-0.4,0.1l-0.1,0
	l-0.2,0l0,0l0.1,0.1l0,0.1l-0.1,0.3l-0.1,0.3l-0.1,0.1l-0.3,0.1l0,0l0,0l-0.2,0l-0.2,0l0,0l0,0.1l0,0.1l0,0.1l-0.1,0.1l-0.2,0
	l-0.1,0l-0.1,0l-0.1-0.1l-0.1-0.2l0-0.1l0-0.1l0-0.2l0.3-0.3l0.1-0.2l0-0.3l0-0.1l0-0.1l0-0.1l0-0.1l0-0.1l-0.1-0.3l0-0.1l-0.1-0.1
	l-0.1-0.1l-0.1-0.1l-0.2-0.1l0,0l0.1-0.1l0.4-0.2l0.2-0.1l0.1-0.1l0-0.1l0-0.2l0.1-0.3l0-0.2l0-0.2l-0.1-0.3l0-0.2l0-0.2l0-0.1
	l0-0.1l0,0L348,478.8z M350.3,482.5L350.3,482.5L350.3,482.5l0.2,0.2l-0.1,0.1l-0.1,0.1l-0.1,0.1l-0.1,0.1l0,0.1l0,0.1l-0.1,0.1
	l-0.1,0.1l-0.1,0.1l-0.1,0l0,0l0,0l0-0.1l0.1-0.2l0-0.1l0-0.1l0-0.1l0-0.1l0,0l0.2-0.1l0.1-0.1l0.1,0l0.1,0l0.1,0l0,0l0,0
	L350.3,482.5z M375,484.4L375,484.4L375,484.4l0-0.2l0,0l0-0.1l0,0l0,0h0l0,0l0,0l0,0l0,0l0,0l0,0l0,0l0,0l0,0l0,0l0,0l0,0l0,0l0,0
	l0,0l0,0l0,0L375,484.4L375,484.4L375,484.4L375,484.4L375,484.4L375,484.4L375,484.4L375,484.4L375,484.4L375,484.4L375,484.4z
	 M374.9,484.4L374.9,484.4L374.9,484.4L374.9,484.4L374.9,484.4L374.9,484.4l0,0.1l0,0l0,0l0,0L374.9,484.4L374.9,484.4z
	 M374.9,484.5L374.9,484.5L374.9,484.5L374.9,484.5L374.9,484.5L374.9,484.5l0,0.1l0,0l0,0l0,0L374.9,484.5L374.9,484.5z
	 M374.2,485.3l0.1-0.2l0,0l0,0l0,0l0,0l0,0l0,0l0,0l0,0l0,0l0,0l0,0.1l0,0L374.2,485.3L374.2,485.3L374.2,485.3L374.2,485.3l0,0.1
	l0,0l0,0l0,0l0,0l0,0l0,0l0,0L374.2,485.3L374.2,485.3L374.2,485.3L374.2,485.3z M369.7,491.2L369.7,491.2L369.7,491.2L369.7,491.2
	L369.7,491.2L369.7,491.2l0.1-0.2l0,0l0,0l0,0l0,0l0,0L369.7,491.2z M366,499.1L366,499.1l0.1,0l0,0l0,0l0,0l0,0l0-0.1l0-0.1l0-0.1
	l0,0l-0.1,0l0-0.1l0-0.2l0-0.1l0-0.1l0-0.1l0-0.1l0-0.1l0,0l-0.1-0.1l0,0l0,0l0,0l0,0l0.1-0.9l0,0l-0.1,0l0,0l0-0.1l0.1,0l1.6-3.3
	l0.1,0l0-0.1l0,0l0,0l0,0l0,0.1l0,0l0,0.1l0,0.2l0,0l0,0l0,0l0,0l0,0l0,0l0,0l0,0l0,0l0,0l0,0.1l0,0l0,0l0,0l0,0.1l0,0.1l0,0.1l0,0
	l0,0l0,0l0,0.1l-0.1,0.1l0,0.1l0,0.1l0,0l0,0l0,0l0,0l0,0l0,0l0,0l0,0.1l0,0l0,0l0,0l-0.1,0.1l0,0l0,0.1l0,0.1l0,0.1l0,0l0,0l0,0
	l0,0l0,0.1l0,0.1l0,0l0,0.1l0,0.1l0,0.1l0,0l0,0l0,0.1l0,0.1l0,0.1l0,0.1l0,0l0,0l0,0l0,0l0,0l0,0l0,0l0,0l0,0l0,0l0,0l0,0l0,0l0,0
	l0,0l0,0l0,0l0,0l0,0l0,0.1l0,0l0,0l0,0l0,0l0,0.1l0,0.1l0,0l0,0l0,0l0,0l0,0l0,0l0,0l0,0.1l0,0l0,0l0,0.1l0,0l0,0l0,0l0,0l0,0l0,0
	l0,0.1l0,0l0,0l0,0.1l0,0.1l0,0l0,0l0,0l0,0l0,0l0,0l0,0l0,0l0,0l0,0l0,0l0,0l0,0l0,0l0,0l0,0l0,0l0,0l0,0l0,0l0,0.1l0,0l0,0l0,0
	l0,0l0,0l0,0.1l0,0l0,0l0,0l0,0l0,0l0,0l0,0.1l0,0l0,0.1l0,0l0,0.1l0,0l0,0l0,0l0,0l0,0.1l0,0.1l0,0l0,0l0,0l0,0l0,0.1l0,0.1l0,0.1
	l0,0l0,0l0,0l0,0l0,0l0,0.1l0,0l0,0l0,0.1l0,0l0,0.1l0,0.1l0,0.1l0,0l0,0.1l0,0l0,0.1l0,0l0,0l0,0l0,0l0,0l0,0l0,0l0,0l0,0l0,0l0,0
	l0,0l0,0l0,0l0,0l0,0l0,0l0,0.1l0,0l0,0l0,0l0,0l0,0l0,0.1l0,0l0,0l0,0l0,0l0,0.1l0,0l0,0l0,0l0,0l0,0l0,0l0,0l0,0l0,0l0,0l0,0l0,0
	l0,0l0,0.1l0,0.1l0,0.1l0,0l0,0l0,0l0,0l0,0l0,0l0,0l0,0l0,0l0,0l0,0l0,0l0,0l0,0l0,0l0,0.1l0,0l0,0l0,0.1l0,0.1l0,0l0,0l0,0l0,0
	l0,0.1l0,0.1l0,0.1l0,0l0,0.2l0,0.1l0,0l0,0l0,0l0,0l0,0l0,0l0,0.1l0,0.1l0,0l0,0.1l0,0.1l0,0l0,0l0,0l0,0l0,0l0,0l0,0l0,0l0,0l0,0
	l0,0l0,0l0,0l0,0l0-0.1l0-0.1l-0.1-0.3l-0.1-0.3l-0.1-0.5l-0.1-0.2l-0.1-0.3l0,0l0,0l0.2-1l0.1-0.6l-0.1,0l0,0l-0.1,0l0,0l0,0l0,0
	l0,0l0,0h0l0,0l0,0l0,0.1l0.1,0l0-0.2l0,0l0,0l0,0l0,0l0,0l0,0l0,0l0-0.1l0-0.1l0-0.1l0-0.1l0-0.1l0-0.1L366,499.1L366,499.1
	L366,499.1z M363.3,499L363.3,499L363.3,499L363.3,499L363.3,499z"/>
</svg>
