<svg id="Capa_1" data-name="Capa 1" xmlns="http://www.w3.org/2000/svg" xmlns:xlink="http://www.w3.org/1999/xlink" width="1366.8" height="1056.3" viewBox="0 0 1366.8 1056.3"><defs><clipPath id="clip-path"><rect x="99.3" y="526.3" width="460.6" height="303.9" fill="none"/></clipPath><clipPath id="clip-path-2"><rect x="816.2" y="530.8" width="447.1" height="294.9" fill="none"/></clipPath></defs><title>LABTurisme-Sintesi-Viatgers-Pernoctacions-agost-2021</title><rect x="-16.392" y="-10.222" width="1400.832" height="1080.576" fill="#fff"/><g clip-path="url(#clip-path)"><text transform="translate(285.0466 600.1179)" font-size="24.5186" fill="#036" font-family="Arial-BoldMT, Arial" font-weight="700" style="isolation:isolate">V</text><text transform="translate(300.9572 600.1179)" font-size="24.5186" fill="#036" font-family="Arial-BoldMT, Arial" font-weight="700" style="isolation:isolate">iatgers</text></g><g clip-path="url(#clip-path-2)"><text transform="translate(964.8737 602.4823)" font-size="23.8" fill="#036" font-family="Arial-BoldMT, Arial" font-weight="700" style="isolation:isolate">Pernoctacions</text></g><path d="M37,1024.8H31.9v4.7h5.7v1.4H30.2v-13.1h7.1v1.4H31.9v4.1H37Z" fill="#8d8d8d"/><path d="M39.7,1017.1h1.7v13.8H39.7Z" fill="#8d8d8d"/><path d="M49.5,1030.9l-.1-1.2h-.1a3.5551,3.5551,0,0,1-2.9,1.4,2.6972,2.6972,0,0,1-2.9-2.5v-.2c0-2.3,2-3.5,5.6-3.5v-.2a1.9991,1.9991,0,0,0-1.7-2.2h-.5a3.9864,3.9864,0,0,0-2.4.7l-.4-1.1a5.5329,5.5329,0,0,1,3.1-.8c2.9,0,3.6,2,3.6,3.8v3.5a8.9547,8.9547,0,0,0,.2,2.3H49.5Zm-.3-4.8c-1.9,0-4,.3-4,2.1a1.477,1.477,0,0,0,1.4,1.6h.2a2.4662,2.4662,0,0,0,2.3-1.6,1.0871,1.0871,0,0,0,.1-.5Z" fill="#8d8d8d"/><path d="M53.5,1030.9c0-.6.1-1.6.1-2.4v-11.4h1.7v5.9h0a3.5145,3.5145,0,0,1,3.2-1.7c2.3,0,4,1.9,4,4.8,0,3.4-2.1,5-4.2,5a3.1791,3.1791,0,0,1-3.1-1.8h-.1l-.1,1.6Zm1.8-3.8a1.2679,1.2679,0,0,0,.1.6,2.59,2.59,0,0,0,2.6,2c1.8,0,2.9-1.5,2.9-3.6,0-1.9-1-3.5-2.8-3.5a2.7646,2.7646,0,0,0-2.6,2.1,1.7018,1.7018,0,0,0-.1.7l-.1,1.7Z" fill="#8d8d8d"/><path d="M73.2,1026.1a4.6724,4.6724,0,0,1-4.2,5h-.5a4.4985,4.4985,0,0,1-4.5-4.8,4.653,4.653,0,0,1,4.7-5A4.4981,4.4981,0,0,1,73.2,1026.1Zm-7.5.1c0,2.1,1.2,3.6,2.9,3.6,1.6,0,2.9-1.5,2.9-3.6,0-1.6-.8-3.6-2.8-3.6s-3,1.8-3,3.6Z" fill="#8d8d8d"/><path d="M75.3,1024.4a25.3221,25.3221,0,0,0-.1-2.9h1.5l.1,1.8h.1a2.8863,2.8863,0,0,1,2.6-2.1.9015.9015,0,0,1,.5.1v1.6c-.2,0-.4-.1-.6-.1a2.38,2.38,0,0,0-2.3,2.2c0,.3-.1.5-.1.8v5H75.3Z" fill="#8d8d8d"/><path d="M86.8,1030.9l-.1-1.2h-.1a3.5551,3.5551,0,0,1-2.9,1.4,2.6972,2.6972,0,0,1-2.9-2.5v-.2c0-2.3,2-3.5,5.6-3.5v-.2a1.9991,1.9991,0,0,0-1.7-2.2h-.5a3.9864,3.9864,0,0,0-2.4.7l-.4-1.1a5.5329,5.5329,0,0,1,3.1-.8c2.9,0,3.6,2,3.6,3.8v3.5a8.9547,8.9547,0,0,0,.2,2.3H86.8Zm-.3-4.8c-1.9,0-4,.3-4,2.1a1.477,1.477,0,0,0,1.4,1.6h.2a2.4662,2.4662,0,0,0,2.3-1.6,1.0871,1.0871,0,0,0,.1-.5Z" fill="#8d8d8d"/><path d="M97.6,1030.5a5.0251,5.0251,0,0,1-2.7.5,4.4727,4.4727,0,0,1-4.7-4.2v-.6a4.7892,4.7892,0,0,1,4.5-5h.5a6.8739,6.8739,0,0,1,2.4.5l-.4,1.3a3.4448,3.4448,0,0,0-2-.4,3.5128,3.5128,0,0,0-3.3,3.8,3.4706,3.4706,0,0,0,3.3,3.3,5.3742,5.3742,0,0,0,2.1-.5Z" fill="#8d8d8d"/><path d="M101.5,1018.9a1.1,1.1,0,1,1-2.2,0,1.0278,1.0278,0,0,1,1-1.1h.1a1.0492,1.0492,0,0,1,1.1,1.1Zm-1.9,12v-9.4h1.7v9.4Z" fill="#8d8d8d"/><path d="M112.7,1026.1a4.6724,4.6724,0,0,1-4.2,5H108a4.4985,4.4985,0,0,1-4.5-4.8,4.653,4.653,0,0,1,4.7-5A4.498,4.498,0,0,1,112.7,1026.1Zm-7.5.1c0,2.1,1.2,3.6,2.9,3.6,1.6,0,2.9-1.5,2.9-3.6,0-1.6-.8-3.6-2.8-3.6-2.1,0-3,1.8-3,3.6Zm5.4-8.8-2.4,2.8H107l1.7-2.8Z" fill="#8d8d8d"/><path d="M124.5,1024.6a29.1208,29.1208,0,0,0-.1-3.1h1.5l.1,1.6h0a3.5635,3.5635,0,0,1,3.3-1.8c2.3,0,4,1.9,4,4.8,0,3.4-2.1,5-4.3,5a3.0715,3.0715,0,0,1-2.9-1.5h0v5.1h-1.7Zm1.7,2.5a1.7013,1.7013,0,0,0,.1.7,2.59,2.59,0,0,0,2.6,2c1.8,0,2.9-1.5,2.9-3.6,0-1.9-1-3.5-2.8-3.5a2.7647,2.7647,0,0,0-2.6,2.1,1.7018,1.7018,0,0,0-.1.7Z" fill="#8d8d8d"/><path d="M135.6,1024.4a25.3221,25.3221,0,0,0-.1-2.9H137l.1,1.8h.1a2.8863,2.8863,0,0,1,2.6-2.1.9015.9015,0,0,1,.5.1v1.6c-.2,0-.4-.1-.6-.1a2.38,2.38,0,0,0-2.3,2.2c0,.3-.1.5-.1.8v5h-1.7Z" fill="#8d8d8d"/><path d="M150.2,1026.1a4.6724,4.6724,0,0,1-4.2,5h-.5a4.4985,4.4985,0,0,1-4.5-4.8,4.653,4.653,0,0,1,4.7-5C148.4,1021.3,150.2,1023.3,150.2,1026.1Zm-7.4.1c0,2.1,1.2,3.6,2.9,3.6,1.6,0,2.9-1.5,2.9-3.6,0-1.6-.8-3.6-2.8-3.6s-3,1.8-3,3.6Zm2.2-8.8,1.7,2.8h-1.2l-2.4-2.8Z" fill="#8d8d8d"/><path d="M152.4,1024.6a29.1208,29.1208,0,0,0-.1-3.1h1.5l.1,1.6h0a3.5635,3.5635,0,0,1,3.3-1.8c2.3,0,4,1.9,4,4.8,0,3.4-2.1,5-4.3,5a3.0715,3.0715,0,0,1-2.9-1.5h0v5.1h-1.7Zm1.6,2.5a1.7013,1.7013,0,0,0,.1.7,2.59,2.59,0,0,0,2.6,2c1.8,0,2.9-1.5,2.9-3.6,0-1.9-1-3.5-2.8-3.5a2.7647,2.7647,0,0,0-2.6,2.1,1.7018,1.7018,0,0,0-.1.7Z" fill="#8d8d8d"/><path d="M165.3,1018.9a.9721.9721,0,0,1-1.1,1,1.0021,1.0021,0,0,1-1-1,1.0278,1.0278,0,0,1,1-1.1h.1a1.0287,1.0287,0,0,1,1,1.1Zm-1.9,12v-9.4h1.7v9.4Z" fill="#8d8d8d"/><path d="M173.1,1030.9l-.1-1.2h-.1a3.5551,3.5551,0,0,1-2.9,1.4,2.6972,2.6972,0,0,1-2.9-2.5v-.2c0-2.3,2-3.5,5.6-3.5v-.2a1.9991,1.9991,0,0,0-1.7-2.2h-.5a3.9864,3.9864,0,0,0-2.4.7l-.4-1.1a5.5329,5.5329,0,0,1,3.1-.8c2.9,0,3.6,2,3.6,3.8v3.5a8.9547,8.9547,0,0,0,.2,2.3h-1.5Zm-.2-4.8c-1.9,0-4,.3-4,2.1a1.477,1.477,0,0,0,1.4,1.6h.2a2.4662,2.4662,0,0,0,2.3-1.6,1.0871,1.0871,0,0,0,.1-.5Z" fill="#8d8d8d"/><path d="M195.1,1017.1v11.4a17.7234,17.7234,0,0,0,.1,2.4h-1.5l-.1-1.6h0a3.3206,3.3206,0,0,1-3.2,1.8c-2.3,0-4-1.9-4-4.8,0-3.1,1.9-5,4.2-5a3.1315,3.1315,0,0,1,2.8,1.4h0v-5.6Zm-1.7,8.2a1.7013,1.7013,0,0,0-.1-.7,2.56,2.56,0,0,0-2.5-2c-1.8,0-2.8,1.6-2.8,3.6,0,1.9.9,3.5,2.8,3.5a2.58,2.58,0,0,0,2.5-2,1.7018,1.7018,0,0,0,.1-.7Z" fill="#8d8d8d"/><path d="M198.9,1026.5a3.0992,3.0992,0,0,0,2.7,3.3h.5a5.7515,5.7515,0,0,0,2.6-.5l.3,1.2a8.5334,8.5334,0,0,1-3.1.6,4.297,4.297,0,0,1-4.6-4.1v-.7c0-2.8,1.7-5.1,4.4-5.1,3.1,0,3.9,2.7,3.9,4.4a2.2018,2.2018,0,0,1-.1.8Zm5-1.2c0-1.1-.4-2.8-2.4-2.8a2.7566,2.7566,0,0,0-2.6,2.8Z" fill="#8d8d8d"/><path d="M207.7,1017.1h1.7v13.8h-1.7Z" fill="#8d8d8d"/><path d="M222,1017.8h1.7v11.7h5.6v1.4H222Z" fill="#8d8d8d"/><path d="M233.3,1026.8l-1.4,4.1h-1.7l4.4-13.1h2l4.5,13.1h-1.8l-1.4-4.1Zm4.3-1.3-1.3-3.8c-.3-.9-.5-1.6-.7-2.4h0a21.7242,21.7242,0,0,1-.7,2.4l-1.3,3.8Z" fill="#8d8d8d"/><path d="M243,1018a16.2792,16.2792,0,0,1,3.1-.3,5.2263,5.2263,0,0,1,3.6,1,2.8446,2.8446,0,0,1,1.1,2.3,3.0917,3.0917,0,0,1-2.2,2.9h0a3.3262,3.3262,0,0,1,2.7,3.3,3.6308,3.6308,0,0,1-1.1,2.6q-1.35,1.2-4.5,1.2a10.9782,10.9782,0,0,1-2.6-.2Zm1.7,5.3h1.5c1.8,0,2.8-.9,2.8-2.2,0-1.5-1.2-2.1-2.9-2.1a7.5687,7.5687,0,0,0-1.5.1l.1,4.2Zm0,6.3a6.6085,6.6085,0,0,0,1.4.1c1.7,0,3.4-.6,3.4-2.5,0-1.8-1.5-2.5-3.4-2.5h-1.4Z" fill="#8d8d8d"/><path d="M255.6,1018.8v2.7H258v1.3h-2.4v5.1c0,1.2.3,1.8,1.3,1.8a3.4019,3.4019,0,0,0,1-.1l.1,1.3a3.887,3.887,0,0,1-1.5.2,2.2682,2.2682,0,0,1-1.8-.7,3.5607,3.5607,0,0,1-.7-2.4v-5.1h-1.5v-1.3H254v-2.3Z" fill="#8d8d8d"/><path d="M267.8,1028.3a20.9228,20.9228,0,0,0,.1,2.6h-1.5l-.1-1.5h0a3.26,3.26,0,0,1-3.1,1.7c-1.5,0-3.2-.8-3.2-4.1v-5.5h1.7v5.2c0,1.8.5,3,2.1,3a2.4661,2.4661,0,0,0,2.3-1.6,2.92,2.92,0,0,0,.2-.9v-5.8H268Z" fill="#8d8d8d"/><path d="M270.6,1024.4a25.3221,25.3221,0,0,0-.1-2.9H272l.1,1.8h.1a2.8863,2.8863,0,0,1,2.6-2.1.9015.9015,0,0,1,.5.1v1.6c-.2,0-.4-.1-.6-.1a2.38,2.38,0,0,0-2.3,2.2c0,.3-.1.5-.1.8v5h-1.7Z" fill="#8d8d8d"/><path d="M278.9,1018.9a1.1,1.1,0,1,1-2.2,0,1.0278,1.0278,0,0,1,1-1.1h.1a1.0492,1.0492,0,0,1,1.1,1.1Zm-1.9,12v-9.4h1.7v9.4Z" fill="#8d8d8d"/><path d="M281.3,1029.2a4.7548,4.7548,0,0,0,2.3.7c1.2,0,1.8-.6,1.8-1.4s-.5-1.3-1.7-1.7c-1.7-.6-2.5-1.5-2.5-2.7a2.9086,2.9086,0,0,1,3.2-2.8,4.6462,4.6462,0,0,1,2.3.6l-.4,1.2a3.1976,3.1976,0,0,0-1.9-.5c-1,0-1.6.6-1.6,1.3,0,.8.6,1.1,1.8,1.6,1.6.6,2.5,1.4,2.5,2.8,0,1.6-1.3,2.8-3.5,2.8a5.835,5.835,0,0,1-2.6-.6Z" fill="#8d8d8d"/><path d="M289.3,1024a18.5206,18.5206,0,0,0-.1-2.5h1.5l.1,1.5h.1a3.1135,3.1135,0,0,1,3-1.7,2.79,2.79,0,0,1,2.7,1.9h0a4.0014,4.0014,0,0,1,1-1.2,3.1387,3.1387,0,0,1,2.1-.7c1.2,0,3.1.8,3.1,4.1v5.5h-1.7v-5.3c0-1.8-.7-2.9-2-2.9a2.23,2.23,0,0,0-2,1.6,2.7689,2.7689,0,0,0-.1.9v5.8h-1.7v-5.6c0-1.5-.7-2.6-2-2.6a2.5794,2.5794,0,0,0-2.3,2.5v5.7h-1.7Z" fill="#8d8d8d"/><path d="M306.4,1026.5a3.0992,3.0992,0,0,0,2.7,3.3h.5a5.7515,5.7515,0,0,0,2.6-.5l.3,1.2a8.5334,8.5334,0,0,1-3.1.6,4.297,4.297,0,0,1-4.6-4.1v-.7c0-2.8,1.7-5.1,4.4-5.1,3.1,0,3.9,2.7,3.9,4.4a2.2018,2.2018,0,0,1-.1.8Zm5-1.2c0-1.1-.4-2.8-2.4-2.8a2.7566,2.7566,0,0,0-2.6,2.8Z" fill="#8d8d8d"/><path d="M314.8,1034.1v-.4a4.193,4.193,0,0,0,1.4-.9,2.2049,2.2049,0,0,0,.6-1.5l-.1-.3-.1-.1-.8.3c-.7,0-1-.4-1-1.1a.91.91,0,0,1,.4-.8,1.2228,1.2228,0,0,1,.9-.3,1.5251,1.5251,0,0,1,1.2.7,2.2,2.2,0,0,1,.4,1.3C317.6,1032.5,316.7,1033.5,314.8,1034.1Z" fill="#8d8d8d"/><path d="M330.7,1026.5a3.0992,3.0992,0,0,0,2.7,3.3h.5a5.7515,5.7515,0,0,0,2.6-.5l.3,1.2a8.5334,8.5334,0,0,1-3.1.6,4.297,4.297,0,0,1-4.6-4.1v-.7c0-2.8,1.7-5.1,4.4-5.1,3.1,0,3.9,2.7,3.9,4.4a2.2018,2.2018,0,0,1-.1.8Zm5-1.2c0-1.1-.4-2.8-2.4-2.8a2.7566,2.7566,0,0,0-2.6,2.8Z" fill="#8d8d8d"/><path d="M339.4,1024a18.5206,18.5206,0,0,0-.1-2.5h1.5l.1,1.6h0a3.5318,3.5318,0,0,1,3.1-1.8c1.3,0,3.3.8,3.3,4v5.6h-1.7v-5.4c0-1.5-.6-2.8-2.2-2.8a2.37,2.37,0,0,0-2.3,1.7,2.2024,2.2024,0,0,0-.1.8v5.6h-1.7V1024Z" fill="#8d8d8d"/><path d="M359.8,1030.9c0-.6.1-1.6.1-2.4v-11.4h1.7v5.9h0a3.5145,3.5145,0,0,1,3.2-1.7c2.3,0,4,1.9,4,4.8,0,3.4-2.1,5-4.2,5a3.1791,3.1791,0,0,1-3.1-1.8h-.1l-.1,1.6Zm1.8-3.8a1.2679,1.2679,0,0,0,.1.6,2.59,2.59,0,0,0,2.6,2c1.8,0,2.9-1.5,2.9-3.6,0-1.9-1-3.5-2.8-3.5a2.7646,2.7646,0,0,0-2.6,2.1,1.7018,1.7018,0,0,0-.1.7Z" fill="#8d8d8d"/><path d="M376.2,1030.9l-.1-1.2H376a3.5551,3.5551,0,0,1-2.9,1.4,2.6972,2.6972,0,0,1-2.9-2.5v-.2c0-2.3,2-3.5,5.6-3.5v-.2a1.9991,1.9991,0,0,0-1.7-2.2h-.5a3.9864,3.9864,0,0,0-2.4.7l-.4-1.1a5.5329,5.5329,0,0,1,3.1-.8c2.9,0,3.6,2,3.6,3.8v3.5a8.9547,8.9547,0,0,0,.2,2.3h-1.5Zm-.3-4.8c-1.9,0-4,.3-4,2.1a1.477,1.477,0,0,0,1.4,1.6h.2a2.4662,2.4662,0,0,0,2.3-1.6,1.0871,1.0871,0,0,0,.1-.5Z" fill="#8d8d8d"/><path d="M380.1,1029.2a4.7548,4.7548,0,0,0,2.3.7c1.2,0,1.8-.6,1.8-1.4s-.5-1.3-1.7-1.7c-1.7-.6-2.5-1.5-2.5-2.7a2.9086,2.9086,0,0,1,3.2-2.8,4.6462,4.6462,0,0,1,2.3.6l-.4,1.2a3.1974,3.1974,0,0,0-1.9-.5c-1,0-1.6.6-1.6,1.3,0,.8.6,1.1,1.8,1.6,1.6.6,2.5,1.4,2.5,2.8,0,1.6-1.3,2.8-3.5,2.8a5.8344,5.8344,0,0,1-2.6-.6Z" fill="#8d8d8d"/><path d="M388.9,1026.5a3.0992,3.0992,0,0,0,2.7,3.3h.5a5.7515,5.7515,0,0,0,2.6-.5l.3,1.2a8.5334,8.5334,0,0,1-3.1.6,4.297,4.297,0,0,1-4.6-4.1v-.7c0-2.8,1.7-5.1,4.4-5.1,3.1,0,3.9,2.7,3.9,4.4a2.2018,2.2018,0,0,1-.1.8Zm5.1-1.2c0-1.1-.4-2.8-2.4-2.8a2.7566,2.7566,0,0,0-2.6,2.8Z" fill="#8d8d8d"/><path d="M412.6,1030.9l-.1-1.2h-.1a3.5551,3.5551,0,0,1-2.9,1.4,2.6972,2.6972,0,0,1-2.9-2.5v-.2c0-2.3,2-3.5,5.6-3.5v-.2a1.9991,1.9991,0,0,0-1.7-2.2H410a3.9864,3.9864,0,0,0-2.4.7l-.4-1.1a5.5329,5.5329,0,0,1,3.1-.8c2.9,0,3.6,2,3.6,3.8v3.5a8.9547,8.9547,0,0,0,.2,2.3h-1.5Zm-.2-4.8c-1.9,0-4,.3-4,2.1a1.477,1.477,0,0,0,1.4,1.6h.2a2.4662,2.4662,0,0,0,2.3-1.6,1.0871,1.0871,0,0,0,.1-.5Z" fill="#8d8d8d"/><path d="M434.6,1017.1v11.4a17.7234,17.7234,0,0,0,.1,2.4h-1.5l-.1-1.6h0a3.3206,3.3206,0,0,1-3.2,1.8c-2.3,0-4-1.9-4-4.8,0-3.1,1.9-5,4.2-5a3.1315,3.1315,0,0,1,2.8,1.4h0v-5.6Zm-1.7,8.2a1.7013,1.7013,0,0,0-.1-.7,2.56,2.56,0,0,0-2.5-2c-1.8,0-2.8,1.6-2.8,3.6,0,1.9.9,3.5,2.8,3.5a2.58,2.58,0,0,0,2.5-2,1.7018,1.7018,0,0,0,.1-.7Z" fill="#8d8d8d"/><path d="M442.6,1030.9l-.1-1.2h-.1a3.5551,3.5551,0,0,1-2.9,1.4,2.6972,2.6972,0,0,1-2.9-2.5v-.2c0-2.3,2-3.5,5.6-3.5v-.2a1.9991,1.9991,0,0,0-1.7-2.2H440a3.9864,3.9864,0,0,0-2.4.7l-.4-1.1a5.5329,5.5329,0,0,1,3.1-.8c2.9,0,3.6,2,3.6,3.8v3.5a8.9547,8.9547,0,0,0,.2,2.3h-1.5Zm-.2-4.8c-1.9,0-4,.3-4,2.1a1.477,1.477,0,0,0,1.4,1.6h.2a2.4662,2.4662,0,0,0,2.3-1.6,1.0871,1.0871,0,0,0,.1-.5Z" fill="#8d8d8d"/><path d="M454.9,1017.1v11.4a17.7234,17.7234,0,0,0,.1,2.4h-1.5l-.1-1.6h0a3.3206,3.3206,0,0,1-3.2,1.8c-2.3,0-4-1.9-4-4.8,0-3.1,1.9-5,4.2-5a3.1315,3.1315,0,0,1,2.8,1.4h0v-5.6Zm-1.7,8.2a1.7013,1.7013,0,0,0-.1-.7,2.56,2.56,0,0,0-2.5-2c-1.8,0-2.8,1.6-2.8,3.6,0,1.9.9,3.5,2.8,3.5a2.58,2.58,0,0,0,2.5-2,1.7018,1.7018,0,0,0,.1-.7Z" fill="#8d8d8d"/><path d="M458.7,1026.5a3.0992,3.0992,0,0,0,2.7,3.3h.5a5.7515,5.7515,0,0,0,2.6-.5l.3,1.2a8.5334,8.5334,0,0,1-3.1.6,4.297,4.297,0,0,1-4.6-4.1v-.7c0-2.8,1.7-5.1,4.4-5.1,3.1,0,3.9,2.7,3.9,4.4a2.2018,2.2018,0,0,1-.1.8Zm5-1.2c0-1.1-.4-2.8-2.4-2.8a2.7566,2.7566,0,0,0-2.6,2.8Z" fill="#8d8d8d"/><path d="M467.2,1029.2a4.7548,4.7548,0,0,0,2.3.7c1.2,0,1.8-.6,1.8-1.4s-.5-1.3-1.7-1.7c-1.7-.6-2.5-1.5-2.5-2.7a2.9086,2.9086,0,0,1,3.2-2.8,4.6462,4.6462,0,0,1,2.3.6l-.4,1.2a3.1974,3.1974,0,0,0-1.9-.5c-1,0-1.6.6-1.6,1.3,0,.8.6,1.1,1.8,1.6,1.6.6,2.5,1.4,2.5,2.8,0,1.6-1.3,2.8-3.5,2.8a5.8344,5.8344,0,0,1-2.6-.6Z" fill="#8d8d8d"/><path d="M492.9,1017.1v11.4a17.7234,17.7234,0,0,0,.1,2.4h-1.5l-.1-1.6h0a3.3206,3.3206,0,0,1-3.2,1.8c-2.3,0-4-1.9-4-4.8,0-3.1,1.9-5,4.2-5a3.1315,3.1315,0,0,1,2.8,1.4h0v-5.6Zm-1.7,8.2a1.7013,1.7013,0,0,0-.1-.7,2.56,2.56,0,0,0-2.5-2c-1.8,0-2.8,1.6-2.8,3.6,0,1.9.9,3.5,2.8,3.5a2.58,2.58,0,0,0,2.5-2,1.7018,1.7018,0,0,0,.1-.7Z" fill="#8d8d8d"/><path d="M496.7,1026.5a3.0992,3.0992,0,0,0,2.7,3.3h.5a5.7515,5.7515,0,0,0,2.6-.5l.3,1.2a8.5334,8.5334,0,0,1-3.1.6,4.297,4.297,0,0,1-4.6-4.1v-.7c0-2.8,1.7-5.1,4.4-5.1,3.1,0,3.9,2.7,3.9,4.4a2.2018,2.2018,0,0,1-.1.8Zm5-1.2c0-1.1-.4-2.8-2.4-2.8a2.7566,2.7566,0,0,0-2.6,2.8Z" fill="#8d8d8d"/><path d="M515.2,1017.1h1.7v13.8h-1.7Z" fill="#8d8d8d"/><path d="M521,1017.6l-.3,4.7h-1l-.3-4.7Z" fill="#8d8d8d"/><path d="M530.3,1024.8h-5.1v4.7h5.7v1.4h-7.4v-13.1h7.1v1.4h-5.4v4.1h5.1v1.5Z" fill="#8d8d8d"/><path d="M533,1024a18.5206,18.5206,0,0,0-.1-2.5h1.5l.1,1.6h0a3.5318,3.5318,0,0,1,3.1-1.8c1.3,0,3.3.8,3.3,4v5.6h-1.7v-5.4c0-1.5-.6-2.8-2.2-2.8a2.37,2.37,0,0,0-2.3,1.7,2.2024,2.2024,0,0,0-.1.8v5.6h-1.7Z" fill="#8d8d8d"/><path d="M550.1,1029.4h0a3.6829,3.6829,0,0,1-3.1,1.7c-2.2,0-4-1.9-4-4.8,0-3.5,2.3-5.1,4.3-5.1a3.1535,3.1535,0,0,1,2.9,1.6h0l.1-1.4h1.6c0,.8-.1,1.6-.1,2.6v10.7h-1.7Zm0-4.1a1.7013,1.7013,0,0,0-.1-.7,2.5527,2.5527,0,0,0-2.4-1.9c-1.8,0-2.8,1.5-2.8,3.6,0,1.9.9,3.5,2.8,3.5a2.5527,2.5527,0,0,0,2.4-1.9,2.2018,2.2018,0,0,0,.1-.8Z" fill="#8d8d8d"/><path d="M562.5,1028.3a20.9228,20.9228,0,0,0,.1,2.6h-1.5l-.1-1.5h0a3.26,3.26,0,0,1-3.1,1.7c-1.5,0-3.2-.8-3.2-4.1v-5.5h1.7v5.2c0,1.8.5,3,2.1,3a2.4661,2.4661,0,0,0,2.3-1.6,2.92,2.92,0,0,0,.2-.9v-5.8h1.7Z" fill="#8d8d8d"/><path d="M566.3,1026.5a3.0992,3.0992,0,0,0,2.7,3.3h.5a5.7515,5.7515,0,0,0,2.6-.5l.3,1.2a8.5334,8.5334,0,0,1-3.1.6,4.297,4.297,0,0,1-4.6-4.1v-.7c0-2.8,1.7-5.1,4.4-5.1,3.1,0,3.9,2.7,3.9,4.4a2.2018,2.2018,0,0,1-.1.8Zm5-1.2c0-1.1-.4-2.8-2.4-2.8a2.7566,2.7566,0,0,0-2.6,2.8Z" fill="#8d8d8d"/><path d="M574.8,1029.2a4.7548,4.7548,0,0,0,2.3.7c1.2,0,1.8-.6,1.8-1.4s-.5-1.3-1.7-1.7c-1.7-.6-2.5-1.5-2.5-2.7a2.9086,2.9086,0,0,1,3.2-2.8,4.6465,4.6465,0,0,1,2.3.6l-.4,1.2a3.1973,3.1973,0,0,0-1.9-.5c-1,0-1.6.6-1.6,1.3,0,.8.6,1.1,1.8,1.6,1.6.6,2.5,1.4,2.5,2.8,0,1.6-1.3,2.8-3.5,2.8a5.8344,5.8344,0,0,1-2.6-.6Z" fill="#8d8d8d"/><path d="M584.8,1018.8v2.7h2.4v1.3h-2.4v5.1c0,1.2.3,1.8,1.3,1.8a3.4019,3.4019,0,0,0,1-.1l.1,1.3a3.887,3.887,0,0,1-1.5.2,2.2679,2.2679,0,0,1-1.8-.7,3.5607,3.5607,0,0,1-.7-2.4v-5.1h-1.5v-1.3h1.5v-2.3Z" fill="#8d8d8d"/><path d="M594.4,1030.9l-.1-1.2h-.1a3.5552,3.5552,0,0,1-2.9,1.4,2.6972,2.6972,0,0,1-2.9-2.5v-.2c0-2.3,2-3.5,5.6-3.5v-.2a1.9991,1.9991,0,0,0-1.7-2.2h-.5a3.9864,3.9864,0,0,0-2.4.7l-.4-1.1a5.5332,5.5332,0,0,1,3.1-.8c2.9,0,3.6,2,3.6,3.8v3.5a8.9547,8.9547,0,0,0,.2,2.3h-1.5Zm-.3-4.8c-1.9,0-4,.3-4,2.1a1.477,1.477,0,0,0,1.4,1.6h.2a2.4662,2.4662,0,0,0,2.3-1.6,1.0871,1.0871,0,0,0,.1-.5Z" fill="#8d8d8d"/><path d="M616.4,1017.1v11.4a17.7234,17.7234,0,0,0,.1,2.4H615l-.1-1.6h0a3.3206,3.3206,0,0,1-3.2,1.8c-2.3,0-4-1.9-4-4.8,0-3.1,1.9-5,4.2-5a3.1315,3.1315,0,0,1,2.8,1.4h0v-5.6Zm-1.8,8.2a1.7013,1.7013,0,0,0-.1-.7,2.56,2.56,0,0,0-2.5-2c-1.8,0-2.8,1.6-2.8,3.6,0,1.9.9,3.5,2.8,3.5a2.58,2.58,0,0,0,2.5-2,1.7018,1.7018,0,0,0,.1-.7Z" fill="#8d8d8d"/><path d="M620.5,1017.6l-.3,4.7h-1l-.3-4.7Z" fill="#8d8d8d"/><path d="M631.2,1026.1a4.6724,4.6724,0,0,1-4.2,5h-.5a4.4985,4.4985,0,0,1-4.5-4.8,4.653,4.653,0,0,1,4.7-5C629.4,1021.3,631.2,1023.3,631.2,1026.1Zm-7.5.1c0,2.1,1.2,3.6,2.9,3.6,1.6,0,2.9-1.5,2.9-3.6,0-1.6-.8-3.6-2.8-3.6s-3,1.8-3,3.6Z" fill="#8d8d8d"/><path d="M640,1030.5a5.0251,5.0251,0,0,1-2.7.5,4.4727,4.4727,0,0,1-4.7-4.2v-.6a4.7892,4.7892,0,0,1,4.5-5h.5a6.8739,6.8739,0,0,1,2.4.5l-.4,1.3a3.4448,3.4448,0,0,0-2-.4,3.5128,3.5128,0,0,0-3.3,3.8,3.4706,3.4706,0,0,0,3.3,3.3,5.3742,5.3742,0,0,0,2.1-.5Z" fill="#8d8d8d"/><path d="M649.9,1028.3a20.9228,20.9228,0,0,0,.1,2.6h-1.5l-.1-1.5h0a3.26,3.26,0,0,1-3.1,1.7c-1.5,0-3.2-.8-3.2-4.1v-5.5h1.7v5.2c0,1.8.5,3,2.1,3a2.4661,2.4661,0,0,0,2.3-1.6,2.92,2.92,0,0,0,.2-.9v-5.8h1.7Z" fill="#8d8d8d"/><path d="M652.7,1024.6a29.1208,29.1208,0,0,0-.1-3.1h1.5l.1,1.6h0a3.5635,3.5635,0,0,1,3.3-1.8c2.3,0,4,1.9,4,4.8,0,3.4-2.1,5-4.3,5a3.0715,3.0715,0,0,1-2.9-1.5h0v5.1h-1.7Zm1.7,2.5a1.7013,1.7013,0,0,0,.1.7,2.59,2.59,0,0,0,2.6,2c1.8,0,2.9-1.5,2.9-3.6,0-1.9-1-3.5-2.8-3.5a2.7647,2.7647,0,0,0-2.6,2.1,1.7033,1.7033,0,0,0-.1.7v1.6h-.1Z" fill="#8d8d8d"/><path d="M669,1030.9l-.1-1.2h-.1a3.5551,3.5551,0,0,1-2.9,1.4,2.6972,2.6972,0,0,1-2.9-2.5v-.2c0-2.3,2-3.5,5.6-3.5v-.2a1.9991,1.9991,0,0,0-1.7-2.2h-.5a3.9867,3.9867,0,0,0-2.4.7l-.4-1.1a5.5329,5.5329,0,0,1,3.1-.8c2.9,0,3.6,2,3.6,3.8v3.5a8.9547,8.9547,0,0,0,.2,2.3H669Zm-.3-4.8c-1.9,0-4,.3-4,2.1a1.477,1.477,0,0,0,1.4,1.6h.2a2.4661,2.4661,0,0,0,2.3-1.6,1.0871,1.0871,0,0,0,.1-.5Z" fill="#8d8d8d"/><path d="M679.8,1030.5a5.0251,5.0251,0,0,1-2.7.5,4.4727,4.4727,0,0,1-4.7-4.2v-.6a4.7892,4.7892,0,0,1,4.5-5h.5a6.8743,6.8743,0,0,1,2.4.5l-.4,1.3a3.4448,3.4448,0,0,0-2-.4,3.5127,3.5127,0,0,0-3.3,3.8,3.4706,3.4706,0,0,0,3.3,3.3,5.3733,5.3733,0,0,0,2.1-.5Z" fill="#8d8d8d"/><path d="M683.7,1018.9a1.1,1.1,0,1,1-2.2,0h0a1.0278,1.0278,0,0,1,1-1.1h.1a1.0492,1.0492,0,0,1,1.1,1.1Zm-1.9,12v-9.4h1.7v9.4Z" fill="#8d8d8d"/><path d="M694.9,1026.1a4.6021,4.6021,0,0,1-4.2,5h-.5a4.4985,4.4985,0,0,1-4.5-4.8,4.653,4.653,0,0,1,4.7-5A4.498,4.498,0,0,1,694.9,1026.1Zm-7.5.1c0,2.1,1.2,3.6,2.9,3.6,1.6,0,2.9-1.5,2.9-3.6,0-1.6-.8-3.6-2.8-3.6-2.1,0-3,1.8-3,3.6Zm5.4-8.8-2.4,2.8h-1.2l1.7-2.8Z" fill="#8d8d8d"/><path d="M707.7,1026.5a3.0992,3.0992,0,0,0,2.7,3.3h.5a5.7515,5.7515,0,0,0,2.6-.5l.3,1.2a8.5334,8.5334,0,0,1-3.1.6,4.297,4.297,0,0,1-4.6-4.1v-.7c0-2.8,1.7-5.1,4.4-5.1,3.1,0,3.9,2.7,3.9,4.4a2.2018,2.2018,0,0,1-.1.8Zm5-1.2c0-1.1-.4-2.8-2.4-2.8a2.7566,2.7566,0,0,0-2.6,2.8Z" fill="#8d8d8d"/><path d="M716.4,1024a18.5206,18.5206,0,0,0-.1-2.5h1.5l.1,1.6h0a3.5318,3.5318,0,0,1,3.1-1.8c1.3,0,3.3.8,3.3,4v5.6h-1.7v-5.4c0-1.5-.6-2.8-2.2-2.8a2.37,2.37,0,0,0-2.3,1.7,2.2024,2.2024,0,0,0-.1.8v5.6h-1.7Z" fill="#8d8d8d"/><path d="M742.1,1030.9l-.1-1.2h-.1a3.5551,3.5551,0,0,1-2.9,1.4,2.6972,2.6972,0,0,1-2.9-2.5v-.2c0-2.3,2-3.5,5.6-3.5v-.2a1.9992,1.9992,0,0,0-1.7-2.2h-.5a3.9864,3.9864,0,0,0-2.4.7l-.4-1.1a5.5329,5.5329,0,0,1,3.1-.8c2.9,0,3.6,2,3.6,3.8v3.5a8.95,8.95,0,0,0,.2,2.3h-1.5Zm-.2-4.8c-1.9,0-4,.3-4,2.1a1.477,1.477,0,0,0,1.4,1.6h.2a2.466,2.466,0,0,0,2.3-1.6,1.0871,1.0871,0,0,0,.1-.5Z" fill="#8d8d8d"/><path d="M746.3,1017.1H748v13.8h-1.7Z" fill="#8d8d8d"/><path d="M750.8,1017.1h1.7v13.8h-1.7Z" fill="#8d8d8d"/><path d="M763.9,1026.1a4.6021,4.6021,0,0,1-4.2,5h-.5a4.4985,4.4985,0,0,1-4.5-4.8,4.653,4.653,0,0,1,4.7-5C762.1,1021.3,763.9,1023.3,763.9,1026.1Zm-7.4.1c0,2.1,1.2,3.6,2.9,3.6,1.6,0,2.9-1.5,2.9-3.6,0-1.6-.8-3.6-2.8-3.6-2.2,0-3,1.8-3,3.6Z" fill="#8d8d8d"/><path d="M768.1,1018.8v2.7h2.4v1.3h-2.4v5.1c0,1.2.3,1.8,1.3,1.8a3.4019,3.4019,0,0,0,1-.1l.1,1.3a3.887,3.887,0,0,1-1.5.2,2.2679,2.2679,0,0,1-1.8-.7,3.5613,3.5613,0,0,1-.7-2.4v-5.1H765v-1.3h1.5v-2.3Z" fill="#8d8d8d"/><path d="M770.2,1033.6a3.1578,3.1578,0,0,0,1.9-.7c.5-.5.6-1.3.6-3.5v-7.9h1.7v8.5a5.514,5.514,0,0,1-1.1,3.9,4.3564,4.3564,0,0,1-2.9,1.1Zm4.4-14.7a.9448.9448,0,0,1-1,1h-.1a.9448.9448,0,0,1-1-1v-.1a1.0278,1.0278,0,0,1,1-1.1h.1a1.1989,1.1989,0,0,1,1,1.2Z" fill="#8d8d8d"/><path d="M782.4,1030.9l-.1-1.2h-.1a3.5552,3.5552,0,0,1-2.9,1.4,2.6972,2.6972,0,0,1-2.9-2.5v-.2c0-2.3,2-3.5,5.6-3.5v-.2a1.9991,1.9991,0,0,0-1.7-2.2h-.5a3.9864,3.9864,0,0,0-2.4.7l-.4-1.1a5.5332,5.5332,0,0,1,3.1-.8c2.9,0,3.6,2,3.6,3.8v3.5a8.9547,8.9547,0,0,0,.2,2.3h-1.5Zm-.2-4.8c-1.9,0-4,.3-4,2.1a1.477,1.477,0,0,0,1.4,1.6h.2a2.4661,2.4661,0,0,0,2.3-1.6,1.0871,1.0871,0,0,0,.1-.5Z" fill="#8d8d8d"/><path d="M786.6,1024a18.5206,18.5206,0,0,0-.1-2.5H788l.1,1.5h.1a3.1134,3.1134,0,0,1,3-1.7,2.79,2.79,0,0,1,2.7,1.9h0a4,4,0,0,1,1-1.2,3.1385,3.1385,0,0,1,2.1-.7c1.2,0,3.1.8,3.1,4.1v5.5h-1.7v-5.3c0-1.8-.7-2.9-2-2.9a2.23,2.23,0,0,0-2,1.6,2.7689,2.7689,0,0,0-.1.9v5.8h-1.7v-5.6c0-1.5-.7-2.6-2-2.6a2.3483,2.3483,0,0,0-2.1,1.7,2.4875,2.4875,0,0,0-.1.8v5.7h-1.7Z" fill="#8d8d8d"/><path d="M803.7,1026.5a3.0992,3.0992,0,0,0,2.7,3.3h.5a5.7515,5.7515,0,0,0,2.6-.5l.3,1.2a8.5334,8.5334,0,0,1-3.1.6,4.297,4.297,0,0,1-4.6-4.1v-.7c0-2.8,1.7-5.1,4.4-5.1,3.1,0,3.9,2.7,3.9,4.4a2.2018,2.2018,0,0,1-.1.8Zm5-1.2c0-1.1-.4-2.8-2.4-2.8a2.7566,2.7566,0,0,0-2.6,2.8Z" fill="#8d8d8d"/><path d="M812.5,1024a18.5206,18.5206,0,0,0-.1-2.5h1.5l.1,1.6h0a3.5318,3.5318,0,0,1,3.1-1.8c1.3,0,3.3.8,3.3,4v5.6h-1.7v-5.4c0-1.5-.6-2.8-2.2-2.8a2.37,2.37,0,0,0-2.3,1.7,2.2024,2.2024,0,0,0-.1.8v5.6h-1.7Z" fill="#8d8d8d"/><path d="M825.2,1018.8v2.7h2.4v1.3h-2.4v5.1c0,1.2.3,1.8,1.3,1.8a3.4019,3.4019,0,0,0,1-.1l.1,1.3a3.887,3.887,0,0,1-1.5.2,2.2682,2.2682,0,0,1-1.8-.7,3.5607,3.5607,0,0,1-.7-2.4v-5.1h-1.5v-1.3h1.5v-2.3Z" fill="#8d8d8d"/><path d="M829.3,1029.2a4.7548,4.7548,0,0,0,2.3.7c1.2,0,1.8-.6,1.8-1.4s-.5-1.3-1.7-1.7c-1.7-.6-2.5-1.5-2.5-2.7a2.9086,2.9086,0,0,1,3.2-2.8,4.6465,4.6465,0,0,1,2.3.6l-.4,1.2a3.1973,3.1973,0,0,0-1.9-.5c-1,0-1.6.6-1.6,1.3,0,.8.6,1.1,1.8,1.6,1.6.6,2.5,1.4,2.5,2.8,0,1.6-1.3,2.8-3.5,2.8a5.8344,5.8344,0,0,1-2.6-.6Z" fill="#8d8d8d"/><path d="M855.1,1017.1v11.4a17.7234,17.7234,0,0,0,.1,2.4h-1.5l-.1-1.6h0a3.3206,3.3206,0,0,1-3.2,1.8c-2.3,0-4-1.9-4-4.8,0-3.1,1.9-5,4.2-5a3.1315,3.1315,0,0,1,2.8,1.4h0v-5.6Zm-1.7,8.2a1.7013,1.7013,0,0,0-.1-.7,2.56,2.56,0,0,0-2.5-2c-1.8,0-2.8,1.6-2.8,3.6,0,1.9.9,3.5,2.8,3.5a2.58,2.58,0,0,0,2.5-2,1.7018,1.7018,0,0,0,.1-.7Z" fill="#8d8d8d"/><path d="M858.9,1026.5a3.0992,3.0992,0,0,0,2.7,3.3h.5a5.7512,5.7512,0,0,0,2.6-.5l.3,1.2a8.5334,8.5334,0,0,1-3.1.6,4.297,4.297,0,0,1-4.6-4.1v-.7c0-2.8,1.7-5.1,4.4-5.1,3.1,0,3.9,2.7,3.9,4.4a2.2018,2.2018,0,0,1-.1.8Zm5-1.2c0-1.1-.4-2.8-2.4-2.8a2.7566,2.7566,0,0,0-2.6,2.8Z" fill="#8d8d8d"/><path d="M877.3,1017.1H879v13.8h-1.7Z" fill="#8d8d8d"/><path d="M883.2,1017.6l-.3,4.7h-1l-.3-4.7Z" fill="#8d8d8d"/><path d="M887.3,1017.8v13.1h-1.7v-13.1Z" fill="#8d8d8d"/><path d="M890.3,1030.9v-13.1h1.8l4.2,6.6a25.488,25.488,0,0,1,2.3,4.3h0a45.2492,45.2492,0,0,1-.2-5.4v-5.5H900v13.1h-1.7l-4.2-6.6a37.5124,37.5124,0,0,1-2.4-4.4h-.1c.1,1.6.1,3.2.1,5.4v5.6Z" fill="#8d8d8d"/><path d="M909.8,1024.8h-5.1v4.7h5.7v1.4H903v-13.1h7.1v1.4h-5.4v4.1h5.1v1.5Z" fill="#8d8d8d"/><path d="M912.8,1029.4a1.0506,1.0506,0,0,1,1.8.7,1.1357,1.1357,0,0,1-.3.8.9667.9667,0,0,1-1.4,0h0a1.08,1.08,0,0,1-.3-.7A.7246.7246,0,0,1,912.8,1029.4Z" fill="#8d8d8d"/><text transform="translate(559.8112 616.8639)" font-size="22" fill="#012e68" font-family="OpenSans-Regular, Open Sans" style="isolation:isolate">Estrangers</text><text transform="translate(559.8112 653.15)" font-size="22" fill="#012e68" font-family="OpenSans-Regular, Open Sans" style="isolation:isolate">Domèstics</text><path d="M698.1,634.6h32.3A10.3919,10.3919,0,0,1,740.8,645h0a10.3919,10.3919,0,0,1-10.4,10.4H698.1A10.3919,10.3919,0,0,1,687.7,645h0A10.3285,10.3285,0,0,1,698.1,634.6Z" fill="#0cc"/><path d="M698.1,600.8h32.3a10.3919,10.3919,0,0,1,10.4,10.4h0a10.3919,10.3919,0,0,1-10.4,10.4H698.1a10.3919,10.3919,0,0,1-10.4-10.4h0A10.3285,10.3285,0,0,1,698.1,600.8Z" fill="#012e68"/><text transform="translate(93.9248 401.392)" font-size="35" fill="#036" font-family="OpenSans-SemiBold, Open Sans" font-weight="600" style="isolation:isolate">+60,8%</text><text transform="translate(102.6208 473.2187)" font-size="26" fill="#036" font-family="OpenSans-SemiBold, Open Sans" font-weight="600" style="isolation:isolate">Viatgers</text><text transform="translate(88.892 509.9863)" font-size="35" fill="#036" font-family="OpenSans-SemiBold, Open Sans" font-weight="600" style="isolation:isolate">408.567</text><text transform="translate(587.1868 401.3917)" font-size="35" fill="#036" font-family="OpenSans-SemiBold, Open Sans" font-weight="600" style="isolation:isolate">+73,2%</text><text transform="translate(561.3637 473.2187)" font-size="25" fill="#036" font-family="OpenSans-SemiBold, Open Sans" font-weight="600" style="isolation:isolate">Pernoctacions</text><text transform="translate(567.3539 509.9861)" font-size="35" fill="#036" font-family="OpenSans-SemiBold, Open Sans" font-weight="600" style="isolation:isolate">1.573.756</text><text transform="translate(1079.2155 401.3998)" font-size="35" fill="#036" font-family="OpenSans-SemiBold, Open Sans" font-weight="600" style="isolation:isolate">+11,7%</text><text transform="translate(939.7573 475.07)" font-size="25" fill="#036" font-family="OpenSans-SemiBold, Open Sans" font-weight="600" style="isolation:isolate">Establiments allotjaments oberts</text><text transform="translate(1094.1599 511.7173)" font-size="35" fill="#036" font-family="OpenSans-SemiBold, Open Sans" font-weight="600" style="isolation:isolate">1.090</text><text transform="translate(86.063 429.3853)" font-size="22" fill="#036" font-family="OpenSans-Light, Open Sans" font-weight="300" style="isolation:isolate">-33,0% (2019)</text><text transform="translate(579.325 429.3855)" font-size="22" fill="#036" font-family="OpenSans-Light, Open Sans" font-weight="300" style="isolation:isolate">-39,5% (2019)</text><text transform="translate(1071.3528 429.3851)" font-size="22" fill="#036" font-family="OpenSans-Light, Open Sans" font-weight="300" style="isolation:isolate">-9,9% (2019)</text><rect x="552" y="58.3" width="212.5" height="115.8" fill="#fff"/><text transform="translate(510.5226 111.9305)" font-size="83" fill="#036" font-family="OpenSans-SemiBold, Open Sans" font-weight="600" style="isolation:isolate">Síntesi</text><path d="M150.7422,187.9211V358.4" fill="none" stroke="#036" stroke-miterlimit="496.0637" stroke-width="19.1633"/><path d="M72.5486,251.2816l13.9936,13.0429,64.19-69.0621,64.19,69.0621L228.93,251.2816l-78.198-84.0956Z" fill="#036"/><path d="M644.6959,188.0952v171.91" fill="none" stroke="#036" stroke-miterlimit="496.0637" stroke-width="19.3241"/><path d="M565.846,251.9874,579.9571,265.14l64.7283-69.6417L709.4137,265.14,723.54,251.9874,644.6854,167.186Z" fill="#036"/><path d="M1138.93,188.0952v171.91" fill="none" stroke="#036" stroke-miterlimit="496.0637" stroke-width="19.3241"/><path d="M1060.08,251.9874l14.1111,13.1524,64.7283-69.6417,64.7283,69.6417,14.1261-13.1524-78.8544-84.8014Z" fill="#036"/><path id="point-0-0" d="M329.6005,632.5274A170.2726,170.2726,0,1,1,214.61,928.3782l74.7439-81.6258a59.5954,59.5954,0,1,0,40.2467-103.5478Z" fill="#0cc"/><path id="point-0-1" d="M214.61,928.3782A170.2726,170.2726,0,0,1,329.6005,632.5274V743.2046a59.5954,59.5954,0,0,0-40.2467,103.5478Z" fill="#036"/><text transform="translate(387.3 858.263)" font-size="29.9677" fill="#fff" font-family="ArialMT, Arial" style="isolation:isolate">61,8%</text><text transform="translate(201.4 733.784)" font-size="29.9151" fill="#fff" font-family="ArialMT, Arial" style="isolation:isolate">38,2%</text><path id="point-1-0" d="M1049.0773,632.5274A170.2726,170.2726,0,1,1,956.9392,945.99l59.89-93.0734a59.5954,59.5954,0,1,0,32.2483-109.7118Z" fill="#0cc"/><path id="point-1-1" d="M956.9392,945.99a170.2726,170.2726,0,0,1,92.1381-313.4624V743.2046a59.5954,59.5954,0,0,0-32.2483,109.7118Z" fill="#036"/><text transform="translate(1107.0267 869.395)" font-size="29.9677" fill="#fff" font-family="ArialMT, Arial" style="isolation:isolate">59,1%</text><text transform="translate(910.4002 749.336)" font-size="29.9151" fill="#fff" font-family="ArialMT, Arial" style="isolation:isolate">40,9%</text></svg>