<?xml version="1.0" encoding="utf-8"?>
<!-- Generator: Adobe Illustrator 24.0.1, SVG Export Plug-In . SVG Version: 6.00 Build 0)  -->
<svg version="1.1" id="Capa_1" xmlns="http://www.w3.org/2000/svg" xmlns:xlink="http://www.w3.org/1999/xlink" x="0px" y="0px"
	 viewBox="0 0 697.3 667.1" style="enable-background:new 0 0 697.3 667.1;" xml:space="preserve">
<style type="text/css">
	.st0{fill:#FFFFFF;stroke:#000000;stroke-miterlimit:10;}
	.st1{fill:#1C3761;}
	.st2{font-family:'OpenSans-Bold';}
	.st3{font-size:19.23px;}
	.st4{enable-background:new    ;}
	.st5{font-family:'OpenSans-Light';}
	.st6{font-size:13.74px;}
	.st7{fill:#66E0E0;}
	.st8{fill:#1D1D1B;}
	.st9{font-family:'OpenSans-SemiBold';}
	.st10{font-size:10.3px;}
	.st11{fill:none;}
	.st12{fill:none;stroke:#EEEEEE;stroke-width:0.7013;stroke-dasharray:0;}
	.st13{fill:#003366;}
	.st14{font-family:'SourceSansPro-Regular';}
	.st15{font-size:9.7229px;}
	.st16{fill:none;stroke:#003366;stroke-width:0.7013;stroke-dasharray:0;}
	.st17{letter-spacing:-1;}
	.st18{fill:none;stroke:#CCD6E0;stroke-width:2.8051;}
	.st19{fill:#CCD6E0;}
	.st20{fill:none;stroke:#003366;stroke-width:0.3506;stroke-dasharray:0.7013,0.7013;}
	.st21{font-family:'ArialMT';}
	.st22{font-size:8.3339px;}
	.st23{font-size:11.68px;}
	.st24{fill:none;stroke:#66E0E0;stroke-width:2.8051;}
	.st25{fill:#878787;}
	.st26{fill:none;stroke:#003366;stroke-width:2.8051;}
	.st27{fill:none;stroke:#000000;stroke-width:0.5;stroke-miterlimit:10;}
</style>
<rect y="0" class="st0" width="697.3" height="667.1"/>
<text transform="matrix(1 0 0 1 290.8935 58.8674)" class="st1 st2 st3">Turisme Rural</text>
<text transform="matrix(1 0 0 1 108.2637 81.8249)" class="st4"><tspan x="0" y="0" class="st1 st5 st6">El turisme rural arriba a una ocupació del 49,5%, només mig punt per sota de  </tspan><tspan x="9.9" y="16.5" class="st1 st5 st6">l’ocupació de 2019, i lleugerament inferior al rècord assolit al 2020 (54,4%).</tspan></text>
<path class="st1" d="M281.6,124.2h11.2c1.1,0,2,0.9,2,2v4c0,1.1-0.9,2-2,2h-11.2c-1.1,0-2-0.9-2-2v-4
	C279.6,125.1,280.5,124.2,281.6,124.2z"/>
<path class="st7" d="M339.6,124.2h11.2c1.1,0,2,0.9,2,2v4c0,1.1-0.9,2-2,2h-11.2c-1.1,0-2-0.9-2-2v-4
	C337.6,125.1,338.5,124.2,339.6,124.2z"/>
<text transform="matrix(1 0 0 1 358.5313 132.2465)" class="st8 st9 st10">2020</text>
<text transform="matrix(1 0 0 1 300.4232 132.2464)" class="st8 st9 st10">2021</text>
<g id="facets">
	<rect x="68.3" y="177.3" class="st11" width="581.4" height="376.3"/>
	<line class="st12" x1="68.3" y1="553.9" x2="649.7" y2="553.9"/>
	<text transform="matrix(1.0196 0 0 1 51.98 560.8324)" class="st13 st14 st15">0%</text>
	<line class="st12" x1="68.3" y1="478.7" x2="649.7" y2="478.7"/>
	<text transform="matrix(1.0196 0 0 1 48.2046 481.9213)" class="st13 st14 st15">20%</text>
	<line class="st12" x1="68.3" y1="403.4" x2="649.7" y2="403.4"/>
	<text transform="matrix(1.0196 0 0 1 48.2046 406.6561)" class="st13 st14 st15">40%</text>
	<line class="st12" x1="68.3" y1="328.1" x2="649.7" y2="328.1"/>
	<text transform="matrix(1.0196 0 0 1 48.2046 331.3915)" class="st13 st14 st15">60%</text>
	<line class="st12" x1="68.3" y1="252.9" x2="649.7" y2="252.9"/>
	<text transform="matrix(1.0196 0 0 1 48.2046 256.1273)" class="st13 st14 st15">80%</text>
	<line class="st12" x1="68.3" y1="177.6" x2="649.7" y2="177.6"/>
	<text transform="matrix(1.0196 0 0 1 43.2773 180.8631)" class="st13 st14 st15">100%</text>
	<path class="st16" d="M68.7,553.9h581.4"/>
	<line class="st16" x1="68.7" y1="553.6" x2="68.7" y2="557.8"/>
	<text transform="matrix(1.0196 0 0 1 60.9722 573.2582)" class="st13 st14 st15">Gen.</text>
	<line class="st16" x1="121.5" y1="553.6" x2="121.5" y2="557.8"/>
	<text transform="matrix(1.0196 0 0 1 114.5239 573.2582)" class="st13 st14 st15">F</text>
	<text transform="matrix(1.0196 0 0 1 119.2822 573.2582)" class="st13 st14 st15">e</text>
	<text transform="matrix(1.0196 0 0 1 124.1992 573.2582)" class="st13 st14 st15">b</text>
	<text transform="matrix(1.0196 0 0 1 129.582 573.2582)" class="st13 st14 st15">.</text>
	<line class="st16" x1="174.4" y1="553.6" x2="174.4" y2="557.8"/>
	<text transform="matrix(1.0196 0 0 1 165.9795 573.2582)" class="st13 st14 st15">Ma</text>
	<text transform="matrix(1.0196 0 0 1 178.1831 573.2582)" class="st13 st14 st15">r</text>
	<text transform="matrix(1.0196 0 0 1 181.0576 573.2582)" class="st13 st14 st15 st17">.</text>
	<text transform="matrix(1.0196 0 0 1 182.1577 573.2582)" class="st13 st14 st15">*</text>
	<line class="st16" x1="227.2" y1="553.6" x2="227.2" y2="557.8"/>
	<text transform="matrix(1.0196 0 0 1 220.8848 573.2582)" class="st13 st14 st15">Ab</text>
	<text transform="matrix(1.0196 0 0 1 231.7598 573.2582)" class="st13 st14 st15">r</text>
	<text transform="matrix(1.0196 0 0 1 234.6348 573.2582)" class="st13 st14 st15">.</text>
	<line class="st16" x1="280.1" y1="553.6" x2="280.1" y2="557.8"/>
	<text transform="matrix(1.0196 0 0 1 271.9043 573.2582)" class="st13 st14 st15">Mai</text>
	<text transform="matrix(1.0196 0 0 1 286.5459 573.2582)" class="st13 st14 st15 st17">.</text>
	<text transform="matrix(1.0196 0 0 1 287.6465 573.2582)" class="st13 st14 st15">*</text>
	<line class="st16" x1="332.9" y1="553.6" x2="332.9" y2="557.8"/>
	<text transform="matrix(1.0196 0 0 1 325.6797 573.2582)" class="st13 st14 st15">Jun.</text>
	<line class="st16" x1="385.8" y1="553.6" x2="385.8" y2="557.8"/>
	<text transform="matrix(1.0196 0 0 1 379.9805 573.2582)" class="st13 st14 st15">Jul.</text>
	<line class="st16" x1="438.7" y1="553.6" x2="438.7" y2="557.8"/>
	<text transform="matrix(1.0196 0 0 1 431.4111 573.2582)" class="st13 st14 st15">A</text>
	<text transform="matrix(1.0196 0 0 1 436.8037 573.2582)" class="st13 st14 st15">g</text>
	<text transform="matrix(1.0196 0 0 1 441.6611 573.2582)" class="st13 st14 st15">o</text>
	<text transform="matrix(1.0196 0 0 1 446.9355 573.2582)" class="st13 st14 st15">.</text>
	<line class="st16" x1="491.5" y1="553.6" x2="491.5" y2="557.8"/>
	<text transform="matrix(1.0196 0 0 1 485.2607 573.2582)" class="st13 st14 st15">S</text>
	<text transform="matrix(1.0196 0 0 1 490.5537 573.2582)" class="st13 st14 st15">e</text>
	<text transform="matrix(1.0196 0 0 1 495.3721 573.2582)" class="st13 st14 st15">t</text>
	<text transform="matrix(1.0196 0 0 1 498.792 573.2582)" class="st13 st14 st15">.</text>
	<line class="st16" x1="544.4" y1="553.6" x2="544.4" y2="557.8"/>
	<text transform="matrix(1.0196 0 0 1 537.6689 573.2582)" class="st13 st14 st15">O</text>
	<text transform="matrix(1.0196 0 0 1 544.251 573.2582)" class="st13 st14 st15">c</text>
	<text transform="matrix(1.0196 0 0 1 548.6719 573.2582)" class="st13 st14 st15">t</text>
	<text transform="matrix(1.0196 0 0 1 552.0928 573.2582)" class="st13 st14 st15">.</text>
	<line class="st16" x1="597.2" y1="553.6" x2="597.2" y2="557.8"/>
	<text transform="matrix(1.0196 0 0 1 589.7178 573.2582)" class="st13 st14 st15">N</text>
	<text transform="matrix(1.0196 0 0 1 596.1318 573.2582)" class="st13 st14 st15">o</text>
	<text transform="matrix(1.0196 0 0 1 601.4658 573.2582)" class="st13 st14 st15">v</text>
	<text transform="matrix(1.0196 0 0 1 605.748 573.2582)" class="st13 st14 st15">.</text>
	<line class="st16" x1="650.1" y1="553.6" x2="650.1" y2="557.8"/>
	<text transform="matrix(1.0196 0 0 1 643.0029 573.2582)" class="st13 st14 st15">Des.</text>
</g>
<path class="st18" d="M68.3,522.4c17.6-7.3,35.2-14.6,52.9-19.2s35.2-4.3,52.9-8.3s35.2-15.8,52.9-15.8s35.2,10.2,52.9,10.2
	s35.2-16.9,52.9-25.6s35.2-10.3,52.9-26.7s35.2-71.5,52.9-71.5s35.2,106,52.9,115.5s34.9,14.3,52.5,14.3s35.2-7.3,52.9-12.8
	s35.2-12.9,52.9-20.3"/>
<path id="point-0-0" class="st13" d="M67.6,542.7c0-0.4,0.3-0.7,0.7-0.7c0.4,0,0.7,0.3,0.7,0.7s-0.3,0.7-0.7,0.7l0,0
	C67.9,543.4,67.6,543.1,67.6,542.7L67.6,542.7z"/>
<path id="point-0-1" class="st13" d="M120.5,546.1c0-0.4,0.3-0.7,0.7-0.7c0.4,0,0.7,0.3,0.7,0.7s-0.3,0.7-0.7,0.7l0,0
	C120.8,546.8,120.5,546.5,120.5,546.1z"/>
<path id="point-1-0" class="st7" d="M67.6,514.1c0-0.4,0.3-0.7,0.7-0.7c0.4,0,0.7,0.3,0.7,0.7s-0.3,0.7-0.7,0.7l0,0
	C67.9,514.8,67.6,514.5,67.6,514.1L67.6,514.1z"/>
<path id="point-1-1" class="st7" d="M120.5,506.2c0-0.4,0.3-0.7,0.7-0.7c0.4,0,0.7,0.3,0.7,0.7s-0.3,0.7-0.7,0.7l0,0
	C120.8,506.9,120.5,506.6,120.5,506.2z"/>
<path id="point-1-3" class="st7" d="M226.2,553.6c0-0.4,0.3-0.7,0.7-0.7s0.7,0.3,0.7,0.7s-0.3,0.7-0.7,0.7l0,0
	C226.5,554.3,226.2,554,226.2,553.6L226.2,553.6z"/>
<path id="point-1-6" class="st7" d="M384.7,421.5c0-0.4,0.3-0.7,0.7-0.7c0.4,0,0.7,0.3,0.7,0.7s-0.3,0.7-0.7,0.7l0,0
	C385.1,422.2,384.7,421.9,384.7,421.5z"/>
<path id="point-1-7" class="st7" d="M437.6,352.6c0-0.4,0.3-0.7,0.7-0.7s0.7,0.3,0.7,0.7s-0.3,0.7-0.7,0.7l0,0
	C437.9,353.3,437.6,353,437.6,352.6z"/>
<path id="point-1-10" class="st7" d="M596.2,550.6c0-0.4,0.3-0.7,0.7-0.7s0.7,0.3,0.7,0.7s-0.3,0.7-0.7,0.7l0,0
	C596.5,551.3,596.2,551,596.2,550.6z"/>
<path id="point-1-11" class="st7" d="M645.5,519c0-2.3,1.8-4.3,4.2-4.3c2.3,0,4.3,1.8,4.3,4.2c0,2.3-1.8,4.3-4.2,4.3h-0.1
	C647.4,523.2,645.5,521.3,645.5,519z"/>
<path id="point-2-0" class="st19" d="M67.6,522.4c0-0.4,0.3-0.7,0.7-0.7c0.4,0,0.7,0.3,0.7,0.7s-0.3,0.7-0.7,0.7l0,0
	C67.9,523.1,67.6,522.7,67.6,522.4z"/>
<path id="point-2-1" class="st19" d="M120.5,503.2c0-0.4,0.3-0.7,0.7-0.7c0.4,0,0.7,0.3,0.7,0.7s-0.3,0.7-0.7,0.7l0,0
	C120.8,503.9,120.5,503.5,120.5,503.2z"/>
<path id="point-2-2" class="st19" d="M173.3,494.9c0-0.4,0.3-0.7,0.7-0.7s0.7,0.3,0.7,0.7s-0.3,0.7-0.7,0.7l0,0
	C173.6,495.6,173.3,495.3,173.3,494.9z"/>
<path id="point-2-3" class="st19" d="M226.2,479.1c0-0.4,0.3-0.7,0.7-0.7s0.7,0.3,0.7,0.7s-0.3,0.7-0.7,0.7l0,0
	C226.5,479.8,226.2,479.5,226.2,479.1z"/>
<path id="point-2-4" class="st19" d="M279,489.2c0-0.4,0.3-0.7,0.7-0.7c0.4,0,0.7,0.3,0.7,0.7s-0.3,0.7-0.7,0.7l0,0
	C279.4,489.9,279,489.6,279,489.2L279,489.2z"/>
<path id="point-2-5" class="st19" d="M331.9,463.6c0-0.4,0.3-0.7,0.7-0.7c0.4,0,0.7,0.3,0.7,0.7s-0.3,0.7-0.7,0.7l0,0
	C332.2,464.3,331.9,464,331.9,463.6z"/>
<path id="point-2-6" class="st19" d="M384.7,436.9c0-0.4,0.3-0.7,0.7-0.7c0.4,0,0.7,0.3,0.7,0.7s-0.3,0.7-0.7,0.7l0,0
	C385.1,437.6,384.7,437.3,384.7,436.9z"/>
<path id="point-2-7" class="st19" d="M437.6,365.4c0-0.4,0.3-0.7,0.7-0.7s0.7,0.3,0.7,0.7s-0.3,0.7-0.7,0.7l0,0
	C437.9,366.1,437.6,365.8,437.6,365.4z"/>
<path id="point-2-8" class="st19" d="M490.4,481c0-0.4,0.3-0.7,0.7-0.7s0.7,0.3,0.7,0.7s-0.3,0.7-0.7,0.7l0,0
	C490.8,481.7,490.5,481.3,490.4,481z"/>
<path id="point-2-9" class="st19" d="M543.3,495.3c0-0.4,0.3-0.7,0.7-0.7s0.7,0.3,0.7,0.7s-0.3,0.7-0.7,0.7l0,0
	C543.6,496,543.3,495.6,543.3,495.3z"/>
<path id="point-2-10" class="st19" d="M596.2,482.5c0-0.4,0.3-0.7,0.7-0.7s0.7,0.3,0.7,0.7s-0.3,0.7-0.7,0.7l0,0
	C596.5,483.2,596.2,482.9,596.2,482.5z"/>
<path id="point-2-11" class="st19" d="M645.5,462.1c0-2.3,1.8-4.3,4.2-4.3c2.3,0,4.3,1.8,4.3,4.2c0,2.3-1.8,4.3-4.2,4.3h-0.1
	C647.4,466.3,645.5,464.5,645.5,462.1z"/>
<line class="st20" x1="68.3" y1="472.3" x2="649.7" y2="472.3"/>
<text transform="matrix(1.0196 0 0 1 553.6152 468.1771)" class="st13 st21 st22">Mitjana 2019: 21,6%</text>
<text transform="matrix(1 0 0 1 48.2047 506.9069)" class="st1 st14 st23">10,5</text>
<path id="point-0-0-2" class="st7" d="M65.1,513.9c0-2.3,1.8-4.1,4.1-4.1c2.2,0,4.1,1.9,4.1,4.1c0,2.3-1.8,4.1-4.1,4.1
	S65.1,516.2,65.1,513.9L65.1,513.9z"/>
<path id="point-0-0-3" class="st19" d="M64.5,522.8c0-2.3,1.8-4.1,4.1-4.1c2.2,0,4.1,1.9,4.1,4.1c0,2.3-1.8,4.1-4.1,4.1
	C66.4,526.9,64.5,525,64.5,522.8z"/>
<text transform="matrix(1 0 0 1 46.8606 545.4087)" class="st1 st14 st23">2,9</text>
<path id="point-0-1-2" class="st7" d="M118,506.4c0-1.5,1.2-2.8,2.8-2.8l0,0c1.5,0,2.8,1.3,2.8,2.8s-1.3,2.8-2.8,2.8l0,0l0,0
	C119.2,509.2,118,508,118,506.4z"/>
<path id="point-0-1-3" class="st7" d="M224.7,553.3c0-1.5,1.2-2.8,2.8-2.8l0,0c1.5,0,2.8,1.2,2.8,2.8c0,1.5-1.2,2.8-2.8,2.8l0,0l0,0
	C226,556.1,224.8,554.8,224.7,553.3z"/>
<path id="point-0-1-4" class="st7" d="M330.9,483c0-1.5,1.2-2.8,2.8-2.8l0,0c1.5,0,2.8,1.3,2.8,2.8s-1.3,2.8-2.8,2.8l0,0
	C332.2,485.8,331,484.5,330.9,483z"/>
<path id="point-0-1-5" class="st13" d="M118.9,546.7c0-1.5,1.2-2.8,2.8-2.8l0,0c1.5,0,2.8,1.3,2.8,2.8s-1.3,2.8-2.8,2.8l0,0
	C120.1,549.5,118.9,548.3,118.9,546.7z"/>
<path id="point-0-1-6" class="st7" d="M383.6,420.8c0-1.5,1.2-2.8,2.8-2.8l0,0c1.5,0,2.8,1.3,2.8,2.8s-1.3,2.8-2.8,2.8l0,0
	C384.9,423.6,383.7,422.3,383.6,420.8z"/>
<path id="point-0-1-7" class="st7" d="M434.8,351.9c0-1.5,1.2-2.8,2.8-2.8l0,0c1.5,0,2.8,1.3,2.8,2.8s-1.3,2.8-2.8,2.8l0,0
	C436.1,354.7,434.8,353.5,434.8,351.9z"/>
<path id="point-0-1-8" class="st7" d="M488.4,488.5c0-1.5,1.2-2.8,2.8-2.8l0,0c1.5,0,2.8,1.3,2.8,2.8s-1.3,2.8-2.8,2.8l0,0
	C489.6,491.3,488.4,490.1,488.4,488.5z"/>
<path id="point-0-1-9" class="st7" d="M541.9,532.1c0-1.5,1.2-2.8,2.8-2.8l0,0c1.5,0,2.8,1.3,2.8,2.8s-1.3,2.8-2.8,2.8l0,0
	C543.2,534.8,541.9,533.6,541.9,532.1z"/>
<path id="point-0-1-10" class="st7" d="M594.4,550.5c0-1.5,1.2-2.8,2.8-2.8l0,0c1.5,0,2.8,1.3,2.8,2.8s-1.3,2.8-2.8,2.8l0,0
	C595.7,553.3,594.4,552.1,594.4,550.5z"/>
<path id="point-0-1-11" class="st19" d="M594.8,482.5c0-1.5,1.2-2.8,2.8-2.8l0,0c1.5,0,2.8,1.3,2.8,2.8s-1.3,2.8-2.8,2.8l0,0
	C596,485.2,594.8,484,594.8,482.5z"/>
<path id="point-0-1-12" class="st19" d="M541.8,495.7c0-1.5,1.2-2.8,2.8-2.8l0,0c1.5,0,2.8,1.3,2.8,2.8s-1.3,2.8-2.8,2.8l0,0
	C543.1,498.5,541.9,497.3,541.8,495.7z"/>
<path id="point-0-1-13" class="st19" d="M489.1,481c0-1.5,1.2-2.8,2.8-2.8l0,0c1.5,0,2.8,1.3,2.8,2.8s-1.3,2.8-2.8,2.8l0,0
	C490.3,483.7,489.1,482.5,489.1,481z"/>
<path id="point-0-1-14" class="st19" d="M435.3,365.9c0-1.5,1.2-2.8,2.8-2.8l0,0c1.5,0,2.8,1.3,2.8,2.8s-1.3,2.8-2.8,2.8l0,0
	C436.5,368.7,435.3,367.4,435.3,365.9z"/>
<path id="point-0-1-15" class="st19" d="M383.6,436.2c0-1.5,1.2-2.8,2.8-2.8l0,0c1.5,0,2.8,1.3,2.8,2.8s-1.3,2.8-2.8,2.8l0,0
	C384.9,439,383.7,437.8,383.6,436.2z"/>
<path id="point-0-1-16" class="st19" d="M330.9,463c0-1.5,1.2-2.8,2.8-2.8l0,0c1.5,0,2.8,1.3,2.8,2.8s-1.3,2.8-2.8,2.8l0,0
	C332.2,465.7,331,464.5,330.9,463z"/>
<path id="point-0-1-17" class="st19" d="M278.4,489.2c0-1.5,1.2-2.8,2.8-2.8l0,0c1.5,0,2.8,1.3,2.8,2.8s-1.3,2.8-2.8,2.8l0,0
	C279.7,492,278.4,490.8,278.4,489.2z"/>
<path id="point-0-1-18" class="st19" d="M224.3,479.4c0-1.5,1.2-2.8,2.8-2.8l0,0c1.5,0,2.8,1.3,2.8,2.8s-1.3,2.8-2.8,2.8l0,0
	C225.6,482.1,224.3,480.9,224.3,479.4z"/>
<path id="point-0-1-19" class="st19" d="M171.5,495.1c0-1.5,1.2-2.8,2.8-2.8l0,0c1.5,0,2.8,1.3,2.8,2.8s-1.3,2.8-2.8,2.8l0,0
	C172.8,497.8,171.6,496.6,171.5,495.1z"/>
<path class="st19" d="M398.8,124.1H410c1.1,0,2,0.9,2,2v4c0,1.1-0.9,2-2,2h-11.2c-1.1,0-2-0.9-2-2v-4
	C396.8,125,397.6,124.1,398.8,124.1z"/>
<text transform="matrix(1 0 0 1 417.6615 132.2287)" class="st8 st9 st10">2019</text>
<text transform="matrix(1 0 0 1 46.027 526.9009)" class="st1 st14 st23">8,3</text>
<text transform="matrix(1 0 0 1 220.8846 546.1031)" class="st1 st14 st23">0,0</text>
<text transform="matrix(1 0 0 1 482.5264 372.3163)" class="st1 st14 st23">49,5</text>
<text transform="matrix(1 0 0 1 426.5717 344.493)" class="st1 st14 st23">53,4</text>
<text transform="matrix(1 0 0 1 451.492 358.9814)" class="st1 st14 st23">50,0</text>
<text transform="matrix(1 0 0 1 637.3134 512.1972)" class="st1 st14 st23">9,2</text>
<text transform="matrix(1 0 0 1 634.2416 451.1119)" class="st1 st14 st23">24,3</text>
<path id="point-0-2-2" class="st13" d="M64.9,542.5c0-2.3,1.8-4.3,4.2-4.3c2.3,0,4.3,1.8,4.3,4.2c0,2.3-1.8,4.3-4.2,4.3h-0.1
	C66.9,546.7,65,544.9,64.9,542.5z"/>
<path class="st24" d="M332.9,482.7c2.5-2.1,3.5-5.1,5.5-7.1c25-26,48-51,65-82c8-16,15-34,32-42c8,0,12,9,16,15c1,3,2.4,4.8,3.4,7.8
	c2.1,4.2,3.7,8.6,4.6,13.2c5,26,12,49,19,73c5,16,13,31,25,42c24,22,51,35,79,47c19,3,40.6-1,54.6-15c1-1,2.4-3,3.4-4
	c3-4,7-7,9.3-11.6"/>
<path class="st24" d="M224.9,553.9c1.7-0.2,3.5-0.5,5.2-0.8"/>
<path class="st24" d="M68.3,514.1c9.4-2.1,18.9-4.2,28.5-5.8c8.7-1.4,16.3-3.2,25.1-2.1c2.6,0.7,6.4,2.1,10.2,4.9
	c5.8,4.3,8.2,9.5,9.6,11.9c3.3,5.6,11.1,12.2,31.1,15.4"/>
<path id="point-0-1-2_1_" class="st7" d="M170.5,538.2c0-1.5,1.2-2.8,2.8-2.8c1.5,0,2.8,1.3,2.8,2.8s-1.3,2.8-2.8,2.8
	C171.7,541,170.5,539.8,170.5,538.2z"/>
<g>
	<text transform="matrix(1 0 0 1 54.5498 631.5123)" class="st25 st9 st10">Font: Elaboració pròpia del LABturisme en base a dades de l&apos;Enquesta d&apos;ocupació en allotjaments de l&apos;INE.        </text>
</g>
<text transform="matrix(1 0 0 1 51.8646 645.0743)" class="st25 st9 st10">*Les dades d’abril i maig de 2020 no estan disponibles, degut al tancament d’establiments per la crisi de la COVID-19.</text>
<g>
	<text transform="matrix(1 0 0 1 181.0575 545.4396)" class="st1 st14 st23">5,0</text>
</g>
<path id="point-0-2" class="st13" d="M434.1,370.4c0-2.3,1.8-4.3,4.2-4.3c2.3,0,4.3,1.8,4.3,4.2c0,2.3-1.8,4.3-4.2,4.3h-0.2
	C436.1,374.6,434.1,372.7,434.1,370.4z"/>
<path id="point-0-1-5_1_" class="st13" d="M171.9,524.1c0-1.5,1.2-2.8,2.8-2.8l0,0c1.5,0,2.8,1.3,2.8,2.8s-1.3,2.8-2.8,2.8l0,0
	C173.1,526.9,171.9,525.7,171.9,524.1z"/>
<path id="point-0-1-5_2_" class="st13" d="M224.7,502.5c0-1.5,1.2-2.8,2.8-2.8l0,0c1.5,0,2.8,1.3,2.8,2.8s-1.3,2.8-2.8,2.8l0,0
	C225.9,505.3,224.7,504.1,224.7,502.5z"/>
<path id="point-0-1-5_3_" class="st13" d="M278.8,497.9c0-1.5,1.2-2.8,2.8-2.8l0,0c1.5,0,2.8,1.3,2.8,2.8s-1.3,2.8-2.8,2.8l0,0
	C280,500.7,278.8,499.5,278.8,497.9z"/>
<path id="point-0-1-5_4_" class="st13" d="M330.9,465.8c0-1.5,1.2-2.8,2.8-2.8l0,0c1.5,0,2.8,1.3,2.8,2.8s-1.3,2.8-2.8,2.8l0,0
	C332.1,468.6,330.9,467.4,330.9,465.8z"/>
<path class="st26" d="M68.3,542.7c17.6,1.7,35.2,3.4,52.9,3.4s35.2-11.1,52.9-22.2c8.7-4.3,14.9-10.8,26.1-14.7
	c8.4-3,16.6-4.8,24.1-6.7c18.7-1.5,37.3-3,56-4.5c6.2-0.2,21.2-1.7,35.7-12.3c2.7-1.9,5-4,7-6c6.2-6.1,9.4-11.8,10.7-13.9
	c5.8-9.5,12.3-11.6,28.5-25.1c5.9-4.9,14.5-12.4,24.2-22.7c10.6-8.9,21.3-18.4,32.2-28.5c6.9-6.4,13.5-12.7,19.9-19"/>
<line class="st27" x1="442.1" y1="370.3" x2="476.9" y2="370.3"/>
</svg>
