<?xml version="1.0" encoding="utf-8"?>
<!-- Generator: Adobe Illustrator 24.0.1, SVG Export Plug-In . SVG Version: 6.00 Build 0)  -->
<svg version="1.1" id="Capa_1" xmlns="http://www.w3.org/2000/svg" xmlns:xlink="http://www.w3.org/1999/xlink" x="0px" y="0px"
	 viewBox="0 0 697.3 667.1" style="enable-background:new 0 0 697.3 667.1;" xml:space="preserve">
<style type="text/css">
	.st0{fill:#FFFFFF;}
	.st1{fill:#66E0E0;}
	.st2{fill:#1C3761;}
	.st3{font-family:'OpenSans-Bold';}
	.st4{font-size:19.23px;}
	.st5{enable-background:new    ;}
	.st6{font-family:'OpenSans-Light';}
	.st7{font-size:13.74px;}
	.st8{fill:#1D1D1B;}
	.st9{font-family:'OpenSans-SemiBold';}
	.st10{font-size:10.3px;}
	.st11{fill:#CCD6E0;}
	.st12{display:none;fill:none;stroke:#EFEFEF;stroke-width:0.6896;stroke-dasharray:0;}
	.st13{fill:none;stroke:#EFEFEF;stroke-width:0.6896;stroke-dasharray:0;}
	.st14{fill:#003366;}
	.st15{font-family:'SourceSansPro-Regular';}
	.st16{font-size:9.644px;}
	.st17{fill:none;stroke:#003366;stroke-width:0.6896;stroke-dasharray:0;}
	.st18{fill:none;stroke:#CCD6E0;stroke-width:2.7583;}
	.st19{fill:none;stroke:#003366;stroke-width:0.6896;stroke-dasharray:0.6896,0.6896;}
	.st20{font-family:'ArialMT';}
	.st21{font-size:8.2663px;}
	.st22{fill:none;stroke:#66E0E0;stroke-width:2.7583;}
	.st23{font-size:11.68px;}
	.st24{fill:none;stroke:#003366;stroke-width:2.7583;}
	.st25{fill:#878787;}
</style>
<rect y="-8.1" class="st0" width="697.3" height="667.1"/>
<path id="point-0-5-2-2-2_1_" class="st1" d="M184.1,441.2c0-1.5,1.2-2.8,2.8-2.8s2.8,1.2,2.8,2.8s-1.2,2.8-2.8,2.8
	S184.1,442.7,184.1,441.2z"/>
<g>
	<text transform="matrix(1 0 0 1 250.0913 46.0383)" class="st2 st3 st4">Establiments hotelers</text>
	<text transform="matrix(1 0 0 1 108.1265 73.9245)" class="st5"><tspan x="0" y="0" class="st2 st6 st7">L’ocupació en hotels a l’Entorn de Barcelona se situa en un 39%, 20 punts per sobre </tspan><tspan x="0" y="16.5" class="st2 st6 st7">de l’octubre de l’any anterior, però encara per sota de les dades pre-covid (57,3%).</tspan></text>
	<path class="st2" d="M285,108.5h11.2c1.1,0,2,0.9,2,2v4c0,1.1-0.9,2-2,2H285c-1.1,0-2-0.9-2-2v-4C283,109.4,283.9,108.5,285,108.5z
		"/>
	<path class="st1" d="M340.7,108.5h11.2c1.1,0,2,0.9,2,2v4c0,1.1-0.9,2-2,2h-11.2c-1.1,0-2-0.9-2-2v-4
		C338.7,109.4,339.6,108.5,340.7,108.5z"/>
	<text transform="matrix(1 0 0 1 356.6777 115.4025)" class="st8 st9 st10">2020</text>
	<text transform="matrix(1 0 0 1 303.1777 115.4025)" class="st8 st9 st10">2021</text>
	<path class="st11" d="M396.1,108.5h11.2c1.1,0,2,0.9,2,2v4c0,1.1-0.9,2-2,2h-11.2c-1.1,0-2-0.9-2-2v-4
		C394.1,109.4,395,108.5,396.1,108.5z"/>
</g>
<g id="facets_1_">
	<g transform="translate(45,10)">
		<g>
			<g>
				<g>
					<path class="st12" d="M38.6,507.8V134.6"/>
					<g transform="translate(0,542.3645922851563)">
						<line class="st13" x1="38.9" y1="-9.6" x2="605.7" y2="-9.6"/>
						<text transform="matrix(1.0021 0 0 1 24.0342 -6.4059)" class="st14 st15 st16">0%</text>
					</g>
					<g transform="translate(0,406.8984442138672)">
						<line class="st13" x1="38.9" y1="32.5" x2="605.7" y2="32.5"/>
						<text transform="matrix(1.0021 0 0 1 19.2305 32.5642)" class="st14 st15 st16">20%</text>
					</g>
					<g transform="translate(0,271.43229614257814)">
						<path class="st13" d="M38.9,74.7c62.5,0,125,0,187.6,0c126.4,0,252.8,0,379.2,0"/>
						<text transform="matrix(1.0021 0 0 1 19.2305 77.8921)" class="st14 st15 st16">40%</text>
					</g>
					<g transform="translate(0,135.96614807128907)">
						<line class="st13" x1="38.9" y1="116.8" x2="605.7" y2="116.8"/>
						<text transform="matrix(1.0021 0 0 1 19.2305 120.0419)" class="st14 st15 st16">60%</text>
					</g>
					<g transform="translate(0,0.5)">
						<line class="st13" x1="38.9" y1="159" x2="605.7" y2="159"/>
						<text transform="matrix(1.0021 0 0 1 19.2305 162.1916)" class="st14 st15 st16">80%</text>
					</g>
				</g>
				<g transform="translate(0,541.8645922851563)">
					<path class="st17" d="M39.3-9.1H606"/>
					<g transform="translate(0.5,0)">
						<line class="st17" x1="38.8" y1="-9.5" x2="38.8" y2="-5.3"/>
						<text transform="matrix(1.0021 0 0 1 29.4912 8.9027)" class="st14 st15 st16">Gen.</text>
					</g>
					<g transform="translate(75.1369961825284,0)">
						<line class="st17" x1="15.6" y1="-9.5" x2="15.6" y2="-5.3"/>
						<text transform="matrix(1.0021 0 0 1 7.0576 8.9027)" class="st14 st15 st16">Feb.</text>
					</g>
					<g transform="translate(149.7739923650568,0)">
						<line class="st17" x1="-7.5" y1="-9.5" x2="-7.5" y2="-5.3"/>
						<text transform="matrix(1.0021 0 0 1 -17.4195 8.9027)" class="st14 st15 st16">Mar.</text>
					</g>
					<g transform="translate(224.41098854758522,0)">
						<line class="st17" x1="-30.6" y1="-9.5" x2="-30.6" y2="-5.3"/>
						<text transform="matrix(1.0021 0 0 1 -38.5321 8.9027)" class="st14 st15 st16">Abr.*</text>
					</g>
					<g transform="translate(299.0479847301136,0)">
						<line class="st17" x1="-53.7" y1="-9.5" x2="-53.7" y2="-5.3"/>
						<text transform="matrix(1.0021 0 0 1 -62.8988 8.9027)" class="st14 st15 st16">Mai</text>
					</g>
					<g transform="translate(373.684980912642,0)">
						<line class="st17" x1="-76.8" y1="-9.5" x2="-76.8" y2="-5.3"/>
						<text transform="matrix(1.0021 0 0 1 -85.652 8.9027)" class="st14 st15 st16">Jun.</text>
					</g>
					<g transform="translate(448.32197709517044,0)">
						<line class="st17" x1="-99.9" y1="-9.5" x2="-99.9" y2="-5.3"/>
						<text transform="matrix(1.0021 0 0 1 -107.3542 8.9027)" class="st14 st15 st16">Jul.</text>
					</g>
					<g transform="translate(522.9589732776989,0)">
						<line class="st17" x1="-123" y1="-9.5" x2="-123" y2="-5.3"/>
						<text transform="matrix(1.0021 0 0 1 -131.8555 8.9027)" class="st14 st15 st16">Ago.</text>
					</g>
					<g transform="translate(597.5959694602273,0)">
						<line class="st17" x1="-146.2" y1="-9.5" x2="-146.2" y2="-5.3"/>
						<text transform="matrix(1.0021 0 0 1 -153.9983 8.9027)" class="st14 st15 st16">Set.</text>
					</g>
					<g transform="translate(672.2329656427556,0)">
						<line class="st17" x1="-169.3" y1="-9.5" x2="-169.3" y2="-5.3"/>
						<text transform="matrix(1.0021 0 0 1 -177.5484 8.9027)" class="st14 st15 st16">Oct.</text>
					</g>
					<g transform="translate(746.869961825284,0)">
						<line class="st17" x1="-192.4" y1="-9.5" x2="-192.4" y2="-5.3"/>
						<text transform="matrix(1.0021 0 0 1 -201.4451 8.9027)" class="st14 st15 st16">Nov.</text>
					</g>
					<g transform="translate(821.5069580078125,0)">
						<line class="st17" x1="-215.5" y1="-9.5" x2="-215.5" y2="-5.3"/>
						<text transform="matrix(1.0021 0 0 1 -224.1388 8.9027)" class="st14 st15 st16">Des.</text>
					</g>
				</g>
			</g>
		</g>
	</g>
</g>
<g>
	<g>
		<path pointer-events="none" class="st18" d="M83.9,382.4c17.2-15.4,34.3-30.8,51.5-37.3s34.3-3.3,51.5-9.8s34.3-57.9,51.5-57.9
			s34.3,6.5,51.5,6.5s34.3-56.6,51.5-66.3c17.2-9.6,34.3-7.2,51.5-14.5s34.3-29.4,51.5-29.4s34.3,31.2,51.5,48.1
			c17.2,16.9,34.3,31.7,51.5,53.2c17.2,21.5,34.3,64.4,51.5,75.6s34.3,14,51.5,16.8"/>
	</g>
</g>
<g>
	<g transform="translate(45, 10)">
		<g transform="translate(0, 98.2129573516846)">
			<line class="st19" x1="38.9" y1="128.6" x2="605.7" y2="128.6"/>
			<text transform="matrix(1.0021 0 0 1 525.9531 124.4728)" class="st14 st20 st21">Mitjana 2019: 65,5%</text>
		</g>
	</g>
</g>
<path id="point-0-5-2-2-2_3_" class="st1" d="M132.8,359.9c0-1.5,1.2-2.8,2.8-2.8s2.8,1.2,2.8,2.8s-1.2,2.8-2.8,2.8
	S132.8,361.4,132.8,359.9z"/>
<path id="point-0-5-2-2-2_4_" class="st14" d="M132.7,445c0-1.5,1.2-2.8,2.8-2.8s2.8,1.2,2.8,2.8s-1.2,2.8-2.8,2.8
	S132.7,446.5,132.7,445z"/>
<g>
	<g>
		<path class="st22" d="M333.9,458.1c26.8-25.7,62-44.3,88-72.3c5-4,17-10.6,23-14.6c11.5,11.2,2.8,2.8,11.5,11.2
			c8,12,14.3,20,21.3,32s14,23,27,28c29,9,58,18,89,19c19,0,39-2,57-9.1"/>
		<path class="st22" d="M237.7,542.4c1.4,0.1,2.8,0.1,4.3,0"/>
		<path class="st22" d="M288.1,471.9c5.8-3.9,13.7-5.7,20.5-6.9c10.9-2,15.2-3.6,25.3-6.9"/>
		<path class="st22" d="M237.7,540.4c1.5,0.1,2.9-0.3,4.3-0.9"/>
		<path class="st22" d="M83.9,380c16.1-9.9,33.1-23.9,54.1-18.9c5,1,11,4,14,9c14,24,23,49,35.9,73"/>
	</g>
</g>
<path id="point-0-5-2-2-2_5_" class="st11" d="M132.8,345.6c0-1.5,1.2-2.8,2.8-2.8s2.8,1.2,2.8,2.8s-1.2,2.8-2.8,2.8
	S132.8,347.1,132.8,345.6z"/>
<path id="point-0-0_1_" class="st14" d="M83.2,456.5c0-0.4,0.3-0.7,0.7-0.7s0.7,0.3,0.7,0.7c0,0.4-0.3,0.7-0.7,0.7
	S83.2,456.9,83.2,456.5z"/>
<path id="point-0-1_1_" class="st14" d="M134.7,444.9c0-0.4,0.3-0.7,0.7-0.7s0.7,0.3,0.7,0.7s-0.3,0.7-0.7,0.7
	C135.1,445.6,134.7,445.3,134.7,444.9z"/>
<path id="point-0-2_1_" class="st14" d="M79.6,456.8c0-2.3,1.9-4.1,4.1-4.1c2.3,0,4.1,1.9,4.1,4.1c0,2.3-1.9,4.1-4.1,4.1
	C81.4,461,79.6,459.1,79.6,456.8z"/>
<path id="point-0-2_3_" class="st11" d="M81.7,381.7c0-2.3,1.9-4.1,4.1-4.1c2.3,0,4.1,1.9,4.1,4.1s-1.9,4.1-4.1,4.1
	S81.7,384,81.7,381.7z"/>
<path id="point-0-2_2_" class="st1" d="M79.8,379.4c0-2.3,1.9-4.1,4.1-4.1c2.3,0,4.1,1.9,4.1,4.1s-1.9,4.1-4.1,4.1
	C81.6,383.5,79.8,381.6,79.8,379.4z"/>
<path id="point-0-2_4_" class="st11" d="M646.5,367.2c0-2.3,1.9-4.1,4.1-4.1s4.1,1.9,4.1,4.1c0,2.3-1.9,4.1-4.1,4.1
	S646.5,369.4,646.5,367.2z"/>
<path id="point-0-2" class="st14" d="M543.9,363.4c0-2.3,1.9-4.1,4.1-4.1s4.1,1.9,4.1,4.1c0,2.3-1.9,4.1-4.1,4.1
	S543.9,365.6,543.9,363.4z"/>
<path id="point-0-5-2-2-2_6_" class="st1" d="M331.1,457.2c0-1.5,1.2-2.8,2.8-2.8s2.8,1.2,2.8,2.8s-1.2,2.8-2.8,2.8
	S331.1,458.7,331.1,457.2z"/>
<path id="point-0-5-2-2-2_7_" class="st1" d="M391.8,410.3c0-1.5,1.2-2.8,2.8-2.8s2.8,1.2,2.8,2.8s-1.2,2.8-2.8,2.8
	S391.8,411.8,391.8,410.3z"/>
<path id="point-0-5-2-2-2_8_" class="st1" d="M442.1,372c0-1.5,1.2-2.8,2.8-2.8s2.8,1.2,2.8,2.8s-1.2,2.8-2.8,2.8
	S442.1,373.5,442.1,372z"/>
<path id="point-0-5-2-2-2_9_" class="st1" d="M493.6,438c0-1.5,1.2-2.8,2.8-2.8s2.8,1.2,2.8,2.8s-1.2,2.8-2.8,2.8
	S493.6,439.5,493.6,438z"/>
<path id="point-0-5-2-2-2_10_" class="st1" d="M545.2,454.4c0-1.5,1.2-2.8,2.8-2.8s2.8,1.2,2.8,2.8s-1.2,2.8-2.8,2.8
	S545.2,455.9,545.2,454.4z"/>
<path id="point-0-5-2-2-2_11_" class="st1" d="M596.7,462.1c0-1.5,1.2-2.8,2.8-2.8s2.8,1.2,2.8,2.8s-1.2,2.8-2.8,2.8
	S596.7,463.6,596.7,462.1z"/>
<path id="point-0-5-2-2-2_12_" class="st11" d="M184,335.8c0-1.5,1.2-2.8,2.8-2.8s2.8,1.2,2.8,2.8s-1.2,2.8-2.8,2.8
	S184,337.3,184,335.8z"/>
<path id="point-0-5-2-2-2_13_" class="st11" d="M237,278.1c0-1.5,1.2-2.8,2.8-2.8s2.8,1.2,2.8,2.8s-1.2,2.8-2.8,2.8
	S237,279.6,237,278.1z"/>
<path id="point-0-5-2-2-2_14_" class="st11" d="M289.8,283.7c0-1.5,1.2-2.8,2.8-2.8s2.8,1.2,2.8,2.8s-1.2,2.8-2.8,2.8
	S289.8,285.2,289.8,283.7z"/>
<path id="point-0-5-2-2-2_15_" class="st11" d="M330.3,225c0-1.5,1.2-2.8,2.8-2.8s2.8,1.2,2.8,2.8s-1.2,2.8-2.8,2.8
	S330.3,226.5,330.3,225z"/>
<path id="point-0-5-2-2-2_16_" class="st11" d="M390.8,203c0-1.5,1.2-2.8,2.8-2.8s2.8,1.2,2.8,2.8s-1.2,2.8-2.8,2.8
	S390.8,204.5,390.8,203z"/>
<path id="point-0-5-2-2-2_17_" class="st11" d="M441.6,173.6c0-1.5,1.2-2.8,2.8-2.8s2.8,1.2,2.8,2.8s-1.2,2.8-2.8,2.8
	S441.6,175.1,441.6,173.6z"/>
<path id="point-0-5-2-2-2_18_" class="st11" d="M493.4,222.3c0-1.5,1.2-2.8,2.8-2.8s2.8,1.2,2.8,2.8s-1.2,2.8-2.8,2.8
	S493.4,223.8,493.4,222.3z"/>
<path id="point-0-5-2-2-2_19_" class="st11" d="M545,274.9c0-1.5,1.2-2.8,2.8-2.8s2.8,1.2,2.8,2.8s-1.2,2.8-2.8,2.8
	S545,276.4,545,274.9z"/>
<path id="point-0-5-2-2-2_20_" class="st11" d="M596.7,351.3c0-1.5,1.2-2.8,2.8-2.8s2.8,1.2,2.8,2.8s-1.2,2.8-2.8,2.8
	S596.7,352.8,596.7,351.3z"/>
<path id="point-0-6-2_2_" class="st1" d="M646.7,452.5c0-2.3,1.8-4.1,4.1-4.1s4.1,1.8,4.1,4.1c0,2.3-1.8,4.1-4.1,4.1l0,0l0,0
	C648.5,456.6,646.7,454.8,646.7,452.5L646.7,452.5L646.7,452.5L646.7,452.5z"/>
<text transform="matrix(1 0 0 1 232.6006 533.8864)" class="st2 st15 st23">0,0</text>
<path id="point-0-5-2-2-2_21_" class="st1" d="M237,541.3c0-1.5,1.2-2.8,2.8-2.8s2.8,1.2,2.8,2.8s-1.2,2.8-2.8,2.8
	S237,542.8,237,541.3z"/>
<text transform="matrix(1 0 0 1 69.0342 473.5358)" class="st2 st15 st23">18,4</text>
<text transform="matrix(1 0 0 1 558.1167 367.5241)" class="st2 st15 st23">39,0</text>
<text transform="matrix(1 0 0 1 52.9702 403.7546)" class="st2 st15 st23">34,3</text>
<text transform="matrix(1 0 0 1 52.9697 383.5192)" class="st2 st15 st23">34,8</text>
<text transform="matrix(1 0 0 1 436.1035 161.9201)" class="st2 st15 st23">79,0</text>
<text transform="matrix(1 0 0 1 434.1836 363.4245)" class="st2 st15 st23">36,6</text>
<text transform="matrix(1 0 0 1 638.1855 383.5192)" class="st2 st15 st23">37,5</text>
<text transform="matrix(1 0 0 1 638.1855 470.6559)" class="st2 st15 st23">19,3</text>
<text transform="matrix(1 0 0 1 414.2852 116.402)" class="st8 st9 st10">2019</text>
<g>
	<g>
		<path pointer-events="none" class="st24" d="M83.9,456.5c17.2-4.3,34.3-8.6,51.5-11.7s34.3-4.8,51.5-6.5c17.6-0.5,35.2-1,52.8-1.5
			c7.8-0.3,17.8-1.6,29-5c8.2-2.5,15.2-5.7,20.7-8.6c17.5-8.8,27-10.7,44.5-19.4c2.4-0.9,4.8-1.9,7.3-3c25-11.4,42.2-27.3,52.4-43.7
			c20.7-32.3,24.6-59.2,52.6-72.5c4.4-2.1,15.8,9.6,22.3,18.3c5.6,10,5.4,13.2,11,26.5c4,15,3.7,21.7,9.8,33.4
			c2.5,4.8,6.9,8.8,8.7,11.2c5.7,1.2,13.2,2.1,24.4,0.3c11.8-1.9,20.6-6.4,25.6-9.5"/>
	</g>
</g>
<g>
	<text transform="matrix(1 0 0 1 52.9702 614.6867)" class="st25 st9 st10">Font: Elaboració pròpia del LABturisme en base a dades de l&apos;Enquesta d&apos;ocupació en allotjaments de l&apos;INE.        </text>
</g>
<text transform="matrix(1 0 0 1 52.9702 631.8005)" class="st25 st9 st10">*Les dades d’abril de 2020 no estan disponibles degut al tancament d’establiments per la crisi de la COVID-19.</text>
<g>
	<text transform="matrix(1 0 0 1 274.3125 484.4108)" class="st2 st15 st23">15,3</text>
</g>
<path id="point-0-5-2-2-2_2_" class="st14" d="M184,438.5c0-1.5,1.2-2.8,2.8-2.8s2.8,1.2,2.8,2.8s-1.2,2.8-2.8,2.8
	S184,440,184,438.5z"/>
<path id="point-0-5-2-2-2_22_" class="st14" d="M237.2,437.1c0-1.5,1.2-2.8,2.8-2.8s2.8,1.2,2.8,2.8s-1.2,2.8-2.8,2.8
	S237.2,438.6,237.2,437.1z"/>
<path id="point-0-5-2-2-2_23_" class="st1" d="M287.5,470.7c0-1.5,1.2-2.8,2.8-2.8s2.8,1.2,2.8,2.8s-1.2,2.8-2.8,2.8
	S287.5,472.2,287.5,470.7z"/>
<path id="point-0-5-2-2-2_24_" class="st14" d="M290.3,421.6c0-1.5,1.2-2.8,2.8-2.8s2.8,1.2,2.8,2.8s-1.2,2.8-2.8,2.8
	S290.3,423.1,290.3,421.6z"/>
<path id="point-0-5-2-2-2_25_" class="st14" d="M339.1,400.8c0-1.5,1.2-2.8,2.8-2.8c1.6,0,2.8,1.2,2.8,2.8s-1.2,2.8-2.8,2.8
	C340.3,403.6,339.1,402.3,339.1,400.8z"/>
<path id="point-0-5-2-2-2_26_" class="st14" d="M391.8,356.5c0-1.5,1.2-2.8,2.8-2.8c1.6,0,2.8,1.2,2.8,2.8s-1.2,2.8-2.8,2.8
	S391.8,358,391.8,356.5z"/>
<path id="point-0-5-2-2-2_27_" class="st14" d="M444.9,283.8c0-1.5,1.2-2.8,2.8-2.8c1.6,0,2.8,1.2,2.8,2.8s-1.2,2.8-2.8,2.8
	S444.9,285.3,444.9,283.8z"/>
<text transform="matrix(1 0 0 1 437.6001 276.3005)" class="st2 st15 st23">56,9</text>
<path id="point-0-5-2-2-2_28_" class="st14" d="M494.7,373c0-1.5,1.2-2.8,2.8-2.8c1.6,0,2.8,1.2,2.8,2.8s-1.2,2.8-2.8,2.8
	S494.7,374.5,494.7,373z"/>
</svg>
