<?xml version="1.0" encoding="utf-8"?>
<!-- Generator: Adobe Illustrator 24.0.1, SVG Export Plug-In . SVG Version: 6.00 Build 0)  -->
<svg version="1.1" id="graphic" xmlns="http://www.w3.org/2000/svg" xmlns:xlink="http://www.w3.org/1999/xlink" x="0px" y="0px"
	 viewBox="0 0 590.1 709.2" style="enable-background:new 0 0 590.1 709.2;" xml:space="preserve">
<style type="text/css">
	.st0{fill:#FFFFFF;}
	.st1{fill:#003366;}
	.st2{font-family:'OpenSans-Bold';}
	.st3{font-size:11px;}
	.st4{font-family:'OpenSans-SemiBold';}
	.st5{font-size:8px;}
	.st6{font-family:'OpenSans-Light';}
	.st7{fill:#E3F1F3;}
	.st8{fill:#E0F3F4;}
	.st9{fill:#E5F8F8;}
	.st10{fill:#E9F9F9;}
	.st11{fill:#CBF4F4;}
	.st12{enable-background:new    ;}
	.st13{fill:#6685A3;}
	.st14{font-size:9px;}
	.st15{font-size:14px;}
	.st16{font-size:7px;}
	.st17{fill:#003366;stroke:#FFFFFF;stroke-width:0.4107;}
	.st18{fill:#66E0E0;stroke:#FFFFFF;stroke-width:0.4107;}
	.st19{fill:#2C7E9B;stroke:#FFFFFF;stroke-width:0.4107;}
	.st20{fill:#15577F;stroke:#FFFFFF;stroke-width:0.4107;}
	.st21{fill:url(#SVGID_1_);stroke:#FFFFFF;stroke-width:0.2147;}
	.st22{fill:#11507B;stroke:#FFFFFF;stroke-width:0.167;}
	.st23{fill:#CCCCCC;stroke:#FFFFFF;stroke-width:0.4107;}
</style>
<rect y="0" class="st0" width="590.1" height="709.2"/>
<g>
	<text transform="matrix(1 0 0 1 393.0391 188.1555)" class="st1 st2 st3">GIRONA</text>
</g>
<text transform="matrix(1 0 0 1 393.0391 216.5725)" class="st1 st4 st5">Ocupació:  23,8% (+13,3 pp) | </text>
<text transform="matrix(1 0 0 1 505.7393 217.5725)" class="st1 st6 st5">+9,2 pp</text>
<text transform="matrix(1 0 0 1 524.8394 216.5725)" class="st1 st4 st5"> </text>
<text transform="matrix(1 0 0 1 393.0391 230.2316)" class="st1 st4 st5">Viatgers: 22.305 (+117,7%) </text>
<text transform="matrix(1 0 0 1 493.7393 230.2316)" class="st1 st6 st5">|+7,9%</text>
<text transform="matrix(1 0 0 1 393.04 242.111)" class="st1 st4 st5">Pernoctacions: 45.856 (+128,7%) </text>
<text transform="matrix(1 0 0 1 517.04 242.111)" class="st1 st6 st5">|+50,7%</text>
<text transform="matrix(1 0 0 1 393.0396 199.34)" class="st1 st2 st5">VARIACIÓ INT. 2020</text>
<text transform="matrix(1 0 0 1 469.8398 199.34)" class="st1 st6 st5">|2019</text>
<title>LABTurisme-provincies-turisme-rural-marc-2021</title>
<path class="st7" d="M226.9,408.1c1.4,1.6,0.3,1.8-1,1.9C225,408.9,226.8,408.9,226.9,408.1z"/>
<path class="st8" d="M269.5,494.3c-0.1-0.9-0.5-1.8,0.5-2.4c0.5,0.3,0.9-1.6,1.3,0c0.1,0.5,1.1,1.6-0.4,1.6
	C270.1,493.3,270,494,269.5,494.3z"/>
<path class="st9" d="M374.4,308.5c0-0.2,0-0.5-0.1-0.7c0.8-1.7,2.2-1,3.5-1.2C377,307.8,375.3,307.3,374.4,308.5z"/>
<path class="st10" d="M383.5,306.5c0.9,0.5,1,1.4,1.2,2.2C383.2,308.8,383,307.8,383.5,306.5z"/>
<path class="st11" d="M369.7,303.7V303c0.9,0.4,2.1-0.5,2.8,0.7H369.7z"/>
<g>
	<text transform="matrix(1 0 0 1 83.1328 65.2829)" class="st12"><tspan x="0" y="0" class="st13 st6 st14">El turisme rural de l’Entorn de Barcelona s’ha triplicat respecte el 2020, i ja supera les xifres de pre-pandèmia. </tspan><tspan x="0" y="10.8" class="st13 st6 st14">Per davant se situa la província de Girona que registra les millors dades de Catalunya en els tres indicadors.</tspan></text>
	<text transform="matrix(1 0 0 1 166.1611 110.195)" class="st13 st4 st14">Entre parèntesis, variació interanual respecte l’any 2020 i 2019</text>
</g>
<text transform="matrix(1 0 0 1 248.0474 49.3928)" class="st1 st4 st15">Turisme rural</text>
<text transform="matrix(1 0 0 1 31.8057 700.1467)" class="st13 st4 st16">Font: Elaboració pròpia del LABTurisme en base a dades de l’Enquesta d’ocupació en allotjaments de l’INE</text>
<g id="regions-layer">
	<path class="st17" d="M339.3,331.6v-0.3l0.3-1l2.7-1.3l1.4,1.6l-1.7,0.6l-0.3,2.2l-1.7,0.3L339.3,331.6z M334.4,260.6l1-2.5h2
		l1,1.6l-1.7,3.2l4.1,4.1l-8.1-0.9l0.3-5.1L334.4,260.6z M533.6,298l-0.3-0.3l0.3-0.3h0.3v0.6L533.6,298L533.6,298z M523.2,346.2
		l-0.3-0.3l-0.3-0.3v-0.3l1-0.3L523.2,346.2z M388.9,383.1l-0.7-4.8l1.7-1.6l4.7,1l1,2.2l1.4-0.3l3.4-4.1l3.7,0.6v0.3l2-0.3l5.4-4.8
		l-0.4-2.9l-2.4-1.6l-0.3-0.3l-3.1-0.3l0.3-2.5l-2-1.9l0.7-1.6l6.1,0.6l2-2.9l-3.1-1.9l4.7-1.6l-0.7-3.8l1.3-1.9l-3.4-4.1l2.4-1.3
		l-1.4-1.9h-0.3v0.3h-0.3l-0.7-1.6l-2.7-0.3l-1.7,0.3l-3.4,2.5l-3.1-2.2l-2-3.8l0.7-2.2h-3l-0.7-2.2l-2.7-0.6v-0.3h-1.7l-3.7,1.3
		h-0.3l-3.4,2.2l1-3.5V331l-1-1.9l-2.4-1.6l-1-0.3v-0.3l-2.7,1l-2.7-1.3l-2,0.3l-1,0.3l-0.3,0.3h-0.3l-0.7,1.6l-2.4,1.6l-0.7-2.2
		l-6.4,0.6l-2.4,3.2l-4.1-1.9l-1.4-3.8l-4.7,1.6l-3.4-1.3l-1-1.9l-4.1,0.6v-1l-2-5.4l-3.7,0.6l-0.3-4.1l6.4,1.3l-1.4,0.3l1,1.6
		l-1.3,2.2l1.4,1.9l2.4-0.3l1.7-2.5l4.4-0.3l0.3-2.9l-1.7-0.3l-0.7-5.1v-0.3l-2.7,1.3l-1.7-2.9l1.3-1.9v-0.3l0.3-2.2l1-1V304
		l2.7-3.8v-0.3l2.4-2.2l-7.8-3.8l-5.1,2.5l-4.7-3.5l-1.4,1.3l-0.3-1.3l-5.8-1.6l-9.1,3.5l-1-9.5l3-2.9l-4.1-2.5l-3,2.5l-1.4-1.6
		l1.3-7.9l-2-2.5l-3.7,0.3l-5.7-2.2l-1.4-9.2l1-0.9l14.2,0.9l9.8,7.6l4.7,0.3l2.4-1.6l0.7,5.1l2.7,0.9l0.7,8.2l3.7,4.4l4.1,2.2
		l2.4-1.9l8.1-1l1-2.5l3.4-1.3v-2.5l3.4-4.1l2.7-1.3l7.8,0.9l7.4-4.1l6.1,3.2l2.4-1.3l8.1,5.4l10.1,1.6l0.4,3.8l2.7,0.6l3.7,5.7
		l3.4-0.3l3.4,1.9h2.7l1.7-4.1l2.7-0.6l14.9,3.5l1-2.9l-2-1.6l-1.7-5.1h3l0.7-3.5l10.1-3.8l5.1,2.5l3.4-1.6l2.3-3.8l1.7,0.3l2-4.1
		l3,0.9l1-2.5l2.7,1.6l5.7,0.3l1-3.2l2.7-1.3l2.7,2.8l4.4-1.6l2.7,1.6l4-1.6l2.4,5.4l4.4,4.1l5.4-2.2l7.8,0.3l-0.3,0.6l-1.7,0.6
		l1,0.6l0.3,0.3v0.3v0.3v0.3v0.3l-0.3,0.6h-0.3v0.3v0.3h-0.3l-1,1.3l1.4,0.6v0.3l-0.3,0.3h-0.3l-1,1.3h0.3v0.3h1.4h0.3v0.3l-1.7,1.9
		l0.3,1h0.3l1,0.6v0.3v0.3v0.3h-0.3l-0.3,0.3l0.3,0.3l1,1.3l0.7,0.3l0.3,0.3h0.7l0.7,0.6l-0.3,1l0.7,0.6l0.3,0.6l1.4,0.6l0.7-2.5
		l1,0.3l0.7-0.6h0.3h2.4l0.7,1v1h0.3v0.3l1.4,1.3l1.3-0.6h0.3v-0.3v-0.6l1.4,0.3l1,0.3h0.3v0.6l0.7,0.3h0.3l1.7,0.6v0.3h0.3h0.7h0.3
		l0.7,1.3v-1l0.3,0.3l1,0.3l0.3,0.3v0.3l-0.7,0.6v0.3h-0.3l-0.3-0.3l-0.3,0.6h-0.3l-1.3,1.3v0.3l-1-0.3H533l-0.3,0.3l0.3,0.3h0.3
		v0.3v0.3l-0.3,0.3l-0.7,1.3h1l0.3,0.3h0.3v0.3v0.6v0.3l-1,0.3h-0.3h-0.3l-1.4-1.3l0.4,2.2l0.3,0.6l-0.3,4.1l-3.7,0.3l1.4,2.5v0.3
		l-3.1-2.5h-2.4l0.3,1l-0.3,0.3l-1,1.9l-3.4-1.9l-2.7-0.6l-1-3.5H513l-5,5.4l-2,6l1.8,13.7h0.3v0.6v0.3v0.3l1.7,0.6v0.3l0.4,1.9
		l2.7-0.3l1,0.3l0.7,0.3l1.4,0.3l-0.7,1.6l1,0.3l1,0.3v0.3h0.3l1.4,2.9l1.4,2.2l0.7,1.6v0.3v0.3l0.3,0.6v0.6v0.3h-0.3v0.3l-1.7,0.3
		l-0.6,6.7l2.4,8.6h1.4v-0.3h0.3l0.7,0.3v0.3v0.3h0.3h0.3v0.3v1l0.3,1v-0.6h0.3l-0.3,0.6v0.3h-0.2v0.3v0.3l-0.3,1v0.3h-0.3v0.3
		l-0.3,0.3h-0.3l-0.3,0.3v0.6h-0.5v0.3L522,366h0.3l0.3,0.3l-0.3,1l0.3,0.6v0.3h-0.3l0.3,0.6h-0.3v0.6l-1.3,1l0.3,1H521v0.3h0.3v0.3
		v0.3v0.3l-0.7,0.3v0.3v0.3v0.3h-0.3l-0.7,0.6h-0.7h-0.3l0.3,0.3l-0.3,0.3l-0.3,0.3H518h-0.7v0.3v0.3v0.3v0.3H517l-0.3,0.3v0.3
		l0.3,0.3l-0.3,0.6v0.3v0.3v0.3l-1,1h-0.4H515l-0.3,0.3h-0.4v0.3l-1.4-0.3h-0.3l-0.7,0.6l-0.7,0.6v1.3h-0.3h-0.3l-1.3,1.6l-2.4-1.6
		l-3,2.2v0.3v0.3v0.3h-0.3l-0.7,1h-0.3v0.3h-0.3v0.3H502v0.3h-0.3l-2.7,5.7v0.3l-0.3,1h-0.3H497v0.3v0.3l0.3,0.3l-0.7,0.6l-0.3,0.3
		h-1.7l0.3,1v0.3h-0.7l-3.7,0.6v0.3l-0.3,0.3l-2.7,1l-0.3,0.3l-0.7,0.3v0.3v0.3h-0.7l-0.7,1.3l-0.3,0.3l-0.7,1h-0.3l-0.7,1.9
		l-0.7,0.3l-0.7,0.6h-0.3l-0.3,1l-4.1,2.6l-2.4,1h-0.3l-1.4,0.3l-2.4,0.3v0.3h-0.7h-0.7l-2.4,0.6l-0.3,0.3h-0.3l-0.3,0.3l-1.7,0.3
		h-0.3l-0.3,0.3h-0.3l-0.7,1.3h-0.3l-1,1v0.3l-0.7,0.3l-1.7,0.6l-2,3.8l-3.1-5.4l2.4-4.1l-0.7-5.1v-0.3l1-1.6l-12.2-1.3l-2-0.6v1.3
		l-3.7-1.6l-2.4,0.6l-1.7,2.6l-13.9,1.9l-3.1-7.7l-7.1-3.5l0.3-2.2l-2.4,1l-2-1l-1-2.9l-12.5-0.6L388.9,383.1z"/>
	<path class="st18" d="M114.1,647.9l-11.9-5.2l-0.7-3.5l1.7-2.6l-5.8-2.9l-0.3-1.9l-9.9-1l-8.5-3.9l-2.4-3.9l0.4-2.6l3.8-5.2
		l-4.8-4.2l-3.8,1l-1.7-6.1l-4.1,1.6l-4.1-1.6l-1-1.9l-0.7-1.3l2.4,1.6v-2.9l2,1l3.4-3.5l2.4,0.3l1.4-4.5l6.2-6.8l-2.7-3.9l-0.3-1
		l-0.3-5.5l-2.4-1.9l8.3-17.7H79V555l-2-2.6l1-1l-2.4-1.3l0.3-1.6l2.7-0.3l-2.7-1l-2-2.9l-2.4,1.3V543l-2.4,0.3l2.1-1.3l-1.7-1.6
		l0.4-2.2l-0.7-2.6h-2.4l1.4-6.4l-1.4-1.3l3.1-1.9l-1-0.6l5.1,1.3l0.7-4.2l3.4,0.3l4.4-2.9l2.1-10.9l3.4-2.6l2.7,1.3l0.7-2.2h2.9
		l-1-2.6l1.7-5.8l7.1,0.6l0.4-9l4.1-2.9l6.4,9h3.4l4.1-7.4l4.1,1.3l3.4,5.4l3.4,0.3l5.8-2.9l0.7-0.6h0.3h0.7l11.6-1.6l1.7-3.5
		l2.4,0.6h1h1v0.3l3.7,0.6l0.7-1.3l0.3-1l0.7-3.8l1.7-1l3.7,4.8l13.3-2.9l2-0.6l-0.3-2.2l2.7-4.8l1.7,0.6l1.4-3.2l4.1-1l2.7-5.4
		l1.4-1.3l0.3-0.3l2-1.9l0.7-1l-2-1.3l-3.7-2.9l1.4-0.6l-1-3.5l10.2,5.4v1.3l10.9-3.8l-2.4-5.1l1.7-3.5l-1.7-1l1.4,0.6l-0.7-1.6
		l6.8-1.9l0.3-3.5l4.8-0.3l8.5-0.3l15.3,2.6l-1.7-3.5l4.4-1.3l4.8,2.6l-3.4,2.6l0.3,1.3l2-0.6l0.3,3.2l-6.1,0.3l-1.7,4.5l7.5,3.5
		l0.7,1.6h3.4l1.7,3.2h0.3l-2.7,5.1l0.7,1.6l2.7,0.3l-2.4,1.3l1,1.6l1,4.2l-2.4,3.5l5.1-2.6l4.8,1.9l2,3.2h2.7l1,2.2h0.3l-3.1,2.6
		l2,5.4l3.4,1.3l-0.7,3.2l3.4,1.9l0.3-1.6l3.4-0.6l-1.4,0.3l-1,8l-7.8-1.3l1,3.5l7.1,3.8l2.4-2.2l1,4.5l-0.3,3.2l-20.1,3.5l-6.8,2.2
		l-10.9,7.1l-5.1,0.3l-9.9,0.3l-7.2,3.8l-3.4,4.2l3.4-4.2l-2.7,1.6l-2.7-0.6l-3.4,3.2l-2.7,6.4h-1.4l-2.4-3.2l-3.7-0.6l-5.8,2.6
		l-5.4-0.3l-9.9,5.1l-6.5,6.4l-0.7,2.6l-5.5,3.2l-5.8,6.1l-9.9,15.4l-6.5,4.2l-1.4,4.5l-6.5,3.9l1,3.5l4.4,4.2l6.8-0.3v-1.3
		l-7.5-2.3l0.7-1.3l3.8-0.3l3.1,1.9l8.2,10.6l3.8-1l3.1,1.9l-1.4,6.1l-6.5,5.2l-9.9,4.8l-12.3,16.1l-9.9,2.3l-3.1-2.9l-0.3-2.3
		l3.1,0.3h0.3h-0.3l0.3-1.6l2.4,0.6v0.3v0.3l0.3,0.3l1,0.3l0.7,0.3h0.3l0.3-0.3v-0.3v-0.6h0.7v-0.3v-0.3l0.7-1.6l8.2-0.3l4.1-6.4
		l0.7-2.3h-1l-0.3-0.3h-0.5l-20.2,3.2l-9.6,11L114.1,647.9z"/>
	<path class="st19" d="M295,376.8v-1.6l2.7,1l-0.7,1.3L295,376.8z M195.1,466.1l-2.7,5.4l-4.1,1l-1.4,3.2l-1.7-0.6l-2.7,4.8l0.3,2.2
		l-2,0.6l-13.3,2.9l-3.7-4.8l-1.7,1l-0.7,3.8l-0.3,1l-0.7,1.3l-3.7-0.6V487h-1h-1l-2.4-0.6l-1.7,3.5l-11.6,1.6h-0.7H138l-0.7,0.6
		l-5.8,2.9l-3.4-0.3l-3.4-5.4l-4.1-1.3l-4.1,7.4h-3.4l-6.4-9l-4.1,2.9l-0.4,9l-7.1-0.6l-3-5.1l0.7-2.9l-3.1-1.6l3.8-5.1l-1.7-3.2
		l-6.4-5.1l2.4-2.6l3.1-9l-1.7-1.6l-0.3-4.5l6.5-0.3l2.7-1.9l6.5-10.5l-2.4-3.2l-0.3-7.3l-3.7,1.6l-8.1-1.3l-0.3-4.5l1.7-1.9
		l-4.7-5.7v-3.2l6.5-7.3l2.4-5.1L97,408l0.7-5.1l10.9-1.6l1.7-6.7l5.1-4.5l4.1,0.6l1.7-6.4l4.1,0.3v-2.5l4.1-1.6L127,378l1.4-4.8
		l-1-1.3l2-0.6l-6.8-2.9v-1.3l4.4-5.7l1.7,1.6l3.1-6.4l2.4-0.3l0.3,2.2l0.7-2.9l1.7-0.6l1-2.9l-1.4-0.6V348l2.4-1.9l-0.3-2.9
		l4.8-8.9l-0.6-9.2l2.7-1.9l-1.7-1.3v-4.1l1.7-6.7l3.1-4.8l1.7-10.5l3.1-4.1l-3.4-1v-1.9l4.4-2.9L147,283l3.4-3.8l-8-19.3l1.4-2.2
		l2,1.3l4.1-3.2l-3-1.6V252l0.7-1.6l3.7-0.6l-1.3-1.6l4.1-12v-1.3l-3.4-0.6L145,233l-1.7-7.3l-3-3.5l-2.4-2.8h2.4l1-2.8l-3-9.2
		l-3-0.3l3.7-4.4l-3-1.6l3.7-3.5l-1.7-7.3l3-1.9l-0.3-1.3l4.4-1.3l10.4,5l3-0.9l9.1,2.8l10.1,7.3l5.7-3.2l2.7,3.5h7.8l1.7,1.3
		l4.4-0.3l0.7-1.3l7.7,6.6l0.7,5.4l4.7,3.8l10.1-3.8l3,2.5l10.8-1.9l4.7,0.9l-0.7,3.8l5.7,2.5l-0.3,3.8l3.7,2.2l1,6.3l3.4,4.1
		l-2.4,4.4l2.7,2.5l-2.7,1.6l-2,4.7l4.7-1.6l3.7,6.6l-7.4,4.4l3,1.9l0.3,6.6l2,1.6l14.5,0.6l1-5.1l3.4,1.6l1.4-2.8l10.1-0.6l1.7-7.3
		l2,2.2l3.4,0.6l3-2.8l0.7,2.5l-1,0.9l1.4,9.2l5.7,2.2l3.7-0.3l2,2.5l-1.3,7.9l1.4,1.6l3-2.5l4.1,2.5l-3,2.9l1,9.5l-1.7,1h-4.1
		l-3.7,1.9l-6.1,0.3l-0.7,1.3l-2.7-1l-7.1,1.3l3,1l0.7,2.5l-1.4,1.6l3,3.2l-0.7,1.9l-3,1.3l0.7,3.5l3.4,3.2l1.7-1.3l3,1.3l-0.3,1
		v1.6v0.3l0.3,2.5l-1.4,0.6l-3.4,1.9l-1.4,4.1l1.4,1l-0.3,3.5l2.7,2.2l-1,1.9l-3.7-0.6l-2.7,6l-0.7,2.5l1.4,1l0.7-1.9l2.4,4.1
		l-3.7,1.6l-1,3.2l-0.3-3.5h-1.4l-1.4,4.1l1,1.6l1-2.2v2.2l3.7-0.3l1.7,1.9v-6l3.4,3.2l-0.7,1.6l0.3,1.6l-5.1,3.2l-2-1.3l1-1.9
		l-3.7,1l-0.3,6.4l-1,1l1.7,2.5h-1.7h-0.3l-8.1,8l-1.4-1l-1.4,2.5l2.4,1.3l2.4-2.2l2.7,0.6l0.7,1.6l1.4,5.7l-3.1,1.3v3.8l-3.4,2.5
		l1.7,3.2l-1,2.2l-2.7-1l-2,1v1.6l-2-0.3l-0.3,2.9l-2.4,1v-2.6l-1-0.3l-1.7-1l-0.3-0.3V399l-0.3-0.3l-0.3-2.5H262l-1,3.5v-0.3
		l-1.4,0.3V394l-1.7,0.3h-1.6l-3.7-0.6l-1.4,1.3l-2,9.9l3.1,2.6l-6.1,5.1l2.4,0.3l-0.7,1.9l1.4,1.9l3.1,0.3l-1.4,1.9l3.7,5.1v0.3
		h1.7v1.3l-3.1,2.2l-5.4-1.3l-5.1,4.1l7.1,2.9l-2.4,4.8l1.7,3.5l-15.3-2.6l-8.5,0.3l-4.8,0.3l-0.3,3.5l-6.8,1.9l0.7,1.6l-1.4-0.6
		l1.7,1l-1.7,3.5l2.4,5.1l-10.9,3.8v-1.3l-10.2-5.4l1,3.5l-1.4,0.6l3.7,2.9l2,1.3l-0.7,1l-2,1.9l-0.3,0.3L195.1,466.1z M292.5,332.9
		l-3-0.6l-4.1,0.3l4.1,1.9h3V332.9z"/>
	<path class="st20" d="M289.5,332.2l3,0.6v1.6h-3l-4.1-1.9L289.5,332.2z M285.5,513.8l0.3-3.2l-1-4.5l-2.4,2.2l-7.1-3.8l-1-3.5
		l7.8,1.3l1-8l1.4-0.3l-3.4,0.6l-0.3,1.6l-3.4-1.9l0.7-3.2l-3.4-1.3l-2-5.4l3.1-2.6h-0.5l-1-2.2h-2.7l-2-3.2l-4.8-1.9l-5.1,2.6
		l2.4-3.5l-1-4.2l-1-1.6l2.4-1.3l-2.7-0.3l-0.7-1.6l2.7-5.1h-0.3l-1.7-3.2h-3.5l-0.7-1.6l-7.5-3.5l1.7-4.5l6.1-0.3l-0.3-3.2l-2,0.6
		l-0.3-1.3l3.4-2.6l-4.8-2.6l-4.4,1.3l2.4-4.8l-7.1-2.9l5.1-4.1l5.4,1.3l3.1-2.2v-1.3h-1.7v-0.3l-3.7-5.1l1.4-1.9l-3.1-0.3l-1.4-1.9
		l0.7-1.9l-2.4-0.3l6.1-5.1l-3.1-2.6l2-9.9l1.4-1.3l3.7,0.6h1.4l1.7-0.3v5.7l1.4-0.3v0.3l1-3.5h2.7l0.3,2.5l0.3,0.3v0.3l0.3,0.3
		l1.7,1l1,0.3v2.6l2.4-1l0.3-2.9l2,0.3v-1.6l2-1l2.7,1l1-2.2l-1.7-3.2l3.4-2.5v-3.8l3.1-1.3l-1.4-5.7l-0.7-1.6l-2.7-0.6l-2.4,2.2
		l-2.4-1.3l1.4-2.5l1.4,1l8.1-8h0.3h1.7l-1.7-2.5l1-1l0.3-6.4l3.7-1l-1,1.9l2,1.3l5.1-3.2l-0.3-1.6l0.7-1.6l-3.4-3.2v6l-1.7-1.9
		l-3.7,0.3V354l-1,2.2l-1-1.6l1.4-4.1h1.4l0.3,3.5l1-3.2l3.7-1.6l-2.4-4.1l-0.7,1.9l-1.4-1l0.7-2.5l2.7-6l3.7,0.6l1-1.9l-2.7-2.2
		l0.3-3.5l-1.4-1l1.4-4.1l3.4-1.9l1.4-0.6l-0.3-2.5v-0.3v-1.6l0.3-1l-3-1.3l-1.7,1.3l-3.4-3.2l-0.7-3.5l3-1.3l0.7-1.9l-3-3.2
		l1.4-1.6l-0.7-2.5l-3-1l7.1-1.3l2.7,1l0.7-1.3l6.1-0.3l3.7-1.9h4.1l1.7-1l9.1-3.5l5.8,1.6l0.3,1.3l1.4-1.3l4.7,3.5l5.1-2.5l7.8,3.8
		l-2.4,2.2v0.3l-2.7,3.8v0.3l-1,1l-0.3,2.2v0.3l-1.3,1.9l1.7,2.9l2.7-1.3v0.3l0.7,5.1l1.7,0.3l-0.3,2.9l-4.4,0.3l-1.7,2.5l-2.4,0.3
		l-1.4-1.9l1.3-2.2l-1-1.6l1.4-0.3l-6.4-1.3l0.3,4.1l3.7-0.6l2,5.4v1l4.1-0.6l1,1.9l3.4,1.3l4.7-1.6l1.4,3.8l4.1,1.9l2.4-3.2
		l6.4-0.6l0.7,2.2l2.4-1.6l0.7-1.6h0.3l0.3-0.3l1-0.3l2-0.3l2.7,1.3l2.7-1v0.3l1,0.3l2.4,1.6l1,1.9v0.3l-1,3.5l3.4-2.2h0.3l3.7-1.3
		h1.7v0.3l2.7,0.6l0.7,2.2h3l-0.7,2.2l2,3.8l3.1,2.2l3.4-2.5l1.7-0.3l2.7,0.3l0.7,1.6h0.3v-0.3h0.3l1.4,1.9l-2.4,1.3l3.4,4.1
		l-1.3,1.9l0.7,3.8l-4.7,1.6l3.1,1.9l-2,2.9l-6.1-0.6l-0.7,1.6l2,1.9l-0.3,2.5l3.1,0.3l0.3,0.3l2.4,1.6l0.4,2.9l-5.4,4.8l-2,0.3
		v-0.3l-3.7-0.6l-3.4,4.1l-1.4,0.3l-1-2.2l-4.7-1l-1.7,1.6l0.7,4.8l3.8,7.9l12.5,0.6l1,2.9l2,1l2.2-0.7l-0.1,1.9l7.1,3.5l3.1,7.7
		l13.9-1.9l1.7-2.6l2.4-0.6l3.7,1.6l0.3-0.9l1.7,0.5l12.1,1l-1.2,1.7l0.8,5l-0.4,2.3l-1.6,2.8l2.7,4.7l-0.4,2.3l-20.7,8.9h-0.3
		l-25.8,11.5l-14.9,11.2l-15.6,6.1L366.6,481l-1,1.3l1.7-5.4l-2.4,5.4l-3.1,1.3l-0.5,3.6l2-2.6l-1,4.2l-5.4,6.4L343,500l-12.9,0.3
		l-12.6,5.8l-6.5-0.3l-3.7,2.6L285.5,513.8z M295,376.8l2,0.6l0.7-1.3l-2.7-1V376.8z M342,331.3l1.7-0.6l-1.4-1.6l-2.7,1.3l-0.3,1
		v0.3l0.7,2.2l1.7-0.3L342,331.3z"/>
</g>
<linearGradient id="SVGID_1_" gradientUnits="userSpaceOnUse" x1="298.9" y1="12453.999" x2="377.5" y2="12453.999" gradientTransform="matrix(1 0 0 1 0 -12319.2988)">
	<stop  offset="0" style="stop-color:#83E2E2"/>
	<stop  offset="0.9637" style="stop-color:#003366"/>
	<stop  offset="1" style="stop-color:#000000"/>
</linearGradient>
<rect x="298.9" y="130.5" class="st21" width="78.6" height="8.4"/>
<text transform="matrix(1 0 0 1 243.3486 137.1833)" class="st1 st6 st16">% d’ocupació:</text>
<text transform="matrix(1 0 0 1 286.1484 137.1833)" class="st1 st6 st5">  </text>
<text transform="matrix(1 0 0 1 295.2339 147.1247)" class="st1 st6 st16">menys</text>
<text transform="matrix(1 0 0 1 373.3491 147.1247)" class="st1 st6 st16">més</text>
<g id="regions-layer_1_">
	<path class="st22" d="M13.4,318.8l-0.1-0.1l0.1-0.1h0.1v0.3L13.4,318.8L13.4,318.8z M9,339.1L8.9,339l-0.1-0.1v-0.1l0.4-0.1
		L9,339.1z"/>
</g>
<text transform="matrix(1 0 0 1 31.8052 239.5739)" class="st1 st2 st3">LLEIDA</text>
<text transform="matrix(1 0 0 1 31.8052 268.9138)" class="st1 st4 st5">Ocupació:  </text>
<text transform="matrix(1 0 0 1 31.8052 278.5139)" class="st1 st4 st5">18,9% (+11,4 pp) </text>
<text transform="matrix(1 0 0 1 95.605 278.5139)" class="st1 st6 st5">|+9,5 pp</text>
<g>
	<text transform="matrix(1 0 0 1 31.8052 292.7429)" class="st1 st4 st5">Viatgers: </text>
	<text transform="matrix(1 0 0 1 31.8052 302.343)" class="st1 st4 st5">10.548 (+288,1%) </text>
	<text transform="matrix(1 0 0 1 96.8052 302.343)" class="st1 st6 st5">|</text>
	<text transform="matrix(1 0 0 1 93.1055 302.343)" class="st1 st4 st5"> </text>
	<text transform="matrix(1 0 0 1 101.2056 302.343)" class="st1 st6 st5">+62,4%</text>
</g>
<g>
	<text transform="matrix(1 0 0 1 31.8052 314.9191)" class="st1 st4 st5">Pernoctacions: </text>
	<text transform="matrix(1 0 0 1 31.8052 324.5192)" class="st1 st4 st5">23.688 (+105,8%)</text>
	<text transform="matrix(1 0 0 1 96.8052 324.5192)" class="st1 st6 st5">|+26,6%</text>
	<text transform="matrix(1 0 0 1 88.8052 324.5192)" class="st13 st4 st5"> </text>
</g>
<text transform="matrix(1 0 0 1 31.8057 250.5861)" class="st1 st2 st5">VARIACIÓ INT. 2020</text>
<text transform="matrix(1 0 0 1 108.6055 250.5861)" class="st1 st6 st5">|2019</text>
<g>
	<text transform="matrix(1 0 0 1 393.04 491.2048)" class="st1 st2 st3">ENTORN DE BARCELONA</text>
</g>
<text transform="matrix(1 0 0 1 393.0396 523.5099)" class="st1 st4 st5">Ocupació: 21,7% (+14,7 pp)</text>
<text transform="matrix(1 0 0 1 497.2397 523.5099)" class="st1 st6 st5">|+6,2 pp</text>
<text transform="matrix(1 0 0 1 393.04 537.4313)" class="st1 st4 st5">Viatgers: 15.308 (+295,8%) </text>
<text transform="matrix(1 0 0 1 493.7397 537.4313)" class="st1 st6 st5">|+8,2%</text>
<text transform="matrix(1 0 0 1 513.9399 537.4313)" class="st1 st4 st5"> </text>
<text transform="matrix(1 0 0 1 393.04 551.3522)" class="st1 st4 st5">Pernoctacions: 31.217 (+257,7%) </text>
<text transform="matrix(1 0 0 1 516.6396 551.3522)" class="st1 st6 st5">|+24,4%</text>
<text transform="matrix(1 0 0 1 393.04 503.134)" class="st1 st2 st5">VARIACIÓ INT. 2020</text>
<text transform="matrix(1 0 0 1 469.8398 503.134)" class="st1 st6 st5">|2019</text>
<g>
	<text transform="matrix(1 0 0 1 194.9688 580.6828)" class="st1 st2 st3">TARRAGONA</text>
</g>
<text transform="matrix(1 0 0 1 194.9688 611.3723)" class="st1 st4 st5">Ocupació: 15,5% (+8,5 pp)</text>
<text transform="matrix(1 0 0 1 293.1685 611.3723)" class="st1 st6 st5">|+5,1 pp</text>
<text transform="matrix(1 0 0 1 194.9688 625.0309)" class="st1 st4 st5">Viatgers: 4.420 (+108,1%)</text>
<text transform="matrix(1 0 0 1 291.6685 625.0309)" class="st1 st6 st5">|+13,3%</text>
<text transform="matrix(1 0 0 1 194.9688 639.2145)" class="st1 st4 st5">Pernoctacions: 10.126 (+105,8%)</text>
<text transform="matrix(1 0 0 1 319.8247 639.2145)" class="st1 st6 st5">|+26,6%</text>
<text transform="matrix(1 0 0 1 194.9688 592.3522)" class="st1 st2 st5">VARIACIÓ INT. 2020</text>
<text transform="matrix(1 0 0 1 271.7686 592.3522)" class="st1 st6 st5">|2019</text>
<path class="st23" d="M370.8,458.2L370.8,458.2L370.8,458.2L370.8,458.2L370.8,458.2l0.1-0.1l0,0l0,0l0,0V458v-0.1l0,0l0,0l0,0h0.1
	h0.1h0.1l0,0l0,0l0,0v-0.1l0.1-0.1l0.1-0.1l0,0v-0.1l0,0l0,0v-0.1v-0.1v-0.1v-0.1l0,0l0,0l0,0l0,0l0,0l0,0l0,0l0,0l0,0h-0.1h-0.1
	l0,0l0,0l0,0l0,0l0,0l0,0l0,0l0,0l0,0l0,0h-0.1l0,0l0,0l0,0H371l-0.1-0.1l0,0l0,0l0,0l0,0l-0.1-0.4l0,0l0.1-0.1l0.2-0.2l0.2-0.2
	l0.2-0.3v-0.1v-0.1l-0.1-0.3v-0.1v-0.1l0,0l0,0h0.2h0.1l0.5-0.3l0.1-0.1l0.1-0.1v-0.1v-0.1l0.2-0.2h0.1h0.1l0.2,0.1l0.2-0.1l0.1-0.1
	l0.2-0.1h0.2h0.2l0.2,0.1l0.3,0.1l0.2,0.1h0.2h0.1h0.1l0,0h0.1l0.2,0.1h0.1h0.2h0.2h0.1l0,0v0.1v0.1v0.1v0.1l0,0l0,0h0.1v0.1v0.1
	l0,0l0,0l0,0l0,0l0,0l0,0l0,0l0,0l0,0v0.1l0,0v0.1l0,0l0,0l0,0l0,0l0,0l0,0l0,0l0,0l2,2.9v0.1l0.1,0.2l0.2,0.3l0.2,0.4l0.1,0.2
	l0.2,0.3l0.2,0.3l0.2,0.4h-0.1l0,0l0,0l0,0l0,0l0,0l0,0l0,0l0,0l0,0l0,0l0,0l0,0l0,0l0,0l0,0l0,0l0,0H379l-0.1,0.1l0,0l0,0l0,0l0,0
	h-0.1l0,0l0,0l0,0l0,0l0,0l0,0l-0.1,0.1l0,0l0,0l0,0l0,0l0,0l0,0l0,0h-0.1l0,0l0,0l0,0l0,0l0,0l0,0l0,0l0,0l0,0l0,0l0,0l0,0l0,0l0,0
	l0,0l0,0l0,0l0,0l0,0l0,0l0,0l0,0l0,0l0,0l0,0l0,0l0,0l0,0l0,0l0,0l0,0l0,0l0,0l0,0l-0.1,0.1l0,0l0,0l0,0l0,0l0,0l0,0l0,0l0,0l0,0
	l0,0l0,0l0,0l0,0l0,0l0,0v0.1l-0.2,0.2v0.1l0,0v0.1l0,0l-0.1,0.1l0,0l0,0l0,0l0,0l0,0l0,0l0,0l0,0l-0.1,0.1v0.1v0.1l-0.1,0.1
	l-0.1,0.1v0.1v0.1v0.1l0,0v0.1v0.1v0.1l-0.1,0.1v0.1v0.1l0,0l0,0l0,0v0.1l0,0v0.1l0,0l0,0l0,0l0,0l0,0l0,0l0,0l0,0l0,0l-0.1,0.2v0.1
	v0.1l0,0v0.1l0,0l-0.1,0.1l0,0l0,0l0,0l0,0l0,0l0,0l0,0l0,0l0,0l0,0l0,0l0,0l0,0h-0.1l0,0h-0.1l0,0l0,0l0,0l0,0l0,0l0,0h0.1l0,0l0,0
	l0,0l0,0l0,0l0,0l0,0l0,0l0,0l0,0l0,0l0,0v0.1l0,0l0,0l0,0l0,0l0,0l0,0l0,0l0,0l0,0v0.1l0,0l0,0l0,0l0,0l0,0l0,0l0,0l0,0l0,0l0,0
	v0.1l0,0v0.1l0,0l0,0l0,0l0,0v0.1l0,0l0,0l0,0l0,0l0,0l0,0l0,0l0,0l0,0l0,0l0,0l0,0l0,0l0,0l0,0l0,0l0.2-0.9l-0.4-0.1l-0.1,0.2
	l-0.1,0.3l0.4,0.1v0.1l-0.4-0.1v0.1h0.1l0,0l0,0l0,0l0,0v0.2l0.2,0.1v-0.2l0,0l-0.1,0.2h-0.1l0,0l0,0h-0.1l0,0l0,0l0,0l0,0l0,0l0,0
	l0,0l0.1,0.1l0,0l0,0l0,0l0,0l0,0l0,0l-0.1-0.1l0,0l0.2,0.1l0,0l0,0l0,0l0,0l0,0l0,0l-0.1-0.1l0,0l0,0l0,0l0,0l0,0l0,0v0.1v0.1l0,0
	v0.1v0.1v0.1l0,0l0,0l0,0l0,0l0,0l0,0l0,0l0,0l0,0l0,0l0,0l0,0l0,0l0,0l0,0l0,0l0,0l0,0l0,0l0,0l0,0l0,0l0,0v0.1l0,0l0,0l0,0l0,0
	l0,0l0,0l0,0l0,0l0,0v0.1l0,0v0.1l0,0l0,0l0,0l0,0l0,0l0,0l0,0l0,0l0,0l0,0l0,0l0,0v0.1l0,0l0,0l0,0l0,0v0.1v0.1v0.1v0.1v0.1v0.1
	l0,0v0.1l0,0l0,0l0,0l0,0l0,0l0,0l0,0l0,0l0,0l0,0l0,0l0,0l0,0l0,0l0,0l0.1,0.1l0,0l0,0l0,0l0,0l0,0l0,0l-0.1-0.1l0,0l0,0l0,0l0,0
	v0.1l0,0l0,0l0,0l0,0v0.1l0,0l0,0v0.1v0.1v0.1l0,0l0,0l0,0l0,0h0.2l0,0l0,0v-0.1l0,0l0,0l0,0l0,0l0,0l0,0l-0.4,0.8l-0.2,0.4l0,0l0,0
	l0,0l0,0l0,0l0,0l0,0l0,0l0,0l0,0l0,0l0,0l0,0l0,0l0,0l0,0l0,0l0,0l0,0l0,0l0,0l0.2-0.4l0.3-0.7l0,0l-0.4,0.3l0.1,0.2l0,0l0,0l0,0
	l-0.1-0.1l-0.2,0.1l0,0l0.1-0.1l-0.2-0.4l0,0l-0.1,0.2v0.1l0,0v0.1l0,0l0,0l0,0l0,0l0,0L373,470l0.1,0.1l0.1-0.2h0.2l0,0l0,0
	l0.1,0.1l0,0l0,0l0,0l0.2,0.2l0,0h-0.1l0,0h0.1l0,0l-0.1,0.3l0,0l0,0l0,0l0,0l0,0l0,0l0,0l0,0l0,0l0,0l0,0l0,0l0,0l0,0l0,0l0,0l0,0
	l0,0l0,0l0,0l0,0l0,0l0,0l0,0l0,0v-0.1h-0.1l-0.1,0.1h-0.1l0,0l-0.1,0.1l0,0l0,0l0,0l0,0v0.1v0.1l0,0l0,0l0,0l0,0l0,0l0,0l0,0l0,0
	l0,0v0.1l0,0v0.1l0,0l0,0l0,0l0,0l0,0l-0.1,0.1l0,0l0,0l0,0l0,0l0,0l0,0l0,0l0,0l0,0l0,0l0,0l0,0l0,0l0,0l0,0l0,0l0,0l0,0l0,0l0,0
	l0,0l0,0l0,0l0,0l0,0l0,0l0,0l0,0L373,471v0.1l0.1,0.1l0,0l0,0l0.1,0.1l0,0l0,0l0,0l0,0l0,0l0,0l0,0l0,0l0,0l0,0l0,0l0,0l0,0l0,0
	l0,0l0,0l0,0l0,0h-0.1l0,0l0,0l-0.1,0.1l0,0l0,0l-0.1,0.1l0,0l0,0l0,0l0,0l0,0l0,0l0,0l0,0l0,0l-0.1-0.1l-0.1,0.1l0.1,0.1l0,0l0,0
	l0,0l0.1,0.1l0,0l0,0l0,0l0,0l0,0l0,0l-0.3-0.3l0,0l0,0l-0.2,0.1h-0.1l0,0l-0.1,0.2v0.1l0,0l0.2,0.2l0,0l0,0l0,0l0,0l0,0l-0.2-0.2
	l0,0l0,0l-0.2,0.1v0.1v0.1l-0.1,0.1l-0.1,0.2l0,0l0.2,0.2v0.1l0,0l0,0l0,0l0,0l0,0l0,0l-0.1-0.1l-0.1-0.1h-0.1l-0.1,0.1l-0.1,0.1
	l-0.1,0.1l-0.1,0.1l-0.1,0.1v0.1v0.1l0.2,0.2l0,0l-0.1-0.1l0,0l0.1,0.1l0,0l-0.2-0.2h-0.1l-0.1,0.1l-0.1,0.1l-0.1,0.1l-0.1,0.1
	l-0.1,0.1l-0.1,0.1v0.1l0.2,0.2l0,0l-0.2-0.2l0,0l0.2,0.2l0,0l-0.2-0.2l0,0l0,0l0,0h-0.1l-0.1,0.1l-0.1,0.1l0,0v0.1v0.1v0.1l0,0l0,0
	l0,0l0.2,0.2l0,0l0,0l0,0l0,0l0,0l0,0l0,0l0,0l0,0l0,0l0,0l0,0l-0.1,0.1l0.1,0.1v0.1l-0.1,0.1l-0.1,0.1l-0.1,0.1l-0.1,0.1l-0.1,0.1
	h-0.1h-0.1l0,0h-0.1l0,0l0,0l0,0l0,0l0,0l0,0l0,0l0,0l0,0l0,0l0,0l0,0l0,0l0,0l0,0l0,0l0,0l0,0l0,0l0,0l0,0l0,0l0,0l0,0l0,0l0,0l0,0
	l0,0l0,0l0,0l0,0l0,0l0,0l0,0l0,0l0,0l0,0l0,0l0,0l0,0l0,0l0,0l0,0l0,0l0,0l0,0l0,0l0,0l0,0l0,0l0,0l0,0l0,0l0,0l0,0l0,0l0,0l0,0
	l0,0l0,0l0,0l0,0l0,0l0,0h0.1l0,0h0.1l0,0l0.1-0.1l0.1-0.2l0,0l0.1-0.1l-0.1-0.1l-0.2,0.2l0,0l-0.1,0.1l-0.1-0.1l0.3-0.3l-0.2-0.2
	l-0.3,0.3l0,0l0,0l0.2,0.2l0,0l0,0l0,0v0.1l0,0l0,0l0,0l0,0l0,0l-0.1,0.1h-0.1l-0.1-0.1v0.1l0,0v0.1l0,0l0,0h-0.1l0,0l0,0h-0.1l0,0
	l0,0l-0.1,0.1l0,0v0.1l0,0v0.1v0.1v0.1l0,0l0,0l0,0l0,0l0.2,0.1l0,0l-0.2-0.1l0,0l0,0l0,0v0.1l0,0l0,0l0,0l0.2,0.1l0,0l-0.3-0.1l0,0
	l-0.1,0.1l-0.1,0.1l0,0L368,477v0.1v0.1l0,0v0.1v0.1l0,0l0,0l-0.1,0.1l-0.1,0.1l-0.1,0.2l-0.1,0.3v0.1v0.1v0.1v0.1l0,0v0.1v0.1v0.1
	l0,0v0.1l0,0l0,0l0,0h0.1l0.1-0.1l0,0l0,0l0,0l0,0l0,0l0,0l0,0l0,0l0,0l-0.6,1.3l0,0l0,0l0,0l0,0l0,0l0,0v0.1l0,0l0,0v0.1l0,0l0,0
	l0,0l-0.2,0.8h-0.1l0,0h0.1l0,0l0,0l0.2-0.7l0,0l0,0l0,0l0.1-0.3l0,0l0,0l0,0l0,0l0,0l0,0l0,0l0,0l0,0h0.1l0,0l0,0l0,0l0,0l0,0
	l0.3-0.6l0,0l0,0l0,0l-0.2-0.1l0,0l0,0v0.1l0,0v0.1v0.1v0.1l0,0v0.1l-0.1,0.1l0,0l0,0l0,0l0,0l0,0l0,0h0.1l0,0l0,0l0,0l0,0l0,0h-0.1
	l0,0l0,0l0,0v-0.1l0,0l0,0l0,0l0,0v-0.1l0,0l0,0v-0.1l0,0l0,0l0,0v0.1l0.2-0.3v-0.1v-0.2l0,0v-0.3h-0.2v0.3l0,0l0,0l0,0l0,0l0,0l0,0
	l0,0h-0.1l0,0l0,0v-0.1h-0.1l0,0l0,0v-0.4h-0.1l0,0v-0.1l0,0l0.4,0.1v-0.1h-0.2v-0.1v-0.2h0.2v-0.2h-0.1h-0.1l0.1-0.3l-0.1-0.1
	l-0.1,0.1v0.4h-0.1l0.1-0.5l0,0l0.2-0.1l0,0v-0.1v-0.2h-0.1l0,0h0.1l-0.1-0.4l0,0v-0.1l-0.2-0.1h-0.2l0.2,0.7l0,0l0,0l0,0l-0.3,0.5
	l0,0l-0.2-0.1v-0.1l0.3-0.4l0,0l-0.1-0.4l0,0l-0.7,1.1l0,0l0,0l0.8,0.4l0,0l0,0l0,0l-0.1,0.2l0,0l0,0l0,0l-0.7-0.4l0,0l0,0l0,0v0.5
	h0.1v0.1h-0.1v0.4l0,0v0.1l0.5,0.2l0,0l0.1,0.1l0,0l0,0l-0.2,0.5h-0.1V480l-0.5-0.2l-0.4,0.7h0.1l0,0l0.5,0.2l-0.2,0.4l-0.7-0.3
	l-0.2,0.3l0.5,0.4l-1,1.9l-0.5-0.3l0,0l0,0l0,0h-0.1h-0.1l0,0l0,0l0,0l-1.4,1.1l-0.1,0.1l-0.1,0.1l0,0l0,0v-0.3h-0.1v-0.2H362v-0.2
	h-0.1v0.1l0,0v-0.1h-0.1l-0.2,2H361l0,0l0,0l0,0l-0.2,0.3l0.3,0.1l0.2,0.1l-0.2,0.5l0,0v0.1l0.4,0.2l0,0l0,0l0,0l0,0l0,0l0.1-0.2
	l0,0l0,0l0,0l0,0l0,0l0,0l0,0l0,0l0,0l0,0l0,0v-0.1l0,0l0,0l0,0l0,0l0,0v-0.1l0,0l0,0v-0.1l0,0l0,0l0,0l0,0l0,0l0,0l0,0l0,0l0,0l0,0
	l0,0l0,0l0,0l0,0l0,0v-0.1l0,0l0,0l0,0l0,0l0,0l0,0l0,0l0,0l0,0l0,0l0,0l0,0l0,0l0,0l0,0l0,0l0,0l0,0l0,0l0,0l0,0l0,0l0,0v-0.1l0,0
	l0,0l0,0l0,0l0,0l0,0l0,0l0,0l0,0l0,0l0,0l0,0l0,0l0,0l0,0v-0.1l0,0l0,0v-0.1l0,0l0,0l0,0l0,0l0,0l0,0l0,0l0,0l0,0l0,0l0,0l0,0l0,0
	l0,0V486l0,0l0,0l0,0l0,0l0,0l0,0l0,0l0,0l0,0l0,0l0,0l0,0l0,0l0,0l0,0l0,0l0,0l0,0l0,0l0,0l0,0l0,0l0,0l0,0l0,0l0,0l0,0l0,0l0,0
	l0,0l0,0l0,0l0,0l0,0l0,0l0,0l0,0l0,0l0,0l0,0l0,0l0,0l0,0l0,0l0,0l0,0l0,0l0,0l0,0l0,0l0,0l0,0l0,0v-0.1l0,0l0,0l0,0v-0.1l0,0v-0.1
	l0,0l0,0l0.1-0.1l0,0v-0.1l0,0l0,0l0,0l0,0l0,0l0,0l0,0l0,0l0,0l0,0l0,0l0,0l0,0l0,0l0,0l0,0l0,0l0,0l0,0l0,0l0,0l0,0l0,0l0,0l0,0
	l0,0l0,0l0,0l0,0l0,0l0,0l0,0l0.1-0.1l0,0l0,0l0,0l0,0l0,0l0,0l0.3,0.1l0,0v0.1l0,0l0,0l0,0l0,0l0,0l0,0l0,0l0,0l0,0l0,0l0,0l0,0
	l0,0l0,0l0,0l0,0l0,0l0,0l0,0l0,0l0,0l0,0l0,0l0.3,0.1l0,0l0,0l0,0l0,0l0,0l0,0l0,0l0,0l0,0l0,0l0,0l0,0l0,0l0,0l0,0h0.1l0,0l0,0
	l0,0l0,0l0,0l0,0l0,0l0,0l0,0l0,0l0,0l0,0l0,0l0,0l0,0l0,0h-0.1l0,0l0,0v0.1l0,0l0,0l0,0l0,0l0,0l0,0l0,0v0.1h0.1v-0.1l0,0v0.1h-0.1
	l0,0l0,0l0,0l0,0l0,0l0,0l-0.1,0.2l0,0l0,0v0.1v0.1l0,0l0,0h0.1l0,0l0,0l0,0h-0.1l0,0h-0.1v0.1v0.1v0.1v0.1l0,0v0.1l0,0l0,0v0.1l0,0
	v0.1l0,0l0,0v0.1l0,0l0,0l0,0l0,0v0.1l0,0v0.1l0,0l0,0l0,0v0.1l-0.1,0.1v0.1v0.1v0.1l0,0v0.1l0,0l0,0l0,0l0,0l0,0l0,0l0,0l0,0v0.1
	l0,0l0,0l0,0l0,0l0,0l0,0l0,0l0,0v-0.1l0,0l0,0l0,0H362h-0.1h-0.4h-0.1l0,0l0,0l0,0l0,0l0,0l0,0l0,0l0,0l0,0l0,0l0,0l0,0l0,0l0,0
	l0,0l0,0l0,0l0,0l0,0l0,0l0,0l0,0l0,0l0,0l0,0l0,0l0,0v0.1l0,0l0,0l0,0l0,0l0,0l0,0v0.1v0.1v0.1v0.1v0.1v0.1v0.1v0.1l0,0v0.1l0,0
	l-0.1,0.3h-0.1H361h-0.2h-0.2h-0.2h-0.7h-0.2h-0.3h-0.4h-0.2h-0.1h-0.2h-0.2h-0.3h-0.1h-0.2l-0.3-0.1l-0.3-0.1l-0.3-0.1l-0.2-0.1
	l-0.2-0.1l-0.2-0.1l-0.2-0.1l-0.1-0.1h-0.1l-0.1-0.1l-0.2-0.1l-0.1-0.1l-0.2-0.4l-0.2-0.3l0.2-0.4l0,0v-0.1l-0.1-0.2l-0.2-0.2
	l-0.1-0.1l-0.2-0.1l-0.1-0.1l-0.1-0.1l0,0l0,0l0,0h-0.1l0,0l0,0l-0.2-0.1l0,0l0,0v-0.1l0,0l0,0l0,0v-0.1v-0.1v-0.1l0,0h-0.1l0,0l0,0
	l0,0h-0.1l0,0l0,0h-0.1l0,0l0,0l0,0l0,0l0,0l-0.2-0.1h-0.1h-0.1h-0.1l0,0l0,0l0,0l0,0l0,0H353l0,0l0,0l0,0l0.5-0.5l0,0l-0.4-0.2
	l-0.6-0.4l0.1-0.1l0.2-0.2l0.1-0.1l0.5-0.4l0.7-0.5l-0.5-0.9v-0.1l-0.2-0.3l-0.1-0.2h-0.1l0,0l0,0l0,0l-0.1-0.2l-0.1-0.1l-0.2-0.1
	l0,0l-0.1-0.2l-0.1-0.2v-0.1l-0.4-0.2l-0.1-0.1v-0.1v-0.2V480l0.3-0.4h0.1h0.3l0.2,0.1v0.2l0.2,0.1l0.7-0.3l-0.1-0.3l0.4-0.8v-0.1
	l-0.2-0.4l0.3-0.1l0.1-0.1v-0.1l0,0l0.2-0.2l0,0v-0.1l-0.1-0.3l0.1-0.2l-0.3-0.3l0.2-0.2v-0.1v-0.1v-0.1v-0.1l-0.2-0.2v-0.1l0.1-0.1
	l-0.1-0.1l-0.1-0.1l-0.1-0.1l-0.1-0.2v-0.1V475v-0.1v-0.2l-0.1-0.1l-0.1-0.1v-0.1v-0.1v-0.1v-0.1l0.1-0.2l0.1-0.1l0.2-0.3l0.1-0.2
	l0.1-0.1l0.1-0.1l0.1-0.2v-0.2l0.1-0.2l0.1-0.2v-0.2l-0.1-0.1h-0.2v-0.2v-0.1v-0.1l-0.1-0.1l-0.1-0.1l-0.2-0.1l-0.2-0.1h-0.1l0,0
	v0.1l-0.1,0.1h-0.3h-0.2h-0.4h-0.2l-0.3-0.1l-0.1-0.1h-0.1H352h-0.2l-0.1,0.1v0.1v0.1v0.1l-0.1,0.1l-0.3,0.2l-0.1,0.1l-0.1,0.2
	l-0.1,0.1l-0.1,0.1l-0.1,0.1l-0.1,0.1h-0.1h-0.1h-0.1l-0.3-0.1h-0.2h-0.1l-0.2-0.4l-0.2-0.3v-0.1l0,0h0.2v-0.1v-0.2l0.1-0.2l0.1-0.1
	l0.1-0.1l0.2,0.1h0.2h0.2h0.2l0.1-0.1l0.1-0.1v-0.1l0.1-0.2v-0.1h0.1v-0.1l-0.1-0.1v-0.1l-0.2-0.1V470l-0.8-1l0.1-0.1H350l0,0l0,0
	v-0.1l0,0v-0.2l-0.1-0.2v-0.1v-0.1l-0.1-0.1h0.2h0.2l0.1-0.1h0.2v-0.2v-0.1l-0.1,0.1l-0.4-0.2h-0.1h-0.2h-0.2h-0.1h-0.1v-0.2v-0.1
	l0.1-0.2h0.1h0.1l0.1-0.1l0,0l0.1-0.1l-0.1-0.1l-0.2-0.2h-0.1h-0.1h-0.1l-0.1-0.3v-0.1l-0.1-0.1l-0.1-0.1v-0.1v-0.1v-0.1v-0.1
	l0.1-0.1h0.1h0.2l0,0v0.1v0.1l0,0l0,0l0,0h0.1h0.1h0.1l0,0l0,0v0.1v0.2v0.1l0,0h0.1l0.2,0.1l0.2,0.2h0.1h0.2l0,0l0,0v0.1v0.1l0,0
	l0,0l0,0l0,0v-0.1v-0.1h0.1l0,0l0,0l0.1,0.1l0.1,0.1l0.1,0.1v0.1h0.1h0.1l0.2,0.1h0.1l0.4,0.1h0.2l0.1-0.2h0.2h0.1l0,0v-0.1l0.1-0.1
	l0.1-0.1l0.1-0.2l0.1-0.1v-0.1l0,0h0.1l0.1,0.1l0.1,0.1h0.1l0.1,0.1v0.1v0.1l0.1,0.2h0.1h0.1h0.1l0.1,0.1l0.1,0.1v0.1l0,0h0.1h0.3
	h0.1h0.2h0.3h0.2h0.1h0.2h0.2h0.1l0.3,0.1l0.1,0.1l0.1,0.1l0.3,0.2h0.2h0.1l0.1-0.1l0.1-0.2v-0.1v-0.1l0.1-0.1l0.1-0.1l0.3-0.3
	l0.2-0.2l0.1-0.2l0.1-0.2l0.1-0.2v-0.3v-0.2l0.1-0.2v-0.2v-0.4l-0.1-0.3V464l0.2-0.1l0.3-0.2v-0.2l0.1-0.2l0.1-0.1l0.1-0.1h0.1h0.1
	h0.1h0.1h0.2l0.2,0.1h0.1h0.1h0.1h0.2l0.2-0.1h0.1h0.2h0.1l0.1,0.1l0.1,0.1h0.1h0.1h0.1h0.1h0.2h0.1l0,0l0,0l0.1-0.1l0.1-0.2
	l0.1-0.1l0.1-0.1h0.1h0.1h0.2h0.1l0.2-0.1h0.2h0.1l0.1,0.1l0.1,0.1h0.1h0.1v-0.1v-0.1l0.1-0.1l0.1-0.1v-0.1l-0.1-0.2l-0.1-0.1V462
	v-0.1v-0.1l0.1-0.1l0.1-0.2l-0.1-0.1v-0.1v-0.1l0.1-0.2l0.1-0.2l0.1-0.1l0.3-0.2l0,0h0.1l0,0h0.1l0.1-0.1h0.1l0.1-0.1l0,0h0.1
	l0.1-0.1l0.1-0.1l0.1-0.1l0.2-0.1h0.1h0.1h0.1l0.1-0.1h0.4h0.1l-0.1-0.1v-0.1h-0.1l-0.1-0.1v-0.2v-0.1l0.1,0.1h0.2l0.5-0.1h0.1
	l0.2,0.1l0.1-0.1l0.3-0.6l0.1,0.1h0.1h0.1l0.1-0.1l0.1-0.1l0.1-0.1l0.3-0.1h0.3l0.5-0.2l0.1,0.1l0.9,0.5h0.1h0.1h0.1h0.1h0.1
	L370.8,458.2z M347.2,465.5L347.2,465.5l0.2,0.2l0.1,0.1h0.1h0.2v0.1v0.1v0.2v0.1l0.1,0.1l0.1,0.1h0.3h0.1l0.1,0.1v0.1v0.1l-0.1,0.2
	v0.1l0,0l0.4,0.3v0.2v0.3v0.2l0.1,0.2v0.2v0.2l-0.1,0.1h-0.1h-0.1l-0.3,0.1h-0.1H348l0,0l0.1,0.1v0.1l-0.1,0.3l-0.1,0.3l-0.1,0.1
	l-0.3,0.1l0,0l0,0h-0.2h-0.2l0,0v0.1v0.1v0.1l-0.1,0.1h-0.2h-0.1h-0.1l-0.1-0.1l-0.1-0.2v-0.1v-0.1v-0.2l0.3-0.3l0.1-0.2v-0.3v-0.1
	v-0.1v-0.1v-0.1v-0.1l-0.1-0.3v-0.1l-0.1-0.1l-0.1-0.1l-0.1-0.1l-0.2-0.1l0,0l0.1-0.1l0.4-0.2l0.2-0.1l0.1-0.1v-0.1v-0.2l0.1-0.3
	v-0.2V466l-0.1-0.3v-0.2v-0.2v-0.1v-0.1l0,0L347.2,465.5z M349.4,469.2L349.4,469.2L349.4,469.2l0.2,0.2l-0.1,0.1l-0.1,0.1l-0.1,0.1
	l-0.1,0.1v0.1v0.1l-0.1,0.1l-0.1,0.1l-0.1,0.1h-0.1l0,0l0,0v-0.1l0.1-0.2v-0.1v-0.1v-0.1v-0.1l0,0l0.2-0.1l0.1-0.1h0.1h0.1h0.1l0,0
	l0,0L349.4,469.2z M373.4,471L373.4,471L373.4,471v-0.2l0,0v-0.1l0,0l0,0l0,0l0,0l0,0l0,0l0,0l0,0l0,0l0,0l0,0l0,0l0,0l0,0l0,0l0,0
	l0,0l0,0l0,0l0,0V471L373.4,471L373.4,471L373.4,471L373.4,471L373.4,471L373.4,471L373.4,471L373.4,471L373.4,471L373.4,471z
	 M373.3,471L373.3,471L373.3,471L373.3,471L373.3,471L373.3,471v0.1l0,0l0,0l0,0V471L373.3,471z M373.2,471.1L373.2,471.1
	L373.2,471.1L373.2,471.1L373.2,471.1L373.2,471.1v0.1l0,0l0,0l0,0V471.1L373.2,471.1z M372.6,471.8l0.1-0.1l0,0l0,0l0,0l0,0l0,0
	l0,0l0,0l0,0l0,0l0,0v0.1l0,0H372.6L372.6,471.8L372.6,471.8L372.6,471.8v0.1l0,0l0,0l0,0l0,0l0,0l0,0V471.8L372.6,471.8
	L372.6,471.8L372.6,471.8L372.6,471.8z M368.2,477.6L368.2,477.6L368.2,477.6L368.2,477.6L368.2,477.6L368.2,477.6l0.1-0.2l0,0l0,0
	l0,0l0,0l0,0L368.2,477.6z M364.6,485.2L364.6,485.2h0.1l0,0l0,0l0,0l0,0v-0.1V485v-0.1l0,0h-0.1v-0.1v-0.2v-0.1v-0.1v-0.1v-0.1
	v-0.1l0,0l-0.1-0.1l0,0l0,0l0,0l0,0l0.1-0.9l0,0h-0.1l0,0V483h0.1l1.5-3.2h0.1v-0.1l0,0l0,0l0,0v0.1l0,0v0.1v0.2l0,0l0,0l0,0l0,0
	l0,0l0,0l0,0l0,0l0,0l0,0v0.1l0,0l0,0l0,0v0.1v0.1v0.1l0,0l0,0l0,0v0.1l-0.1,0.1v0.1v0.1l0,0l0,0l0,0l0,0l0,0l0,0l0,0v0.1l0,0l0,0
	l0,0l-0.1,0.1l0,0v0.1v0.1v0.1l0,0l0,0l0,0l0,0v0.1v0.1l0,0v0.1v0.1v0.1l0,0l0,0v0.1v0.1v0.1v0.1l0,0l0,0l0,0l0,0l0,0l0,0l0,0l0,0
	l0,0l0,0l0,0l0,0l0,0l0,0l0,0l0,0l0,0l0,0l0,0v0.1l0,0l0,0l0,0l0,0v0.1l0,0l0,0l0,0l0,0l0,0l0,0l0,0l0,0v0.1l0,0l0,0v0.1l0,0l0,0
	l0,0l0,0l0,0l0,0v0.1l0,0l0,0v0.1v0.1l0,0l0,0l0,0l0,0l0,0l0,0l0,0l0,0l0,0l0,0l0,0l0,0l0,0l0,0l0,0l0,0l0,0l0,0l0,0l0,0v0.1l0,0
	l0,0l0,0l0,0l0,0v0.1l0,0l0,0l0,0l0,0l0,0l0,0v0.1l0,0v0.1l0,0v0.1l0,0l0,0l0,0l0,0v0.1v0.1l0,0l0,0l0,0l0,0v0.1v0.1v0.1l0,0l0,0
	l0,0l0,0l0,0v0.1l0,0l0,0v0.1l0,0v0.1v0.1v0.1l0,0v0.1l0,0v0.1l0,0l0,0l0,0l0,0l0,0l0,0l0,0l0,0l0,0l0,0l0,0l0,0l0,0l0,0l0,0l0,0
	l0,0v0.1l0,0l0,0l0,0l0,0l0,0v0.1l0,0l0,0l0,0l0,0v0.1l0,0l0,0l0,0l0,0l0,0l0,0l0,0l0,0l0,0l0,0l0,0l0,0l0,0v0.1v0.1v0.1l0,0l0,0
	l0,0l0,0l0,0l0,0l0,0l0,0l0,0l0,0l0,0l0,0l0,0l0,0l0,0v0.1l0,0l0,0v0.1v0.1l0,0l0,0l0,0l0,0v0.1v0.1v0.1l0,0v0.2v0.1l0,0l0,0l0,0
	l0,0l0,0l0,0v0.1v0.1l0,0l0,0v0.1l0,0l0,0l0,0l0,0l0,0l0,0l0,0l0,0l0,0l0,0l0,0l0,0l0,0l0,0v-0.1v-0.1l-0.1-0.3l-0.1-0.3l-0.1-0.5
	l-0.1-0.2l-0.1-0.3l0,0l0,0l0.2-0.9l0.1-0.6h-0.1l0,0h-0.1l0,0l0,0l0,0l0,0l0,0l0,0l0,0l0,0v0.1h0.1v-0.2l0,0l0,0l0,0l0,0l0,0l0,0
	l0,0V483v-0.1v-0.1v-0.1v-0.1L364.6,485.2L364.6,485.2L364.6,485.2L364.6,485.2z M362,485.2L362,485.2L362,485.2L362,485.2
	L362,485.2z"/>
</svg>
