<svg xmlns="http://www.w3.org/2000/svg" viewBox="0 0 15.64 12.72"><defs><style>.cls-1{fill:#a52030;}</style></defs><g id="Capa_2" data-name="Capa 2"><g id="Capa_1-2" data-name="Capa 1"><path class="cls-1" d="M4.92,12.72a9.08,9.08,0,0,0,9.13-9.14c0-.14,0-.27,0-.41a6.64,6.64,0,0,0,1.6-1.66A6.58,6.58,0,0,1,13.8,2,3.26,3.26,0,0,0,15.21.24a6.46,6.46,0,0,1-2,.77,3.21,3.21,0,0,0-5.55,2.2,3.47,3.47,0,0,0,.08.73A9.1,9.1,0,0,1,1.09.59,3.14,3.14,0,0,0,.65,2.2,3.21,3.21,0,0,0,2.08,4.87a3.06,3.06,0,0,1-1.45-.4v0A3.2,3.2,0,0,0,3.2,7.66a3.4,3.4,0,0,1-.84.11,3.08,3.08,0,0,1-.61-.06,3.21,3.21,0,0,0,3,2.23,6.38,6.38,0,0,1-4,1.38A6.49,6.49,0,0,1,0,11.27a9.1,9.1,0,0,0,4.92,1.45"/></g></g></svg>