<?xml version="1.0" encoding="utf-8"?>
<!-- Generator: Adobe Illustrator 24.0.1, SVG Export Plug-In . SVG Version: 6.00 Build 0)  -->
<svg version="1.1" id="graphic" xmlns="http://www.w3.org/2000/svg" xmlns:xlink="http://www.w3.org/1999/xlink" x="0px" y="0px"
	 viewBox="0 0 590.1 709.2" style="enable-background:new 0 0 590.1 709.2;" xml:space="preserve">
<style type="text/css">
	.st0{fill:#003366;}
	.st1{font-family:'OpenSans-Bold';}
	.st2{font-size:11px;}
	.st3{font-family:'OpenSans-SemiBold';}
	.st4{font-size:8px;}
	.st5{font-family:'OpenSans-Light';}
	.st6{fill:#E3F1F3;}
	.st7{fill:#E0F3F4;}
	.st8{fill:#E5F8F8;}
	.st9{fill:#E9F9F9;}
	.st10{fill:#CBF4F4;}
	.st11{enable-background:new    ;}
	.st12{fill:#6685A3;}
	.st13{font-size:9px;}
	.st14{font-size:14px;}
	.st15{font-size:7px;}
	.st16{fill:#11507B;stroke:#FFFFFF;stroke-width:0.167;}
	.st17{fill:#66E0E0;stroke:#FFFFFF;stroke-width:0.167;}
	.st18{fill:#5ACBD1;stroke:#FFFFFF;stroke-width:0.167;}
	.st19{fill:#003366;stroke:#FFFFFF;stroke-width:0.167;}
	.st20{fill:url(#SVGID_1_);stroke:#FFFFFF;stroke-width:0.2147;}
</style>
<g>
	<text transform="matrix(1 0 0 1 393.0393 188.1555)" class="st0 st1 st2">GIRONA</text>
</g>
<text transform="matrix(1 0 0 1 393.0392 216.5724)" class="st0 st3 st4">Ocupació:  35,1% (-4,1 pp) | </text>
<text transform="matrix(1 0 0 1 499.7392 216.5724)" class="st0 st5 st4">-1,4 pp</text>
<text transform="matrix(1 0 0 1 524.8392 216.5724)" class="st0 st3 st4"> </text>
<text transform="matrix(1 0 0 1 393.0392 230.2316)" class="st0 st3 st4">Viatgers: 21.463 (-2,3%) </text>
<text transform="matrix(1 0 0 1 483.7392 230.2316)" class="st0 st5 st4">| -6,1%</text>
<text transform="matrix(1 0 0 1 393.0399 242.1109)" class="st0 st3 st4">Pernoctacions: 72.065 (-7,5%) </text>
<text transform="matrix(1 0 0 1 507.0399 242.1109)" class="st0 st5 st4">| -10,1%</text>
<text transform="matrix(1 0 0 1 393.0396 199.34)" class="st0 st1 st4">VARIACIÓ INT. 2020</text>
<text transform="matrix(1 0 0 1 469.8396 199.34)" class="st0 st5 st4">|2019</text>
<title>LABTurisme-provincies-turisme-rural-marc-2021</title>
<path class="st6" d="M226.9,408.1c1.4,1.6,0.3,1.8-1,1.9C225,408.9,226.8,408.9,226.9,408.1z"/>
<path class="st7" d="M269.5,494.3c-0.1-0.9-0.5-1.8,0.5-2.4c0.5,0.3,0.9-1.6,1.3,0c0.1,0.5,1.1,1.6-0.4,1.6
	C270.1,493.3,270,494,269.5,494.3z"/>
<path class="st8" d="M374.4,308.5c0-0.2,0-0.5-0.1-0.7c0.8-1.7,2.2-1,3.5-1.2C377,307.8,375.3,307.3,374.4,308.5z"/>
<path class="st9" d="M383.5,306.5c0.9,0.5,1,1.4,1.2,2.2C383.2,308.8,383,307.8,383.5,306.5z"/>
<path class="st10" d="M369.7,303.7V303c0.9,0.4,2.1-0.5,2.8,0.7H369.7z"/>
<g>
	<text transform="matrix(1 0 0 1 69.7163 65.2823)" class="st11"><tspan x="0" y="0" class="st12 st5 st13">El turisme rural de l’Entorn de Barcelona obté resultats més alts que 2020 i 2019 en els tres indicadors analitzats.  </tspan><tspan x="8.6" y="10.8" class="st12 st5 st13">Mentre que Girona i Tarragona es mantenen en xifres per sota el 2019, i Lleida manté una ocupació més alta  </tspan><tspan x="138.9" y="21.6" class="st12 st5 st13">que el 2019 però amb menys pernoctacions.</tspan></text>
	<text transform="matrix(1 0 0 1 166.1613 108.1949)" class="st12 st3 st13">Entre parèntesis, variació interanual respecte l’any 2020 i 2019</text>
</g>
<text transform="matrix(1 0 0 1 248.0473 49.3926)" class="st0 st3 st14">Turisme rural</text>
<text transform="matrix(1 0 0 1 31.8055 700.1464)" class="st12 st3 st15">Font: Elaboració pròpia del LABTurisme en base a dades de l’Enquesta d’ocupació en allotjaments de l’INE</text>
<g id="regions-layer">
	<path class="st16" d="M339.3,331.6v-0.3l0.3-1l2.7-1.3l1.4,1.6l-1.7,0.6l-0.3,2.2l-1.7,0.3L339.3,331.6z M334.4,260.6l1-2.5h2
		l1,1.6l-1.7,3.2l4.1,4.1l-8.1-0.9l0.3-5.1L334.4,260.6z M533.6,298l-0.3-0.3l0.3-0.3h0.3v0.6L533.6,298L533.6,298z M523.2,346.2
		l-0.3-0.3l-0.3-0.3v-0.3l1-0.3L523.2,346.2z M388.9,383.1l-0.7-4.8l1.7-1.6l4.7,1l1,2.2l1.4-0.3l3.4-4.1l3.7,0.6v0.3l2-0.3l5.4-4.8
		l-0.4-2.9l-2.4-1.6l-0.3-0.3l-3.1-0.3l0.3-2.5l-2-1.9l0.7-1.6l6.1,0.6l2-2.9l-3.1-1.9l4.7-1.6l-0.7-3.8l1.3-1.9l-3.4-4.1l2.4-1.3
		l-1.4-1.9h-0.3v0.3h-0.3l-0.7-1.6l-2.7-0.3l-1.7,0.3l-3.4,2.5l-3.1-2.2l-2-3.8l0.7-2.2h-3l-0.7-2.2l-2.7-0.6v-0.3h-1.7l-3.7,1.3
		h-0.3l-3.4,2.2l1-3.5V331l-1-1.9l-2.4-1.6l-1-0.3v-0.3l-2.7,1l-2.7-1.3l-2,0.3l-1,0.3l-0.3,0.3h-0.3l-0.7,1.6l-2.4,1.6l-0.7-2.2
		l-6.4,0.6l-2.4,3.2l-4.1-1.9l-1.4-3.8l-4.7,1.6l-3.4-1.3l-1-1.9l-4.1,0.6v-1l-2-5.4l-3.7,0.6l-0.3-4.1l6.4,1.3l-1.4,0.3l1,1.6
		l-1.3,2.2l1.4,1.9l2.4-0.3l1.7-2.5l4.4-0.3l0.3-2.9l-1.7-0.3l-0.7-5.1v-0.3l-2.7,1.3l-1.7-2.9l1.3-1.9v-0.3l0.3-2.2l1-1V304
		l2.7-3.8v-0.3l2.4-2.2l-7.8-3.8l-5.1,2.5l-4.7-3.5l-1.4,1.3l-0.3-1.3l-5.8-1.6l-9.1,3.5l-1-9.5l3-2.9l-4.1-2.5l-3,2.5l-1.4-1.6
		l1.3-7.9l-2-2.5l-3.7,0.3l-5.7-2.2l-1.4-9.2l1-0.9l14.2,0.9l9.8,7.6l4.7,0.3l2.4-1.6l0.7,5.1l2.7,0.9l0.7,8.2l3.7,4.4l4.1,2.2
		l2.4-1.9l8.1-1l1-2.5l3.4-1.3v-2.5l3.4-4.1l2.7-1.3l7.8,0.9l7.4-4.1l6.1,3.2l2.4-1.3l8.1,5.4l10.1,1.6l0.4,3.8l2.7,0.6l3.7,5.7
		l3.4-0.3l3.4,1.9h2.7l1.7-4.1l2.7-0.6l14.9,3.5l1-2.9l-2-1.6l-1.7-5.1h3l0.7-3.5l10.1-3.8l5.1,2.5l3.4-1.6l2.3-3.8l1.7,0.3l2-4.1
		l3,0.9l1-2.5l2.7,1.6l5.7,0.3l1-3.2l2.7-1.3l2.7,2.8l4.4-1.6l2.7,1.6l4-1.6l2.4,5.4l4.4,4.1l5.4-2.2l7.8,0.3l-0.3,0.6l-1.7,0.6
		l1,0.6l0.3,0.3v0.3v0.3v0.3v0.3l-0.3,0.6h-0.3v0.3v0.3h-0.3l-1,1.3l1.4,0.6v0.3l-0.3,0.3h-0.3l-1,1.3h0.3v0.3h1.4h0.3v0.3l-1.7,1.9
		l0.3,1h0.3l1,0.6v0.3v0.3v0.3h-0.3l-0.3,0.3l0.3,0.3l1,1.3l0.7,0.3l0.3,0.3h0.7l0.7,0.6l-0.3,1l0.7,0.6l0.3,0.6l1.4,0.6l0.7-2.5
		l1,0.3l0.7-0.6h0.3h2.4l0.7,1v1h0.3v0.3l1.4,1.3l1.3-0.6h0.3v-0.3v-0.6l1.4,0.3l1,0.3h0.3v0.6l0.7,0.3h0.3l1.7,0.6v0.3h0.3h0.7h0.3
		l0.7,1.3v-1l0.3,0.3l1,0.3l0.3,0.3v0.3l-0.7,0.6v0.3h-0.3l-0.3-0.3l-0.3,0.6h-0.3l-1.3,1.3v0.3l-1-0.3H533l-0.3,0.3l0.3,0.3h0.3
		v0.3v0.3l-0.3,0.3l-0.7,1.3h1l0.3,0.3h0.3v0.3v0.6v0.3l-1,0.3h-0.3h-0.3l-1.4-1.3l0.4,2.2l0.3,0.6l-0.3,4.1l-3.7,0.3l1.4,2.5v0.3
		l-3.1-2.5h-2.4l0.3,1l-0.3,0.3l-1,1.9l-3.4-1.9l-2.7-0.6l-1-3.5H513l-5,5.4l-2,6l1.8,13.7h0.3v0.6v0.3v0.3l1.7,0.6v0.3l0.4,1.9
		l2.7-0.3l1,0.3l0.7,0.3l1.4,0.3l-0.7,1.6l1,0.3l1,0.3v0.3h0.3l1.4,2.9l1.4,2.2l0.7,1.6v0.3v0.3l0.3,0.6v0.6v0.3h-0.3v0.3l-1.7,0.3
		l-0.6,6.7l2.4,8.6h1.4v-0.3h0.3l0.7,0.3v0.3v0.3h0.3h0.3v0.3v1l0.3,1v-0.6h0.3l-0.3,0.6v0.3h-0.2v0.3v0.3l-0.3,1v0.3h-0.3v0.3
		l-0.3,0.3h-0.3l-0.3,0.3v0.6h-0.5v0.3L522,366h0.3l0.3,0.3l-0.3,1l0.3,0.6v0.3h-0.3l0.3,0.6h-0.3v0.6l-1.3,1l0.3,1H521v0.3h0.3v0.3
		v0.3v0.3l-0.7,0.3v0.3v0.3v0.3h-0.3l-0.7,0.6h-0.7h-0.3l0.3,0.3l-0.3,0.3l-0.3,0.3H518h-0.7v0.3v0.3v0.3v0.3H517l-0.3,0.3v0.3
		l0.3,0.3l-0.3,0.6v0.3v0.3v0.3l-1,1h-0.4H515l-0.3,0.3h-0.4v0.3l-1.4-0.3h-0.3l-0.7,0.6l-0.7,0.6v1.3h-0.3h-0.3l-1.3,1.6l-2.4-1.6
		l-3,2.2v0.3v0.3v0.3h-0.3l-0.7,1h-0.3v0.3h-0.3v0.3H502v0.3h-0.3l-2.7,5.7v0.3l-0.3,1h-0.3H497v0.3v0.3l0.3,0.3l-0.7,0.6l-0.3,0.3
		h-1.7l0.3,1v0.3h-0.7l-3.7,0.6v0.3l-0.3,0.3l-2.7,1l-0.3,0.3l-0.7,0.3v0.3v0.3h-0.7l-0.7,1.3l-0.3,0.3l-0.7,1h-0.3l-0.7,1.9
		l-0.7,0.3l-0.7,0.6h-0.3l-0.3,1l-4.1,2.6l-2.4,1h-0.3l-1.4,0.3l-2.4,0.3v0.3h-0.7h-0.7l-2.4,0.6l-0.3,0.3h-0.3l-0.3,0.3l-1.7,0.3
		h-0.3l-0.3,0.3h-0.3l-0.7,1.3h-0.3l-1,1v0.3l-0.7,0.3l-1.7,0.6l-2,3.8l-3.1-5.4l2.4-4.1l-0.7-5.1v-0.3l1-1.6l-12.2-1.3l-2-0.6v1.3
		l-3.7-1.6l-2.4,0.6l-1.7,2.6l-13.9,1.9l-3.1-7.7l-7.1-3.5l0.3-2.2l-2.4,1l-2-1l-1-2.9l-12.5-0.6L388.9,383.1z"/>
	<path class="st17" d="M114.1,647.9l-11.9-5.2l-0.7-3.5l1.7-2.6l-5.8-2.9l-0.3-1.9l-9.9-1l-8.5-3.9l-2.4-3.9l0.4-2.6l3.8-5.2
		l-4.8-4.2l-3.8,1l-1.7-6.1l-4.1,1.6l-4.1-1.6l-1-1.9l-0.7-1.3l2.4,1.6v-2.9l2,1l3.4-3.5l2.4,0.3l1.4-4.5l6.2-6.8l-2.7-3.9l-0.3-1
		l-0.3-5.5l-2.4-1.9l8.3-17.7H79V555l-2-2.6l1-1l-2.4-1.3l0.3-1.6l2.7-0.3l-2.7-1l-2-2.9l-2.4,1.3V543l-2.4,0.3l2.1-1.3l-1.7-1.6
		l0.4-2.2l-0.7-2.6h-2.4l1.4-6.4l-1.4-1.3l3.1-1.9l-1-0.6l5.1,1.3l0.7-4.2l3.4,0.3l4.4-2.9l2.1-10.9l3.4-2.6l2.7,1.3l0.7-2.2h2.9
		l-1-2.6l1.7-5.8l7.1,0.6l0.4-9l4.1-2.9l6.4,9h3.4l4.1-7.4l4.1,1.3l3.4,5.4l3.4,0.3l5.8-2.9l0.7-0.6h0.3h0.7l11.6-1.6l1.7-3.5
		l2.4,0.6h1h1v0.3l3.7,0.6l0.7-1.3l0.3-1l0.7-3.8l1.7-1l3.7,4.8l13.3-2.9l2-0.6l-0.3-2.2l2.7-4.8l1.7,0.6l1.4-3.2l4.1-1l2.7-5.4
		l1.4-1.3l0.3-0.3l2-1.9l0.7-1l-2-1.3l-3.7-2.9l1.4-0.6l-1-3.5l10.2,5.4v1.3l10.9-3.8l-2.4-5.1l1.7-3.5l-1.7-1l1.4,0.6l-0.7-1.6
		l6.8-1.9l0.3-3.5l4.8-0.3l8.5-0.3l15.3,2.6l-1.7-3.5l4.4-1.3l4.8,2.6l-3.4,2.6l0.3,1.3l2-0.6l0.3,3.2l-6.1,0.3l-1.7,4.5l7.5,3.5
		l0.7,1.6h3.4l1.7,3.2h0.3l-2.7,5.1l0.7,1.6l2.7,0.3l-2.4,1.3l1,1.6l1,4.2l-2.4,3.5l5.1-2.6l4.8,1.9l2,3.2h2.7l1,2.2h0.3l-3.1,2.6
		l2,5.4l3.4,1.3l-0.7,3.2l3.4,1.9l0.3-1.6l3.4-0.6l-1.4,0.3l-1,8l-7.8-1.3l1,3.5l7.1,3.8l2.4-2.2l1,4.5l-0.3,3.2l-20.1,3.5l-6.8,2.2
		l-10.9,7.1l-5.1,0.3l-9.9,0.3l-7.2,3.8l-3.4,4.2l3.4-4.2l-2.7,1.6l-2.7-0.6l-3.4,3.2l-2.7,6.4h-1.4l-2.4-3.2l-3.7-0.6l-5.8,2.6
		l-5.4-0.3l-9.9,5.1l-6.5,6.4l-0.7,2.6l-5.5,3.2l-5.8,6.1l-9.9,15.4l-6.5,4.2l-1.4,4.5l-6.5,3.9l1,3.5l4.4,4.2l6.8-0.3v-1.3
		l-7.5-2.3l0.7-1.3l3.8-0.3l3.1,1.9l8.2,10.6l3.8-1l3.1,1.9l-1.4,6.1l-6.5,5.2l-9.9,4.8l-12.3,16.1l-9.9,2.3l-3.1-2.9l-0.3-2.3
		l3.1,0.3h0.3h-0.3l0.3-1.6l2.4,0.6v0.3v0.3l0.3,0.3l1,0.3l0.7,0.3h0.3l0.3-0.3v-0.3v-0.6h0.7v-0.3v-0.3l0.7-1.6l8.2-0.3l4.1-6.4
		l0.7-2.3h-1l-0.3-0.3h-0.5l-20.2,3.2l-9.6,11L114.1,647.9z"/>
	<path class="st18" d="M295,376.8v-1.6l2.7,1l-0.7,1.3L295,376.8z M195.1,466.1l-2.7,5.4l-4.1,1l-1.4,3.2l-1.7-0.6l-2.7,4.8l0.3,2.2
		l-2,0.6l-13.3,2.9l-3.7-4.8l-1.7,1l-0.7,3.8l-0.3,1l-0.7,1.3l-3.7-0.6V487h-1h-1l-2.4-0.6l-1.7,3.5l-11.6,1.6h-0.7H138l-0.7,0.6
		l-5.8,2.9l-3.4-0.3l-3.4-5.4l-4.1-1.3l-4.1,7.4h-3.4l-6.4-9l-4.1,2.9l-0.4,9l-7.1-0.6l-3-5.1l0.7-2.9l-3.1-1.6l3.8-5.1l-1.7-3.2
		l-6.4-5.1l2.4-2.6l3.1-9l-1.7-1.6l-0.3-4.5l6.5-0.3l2.7-1.9l6.5-10.5l-2.4-3.2l-0.3-7.3l-3.7,1.6l-8.1-1.3l-0.3-4.5l1.7-1.9
		l-4.7-5.7v-3.2l6.5-7.3l2.4-5.1L97,408l0.7-5.1l10.9-1.6l1.7-6.7l5.1-4.5l4.1,0.6l1.7-6.4l4.1,0.3v-2.5l4.1-1.6L127,378l1.4-4.8
		l-1-1.3l2-0.6l-6.8-2.9v-1.3l4.4-5.7l1.7,1.6l3.1-6.4l2.4-0.3l0.3,2.2l0.7-2.9l1.7-0.6l1-2.9l-1.4-0.6V348l2.4-1.9l-0.3-2.9
		l4.8-8.9l-0.6-9.2l2.7-1.9l-1.7-1.3v-4.1l1.7-6.7l3.1-4.8l1.7-10.5l3.1-4.1l-3.4-1v-1.9l4.4-2.9L147,283l3.4-3.8l-8-19.3l1.4-2.2
		l2,1.3l4.1-3.2l-3-1.6V252l0.7-1.6l3.7-0.6l-1.3-1.6l4.1-12v-1.3l-3.4-0.6L145,233l-1.7-7.3l-3-3.5l-2.4-2.8h2.4l1-2.8l-3-9.2
		l-3-0.3l3.7-4.4l-3-1.6l3.7-3.5l-1.7-7.3l3-1.9l-0.3-1.3l4.4-1.3l10.4,5l3-0.9l9.1,2.8l10.1,7.3l5.7-3.2l2.7,3.5h7.8l1.7,1.3
		l4.4-0.3l0.7-1.3l7.7,6.6l0.7,5.4l4.7,3.8l10.1-3.8l3,2.5l10.8-1.9l4.7,0.9l-0.7,3.8l5.7,2.5l-0.3,3.8l3.7,2.2l1,6.3l3.4,4.1
		l-2.4,4.4l2.7,2.5l-2.7,1.6l-2,4.7l4.7-1.6l3.7,6.6l-7.4,4.4l3,1.9l0.3,6.6l2,1.6l14.5,0.6l1-5.1l3.4,1.6l1.4-2.8l10.1-0.6l1.7-7.3
		l2,2.2l3.4,0.6l3-2.8l0.7,2.5l-1,0.9l1.4,9.2l5.7,2.2l3.7-0.3l2,2.5l-1.3,7.9l1.4,1.6l3-2.5l4.1,2.5l-3,2.9l1,9.5l-1.7,1h-4.1
		l-3.7,1.9l-6.1,0.3l-0.7,1.3l-2.7-1l-7.1,1.3l3,1l0.7,2.5l-1.4,1.6l3,3.2l-0.7,1.9l-3,1.3l0.7,3.5l3.4,3.2l1.7-1.3l3,1.3l-0.3,1
		v1.6v0.3l0.3,2.5l-1.4,0.6l-3.4,1.9l-1.4,4.1l1.4,1l-0.3,3.5l2.7,2.2l-1,1.9l-3.7-0.6l-2.7,6l-0.7,2.5l1.4,1l0.7-1.9l2.4,4.1
		l-3.7,1.6l-1,3.2l-0.3-3.5h-1.4l-1.4,4.1l1,1.6l1-2.2v2.2l3.7-0.3l1.7,1.9v-6l3.4,3.2l-0.7,1.6l0.3,1.6l-5.1,3.2l-2-1.3l1-1.9
		l-3.7,1l-0.3,6.4l-1,1l1.7,2.5h-1.7h-0.3l-8.1,8l-1.4-1l-1.4,2.5l2.4,1.3l2.4-2.2l2.7,0.6l0.7,1.6l1.4,5.7l-3.1,1.3v3.8l-3.4,2.5
		l1.7,3.2l-1,2.2l-2.7-1l-2,1v1.6l-2-0.3l-0.3,2.9l-2.4,1v-2.6l-1-0.3l-1.7-1l-0.3-0.3V399l-0.3-0.3l-0.3-2.5H262l-1,3.5v-0.3
		l-1.4,0.3V394l-1.7,0.3h-1.6l-3.7-0.6l-1.4,1.3l-2,9.9l3.1,2.6l-6.1,5.1l2.4,0.3l-0.7,1.9l1.4,1.9l3.1,0.3l-1.4,1.9l3.7,5.1v0.3
		h1.7v1.3l-3.1,2.2l-5.4-1.3l-5.1,4.1l7.1,2.9l-2.4,4.8l1.7,3.5l-15.3-2.6l-8.5,0.3l-4.8,0.3l-0.3,3.5l-6.8,1.9l0.7,1.6l-1.4-0.6
		l1.7,1l-1.7,3.5l2.4,5.1l-10.9,3.8v-1.3l-10.2-5.4l1,3.5l-1.4,0.6l3.7,2.9l2,1.3l-0.7,1l-2,1.9l-0.3,0.3L195.1,466.1z M292.5,332.9
		l-3-0.6l-4.1,0.3l4.1,1.9h3V332.9z"/>
	<path class="st19" d="M289.5,332.2l3,0.6v1.6h-3l-4.1-1.9L289.5,332.2z M285.5,513.8l0.3-3.2l-1-4.5l-2.4,2.2l-7.1-3.8l-1-3.5
		l7.8,1.3l1-8l1.4-0.3l-3.4,0.6l-0.3,1.6l-3.4-1.9l0.7-3.2l-3.4-1.3l-2-5.4l3.1-2.6h-0.5l-1-2.2h-2.7l-2-3.2l-4.8-1.9l-5.1,2.6
		l2.4-3.5l-1-4.2l-1-1.6l2.4-1.3l-2.7-0.3l-0.7-1.6l2.7-5.1h-0.3l-1.7-3.2h-3.5l-0.7-1.6l-7.5-3.5l1.7-4.5l6.1-0.3l-0.3-3.2l-2,0.6
		l-0.3-1.3l3.4-2.6l-4.8-2.6l-4.4,1.3l2.4-4.8l-7.1-2.9l5.1-4.1l5.4,1.3l3.1-2.2v-1.3h-1.7v-0.3l-3.7-5.1l1.4-1.9l-3.1-0.3l-1.4-1.9
		l0.7-1.9l-2.4-0.3l6.1-5.1l-3.1-2.6l2-9.9l1.4-1.3l3.7,0.6h1.4l1.7-0.3v5.7l1.4-0.3v0.3l1-3.5h2.7l0.3,2.5l0.3,0.3v0.3l0.3,0.3
		l1.7,1l1,0.3v2.6l2.4-1l0.3-2.9l2,0.3v-1.6l2-1l2.7,1l1-2.2l-1.7-3.2l3.4-2.5v-3.8l3.1-1.3l-1.4-5.7l-0.7-1.6l-2.7-0.6l-2.4,2.2
		l-2.4-1.3l1.4-2.5l1.4,1l8.1-8h0.3h1.7l-1.7-2.5l1-1l0.3-6.4l3.7-1l-1,1.9l2,1.3l5.1-3.2l-0.3-1.6l0.7-1.6l-3.4-3.2v6l-1.7-1.9
		l-3.7,0.3V354l-1,2.2l-1-1.6l1.4-4.1h1.4l0.3,3.5l1-3.2l3.7-1.6l-2.4-4.1l-0.7,1.9l-1.4-1l0.7-2.5l2.7-6l3.7,0.6l1-1.9l-2.7-2.2
		l0.3-3.5l-1.4-1l1.4-4.1l3.4-1.9l1.4-0.6l-0.3-2.5v-0.3v-1.6l0.3-1l-3-1.3l-1.7,1.3l-3.4-3.2l-0.7-3.5l3-1.3l0.7-1.9l-3-3.2
		l1.4-1.6l-0.7-2.5l-3-1l7.1-1.3l2.7,1l0.7-1.3l6.1-0.3l3.7-1.9h4.1l1.7-1l9.1-3.5l5.8,1.6l0.3,1.3l1.4-1.3l4.7,3.5l5.1-2.5l7.8,3.8
		l-2.4,2.2v0.3l-2.7,3.8v0.3l-1,1l-0.3,2.2v0.3l-1.3,1.9l1.7,2.9l2.7-1.3v0.3l0.7,5.1l1.7,0.3l-0.3,2.9l-4.4,0.3l-1.7,2.5l-2.4,0.3
		l-1.4-1.9l1.3-2.2l-1-1.6l1.4-0.3l-6.4-1.3l0.3,4.1l3.7-0.6l2,5.4v1l4.1-0.6l1,1.9l3.4,1.3l4.7-1.6l1.4,3.8l4.1,1.9l2.4-3.2
		l6.4-0.6l0.7,2.2l2.4-1.6l0.7-1.6h0.3l0.3-0.3l1-0.3l2-0.3l2.7,1.3l2.7-1v0.3l1,0.3l2.4,1.6l1,1.9v0.3l-1,3.5l3.4-2.2h0.3l3.7-1.3
		h1.7v0.3l2.7,0.6l0.7,2.2h3l-0.7,2.2l2,3.8l3.1,2.2l3.4-2.5l1.7-0.3l2.7,0.3l0.7,1.6h0.3v-0.3h0.3l1.4,1.9l-2.4,1.3l3.4,4.1
		l-1.3,1.9l0.7,3.8l-4.7,1.6l3.1,1.9l-2,2.9l-6.1-0.6l-0.7,1.6l2,1.9l-0.3,2.5l3.1,0.3l0.3,0.3l2.4,1.6l0.4,2.9l-5.4,4.8l-2,0.3
		v-0.3l-3.7-0.6l-3.4,4.1l-1.4,0.3l-1-2.2l-4.7-1l-1.7,1.6l0.7,4.8l3.4,9.9l12.5,0.6l1,2.9l2,1l2.4-1l-0.3,2.2l7.1,3.5l3.1,7.7
		l13.9-1.9l1.7-2.6l2.4-0.6l3.7,1.6v-1.3l2,0.6l12.2,1.3l-1,1.6v0.3l0.7,5.1l-2.4,4.1l3.1,5.4v0.3l-20.7,8.9h-0.3l-25.8,11.5
		l-14.9,11.2l-15.6,6.1L366.6,481l-1,1.3l1.7-5.4l-2.4,5.4l-3.1,1.3l-0.5,3.6l2-2.6l-1,4.2l-5.4,6.4L343,500l-12.9,0.3l-12.6,5.8
		l-6.5-0.3l-3.7,2.6L285.5,513.8z M295,376.8l2,0.6l0.7-1.3l-2.7-1V376.8z M342,331.3l1.7-0.6l-1.4-1.6l-2.7,1.3l-0.3,1v0.3l0.7,2.2
		l1.7-0.3L342,331.3z"/>
</g>
<linearGradient id="SVGID_1_" gradientUnits="userSpaceOnUse" x1="298.9" y1="266.74" x2="377.5" y2="266.74" gradientTransform="matrix(1 0 0 1 0 -132.04)">
	<stop  offset="0" style="stop-color:#83E2E2"/>
	<stop  offset="0.9637" style="stop-color:#003366"/>
	<stop  offset="1" style="stop-color:#000000"/>
</linearGradient>
<rect x="298.9" y="130.5" class="st20" width="78.6" height="8.4"/>
<text transform="matrix(1 0 0 1 243.3485 137.1831)" class="st0 st5 st15">% d’ocupació:</text>
<text transform="matrix(1 0 0 1 286.1485 137.1831)" class="st0 st5 st4">  </text>
<text transform="matrix(1 0 0 1 295.2339 147.1244)" class="st0 st5 st15">20</text>
<text transform="matrix(1 0 0 1 373.3492 147.1243)" class="st0 st5 st15">40</text>
<g id="regions-layer_1_">
	<path class="st16" d="M13.4,318.8l-0.1-0.1l0.1-0.1h0.1v0.3L13.4,318.8L13.4,318.8z M9,339.1L8.9,339l-0.1-0.1v-0.1l0.4-0.1
		L9,339.1z"/>
</g>
<text transform="matrix(1 0 0 1 31.8051 239.5737)" class="st0 st1 st2">LLEIDA</text>
<text transform="matrix(1 0 0 1 31.805 268.9138)" class="st0 st3 st4">Ocupació:  </text>
<text transform="matrix(1 0 0 1 31.805 278.5137)" class="st0 st3 st4">26,1% (-1,7 pp) </text>
<text transform="matrix(1 0 0 1 89.605 278.5137)" class="st0 st5 st4">| +9,7 pp</text>
<g>
	<text transform="matrix(1 0 0 1 31.8054 292.7429)" class="st0 st3 st4">Viatgers: </text>
	<text transform="matrix(1 0 0 1 31.8054 302.3429)" class="st0 st3 st4">9.730 (+10,0%) </text>
	<text transform="matrix(1 0 0 1 88.8054 302.3429)" class="st0 st5 st4">|</text>
	<text transform="matrix(1 0 0 1 93.1054 302.3429)" class="st0 st3 st4"> </text>
	<text transform="matrix(1 0 0 1 95.2054 302.3429)" class="st0 st5 st4">+22,3%</text>
</g>
<g>
	<text transform="matrix(1 0 0 1 31.805 314.9189)" class="st0 st3 st4">Pernoctacions: </text>
	<text transform="matrix(1 0 0 1 31.805 324.5189)" class="st0 st3 st4">31.789 (-3,8%) </text>
	<text transform="matrix(1 0 0 1 86.805 324.5189)" class="st0 st5 st4">| -8,4%</text>
	<text transform="matrix(1 0 0 1 88.805 324.5189)" class="st12 st3 st4"> </text>
</g>
<text transform="matrix(1 0 0 1 31.8056 250.5859)" class="st0 st1 st4">VARIACIÓ INT. 2020</text>
<text transform="matrix(1 0 0 1 108.6056 250.5859)" class="st0 st5 st4">|2019</text>
<g>
	<text transform="matrix(1 0 0 1 393.0398 491.2047)" class="st0 st1 st2">ENTORN DE BARCELONA</text>
</g>
<text transform="matrix(1 0 0 1 393.0397 523.5096)" class="st0 st3 st4">Ocupació: 34,5% (+0,3 pp) </text>
<text transform="matrix(1 0 0 1 493.2397 523.5096)" class="st0 st5 st4">| +3,5 pp</text>
<text transform="matrix(1 0 0 1 393.0398 537.431)" class="st0 st3 st4">Viatgers: 16.507 (+8,9%) </text>
<text transform="matrix(1 0 0 1 485.7398 537.431)" class="st0 st5 st4">| +1,7%</text>
<text transform="matrix(1 0 0 1 513.9398 537.431)" class="st0 st3 st4"> </text>
<text transform="matrix(1 0 0 1 393.0399 551.3521)" class="st0 st3 st4">Pernoctacions: 52.611 (+12,9%) </text>
<text transform="matrix(1 0 0 1 513.6399 551.3521)" class="st0 st5 st4">| +0,8%</text>
<text transform="matrix(1 0 0 1 393.0398 503.134)" class="st0 st1 st4">VARIACIÓ INT. 2020</text>
<text transform="matrix(1 0 0 1 469.8398 503.134)" class="st0 st5 st4">|2019</text>
<g>
	<text transform="matrix(1 0 0 1 194.9685 580.6827)" class="st0 st1 st2">TARRAGONA</text>
</g>
<text transform="matrix(1 0 0 1 194.9686 611.3719)" class="st0 st3 st4">Ocupació: 20,9% (-0,1 pp) </text>
<text transform="matrix(1 0 0 1 295.1686 611.3719)" class="st0 st5 st4">| -1,7 pp</text>
<text transform="matrix(1 0 0 1 194.9686 625.0309)" class="st0 st3 st4">Viatgers: 4.231 (-22,4%) </text>
<text transform="matrix(1 0 0 1 287.6686 625.0309)" class="st0 st5 st4">| -12,3%</text>
<text transform="matrix(1 0 0 1 194.9689 639.2143)" class="st0 st3 st4">Pernoctacions: 15.601 (-3,8%)</text>
<text transform="matrix(1 0 0 1 311.8249 639.2144)" class="st0 st5 st4">| -8,4%</text>
<text transform="matrix(1 0 0 1 194.9686 592.352)" class="st0 st1 st4">VARIACIÓ INT. 2020</text>
<text transform="matrix(1 0 0 1 271.7686 592.352)" class="st0 st5 st4">|2019</text>
</svg>
