<?xml version="1.0" encoding="utf-8"?>
<!-- Generator: Adobe Illustrator 24.0.1, SVG Export Plug-In . SVG Version: 6.00 Build 0)  -->
<svg version="1.1" id="Capa_1" xmlns="http://www.w3.org/2000/svg" xmlns:xlink="http://www.w3.org/1999/xlink" x="0px" y="0px"
	 viewBox="0 0 697.3 667.1" style="enable-background:new 0 0 697.3 667.1;" xml:space="preserve">
<style type="text/css">
	.st0{fill:#66E0E0;}
	.st1{fill:#1C3761;}
	.st2{font-family:'OpenSans-Bold';}
	.st3{font-size:19.23px;}
	.st4{enable-background:new    ;}
	.st5{font-family:'OpenSans-Light';}
	.st6{font-size:13.74px;}
	.st7{fill:#1D1D1B;}
	.st8{font-family:'OpenSans-SemiBold';}
	.st9{font-size:10.3px;}
	.st10{fill:#CCD6E0;}
	.st11{display:none;fill:none;stroke:#EFEFEF;stroke-width:0.6896;stroke-dasharray:0;}
	.st12{fill:none;stroke:#EFEFEF;stroke-width:0.6896;stroke-dasharray:0;}
	.st13{fill:#003366;}
	.st14{font-family:'SourceSansPro-Regular';}
	.st15{font-size:9.644px;}
	.st16{fill:none;stroke:#003366;stroke-width:0.6896;stroke-dasharray:0;}
	.st17{fill:none;stroke:#CCD6E0;stroke-width:2.7583;}
	.st18{fill:none;stroke:#003366;stroke-width:0.6896;stroke-dasharray:0.6896,0.6896;}
	.st19{font-family:'ArialMT';}
	.st20{font-size:8.2663px;}
	.st21{fill:none;stroke:#66E0E0;stroke-width:2.7583;}
	.st22{font-size:11.68px;}
	.st23{fill:none;stroke:#003366;stroke-width:2.7583;}
	.st24{fill:#878787;}
</style>
<path id="point-0-5-2-2-2_1_" class="st0" d="M184.1,441.2c0-1.5,1.2-2.8,2.8-2.8s2.8,1.2,2.8,2.8s-1.2,2.8-2.8,2.8
	S184.1,442.7,184.1,441.2z"/>
<g>
	<text transform="matrix(1 0 0 1 250.0913 47.0381)" class="st1 st2 st3">Establiments hotelers</text>
	<text transform="matrix(1 0 0 1 133.6944 74.9244)" class="st4"><tspan x="0" y="0" class="st1 st5 st6">L’ocupació en hotels a l’Entorn de Barcelona se situa en un 40,6%, 11 punts  </tspan><tspan x="-6.1" y="16.5" class="st1 st5 st6">per sota del juliol de l’any anterior, i encara lluny de les dades pre-covid (73%).</tspan></text>
	<path class="st1" d="M285,109.5h11.2c1.1,0,2,0.9,2,2v4c0,1.1-0.9,2-2,2H285c-1.1,0-2-0.9-2-2v-4C283,110.4,283.9,109.5,285,109.5z
		"/>
	<path class="st0" d="M340.7,109.5h11.2c1.1,0,2,0.9,2,2v4c0,1.1-0.9,2-2,2h-11.2c-1.1,0-2-0.9-2-2v-4
		C338.7,110.4,339.6,109.5,340.7,109.5z"/>
	<text transform="matrix(1 0 0 1 356.6775 116.4021)" class="st7 st8 st9">2020</text>
	<text transform="matrix(1 0 0 1 303.1775 116.4021)" class="st7 st8 st9">2021</text>
	<path class="st10" d="M396.1,109.5h11.2c1.1,0,2,0.9,2,2v4c0,1.1-0.9,2-2,2h-11.2c-1.1,0-2-0.9-2-2v-4
		C394.1,110.4,395,109.5,396.1,109.5z"/>
</g>
<g id="facets_1_">
	<g transform="translate(45,10)">
		<g>
			<g>
				<g>
					<path class="st11" d="M38.6,507.8V134.6"/>
					<g transform="translate(0,542.3645922851563)">
						<line class="st12" x1="38.9" y1="-9.6" x2="605.7" y2="-9.6"/>
						<text transform="matrix(1.0021 0 0 1 24.0342 -6.4062)" class="st13 st14 st15">0%</text>
					</g>
					<g transform="translate(0,406.8984442138672)">
						<line class="st12" x1="38.9" y1="32.5" x2="605.7" y2="32.5"/>
						<text transform="matrix(1.0021 0 0 1 19.2305 32.5638)" class="st13 st14 st15">20%</text>
					</g>
					<g transform="translate(0,271.43229614257814)">
						<path class="st12" d="M38.9,74.7c62.5,0,125,0,187.6,0c126.4,0,252.8,0,379.2,0"/>
						<text transform="matrix(1.0021 0 0 1 19.2305 77.8918)" class="st13 st14 st15">40%</text>
					</g>
					<g transform="translate(0,135.96614807128907)">
						<line class="st12" x1="38.9" y1="116.8" x2="605.7" y2="116.8"/>
						<text transform="matrix(1.0021 0 0 1 19.2305 120.0415)" class="st13 st14 st15">60%</text>
					</g>
					<g transform="translate(0,0.5)">
						<line class="st12" x1="38.9" y1="159" x2="605.7" y2="159"/>
						<text transform="matrix(1.0021 0 0 1 19.2305 162.1913)" class="st13 st14 st15">80%</text>
					</g>
				</g>
				<g transform="translate(0,541.8645922851563)">
					<path class="st16" d="M39.3-9.1H606"/>
					<g transform="translate(0.5,0)">
						<line class="st16" x1="38.8" y1="-9.5" x2="38.8" y2="-5.3"/>
						<text transform="matrix(1.0021 0 0 1 29.4912 8.9024)" class="st13 st14 st15">Gen.</text>
					</g>
					<g transform="translate(75.1369961825284,0)">
						<line class="st16" x1="15.6" y1="-9.5" x2="15.6" y2="-5.3"/>
						<text transform="matrix(1.0021 0 0 1 7.0578 8.9024)" class="st13 st14 st15">Feb.</text>
					</g>
					<g transform="translate(149.7739923650568,0)">
						<line class="st16" x1="-7.5" y1="-9.5" x2="-7.5" y2="-5.3"/>
						<text transform="matrix(1.0021 0 0 1 -17.4195 8.9024)" class="st13 st14 st15">Mar.</text>
					</g>
					<g transform="translate(224.41098854758522,0)">
						<line class="st16" x1="-30.6" y1="-9.5" x2="-30.6" y2="-5.3"/>
						<text transform="matrix(1.0021 0 0 1 -38.5321 8.9024)" class="st13 st14 st15">Abr.*</text>
					</g>
					<g transform="translate(299.0479847301136,0)">
						<line class="st16" x1="-53.7" y1="-9.5" x2="-53.7" y2="-5.3"/>
						<text transform="matrix(1.0021 0 0 1 -62.8986 8.9024)" class="st13 st14 st15">Mai</text>
					</g>
					<g transform="translate(373.684980912642,0)">
						<line class="st16" x1="-76.8" y1="-9.5" x2="-76.8" y2="-5.3"/>
						<text transform="matrix(1.0021 0 0 1 -85.6518 8.9024)" class="st13 st14 st15">Jun.</text>
					</g>
					<g transform="translate(448.32197709517044,0)">
						<line class="st16" x1="-99.9" y1="-9.5" x2="-99.9" y2="-5.3"/>
						<text transform="matrix(1.0021 0 0 1 -107.3542 8.9024)" class="st13 st14 st15">Jul.</text>
					</g>
					<g transform="translate(522.9589732776989,0)">
						<line class="st16" x1="-123" y1="-9.5" x2="-123" y2="-5.3"/>
						<text transform="matrix(1.0021 0 0 1 -131.8555 8.9024)" class="st13 st14 st15">Ago.</text>
					</g>
					<g transform="translate(597.5959694602273,0)">
						<line class="st16" x1="-146.2" y1="-9.5" x2="-146.2" y2="-5.3"/>
						<text transform="matrix(1.0021 0 0 1 -153.9983 8.9024)" class="st13 st14 st15">Set.</text>
					</g>
					<g transform="translate(672.2329656427556,0)">
						<line class="st16" x1="-169.3" y1="-9.5" x2="-169.3" y2="-5.3"/>
						<text transform="matrix(1.0021 0 0 1 -177.5484 8.9024)" class="st13 st14 st15">Oct.</text>
					</g>
					<g transform="translate(746.869961825284,0)">
						<line class="st16" x1="-192.4" y1="-9.5" x2="-192.4" y2="-5.3"/>
						<text transform="matrix(1.0021 0 0 1 -201.4451 8.9024)" class="st13 st14 st15">Nov.</text>
					</g>
					<g transform="translate(821.5069580078125,0)">
						<line class="st16" x1="-215.5" y1="-9.5" x2="-215.5" y2="-5.3"/>
						<text transform="matrix(1.0021 0 0 1 -224.1388 8.9024)" class="st13 st14 st15">Des.</text>
					</g>
				</g>
			</g>
		</g>
	</g>
</g>
<g>
	<g>
		<path pointer-events="none" class="st17" d="M83.9,382.4c17.2-15.4,34.3-30.8,51.5-37.3s34.3-3.3,51.5-9.8s34.3-57.9,51.5-57.9
			s34.3,6.5,51.5,6.5s34.3-56.6,51.5-66.3c17.2-9.6,34.3-7.2,51.5-14.5s34.3-29.4,51.5-29.4s34.3,31.2,51.5,48.1
			c17.2,16.9,34.3,31.7,51.5,53.2s34.3,64.4,51.5,75.6s34.3,14,51.5,16.8"/>
	</g>
</g>
<g>
	<g transform="translate(45, 10)">
		<g transform="translate(0, 98.2129573516846)">
			<line class="st18" x1="38.9" y1="128.6" x2="605.7" y2="128.6"/>
			<text transform="matrix(1.0021 0 0 1 525.9531 124.4725)" class="st13 st19 st20">Mitjana 2019: 65,5%</text>
		</g>
	</g>
</g>
<path id="point-0-5-2-2-2_3_" class="st0" d="M132.8,359.9c0-1.5,1.2-2.8,2.8-2.8s2.8,1.2,2.8,2.8s-1.2,2.8-2.8,2.8
	S132.8,361.4,132.8,359.9z"/>
<path id="point-0-5-2-2-2_4_" class="st13" d="M132.7,445c0-1.5,1.2-2.8,2.8-2.8s2.8,1.2,2.8,2.8s-1.2,2.8-2.8,2.8
	S132.7,446.5,132.7,445z"/>
<g>
	<g>
		<path class="st21" d="M333.9,458.1c26.8-25.7,57.8-46.7,83.8-74.7c5-4,10-7,16-11c8-5,18-2,24,6c8,12,13,24,20,36s14,23,27,28
			c29,9,58,18,89,19c19,0,39-2,57-9.1"/>
		<path class="st21" d="M237.7,542.4c1.4,0.1,2.8,0.1,4.3,0"/>
		<path class="st21" d="M288.1,471.9c5.8-3.9,13.7-5.7,20.5-6.9c10.9-2,15.2-3.6,25.3-6.9"/>
		<path class="st21" d="M237.7,540.4c1.5,0.1,2.9-0.3,4.3-0.9"/>
		<path class="st21" d="M83.9,380c16.1-9.9,33.1-23.9,54.1-18.9c5,1,11,4,14,9c14,24,23,49,35.9,73"/>
	</g>
</g>
<path id="point-0-5-2-2-2_5_" class="st10" d="M132.8,345.6c0-1.5,1.2-2.8,2.8-2.8s2.8,1.2,2.8,2.8s-1.2,2.8-2.8,2.8
	S132.8,347.1,132.8,345.6z"/>
<path id="point-0-0_1_" class="st13" d="M83.2,456.5c0-0.4,0.3-0.7,0.7-0.7s0.7,0.3,0.7,0.7c0,0.4-0.3,0.7-0.7,0.7
	S83.2,456.9,83.2,456.5z"/>
<path id="point-0-1_1_" class="st13" d="M134.7,444.9c0-0.4,0.3-0.7,0.7-0.7s0.7,0.3,0.7,0.7s-0.3,0.7-0.7,0.7
	C135.1,445.6,134.7,445.3,134.7,444.9z"/>
<path id="point-0-2_1_" class="st13" d="M79.6,456.8c0-2.3,1.9-4.1,4.1-4.1c2.3,0,4.1,1.9,4.1,4.1c0,2.3-1.9,4.1-4.1,4.1
	C81.4,461,79.6,459.1,79.6,456.8z"/>
<path id="point-0-2_3_" class="st10" d="M81.7,381.7c0-2.3,1.9-4.1,4.1-4.1c2.3,0,4.1,1.9,4.1,4.1s-1.9,4.1-4.1,4.1
	S81.7,384,81.7,381.7z"/>
<path id="point-0-2_2_" class="st0" d="M79.8,379.4c0-2.3,1.9-4.1,4.1-4.1c2.3,0,4.1,1.9,4.1,4.1s-1.9,4.1-4.1,4.1
	C81.6,383.5,79.8,381.6,79.8,379.4z"/>
<path id="point-0-2_4_" class="st10" d="M646.5,367.2c0-2.3,1.9-4.1,4.1-4.1s4.1,1.9,4.1,4.1c0,2.3-1.9,4.1-4.1,4.1
	S646.5,369.4,646.5,367.2z"/>
<path id="point-0-2" class="st13" d="M389.3,352.5c0-2.3,1.9-4.1,4.1-4.1s4.1,1.9,4.1,4.1c0,2.3-1.9,4.1-4.1,4.1
	S389.3,354.7,389.3,352.5z"/>
<path id="point-0-5-2-2-2_6_" class="st0" d="M331.1,457.2c0-1.5,1.2-2.8,2.8-2.8s2.8,1.2,2.8,2.8s-1.2,2.8-2.8,2.8
	S331.1,458.7,331.1,457.2z"/>
<path id="point-0-5-2-2-2_7_" class="st0" d="M390.6,406.5c0-1.5,1.2-2.8,2.8-2.8s2.8,1.2,2.8,2.8s-1.2,2.8-2.8,2.8
	S390.6,408,390.6,406.5z"/>
<path id="point-0-5-2-2-2_8_" class="st0" d="M442.1,370c0-1.5,1.2-2.8,2.8-2.8s2.8,1.2,2.8,2.8s-1.2,2.8-2.8,2.8
	S442.1,371.5,442.1,370z"/>
<path id="point-0-5-2-2-2_9_" class="st0" d="M493.6,438c0-1.5,1.2-2.8,2.8-2.8s2.8,1.2,2.8,2.8s-1.2,2.8-2.8,2.8
	S493.6,439.5,493.6,438z"/>
<path id="point-0-5-2-2-2_10_" class="st0" d="M545.2,454.4c0-1.5,1.2-2.8,2.8-2.8s2.8,1.2,2.8,2.8s-1.2,2.8-2.8,2.8
	S545.2,455.9,545.2,454.4z"/>
<path id="point-0-5-2-2-2_11_" class="st0" d="M596.7,462.1c0-1.5,1.2-2.8,2.8-2.8s2.8,1.2,2.8,2.8s-1.2,2.8-2.8,2.8
	S596.7,463.6,596.7,462.1z"/>
<path id="point-0-5-2-2-2_12_" class="st10" d="M184,335.8c0-1.5,1.2-2.8,2.8-2.8s2.8,1.2,2.8,2.8s-1.2,2.8-2.8,2.8
	S184,337.3,184,335.8z"/>
<path id="point-0-5-2-2-2_13_" class="st10" d="M237,278.1c0-1.5,1.2-2.8,2.8-2.8s2.8,1.2,2.8,2.8s-1.2,2.8-2.8,2.8
	S237,279.6,237,278.1z"/>
<path id="point-0-5-2-2-2_14_" class="st10" d="M289.8,283.7c0-1.5,1.2-2.8,2.8-2.8s2.8,1.2,2.8,2.8s-1.2,2.8-2.8,2.8
	S289.8,285.2,289.8,283.7z"/>
<path id="point-0-5-2-2-2_15_" class="st10" d="M330.3,225c0-1.5,1.2-2.8,2.8-2.8s2.8,1.2,2.8,2.8s-1.2,2.8-2.8,2.8
	S330.3,226.5,330.3,225z"/>
<path id="point-0-5-2-2-2_16_" class="st10" d="M390.8,203c0-1.5,1.2-2.8,2.8-2.8s2.8,1.2,2.8,2.8s-1.2,2.8-2.8,2.8
	S390.8,204.5,390.8,203z"/>
<path id="point-0-5-2-2-2_17_" class="st10" d="M441.6,173.6c0-1.5,1.2-2.8,2.8-2.8s2.8,1.2,2.8,2.8s-1.2,2.8-2.8,2.8
	S441.6,175.1,441.6,173.6z"/>
<path id="point-0-5-2-2-2_18_" class="st10" d="M493.4,222.3c0-1.5,1.2-2.8,2.8-2.8s2.8,1.2,2.8,2.8s-1.2,2.8-2.8,2.8
	S493.4,223.8,493.4,222.3z"/>
<path id="point-0-5-2-2-2_19_" class="st10" d="M545,274.9c0-1.5,1.2-2.8,2.8-2.8s2.8,1.2,2.8,2.8s-1.2,2.8-2.8,2.8
	S545,276.4,545,274.9z"/>
<path id="point-0-5-2-2-2_20_" class="st10" d="M596.7,351.3c0-1.5,1.2-2.8,2.8-2.8s2.8,1.2,2.8,2.8s-1.2,2.8-2.8,2.8
	S596.7,352.8,596.7,351.3z"/>
<path id="point-0-6-2_2_" class="st0" d="M646.7,452.5c0-2.3,1.8-4.1,4.1-4.1s4.1,1.8,4.1,4.1c0,2.3-1.8,4.1-4.1,4.1l0,0l0,0
	C648.5,456.6,646.7,454.8,646.7,452.5L646.7,452.5L646.7,452.5L646.7,452.5z"/>
<text transform="matrix(1 0 0 1 232.6004 533.8864)" class="st1 st14 st22">0,0</text>
<path id="point-0-5-2-2-2_21_" class="st0" d="M237,541.3c0-1.5,1.2-2.8,2.8-2.8s2.8,1.2,2.8,2.8s-1.2,2.8-2.8,2.8
	S237,542.8,237,541.3z"/>
<text transform="matrix(1 0 0 1 69.0342 473.5355)" class="st1 st14 st22">18,4</text>
<text transform="matrix(1 0 0 1 382.9532 338.5996)" class="st1 st14 st22">40,6</text>
<text transform="matrix(1 0 0 1 52.97 403.7545)" class="st1 st14 st22">34,3</text>
<text transform="matrix(1 0 0 1 52.9699 383.5191)" class="st1 st14 st22">34,8</text>
<text transform="matrix(1 0 0 1 436.1036 161.9197)" class="st1 st14 st22">79,0</text>
<text transform="matrix(1 0 0 1 436.1036 361.4434)" class="st1 st14 st22">36,9</text>
<text transform="matrix(1 0 0 1 638.1858 383.5192)" class="st1 st14 st22">37,5</text>
<text transform="matrix(1 0 0 1 638.1857 470.6556)" class="st1 st14 st22">19,3</text>
<text transform="matrix(1 0 0 1 414.2849 116.4017)" class="st7 st8 st9">2019</text>
<g>
	<g>
		<path pointer-events="none" class="st23" d="M83.9,456.5c17.2-4.3,34.3-8.6,51.5-11.7s34.3-4.8,51.5-6.5c17.6-0.5,35.2-1,52.8-1.5
			c7.8-0.3,17.8-1.6,29-5c8.2-2.5,15.2-5.7,20.7-8.6c17.5-8.8,27-10.7,44.5-19.4c2.4-0.9,4.8-1.9,7.3-3c25-11.4,41.3-30.8,51.5-47.2
			"/>
	</g>
</g>
<g>
	<text transform="matrix(1 0 0 1 52.97 614.6863)" class="st24 st8 st9">Font: Elaboració pròpia del LABturisme en base a dades de l&apos;Enquesta d&apos;ocupació en allotjaments de l&apos;INE.        </text>
</g>
<text transform="matrix(1 0 0 1 52.97 631.8004)" class="st24 st8 st9">*Les dades d’abril de 2020 no estan disponibles degut al tancament d’establiments per la crisi de la COVID-19.</text>
<g>
	<text transform="matrix(1 0 0 1 274.3127 484.4105)" class="st1 st14 st22">15,3</text>
</g>
<path id="point-0-5-2-2-2_2_" class="st13" d="M184,438.5c0-1.5,1.2-2.8,2.8-2.8s2.8,1.2,2.8,2.8s-1.2,2.8-2.8,2.8
	S184,440,184,438.5z"/>
<path id="point-0-5-2-2-2_22_" class="st13" d="M237.2,437.1c0-1.5,1.2-2.8,2.8-2.8s2.8,1.2,2.8,2.8s-1.2,2.8-2.8,2.8
	S237.2,438.6,237.2,437.1z"/>
<path id="point-0-5-2-2-2_23_" class="st0" d="M287.5,470.7c0-1.5,1.2-2.8,2.8-2.8s2.8,1.2,2.8,2.8s-1.2,2.8-2.8,2.8
	S287.5,472.2,287.5,470.7z"/>
<path id="point-0-5-2-2-2_24_" class="st13" d="M290.3,421.6c0-1.5,1.2-2.8,2.8-2.8s2.8,1.2,2.8,2.8s-1.2,2.8-2.8,2.8
	S290.3,423.1,290.3,421.6z"/>
<path id="point-0-5-2-2-2_25_" class="st13" d="M339.1,400.8c0-1.5,1.2-2.8,2.8-2.8c1.6,0,2.8,1.2,2.8,2.8s-1.2,2.8-2.8,2.8
	C340.3,403.6,339.1,402.3,339.1,400.8z"/>
</svg>
