<?xml version="1.0" encoding="utf-8"?>
<!-- Generator: Adobe Illustrator 24.0.1, SVG Export Plug-In . SVG Version: 6.00 Build 0)  -->
<svg version="1.1" id="Capa_1" xmlns="http://www.w3.org/2000/svg" xmlns:xlink="http://www.w3.org/1999/xlink" x="0px" y="0px"
	 viewBox="0 0 1366.8 1056.3" style="enable-background:new 0 0 1366.8 1056.3;" xml:space="preserve">
<style type="text/css">
	.st0{fill:none;}
	.st1{clip-path:url(#SVGID_2_);}
	.st2{fill:#003366;}
	.st3{font-family:'Arial-BoldMT';}
	.st4{font-size:24.5186px;}
	.st5{clip-path:url(#SVGID_4_);}
	.st6{fill:#EEEEEE;}
	.st7{clip-path:url(#SVGID_6_);}
	.st8{font-size:23.8px;}
	.st9{fill:#8D8D8D;}
	.st10{fill:#012E68;}
	.st11{font-family:'OpenSans-Regular';}
	.st12{font-size:22px;}
	.st13{fill:#00CCCC;}
	.st14{fill:#FFFFFF;}
	.st15{font-family:'OpenSans-SemiBold';}
	.st16{font-size:35px;}
	.st17{font-size:26px;}
	.st18{font-size:25px;}
	.st19{font-family:'OpenSans-Light';}
	.st20{font-size:83px;}
	.st21{font-family:'ArialMT';}
	.st22{font-size:29.9151px;}
	.st23{font-size:29.9677px;}
</style>
<title>LABTurisme-Sintesi-Viatgers-Pernoctacions-desembre-2020</title>
<rect x="37.8" y="401.4" class="st0" width="1220" height="426.6"/>
<image style="overflow:visible;enable-background:new    ;" width="264" height="86" xlink:href="CBC1D0D5.png"  transform="matrix(0.7065 0 0 0.7065 389.4941 358.4111)">
</image>
<image style="overflow:visible;enable-background:new    ;" width="176" height="236" xlink:href="305CA650.png"  transform="matrix(-1.2834 0 0 -1.2834 263.6784 371.5105)">
</image>
<g>
	<g>
		<g>
			<g>
				<g>
					<g>
						<g>
							<g>
								<defs>
									<rect id="SVGID_1_" x="99.3" y="526.3" width="460.6" height="303.9"/>
								</defs>
								<clipPath id="SVGID_2_">
									<use xlink:href="#SVGID_1_"  style="overflow:visible;"/>
								</clipPath>
								<g class="st1">
									<text transform="matrix(1 0 0 1 285.0466 600.1179)" class="st2 st3 st4">V</text>
									<text transform="matrix(1 0 0 1 300.9572 600.1179)" class="st2 st3 st4">iatgers</text>
								</g>
							</g>
						</g>
					</g>
				</g>
			</g>
		</g>
	</g>
</g>
<g>
	<g>
		<g>
			<g>
				<g>
					<g>
						<g>
							<g>
								<defs>
									<rect id="SVGID_3_" x="764.5" y="526.3" width="447.1" height="294.9"/>
								</defs>
								<clipPath id="SVGID_4_">
									<use xlink:href="#SVGID_3_"  style="overflow:visible;"/>
								</clipPath>
								<g class="st5">
									<rect x="907.2" y="571.6" class="st6" width="0" height="35.7"/>
								</g>
							</g>
						</g>
					</g>
				</g>
			</g>
		</g>
	</g>
</g>
<g>
	<g>
		<g>
			<g>
				<g>
					<g>
						<g>
							<g>
								<defs>
									<rect id="SVGID_5_" x="816.2" y="530.8" width="447.1" height="294.9"/>
								</defs>
								<clipPath id="SVGID_6_">
									<use xlink:href="#SVGID_5_"  style="overflow:visible;"/>
								</clipPath>
								<g class="st7">
									<text transform="matrix(1 0 0 1 964.8737 602.4823)" class="st2 st3 st8">Pernoctacions</text>
								</g>
							</g>
						</g>
					</g>
				</g>
			</g>
		</g>
	</g>
</g>
<g>
	<path class="st9" d="M37,1024.8h-5.1v4.7h5.7v1.4h-7.4v-13.1h7.1v1.4h-5.4v4.1H37V1024.8z"/>
	<path class="st9" d="M39.7,1017.1h1.7v13.8h-1.7V1017.1z"/>
	<path class="st9" d="M49.5,1030.9l-0.1-1.2h-0.1c-0.7,0.9-1.7,1.4-2.9,1.4c-1.5,0.1-2.8-1-2.9-2.5c0-0.1,0-0.1,0-0.2
		c0-2.3,2-3.5,5.6-3.5v-0.2c0.1-1.1-0.6-2-1.7-2.2c-0.2,0-0.3,0-0.5,0c-0.9,0-1.7,0.2-2.4,0.7l-0.4-1.1c0.9-0.6,2-0.8,3.1-0.8
		c2.9,0,3.6,2,3.6,3.8v3.5c0,0.8,0,1.5,0.2,2.3H49.5z M49.2,1026.1c-1.9,0-4,0.3-4,2.1c-0.1,0.8,0.6,1.6,1.4,1.6c0.1,0,0.2,0,0.2,0
		c1,0,1.9-0.6,2.3-1.6c0.1-0.2,0.1-0.4,0.1-0.5V1026.1z"/>
	<path class="st9" d="M53.5,1030.9c0-0.6,0.1-1.6,0.1-2.4v-11.4h1.7v5.9l0,0c0.7-1.1,1.9-1.8,3.2-1.7c2.3,0,4,1.9,4,4.8
		c0,3.4-2.1,5-4.2,5c-1.3,0.1-2.5-0.6-3.1-1.8h-0.1l-0.1,1.6L53.5,1030.9z M55.3,1027.1c0,0.2,0,0.4,0.1,0.6c0.3,1.2,1.3,2,2.6,2
		c1.8,0,2.9-1.5,2.9-3.6c0-1.9-1-3.5-2.8-3.5c-1.2,0-2.3,0.9-2.6,2.1c-0.1,0.2-0.1,0.5-0.1,0.7L55.3,1027.1L55.3,1027.1z"/>
	<path class="st9" d="M73.2,1026.1c0.2,2.5-1.7,4.8-4.2,5c-0.2,0-0.3,0-0.5,0c-2.5,0-4.5-1.9-4.5-4.8c0-3.1,2.1-5,4.7-5
		C71.3,1021.3,73.2,1023.3,73.2,1026.1z M65.7,1026.2c0,2.1,1.2,3.6,2.9,3.6c1.6,0,2.9-1.5,2.9-3.6c0-1.6-0.8-3.6-2.8-3.6
		S65.7,1024.4,65.7,1026.2L65.7,1026.2z"/>
	<path class="st9" d="M75.3,1024.4c0-1.1,0-2.1-0.1-2.9h1.5l0.1,1.8h0.1c0.3-1.2,1.4-2,2.6-2.1c0.2,0,0.3,0,0.5,0.1v1.6
		c-0.2,0-0.4-0.1-0.6-0.1c-1.2,0-2.2,1-2.3,2.2c0,0.3-0.1,0.5-0.1,0.8v5h-1.7C75.3,1030.8,75.3,1024.4,75.3,1024.4z"/>
	<path class="st9" d="M86.8,1030.9l-0.1-1.2h-0.1c-0.7,0.9-1.7,1.4-2.9,1.4c-1.5,0.1-2.8-1-2.9-2.5c0-0.1,0-0.1,0-0.2
		c0-2.3,2-3.5,5.6-3.5v-0.2c0.1-1.1-0.6-2-1.7-2.2c-0.2,0-0.3,0-0.5,0c-0.9,0-1.7,0.2-2.4,0.7l-0.4-1.1c0.9-0.6,2-0.8,3.1-0.8
		c2.9,0,3.6,2,3.6,3.8v3.5c0,0.8,0,1.5,0.2,2.3H86.8z M86.5,1026.1c-1.9,0-4,0.3-4,2.1c-0.1,0.8,0.6,1.6,1.4,1.6c0.1,0,0.2,0,0.2,0
		c1,0,1.9-0.6,2.3-1.6c0.1-0.2,0.1-0.4,0.1-0.5V1026.1z"/>
	<path class="st9" d="M97.6,1030.5c-0.8,0.4-1.8,0.6-2.7,0.5c-2.5,0.1-4.6-1.8-4.7-4.2c0-0.2,0-0.4,0-0.6c-0.1-2.6,1.9-4.9,4.5-5
		c0.2,0,0.3,0,0.5,0c0.8,0,1.6,0.2,2.4,0.5l-0.4,1.3c-0.6-0.3-1.3-0.5-2-0.4c-2,0.1-3.4,1.8-3.3,3.8c0.1,1.8,1.5,3.2,3.3,3.3
		c0.7,0,1.4-0.2,2.1-0.5L97.6,1030.5z"/>
	<path class="st9" d="M101.5,1018.9c0,0.6-0.5,1.1-1.1,1.1s-1.1-0.5-1.1-1.1s0.4-1.1,1-1.1c0,0,0,0,0.1,0
		C101,1017.8,101.5,1018.2,101.5,1018.9C101.5,1018.8,101.5,1018.8,101.5,1018.9z M99.6,1030.9v-9.4h1.7v9.4H99.6z"/>
	<path class="st9" d="M112.7,1026.1c0.2,2.5-1.7,4.8-4.2,5c-0.2,0-0.3,0-0.5,0c-2.5,0-4.5-1.9-4.5-4.8c0-3.1,2.1-5,4.7-5
		S112.7,1023.3,112.7,1026.1z M105.2,1026.2c0,2.1,1.2,3.6,2.9,3.6c1.6,0,2.9-1.5,2.9-3.6c0-1.6-0.8-3.6-2.8-3.6
		C106.1,1022.6,105.2,1024.4,105.2,1026.2L105.2,1026.2z M110.6,1017.4l-2.4,2.8H107l1.7-2.8H110.6z"/>
	<path class="st9" d="M124.5,1024.6c0-1.2,0-2.2-0.1-3.1h1.5l0.1,1.6l0,0c0.7-1.2,2-1.9,3.3-1.8c2.3,0,4,1.9,4,4.8
		c0,3.4-2.1,5-4.3,5c-1.2,0.1-2.3-0.5-2.9-1.5l0,0v5.1h-1.7L124.5,1024.6z M126.2,1027.1c0,0.2,0,0.5,0.1,0.7c0.3,1.2,1.3,2,2.6,2
		c1.8,0,2.9-1.5,2.9-3.6c0-1.9-1-3.5-2.8-3.5c-1.2,0-2.3,0.9-2.6,2.1c-0.1,0.2-0.1,0.5-0.1,0.7L126.2,1027.1z"/>
	<path class="st9" d="M135.6,1024.4c0-1.1,0-2.1-0.1-2.9h1.5l0.1,1.8h0.1c0.3-1.2,1.4-2,2.6-2.1c0.2,0,0.3,0,0.5,0.1v1.6
		c-0.2,0-0.4-0.1-0.6-0.1c-1.2,0-2.2,1-2.3,2.2c0,0.3-0.1,0.5-0.1,0.8v5h-1.7V1024.4z"/>
	<path class="st9" d="M150.2,1026.1c0.2,2.5-1.7,4.8-4.2,5c-0.2,0-0.3,0-0.5,0c-2.5,0-4.5-1.9-4.5-4.8c0-3.1,2.1-5,4.7-5
		C148.4,1021.3,150.2,1023.3,150.2,1026.1z M142.8,1026.2c0,2.1,1.2,3.6,2.9,3.6c1.6,0,2.9-1.5,2.9-3.6c0-1.6-0.8-3.6-2.8-3.6
		S142.8,1024.4,142.8,1026.2L142.8,1026.2z M145,1017.4l1.7,2.8h-1.2l-2.4-2.8H145z"/>
	<path class="st9" d="M152.4,1024.6c0-1.2,0-2.2-0.1-3.1h1.5l0.1,1.6l0,0c0.7-1.2,2-1.9,3.3-1.8c2.3,0,4,1.9,4,4.8
		c0,3.4-2.1,5-4.3,5c-1.2,0.1-2.3-0.5-2.9-1.5l0,0v5.1h-1.7L152.4,1024.6z M154,1027.1c0,0.2,0,0.5,0.1,0.7c0.3,1.2,1.3,2,2.6,2
		c1.8,0,2.9-1.5,2.9-3.6c0-1.9-1-3.5-2.8-3.5c-1.2,0-2.3,0.9-2.6,2.1c-0.1,0.2-0.1,0.5-0.1,0.7L154,1027.1z"/>
	<path class="st9" d="M165.3,1018.9c0,0.6-0.5,1.1-1.1,1c-0.6,0-1-0.5-1-1c0-0.6,0.4-1.1,1-1.1c0,0,0,0,0.1,0
		C164.8,1017.8,165.3,1018.2,165.3,1018.9C165.3,1018.8,165.3,1018.8,165.3,1018.9z M163.4,1030.9v-9.4h1.7v9.4H163.4z"/>
	<path class="st9" d="M173.1,1030.9l-0.1-1.2h-0.1c-0.7,0.9-1.7,1.4-2.9,1.4c-1.5,0.1-2.8-1-2.9-2.5c0-0.1,0-0.1,0-0.2
		c0-2.3,2-3.5,5.6-3.5v-0.2c0.1-1.1-0.6-2-1.7-2.2c-0.2,0-0.3,0-0.5,0c-0.9,0-1.7,0.2-2.4,0.7l-0.4-1.1c0.9-0.6,2-0.8,3.1-0.8
		c2.9,0,3.6,2,3.6,3.8v3.5c0,0.8,0,1.5,0.2,2.3H173.1z M172.9,1026.1c-1.9,0-4,0.3-4,2.1c-0.1,0.8,0.6,1.6,1.4,1.6
		c0.1,0,0.2,0,0.2,0c1,0,1.9-0.6,2.3-1.6c0.1-0.2,0.1-0.4,0.1-0.5V1026.1z"/>
	<path class="st9" d="M195.1,1017.1v11.4c0,0.8,0,1.8,0.1,2.4h-1.5l-0.1-1.6l0,0c-0.6,1.2-1.9,1.9-3.2,1.8c-2.3,0-4-1.9-4-4.8
		c0-3.1,1.9-5,4.2-5c1.1-0.1,2.2,0.5,2.8,1.4l0,0v-5.6L195.1,1017.1L195.1,1017.1z M193.4,1025.3c0-0.2,0-0.5-0.1-0.7
		c-0.3-1.2-1.3-2-2.5-2c-1.8,0-2.8,1.6-2.8,3.6c0,1.9,0.9,3.5,2.8,3.5c1.2,0,2.3-0.9,2.5-2c0.1-0.2,0.1-0.5,0.1-0.7V1025.3z"/>
	<path class="st9" d="M198.9,1026.5c-0.1,1.7,1.1,3.1,2.7,3.3c0.2,0,0.3,0,0.5,0c0.9,0,1.8-0.1,2.6-0.5l0.3,1.2
		c-1,0.4-2.1,0.6-3.1,0.6c-2.4,0.2-4.5-1.7-4.6-4.1c0-0.2,0-0.4,0-0.7c0-2.8,1.7-5.1,4.4-5.1c3.1,0,3.9,2.7,3.9,4.4
		c0,0.3,0,0.5-0.1,0.8L198.9,1026.5z M203.9,1025.3c0-1.1-0.4-2.8-2.4-2.8c-1.5,0.1-2.6,1.3-2.6,2.8H203.9z"/>
	<path class="st9" d="M207.7,1017.1h1.7v13.8h-1.7V1017.1z"/>
	<path class="st9" d="M222,1017.8h1.7v11.7h5.6v1.4H222V1017.8z"/>
	<path class="st9" d="M233.3,1026.8l-1.4,4.1h-1.7l4.4-13.1h2l4.5,13.1h-1.8l-1.4-4.1H233.3z M237.6,1025.5l-1.3-3.8
		c-0.3-0.9-0.5-1.6-0.7-2.4l0,0c-0.2,0.8-0.4,1.6-0.7,2.4l-1.3,3.8H237.6z"/>
	<path class="st9" d="M243,1018c1-0.2,2.1-0.3,3.1-0.3c1.3-0.1,2.5,0.2,3.6,1c0.7,0.5,1.1,1.4,1.1,2.3c0,1.3-0.9,2.5-2.2,2.9l0,0
		c1.6,0.3,2.7,1.7,2.7,3.3c0,1-0.4,1.9-1.1,2.6c-0.9,0.8-2.4,1.2-4.5,1.2c-0.9,0-1.8,0-2.6-0.2L243,1018z M244.7,1023.3h1.5
		c1.8,0,2.8-0.9,2.8-2.2c0-1.5-1.2-2.1-2.9-2.1c-0.5,0-1,0-1.5,0.1L244.7,1023.3L244.7,1023.3z M244.7,1029.6
		c0.5,0.1,0.9,0.1,1.4,0.1c1.7,0,3.4-0.6,3.4-2.5c0-1.8-1.5-2.5-3.4-2.5h-1.4V1029.6z"/>
	<path class="st9" d="M255.6,1018.8v2.7h2.4v1.3h-2.4v5.1c0,1.2,0.3,1.8,1.3,1.8c0.3,0,0.7,0,1-0.1l0.1,1.3c-0.5,0.2-1,0.2-1.5,0.2
		c-0.7,0-1.4-0.2-1.8-0.7c-0.5-0.7-0.8-1.6-0.7-2.4v-5.1h-1.5v-1.3h1.5v-2.3L255.6,1018.8z"/>
	<path class="st9" d="M267.8,1028.3c0,1,0,1.8,0.1,2.6h-1.5l-0.1-1.5l0,0c-0.6,1.1-1.8,1.8-3.1,1.7c-1.5,0-3.2-0.8-3.2-4.1v-5.5h1.7
		v5.2c0,1.8,0.5,3,2.1,3c1,0,1.9-0.6,2.3-1.6c0.1-0.3,0.2-0.6,0.2-0.9v-5.8h1.7L267.8,1028.3z"/>
	<path class="st9" d="M270.6,1024.4c0-1.1,0-2.1-0.1-2.9h1.5l0.1,1.8h0.1c0.3-1.2,1.4-2,2.6-2.1c0.2,0,0.3,0,0.5,0.1v1.6
		c-0.2,0-0.4-0.1-0.6-0.1c-1.2,0-2.2,1-2.3,2.2c0,0.3-0.1,0.5-0.1,0.8v5h-1.7V1024.4z"/>
	<path class="st9" d="M278.9,1018.9c0,0.6-0.5,1.1-1.1,1.1s-1.1-0.5-1.1-1.1s0.4-1.1,1-1.1c0,0,0,0,0.1,0
		C278.4,1017.8,278.9,1018.2,278.9,1018.9C278.9,1018.8,278.9,1018.8,278.9,1018.9z M277,1030.9v-9.4h1.7v9.4H277z"/>
	<path class="st9" d="M281.3,1029.2c0.7,0.4,1.5,0.7,2.3,0.7c1.2,0,1.8-0.6,1.8-1.4s-0.5-1.3-1.7-1.7c-1.7-0.6-2.5-1.5-2.5-2.7
		c0-1.5,1.2-2.8,3.2-2.8c0.8,0,1.6,0.2,2.3,0.6l-0.4,1.2c-0.6-0.4-1.2-0.5-1.9-0.5c-1,0-1.6,0.6-1.6,1.3c0,0.8,0.6,1.1,1.8,1.6
		c1.6,0.6,2.5,1.4,2.5,2.8c0,1.6-1.3,2.8-3.5,2.8c-0.9,0-1.8-0.2-2.6-0.6L281.3,1029.2z"/>
	<path class="st9" d="M289.3,1024c0-1,0-1.8-0.1-2.5h1.5l0.1,1.5h0.1c0.6-1.1,1.7-1.8,3-1.7c1.2,0,2.3,0.7,2.7,1.9l0,0
		c0.3-0.5,0.6-0.9,1-1.2c0.6-0.5,1.3-0.7,2.1-0.7c1.2,0,3.1,0.8,3.1,4.1v5.5h-1.7v-5.3c0-1.8-0.7-2.9-2-2.9c-0.9,0-1.7,0.7-2,1.6
		c-0.1,0.3-0.1,0.6-0.1,0.9v5.8h-1.7v-5.6c0-1.5-0.7-2.6-2-2.6c-1.3,0.2-2.3,1.2-2.3,2.5v5.7h-1.7V1024z"/>
	<path class="st9" d="M306.4,1026.5c-0.1,1.7,1.1,3.1,2.7,3.3c0.2,0,0.3,0,0.5,0c0.9,0,1.8-0.1,2.6-0.5l0.3,1.2
		c-1,0.4-2.1,0.6-3.1,0.6c-2.4,0.2-4.5-1.7-4.6-4.1c0-0.2,0-0.4,0-0.7c0-2.8,1.7-5.1,4.4-5.1c3.1,0,3.9,2.7,3.9,4.4
		c0,0.3,0,0.5-0.1,0.8L306.4,1026.5z M311.4,1025.3c0-1.1-0.4-2.8-2.4-2.8c-1.5,0.1-2.6,1.3-2.6,2.8H311.4z"/>
	<path class="st9" d="M314.8,1034.1v-0.4c0.5-0.2,1-0.5,1.4-0.9s0.6-1,0.6-1.5l-0.1-0.3l-0.1-0.1l-0.8,0.3c-0.7,0-1-0.4-1-1.1
		c0-0.3,0.1-0.6,0.4-0.8c0.2-0.2,0.5-0.3,0.9-0.3c0.5,0,0.9,0.3,1.2,0.7c0.3,0.4,0.4,0.9,0.4,1.3
		C317.6,1032.5,316.7,1033.5,314.8,1034.1z"/>
	<path class="st9" d="M330.7,1026.5c-0.1,1.7,1.1,3.1,2.7,3.3c0.2,0,0.3,0,0.5,0c0.9,0,1.8-0.1,2.6-0.5l0.3,1.2
		c-1,0.4-2.1,0.6-3.1,0.6c-2.4,0.2-4.5-1.7-4.6-4.1c0-0.2,0-0.4,0-0.7c0-2.8,1.7-5.1,4.4-5.1c3.1,0,3.9,2.7,3.9,4.4
		c0,0.3,0,0.5-0.1,0.8L330.7,1026.5z M335.7,1025.3c0-1.1-0.4-2.8-2.4-2.8c-1.5,0.1-2.6,1.3-2.6,2.8H335.7z"/>
	<path class="st9" d="M339.4,1024c0-1,0-1.8-0.1-2.5h1.5l0.1,1.6l0,0c0.6-1.1,1.8-1.8,3.1-1.8c1.3,0,3.3,0.8,3.3,4v5.6h-1.7v-5.4
		c0-1.5-0.6-2.8-2.2-2.8c-1.1,0-2,0.7-2.3,1.7c-0.1,0.3-0.1,0.5-0.1,0.8v5.6h-1.7v-6.8L339.4,1024L339.4,1024z"/>
	<path class="st9" d="M359.8,1030.9c0-0.6,0.1-1.6,0.1-2.4v-11.4h1.7v5.9l0,0c0.7-1.1,1.9-1.8,3.2-1.7c2.3,0,4,1.9,4,4.8
		c0,3.4-2.1,5-4.2,5c-1.3,0.1-2.5-0.6-3.1-1.8h-0.1l-0.1,1.6L359.8,1030.9z M361.6,1027.1c0,0.2,0,0.4,0.1,0.6c0.3,1.2,1.3,2,2.6,2
		c1.8,0,2.9-1.5,2.9-3.6c0-1.9-1-3.5-2.8-3.5c-1.2,0-2.3,0.9-2.6,2.1c-0.1,0.2-0.1,0.5-0.1,0.7L361.6,1027.1z"/>
	<path class="st9" d="M376.2,1030.9l-0.1-1.2H376c-0.7,0.9-1.7,1.4-2.9,1.4c-1.5,0.1-2.8-1-2.9-2.5c0-0.1,0-0.1,0-0.2
		c0-2.3,2-3.5,5.6-3.5v-0.2c0.1-1.1-0.6-2-1.7-2.2c-0.2,0-0.3,0-0.5,0c-0.9,0-1.7,0.2-2.4,0.7l-0.4-1.1c0.9-0.6,2-0.8,3.1-0.8
		c2.9,0,3.6,2,3.6,3.8v3.5c0,0.8,0,1.5,0.2,2.3H376.2z M375.9,1026.1c-1.9,0-4,0.3-4,2.1c-0.1,0.8,0.6,1.6,1.4,1.6
		c0.1,0,0.2,0,0.2,0c1,0,1.9-0.6,2.3-1.6c0.1-0.2,0.1-0.4,0.1-0.5V1026.1z"/>
	<path class="st9" d="M380.1,1029.2c0.7,0.4,1.5,0.7,2.3,0.7c1.2,0,1.8-0.6,1.8-1.4s-0.5-1.3-1.7-1.7c-1.7-0.6-2.5-1.5-2.5-2.7
		c0-1.5,1.2-2.8,3.2-2.8c0.8,0,1.6,0.2,2.3,0.6l-0.4,1.2c-0.6-0.4-1.2-0.5-1.9-0.5c-1,0-1.6,0.6-1.6,1.3c0,0.8,0.6,1.1,1.8,1.6
		c1.6,0.6,2.5,1.4,2.5,2.8c0,1.6-1.3,2.8-3.5,2.8c-0.9,0-1.8-0.2-2.6-0.6L380.1,1029.2z"/>
	<path class="st9" d="M388.9,1026.5c-0.1,1.7,1.1,3.1,2.7,3.3c0.2,0,0.3,0,0.5,0c0.9,0,1.8-0.1,2.6-0.5l0.3,1.2
		c-1,0.4-2.1,0.6-3.1,0.6c-2.4,0.2-4.5-1.7-4.6-4.1c0-0.2,0-0.4,0-0.7c0-2.8,1.7-5.1,4.4-5.1c3.1,0,3.9,2.7,3.9,4.4
		c0,0.3,0,0.5-0.1,0.8L388.9,1026.5z M394,1025.3c0-1.1-0.4-2.8-2.4-2.8c-1.5,0.1-2.6,1.3-2.6,2.8H394z"/>
	<path class="st9" d="M412.6,1030.9l-0.1-1.2h-0.1c-0.7,0.9-1.7,1.4-2.9,1.4c-1.5,0.1-2.8-1-2.9-2.5c0-0.1,0-0.1,0-0.2
		c0-2.3,2-3.5,5.6-3.5v-0.2c0.1-1.1-0.6-2-1.7-2.2c-0.2,0-0.3,0-0.5,0c-0.9,0-1.7,0.2-2.4,0.7l-0.4-1.1c0.9-0.6,2-0.8,3.1-0.8
		c2.9,0,3.6,2,3.6,3.8v3.5c0,0.8,0,1.5,0.2,2.3H412.6z M412.4,1026.1c-1.9,0-4,0.3-4,2.1c-0.1,0.8,0.6,1.6,1.4,1.6
		c0.1,0,0.2,0,0.2,0c1,0,1.9-0.6,2.3-1.6c0.1-0.2,0.1-0.4,0.1-0.5V1026.1z"/>
	<path class="st9" d="M434.6,1017.1v11.4c0,0.8,0,1.8,0.1,2.4h-1.5l-0.1-1.6l0,0c-0.6,1.2-1.9,1.9-3.2,1.8c-2.3,0-4-1.9-4-4.8
		c0-3.1,1.9-5,4.2-5c1.1-0.1,2.2,0.5,2.8,1.4l0,0v-5.6L434.6,1017.1L434.6,1017.1z M432.9,1025.3c0-0.2,0-0.5-0.1-0.7
		c-0.3-1.2-1.3-2-2.5-2c-1.8,0-2.8,1.6-2.8,3.6c0,1.9,0.9,3.5,2.8,3.5c1.2,0,2.3-0.9,2.5-2c0.1-0.2,0.1-0.5,0.1-0.7V1025.3z"/>
	<path class="st9" d="M442.6,1030.9l-0.1-1.2h-0.1c-0.7,0.9-1.7,1.4-2.9,1.4c-1.5,0.1-2.8-1-2.9-2.5c0-0.1,0-0.1,0-0.2
		c0-2.3,2-3.5,5.6-3.5v-0.2c0.1-1.1-0.6-2-1.7-2.2c-0.2,0-0.3,0-0.5,0c-0.9,0-1.7,0.2-2.4,0.7l-0.4-1.1c0.9-0.6,2-0.8,3.1-0.8
		c2.9,0,3.6,2,3.6,3.8v3.5c0,0.8,0,1.5,0.2,2.3H442.6z M442.4,1026.1c-1.9,0-4,0.3-4,2.1c-0.1,0.8,0.6,1.6,1.4,1.6
		c0.1,0,0.2,0,0.2,0c1,0,1.9-0.6,2.3-1.6c0.1-0.2,0.1-0.4,0.1-0.5V1026.1z"/>
	<path class="st9" d="M454.9,1017.1v11.4c0,0.8,0,1.8,0.1,2.4h-1.5l-0.1-1.6l0,0c-0.6,1.2-1.9,1.9-3.2,1.8c-2.3,0-4-1.9-4-4.8
		c0-3.1,1.9-5,4.2-5c1.1-0.1,2.2,0.5,2.8,1.4l0,0v-5.6L454.9,1017.1L454.9,1017.1z M453.2,1025.3c0-0.2,0-0.5-0.1-0.7
		c-0.3-1.2-1.3-2-2.5-2c-1.8,0-2.8,1.6-2.8,3.6c0,1.9,0.9,3.5,2.8,3.5c1.2,0,2.3-0.9,2.5-2c0.1-0.2,0.1-0.5,0.1-0.7V1025.3z"/>
	<path class="st9" d="M458.7,1026.5c-0.1,1.7,1.1,3.1,2.7,3.3c0.2,0,0.3,0,0.5,0c0.9,0,1.8-0.1,2.6-0.5l0.3,1.2
		c-1,0.4-2.1,0.6-3.1,0.6c-2.4,0.2-4.5-1.7-4.6-4.1c0-0.2,0-0.4,0-0.7c0-2.8,1.7-5.1,4.4-5.1c3.1,0,3.9,2.7,3.9,4.4
		c0,0.3,0,0.5-0.1,0.8L458.7,1026.5z M463.7,1025.3c0-1.1-0.4-2.8-2.4-2.8c-1.5,0.1-2.6,1.3-2.6,2.8H463.7z"/>
	<path class="st9" d="M467.2,1029.2c0.7,0.4,1.5,0.7,2.3,0.7c1.2,0,1.8-0.6,1.8-1.4s-0.5-1.3-1.7-1.7c-1.7-0.6-2.5-1.5-2.5-2.7
		c0-1.5,1.2-2.8,3.2-2.8c0.8,0,1.6,0.2,2.3,0.6l-0.4,1.2c-0.6-0.4-1.2-0.5-1.9-0.5c-1,0-1.6,0.6-1.6,1.3c0,0.8,0.6,1.1,1.8,1.6
		c1.6,0.6,2.5,1.4,2.5,2.8c0,1.6-1.3,2.8-3.5,2.8c-0.9,0-1.8-0.2-2.6-0.6L467.2,1029.2z"/>
	<path class="st9" d="M492.9,1017.1v11.4c0,0.8,0,1.8,0.1,2.4h-1.5l-0.1-1.6l0,0c-0.6,1.2-1.9,1.9-3.2,1.8c-2.3,0-4-1.9-4-4.8
		c0-3.1,1.9-5,4.2-5c1.1-0.1,2.2,0.5,2.8,1.4l0,0v-5.6L492.9,1017.1L492.9,1017.1z M491.2,1025.3c0-0.2,0-0.5-0.1-0.7
		c-0.3-1.2-1.3-2-2.5-2c-1.8,0-2.8,1.6-2.8,3.6c0,1.9,0.9,3.5,2.8,3.5c1.2,0,2.3-0.9,2.5-2c0.1-0.2,0.1-0.5,0.1-0.7V1025.3z"/>
	<path class="st9" d="M496.7,1026.5c-0.1,1.7,1.1,3.1,2.7,3.3c0.2,0,0.3,0,0.5,0c0.9,0,1.8-0.1,2.6-0.5l0.3,1.2
		c-1,0.4-2.1,0.6-3.1,0.6c-2.4,0.2-4.5-1.7-4.6-4.1c0-0.2,0-0.4,0-0.7c0-2.8,1.7-5.1,4.4-5.1c3.1,0,3.9,2.7,3.9,4.4
		c0,0.3,0,0.5-0.1,0.8L496.7,1026.5z M501.7,1025.3c0-1.1-0.4-2.8-2.4-2.8c-1.5,0.1-2.6,1.3-2.6,2.8H501.7z"/>
	<path class="st9" d="M515.2,1017.1h1.7v13.8h-1.7V1017.1z"/>
	<path class="st9" d="M521,1017.6l-0.3,4.7h-1l-0.3-4.7H521z"/>
	<path class="st9" d="M530.3,1024.8h-5.1v4.7h5.7v1.4h-7.4v-13.1h7.1v1.4h-5.4v4.1h5.1V1024.8z"/>
	<path class="st9" d="M533,1024c0-1,0-1.8-0.1-2.5h1.5l0.1,1.6l0,0c0.6-1.1,1.8-1.8,3.1-1.8s3.3,0.8,3.3,4v5.6h-1.7v-5.4
		c0-1.5-0.6-2.8-2.2-2.8c-1.1,0-2,0.7-2.3,1.7c-0.1,0.3-0.1,0.5-0.1,0.8v5.6h-1.7L533,1024z"/>
	<path class="st9" d="M550.1,1029.4L550.1,1029.4c-0.7,1.1-1.9,1.7-3.1,1.7c-2.2,0-4-1.9-4-4.8c0-3.5,2.3-5.1,4.3-5.1
		c1.2-0.1,2.3,0.6,2.9,1.6l0,0l0.1-1.4h1.6c0,0.8-0.1,1.6-0.1,2.6v10.7h-1.7V1029.4z M550.1,1025.3c0-0.2,0-0.5-0.1-0.7
		c-0.3-1.1-1.3-1.9-2.4-1.9c-1.8,0-2.8,1.5-2.8,3.6c0,1.9,0.9,3.5,2.8,3.5c1.1,0,2.1-0.8,2.4-1.9c0.1-0.3,0.1-0.5,0.1-0.8V1025.3z"
		/>
	<path class="st9" d="M562.5,1028.3c0,1,0,1.8,0.1,2.6h-1.5l-0.1-1.5l0,0c-0.6,1.1-1.8,1.8-3.1,1.7c-1.5,0-3.2-0.8-3.2-4.1v-5.5h1.7
		v5.2c0,1.8,0.5,3,2.1,3c1,0,1.9-0.6,2.3-1.6c0.1-0.3,0.2-0.6,0.2-0.9v-5.8h1.7L562.5,1028.3z"/>
	<path class="st9" d="M566.3,1026.5c-0.1,1.7,1.1,3.1,2.7,3.3c0.2,0,0.3,0,0.5,0c0.9,0,1.8-0.1,2.6-0.5l0.3,1.2
		c-1,0.4-2.1,0.6-3.1,0.6c-2.4,0.2-4.5-1.7-4.6-4.1c0-0.2,0-0.4,0-0.7c0-2.8,1.7-5.1,4.4-5.1c3.1,0,3.9,2.7,3.9,4.4
		c0,0.3,0,0.5-0.1,0.8L566.3,1026.5z M571.3,1025.3c0-1.1-0.4-2.8-2.4-2.8c-1.5,0.1-2.6,1.3-2.6,2.8H571.3z"/>
	<path class="st9" d="M574.8,1029.2c0.7,0.4,1.5,0.7,2.3,0.7c1.2,0,1.8-0.6,1.8-1.4s-0.5-1.3-1.7-1.7c-1.7-0.6-2.5-1.5-2.5-2.7
		c0-1.5,1.2-2.8,3.2-2.8c0.8,0,1.6,0.2,2.3,0.6l-0.4,1.2c-0.6-0.4-1.2-0.5-1.9-0.5c-1,0-1.6,0.6-1.6,1.3c0,0.8,0.6,1.1,1.8,1.6
		c1.6,0.6,2.5,1.4,2.5,2.8c0,1.6-1.3,2.8-3.5,2.8c-0.9,0-1.8-0.2-2.6-0.6L574.8,1029.2z"/>
	<path class="st9" d="M584.8,1018.8v2.7h2.4v1.3h-2.4v5.1c0,1.2,0.3,1.8,1.3,1.8c0.3,0,0.7,0,1-0.1l0.1,1.3c-0.5,0.2-1,0.2-1.5,0.2
		c-0.7,0-1.4-0.2-1.8-0.7c-0.5-0.7-0.8-1.6-0.7-2.4v-5.1h-1.5v-1.3h1.5v-2.3L584.8,1018.8z"/>
	<path class="st9" d="M594.4,1030.9l-0.1-1.2h-0.1c-0.7,0.9-1.7,1.4-2.9,1.4c-1.5,0.1-2.8-1-2.9-2.5c0-0.1,0-0.1,0-0.2
		c0-2.3,2-3.5,5.6-3.5v-0.2c0.1-1.1-0.6-2-1.7-2.2c-0.2,0-0.3,0-0.5,0c-0.9,0-1.7,0.2-2.4,0.7l-0.4-1.1c0.9-0.6,2-0.8,3.1-0.8
		c2.9,0,3.6,2,3.6,3.8v3.5c0,0.8,0,1.5,0.2,2.3H594.4z M594.1,1026.1c-1.9,0-4,0.3-4,2.1c-0.1,0.8,0.6,1.6,1.4,1.6
		c0.1,0,0.2,0,0.2,0c1,0,1.9-0.6,2.3-1.6c0.1-0.2,0.1-0.4,0.1-0.5V1026.1z"/>
	<path class="st9" d="M616.4,1017.1v11.4c0,0.8,0,1.8,0.1,2.4H615l-0.1-1.6l0,0c-0.6,1.2-1.9,1.9-3.2,1.8c-2.3,0-4-1.9-4-4.8
		c0-3.1,1.9-5,4.2-5c1.1-0.1,2.2,0.5,2.8,1.4l0,0v-5.6L616.4,1017.1L616.4,1017.1z M614.6,1025.3c0-0.2,0-0.5-0.1-0.7
		c-0.3-1.2-1.3-2-2.5-2c-1.8,0-2.8,1.6-2.8,3.6c0,1.9,0.9,3.5,2.8,3.5c1.2,0,2.3-0.9,2.5-2c0.1-0.2,0.1-0.5,0.1-0.7V1025.3z"/>
	<path class="st9" d="M620.5,1017.6l-0.3,4.7h-1l-0.3-4.7H620.5z"/>
	<path class="st9" d="M631.2,1026.1c0.2,2.5-1.7,4.8-4.2,5c-0.2,0-0.3,0-0.5,0c-2.5,0-4.5-1.9-4.5-4.8c0-3.1,2.1-5,4.7-5
		C629.4,1021.3,631.2,1023.3,631.2,1026.1z M623.7,1026.2c0,2.1,1.2,3.6,2.9,3.6c1.6,0,2.9-1.5,2.9-3.6c0-1.6-0.8-3.6-2.8-3.6
		S623.7,1024.4,623.7,1026.2L623.7,1026.2z"/>
	<path class="st9" d="M640,1030.5c-0.8,0.4-1.8,0.6-2.7,0.5c-2.5,0.1-4.6-1.8-4.7-4.2c0-0.2,0-0.4,0-0.6c-0.1-2.6,1.9-4.9,4.5-5
		c0.2,0,0.3,0,0.5,0c0.8,0,1.6,0.2,2.4,0.5l-0.4,1.3c-0.6-0.3-1.3-0.5-2-0.4c-2,0.1-3.4,1.8-3.3,3.8c0.1,1.8,1.5,3.2,3.3,3.3
		c0.7,0,1.4-0.2,2.1-0.5L640,1030.5z"/>
	<path class="st9" d="M649.9,1028.3c0,1,0,1.8,0.1,2.6h-1.5l-0.1-1.5l0,0c-0.6,1.1-1.8,1.8-3.1,1.7c-1.5,0-3.2-0.8-3.2-4.1v-5.5h1.7
		v5.2c0,1.8,0.5,3,2.1,3c1,0,1.9-0.6,2.3-1.6c0.1-0.3,0.2-0.6,0.2-0.9v-5.8h1.7L649.9,1028.3z"/>
	<path class="st9" d="M652.7,1024.6c0-1.2,0-2.2-0.1-3.1h1.5l0.1,1.6l0,0c0.7-1.2,2-1.9,3.3-1.8c2.3,0,4,1.9,4,4.8
		c0,3.4-2.1,5-4.3,5c-1.2,0.1-2.3-0.5-2.9-1.5l0,0v5.1h-1.7L652.7,1024.6z M654.4,1027.1c0,0.2,0,0.5,0.1,0.7c0.3,1.2,1.3,2,2.6,2
		c1.8,0,2.9-1.5,2.9-3.6c0-1.9-1-3.5-2.8-3.5c-1.2,0-2.3,0.9-2.6,2.1c-0.1,0.2-0.1,0.5-0.1,0.7v1.6H654.4z"/>
	<path class="st9" d="M669,1030.9l-0.1-1.2h-0.1c-0.7,0.9-1.7,1.4-2.9,1.4c-1.5,0.1-2.8-1-2.9-2.5c0-0.1,0-0.1,0-0.2
		c0-2.3,2-3.5,5.6-3.5v-0.2c0.1-1.1-0.6-2-1.7-2.2c-0.2,0-0.3,0-0.5,0c-0.9,0-1.7,0.2-2.4,0.7l-0.4-1.1c0.9-0.6,2-0.8,3.1-0.8
		c2.9,0,3.6,2,3.6,3.8v3.5c0,0.8,0,1.5,0.2,2.3H669z M668.7,1026.1c-1.9,0-4,0.3-4,2.1c-0.1,0.8,0.6,1.6,1.4,1.6c0.1,0,0.2,0,0.2,0
		c1,0,1.9-0.6,2.3-1.6c0.1-0.2,0.1-0.4,0.1-0.5V1026.1z"/>
	<path class="st9" d="M679.8,1030.5c-0.8,0.4-1.8,0.6-2.7,0.5c-2.5,0.1-4.6-1.8-4.7-4.2c0-0.2,0-0.4,0-0.6c-0.1-2.6,1.9-4.9,4.5-5
		c0.2,0,0.3,0,0.5,0c0.8,0,1.6,0.2,2.4,0.5l-0.4,1.3c-0.6-0.3-1.3-0.5-2-0.4c-2,0.1-3.4,1.8-3.3,3.8c0.1,1.8,1.5,3.2,3.3,3.3
		c0.7,0,1.4-0.2,2.1-0.5L679.8,1030.5z"/>
	<path class="st9" d="M683.7,1018.9c0,0.6-0.5,1.1-1.1,1.1s-1.1-0.5-1.1-1.1l0,0c0-0.6,0.4-1.1,1-1.1c0,0,0,0,0.1,0
		C683.2,1017.8,683.7,1018.2,683.7,1018.9C683.7,1018.8,683.7,1018.8,683.7,1018.9z M681.8,1030.9v-9.4h1.7v9.4H681.8z"/>
	<path class="st9" d="M694.9,1026.1c0.2,2.5-1.6,4.8-4.2,5c-0.2,0-0.3,0-0.5,0c-2.5,0-4.5-1.9-4.5-4.8c0-3.1,2.1-5,4.7-5
		S694.9,1023.3,694.9,1026.1z M687.4,1026.2c0,2.1,1.2,3.6,2.9,3.6c1.6,0,2.9-1.5,2.9-3.6c0-1.6-0.8-3.6-2.8-3.6
		C688.3,1022.6,687.4,1024.4,687.4,1026.2L687.4,1026.2z M692.8,1017.4l-2.4,2.8h-1.2l1.7-2.8H692.8z"/>
	<path class="st9" d="M707.7,1026.5c-0.1,1.7,1.1,3.1,2.7,3.3c0.2,0,0.3,0,0.5,0c0.9,0,1.8-0.1,2.6-0.5l0.3,1.2
		c-1,0.4-2.1,0.6-3.1,0.6c-2.4,0.2-4.5-1.7-4.6-4.1c0-0.2,0-0.4,0-0.7c0-2.8,1.7-5.1,4.4-5.1c3.1,0,3.9,2.7,3.9,4.4
		c0,0.3,0,0.5-0.1,0.8L707.7,1026.5z M712.7,1025.3c0-1.1-0.4-2.8-2.4-2.8c-1.5,0.1-2.6,1.3-2.6,2.8H712.7z"/>
	<path class="st9" d="M716.4,1024c0-1,0-1.8-0.1-2.5h1.5l0.1,1.6l0,0c0.6-1.1,1.8-1.8,3.1-1.8s3.3,0.8,3.3,4v5.6h-1.7v-5.4
		c0-1.5-0.6-2.8-2.2-2.8c-1.1,0-2,0.7-2.3,1.7c-0.1,0.3-0.1,0.5-0.1,0.8v5.6h-1.7L716.4,1024z"/>
	<path class="st9" d="M742.1,1030.9l-0.1-1.2h-0.1c-0.7,0.9-1.7,1.4-2.9,1.4c-1.5,0.1-2.8-1-2.9-2.5c0-0.1,0-0.2,0-0.2
		c0-2.3,2-3.5,5.6-3.5v-0.2c0.1-1.1-0.6-2-1.7-2.2c-0.2,0-0.3,0-0.5,0c-0.9,0-1.7,0.2-2.4,0.7l-0.4-1.1c0.9-0.6,2-0.8,3.1-0.8
		c2.9,0,3.6,2,3.6,3.8v3.5c0,0.8,0,1.5,0.2,2.3H742.1z M741.9,1026.1c-1.9,0-4,0.3-4,2.1c-0.1,0.8,0.6,1.6,1.4,1.6
		c0.1,0,0.2,0,0.2,0c1,0,1.9-0.6,2.3-1.6c0.1-0.2,0.1-0.4,0.1-0.5V1026.1z"/>
	<path class="st9" d="M746.3,1017.1h1.7v13.8h-1.7V1017.1z"/>
	<path class="st9" d="M750.8,1017.1h1.7v13.8h-1.7V1017.1z"/>
	<path class="st9" d="M763.9,1026.1c0.2,2.5-1.6,4.8-4.2,5c-0.2,0-0.3,0-0.5,0c-2.5,0-4.5-1.9-4.5-4.8c0-3.1,2.1-5,4.7-5
		C762.1,1021.3,763.9,1023.3,763.9,1026.1z M756.5,1026.2c0,2.1,1.2,3.6,2.9,3.6c1.6,0,2.9-1.5,2.9-3.6c0-1.6-0.8-3.6-2.8-3.6
		C757.3,1022.6,756.5,1024.4,756.5,1026.2L756.5,1026.2z"/>
	<path class="st9" d="M768.1,1018.8v2.7h2.4v1.3h-2.4v5.1c0,1.2,0.3,1.8,1.3,1.8c0.3,0,0.7,0,1-0.1l0.1,1.3c-0.5,0.2-1,0.2-1.5,0.2
		c-0.7,0-1.4-0.2-1.8-0.7c-0.5-0.7-0.8-1.6-0.7-2.4v-5.1H765v-1.3h1.5v-2.3L768.1,1018.8z"/>
	<path class="st9" d="M770.2,1033.6c0.7,0,1.4-0.3,1.9-0.7c0.5-0.5,0.6-1.3,0.6-3.5v-7.9h1.7v8.5c0,1.8-0.3,3-1.1,3.9
		c-0.8,0.7-1.8,1.1-2.9,1.1L770.2,1033.6z M774.6,1018.9c0,0.6-0.4,1-1,1h-0.1c-0.6,0-1-0.4-1-1c0,0,0,0,0-0.1c0-0.6,0.4-1.1,1-1.1
		c0,0,0,0,0.1,0C774.1,1017.8,774.6,1018.2,774.6,1018.9C774.6,1018.8,774.6,1018.8,774.6,1018.9L774.6,1018.9z"/>
	<path class="st9" d="M782.4,1030.9l-0.1-1.2h-0.1c-0.7,0.9-1.7,1.4-2.9,1.4c-1.5,0.1-2.8-1-2.9-2.5c0-0.1,0-0.2,0-0.2
		c0-2.3,2-3.5,5.6-3.5v-0.2c0.1-1.1-0.6-2-1.7-2.2c-0.2,0-0.3,0-0.5,0c-0.9,0-1.7,0.2-2.4,0.7l-0.4-1.1c0.9-0.6,2-0.8,3.1-0.8
		c2.9,0,3.6,2,3.6,3.8v3.5c0,0.8,0,1.5,0.2,2.3H782.4z M782.2,1026.1c-1.9,0-4,0.3-4,2.1c-0.1,0.8,0.6,1.6,1.4,1.6
		c0.1,0,0.2,0,0.2,0c1,0,1.9-0.6,2.3-1.6c0.1-0.2,0.1-0.4,0.1-0.5V1026.1z"/>
	<path class="st9" d="M786.6,1024c0-1,0-1.8-0.1-2.5h1.5l0.1,1.5h0.1c0.6-1.1,1.7-1.8,3-1.7c1.2,0,2.3,0.7,2.7,1.9l0,0
		c0.3-0.5,0.6-0.9,1-1.2c0.6-0.5,1.3-0.7,2.1-0.7c1.2,0,3.1,0.8,3.1,4.1v5.5h-1.7v-5.3c0-1.8-0.7-2.9-2-2.9c-0.9,0-1.7,0.7-2,1.6
		c-0.1,0.3-0.1,0.6-0.1,0.9v5.8h-1.7v-5.6c0-1.5-0.7-2.6-2-2.6c-1,0.1-1.8,0.7-2.1,1.7c-0.1,0.3-0.1,0.6-0.1,0.8v5.7h-1.7
		L786.6,1024z"/>
	<path class="st9" d="M803.7,1026.5c-0.1,1.7,1.1,3.1,2.7,3.3c0.2,0,0.3,0,0.5,0c0.9,0,1.8-0.1,2.6-0.5l0.3,1.2
		c-1,0.4-2.1,0.6-3.1,0.6c-2.4,0.2-4.5-1.7-4.6-4.1c0-0.2,0-0.4,0-0.7c0-2.8,1.7-5.1,4.4-5.1c3.1,0,3.9,2.7,3.9,4.4
		c0,0.3,0,0.5-0.1,0.8L803.7,1026.5z M808.7,1025.3c0-1.1-0.4-2.8-2.4-2.8c-1.5,0.1-2.6,1.3-2.6,2.8H808.7z"/>
	<path class="st9" d="M812.5,1024c0-1,0-1.8-0.1-2.5h1.5l0.1,1.6l0,0c0.6-1.1,1.8-1.8,3.1-1.8s3.3,0.8,3.3,4v5.6h-1.7v-5.4
		c0-1.5-0.6-2.8-2.2-2.8c-1.1,0-2,0.7-2.3,1.7c-0.1,0.3-0.1,0.5-0.1,0.8v5.6h-1.7L812.5,1024z"/>
	<path class="st9" d="M825.2,1018.8v2.7h2.4v1.3h-2.4v5.1c0,1.2,0.3,1.8,1.3,1.8c0.3,0,0.7,0,1-0.1l0.1,1.3c-0.5,0.2-1,0.2-1.5,0.2
		c-0.7,0-1.4-0.2-1.8-0.7c-0.5-0.7-0.8-1.6-0.7-2.4v-5.1h-1.5v-1.3h1.5v-2.3L825.2,1018.8z"/>
	<path class="st9" d="M829.3,1029.2c0.7,0.4,1.5,0.7,2.3,0.7c1.2,0,1.8-0.6,1.8-1.4s-0.5-1.3-1.7-1.7c-1.7-0.6-2.5-1.5-2.5-2.7
		c0-1.5,1.2-2.8,3.2-2.8c0.8,0,1.6,0.2,2.3,0.6l-0.4,1.2c-0.6-0.4-1.2-0.5-1.9-0.5c-1,0-1.6,0.6-1.6,1.3c0,0.8,0.6,1.1,1.8,1.6
		c1.6,0.6,2.5,1.4,2.5,2.8c0,1.6-1.3,2.8-3.5,2.8c-0.9,0-1.8-0.2-2.6-0.6L829.3,1029.2z"/>
	<path class="st9" d="M855.1,1017.1v11.4c0,0.8,0,1.8,0.1,2.4h-1.5l-0.1-1.6l0,0c-0.6,1.2-1.9,1.9-3.2,1.8c-2.3,0-4-1.9-4-4.8
		c0-3.1,1.9-5,4.2-5c1.1-0.1,2.2,0.5,2.8,1.4l0,0v-5.6L855.1,1017.1L855.1,1017.1z M853.4,1025.3c0-0.2,0-0.5-0.1-0.7
		c-0.3-1.2-1.3-2-2.5-2c-1.8,0-2.8,1.6-2.8,3.6c0,1.9,0.9,3.5,2.8,3.5c1.2,0,2.3-0.9,2.5-2c0.1-0.2,0.1-0.5,0.1-0.7V1025.3z"/>
	<path class="st9" d="M858.9,1026.5c-0.1,1.7,1.1,3.1,2.7,3.3c0.2,0,0.3,0,0.5,0c0.9,0,1.8-0.1,2.6-0.5l0.3,1.2
		c-1,0.4-2.1,0.6-3.1,0.6c-2.4,0.2-4.5-1.7-4.6-4.1c0-0.2,0-0.4,0-0.7c0-2.8,1.7-5.1,4.4-5.1c3.1,0,3.9,2.7,3.9,4.4
		c0,0.3,0,0.5-0.1,0.8L858.9,1026.5z M863.9,1025.3c0-1.1-0.4-2.8-2.4-2.8c-1.5,0.1-2.6,1.3-2.6,2.8H863.9z"/>
	<path class="st9" d="M877.3,1017.1h1.7v13.8h-1.7V1017.1z"/>
	<path class="st9" d="M883.2,1017.6l-0.3,4.7h-1l-0.3-4.7H883.2z"/>
	<path class="st9" d="M887.3,1017.8v13.1h-1.7v-13.1H887.3z"/>
	<path class="st9" d="M890.3,1030.9v-13.1h1.8l4.2,6.6c0.9,1.4,1.7,2.8,2.3,4.3l0,0c-0.2-1.7-0.2-3.3-0.2-5.4v-5.5h1.6v13.1h-1.7
		l-4.2-6.6c-0.9-1.4-1.7-2.9-2.4-4.4h-0.1c0.1,1.6,0.1,3.2,0.1,5.4v5.6L890.3,1030.9z"/>
	<path class="st9" d="M909.8,1024.8h-5.1v4.7h5.7v1.4H903v-13.1h7.1v1.4h-5.4v4.1h5.1L909.8,1024.8L909.8,1024.8z"/>
	<path class="st9" d="M912.8,1029.4c0.4-0.4,1.1-0.4,1.5,0c0.2,0.2,0.3,0.5,0.3,0.7c0,0.3-0.1,0.6-0.3,0.8c-0.4,0.4-1,0.4-1.4,0l0,0
		c-0.2-0.2-0.3-0.5-0.3-0.7C912.5,1029.8,912.6,1029.6,912.8,1029.4z"/>
</g>
<text transform="matrix(1 0 0 1 559.8112 616.8639)" class="st10 st11 st12">Estrangers</text>
<text transform="matrix(1 0 0 1 559.8112 653.15)" class="st10 st11 st12">Domèstics</text>
<path class="st13" d="M698.1,634.6h32.3c5.8,0,10.4,4.7,10.4,10.4l0,0c0,5.8-4.7,10.4-10.4,10.4h-32.3c-5.8,0-10.4-4.7-10.4-10.4
	l0,0C687.6,639.3,692.3,634.6,698.1,634.6z"/>
<path class="st10" d="M698.1,600.8h32.3c5.8,0,10.4,4.7,10.4,10.4l0,0c0,5.8-4.7,10.4-10.4,10.4h-32.3c-5.8,0-10.4-4.7-10.4-10.4
	l0,0C687.6,605.5,692.3,600.8,698.1,600.8z"/>
<rect x="85.8" y="358.4" class="st14" width="1154" height="110"/>
<text transform="matrix(1 0 0 1 93.9248 401.392)" class="st2 st15 st16">+79,0%</text>
<text transform="matrix(1 0 0 1 102.6208 473.2187)" class="st2 st15 st17">Viatgers</text>
<text transform="matrix(1 0 0 1 88.892 509.9863)" class="st2 st15 st16">366.722</text>
<text transform="matrix(1 0 0 1 587.1868 401.3917)" class="st2 st15 st16">+68,2%</text>
<text transform="matrix(1 0 0 1 561.3637 473.2187)" class="st2 st15 st18">Pernoctacions</text>
<text transform="matrix(1 0 0 1 567.3539 509.9861)" class="st2 st15 st16">1.062.630</text>
<text transform="matrix(1 0 0 1 1079.2155 401.3998)" class="st2 st15 st16">+13,9%</text>
<text transform="matrix(1 0 0 1 939.7573 475.07)" class="st2 st15 st18">Establiments allotjaments oberts</text>
<text transform="matrix(1 0 0 1 1094.1599 511.7173)" class="st2 st15 st16">1.057</text>
<text transform="matrix(1 0 0 1 86.063 429.3853)" class="st2 st19 st12">-54,7% (2019)</text>
<text transform="matrix(1 0 0 1 579.325 429.3855)" class="st2 st19 st12">-53,1% (2019)</text>
<text transform="matrix(1 0 0 1 1071.3528 429.3851)" class="st2 st19 st12">-15,0% (2019)</text>
<rect x="68.3" y="58.3" class="st14" width="212.5" height="115.8"/>
<image style="overflow:visible;enable-background:new    ;" width="176" height="236" xlink:href="305CA650.png"  transform="matrix(-1.2834 0 0 -1.2834 747.3544 375.8305)">
</image>
<rect x="552" y="58.3" class="st14" width="212.5" height="115.8"/>
<text transform="matrix(1 0 0 1 510.5226 111.9305)" class="st2 st15 st20">Síntesi</text>
<image style="overflow:visible;enable-background:new    ;" width="176" height="236" xlink:href="305CA650.png"  transform="matrix(-1.2834 0 0 -1.2834 1251.8661 380.1505)">
</image>
<rect x="1048.9" y="58.3" class="st14" width="212.5" height="115.8"/>
<g transform="translate(10,45.7)">
	<path id="point-0-0" class="st13" d="M325.5,588.1c93.3,0,169,75.7,169,169s-75.7,169-169,169c-76,0-142.6-50.7-162.9-123.9
		l105.9-29.3c8.7,31.5,41.3,49.9,72.8,41.2s49.9-41.3,41.2-72.8c-7.1-25.6-30.4-43.4-57-43.4V588.1z"/>
	<g transform="translate(172.03062438964844, 118.0744857788086)" pointer-events="none">
		<g>
			<text transform="matrix(1 0 0 1 198.5487 718.4606)" class="st14 st21 st22">70,7%</text>
		</g>
	</g>
	<path id="point-0-1" class="st2" d="M162.6,802.2c-24.9-90,27.8-183.1,117.8-208c14.7-4.1,29.9-6.1,45.1-6.1v109.9
		c-32.7,0-59.2,26.5-59.2,59.2c0,5.3,0.7,10.6,2.1,15.8L162.6,802.2z"/>
	<g transform="translate(81.96937854930815,49.56551424974399)" pointer-events="none">
		<g>
			<text transform="matrix(1 0 0 1 118.2305 638.4684)" class="st14 st21 st22">29,3%</text>
		</g>
	</g>
</g>
<g transform="translate(488, 45.70000076293945)">
	<path id="point-1-0" class="st13" d="M551.8,588.1c93.3,0,169,75.7,169,169s-75.7,169-169,169c-59.4,0-114.4-31.2-144.9-82.1
		l94.2-56.5c16.8,28,53.1,37.1,81.2,20.3c28-16.8,37.1-53.1,20.3-81.2c-10.7-17.8-29.9-28.7-50.7-28.7V588.1z"/>
	<g transform="translate(176.2336883544922, 111.6977767944336)" pointer-events="none">
		<g>
			<text transform="matrix(1 0 0 1 429.0622 724.8373)" class="st14 st21 st23">66,4%</text>
		</g>
	</g>
	<path id="point-1-1" class="st2" d="M406.8,844c-48-80-22.1-183.9,58-231.9c26.3-15.8,56.3-24.1,86.9-24.1v109.9
		c-32.7,0-59.2,26.5-59.2,59.2c0,10.7,2.9,21.2,8.4,30.4L406.8,844z"/>
	<g transform="translate(77.76630843643025,55.942226106209944)" pointer-events="none">
		<g>
			<text transform="matrix(1 0 0 1 353.1825 632.0917)" class="st14 st21 st23">33,6%</text>
		</g>
	</g>
</g>
</svg>
