<?xml version="1.0" encoding="utf-8"?>
<!-- Generator: Adobe Illustrator 24.0.1, SVG Export Plug-In . SVG Version: 6.00 Build 0)  -->
<svg version="1.1" id="Capa_1" xmlns="http://www.w3.org/2000/svg" xmlns:xlink="http://www.w3.org/1999/xlink" x="0px" y="0px"
	 viewBox="0 0 702.5 755.8" style="enable-background:new 0 0 702.5 755.8;" xml:space="preserve">
<style type="text/css">
	.st0{fill:none;stroke:#EFEEEE;stroke-dasharray:0;}
	.st1{fill:#1C3761;}
	.st2{font-family:'SourceSansPro-Regular';}
	.st3{font-size:9.62px;}
	.st4{fill:none;stroke:#1C3761;stroke-dasharray:0;}
	.st5{fill:none;stroke:#1C3761;stroke-dasharray:1,1;}
	.st6{font-family:'ArialMT';}
	.st7{font-size:8.24px;}
	.st8{fill:none;stroke:#79C8D1;stroke-width:3.8655;}
	.st9{font-family:'OpenSans-Bold';}
	.st10{font-size:19.23px;}
	.st11{fill:#79C8D1;}
	.st12{font-size:11.68px;}
	.st13{fill:#003366;}
	.st14{fill:none;stroke:#79C8D1;stroke-width:4.56;}
	.st15{font-family:'OpenSans-SemiBold';}
	.st16{font-size:13.74px;}
	.st17{fill:#878787;}
	.st18{font-size:10.3px;}
	.st19{fill:#1D1D1B;}
	.st20{fill:none;stroke:#1C3761;stroke-width:3.8655;}
</style>
<g id="facets">
	<line class="st0" x1="84" y1="608.1" x2="648" y2="608.1"/>
	<text transform="matrix(1 0 0 1 61.7674 611.2121)" class="st1 st2 st3">0%</text>
	<line class="st0" x1="84" y1="515" x2="648" y2="515"/>
	<text transform="matrix(1 0 0 1 56.9974 518.1621)" class="st1 st2 st3">20%</text>
	<line class="st0" x1="84" y1="421.9" x2="648" y2="421.9"/>
	<text transform="matrix(1 0 0 1 56.9974 425.1121)" class="st1 st2 st3">40%</text>
	<line class="st0" x1="84" y1="328.9" x2="648" y2="328.9"/>
	<text transform="matrix(1 0 0 1 56.9974 332.0521)" class="st1 st2 st3">60%</text>
	<line class="st0" x1="84" y1="235.8" x2="648" y2="235.8"/>
	<text transform="matrix(1 0 0 1 56.9974 239.0021)" class="st1 st2 st3">80%</text>
	<path class="st4" d="M84.4,608.1h563.9"/>
	<line class="st4" x1="84.4" y1="607.7" x2="84.4" y2="611.8"/>
	<line class="st4" x1="135.6" y1="607.7" x2="135.6" y2="611.8"/>
	<line class="st4" x1="186.9" y1="607.7" x2="186.9" y2="611.8"/>
	<line class="st4" x1="238.2" y1="607.7" x2="238.2" y2="611.8"/>
	<line class="st4" x1="289.4" y1="607.7" x2="289.4" y2="611.8"/>
	<line class="st4" x1="340.7" y1="607.7" x2="340.7" y2="611.8"/>
	<line class="st4" x1="392" y1="607.7" x2="392" y2="611.8"/>
	<line class="st4" x1="443.3" y1="607.7" x2="443.3" y2="611.8"/>
	<line class="st4" x1="494.5" y1="607.7" x2="494.5" y2="611.8"/>
	<line class="st4" x1="545.8" y1="607.7" x2="545.8" y2="611.8"/>
	<line class="st4" x1="597.1" y1="607.7" x2="597.1" y2="611.8"/>
	<line class="st4" x1="648.3" y1="607.7" x2="648.3" y2="611.8"/>
	<line class="st0" x1="84.9" y1="145.4" x2="648.9" y2="145.4"/>
	<text transform="matrix(1 0 0 1 53.5761 148.5556)" class="st1 st2 st3">100%</text>
</g>
<line class="st5" x1="84" y1="426.6" x2="648" y2="426.6"/>
<text transform="matrix(1 0 0 1 85.7904 420.407)" class="st1 st6 st7">Mitjana 2020: 39,7%</text>
<g id="lines">
	<path class="st8" d="M82.6,479.1c17.6-22,35.1-44,52.7-44"/>
</g>
<g>
	<text transform="matrix(1 0 0 1 300.7515 51.485)" class="st1 st9 st10">Càmpings</text>
</g>
<g>
	<path class="st1" d="M302.8,93.7H314c1.1,0,2,0.9,2,2v4c0,1.1-0.9,2-2,2h-11.2c-1.1,0-2-0.9-2-2v-4
		C300.8,94.6,301.7,93.7,302.8,93.7z"/>
	<path class="st11" d="M358.5,93.7h11.2c1.1,0,2,0.9,2,2v4c0,1.1-0.9,2-2,2h-11.2c-1.1,0-2-0.9-2-2v-4
		C356.5,94.6,357.4,93.7,358.5,93.7z"/>
</g>
<text transform="matrix(1 0 0 1 75.4374 626.4321)" class="st1 st2 st3">Gen.</text>
<text transform="matrix(1 0 0 1 127.3774 626.4321)" class="st1 st2 st3">F</text>
<text transform="matrix(1 0 0 1 131.9974 626.4321)" class="st1 st2 st3">e</text>
<text transform="matrix(1 0 0 1 136.7674 626.4321)" class="st1 st2 st3">b</text>
<text transform="matrix(1 0 0 1 141.9874 626.4321)" class="st1 st2 st3">.</text>
<text transform="matrix(1 0 0 1 177.2974 626.4321)" class="st1 st2 st3">Ma</text>
<text transform="matrix(1 0 0 1 189.1374 626.4321)" class="st1 st2 st3">r</text>
<text transform="matrix(1 0 0 1 191.9274 626.4321)" class="st1 st2 st3">.</text>
<text transform="matrix(1 0 0 1 192.9874 626.4321)" class="st1 st2 st3">*</text>
<text transform="matrix(1 0 0 1 230.5574 626.4321)" class="st1 st2 st3">Ab</text>
<text transform="matrix(1 0 0 1 241.1074 626.4321)" class="st1 st2 st3">r</text>
<text transform="matrix(1 0 0 1 243.8974 626.4321)" class="st1 st2 st3">.</text>
<text transform="matrix(1 0 0 1 280.0474 626.4321)" class="st1 st2 st3">Mai</text>
<text transform="matrix(1 0 0 1 294.2474 626.4321)" class="st1 st2 st3">.</text>
<text transform="matrix(1 0 0 1 295.3174 626.4321)" class="st1 st2 st3">*</text>
<text transform="matrix(1 0 0 1 332.2074 626.4321)" class="st1 st2 st3">Jun.</text>
<text transform="matrix(1 0 0 1 384.8773 626.4321)" class="st1 st2 st3">Jul.</text>
<text transform="matrix(1 0 0 1 434.7674 626.4321)" class="st1 st2 st3">A</text>
<text transform="matrix(1 0 0 1 439.9974 626.4321)" class="st1 st2 st3">g</text>
<text transform="matrix(1 0 0 1 444.7074 626.4321)" class="st1 st2 st3">o</text>
<text transform="matrix(1 0 0 1 449.8274 626.4321)" class="st1 st2 st3">.</text>
<text transform="matrix(1 0 0 1 487.0074 626.4321)" class="st1 st2 st3">S</text>
<text transform="matrix(1 0 0 1 492.1474 626.4321)" class="st1 st2 st3">e</text>
<text transform="matrix(1 0 0 1 496.8174 626.4321)" class="st1 st2 st3">t</text>
<text transform="matrix(1 0 0 1 500.1374 626.4321)" class="st1 st2 st3">.</text>
<text transform="matrix(1 0 0 1 537.8373 626.4321)" class="st1 st2 st3">O</text>
<text transform="matrix(1 0 0 1 544.2274 626.4321)" class="st1 st2 st3">c</text>
<text transform="matrix(1 0 0 1 548.5074 626.4321)" class="st1 st2 st3">t</text>
<text transform="matrix(1 0 0 1 551.8274 626.4321)" class="st1 st2 st3">.</text>
<text transform="matrix(1 0 0 1 588.3274 626.4321)" class="st1 st2 st3">N</text>
<text transform="matrix(1 0 0 1 594.5475 626.4321)" class="st1 st2 st3">o</text>
<text transform="matrix(1 0 0 1 599.7274 626.4321)" class="st1 st2 st3">v</text>
<text transform="matrix(1 0 0 1 603.8774 626.4321)" class="st1 st2 st3">.</text>
<text transform="matrix(1 0 0 1 640.0176 626.4321)" class="st1 st2 st3">Des.</text>
<path id="point-0-5-2" class="st1" d="M83.5,623.3c0-0.4,0.3-0.7,0.7-0.7c0.4,0,0.7,0.3,0.7,0.7s-0.3,0.7-0.7,0.7
	S83.5,623.7,83.5,623.3C83.5,623.4,83.5,623.4,83.5,623.3L83.5,623.3z"/>
<path id="point-0-6-2" class="st11" d="M78.5,478.4c0-2.3,1.8-4.1,4.1-4.1c2.3,0,4.1,1.8,4.1,4.1c0,2.3-1.8,4.1-4.1,4.1
	S78.5,480.7,78.5,478.4z"/>
<path id="point-0-6-5" class="st11" d="M132.9,435.1c0-1.7,1.4-3.1,3.1-3.1c1.7,0,3.1,1.4,3.1,3.1s-1.4,3.1-3.1,3.1l0,0
	C134.3,438.2,132.9,436.8,132.9,435.1z"/>
<path id="point-0-6-6" class="st11" d="M337.1,411.4c0-1.7,1.4-3.1,3.1-3.1s3.1,1.4,3.1,3.1s-1.4,3.1-3.1,3.1l0,0
	C338.5,414.5,337.1,413.1,337.1,411.4z"/>
<path id="point-0-6-6-2" class="st11" d="M387.8,395.6c0-1.7,1.4-3.1,3.1-3.1s3.1,1.4,3.1,3.1s-1.4,3.1-3.1,3.1l0,0
	C389.2,398.7,387.8,397.3,387.8,395.6z"/>
<path id="point-0-6-6-3" class="st11" d="M435,392.3c0-1.7,1.4-3.1,3.1-3.1s3.1,1.4,3.1,3.1s-1.4,3.1-3.1,3.1l0,0
	C436.4,395.4,435,394,435,392.3z"/>
<path id="point-0-6-6-4" class="st11" d="M487.1,431.3c0-1.7,1.4-3.1,3.1-3.1s3.1,1.4,3.1,3.1s-1.4,3.1-3.1,3.1l0,0
	C488.5,434.3,487.1,433,487.1,431.3z"/>
<text transform="matrix(1 0 0 1 78.524 495.8987)" class="st1 st2 st12">27,0</text>
<text transform="matrix(1 0 0 1 131.9973 451.5222)" class="st1 st2 st12">37,8</text>
<text transform="matrix(1 0 0 1 322.0884 423.9194)" class="st1 st2 st12">42,2</text>
<text transform="matrix(1 0 0 1 387.4774 409.242)" class="st1 st2 st12">45,5</text>
<text transform="matrix(1 0 0 1 485.3474 448.6321)" class="st1 st2 st12">37,9</text>
<text transform="matrix(1 0 0 1 535.5674 438.1621)" class="st1 st2 st12">40,3</text>
<text transform="matrix(1 0 0 1 603.8777 452.1623)" class="st1 st2 st12">  </text>
<text transform="matrix(1 0 0 1 640.0172 506.098)" class="st1 st2 st12">26,3</text>
<path id="point-0-6-15" class="st11" d="M234.7,607.6c0-2.3,1.8-4.1,4.1-4.1s4.1,1.8,4.1,4.1s-1.8,4.1-4.1,4.1l0,0l0,0
	C236.5,611.7,234.7,609.9,234.7,607.6z"/>
<text transform="matrix(1 0 0 1 231.4074 596.7621)" class="st1 st2 st12">0,0</text>
<path id="point-0-6" class="st13" d="M386.1,395.1c0-0.4,0.3-0.7,0.7-0.7l0,0l0,0c0.4,0,0.7,0.3,0.7,0.7s-0.3,0.7-0.7,0.7
	S386.1,395.4,386.1,395.1z"/>
<path id="point-0-7-2" class="st11" d="M638.8,486.4c0-2.3,1.8-4.2,4.2-4.2c2.3,0,4.2,1.8,4.2,4.1c0,2.3-1.8,4.2-4.1,4.2l0,0
	C640.7,490.6,638.9,488.7,638.8,486.4L638.8,486.4L638.8,486.4L638.8,486.4z"/>
<path class="st14" d="M644.1,485.8c-23.7-3-38-11.5-46.5-18.5c-21.2-17.5-31.7-46.1-50.1-45.4c-0.2,0-1.9,0.3-5.3,0.7
	c-6.8,0.9-17,2.4-29.4,4.6c-21.2,3.7-20.1,4.3-23.3,4.1c-5.2-0.3-35.4-31-51.2-39c-8.9-4.5-23.2-6.7-46.6,3.1v0.6
	c-17.1,2.6-34.2,5.2-51.3,15.4"/>
<path id="point-0-6-6-4_1_" class="st11" d="M541.1,421.9c0-1.7,1.4-3.1,3.1-3.1s3.1,1.4,3.1,3.1s-1.4,3.1-3.1,3.1l0,0
	C542.5,425,541.1,423.6,541.1,421.9z"/>
<text transform="matrix(1 0 0 1 568.7778 479.0821)" class="st1 st2 st12">30,0</text>
<text transform="matrix(1 0 0 1 227.2104 75.3535)" class="st1 st15 st16">Ocupació en percentatge per parcel·les.</text>
<g>
	<text transform="matrix(1 0 0 1 42.4946 723.8724)" class="st17 st15 st18">Font: Elaboració pròpia del LABturisme en base a dades de l&apos;Enquesta d&apos;ocupació en allotjaments de l&apos;INE.        </text>
</g>
<text transform="matrix(1 0 0 1 42.7346 689.7224)" class="st17 st15 st18">* Les dades dels mesos de març i maig de 2020 no estan disponibles, degut al tancament d’establiments per la gestió de la crisi</text>
<text transform="matrix(1 0 0 1 42.7346 702.0824)" class="st17 st15 st18">sanitària ocasionada per la Covid-19.</text>
<path id="point-0-6-6-4_2_" class="st11" d="M591.4,464.2c0-1.7,1.4-3.1,3.1-3.1c1.7,0,3.1,1.4,3.1,3.1s-1.4,3.1-3.1,3.1l0,0
	C592.8,467.3,591.4,465.9,591.4,464.2z"/>
<path id="point-0-6-2_1_" class="st1" d="M80,519.8c0-2.3,1.8-4.1,4.1-4.1c2.3,0,4.1,1.8,4.1,4.1s-1.8,4.1-4.1,4.1
	S80,522.1,80,519.8z"/>
<text transform="matrix(1 0 0 1 75.4373 536.6464)" class="st1 st2 st12">19,1</text>
<text transform="matrix(1 0 0 1 444.7075 388.4638)" class="st1 st2 st12">46,3</text>
<text transform="matrix(1 0 0 1 378.1895 101.6649)" class="st19 st15 st18">2020</text>
<text transform="matrix(1 0 0 1 322.9194 101.6649)" class="st19 st15 st18">2021</text>
<path id="point-0-6-5_1_" class="st1" d="M133,503.7c0-1.7,1.4-3.1,3.1-3.1c1.7,0,3.1,1.4,3.1,3.1s-1.4,3.1-3.1,3.1l0,0
	C134.4,506.8,133,505.4,133,503.7z"/>
<path class="st20" d="M84,519c17.3-5.2,34.6-10.4,51.8-15.6"/>
<text transform="matrix(1 0 0 1 135.3238 519.7677)" class="st1 st2 st12">22,9</text>
</svg>
