<?xml version="1.0" encoding="utf-8"?>
<!-- Generator: Adobe Illustrator 24.0.1, SVG Export Plug-In . SVG Version: 6.00 Build 0)  -->
<svg version="1.1" id="graphic" xmlns="http://www.w3.org/2000/svg" xmlns:xlink="http://www.w3.org/1999/xlink" x="0px" y="0px"
	 viewBox="0 0 757.5 896.5" style="enable-background:new 0 0 757.5 896.5;" xml:space="preserve">
<style type="text/css">
	.st0{clip-path:url(#SVGID_2_);fill:#003366;}
	.st1{clip-path:url(#SVGID_4_);enable-background:new    ;}
	.st2{fill:#FAFAFA;}
	.st3{font-family:'Arial-BoldMT';}
	.st4{font-size:21px;}
	.st5{fill:none;}
	.st6{display:none;fill:none;stroke:#CBCBCB;stroke-dasharray:0.5;}
	.st7{fill:none;stroke:#CBCBCB;stroke-dasharray:0.5;}
	.st8{fill:#003366;}
	.st9{font-family:'SourceSansPro-Regular';}
	.st10{font-size:14px;}
	.st11{fill:none;stroke:#003366;stroke-dasharray:0;}
	.st12{font-size:15px;}
	.st13{clip-path:url(#SVGID_6_);fill:#003366;}
	.st14{clip-path:url(#SVGID_8_);enable-background:new    ;}
	.st15{opacity:0.9;fill:#00CCCC;enable-background:new    ;}
	.st16{font-family:'ArialMT';}
	.st17{font-size:16px;}
	.st18{fill:none;stroke:#F7F7F7;stroke-width:2.56;}
	.st19{fill:#333333;}
	.st20{opacity:0.9;fill:#8E8E8E;enable-background:new    ;}
</style>
<g id="facets">
	<g transform="translate(51,46.5)">
		<g>
			<defs>
				<rect id="SVGID_1_" x="-35" y="-78.5" width="766.5" height="473.8"/>
			</defs>
			<clipPath id="SVGID_2_">
				<use xlink:href="#SVGID_1_"  style="overflow:visible;"/>
			</clipPath>
			<rect y="-41" class="st0" width="696.5" height="31.5"/>
		</g>
		<g>
			<defs>
				<rect id="SVGID_3_" x="-35" y="-78.5" width="766.5" height="473.8"/>
			</defs>
			<clipPath id="SVGID_4_">
				<use xlink:href="#SVGID_3_"  style="overflow:visible;"/>
			</clipPath>
			<g class="st1">
				<text transform="matrix(1 0 0 1 303.215 -17.64)" class="st2 st3 st4">VIATGERS</text>
			</g>
		</g>
		<g>
			<g>
				<rect class="st5" width="696.5" height="348.3"/>
			</g>
			<g>
				<g>
					<path class="st6" d="M0.5,348.8V0.5"/>
					<g transform="translate(0,313.925)">
						<line class="st7" x1="0" y1="0" x2="696.5" y2="0"/>
						<text transform="matrix(1 0 0 1 -31.9376 4.62)" class="st8 st9 st10">0,0%</text>
					</g>
					<g transform="translate(0,226.8625)">
						<line class="st7" x1="0" y1="0" x2="696.5" y2="0"/>
						<text transform="matrix(1 0 0 1 -45.8534 4.62)" class="st8 st9 st10">500,0%</text>
					</g>
					<g transform="translate(0,139.8)">
						<line class="st7" x1="0" y1="0" x2="696.5" y2="0"/>
						<text transform="matrix(1 0 0 1 -52.8113 4.62)" class="st8 st9 st10">1000,0%</text>
					</g>
					<g transform="translate(0,52.737500000000004)">
						<line class="st7" x1="0" y1="0" x2="696.5" y2="0"/>
						<text transform="matrix(1 0 0 1 -52.8113 4.62)" class="st8 st9 st10">1500,0%</text>
					</g>
				</g>
				<g transform="translate(0,348.25)">
					<path class="st11" d="M0.5,0.5H697"/>
					<g transform="translate(112.14830508474577,0)">
						<line class="st11" x1="0" y1="0" x2="0" y2="6"/>
						<text transform="matrix(1 0 0 1 -67.664 15)" class="st8 st9 st12">Establiments hotelers</text>
					</g>
					<g transform="translate(348.24999999999994,0)">
						<line class="st11" x1="0" y1="0" x2="0" y2="6"/>
						<text transform="matrix(1 0 0 1 -31.3122 15)" class="st8 st9 st12">Càmpings</text>
					</g>
					<g transform="translate(584.3516949152543,0)">
						<line class="st11" x1="0" y1="0" x2="0" y2="6"/>
						<text transform="matrix(1 0 0 1 -41.5792 15)" class="st8 st9 st12">Turisme rural</text>
					</g>
				</g>
			</g>
		</g>
	</g>
	<g transform="translate(51,520.25)">
		<g>
			<defs>
				<rect id="SVGID_5_" x="-35" y="-78.5" width="766.5" height="473.8"/>
			</defs>
			<clipPath id="SVGID_6_">
				<use xlink:href="#SVGID_5_"  style="overflow:visible;"/>
			</clipPath>
			<rect y="-41" class="st13" width="696.5" height="31.5"/>
		</g>
		<g>
			<defs>
				<rect id="SVGID_7_" x="-35" y="-78.5" width="766.5" height="473.8"/>
			</defs>
			<clipPath id="SVGID_8_">
				<use xlink:href="#SVGID_7_"  style="overflow:visible;"/>
			</clipPath>
			<g class="st14">
				<text transform="matrix(1 0 0 1 268.8865 -17.64)" class="st2 st3 st4">PERNOCTACIONS</text>
			</g>
		</g>
		<g>
			<g>
				<rect class="st5" width="696.5" height="348.3"/>
			</g>
			<g>
				<g>
					<path class="st6" d="M0.5,348.8V0.5"/>
					<g transform="translate(0,313.925)">
						<line class="st7" x1="0" y1="0" x2="696.5" y2="0"/>
						<text transform="matrix(1 0 0 1 -31.9376 4.62)" class="st8 st9 st10">0,0%</text>
					</g>
					<g transform="translate(0,226.8625)">
						<line class="st7" x1="0" y1="0" x2="696.5" y2="0"/>
						<text transform="matrix(1 0 0 1 -45.8534 4.62)" class="st8 st9 st10">500,0%</text>
					</g>
					<g transform="translate(0,139.8)">
						<line class="st7" x1="0" y1="0" x2="696.5" y2="0"/>
						<text transform="matrix(1 0 0 1 -52.8113 4.62)" class="st8 st9 st10">1000,0%</text>
					</g>
					<g transform="translate(0,52.737500000000004)">
						<line class="st7" x1="0" y1="0" x2="696.5" y2="0"/>
						<text transform="matrix(1 0 0 1 -52.8113 4.62)" class="st8 st9 st10">1500,0%</text>
					</g>
				</g>
				<g transform="translate(0,348.25)">
					<path class="st11" d="M0.5,0.5H697"/>
					<g transform="translate(112.14830508474577,0)">
						<line class="st11" x1="0" y1="0" x2="0" y2="6"/>
						<text transform="matrix(1 0 0 1 -67.664 15)" class="st8 st9 st12">Establiments hotelers</text>
					</g>
					<g transform="translate(348.24999999999994,0)">
						<line class="st11" x1="0" y1="0" x2="0" y2="6"/>
						<text transform="matrix(1 0 0 1 -31.3122 15)" class="st8 st9 st12">Càmpings</text>
					</g>
					<g transform="translate(584.3516949152543,0)">
						<line class="st11" x1="0" y1="0" x2="0" y2="6"/>
						<text transform="matrix(1 0 0 1 -41.5792 15)" class="st8 st9 st12">Turisme rural</text>
					</g>
				</g>
			</g>
		</g>
	</g>
</g>
<g>
	<g transform="translate(51, 46.5)">
	</g>
	<g transform="translate(51, 520.25)">
	</g>
</g>
<g id="areas">
</g>
<g id="lines">
</g>
<g id="data-points">
	<g transform="translate(51,46.5)">
		<path id="point-0-0" class="st15" d="M50.2,219.2h61.3v94.2H50.2V219.2z"/>
		<path id="point-0-1" class="st15" d="M286.3,20.8h61.3v292.6h-61.3V20.8z"/>
		<path id="point-0-2" class="st15" d="M522.4,313.4h61.3l0,0H522.4z"/>
		<g pointer-events="none" transform="translate(80.86483050847458,235.2407875)">
			<text transform="matrix(1 0 0 1 -27.1328 0)" class="st16 st17">540,9%</text>
			<text transform="matrix(1 0 0 1 -27.1328 0)" class="st18 st16 st17">540,9%</text>
			<text transform="matrix(1 0 0 1 -27.1328 0)" class="st19 st16 st17">540,9%</text>
		</g>
		<g pointer-events="none" transform="translate(316.9665254237288,36.807937499999994)">
			<text transform="matrix(1 0 0 1 -31.582 -1.563672e-05)" class="st16 st17">1680,5%</text>
			<text transform="matrix(1 0 0 1 -31.582 -1.563672e-05)" class="st18 st16 st17">1680,5%</text>
			<text transform="matrix(1 0 0 1 -31.582 -1.563672e-05)" class="st19 st16 st17">1680,5%</text>
		</g>
		<g pointer-events="none" transform="translate(553.068220338983,329.425)">
			<text transform="matrix(1 0 0 1 -8.2345 -25)" class="st15 st16 st17">ND</text>
		</g>
	</g>
	<g transform="translate(51,46.5)">
		<path id="point-1-0" class="st20" d="M112.8,313.4h61.3v9.9h-61.3V313.4z"/>
		<path id="point-1-1" class="st20" d="M348.9,312.3h61.3v1.1h-61.3V312.3z"/>
		<path id="point-1-2" class="st20" d="M585,313.4h61.3v11.3H585V313.4z"/>
		<g pointer-events="none" transform="translate(143.43177966101695,339.36753749999997)">
			<text transform="matrix(1 0 0 1 -25.3477 0)" class="st16 st17">-57,1%</text>
			<text transform="matrix(1 0 0 1 -25.3477 0)" class="st18 st16 st17">-57,1%</text>
			<text transform="matrix(1 0 0 1 -25.3477 0)" class="st19 st16 st17">-57,1%</text>
		</g>
		<g pointer-events="none" transform="translate(379.53347457627115,328.275775)">
			<text transform="matrix(1 0 0 1 -18.2344 0)" class="st16 st17">6,6%</text>
			<text transform="matrix(1 0 0 1 -18.2344 0)" class="st18 st16 st17">6,6%</text>
			<text transform="matrix(1 0 0 1 -18.2344 0)" class="st19 st16 st17">6,6%</text>
		</g>
		<g pointer-events="none" transform="translate(615.6351694915254,340.69088750000003)">
			<text transform="matrix(1 0 0 1 -25.3477 0)" class="st16 st17">-64,7%</text>
			<text transform="matrix(1 0 0 1 -25.3477 0)" class="st18 st16 st17">-64,7%</text>
			<text transform="matrix(1 0 0 1 -25.3477 0)" class="st19 st16 st17">-64,7%</text>
		</g>
	</g>
	<g transform="translate(51,520.25)">
		<path id="point-0-3" class="st15" d="M50.2,220.9h61.3v92.5H50.2V220.9z"/>
		<path id="point-0-4" class="st15" d="M286.3,208.1h61.3v105.3h-61.3V208.1z"/>
		<path id="point-0-5" class="st15" d="M522.4,313.4h61.3l0,0H522.4z"/>
		<g pointer-events="none" transform="translate(80.86483050847458,236.9123875)">
			<text transform="matrix(1 0 0 1 -27.1328 0)" class="st16 st17">531,3%</text>
			<text transform="matrix(1 0 0 1 -27.1328 0)" class="st18 st16 st17">531,3%</text>
			<text transform="matrix(1 0 0 1 -27.1328 0)" class="st19 st16 st17">531,3%</text>
		</g>
		<g pointer-events="none" transform="translate(316.9665254237288,224.149025)">
			<text transform="matrix(1 0 0 1 -27.1328 1.485156e-05)" class="st16 st17">604,6%</text>
			<text transform="matrix(1 0 0 1 -27.1328 1.485156e-05)" class="st18 st16 st17">604,6%</text>
			<text transform="matrix(1 0 0 1 -27.1328 1.485156e-05)" class="st19 st16 st17">604,6%</text>
		</g>
	</g>
	<g transform="translate(51,520.25)">
		<path id="point-1-3" class="st20" d="M112.8,313.4h61.3v7.9h-61.3V313.4z"/>
		<path id="point-1-4" class="st20" d="M348.9,313.4h61.3v3.9h-61.3V313.4z"/>
		<path id="point-1-5" class="st20" d="M585,313.4h61.3v11.2H585V313.4z"/>
		<g pointer-events="none" transform="translate(143.43177966101695,337.330275)">
			<text transform="matrix(1 0 0 1 -25.3477 0)" class="st16 st17">-45,4%</text>
			<text transform="matrix(1 0 0 1 -25.3477 0)" class="st18 st16 st17">-45,4%</text>
			<text transform="matrix(1 0 0 1 -25.3477 0)" class="st19 st16 st17">-45,4%</text>
		</g>
		<g pointer-events="none" transform="translate(379.53347457627115,333.360225)">
			<text transform="matrix(1 0 0 1 -25.3477 0)" class="st16 st17">-22,6%</text>
			<text transform="matrix(1 0 0 1 -25.3477 0)" class="st18 st16 st17">-22,6%</text>
			<text transform="matrix(1 0 0 1 -25.3477 0)" class="st19 st16 st17">-22,6%</text>
		</g>
		<g pointer-events="none" transform="translate(615.6351694915254,340.6560625)">
			<text transform="matrix(1 0 0 1 -25.3477 0)" class="st16 st17">-64,5%</text>
			<text transform="matrix(1 0 0 1 -25.3477 0)" class="st18 st16 st17">-64,5%</text>
			<text transform="matrix(1 0 0 1 -25.3477 0)" class="st19 st16 st17">-64,5%</text>
		</g>
	</g>
</g>
<g id="lines-secondary">
</g>
<g id="data-labels">
</g>
<g>
	<g transform="translate(51, 46.5)">
	</g>
	<g transform="translate(51, 520.25)">
	</g>
</g>
<g pointer-events="none" transform="translate(553.068220338983,329.425)">
	<text transform="matrix(1 0 0 1 42.7657 494.3428)" class="st15 st16 st17">ND</text>
</g>
</svg>
